<?xml version="1.0" encoding="utf-8"?>
<!-- Generator: Adobe Illustrator 22.0.1, SVG Export Plug-In . SVG Version: 6.00 Build 0)  -->
<svg version="1.1" id="Layer_1" xmlns="http://www.w3.org/2000/svg" xmlns:xlink="http://www.w3.org/1999/xlink" x="0px" y="0px"
	 viewBox="0 0 2000 2000" style="enable-background:new 0 0 2000 2000;" xml:space="preserve">
<path style="fill:#171717;" d="M1084.1,496.4c-5.5,0-11,0.1-16.4,0.1c-7.7,0-15.3,0.3-23,0.4c-6.3,0.1-12.7,0.3-19,0.5
	c-9.8,0.3-19.5,0.7-29.3,1c-7.5,0.2-15,0.7-22.5,1c-15.7,0.7-31.4,1.5-47.1,2.3c-32.5,1.7-65,4-97.5,6.3c-30.5,2.1-61,4.9-91.5,8.2
	c-15.7,1.8-31.5,3.7-47.2,5.8c-7.3,1-14.6,2.1-21.9,3.4c-3.4,0.6-6.7,1.3-10,2.1c-1.9,0.5-3.8,1.1-5.5,2c-2,1-3.5,2.6-4.9,4.3
	c-0.7,0.9-1.3,2-1.8,3c-0.6,1.1-1.1,2.2-1.6,3.4c-1.2,2.8-1.8,5.9-2.4,8.8c-1.9,9.9-1.7,19.9-1.5,29.9c0.1,7.6,0.4,15.3,1,22.9
	c0.6,8,1.2,16,2.3,24c1.1,7.5,2.7,15,5.1,22.2c1.5,4.6,3.5,9,6,13.1c2.4,3.9,5.3,7.4,8.8,10.5c4.4,3.8,9.4,6.9,14.5,9.6
	c4.6,2.3,9.4,4.2,14.3,5.8c2.5,0.8,5,1.5,7.5,2.2c3.6,1,7.3,2,10.9,2.9c3.9,0.9,7.8,1.8,11.7,2.5c4.9,0.8,9.8,1.7,14.7,2.6
	c3.5,0.6,7,1.1,10.6,1.6c3.2,0.5,6.4,1,9.6,1.4c8.3,1.1,16.7,2.2,25,3.1c8.6,1,17.1,2,25.7,2.9c7.6,0.8,15.2,1.4,22.9,2.1
	c2.6,0.2,5.2,0.4,7.7,0.6c1.3,0.1,2.6,0.2,3.9,0.3c3.3,0.3,6.6,0.6,9.9,0.8c4.9,0.3,9.7,0.6,14.6,0.9c3.7,0.2,7.4,0.3,11.1,0.4
	c8.1,0.3,16.2,0.5,24.3,0.7c15.8,0.4,31.5,0.3,47.3,0.2c0.7,0,1.4,0,2.1,0c2.5-0.1,4.9-0.1,7.4-0.2c4.8-0.3,9.6-0.6,14.4-0.6
	c4.2,0,8.4,0,12.6-0.2c-1.1,0-2.1,0.1-3.2,0.1c11.6-0.5,23.2-0.9,34.7-0.9c0.5,0,1,0,1.5,0c8-0.3,16-0.5,24-0.8c16-0.5,32-1,48-1.7
	c16.2-0.6,32.4-1.4,48.5-2.3c15.3-0.8,30.5-2.1,45.8-3.1c16.6-1.1,33.3-2.3,49.9-3.3c15.6-1,31.1-2,46.6-3.4
	c7.8-0.7,15.7-1.5,23.5-2.4c3.7-0.4,7.4-0.9,11.2-1.4c1.9-0.2,3.8-0.6,5.7-0.8c1.7-0.2,3.4-0.5,5.1-0.9c5.2-1.2,10.6-2.4,15.5-4.6
	c2-0.9,3.8-2.2,5.5-3.4c1.8-1.3,3.3-2.9,4.7-4.6c2.9-3.3,5.1-7.4,6.8-11.4c1.5-3.5,3-7.1,4.1-10.8c0.5-1.9,1.2-3.7,1.6-5.6
	c0.5-2.1,0.9-4.2,1.4-6.3c0.9-4.2,1.5-8.6,2.1-12.9c0.5-3.8,0.7-7.6,0.9-11.3c0.4-7.4,0.4-14.8,0.4-22.2c0-5.6-0.2-11.2-0.2-16.8
	c0-5.6,0.2-11.2,0.3-16.8c0.1-5.6,0.2-11.2,0.1-16.9c-0.1-2.7-0.1-5.5-0.2-8.2c0-1.3-0.1-2.6-0.2-3.9c1-0.6,1.9-1.4,2.5-2.3
	c1.2-1.8,1.6-4.3,0.8-6.3c-0.9-2.1-2.4-3.5-4.2-4.9c-0.9-0.7-2.1-1.2-3.2-1.7c-1.1-0.6-2.4-1-3.6-1.4c-3-1-6.1-1.6-9.1-2.2
	c-7.1-1.5-14.3-2.5-21.6-3.5c-3.5-0.5-6.9-1-10.4-1.4c-5.1-0.5-10.2-1.1-15.4-1.6c-14.9-1.6-29.9-2.8-44.9-4
	c-12-1-24.1-1.9-36.1-2.9c-3.3-0.2-6.6-0.5-9.9-0.7c-9.2-0.7-18.3-1.4-27.5-2c-3-0.2-5.9-0.3-8.9-0.5c-5.5-0.3-11-0.6-16.4-0.9
	c-7-0.4-13.9-0.5-20.9-0.8c-7.1-0.2-14.1-0.5-21.2-0.6c-9.7-0.1-19.4-0.3-29.1-0.4c-0.7,0-1.3,0-2,0
	C1088.1,496.3,1086.1,496.4,1084.1,496.4L1084.1,496.4L1084.1,496.4z M951.7,509.3c6.4-0.3,12.9-0.6,19.3-0.9
	c8.1-0.4,16.1-0.8,24.2-1.1c15.6-0.5,31.2-1.1,46.8-1.4c7.9-0.2,15.8-0.4,23.7-0.4c5.2,0,10.4-0.1,15.7-0.1c3.2,0,6.3-0.1,9.5,0
	c9.4,0.1,18.9,0.3,28.3,0.4c6.8,0.1,13.6,0.4,20.4,0.6c7.2,0.2,14.5,0.4,21.7,0.8c8.8,0.5,17.6,1,26.5,1.5c2.4,0.1,4.7,0.3,7.1,0.5
	c0.8,0.1,1.6,0.1,2.4,0.2c0.4,0,0.8,0.1,1.2,0.1c5.3,0.4,10.6,0.8,15.9,1.2c7.6,0.6,15.2,1.2,22.8,1.8c14.9,1.1,29.7,2.3,44.6,3.7
	c5.9,0.5,11.8,1.1,17.7,1.6c4.6,0.4,9.2,1,13.8,1.5c4.5,0.5,8.9,0.9,13.4,1.5c8.5,1.2,17.1,2.3,25.6,4c3.4,0.7,6.9,1.5,10.2,2.8
	c-0.6,0.6-1,1.4-1.2,2.2c-1.2,0.5-2.4,1-3.6,1.5c-2.2,0.9-4.5,1.7-6.7,2.5c-3.1,1-6.2,2.1-9.4,2.9c-3.7,1-7.3,2.1-11,2.9
	c-4.3,1-8.6,2-12.9,3c-1.4,0.3-2.8,0.6-4.3,0.9c-2.9,0.6-5.8,1.2-8.7,1.8c-7.8,1.6-15.6,2.8-23.5,4.2c-3.3,0.6-6.5,1-9.8,1.5
	c-4.3,0.6-8.5,1.2-12.8,1.9c-3.6,0.5-7.2,0.9-10.7,1.4c-4.6,0.6-9.2,1.2-13.8,1.8c-2.9,0.4-5.8,0.7-8.8,1
	c-5.4,0.6-10.8,1.2-16.2,1.8c-7.6,0.8-15.3,1.5-22.9,2.2c-3.1,0.3-6.1,0.6-9.2,0.8c-3.9,0.3-7.7,0.5-11.6,0.8
	c-5.9,0.4-11.9,0.8-17.8,1.2c-8.9,0.4-17.8,0.8-26.7,1.2c-7,0.3-14,0.4-21,0.5c-6.8,0.1-13.6,0.3-20.4,0.3c-9.6,0-19.3,0-28.9,0
	c-7.9,0-15.8-0.2-23.8-0.3c-6.2-0.1-12.4-0.2-18.6-0.3c-10.3-0.2-20.6-0.5-30.8-0.7c-6.7-0.1-13.4-0.4-20.1-0.6
	c-17.2-0.6-34.3-1.2-51.5-1.9c-15.9-0.6-31.8-1.4-47.7-2.2c-6.9-0.3-13.8-0.8-20.7-1.1c-7-0.4-14-0.7-21-1.2
	c-10-0.7-19.9-1.3-29.9-2c-7-0.5-14-1.1-21-1.7c-6.7-0.5-13.3-1-20-1.7c-10.1-1-20.1-2-30.2-3.1c-4.5-0.5-9-0.9-13.4-1.4
	c-1.5-0.2-3-0.3-4.6-0.6c-10-1.7-20-3.3-30-5c-1.4-0.2-2.7-0.5-4-0.7c-2.6-0.6-5.1-1.2-7.7-1.8c0.2-0.3,0.4-0.6,0.6-0.9
	c0.2-0.2,0.5-0.5,0.8-0.7c0.8-0.4,1.6-0.8,2.4-1.1c3.4-1,7-1.6,10.5-2.3c3.6-0.7,7.1-1.2,10.7-1.8c7.3-1.1,14.6-2.1,21.9-3
	c7.6-1,15.2-2,22.9-2.9c8.3-1,16.6-1.9,24.9-2.8c15.4-1.6,30.8-3.1,46.3-4.5c16.2-1.4,32.5-2.5,48.8-3.6c19-1.3,38-2.6,57.1-3.8
	c-0.4,0-0.8,0-1.2,0.1C918,511.1,934.9,510.2,951.7,509.3L951.7,509.3L951.7,509.3z M1085.3,574.5c9.8-0.2,19.6-0.4,29.4-0.6
	c2.2,0,4.3-0.2,6.5-0.3c5.7-0.3,11.3-0.5,17-0.8c3.4-0.2,6.8-0.2,10.2-0.5c3.7-0.3,7.3-0.5,10.9-0.8c7.4-0.5,14.9-0.9,22.3-1.6
	c8.9-0.8,17.7-1.6,26.5-2.4c3.7-0.3,7.4-0.8,11.1-1.2c5-0.6,10-1.1,15-1.7c7.9-0.9,15.8-2,23.7-3c7.7-1,15.4-2.2,23.2-3.4
	c3-0.5,6.1-1,9.1-1.5c4-0.7,8-1.3,12-2.1c7.8-1.6,15.6-3.1,23.3-4.9c7.6-1.8,15.2-3.6,22.7-6c2.1-0.7,4.3-1.3,6.4-2
	c2-0.7,4-1.5,6.1-2.2c0.6-0.2,1.2-0.5,1.8-0.7c0.2,5.9,0.2,11.8,0.2,17.7c-0.1,7.3-0.4,14.6-0.4,21.9c0,7.7,0.2,15.5,0.2,23.2
	c0,3.7-0.1,7.3-0.2,11c-0.1,3.8-0.2,7.5-0.5,11.3c-0.3,3.2-0.6,6.4-1.1,9.6c-0.4,2.7-0.9,5.4-1.3,8.1c-0.4,1.8-0.8,3.6-1.2,5.4
	c-0.5,2.1-1.2,4.2-1.8,6.3c-0.5,2-1.3,3.9-2,5.8c-0.4,1.1-0.9,2.2-1.4,3.3c-0.5,1.3-1.1,2.5-1.7,3.8c-1.3,2.5-2.9,4.8-4.7,7
	c-1.3,1.3-2.7,2.4-4.1,3.4c-1.5,0.9-3.1,1.7-4.8,2.3c-7.4,2.3-15,3.7-22.7,4.7c-8.2,1.1-16.4,2-24.6,2.8c-15.6,1.6-31.3,2.6-47,3.7
	c-15.4,1-30.8,2-46.2,3c-16,1.1-31.9,2.3-47.8,3.3c-2.9,0.2-5.9,0.4-8.8,0.6c-15.4,0.8-30.8,1.6-46.2,2.2c-16,0.6-32,1.1-48,1.7
	c-15.6,0.5-31.3,1-46.9,1.5c-15.6,0.5-31.2,0.9-46.9,1c-16,0.1-32,0.2-48.1-0.2c-7.8-0.2-15.6-0.3-23.4-0.6c-4-0.2-8-0.2-12-0.5
	c-4.7-0.3-9.4-0.6-14.1-0.9c-7.4-0.5-14.9-1.1-22.3-1.7c-4.3-0.3-8.5-0.8-12.8-1.2c-3-0.3-6.1-0.6-9.1-0.9
	c-8.5-0.9-16.9-1.8-25.4-2.8c-8.5-1-16.9-2.1-25.4-3.2c-12.3-1.6-24.4-3.8-36.6-5.9c-2.5-0.5-5-1.1-7.4-1.6c-2-0.4-4-0.9-5.9-1.4
	c-3.2-0.9-6.5-1.8-9.7-2.7c-6.1-1.7-12-3.9-17.6-6.7c-4.5-2.4-8.9-5.2-12.8-8.5c-2.4-2.3-4.5-4.8-6.4-7.6c-1.3-2.1-2.4-4.3-3.5-6.5
	c-0.6-1.3-1.1-2.6-1.6-3.9c-1.2-3.8-2.3-7.7-3.2-11.7c-0.5-2.4-1-4.8-1.4-7.2c-0.4-2.3-0.7-4.5-1-6.8c-0.3-2.1-0.5-4.1-0.7-6.2
	c-0.2-2.3-0.4-4.6-0.6-6.9c-0.3-4.6-0.7-9.1-0.9-13.7c-0.3-6.5-0.5-13-0.6-19.6c-0.2-8.1,0-16.3,1.5-24.2c0.2-0.8,0.4-1.6,0.6-2.3
	c3.8,0.9,7.6,1.9,11.5,2.6c1.3,0.2,2.6,0.4,4,0.7c5.3,0.9,10.6,1.8,16,2.7c6.1,1,12.2,2.2,18.4,2.9c10.5,1.1,21,2.1,31.5,3.2
	c5.7,0.6,11.3,1.2,17,1.7c10.3,0.8,20.6,1.7,30.8,2.5c0.9,0.1,1.8,0.2,2.8,0.2c6.1,0.5,12.2,0.8,18.4,1.2c16.9,1.1,33.8,2,50.7,3
	c6.4,0.4,12.8,0.6,19.1,0.9c7.9,0.4,15.8,0.8,23.7,1.1c15.1,0.6,30.3,1.3,45.4,1.8c10.4,0.3,20.7,0.7,31.1,1
	c6.6,0.2,13.2,0.3,19.8,0.5c17.3,0.4,34.6,0.7,51.8,0.9c6.5,0.1,13.1,0.1,19.6,0.1c4.1,0,8.2,0,12.3,0
	C1079.1,574.6,1082.2,574.6,1085.3,574.5L1085.3,574.5L1085.3,574.5z"/>
<path style="fill:#171717;" d="M682.4,688.4c1,42.3,2.7,84.6,3.9,126.8c1.1,37.7,1.7,75.3,2.8,113c1.1,39.8,2.1,79.7,2.8,119.5
	c0.6,37.9,0.7,75.8,0.7,113.6c0,40.8,0,81.6,0,122.4c0,17.9,0,35.9,0,53.8c0,10.9,0,21.7,0,32.6c0,8.8-0.1,17.6,0.2,26.4
	c0.1,5,0.2,10,0.5,15c0.1,2.9,0.3,5.8,0.4,8.7c0.1,2.4,0.4,4.8,0.6,7.1c0.2,2,0.3,4,0.6,6c0.5,3.2,1,6.4,1.5,9.6
	c0.6,3.6,1.3,7.2,2.1,10.8c1.6,6.7,3.8,13.3,6.7,19.6c2.7,6,6.3,11.6,10.2,16.9c1.8,2.5,3.8,4.9,5.8,7.2c2.4,2.8,5.2,5.4,8,7.9
	c9.7,8.5,20.8,15.4,32.4,20.8c5.7,2.7,11.6,4.9,17.6,7.1c2.8,1,5.7,2,8.6,2.9c6.3,1.9,12.5,3.9,18.8,5.8c1.8,0.6,3.6,1.1,5.4,1.7
	c1.3,0.4,2.7,0.7,4,1c6.4,1.6,12.8,3.1,19.2,4.7c3.3,0.8,6.7,1.4,10,2.1c6,1.2,12.1,2.3,18.2,3.5c4.1,0.8,8.2,1.3,12.3,2
	c4.6,0.7,9.2,1.6,13.8,2.2c9.2,1.2,18.4,2.5,27.7,3.4c8.9,0.9,17.9,1.9,26.8,2.8c1.1-0.2,2.2-0.3,3.3-0.3
	c22.7,0.8,45.2,4.1,67.9,4.6c18.2,0.4,36.3,0.6,54.5,0c1.4-0.2,2.7-0.3,4.1-0.5c1.8-0.2,3.6-0.4,5.4-0.7c4.3-0.5,8.6-1,12.9-1.5
	c-3.8-0.3-7.7-0.5-11.5-0.8c-19-1.3-37.9-2.3-56.9-3.6c-10.5-0.7-20.9-1.4-31.4-2.1c-2.8-0.2-5.5-0.4-8.3-0.7
	c-1.9,0-3.8-0.2-5.7-0.5c-4.7-0.4-9.4-0.8-14.1-1.2c-5.3-0.5-10.6-1-15.8-1.6c-3.6-0.4-7.2-0.7-10.7-1.1c-9.9-1.1-19.8-2-29.7-3.3
	c-5.9-0.8-11.8-1.5-17.7-2.3c-4.9-0.8-9.8-1.6-14.7-2.3c-3.5-0.6-7-1.1-10.5-1.7c-6-1.2-12.1-2.3-18.1-3.5c-3.1-0.6-6.2-1.2-9.3-1.9
	c-6.2-1.5-12.4-3-18.6-4.6c-1.5-0.4-3-0.7-4.5-1.1c-1.4-0.3-2.8-0.9-4.2-1.3c-6.1-1.9-12.2-3.8-18.4-5.7c-7.5-2.3-14.8-5-22-8
	c-10.6-4.6-20.6-10.4-29.8-17.4c-2.8-2.2-5.4-4.5-8-6.9c-2.9-2.7-5.5-5.7-8-8.9c-2.3-3.1-4.5-6.2-6.5-9.4c-2.1-3.4-3.9-7.1-5.5-10.8
	c-1.8-4.4-3.2-9-4.4-13.6c-0.9-3.5-1.7-7-2.2-10.5c-0.6-3.7-1.2-7.5-1.7-11.2c-0.4-4.4-0.9-8.8-1.1-13.2c-0.2-5-0.5-9.9-0.6-14.9
	c-0.1-4.7-0.3-9.3-0.3-14c0-4.8-0.1-9.6-0.1-14.3c0-20.6,0-41.2,0-61.8c0-38.6,0-77.2,0-115.8c0-38.4,0.1-76.7-0.3-115.1
	c-0.4-40.1-1.3-80.1-2.2-120.2c-0.5-19.6-1.1-39.3-1.5-58.9c-0.4-18.1-0.8-36.2-1.3-54.4c-0.5-19.5-1-39-1.6-58.5
	c-0.6-18.9-1.3-37.7-1.9-56.6c-0.5-15.1-0.9-30.3-1.3-45.4c-0.1-2.5-2-4.5-4.5-4.5C684.5,683.8,682.3,685.9,682.4,688.4L682.4,688.4
	L682.4,688.4z"/>
<path style="fill:#171717;" d="M1335.2,689.7c-0.4,15.1-0.8,30.3-1.3,45.4c-0.6,18.9-1.2,37.7-1.9,56.6c-0.7,19.5-1.1,39-1.6,58.5
	c-0.5,18.1-0.8,36.2-1.3,54.4c-0.5,19.6-1.1,39.3-1.5,58.9c-1,40.1-1.9,80.1-2.2,120.2c-0.4,38.4-0.3,76.7-0.3,115.1
	c0,38.6,0,77.2,0,115.8c0,20.6,0,41.2,0,61.8c0,4.8,0,9.6-0.1,14.3c0,4.7-0.2,9.3-0.3,14c-0.1,5-0.4,9.9-0.6,14.9
	c-0.2,4.4-0.7,8.8-1.1,13.2c-0.6,3.7-1.2,7.5-1.7,11.2c-0.5,3.5-1.3,7.1-2.2,10.5c-1.2,4.6-2.6,9.1-4.4,13.6
	c-1.6,3.7-3.4,7.4-5.5,10.8c-2,3.3-4.2,6.4-6.5,9.4c-2.4,3.1-5,6.1-7.9,8.9c-2.6,2.4-5.3,4.7-8,6.9c-9.2,7-19.2,12.8-29.8,17.4
	c-7.2,3-14.6,5.7-22,8c-6.1,1.9-12.2,3.8-18.4,5.7c-1.4,0.4-2.8,1-4.2,1.3c-1.5,0.4-3,0.7-4.5,1.1c-6.2,1.5-12.4,3-18.6,4.6
	c-3.1,0.8-6.2,1.3-9.3,1.9c-6,1.2-12.1,2.3-18.1,3.5c-3.5,0.7-7,1.2-10.5,1.7c-4.9,0.8-9.8,1.6-14.7,2.3c-5.9,0.8-11.8,1.5-17.7,2.3
	c-9.9,1.3-19.8,2.2-29.7,3.3c-3.6,0.4-7.2,0.7-10.7,1.1c-5.3,0.5-10.6,1.1-15.8,1.6c-9.4,0.8-18.7,1.6-28.1,2.4
	c-10.5,0.8-20.9,1.5-31.4,2.1c-11.8,0.8-23.7,1.5-35.5,2.2c15.8,1.3,31.7,3,47.6,3.4c10.6,0.2,21.2,0.4,31.8,0.4c0.1,0,0.1,0,0.2,0
	c10.7-0.9,21.5-1.9,32.2-3c10.1-1,20.2-2.1,30.3-3.1c9.3-1,18.5-2.3,27.7-3.4c4.6-0.6,9.2-1.4,13.8-2.2c4.1-0.7,8.2-1.2,12.3-2
	c6-1.2,12.1-2.3,18.2-3.5c3.4-0.7,6.7-1.3,10-2.1c1.7-0.4,3.3-0.8,5-1.2c0.4-0.1,0.8-0.2,1.2-0.3c4.3-1.1,8.7-2.1,13-3.2
	c1.3-0.3,2.7-0.6,4-1c1.8-0.5,3.6-1.1,5.4-1.7c6.3-1.9,12.5-3.9,18.8-5.8c2.9-0.9,5.7-1.9,8.6-2.9c5.9-2.2,11.9-4.4,17.6-7.1
	c11.6-5.4,22.8-12.3,32.4-20.8c2.8-2.5,5.6-5,8-7.9c2-2.3,3.9-4.7,5.8-7.2c3.9-5.3,7.5-10.9,10.2-16.9c2.8-6.3,5.1-12.8,6.7-19.6
	c0.8-3.6,1.6-7.2,2.1-10.8c0.5-3.2,1-6.4,1.5-9.6c0.3-2,0.5-4,0.6-6c0.2-2.4,0.5-4.7,0.6-7.1c0.1-2.9,0.3-5.8,0.4-8.7
	c0.2-5,0.3-10,0.5-15c0.2-8.8,0.2-17.6,0.2-26.4c0-10.9,0-21.7,0-32.6c0-17.9,0-35.9,0-53.8c0-40.8,0-81.6,0-122.4
	c0-37.9,0.1-75.8,0.7-113.6c0.6-39.8,1.7-79.7,2.8-119.5c1-37.7,1.7-75.3,2.8-113c1.2-42.3,2.9-84.6,3.9-126.8
	c0.1-2.5-2.1-4.5-4.5-4.5C1337.2,685.2,1335.3,687.3,1335.2,689.7L1335.2,689.7L1335.2,689.7z"/>
<path style="fill:#171717;" d="M965.1,849.8c-1.1,0.3-2.3,0.6-3.4,0.9c-1.1,0.3-2.2,0.6-3.2,0.9c-19.5,5.7-38.3,13.9-55.7,24.4
	c-7.9,4.7-15.5,10-22.8,15.6c0,0,0,0,0,0c-0.3,0.2-0.6,0.5-0.9,0.7c-0.1,0-0.1,0.1-0.2,0.1c-0.2,0.2-0.5,0.4-0.7,0.6
	c-0.1,0.1-0.2,0.2-0.4,0.3c-0.2,0.1-0.3,0.3-0.5,0.4c-0.2,0.2-0.4,0.3-0.6,0.5c-0.1,0.1-0.2,0.2-0.3,0.2c-0.3,0.2-0.6,0.5-0.9,0.7
	c0,0,0,0,0,0c-4.6,3.7-9,7.6-13.3,11.6c-5.2,4.9-10.2,10.1-15,15.4c-1.4,1.6-2.8,3.2-4.2,4.9c-2.6,3.1-5.1,6.2-7.5,9.4
	c-16.4,21.4-28.9,45.8-37.1,71.5c-7.5,23.4-11.1,48.1-11,72.8c0,1.2,0,2.3,0,3.5c0.1,8.2,0.7,16.4,1.7,24.5c0,0,0,0,0,0.1
	c0,0.4,0.1,0.8,0.2,1.2c0,0.1,0,0.2,0,0.3c0,0.3,0.1,0.6,0.1,0.9c0,0.2,0.1,0.4,0.1,0.6c0,0.2,0.1,0.4,0.1,0.7
	c0,0.3,0.1,0.6,0.1,0.9c0,0.1,0,0.2,0.1,0.4c1.2,8.1,2.8,16.2,4.7,24.1c3.4,13.6,8.1,26.9,13.9,39.7c9.6,21.4,22.5,41.3,37.9,58.8
	c0,0,0.1,0.1,0.1,0.1c18.4,21.2,40.9,38.9,65.5,52.4c10.3,5.6,20.9,10.4,31.9,14.4c4.7,1.7,9.4,3.2,14.1,4.7c3.4,1,6.9,2,10.4,2.8
	c1.9,0,3.6,0.6,5.4,1.2c1.4,0.3,2.8,0.6,4.2,0.9c5,0.5,10.1,1,15.1,1.5c5.5,0.6,11,1.3,16.5,1.6c9,0.5,18,1,27.1,1.2
	c12.6-0.6,25.3-2.3,37.6-4.9c0.7-0.1,1.4-0.3,2-0.4c2.1-0.5,4.2-1,6.3-1.5c1.2-0.5,2.5-1,3.7-1.4c2.3-0.9,4.5-1.9,7-1.7
	c0.2,0,0.4,0,0.6,0c0.5-0.1,1-0.3,1.4-0.4c0.1,0,0.2-0.1,0.3-0.1c0.2-0.1,0.4-0.1,0.6-0.2c16.5-5.2,32.4-12.2,47.4-20.9
	c0.2-0.1,0.3-0.2,0.5-0.3c0.2-0.1,0.3-0.2,0.5-0.3c2.3-1.3,4.6-2.7,6.8-4.1c11-6.9,21.5-14.8,31.2-23.5c0.1-0.1,0.1-0.1,0.2-0.2
	c0.2-0.2,0.3-0.3,0.5-0.5c3-2.6,5.8-5.3,8.7-8.1c9.8-9.6,18.7-20.2,26.7-31.3c13.6-18.9,24.3-40,31.7-62.1c0-0.1,0.1-0.2,0.1-0.3
	c1.7-5.1,3.2-10.2,4.6-15.4c0.1-0.2,0.1-0.5,0.2-0.7c5.3-20.4,7.7-41.6,7.4-62.7c0-2.5-0.1-4.9-0.2-7.4c-0.7-14.9-2.8-29.7-6.2-44.2
	c-1-4.1-2.1-8.2-3.3-12.2c-3.1-10.3-6.8-20.5-11.3-30.3c-11.2-25-26.9-47.9-45.9-67.6c-18.7-19.4-40.8-35.5-64.9-47.6
	c-12.1-6-24.7-11-37.7-14.9c-7.1-2.1-14.3-3.9-21.6-5.3c-0.7-0.1-1.4-0.2-2.1-0.3c-1.3-0.3-2.6-0.5-3.9-0.8c-0.3-0.1-0.7-0.1-1-0.2
	c-3.1-0.5-6.3-1-9.5-1.4c-1.6-0.2-3.1-0.4-4.7-0.6c-8.4-0.9-16.8-1.4-25.3-1.4C1004.8,842.2,984.6,844.8,965.1,849.8L965.1,849.8
	L965.1,849.8z M814.4,1169.2c-8-18.9-13.4-38.7-16.2-59.1c-2.6-20.5-2.6-41.3,0.2-61.7c2.8-19.7,8.1-39.1,15.8-57.5
	c7.7-17.9,17.6-34.9,29.4-50.4c12-15.5,25.9-29.4,41.3-41.5c15.7-12.1,32.9-22.2,51.2-30c18.7-7.8,38.3-13.1,58.3-15.9
	c20.3-2.6,40.8-2.6,61.1,0c0.3,0,0.5,0.1,0.8,0.1c19.8,2.8,39.2,8.2,57.7,15.9c17.9,7.7,34.8,17.6,50.3,29.4c0,0,0.1,0,0.1,0.1
	c0.1,0.1,0.1,0.1,0.2,0.2c15.3,12,29.1,25.7,41.1,41.1c11.7,15.2,21.4,31.7,29.1,49.3c0.2,0.6,0.5,1.1,0.7,1.7c0,0,0-0.1,0-0.1
	c7.8,18.8,13.2,38.5,16,58.6c0,0.2,0.1,0.4,0.1,0.6c0,0.2,0,0.3,0.1,0.5c0,0.1,0,0.2,0,0.3c0,0.3,0.1,0.5,0.1,0.8c0,0,0,0,0,0
	c2.3,19.6,2.2,39.4-0.4,59c0,0,0-0.1,0-0.1c-1.1,7.6-2.5,15.2-4.3,22.6c-0.1,0.3-0.1,0.6-0.2,0.9c0,0,0,0,0,0
	c-2.9,11.7-6.7,23.2-11.3,34.4c-7.8,18.2-17.8,35.3-29.8,51c-11.9,15.3-25.7,29.1-41,41c-15.7,12.1-32.9,22.2-51.2,30c0,0,0,0-0.1,0
	c0,0,0,0-0.1,0c0,0,0,0,0.1,0c-0.1,0-0.1,0-0.2,0.1c-0.2,0.1-0.5,0.2-0.7,0.3c0,0,0,0,0,0c0.1,0,0.1-0.1,0.2-0.1
	c-18.2,7.5-37.2,12.7-56.7,15.5c-0.2,0-0.3,0-0.5,0.1c-0.1,0-0.1,0-0.2,0c-0.1,0-0.2,0-0.2,0c0.1,0,0.1,0,0.2,0
	c-20.6,2.7-41.5,2.6-62.1-0.1c-19.7-2.8-38.9-8.1-57.3-15.8c0,0-0.1,0-0.1-0.1c0.2,0.1,0.5,0.2,0.7,0.3
	c-18.3-7.8-35.5-17.8-51.3-29.9c0,0-0.1-0.1-0.1-0.1c0,0,0,0,0,0c-15.5-12.1-29.5-26.1-41.6-41.7c0.1,0.1,0.1,0.2,0.2,0.3
	c-0.1-0.1-0.1-0.2-0.2-0.3c-0.1-0.1-0.2-0.2-0.2-0.3c0.1,0.1,0.1,0.2,0.2,0.2C831.8,1203.7,822,1187,814.4,1169.2L814.4,1169.2
	L814.4,1169.2z M885.7,898.6c-0.1,0.1-0.2,0.2-0.3,0.3C885.4,898.7,885.6,898.6,885.7,898.6L885.7,898.6L885.7,898.6z M1164.8,899.1
	c0.1,0.1,0.3,0.2,0.4,0.3C1165.1,899.3,1164.9,899.2,1164.8,899.1L1164.8,899.1L1164.8,899.1z M1206.3,1218.9
	c-0.2,0.2-0.4,0.5-0.5,0.7C1206,1219.4,1206.1,1219.2,1206.3,1218.9L1206.3,1218.9L1206.3,1218.9z M885.2,1260.9
	C885.2,1260.9,885.2,1260.9,885.2,1260.9C885.2,1260.9,885.2,1260.9,885.2,1260.9L885.2,1260.9L885.2,1260.9z"/>
<path style="fill:#171717;" d="M1113.6,1290.6C1113.6,1290.6,1113.6,1290.6,1113.6,1290.6
	C1113.6,1290.6,1113.6,1290.6,1113.6,1290.6L1113.6,1290.6L1113.6,1290.6z"/>
<path style="fill:#171717;" d="M1112.9,1290.9c0.2-0.1,0.3-0.1,0.5-0.2C1113.3,1290.8,1113.1,1290.8,1112.9,1290.9L1112.9,1290.9
	L1112.9,1290.9z"/>
<path style="fill:#171717;" d="M1056.3,853.4c-0.2,0-0.5-0.1-0.7-0.1C1055.9,853.3,1056.1,853.4,1056.3,853.4L1056.3,853.4
	L1056.3,853.4z"/>
<path style="fill:#171717;" d="M1164.5,898.8C1164.5,898.8,1164.5,898.8,1164.5,898.8C1164.4,898.8,1164.4,898.8,1164.5,898.8
	C1164.4,898.8,1164.4,898.8,1164.5,898.8L1164.5,898.8L1164.5,898.8z"/>
<path style="fill:#171717;" d="M798.3,1049.1c0-0.2,0.1-0.4,0.1-0.6C798.4,1048.7,798.3,1048.9,798.3,1049.1L798.3,1049.1
	L798.3,1049.1z"/>
<path style="fill:#171717;" d="M843.6,1219.1C843.6,1219.1,843.6,1219.1,843.6,1219.1C843.6,1219.1,843.6,1219.1,843.6,1219.1
	L843.6,1219.1L843.6,1219.1z"/>
<path style="fill:#171717;" d="M843.6,1219.2C843.6,1219.2,843.6,1219.2,843.6,1219.2C843.6,1219.2,843.6,1219.2,843.6,1219.2
	C843.6,1219.2,843.6,1219.2,843.6,1219.2L843.6,1219.2L843.6,1219.2z"/>
<path style="fill:#171717;" d="M1056,1306.4c0.1,0,0.1,0,0.2,0C1056.1,1306.4,1056.1,1306.4,1056,1306.4L1056,1306.4L1056,1306.4z"
	/>
<path style="fill:#171717;" d="M1055.4,1306.5c0.1,0,0.2,0,0.3,0c0.1,0,0.2,0,0.3,0C1055.8,1306.4,1055.6,1306.5,1055.4,1306.5
	L1055.4,1306.5L1055.4,1306.5z"/>
<path style="fill:#171717;" d="M953.6,712.2c1.2,0,2.5-0.1,3.7-0.1c-0.5-0.2-1.1-0.4-1.8-0.4C954.9,711.7,954.2,711.9,953.6,712.2
	L953.6,712.2L953.6,712.2z"/>
<path style="fill:#171717;" d="M957.1,852c0.8,0.8,2,1.2,3.1,1.2c2,0,4-1.5,4.4-3.4C962.2,850.6,959.6,851.4,957.1,852L957.1,852
	L957.1,852z"/>
<path style="fill:#171717;" d="M1062,709.5c2.8-0.2,5.7-0.3,8.5-0.3c-0.7-1.6-2.2-2.8-4.1-2.8C1064.4,706.4,1062.6,707.7,1062,709.5
	L1062,709.5L1062,709.5z"/>
<path style="fill:#171717;" d="M1066.6,849.6c0,1.7,0.1,3.4,0,5.1c0,0.2-0.1,0.3-0.1,0.4c0.8,0.2,1.6,0.3,2.4,0.5
	c2,0.5,4.1,0.9,6.1,1.7c1.1-2.4,0.7-5.4,0.7-8c0-0.7,0-1.4,0-2.1c-0.8,0-1.7-0.2-2.5-0.3c-1.3,0-2.6-0.1-3.8-0.3
	c-0.9-0.2-1.8-0.4-2.7-0.6C1066.6,847.2,1066.6,848.4,1066.6,849.6L1066.6,849.6L1066.6,849.6z"/>
<path style="fill:#171717;" d="M970.8,1310.5c0,0.2,0,0.3,0,0.5c1.3,0.3,2.6,0.8,3.9,1.4c0.4,0.1,0.8,0.2,1.2,0.2
	c0.5,0.1,1.1,0.1,1.6,0.2c0.8,0.1,1.6,0.2,2.4,0.2c0-0.8,0-1.7-0.1-2.5c-0.1-2.5-2-4.5-4.5-4.5
	C972.9,1306,970.7,1308.1,970.8,1310.5L970.8,1310.5L970.8,1310.5z"/>
<path style="fill:#171717;" d="M967.8,1559.4c-0.1,1.3-0.3,2.6-0.4,3.9c-0.1,1.9,1.4,3.8,3.2,4.3c2.4,0.7,4.7-0.8,5.4-3.1
	c0.4-1.3,0.5-2.6,0.7-4c0-0.4,0.1-0.8,0.1-1.2c-1.2-0.2-2.4-0.4-3.6-0.6c-1.8-0.3-3.6-0.5-5.4-0.8
	C967.9,1558.5,967.9,1558.9,967.8,1559.4L967.8,1559.4L967.8,1559.4z"/>
<path style="fill:#171717;" d="M1082.8,1309.3c-0.5,0.5-0.7,0.9-0.9,1.5c1.4-0.6,2.9-1.1,4.4-1.7c0.6-0.2,1.1-0.4,1.6-0.6
	c-0.6-0.3-1.2-0.4-1.9-0.4C1084.8,1308,1083.6,1308.4,1082.8,1309.3L1082.8,1309.3L1082.8,1309.3z"/>
<path style="fill:#171717;" d="M1080.3,1557.9c-2.2,0.2-4.4,0.4-6.6,0.6c-0.1,1.2-0.2,2.4-0.1,3.6c0.2,1.9,1.2,3.6,3.1,4.1
	c2.3,0.6,4.6-0.8,5.3-3c0.6-1.8,0.7-3.7,0.8-5.5C1082,1557.7,1081.1,1557.8,1080.3,1557.9L1080.3,1557.9L1080.3,1557.9z"/>
<path style="fill:#171717;" d="M1092.1,955.8c-2,0.4-4.1,1.2-5.9,2.1c-0.9,0.7-1.8,1.4-2.5,2.3c-0.7,0.7-1.3,1.4-1.9,2.1
	c-0.8,1-1.4,2.2-1.9,3.4c-2.5,2-4.2,4.8-5.6,7.7c-2.1,4.4-3.2,8.9-4.3,13.6c-0.9,4-1.3,8.2-1.4,12.4c0,3.1,0.5,6.3,1.4,9.2
	c0.8,2.6,1.9,4.8,3.2,7.2c0.9,1.6,2.3,3.1,3.6,4.3c1.5,1.4,3.1,2.6,5,3.5c3.3,1.6,7.1,2.1,10.7,1.9c3.3-0.2,6.7-1.4,9.7-2.7
	c3.6-1.5,6.7-3.9,9.2-6.9c5.2-6.2,7.7-14.5,8.4-22.4c0.2-2,0.3-4,0.4-6c0-2.6-0.3-5.2-0.6-7.8c-0.5-5.2-2.5-10.4-5.3-14.8
	c-1-1.6-2.5-2.8-3.7-4.1c-1.6-1.7-3.7-2.8-5.7-3.8c-2.5-1.2-5.3-1.7-8.1-1.7C1095.1,955.4,1093.6,955.6,1092.1,955.8L1092.1,955.8
	L1092.1,955.8z M1101,976.3c2.5,1,4.6,2.4,6.6,4.2c0.4,0.6,0.9,1.1,1.2,1.7c0.3,0.7,0.5,1.3,0.8,2c0.1,0.7,0.3,1.5,0.4,2.2
	c0,0.9,0,1.8,0,2.7c-0.1,1-0.3,2-0.5,2.9c-0.4,1.2-0.8,2.5-1.4,3.7c-0.7,1.2-1.5,2.3-2.3,3.4c-2.5,2.3-5.4,4-8.7,5.2
	c-3.9,1-7.6,1.3-11.4,0.3c-1.8-0.8-3.3-1.8-4.8-3c-0.7-0.8-1.3-1.7-1.8-2.6c0-0.1-0.1-0.2-0.1-0.2c0-0.1,0-0.2,0-0.4
	c0.3-2.1,0.7-4.2,1.2-6.2c0.5-1.8,1.2-3.5,1.9-5.2c1.8-0.2,2.9-2.2,3.5-3.8c0.7-0.8,1.2-1.7,1.5-2.7c0.1-0.3,0.2-0.6,0.3-0.9
	c0.3-0.5,0.6-1,1-1.5c0.9-0.8,1.9-1.4,3.1-1.8C1094.6,975.7,1097.7,975.6,1101,976.3L1101,976.3L1101,976.3z M1078.3,996.7
	c0.1,0.2,0.1,0.5,0.2,0.7C1078.4,997.2,1078.3,997,1078.3,996.7L1078.3,996.7L1078.3,996.7z"/>
<path style="fill:#171717;" d="M1163.2,980.5c-11.7,20.5-23.8,40.8-35.9,61.1c-11.6,19.5-22.6,39.4-33.6,59.2
	c-7.2,12.9-14.2,26-23.9,37.3c-1,1.5-1.6,3.2-1.8,5c-0.5,3-0.4,6.4,0.7,9.2c0.5,1.5,1.3,2.7,2.5,3.7c2,1.2,3.3,0,4.6-1.4
	c3.2-3.7,6.2-7.6,8.9-11.7c3.2-4.7,6-9.7,8.9-14.6c5.4-9.3,10.5-18.9,15.8-28.3c5.4-9.7,10.8-19.4,16.4-29.1
	c5.4-9.3,11-18.5,16.5-27.8c9-15.3,18.2-30.6,27-46.1c2.4-4.2,2.8-9.7,1.1-14.2c-0.5-1.5-1.3-2.7-2.5-3.7c-0.5-0.3-1.1-0.5-1.6-0.5
	C1165,978.6,1163.9,979.3,1163.2,980.5L1163.2,980.5L1163.2,980.5z"/>
<path style="fill:#171717;" d="M1156.8,1072.1c-1.1,0.3-2.1,0.7-3.1,1.2c-1.5,0.7-2.4,1.6-3.5,2.8c-0.5,0.6-1,1.2-1.4,1.8
	c-0.7-0.3-1.4-0.2-2,0.4c-1.4,1.4-2.5,2.8-3.5,4.4c-1.2,1.9-2.1,4.1-3,6.1c-2.2,4.8-3.8,9.7-5.1,14.8c-2.3,9.1-2.5,18.6,1.1,27.4
	c1.5,3.7,3.8,7.1,6.8,9.9c1.3,1.2,2.6,2.2,4.1,3.1c2,1.2,4.2,1.8,6.4,2.4c4.4,1.3,9.1,0.7,13.3-0.6c5-1.5,9.6-4.1,13.9-7
	c3.6-2.5,6.8-5.9,9.3-9.6c1.3-2,2.3-4.3,3.2-6.5c1.2-2.8,1.8-5.9,2.2-8.9c1.8-11.1-1.1-23.2-8.9-31.4c-2.8-3-6-5.6-9.6-7.5
	c-4-2.1-8.7-3.3-13.2-3.7c-0.4,0-0.8-0.1-1.2-0.1C1160.6,1071,1158.6,1071.5,1156.8,1072.1L1156.8,1072.1L1156.8,1072.1z
	 M1165.4,1091.6c1.7,0.2,3.4,0.6,5.1,1.1c4.2,1.6,7.7,4,11,7c1.3,1.4,2.4,2.9,3.4,4.6c0.3,0.6,0.5,1.2,0.7,1.9
	c0.1,0.4,0.1,0.8,0.2,1.2c0,0,0,0.1,0,0.1c-0.1,0.6-0.2,1.2-0.3,1.8c-0.3,1-0.7,2-1.1,2.9c-0.9,1.4-1.8,2.8-2.9,4.1
	c-4.5,4.3-10,7.6-15.8,9.8c-4.3,1.2-8.5,1.4-12.9,0.3c-2.6-1-4.8-2.3-6.8-4.2c-0.9-1.1-1.7-2.2-2.4-3.4c-0.2-0.6-0.4-1.1-0.6-1.7
	c-0.1-0.4-0.1-0.8-0.2-1.2c0-0.4,0-0.7,0-1.1c0.2-1.6,0.5-3.3,0.9-4.9c0.9-3.3,2.1-6.6,3.4-9.8c1.6,0.9,3.3,0.2,4.3-1.4
	c0.9-1.6,1.9-3.3,3.1-4.8c1.3-1,2.7-1.6,4.3-2.2C1161,1091.4,1163,1091.3,1165.4,1091.6L1165.4,1091.6L1165.4,1091.6z"/>
</svg>
