<?xml version="1.0" encoding="utf-8"?>
<!-- Generator: Adobe Illustrator 22.1.0, SVG Export Plug-In . SVG Version: 6.00 Build 0)  -->
<svg version="1.1" id="Layer_1" xmlns="http://www.w3.org/2000/svg" xmlns:xlink="http://www.w3.org/1999/xlink" x="0px" y="0px"
	 viewBox="0 0 2000 2000" style="enable-background:new 0 0 2000 2000;" xml:space="preserve">
<g>
	<path style="fill:#161616;" d="M301.8,182.9c-4.2,0-7.7,3.5-7.7,7.7c0,209.8,0,419.7,0,629.5c0,209,0,418,0,627
		c0,109.4,0,218.7,0,328.1c0,4.2,3.5,7.7,7.7,7.7c209.2,0,418.5,0,627.7,0c104.5,0,209,0,313.5,0c52.2,0,104.3,0,156.5,0
		c52.2,0,104.4,0.1,156.7,0c25.6,0,51.2-0.1,76.7-0.1c84.5,0,169,0,253.5,0c4.1,0,7.5-3.4,7.5-7.5c0-209,0.1-418,0.1-627.1
		c0-208.6,0-417.2,0-625.7c0-110.6,0-221.2,0-331.8c0-4.2-3.5-7.7-7.6-7.7c-210.8,0-421.5,0-632.3,0c-210.1,0-420.1,0-630.2,0
		C516.6,182.9,409.2,182.9,301.8,182.9L301.8,182.9L301.8,182.9z M933.5,198.2c210.2,0,420.3,0,630.5,0c104.9,0,209.9,0,314.8,0
		c0,207.8,0,415.6,0,623.3c0,208.5,0,417,0.1,625.6c0,106.8,0,213.7,0,320.5c-81.3,0-162.5,0-243.7,0c-21.1,0-42.3-0.1-63.4-0.1
		c-104.4-0.2-208.7,0-313.1,0c-209,0-418.1,0-627.2,0c-107.3,0-214.6,0-322,0c0-207.1,0-414.3,0-621.4c0-208.9,0-417.8,0-626.7
		c0-107.1,0-214.1,0-321.2C517.5,198.2,725.5,198.2,933.5,198.2L933.5,198.2L933.5,198.2z"/>
	<path style="fill:#161616;" d="M590.7,514.6c-8.4,1.3-16.8,3.5-24.8,6.4c-4.3,1.6-8.7,3.1-13,4.6c-3.6,1.3-7.2,3-10.7,4.5
		c-6.2,2.6-12.4,5.5-18.3,8.8c-4.8,2.7-9.7,5.4-14.4,8.4c-8.5,5.4-16.5,11.9-23.7,18.9c-4.6,4.5-8.7,9.3-12.8,14.3
		c-4.7,5.6-9,11.3-12.8,17.5c-2.8,4.5-5.1,9.2-7.6,13.9c-1.7,3.2-3,6.5-4.4,9.8c-3,6.9-5.4,14.1-7.8,21.3c-2.1,6.5-3.9,13.3-5.3,20
		c-1.6,7.4-2.9,14.8-3.7,22.3c-0.4,3.5-0.7,6.9-0.9,10.4c-0.3,5.6-0.4,11.2,0.5,16.8c0.7,4.3,1.9,8.4,4,12.2
		c-0.8-0.2-1.6-0.4-2.4-0.5c-2.8-0.5-5.7-0.8-8.5-0.5c-10.7,1.1-17.9,12-20.3,21.7c-1.3,5.1-1,10.3,0.1,15.4c0.6,3,1.6,5.7,2.8,8.5
		c1.2,2.7,3,5,4.8,7.2c1.8,2.2,4.3,3.9,6.7,5.3c2.3,1.4,4.9,2.3,7.4,3.1c2.8,0.8,5.7,1.2,8.6,1.4c1,0.1,2.1,0,3.1-0.1
		c1,3.5,1.6,7.1,2.3,10.7c0.8,4,1.7,7.9,2.6,11.8c0.9,3.6,2,7.2,3.1,10.8c2.6,8.8,6.6,17.2,11,25.2c5.1,9.1,11.5,17.3,18.6,24.8
		c7.1,7.5,15.2,14,23.6,20.1c8.4,6.1,17.6,11,27.1,15.4c4.7,2.1,9.5,4.1,14.3,5.8c5.2,1.8,10.7,2.9,16.1,3.8
		c6.8,1.1,13.7,1.7,20.6,2.3c3.4,0.3,6.9,0.5,10.3,0.6c3.5,0.1,6.9,0.2,10.4,0c3.5-0.2,7-0.2,10.4-0.6c4-0.5,7.9-0.9,11.9-1.4
		c4.4-0.5,8.8-1.5,13.2-2.4c1-0.2,1.9-0.4,2.8-0.7c2.5-0.7,5-1.3,7.5-2c3.2-0.9,6.4-2,9.5-3c6.9-2.3,13.6-4.9,20.3-7.7
		c3.7-1.6,7.3-3.4,10.9-5.2c1.3-0.6,2.5-1.5,3.7-2.2c1.9-1.1,3.8-2.2,5.7-3.3c1.1-0.7,2.2-1.4,3.3-2.2c2-1.3,4-2.6,6-4
		c3-2,5.9-4.3,8.8-6.5c6.2-4.6,11.9-9.7,17.6-14.8c2.6-2.3,4.9-5,7.4-7.5c1.1-1.1,2.1-2.4,3.1-3.6c1.2-1.4,2.4-2.7,3.5-4.1
		c3.3-4.2,6.6-8.4,9.6-12.8c3.4-5.1,5.9-10.7,8.6-16.2c0.8-1.7,1.5-3.5,2.2-5.2c0.7-1.6,1.4-3.3,2-4.9c1.3-3.7,2.6-7.3,3.8-11
		c2.2-6.7,3.5-13.7,5-20.5c0.9-4,1.8-8.1,2.6-12.2c0.8-4,1.4-8,1.8-12c2.2-1.5,4.6-2.7,6.9-4c2.1-1.2,4.2-2.4,6.2-3.7
		c4.3-2.8,8.1-6.2,11.3-10.2c1.9-2.3,3.6-4.8,4.9-7.4c0.6-1.2,1.1-2.5,1.7-3.7c1.6-3.7,3-7.6,2.8-11.7c-0.2-5.4-3.5-10-7.2-13.6
		c-1.5-1.5-3.1-3-4.7-4.5c-2.4-2.4-4.7-4.8-6.9-7.4c-2.5-3.5-4.5-7.4-6.3-11.4c-0.8-1.9-1.5-3.8-2.1-5.7c-0.8-2.4-1.3-5-1.9-7.4
		c-0.5-2.1-0.9-4.2-1.3-6.2c-0.7-3.1-1.2-6.3-1.9-9.4c-0.7-3.5-1.3-7-2.1-10.4c-0.9-3.8-1.9-7.6-3-11.3c-1-3.5-2.3-7-3.5-10.4
		c-2.8-8.2-6.7-16-11.1-23.4c-4.2-7.1-9.1-13.6-14.4-19.9c-2.4-2.8-4.7-5.6-7.2-8.3c-2.5-2.6-4.9-5.1-7.5-7.6
		c-4.6-4.3-9.2-8.4-14.1-12.3c-3.9-3-7.9-5.7-12.1-8.2c-4.5-2.6-9.4-4.8-14.2-6.9c-9.5-4.1-19.3-7.3-29.4-9.4
		c-5.4-1.1-10.9-1.9-16.4-2.8c-1.7-0.3-3.5-0.6-5.2-0.8c-2.7-0.4-5.4-0.8-8.1-1.1c-2.9-0.3-5.9-0.4-8.8-0.4c-0.8,0-1.6,0-2.4,0
		C610.6,512.2,600.6,513.1,590.7,514.6L590.7,514.6L590.7,514.6z M615.3,527.7c6.4-0.2,12.8-0.1,19.1,0.6c5.2,0.7,10.3,1.6,15.5,2.4
		c11.8,1.8,23.4,5.2,34.5,9.7c4,1.8,8,3.6,11.9,5.8c4.1,2.3,8.1,4.9,11.8,7.8c11.6,9.2,21.9,20,31,31.6c6.2,8.3,11.6,17.3,15.7,26.8
		c1.6,4,3,8.1,4.4,12.2c1,3,1.8,6.1,2.6,9.2c0.8,2.8,1.4,5.7,2,8.5c0.6,3.2,1.2,6.4,1.9,9.6c0.7,3.5,1.4,7.1,2.2,10.6
		c0.5,2.5,1.1,5,1.8,7.6c1.3,4.9,3.3,9.7,5.5,14.3c1.9,4,4.2,7.8,6.9,11.2c2,2.6,4.2,5,6.5,7.2c2.6,2.6,5.4,5,7.8,7.7
		c0.2,0.2,0.3,0.5,0.4,0.7c0.1,0.2,0.1,0.4,0.2,0.6c-0.3,1.5-0.8,2.9-1.3,4.3c-1.1,2.5-2.4,4.8-3.9,7.1c-1.8,2.2-3.8,4.3-6.1,6.1
		c-3.5,2.5-7.3,4.6-11,6.7c-3.5,1.9-7.2,4-9.5,7.4c-0.8,1.2-1.2,2.4-1.5,3.7c-0.2,1.1-0.3,2.4-0.4,3.5c-0.1,0.6-0.1,1.3-0.2,1.9
		c-0.6,4.4-1.5,8.7-2.4,13c-1.1,5-2.2,9.9-3.3,14.9c-0.7,2.8-1.3,5.5-2.1,8.3c-0.7,2.7-1.6,5.3-2.4,7.9c-1.4,4.4-3.2,8.6-4.9,12.9
		c-1,2.2-2.1,4.4-3.1,6.6c-2.4,5-5.4,9.8-8.6,14.3c-1.9,2.5-3.9,5-5.9,7.4c-1.6,1.8-3.1,3.6-4.7,5.4c-1.4,1.6-3.1,3.1-4.6,4.6
		c-3,3-6.1,5.8-9.3,8.6c-2.7,2.4-5.5,4.6-8.3,6.8c-2.7,2-5.4,4-8,5.9c-3,2.2-6.2,4.1-9.2,6.1c-2.9,1.9-6,3.6-9,5.3
		c-2.8,1.6-5.7,3-8.6,4.4c-3.7,1.5-7.5,3-11.2,4.4c-4.5,1.7-9.2,3.2-13.8,4.8c-4.3,1.4-8.8,2.5-13.2,3.6c-1.6,0.4-3.3,0.7-5,1
		c-2.4,0.5-4.8,0.9-7.3,1.4c-3.9,0.5-7.7,0.9-11.6,1.4c-2,0.2-4,0.2-6,0.3c-2.2,0.1-4.4,0.2-6.6,0.3c-2.3,0.1-4.7-0.1-6.9-0.2
		c-1.6,0-3.2-0.1-4.7-0.2c-6.5-0.5-13-1-19.5-1.8c-4.2-0.6-8.4-1.4-12.6-2.4c-4.7-1.2-9.2-2.8-13.7-4.6c-6-2.6-11.8-5.5-17.5-8.7
		c-6.2-3.5-12.1-7.5-17.7-11.8c-8.6-6.7-16.5-14.4-23.4-22.9c-5.8-7.8-10.6-16.3-14.5-25.2c-2.1-5.3-3.8-10.7-5.4-16.2
		c-1-3.4-1.7-6.8-2.6-10.2c-0.9-3.7-1.6-7.6-2.4-11.4c-0.2-1.1-0.5-2.3-0.8-3.4c-0.3-1-0.6-2-1-3c-0.6-1.4-1.1-2.8-2-4.1
		c-1-1.4-1.9-2.3-3.3-3.3c-1.1-0.7-2.2-1.1-3.4-1.6c-1.3-0.5-3.4-0.3-4.7,0c-0.8,0.1-1.5,0.3-2.3,0.4c-1.3,0.1-2.5,0-3.8-0.1
		c-1.8-0.3-3.5-0.8-5.2-1.4c-1.4-0.7-2.7-1.4-4-2.3c-0.8-0.7-1.5-1.5-2.2-2.3c-0.9-1.3-1.7-2.7-2.4-4.2c-0.9-2.4-1.5-4.8-2-7.3
		c-0.1-1.7-0.1-3.4,0.1-5.1c0.3-1.8,0.8-3.4,1.4-5.1c0.8-1.7,1.7-3.3,2.8-4.8c0.8-1,1.7-1.9,2.6-2.7c0.5-0.3,1-0.6,1.5-0.9
		c0.5-0.2,1-0.3,1.5-0.4c1.6,0,3.2,0,4.8,0.2c2.4,0.4,4.7,1.1,7,1.9c1.6,0.8,3.1,1.7,4.5,2.7c0.9,0.7,1.9,1.5,2.7,2.3
		c2.3,2,5.6,2.3,7.9,0c1.3-1.3,1.9-3.3,1.5-5.2c0,0,0,0,0.1,0c2.8,0.1,5.6-1,8.1-2.1c4.7-2.2,8.5-5.8,11.6-9.9
		c2.9-3.9,4.9-8.4,6.6-13c2-5.1,2.6-10.6,3-16c0.6-8.2-0.9-16.4-2.7-24.4c-1.6-7.3-3.5-14.5-5.3-21.8c-1.1-4.4-1.9-8.8-2.6-13.3
		c-0.3-3.2-0.5-6.4-0.2-9.6c0.2-2.2,0.4-4.4,0.7-6.6c0.1-0.3,0.2-0.7,0.4-1c0.3-1.2,0.3-2.5,0-3.7c-0.5-1.7-1.7-3.3-3.2-4.2
		c-0.1-0.1-0.3-0.1-0.4-0.2c0.1-0.1,0.1-0.2,0.2-0.3c2.9-5.6,6.5-10.9,10.4-15.9c2.4-3.1,5-6,7.5-9c6-7.2,13-13.7,20.4-19.5
		c5.6-4.2,11.5-8,17.6-11.4c3.3-1.8,6.5-3.7,9.8-5.3c3.3-1.7,6.6-3.4,10.1-4.9c3.3-1.4,6.7-2.9,10-4.3c4.4-1.6,8.8-3.2,13.3-4.7
		c9.1-3.3,18.5-5.6,28.1-7C603.3,528.4,609.3,527.9,615.3,527.7L615.3,527.7L615.3,527.7z M708.4,554.2c0.3,0.3,0.7,0.5,1,0.8
		C709.1,554.7,708.7,554.5,708.4,554.2L708.4,554.2L708.4,554.2z M473.3,621c0,0.1,0,0.2,0,0.2C473.3,621.1,473.3,621,473.3,621
		L473.3,621L473.3,621z M449,672c0.9-5.2,2.3-10.3,3.6-15.4c1.2-4.8,2.8-9.4,4.3-14.1c0.3-1,0.7-2.1,1-3.1c0.6,4.4,1.4,8.8,2.4,13.2
		c1,4.7,2.4,9.3,3.5,13.9c1.6,6.3,3.1,12.7,4.1,19.2c0.5,4.8,0.4,9.5-0.1,14.3c-0.5,3.2-1.4,6.3-2.6,9.3c-1.1,2.5-2.4,4.9-4,7.2
		c-1,1.1-2,2.2-3.1,3.1c-0.9,0.6-1.8,1.2-2.8,1.7c-0.4,0.1-0.7,0.2-1.1,0.3c-0.3,0-0.5,0-0.8,0c-0.1,0-0.1,0-0.2-0.1
		c-0.8-0.4-1.6-1-2.3-1.5c-0.5-0.4-0.9-0.9-1.4-1.3c-0.6-1-1.2-1.9-1.7-3c-0.8-2.2-1.4-4.4-1.8-6.7c-0.5-4.7-0.2-9.4,0-14.1
		c0.2-3.5,0.5-7,0.9-10.5C447.5,680.4,448.2,676.2,449,672L449,672L449,672z M436.1,783.8c0.1,0.1,0.1,0.1,0.2,0.2
		C436.2,783.9,436.2,783.8,436.1,783.8L436.1,783.8L436.1,783.8z M736.8,829.5c-0.1,0.1-0.2,0.3-0.3,0.4
		C736.6,829.8,736.7,829.6,736.8,829.5L736.8,829.5L736.8,829.5z"/>
	<path style="fill:#161616;" d="M728.1,674c-3.7,0.7-6.2,3.4-7.7,6.6c-1.8,3.8-2.9,7.6-3.4,11.8c-0.5,3.6-0.5,7.5,1.2,10.9
		c0.7,1.3,1.6,2.5,2.6,3.5c0.7,0.8,1.6,1.3,2.6,1.7c0.6,0.3,1.2,0.5,1.8,0.8c1,0.2,2.1,0.3,3.1,0.4c1.4,0,2.7-0.4,3.9-1.1
		c1-0.3,1.9-0.9,2.6-1.7c1.4-1.2,2.4-2.6,3.3-4.2c1.8-3.5,2.3-7.6,2.3-11.5c0-3.4-0.9-6.9-2.6-9.9c0-0.7-0.1-1.4-0.3-2
		c-0.4-1.3-1-2.4-2-3.4c-1.5-1.5-3.4-2.2-5.5-2.2C729.5,673.8,728.8,673.8,728.1,674L728.1,674L728.1,674z"/>
	<path style="fill:#161616;" d="M690.2,797.8c-4.6,1.4-9.2,2.9-13.8,4.1c-1.9,0.5-3.9,1.1-5.8,1.4c-2.2,0.4-4.4,0.8-6.6,1.2
		c-2.7,0.3-5.3,0.6-8,0.8c-7.6,0.8-15.2,0.5-22.7-0.4c-7-1-13.9-2.5-20.8-4.2c-1.5-0.4-3.1-0.8-4.7-0.9c-1.6-0.1-3.4,0-4.8,1
		c-1.3,0.9-2.6,1.7-3.4,3.1c-1.2,2.1-1.5,4.6-1.5,7c0,2.8,0.7,5.6,1.5,8.3c1,3.5,2.5,6.9,4,10.2c0.7,1.6,1.4,3.3,2.2,4.8
		c1,2,2,4,3.1,5.9c2.4,4.3,5.6,8.3,8.9,12c2.9,3.1,6.4,5.9,10.2,7.8c4.9,2.4,10.3,3.4,15.7,3.6c9.3,0.3,18.2-3.7,25.5-9.1
		c7.5-5.4,13.4-12.8,17.3-21.1c1.6-3.4,2.9-7,4-10.5c1.2-3.5,1.7-7.2,0.8-10.9c0,0,0,0,0,0c0.8-0.3,1.7-0.5,2.5-0.8
		c3.6-1.1,5.8-4.8,4.8-8.5c-0.8-2.9-3.6-5.1-6.6-5.1C691.4,797.6,690.8,797.6,690.2,797.8L690.2,797.8L690.2,797.8z M656.9,819.2
		c1.9-0.2,3.7-0.4,5.6-0.6c1.5-0.2,3-0.3,4.5-0.6c2.7-0.5,5.4-0.8,8-1.5c1.7-0.4,3.4-0.9,5.1-1.4c-0.2,0.5-0.3,0.9-0.5,1.4
		c-0.3,0.8-0.5,1.7-0.8,2.5c-0.8,2.2-1.6,4.4-2.4,6.6c-1.6,3.5-3.4,6.8-5.6,9.8c-2.3,2.8-4.9,5.4-7.7,7.8c-2.7,2-5.6,3.7-8.7,5.1
		c-2.1,0.8-4.2,1.4-6.4,1.8c-2.3,0.2-4.5,0.2-6.8,0c-2-0.4-3.9-0.9-5.8-1.6c-1.4-0.7-2.7-1.5-4-2.4c-2.3-1.9-4.3-4.1-6.1-6.4
		c-1.8-2.4-3.4-4.9-4.8-7.5c-0.7-1.4-1.4-2.7-2.1-4.1c-0.9-1.9-1.7-3.8-2.6-5.7c-0.9-2.2-1.7-4.3-2.3-6.5c2.7,0.6,5.4,1.1,8.1,1.6
		c5,0.8,10,1.6,15,2c2.8,0.3,5.7,0.4,8.5,0.4C649,819.9,653,819.7,656.9,819.2L656.9,819.2L656.9,819.2z"/>
	<path style="fill:#161616;" d="M623,903.7c-1.7,1-2.6,2.5-3.3,4.3c-1.2,3.1-1.1,6.7-1.4,10c-0.3,2.8-0.5,5.5-0.8,8.3
		c-0.6,6-1.4,12-2.1,18c0.1-0.7,0.2-1.4,0.3-2c-0.1,0.9-0.2,1.7-0.3,2.5c0,0.2,0,0.3-0.1,0.5c0,0.1,0,0.1,0,0.2
		c-0.1,0.8-0.2,1.5-0.3,2.2c-0.2,1.2-0.3,2.4-0.5,3.5c-0.4,2.6-0.8,5.1-1.2,7.7c-1.1,6.2-2.3,12.5-4.6,18.4
		c-0.6,1.2-1.1,2.3-1.8,3.4c0,0-0.1,0.1-0.1,0.1c-2.8-0.8-5.6-2.2-8.2-3.3c-3.1-1.3-6.3-2.6-9.5-3.8c-6.3-2.5-12.7-4.8-19-7.4
		c-5.2-2.2-10.3-4.5-15.5-6.9c-2.5-1.1-5-2.3-7.4-3.6c-3.7-1.9-7.5-3.7-10.9-6.1c-0.1-0.1-0.2-0.2-0.3-0.3c0.6-2.6,1.4-5.1,2.2-7.7
		c0.9-2.9,1.7-5.8,2.6-8.7c2.1-6.8,4.2-13.5,6.2-20.3c1.1-3.7-1.3-7.8-5-8.8c-3.8-1.1-7.6,1.3-8.8,5c-2.7,8.7-5.5,17.3-8.1,26
		c-1.6,5.1-3.7,10.4-4,15.7c0,0.4,0.1,0.7,0.1,1.1c0,1.3,0.3,2.6,1,3.7c0.6,1.3,1.4,2.5,2.4,3.6c1.8,1.9,4,3.5,6.2,4.9
		c2.4,1.5,5,2.8,7.6,4.2c14.6,7.8,30.1,13.9,45.6,19.8c2.8,1.1,5.6,2.2,8.4,3.4c-0.6-0.3-1.2-0.5-1.8-0.8c1.5,0.6,3,1.3,4.5,1.9
		c-0.6-0.3-1.2-0.5-1.8-0.8c1.8,0.8,3.6,1.5,5.4,2.3c2.4,1,4.8,2,7.5,2.2c4.8,0.4,9.5-1.8,12.5-5.6c3-3.7,4.7-8.1,6.2-12.6
		c1.7-5.3,2.6-10.9,3.7-16.4c0.6-3.1,1-6.2,1.4-9.4c0.1-0.6,0.2-1.1,0.2-1.7c0.1-0.4,0.1-0.8,0.2-1.2c0.2-0.6,0.2-1.3,0.3-1.9
		c0.8-6.1,1.6-12.2,2.3-18.4c0.4-3.2,0.6-6.5,0.9-9.7c0.2-1.6,0.3-3.2,0.4-4.9c0.1-0.8,0.1-1.6,0.2-2.4c0.1-1.4-0.3-2.8-0.5-4.2
		c-0.6-3.1-3.9-5.3-7-5.3C625.3,902.7,624.1,903.1,623,903.7L623,903.7L623,903.7z M607.9,980.6c-0.2,0.1-0.5,0.2-0.8,0.3
		C607.4,980.8,607.6,980.7,607.9,980.6L607.9,980.6L607.9,980.6z M605.9,980.9c0.1,0,0.3,0,0.4,0.1C606.2,981,606,980.9,605.9,980.9
		L605.9,980.9L605.9,980.9z"/>
	<path style="fill:#161616;" d="M523.7,949.9c-3.1,0.4-5.8,1.2-8.7,2.4c-5.7,2.3-11.2,5.1-16.5,8.2c-4.7,2.8-9.2,6.1-13.5,9.5
		c-4.7,3.6-9.2,7.4-13.4,11.6c-4,3.9-7.6,8.3-11.2,12.6c-2,2.5-4,5-5.9,7.5c-3.3,4.4-6.5,8.8-9.8,13.2c-2.1,2.8-4,5.8-6,8.8
		c-2.1,3.2-4.1,6.3-6,9.6c-2,3.4-4,6.7-5.8,10.2c-1.2,2.4-2.5,4.8-3.7,7.3c-0.8,1.5-1.6,3-2.3,4.6c-1.8,4.2-3.6,8.4-5.3,12.5
		c-1.9,4.4-3.3,8.9-4.9,13.4c-2.8,7.7-4.9,15.5-7,23.4c-4.2,15.8-6.7,31.9-8.6,48.1c-1,8.3-1.9,16.6-2.5,24.9
		c-0.6,8.7-1.1,17.4-0.5,26.1c0.7,11.3,3,22.7,8.1,32.8c2.3,4.5,5.6,8.8,9.6,12c4.7,3.9,10.2,6.4,16.1,8.1
		c5.6,1.6,11.6,2.1,17.5,2.4c6.4,0.3,13-0.1,19.4-0.7c5.5-0.5,11-1.2,16.5-1.9c8.2-1,16.5-2.3,24.7-3.6c7.8-1.2,15.6-2.5,23.4-4
		c16.9-3.2,33.8-6.9,50.6-10.5c15.3-3.3,30.5-6.8,45.7-10.1c16.9-3.6,33.8-7,50.7-10.7c15.4-3.4,30.8-7.2,46.1-10.7
		c16.2-3.8,32.4-7.5,48.6-11.2c15.9-3.6,31.8-7.1,47.6-10.9c3.8-0.9,7.6-1.9,11.4-2.9c1.6-0.4,3.2-0.8,4.7-1.4
		c1.2-0.4,2.4-0.8,3.5-1.3c3.3-1.3,6.2-3.3,8.1-6.3c1.3-2,2.2-4.1,3-6.3c0.9-2.4,1.1-5.1,1.4-7.6c0.4-3.3,0.6-6.5,0.8-9.8
		c0.2-3.7,0.2-7.4,0.5-11.1c0.7-8.5,1.4-16.9,2-25.4c0.5-8.3-0.2-16.9-2-25c-0.6-2.5-1.4-5-2.4-7.3c-1.1-2.3-2.7-4.2-4.6-5.7
		c-4.9-3.9-10.9-5.2-17.1-5.6c-6.8-0.5-13.7,0.7-20.4,1.5c-4.7,0.6-9.3,1.4-13.9,2.1c-8.1,1.3-16.1,2.7-24.1,4.2
		c-16,2.8-31.9,6.1-47.9,9.3c-16.1,3.2-32.3,6.1-48.5,8.9c-20.2,3.6-40.4,6.9-60.6,9.9c-10.5,1.4-20.9,2.6-31.5,3.5
		c-5.5,0.5-11.1,1-16.6,1.4c-2.3,0.2-4.6,0.4-6.9,0.5c-0.8,0-1.6,0.1-2.3,0.2c-2,0.2-2.7,0.4-4.5,1.2c-1.7,0.8-2.9,2.3-3.8,3.8
		c-1.8,2.8-1.1,6.7,1.2,9c2.4,2.4,5.7,2.7,8.4,1.4c14.5-1.1,29-2.3,43.5-4c16.6-1.9,33.2-4.6,49.7-7.3c15.9-2.6,31.8-5.5,47.6-8.3
		c15.9-2.8,31.8-6.1,47.6-9.3c21.1-4.2,42.3-7.8,63.6-11.2c7-0.9,14.1-1.9,21.2-1.2c1.4,0.3,2.7,0.6,4,1c0.5,0.2,1,0.5,1.4,0.8
		c0.2,0.2,0.5,0.5,0.7,0.7c0,0.1,0.1,0.1,0.1,0.2c1.3,3.6,1.9,7.3,2.4,11c1,10.9-0.3,21.6-1.1,32.4c-0.3,4.5-0.7,9-0.9,13.6
		c-0.2,4.6-0.4,9.2-0.9,13.8c-0.2,1.6-0.6,3.2-1,4.7c-0.3,0.6-0.7,1.3-1,1.9c0,0,0,0,0,0c-0.1,0-0.1,0.1-0.2,0.1
		c-7.5,2.8-15.4,4.4-23.2,6.3c-7.5,1.8-15.1,3.5-22.7,5.2c-16,3.6-32,7.3-48,10.9c-15.8,3.6-31.5,7.3-47.2,11
		c-15.8,3.7-31.6,7.2-47.5,10.5c-32.2,6.7-64.2,14.1-96.3,20.7c-11.2,2.3-22.4,4.6-33.6,6.5c-10.9,1.9-21.9,3.5-32.9,5.2
		c-14.6,1.9-29.3,3.8-44,2.1c-3.5-0.6-6.9-1.4-10.2-2.6c-1.9-0.9-3.6-1.9-5.3-3.1c-1.4-1.2-2.7-2.5-3.9-3.9c-1.6-2.2-2.9-4.6-4-7.1
		c-2.1-5.5-3.4-11.1-4.3-16.9c-1.3-11-0.6-22.1,0.1-33.1c0.6-8.8,1.7-17.6,2.7-26.4c0.8-6,1.7-12,2.8-18c0.5-2.8,1-5.7,1.6-8.5
		c0.8-3.6,1.5-7.3,2.4-10.9c1-3.7,2-7.5,2.9-11.2c0.8-2.8,1.7-5.6,2.5-8.4c2-6.4,4.3-12.6,6.5-18.9c1.2-2.8,2.4-5.6,3.6-8.4
		c1-2.4,2.2-4.7,3.4-7c1.5-3,2.9-6.2,4.6-9.1c2-3.4,3.9-6.8,5.9-10.2c6.2-10.7,13.9-20.6,21.3-30.5c3.9-4.9,7.9-9.7,12.2-14.3
		c4.5-4.8,9.5-9.1,14.7-13.1c3.5-2.7,7.1-5.2,10.9-7.5c4.3-2.7,8.9-4.9,13.5-7c1.8-0.7,3.5-1.3,5.3-1.7c1-0.1,2.1,0,3.1,0
		c2.1,0.4,3.9,0.3,5.8-0.8c1.7-1,3-2.7,3.5-4.6c0.5-2,0.3-4.1-0.8-5.9c-0.9-1.6-2.7-3.2-4.6-3.5c-1.9-0.3-3.8-0.6-5.7-0.6
		C525.6,949.7,524.7,949.8,523.7,949.9L523.7,949.9L523.7,949.9z M834.3,1087.5c0,0.1,0.1,0.2,0.1,0.3
		C834.4,1087.7,834.3,1087.6,834.3,1087.5L834.3,1087.5L834.3,1087.5z M832.4,1163.3c-0.2,0.2-0.3,0.4-0.5,0.7
		C832,1163.7,832.2,1163.5,832.4,1163.3L832.4,1163.3L832.4,1163.3z M832.4,1163.7c-0.1,0.1-0.3,0.2-0.4,0.3
		C832.1,1163.9,832.3,1163.8,832.4,1163.7L832.4,1163.7L832.4,1163.7z M830.7,1164.7c-0.1,0-0.2,0.1-0.3,0.1
		C830.5,1164.8,830.6,1164.8,830.7,1164.7L830.7,1164.7L830.7,1164.7z"/>
	<path style="fill:#161616;" d="M609.1,987.1c-3.2,1.9-4.5,6.3-2.5,9.5c4.2,6.8,8.4,13.6,12.2,20.6c3.4,6.3,6.7,12.5,10.1,18.8
		c3.5,6.5,7.1,12.9,10.5,19.4c1.8,3.5,3.6,7,5.3,10.6c1.2,2.6,2.4,5.3,3.5,8c1.7,4.6,3.4,9.2,4.9,14c1.5,4.9,2.9,9.8,4.4,14.7
		c1.2,4,5.3,6.4,9.3,5.3c3.9-1.1,6.6-5.4,5.3-9.3c-2.4-7.5-4.8-15.1-7.4-22.5c-1.4-4.1-3.3-8.1-5-12.1c-1.5-3.4-3-6.7-4.8-9.9
		c-7.6-14.3-15.7-28.5-23.5-42.7c-4.1-7.4-8.5-14.6-13-21.7c-1.4-2.2-3.7-3.4-6.1-3.4C611.4,986.2,610.2,986.5,609.1,987.1
		L609.1,987.1L609.1,987.1z"/>
	<path style="fill:#161616;" d="M696,1198.9c-2.1,2.2-3,6.2-1.1,8.8c0.4,0.6,0.8,1.2,1.1,1.9c1.2,3.3,2.1,6.8,3.1,10.2
		c1.1,3.7,2.2,7.3,3.3,11c2.3,7.5,4.4,15,6.2,22.7c3.6,15.2,6.2,30.7,8.3,46.2c0.3,2.1,0.6,4.2,0.8,6.3c-0.1-0.7-0.2-1.4-0.3-2
		c4.2,31.5,7.6,63.1,11.1,94.8c1.9,16.8,3.9,33.6,5.2,50.4c0.6,7.5,1.1,15,1.2,22.5c0.1,8.4,0.3,16.8-0.1,25.2
		c-0.3,8.4-0.7,16.9-1.3,25.3c-0.5,7.6-1.3,15.2-2.1,22.8c-1.1,7.7-2.1,15.4-4.8,22.7c-0.7,1.4-1.4,2.7-2.3,4
		c-0.9,1-1.8,1.9-2.8,2.8c-1.3,0.8-2.5,1.6-3.9,2.2c-4.2,1.6-8.6,2.8-13,3.9c-3.2,0.8-6.4,1.6-9.6,2.3c-7.1,1.5-14.2,2.7-21.4,3.7
		c-7.5,0.9-15.1,1.8-22.7,2.3c-8,0.6-16.1,1.1-24.1,1.5c-16.6,0.7-33.2,1.4-49.8,2.2c-16.5,0.8-33.1,1.2-49.6,1.2
		c-7.9,0-15.9-0.1-23.8-0.2c-7.6-0.1-15.2-0.5-22.7-1.4c-2-0.2-4-0.5-5.9-0.7c-7.5-1.4-15.1-3.1-22.7-4.2
		c-9.2-1.4-18.3-2.9-26.9-6.3c-2.4-1.1-4.7-2.4-6.9-3.9c-1.2-1-2.2-2.1-3.2-3.2c-0.8-1.2-1.6-2.5-2.2-3.9c-1.5-3.9-2.3-8-3-12.1
		c-1.7-15.1-2-30.4-1.8-45.6c0.2-16.2,0.6-32.5,1.5-48.7c1.9-33.9,4.4-67.7,6.4-101.6c0.9-14.8,1.4-29.7,1.9-44.5
		c0.2-6.4,0.2-12.8,0.5-19.2c0.1-3.9,0.1-7.9,0.4-11.9c0.3-3.7,0.6-7.5,0.9-11.2c0.9-5.9,1.7-11.7,2.7-17.6c0.3-2,0.3-3.7-0.7-5.5
		c-0.9-1.6-2.5-2.8-4.3-3.3c-1.9-0.5-3.9-0.2-5.5,0.7c-1.5,0.9-3,2.5-3.3,4.3c-1,5.6-1.8,11.2-2.7,16.8c-0.6,4.4-1,8.7-1.4,13.1
		c-0.7,7.6-0.8,15.4-1,23c-0.2,8.9-0.5,17.9-0.8,26.8c-0.3,7.6-0.7,15.1-1.1,22.6c-0.8,15.7-2,31.4-3.1,47.1
		c-1.2,17.1-2.4,34.1-3.4,51.2c-0.9,15.9-1.7,31.9-2,47.8c-0.3,16.4-0.6,32.8,0.8,49.2c0.4,4.4,0.7,8.9,1.6,13.2
		c0.7,3.3,1.4,6.4,2.6,9.6c2.1,5.5,5.4,10.3,9.9,14.1c7.3,6,16.4,9,25.5,11.1c3.9,0.9,7.8,1.6,11.8,2.2c3.6,0.5,7.2,1.1,10.8,1.8
		c4.4,0.9,8.9,1.8,13.4,2.6c4.3,0.8,8.6,1.2,12.9,1.8c4,0.5,8.1,0.7,12.1,0.9c7.8,0.4,15.6,0.5,23.3,0.5c7.9,0.1,15.8,0.1,23.7-0.1
		c9.2-0.1,18.4-0.4,27.5-0.8c7.4-0.3,14.8-0.7,22.2-1c16.2-0.8,32.5-1.4,48.7-2.3c16.9-0.9,33.8-2.8,50.4-5.6
		c7.7-1.3,15.2-3.3,22.7-5.3c2.5-0.6,4.9-1.4,7.3-2.2c2.6-0.9,5.3-2,7.7-3.5c2.5-1.5,4.8-3.5,6.8-5.6c3.9-4.1,6.2-9.5,7.8-14.9
		c1.2-3.9,2-7.9,2.6-11.9c0.7-4.6,1.4-9.2,1.9-13.8c0.4-4.2,0.9-8.3,1.2-12.5c0.7-7.9,1.2-15.9,1.6-23.8c0.3-8,0.7-16,0.6-24
		c-0.1-4.3,0-8.6-0.2-12.9c-0.2-4.6-0.5-9.1-0.7-13.7c-0.4-8-1.3-15.9-2.2-23.9c-0.8-7.5-1.6-14.9-2.4-22.4
		c-1.9-16.8-3.7-33.6-5.6-50.5c-1.7-15.4-3.4-30.7-5.5-46.1c-2.2-16.5-4.2-33.1-7.6-49.5c-1.6-7.8-3.2-15.5-5.3-23.2
		c-2.1-7.6-4.4-15.1-6.7-22.6c-0.8-2.6-1.6-5.2-2.3-7.8c-0.4-1.2-0.7-2.4-1.1-3.6c-1.1-3.3-2.8-6.4-6.1-8.1
		c-1.2-0.6-2.5-0.9-3.8-0.9C699.2,1196.8,697.4,1197.4,696,1198.9L696,1198.9L696,1198.9z"/>
	<path style="fill:#161616;" d="M453.8,1590.9c-1.5,0.9-3.3,2.8-3.5,4.6c-0.9,6.2-1.7,12.3-2.3,18.5c-0.6,5.9-1.1,11.9-1.7,17.8
		c-0.2,2.6-0.6,5.2-0.6,7.8c-0.1,5.4-0.3,10.8-0.4,16.2c-0.4,16.8-0.3,33.6-0.5,50.4c-0.4,20.4-2.7,40.8-2.6,61.2
		c0,4.2,3.5,7.7,7.7,7.7c4.2,0,7.6-3.5,7.7-7.7c0.1-8.2,0.3-16.3,0.8-24.5c0.5-8.7,1-17.4,1.4-26.1c0.8-17.1,0.6-34.2,0.7-51.3
		c0-4.2,0.2-8.4,0.3-12.5c0.1-3.5,0.2-7,0.3-10.5c0-1.4,0-2.8,0.1-4.2c0.5-5.3,1-10.5,1.5-15.8c0.5-5.1,0.9-10.2,1.5-15.3
		c0.4-2.5,0.7-5.1,1.1-7.6c0.3-2.2,0.4-4-0.8-5.9c-1-1.7-2.7-3-4.6-3.5c-0.7-0.2-1.4-0.3-2-0.3
		C456.3,1589.9,455,1590.2,453.8,1590.9L453.8,1590.9L453.8,1590.9z"/>
	<path style="fill:#161616;" d="M690.9,1592.2c1.2,18.7,2.6,37.4,3.2,56.1c0.5,17.3,0.8,34.6,0.9,51.9c0.1,8.9,0.1,17.8,0.1,26.7
		c0,4.5,0,9,0,13.4c0,4.5-0.2,9,0.4,13.4c0.4,1.3,1,2.4,2,3.4c1.4,1.4,3.4,2.2,5.4,2.2c2,0,4-0.8,5.4-2.2c1.5-1.5,2-3.3,2.2-5.4
		c0.3-3.4,0-7,0-10.5c0-3.6,0-7.2,0-10.8c0-8.6,0-17.1-0.1-25.7c-0.1-16-0.3-32-0.7-48c-0.6-21.6-2-43.1-3.4-64.6
		c-0.3-4.2-3.3-7.7-7.7-7.7C694.6,1584.5,690.6,1588,690.9,1592.2L690.9,1592.2L690.9,1592.2z"/>
	<path style="fill:#161616;" d="M960.3,953.4c-8.4,1.1-16.4,4.5-23.3,9.3c-3.5,2.5-6.9,5.3-9.9,8.3c-1.9,1.8-3.6,3.9-5.2,5.9
		c-2.4,2.9-4.7,5.9-7,9c-3.6,4.8-6.8,9.9-10.2,14.8c-3.5,5.2-6.9,10.4-10.3,15.7c-6.9,10.5-13.7,21.1-20.4,31.6
		c-9.5,14.9-19.4,29.5-29.5,44c-2,2.9-0.5,7.2,2.3,8.9c1.5,0.9,3.3,1.1,5,0.6c1.7-0.5,2.9-1.6,3.9-3c15-21.4,29.4-43.2,43.5-65.2
		c5.6-8.7,11.1-17.3,16.6-26c2.7-4.2,5.4-8.5,8.1-12.7c2.5-3.9,5.2-7.6,8-11.3c1.5-1.9,3.1-3.8,4.9-5.5c1.8-1.8,3.8-3.5,5.8-5.1
		c3.3-2.5,6.9-4.5,10.7-6.2c2.8-1.1,5.6-1.9,8.5-2.4c0.5,0,0.9,0,1.4,0c0.2,0,0.4,0.1,0.5,0.1c0.3,0.2,0.7,0.4,1,0.6
		c0.2,0.2,0.3,0.3,0.5,0.5c0.1,0.1,0.1,0.2,0.2,0.3c0,0.1,0,0.2,0,0.2c-0.2,0.9-0.4,1.8-0.7,2.7c-0.4,0.8-0.8,1.5-1.3,2.2
		c-4.7,5.6-10.6,10-16.1,14.7c-4.1,3.6-8.2,7.2-12,11.2c-2,2.1-4.2,4.6-3.9,7.8c0,0.7,0.1,1.4,0.5,2.1c0.2,0.5,0.4,0.9,0.6,1.4
		c0.4,0.6,0.9,1.2,1.4,1.7c0.2,0.2,0.4,0.3,0.6,0.5c0.6,0.5,1.2,0.9,1.9,1.3c0.9,0.6,2,0.9,3.1,1.2c1.9,0.6,4,0.9,6,1.2
		c1.1,0.2,2.2,0.4,3.2,0.6c8.1,1.7,16.2,3.6,23.9,6.7c6.3,2.8,12.3,6.1,17.8,10.3c2.2,1.7,4.4,3.6,6.3,5.7c-1.7,0.5-3.5,0.9-5.2,1.2
		c-5.8,0.7-11.6,0.9-17.5,1c-4.2,0.1-8.3,0.2-12.5,0.2c-0.9-0.1-1.8-0.1-2.7-0.1c-2.2,0.1-4.1,1.5-4.7,3.6c-0.7,2.7,0.9,5.2,3.4,6
		c0.8,0.3,1.8,0.3,2.7,0.3c0.2,0,0.3,0,0.5,0c0.1,0,0.3,0,0.4,0c4.9,0.8,9.6,2.2,14.2,4c1.1,0.5,2.1,0.9,3.2,1.4
		c2.8,1.2,5.4,2.7,7.8,4.5c2.7,2.2,5.2,4.6,7.4,7.3c0.7,0.9,1.3,1.8,1.9,2.8c-0.2,0.1-0.5,0.1-0.7,0.1c-2.9,0.2-5.7,0-8.5-0.4
		c-3.1-0.5-6.2-1.2-9.3-2.1c-1.1-0.5-2.2-1-3.4-1.5c-2.1-0.9-4.2-1.8-6.3-2.6c-2.3-0.9-4.7-1.8-7.2-2c-1.9-0.1-3.8,1.1-4.8,2.7
		c-1,1.7-1,3.9,0,5.6c1,1.8,2.8,2.7,4.6,3.6c1.5,0.7,3,1.3,4.5,1.9c2.3,0.9,4.7,1.8,7.1,2.6c1.6,0.5,3.2,1.1,4.9,1.5
		c1.5,0.9,2.9,1.8,4.3,2.8c2.3,1.9,4.4,4.2,6.3,6.5c0.4,0.5,0.7,1,1,1.5c-5.4-0.9-10.8-2.1-16.2-3.3c-3-1.5-6.3-2.5-9.5-3.4
		c-1.9-0.6-3.8-1-5.7-1.1c-0.5-0.1-1.1-0.1-1.6-0.1c-0.6,0.1-1.2,0.1-1.7,0.2c-1.3,0.2-2.2,1.3-2.9,2.3c-1.5,2.1-0.4,5.3,1.7,6.5
		c1.3,0.7,2.8,1.2,4.2,1.6c1.3,0.4,2.5,0.7,3.8,1.1c2.5,0.7,5.1,1.2,7.6,1.8c2,1.1,3.9,2.4,5.8,3.8c1.4,1.2,2.6,2.5,3.8,3.9
		c0.8,1.1,1.4,2.3,2,3.5c0.3,0.9,0.6,1.9,0.8,2.8c-0.1,0.3-0.2,0.6-0.3,0.9c-0.1,0.2-0.2,0.3-0.3,0.5c-0.2,0.2-0.5,0.5-0.7,0.7
		c-0.4,0.3-0.8,0.5-1.3,0.7c-1.4,0.5-2.9,1-4.4,1.2c-1,0.1-2,0-3,0c-1.3-0.3-2.6-0.6-3.9-1.1c-3.2-1.5-6.1-3.3-9-5.3
		c-2.8-1.9-5.6-3.8-8.3-5.8c-0.6-0.5-1.1-0.9-1.7-1.5c-2.1-2-4.5-3.3-7.4-2.6c-2.6,0.6-4.7,2.5-6.7,4.2c-1,0.8-1.9,1.6-2.9,2.5
		c-1.9,1.6-3.8,3.2-5.7,4.8c-2.2,1.8-4.2,3.7-6.1,5.7c-1.7,1.8-2.1,4.4-0.9,6.6c1.4,2.4,5,3.6,7.4,1.9c1.6-1.1,3.3-2.2,5-3.3
		c1.7-1.2,3.3-2.4,4.9-3.7c2.3-1.8,4.4-3.7,6.6-5.5c1,0.7,2,1.3,3,2c2.3,1.5,4.7,3,7,4.5c5,3.2,10.4,6.3,16.4,7.2
		c2.7,0.4,5.3,0.3,8-0.2c2.3-0.5,4.5-1.4,6.6-2.4c1.3-0.6,2.5-1.6,3.6-2.6c1-0.9,1.8-2.1,2.4-3.3c1.7-3.2,1.9-6.8,0.7-10.2
		c-0.7-2.1-1.5-4-2.6-5.8c1.5,0.2,3,0.4,4.5,0.6c3.1,0.3,7.2-0.2,8.6-3.4c0.8-1.8,0.8-3.4,0.3-5.2c-0.2-0.9-0.7-1.8-1.1-2.7
		c-0.6-1.3-1.2-2.5-2-3.7c-0.8-1.3-1.7-2.5-2.6-3.7c2.3-0.2,4.5-0.7,6.6-1.5c1-0.4,1.9-0.8,2.7-1.4c0.9-0.6,2-1.6,2.5-2.6
		c0.6-1.1,1.1-2.2,1.1-3.5c0-1.1-0.2-2.1-0.3-3.1c-0.2-1.4-1-2.9-1.6-4.2c-0.9-1.7-2.2-3.2-3.4-4.7c-2.4-3.1-5.4-5.9-8.5-8.3
		c-1.3-1-2.7-2-4-2.9c2.2-0.2,4.4-0.4,6.6-0.8c2.1-0.3,4.1-0.8,6.1-1.8c0.9-0.5,1.6-0.9,2.5-1.6c1.1-0.8,1.8-1.8,2.6-2.9
		c0.6-0.8,0.9-1.9,1.1-2.8c0.2-1,0.3-2,0.1-3c-0.2-1.3-0.4-2.4-1-3.6c-0.4-0.7-0.9-1.4-1.4-2.1c-1.4-1.9-3.1-3.6-4.7-5.3
		c-2.5-2.6-5.6-4.9-8.6-7c-3.6-2.6-7.5-4.7-11.5-6.6c-6.4-3.1-13.1-5.3-20-6.9c-3.3-0.8-6.6-1.5-10-2.1c-1.9-0.4-3.9-0.7-5.8-0.9
		c2.9-3.2,6.1-6.1,9.4-9c2.5-2.2,5-4.3,7.5-6.5c2-1.7,4-3.5,5.8-5.5c1.5-1.6,2.9-3.2,4.2-4.9c1.3-1.7,2.2-4,2.8-6.1
		c0.3-1.1,0.5-2.3,0.6-3.4c0.1-1.1,0.1-2.4-0.2-3.4c-0.3-1-0.7-1.9-1.2-2.8c-0.5-0.9-1.2-1.7-1.8-2.4c-0.6-0.8-1.6-1.6-2.5-2.1
		c-0.9-0.6-1.8-1.1-2.9-1.5c-1.6-0.6-3.3-0.9-5-0.9C961.6,953.3,960.9,953.3,960.3,953.4L960.3,953.4L960.3,953.4z M965.2,964.3
		c0.1,0.3,0.1,0.6,0.1,0.9C965.3,964.9,965.3,964.6,965.2,964.3L965.2,964.3L965.2,964.3z M932.6,982.4c-0.2,0.3-0.4,0.5-0.6,0.7
		C932.3,982.9,932.4,982.7,932.6,982.4L932.6,982.4L932.6,982.4z M998.1,1035.9c0,0.1-0.1,0.1-0.1,0.2
		C998,1036,998,1035.9,998.1,1035.9L998.1,1035.9L998.1,1035.9z M997.5,1036.1c0,0.1,0,0.3,0,0.4c0,0,0,0,0,0
		C997.5,1036.4,997.5,1036.3,997.5,1036.1L997.5,1036.1L997.5,1036.1z M997.7,1038.6c0.1,0.1,0.1,0.2,0.2,0.4
		C997.8,1038.9,997.8,1038.7,997.7,1038.6L997.7,1038.6L997.7,1038.6z M961.2,1049.3c0.2,0,0.4,0,0.5,0.1
		C961.6,1049.3,961.4,1049.3,961.2,1049.3L961.2,1049.3L961.2,1049.3z M974.1,1052.8c0.2,0.1,0.5,0.2,0.7,0.3
		C974.6,1053.1,974.3,1052.9,974.1,1052.8L974.1,1052.8L974.1,1052.8z M984.7,1068.8c0.2,0,0.4,0,0.5,0.1
		C985,1068.8,984.9,1068.8,984.7,1068.8L984.7,1068.8L984.7,1068.8z M987.4,1089.5c0.2,0,0.4,0,0.6,0.1c0,0,0,0,0,0
		C987.8,1089.6,987.6,1089.5,987.4,1089.5L987.4,1089.5L987.4,1089.5z M980,1109.8c0,0.1,0,0.1,0,0.2
		C980,1109.9,980,1109.8,980,1109.8L980,1109.8L980,1109.8z"/>
	<path style="fill:#161616;" d="M931.2,1102.7c-1.4,0.4-2.3,1.3-3.1,2.4c-5.4,7.2-10.8,14.5-16.3,21.7c-2.8,3.5-5.6,6.9-8.6,10.2
		c-1.6,1.7-3.3,3.4-5,5c-1.5,1.4-3,2.7-4.6,4c-5.7,4.2-11.7,8.1-18.2,11c-6.3,2.5-12.9,3.9-19.5,5.4c-2.5,0.5-5,1.1-7.5,1.5
		c-1.3,0.2-2.6,0.4-4,0.7c-2.1,0.4-3.9,1.3-5.6,2.6c-1.5,1.3-1.9,3.6-1.4,5.4c0.5,1.9,2,3.4,3.9,3.9c3.6,0.9,7.2,0.1,10.8-0.6
		c2.7-0.5,5.3-1.1,8-1.6c3.3-0.7,6.6-1.5,9.9-2.3c1.4-0.4,2.8-0.8,4.2-1.2c1.5-0.5,3-1,4.5-1.6c2-0.8,4-1.6,5.9-2.7
		c2.7-1.5,5.4-3,7.9-4.8c3.1-2.2,6.1-4.4,9-6.7c2.4-1.9,4.5-4,6.5-6.2c2-2,3.9-4.2,5.6-6.4c4-5.2,7.8-10.5,11.6-15.8
		c3.9-5.5,7.8-10.9,11.9-16.3c0.8-1.1,0.9-2.8,0.5-4c-0.3-1.3-1.2-2.4-2.4-3.1c-0.8-0.5-1.7-0.7-2.6-0.7
		C932.1,1102.5,931.6,1102.6,931.2,1102.7L931.2,1102.7L931.2,1102.7z"/>
	<path style="fill:#161616;" d="M995.2,844.7c-0.7,1.5-1.3,2.9-1.9,4.4c-0.6,1.4-0.9,3-1.4,4.5c-0.3,1.1-0.5,2.3-0.8,3.4
		c-0.5,2.2-0.9,4.3-1.3,6.5c-0.5,2.7-0.9,5.4-1.4,8.1c-0.4,2.5-0.6,5.1-0.9,7.7c-0.5,4.6-1.1,9.3-1.4,13.9
		c-0.5,6.6-0.7,13.3-1.5,19.9c-0.1,0.7-0.3,1.5-0.5,2.2c-0.9-0.9-1.8-1.9-2.6-2.9c-1.2-1.4-2.5-2.6-3.6-4c-2.2-2.7-4.5-5.4-6.7-8.1
		c-2.1-2.8-4.3-5.6-6.4-8.4c-2.1-2.8-4.1-5.6-6.2-8.3c-1.4-1.7-2.8-3.5-4.3-5.1c-1.7-1.9-3.8-3.5-5.9-5c-0.9-0.6-2-1-3.1-1.2
		c-0.6-0.1-1.2-0.2-1.8-0.3c-1.2,0-2.4,0.3-3.5,0.9c-2.5,1.1-4,3.4-4.8,6c-0.7,2.4-0.1,5.4,0.4,7.7c0.3,1.3,0.6,2.5,1,3.8
		c1.1,4,2.3,7.9,3.6,11.8c1.1,3.3,2.4,6.5,3.7,9.7c1.5,3.9,3.2,7.6,4.8,11.4c2.8,6.6,5.8,13.2,8.7,19.7c1.3,3,2.6,5.9,3.9,8.8
		c1.3,2.9,2.5,5.9,4,8.7c0.2,0.4,0.5,0.9,0.7,1.3c-0.5,1-0.8,2.1-0.8,3.3c0,2.1,0.9,3.7,2.2,5.3c3.2,3.9,8.8,4.2,13.4,4.6
		c3.3,0.3,6.7,0.2,10,0.1c4.1-0.1,8.2-0.3,12.3-0.6c3.1-0.2,6.3-0.4,9.4-0.8c2.5-0.3,5-0.6,7.4-0.9c2.5-0.4,4.9-0.8,7.3-1.5
		c2.6-0.7,5.2-1.7,7.8-2.7c10.6-4.3,20.3-10,29-17.4c4.5-3.9,9.1-7.9,11.2-13.6c0.5-1.3,0.8-2.6,0.9-4c0.1-1.1,0.1-2.7-0.3-3.7
		c-0.5-1.4-0.9-2.7-2-3.8c-0.8-0.8-1.7-1.6-2.8-2.2c-1.2-0.6-2.6-1.1-4-1.1c-1.4,0-2.7,0.2-4,0.4c-2.9,0.4-5.8,1.8-8.2,3.4
		c-2.8,1.7-5.3,3.9-7.9,6c-2.1,1.7-4.2,3.4-6.2,5.1c-2.5,2-4.9,4-7.3,6.1c1.2-4,2.2-8.2,3.3-12.3c0.9-3.5,1.6-7.1,2.3-10.7
		c0.5-2.5,0.9-5,1.4-7.4c0.9-5.4,1.6-11,1.6-16.6c0-4.8-0.7-9.9-3.8-13.8c-1.8-2.2-4.4-3.2-7.2-2.6c-3,0.6-4.8,2.7-6.6,5
		c-1.7,2.3-3.2,4.6-4.8,7c-0.3-2.1-0.6-4.2-0.9-6.2c-0.1-0.8-0.2-1.6-0.3-2.4c0-0.3-0.1-0.6-0.1-0.9c-0.2-1.3-0.3-2.6-0.5-3.9
		c-0.4-2.8-0.7-5.7-1.1-8.6c-0.9-5.8-2-11.5-3.5-17.2c-0.7-2.6-1.9-5-3.5-7.1c-0.9-1.1-1.9-1.9-3.2-2.5c-1.2-0.6-2.6-1-3.9-1.6
		c-0.5-0.2-1-0.3-1.6-0.3C998.4,841.6,996,842.9,995.2,844.7L995.2,844.7L995.2,844.7z M999.4,853.4c0,0,0.1,0,0.1,0.1
		C999.5,853.5,999.5,853.5,999.4,853.4C999.4,853.5,999.4,853.4,999.4,853.4L999.4,853.4L999.4,853.4z M1002.4,864.2
		c0.1-0.5,0.2-0.9,0.3-1.4c0.1,0.2,0.1,0.4,0.2,0.6c0.9,3.5,1.3,7,1.9,10.6c0.5,3.5,0.9,7,1.4,10.5c0,0.3,0.1,0.6,0.1,0.9
		c0.6,4.3,1.1,8.5,1.8,12.7c0.5,3.6,0.7,7.7,3.2,10.6c0.7,0.9,1.5,1.5,2.5,2c1.8,0.9,3.5,1,5.4,0.4c2.5-0.8,4.2-2.9,5.8-4.9
		c1.4-1.7,2.6-3.5,3.8-5.3c-0.1,2.1-0.4,4.1-0.6,6.2c-1,6.4-2.4,12.7-3.8,19c-0.5,2.3-1.3,4.6-1.9,6.9c-1,3.7-2.2,7.4-3.6,11
		c-0.6,1.2-1.2,2.2-1.9,3.3c-0.6,0.6-1.2,1.2-1.8,1.8c-1.4,0.9-2.8,1.7-4.3,2.5c-2.4,0.9-4.8,1.6-7.3,2.1
		c-5.8,0.7-11.6,0.9-17.4,1.3c-2.1,0.2-4.3,0.3-6.4,0.6c-0.4,0-0.7,0.1-1.1,0.1c-2.3-3.9-4-8.1-5.8-12.2c-1.7-3.8-3.4-7.6-5-11.5
		c-2.2-5.1-4.4-10.1-6.6-15.2c-1.1-2.7-2.2-5.4-3.3-8.1c-1.2-2.8-2.2-5.8-3.3-8.7c0,0,0-0.1-0.1-0.1c3.4,4.4,6.8,8.8,10.4,13
		c2.3,2.8,4.7,5.5,7.1,8.1c1.8,2,3.6,4,5.7,5.7c2.1,1.6,4.2,3.1,7,3.2c2.2,0.1,4.3-0.5,6.1-1.6c3.7-2.2,4.9-7,5.8-10.9
		c0.8-3.8,1-7.8,1.2-11.7c0.3-4.4,0.6-8.7,0.9-13.1c0.4-6.1,1.3-12.2,2-18.3C1001.2,871,1001.8,867.6,1002.4,864.2L1002.4,864.2
		L1002.4,864.2z M971.4,900.8c0.2,0.3,0.4,0.5,0.6,0.8C971.8,901.4,971.6,901.1,971.4,900.8L971.4,900.8L971.4,900.8z M1028.2,906.1
		c0,0.3-0.1,0.6-0.1,0.9C1028.1,906.7,1028.1,906.4,1028.2,906.1L1028.2,906.1L1028.2,906.1z M1062.6,931.6c0.1,0.3,0.1,0.5,0.1,0.8
		C1062.7,932.1,1062.6,931.9,1062.6,931.6L1062.6,931.6L1062.6,931.6z"/>
	<path style="fill:#161616;" d="M1015.9,971.3c0,4.4,3.5,7.5,7.7,7.7c4.3,0.3,8.5,0.6,12.7,1.1c5.9,0.8,11.8,2,17.5,3.6
		c6.3,1.7,12.6,4,18.6,6.5c13.8,6,26.8,13.4,38.7,22.5c10.9,8.6,20.9,18.3,29.6,29.3c7,9.2,12.6,19.3,17.2,29.9
		c6.5,15.9,10.7,32.6,13.1,49.6c0.8,6.3,1.2,12.6,1.7,18.9c1.1,12.7,0.5,25.6-1.1,38.2c-1.1,7.7-2.6,15.3-4.6,22.8
		c-2,7.6-4.3,15.2-7.3,22.5c-4.1,9.3-9.1,18.1-15.2,26.2c-5.3,6.6-11.2,12.6-17.8,17.8c-7.9,5.9-16.4,10.6-25.4,14.6
		c-16.1,6.7-33.1,10.7-50.4,13.3c-4.1,0.4-8.2,0.9-12.2,1.3c-3.1,0.3-6.2,0.7-9.3,0.9c-5.2,0.2-10.5,0.4-15.7,0.6
		c-9.3,0.4-18.7-0.3-27.9-1.5c-11.4-1.7-22.6-4.5-33.3-8.9c-8.5-3.7-16.6-8.3-24.1-13.9c-7.7-6.2-14.6-13.2-20.7-21
		c-6.7-8.9-12.5-18.5-17-28.7c-3.1-7.7-5.5-15.6-6.7-23.8c-0.7-6.1-0.7-12.2-0.1-18.2c0.6-4.2,1.6-8.4,3.1-12.4
		c0.7-1.8,1.3-3.7,2.1-5.5c1-2.2,2.1-4.4,2.9-6.7c0.5-1,0.7-2,0.7-3c0-1.8-0.8-3.6-2-4.9c-2.3-2.3-5.7-2.6-8.4-1.1
		c-5,2.7-6.8,8.5-8.7,13.5c-3.1,7.8-4.8,15.9-5.3,24.3c-0.8,11.5,1.2,23.2,4.7,34.1c3.4,10.8,8.6,21,14.6,30.5
		c12.1,19.2,28.7,35.6,48.8,46.3c21.2,11.2,45.1,15.8,68.8,16.4c5.6,0.1,11.1-0.1,16.7-0.3c3.5-0.2,7-0.1,10.4-0.5
		c5.1-0.5,10.3-1.1,15.4-1.6c7.4-0.8,14.8-2,22.1-3.4c11.2-2.2,22.2-5.4,32.8-9.6c10.4-4.1,20.5-9.1,29.6-15.6
		c9.4-6.7,17.7-14.7,24.7-23.8c6.7-8.8,12.2-18.3,16.6-28.5c4.6-10.6,7.7-21.7,10.3-33c2.6-11.4,4-23.1,4.6-34.8
		c0.4-8.1,0.2-16.3-0.5-24.4c-0.4-4.7-0.8-9.4-1.2-14.1c-0.4-5.2-1.4-10.4-2.3-15.5c-1-5.8-2.3-11.6-3.9-17.3
		c-3-11.2-6.9-22-11.7-32.5c-9.4-20.2-24-37.5-40.7-52c-6.8-5.9-14.1-11.3-21.8-16.2c-8.2-5.3-17-9.7-26-13.6
		c-9-3.9-18.2-7.2-27.8-9.5c-9.5-2.3-19.4-3.3-29.2-3.9c-0.1,0-0.2,0-0.4,0C1019.2,963.6,1015.9,967.4,1015.9,971.3L1015.9,971.3
		L1015.9,971.3z M1144.4,1250.4c-0.2,0.3-0.4,0.6-0.7,0.9C1144,1251,1144.2,1250.7,1144.4,1250.4L1144.4,1250.4L1144.4,1250.4z
		 M1127.6,1267.3c-0.1,0.1-0.3,0.2-0.4,0.3C1127.4,1267.5,1127.5,1267.4,1127.6,1267.3L1127.6,1267.3L1127.6,1267.3z"/>
	<path style="fill:#161616;" d="M964.4,1122.2c-1.7,0-3.4,0-5.1,0c-4.9,0-9.9,0-14.8,0.8c-1,0.2-2.1,0.4-3.1,0.6
		c-1.1,0.3-2.2,0.8-3.2,1.3c-0.7,0.3-1.9,1.2-2.4,1.7c-0.2,0.2-0.3,0.4-0.5,0.5c-0.7,0.7-1.2,1.6-1.5,2.5c-0.9,2.2-0.7,4.7-0.6,7
		c0.1,3.9,0.5,7.8,1.2,11.6c0.4,2,1.1,3.8,1.9,5.7c0.3,0.8,1.3,2.1,1.8,2.6c0.5,0.4,0.9,0.8,1.4,1.1c0.2,6.7,0.5,13.5,0.8,20.2
		c0.3,6.8,0.8,13.5,1.3,20.3c1,12.9,2.2,25.8,2.6,38.8c0.1,3.3,0.2,6.7,0.4,10c0.1,1.1,0.1,2.2,0.2,3.3c0.1,1.1,0.3,2.3,0.5,3.4
		c0.2,0.8,0.8,2.4,1.1,3c0.7,0.9,1.3,1.8,2.1,2.6c1.3,1.2,2.5,1.7,4.2,2.4c2.3,0.9,4.6,1.4,7,1.7c7.9,1.2,15.9,1,23.9,0.8
		c6.8-0.2,13.7-0.3,20.5-0.5c2.1-0.1,4.2-0.2,6.3-0.4c2.3-0.2,4.6-0.6,6.8-1.2c2.8-0.8,5.1-2.4,7.2-4.3c1.5-1.4,2.7-3.5,3.6-5.3
		c1-2.1,1.7-4.3,2.3-6.5c0.6-2.4,0.8-4.9,1.1-7.3c0.3-2.6,0.4-5.1,0.5-7.7c0.2-6.3,0-12.6-0.1-18.9c-0.1-7-0.2-14-0.2-21
		c0-6.3,0-12.7,0-19c0-4,0-7.9-0.7-11.8c-0.2-1.2-0.7-2.6-1.3-3.7c-0.2-0.5-0.5-0.9-0.8-1.3c0.1-0.1,0.2-0.3,0.2-0.4
		c1-2,1.6-3.9,1.9-6c0.3-1.6,0.5-3.2,0.8-4.8c0.6-3.4,1.4-6.8,1.9-10.2c0.5-3.7,0.7-8.4-3.3-10.1c-2-0.9-4.3-0.9-6.4-0.9
		c-3-0.1-6-0.2-9-0.2c-13.5-0.2-27-0.3-40.6-0.3c-1.6,0-3.2,0-4.9,0S966,1122.2,964.4,1122.2L964.4,1122.2L964.4,1122.2z
		 M964.4,1132.7c2.9,0,5.8-0.1,8.7-0.2c6.3-0.1,12.7-0.1,19-0.2c6.1,0,12.3-0.1,18.4-0.2c2.8,0,5.6-0.1,8.5-0.1
		c1.8,0,3.7-0.1,5.5-0.1c-0.6,3.2-1.4,6.3-2.3,9.4c-0.4,1.4-0.7,2.7-1.1,4c-0.4,1.4-0.7,2.8-1,4.2c-1.1-0.4-2.3-0.7-3.5-0.9
		c-1.7-0.3-3.5-0.5-5.3-0.6c-11.3-0.8-22.7-0.8-34-0.8c-5.3,0-10.5,0-15.7,0c-4.7,0-9.4,0-14.1-0.4c-0.8-2.7-1.2-5.4-1.6-8.2
		c-0.2-1.5-0.4-3-0.6-4.5c0.9-0.3,1.9-0.5,2.9-0.6C953.5,1132.9,958.9,1132.8,964.4,1132.7L964.4,1132.7L964.4,1132.7z
		 M943.5,1134.8c-0.1,0.1-0.2,0.2-0.3,0.2C943.3,1135,943.4,1134.9,943.5,1134.8L943.5,1134.8L943.5,1134.8z M945.3,1146.3
		c0.2,0.1,0.4,0.2,0.6,0.3C945.8,1146.5,945.5,1146.4,945.3,1146.3L945.3,1146.3L945.3,1146.3z M959.5,1239.9
		c-0.1-3.3-0.2-6.6-0.4-9.9c-0.4-6.9-0.9-13.7-1.5-20.6c-1.1-12.8-2.2-25.5-2.6-38.3c-0.1-3.6-0.3-7.3-0.4-10.9
		c1.3,0.1,2.6,0.1,3.9,0.1c6.3,0.2,12.6,0.1,18.8,0.2c6.3,0,12.7,0.1,19,0.2c5.7,0.1,11.4,0.3,17,0.9c1.1,0.2,2.1,0.5,3.1,0.9
		c0.3,0.2,0.7,0.3,1,0.5c0,0.2,0.1,0.3,0.1,0.5c0.2,2.7,0,5.4-0.1,8.1c-0.1,3.1-0.2,6.1-0.2,9.2c-0.1,5.5-0.3,11.1-0.3,16.6
		c0,5.9,0,11.8,0,17.8c0,7.8,0.3,15.7-0.6,23.5c-0.4,2.3-0.9,4.6-1.7,6.8c-0.3,0.5-0.6,1.1-0.9,1.6c0,0.1-0.1,0.1-0.1,0.2
		c-0.2,0.1-0.3,0.2-0.5,0.3c-0.8,0.2-1.7,0.4-2.5,0.6c-3.9,0.4-7.9,0.4-11.9,0.5c-3.9,0.1-7.7,0.2-11.6,0.3
		c-8.1,0.2-16.2,0.5-24.2-0.3c-1-0.2-2-0.3-3-0.6C959.6,1245.2,959.6,1242.6,959.5,1239.9L959.5,1239.9L959.5,1239.9z M1018,1163.4
		c0.1,0.2,0.3,0.3,0.4,0.5C1018.3,1163.7,1018.2,1163.5,1018,1163.4L1018,1163.4L1018,1163.4z M960,1249.4c0,0,0.1,0.1,0.1,0.1
		C960.1,1249.4,960,1249.4,960,1249.4C960,1249.4,960,1249.4,960,1249.4L960,1249.4L960,1249.4z"/>
	<path style="fill:#161616;" d="M983.6,1180.7c-0.3,0.1-0.5,0.2-0.8,0.3c-0.8-0.2-1.6-0.3-2.4-0.1c-2.6,0.5-4.9,1.4-7.1,2.8
		c-2.6,1.6-4.9,3.8-7,6c-3.9,4.1-7,9-7.6,14.7c-0.6,5.9,2.1,11.7,6.4,15.6c2,1.9,4.4,3.2,7,4.2c1.2,0.5,2.3,0.9,3.5,1.3
		c1.9,0.6,3.8,0.8,5.8,1.1c3,0.4,6.2-0.2,9.1-0.9c3.2-0.7,5.9-2.1,8.4-4.1c2.1-1.7,3.8-4,5.1-6.3c1.7-3.1,2.4-6.4,2.7-9.9
		c0.1-1.5-0.1-3.2-0.4-4.7c-0.3-1.3-0.6-2.4-1.1-3.6c-0.6-1.4-1.2-2.7-1.9-4c-0.9-1.6-2.1-3-3.3-4.3c-1.1-1.2-2.5-2.2-3.7-3.1
		c-1-0.7-2.1-1.4-3.1-2c-1.4-0.8-2.7-1.5-4.1-2.1c-1.2-0.6-2.3-0.9-3.5-0.9C984.7,1180.4,984.2,1180.5,983.6,1180.7L983.6,1180.7
		L983.6,1180.7z M979.3,1190c0.6,1.2,1.5,2.2,2.7,3c2,1.2,3.9,2.5,5.8,3.8c1,0.8,1.9,1.7,2.8,2.6c0.6,0.8,1.1,1.7,1.5,2.6
		c0.2,0.7,0.4,1.3,0.6,2c0,0.7,0,1.4,0,2.1c-0.2,0.8-0.4,1.5-0.6,2.2c-0.4,0.8-0.9,1.6-1.4,2.3c-0.4,0.4-0.8,0.8-1.2,1.2
		c-0.4,0.2-0.8,0.5-1.2,0.7c-1.5,0.6-3.1,1-4.7,1.3c-1.3,0.1-2.5,0.1-3.8,0c-1.7-0.3-3.4-0.7-5-1.3c-1-0.5-1.9-1-2.8-1.6
		c-0.6-0.6-1.2-1.1-1.7-1.8c-0.4-0.6-0.7-1.1-1-1.7c-0.2-0.7-0.4-1.3-0.6-2c0-0.7,0-1.3,0-1.9c0.2-1,0.5-2,0.8-3
		c0.6-1.3,1.4-2.5,2.2-3.6c1.7-2,3.4-3.8,5.5-5.5C977.8,1190.9,978.5,1190.4,979.3,1190L979.3,1190L979.3,1190z M969.2,1201
		c0,0.1-0.1,0.2-0.1,0.3C969.1,1201.2,969.1,1201.1,969.2,1201L969.2,1201L969.2,1201z"/>
	<path style="fill:#161616;" d="M1106.1,1102.4c-15.2,0.1-30.5,0.4-45.7,0.8c-19.5,0.5-39,1.1-58.5,1.7c-4,0.1-7.3,3.2-7.3,7.3
		c0,3.9,3.3,7.5,7.3,7.3c34.4-1,68.8-2.1,103.2-2.2c5.3,0,10.7,0,16,0.4c0.3,0,0.5,0.1,0.7,0.2c0.3,1,0.5,1.9,0.7,2.9
		c0.4,4.9,0,9.9-0.3,14.8c-0.2,3.3-0.4,6.5-0.5,9.8c-0.3,7.3-0.5,14.6-1,21.9c-0.8,13.7-2.1,27.3-3.7,41c-0.5,3.6-1,7.2-2.1,10.6
		c-0.3,0.5-0.5,1-0.8,1.5c-0.4,0.4-0.7,0.8-1.1,1.1c-1.4,0.9-2.8,1.7-4.3,2.4c-6.7,2.5-13.6,3.7-20.6,4.7c-8,1-16.1,2-24.2,2.8
		c-4.4,0.4-8.8,0.8-13.2,1.2c-4.9,0.4-9.7,0.6-14.5,1.3c-1.1,0.3-2.1,0.9-2.9,1.7c-1.2,1.2-1.9,2.9-1.9,4.7c0,1.7,0.7,3.4,1.9,4.7
		c1.3,1.3,2.9,1.8,4.7,1.9c4.2,0.3,8.5-0.2,12.8-0.6c4.4-0.4,8.9-0.7,13.3-1.1c8.8-0.7,17.7-1.4,26.5-2.5c-0.2,0-0.4,0.1-0.6,0.1
		c6.8-0.9,13.6-1.7,20.2-3.7c2.5-0.8,4.9-1.8,7.3-2.9c2.4-1.1,4.5-2.7,6.5-4.4c1-0.8,2-2.2,2.7-3.3c0.6-0.9,1.1-1.9,1.6-2.9
		c1.2-2.7,1.9-5.5,2.3-8.4c1.3-8.2,1.9-16.5,2.6-24.7c1.3-15.4,1.9-30.9,2.4-46.4c0.1-3.5,0.3-7,0.5-10.5c0.1-2.2,0.3-4.4,0.4-6.6
		c0.3-4.8,0.1-9.5-0.8-14.2c-0.8-4.3-3.3-8.5-7.5-10.4c-2.4-1.1-4.6-1.4-7.2-1.7c-0.9-0.1-1.7-0.1-2.6-0.2c-3.1-0.1-6.1-0.1-9.2-0.1
		C1108.2,1102.4,1107.1,1102.4,1106.1,1102.4L1106.1,1102.4L1106.1,1102.4z M1122.2,1118.1c0,0.1,0.1,0.1,0.1,0.2
		C1122.3,1118.2,1122.3,1118.1,1122.2,1118.1L1122.2,1118.1L1122.2,1118.1z"/>
	<path style="fill:#161616;" d="M1146.2,1320.3c-15.9,0.3-31.9,0.7-47.8,1c-16.2,0.3-32.3,0.7-48.4,1.3c-32.3,1.3-64.7,3.2-97.1,3.9
		c-11.7,0.2-23.5,0.2-35.2,0.4c-5.7,0.1-11.3,0.2-17,0.7c-3.9,0.3-7.8,0.8-11.3,2.6c-4.3,2.2-7.5,5.6-9.9,9.7
		c-1,1.7-1.2,3.8-0.7,5.6c-2.8,1.2-4.8,3.9-4.7,7.1c0.4,18.2,0.8,36.3,1.1,54.5c0,1.8,0,3.5,0,5.3c0,2.6-0.3,5.4,0.2,8
		c0.6,2.9,3.2,5.4,6.1,6.1c1.8,0.4,3.6,0.6,5.4,0.9c1.9,0.2,3.8,0.5,5.8,0.6c7.8,0.5,15.5,0.8,23.3,0.9c17.1,0.3,34.2,0.3,51.2,0.2
		c15.3-0.1,30.6-0.4,45.9-0.5c16.4-0.1,32.8-0.1,49.1-0.5c15.7-0.3,31.4-0.7,47.2-1.2c16.3-0.5,32.7-1.4,49-2.1
		c15.5-0.7,31-0.9,46.4-1.6c16.5-0.7,33-1.4,49.5-2.5c7.5-0.5,15.1-0.9,22.6-1.7c4.5-0.5,9-0.9,13.5-1.8c2-0.4,3.9-1.1,5.8-2
		c1.3-0.6,2.4-1.8,3.4-2.7c0.9-0.9,1.6-2,2.3-3c0.7-1.1,1.3-2.6,1.7-3.8c0.4-1.2,0.7-2.3,1-3.5c0.7-3.1,0.9-6.4,1.1-9.6
		c0.6-9.1,0.3-18.2,0.1-27.3c-0.2-7.5-0.6-15-1.1-22.5c-0.3-4.3-0.6-8.7-3.3-12.2c-1.7-2.2-3.6-3.9-5.9-5.3
		c-1.1-0.7-2.6-1.3-3.8-1.7c-1.5-0.6-3.1-0.9-4.6-1.3c-6.3-1.3-12.7-1.6-19.1-2c-7.9-0.5-15.8-0.5-23.7-0.6
		c-10.2-0.1-20.5-0.1-30.7-0.1C1191.3,1319.8,1168.7,1320,1146.2,1320.3L1146.2,1320.3L1146.2,1320.3z M919.8,1342.3
		c7.9-0.1,15.9-0.1,23.9-0.2c16.2-0.2,32.4-0.9,48.7-1.5c31.6-1.3,63.1-3,94.7-3.6c32.9-0.7,65.7-1.5,98.6-1.7
		c15.8-0.1,31.5-0.1,47.3,0c7.6,0,15.2,0,22.8,0.2c8.1,0.2,16.3,0.4,24.3,1.3c2.4,0.4,4.7,0.8,7,1.5c0.6,0.3,1.1,0.6,1.6,0.9
		c0.1,0.1,0.2,0.2,0.3,0.3c0.1,0.3,0.2,0.7,0.2,1.1c0.4,4,0.6,8,0.8,12c0.2,4.1,0.5,8.3,0.5,12.4c0.2,10.7,0.6,21.5-0.5,32.1
		c-0.2,1.3-0.5,2.6-0.9,3.9c-0.2,0.3-0.4,0.7-0.6,1c0,0,0,0-0.1,0.1c-1.7,0.5-3.5,0.8-5.3,1.1c-15.2,1.7-30.5,2.6-45.8,3.4
		c-15.9,0.8-31.8,1.5-47.7,2c-16.1,0.5-32.1,1.1-48.1,1.8c-16.1,0.8-32.2,1.4-48.2,1.8c-16.4,0.4-32.9,0.8-49.3,1.1
		c-16,0.3-32,0.1-48,0.2c-32.1,0.3-64.2,0.7-96.3-0.4c-3-0.1-6-0.3-8.9-0.6c0-7.5-0.2-15.1-0.4-22.7c-0.3-12.4-0.6-24.7-0.8-37.1
		c0-1-0.2-2-0.6-2.9c0.6-0.3,1.2-0.7,1.7-1.2c1.4-1.3,2.9-2.5,4.4-3.8c0.5-0.3,1-0.6,1.5-0.9c0.9-0.3,1.9-0.5,2.8-0.7
		C906.1,1342.5,913,1342.4,919.8,1342.3L919.8,1342.3L919.8,1342.3z M1288.2,1338.5c0.3,0.3,0.5,0.5,0.7,0.8c0,0,0,0,0,0
		C1288.7,1339.1,1288.5,1338.8,1288.2,1338.5L1288.2,1338.5L1288.2,1338.5z M1289.3,1340c0.1,0.1,0.1,0.3,0.2,0.4
		C1289.4,1340.3,1289.3,1340.2,1289.3,1340L1289.3,1340L1289.3,1340z M1289.4,1401.1c-0.1,0.1-0.1,0.2-0.2,0.2
		C1289.2,1401.3,1289.3,1401.2,1289.4,1401.1L1289.4,1401.1L1289.4,1401.1z M1289.5,1401.5c-0.2,0.1-0.3,0.3-0.5,0.4
		C1289.1,1401.7,1289.3,1401.6,1289.5,1401.5L1289.5,1401.5L1289.5,1401.5z"/>
	<path style="fill:#161616;" d="M892.5,1421.6c-1.9,0.5-3.6,1.8-4.6,3.5c-0.3,0.6-0.5,1.2-0.8,1.9c-0.4,1.4-0.4,2.7,0,4.1
		c0.2,1.5,0.4,3.1,0.6,4.6c1,7.7,1.9,15.5,2.5,23.3c0.3,4,0.7,8,0.9,12c0.2,4.7,0.5,9.3,0.7,14c0.5,8.4,0.4,16.9,0.5,25.3
		c0.1,7.6,0.1,15.3,0.1,22.9c-0.2,17.5-0.8,35-1.5,52.5c-0.7,16.3-0.9,32.7-0.9,49c0,16.3,0.7,32.5,1.1,48.8
		c0.4,16.7,1,33.4,1.9,50.1c0.3,5.4,0.6,10.8,0.7,16.2c0.2,5.1,0.6,10.3,0,15.3c0,1.4,0.3,2.6,1,3.8c1,1.7,2.6,3,4.5,3.5
		c3.9,1.1,8.3-1.3,9.3-5.3c1-4.4,0.9-8.7,0.8-13.1c-0.1-3.5-0.2-7-0.3-10.5c-0.3-7.8-0.8-15.6-1.2-23.4c-0.8-16.6-1.1-33.1-1.6-49.7
		c-0.5-16.9-0.8-33.9-0.7-50.9c0.2-16.2,0.9-32.3,1.4-48.4c0.6-17.4,0.9-34.9,0.9-52.4c0-7.6-0.1-15.2-0.3-22.8
		c-0.2-8.6-0.6-17.1-1.1-25.7c-0.2-3.3-0.5-6.6-0.8-9.9c-0.2-2.5-0.3-5-0.6-7.5c-1-8.6-2-17.3-3.2-25.9c-0.3-1.9-2-3.7-3.5-4.6
		c-1.2-0.7-2.5-1.1-3.9-1.1C893.9,1421.4,893.2,1421.5,892.5,1421.6L892.5,1421.6L892.5,1421.6z"/>
	<path style="fill:#161616;" d="M1283.8,1413.7c-0.2,5.4-0.3,10.8-0.3,16.2c0,3.5-0.2,7.1,0,10.6c0.4,9,0.8,17.9,1.1,26.9
		c0.7,15.7,1,31.4,0.9,47.1c-0.2,32.3-1.5,64.7-2.3,97c-0.4,15.6-0.8,31.3-0.9,46.9c-0.2,16-0.4,32.1-1,48.1
		c-0.5,11.3-0.8,22.5-1.3,33.8c-0.2,5.4-0.5,10.7-0.7,16.1c-0.1,2.3-0.1,4.5-0.2,6.8c-0.1,3.3-0.6,6.6,1.1,9.6
		c1.3,2.2,3.7,3.6,6.2,3.6c1.3,0,2.5-0.3,3.6-1c1.1-0.6,1.9-1.5,2.6-2.6c1.5-2,1.6-4.9,1.7-7.3c0.1-1.7,0.1-3.4,0.1-5.1
		c0.1-3.5,0.2-7,0.3-10.6c0.3-8.1,0.6-16.2,0.9-24.2c0.5-15.7,1.2-31.4,1.4-47.2c0.2-15.6,0.3-31.2,0.6-46.8
		c0.3-16.4,0.7-32.8,1.2-49.2c0.4-15.8,0.8-31.7,0.9-47.5c0.1-15.7,0.2-31.5-0.4-47.2c-0.5-12.2-1-24.4-1.6-36.6
		c-0.2-4.8-0.5-9.5-0.5-14.3c0-7.7-0.1-15.3,0.2-22.9c0.2-3.8-3.3-7-7-7C1286.8,1406.7,1283.9,1409.9,1283.8,1413.7L1283.8,1413.7
		L1283.8,1413.7z"/>
	<path style="fill:#161616;" d="M698.1,1743c-1.7,0.5-3.3,1.7-4.2,3.2c-1,1.7-1.1,3.5-0.7,5.4c0.4,2,0.7,4,1,5.9
		c0.2,2.3,0.4,4.6,1,6.8c0.8,2.9,3.5,5,6.5,5c1.2,0,2.3-0.3,3.4-0.9c1.4-0.8,2.9-2.4,3.1-4c0.2-1.6,0.5-3.1,0.3-4.7
		c-0.1-1.5-0.4-3-0.6-4.5c-0.4-2.4-0.8-4.9-1.3-7.3c-0.6-3.1-3.8-5.1-6.9-5.1C699.2,1742.8,698.6,1742.9,698.1,1743L698.1,1743
		L698.1,1743z"/>
	<path style="fill:#161616;" d="M839.1,243.8c-4.1,0-7.5,3.4-7.5,7.5c0,60.1,0,120.1,0,180.2c0,60.1-0.1,120.3-0.1,180.4
		c0,21.7,0,43.3,0,65c0,4.1,3.4,7.6,7.6,7.6c60.2,0,120.5,0,180.7,0c60,0,120,0,180,0c21.6,0,43.2,0,64.8,0c4.2,0,7.6-3.5,7.6-7.6
		c0-60.1,0-120.3,0-180.4c0-8.9,0-17.9,0-26.8c0-7-0.1-14-0.5-21c0-44.2,0.1-88.5,0.1-132.7c0-21.6,0-43.1,0-64.7
		c0-4-3.3-7.3-7.3-7.3c-60,0-120.1,0-180.1,0c-60.1,0-120.3,0-180.5-0.1C882.4,243.8,860.7,243.8,839.1,243.8L839.1,243.8
		L839.1,243.8z M1019.6,258.7c60.2,0,120.3-0.1,180.5-0.1c19.1,0,38.1,0,57.2,0c0,57.6,0.1,115.2,0.1,172.9c0,5.8,0,11.6,0,17.4
		c-0.1,1.4-0.1,2.7-0.2,4.1c-0.1,3.8-0.3,7.6-0.3,11.4c0,7.4,0,14.8,0,22.1c0,15.1,0,30.1,0,45.2c0,30,0,60.1,0,90.1
		c0,15.8,0,31.6,0,47.5c-57.5,0-115,0-172.5,0c-60.1,0-120.2,0-180.3,0c-19.2,0-38.4,0-57.6,0c0-57.6,0-115.1,0-172.7
		c0-60.1-0.1-120.3-0.1-180.4c0-19.2,0-38.3,0-57.5C904.2,258.8,961.9,258.8,1019.6,258.7L1019.6,258.7L1019.6,258.7z"/>
	<path style="fill:#161616;" d="M999.1,282.6c-4.2,0-7.6,3.5-7.6,7.6c0,36.1,0,72.1,0,108.2c0,8.4,0,16.8,0,25.2
		c3.3-1.6,6.5-3.4,9.5-5.5c1.8-1.5,3.4-3.1,5-4.8c0.2-2.1,0.5-4.3,0.8-6.4c0-36.3,0-72.6,0-109c24.5,0,49,0,73.5,0
		c0,23.2,0,46.3,0,69.5c0,2.8,0,5.6,0,8.3c0,0.2,0,0.3,0,0.5c0,7.8,0,15.6,0,23.5c0.1,0.3,0.2,0.6,0.3,0.8c0.8,3.6,1.4,7.2,1.7,10.9
		c0.1,1.5,0.3,3,0.4,4.6c0.1,1.2,0.2,2.4,0.2,3.7c0,0.7,0.1,1.5,0.2,2.2c0.1,0.1,0.1,0.1,0.2,0.2c0.7,0.1,1.3,0.2,2,0.3
		c1.9,0.2,3.8,0.4,5.7,0.6c1.3,0,2.5,0.1,3.8,0.2c0.3,0,0.5,0,0.8,0c0-4.9,0-9.9,0-14.8c0-10.7,0-21.4,0-32.1c0-0.1,0-0.3,0-0.4
		c0-2.8,0-5.5,0-8.3c0-25.7,0-51.4,0-77.1c0-4.2-3.5-7.6-7.6-7.6C1058.4,282.6,1028.8,282.6,999.1,282.6L999.1,282.6L999.1,282.6z"
		/>
	<path style="fill:#161616;" d="M1093.7,494.8c-2.6,1.3-5,2.7-7.3,4.4c-2.2,1.7-4.1,3.7-6,5.7c0,25.3,0,50.7,0,76c0,12,0,24,0,36
		c-24.6,0-49.1,0-73.7,0c0-33.6,0-67.2-0.1-100.8c-0.3-1.3-0.5-2.6-0.6-3.9c-0.2-1.5-0.4-3-0.4-4.5c0-0.4,0-0.9-0.1-1.3
		c-0.7-2.8-1.5-5.5-2.5-8.2c-0.3-0.6-0.7-1.3-1-1.9c-3.4-0.1-6.8,0-10.2-0.3c0,3.3,0,6.5,0,9.8c0,39.6-0.1,79.1-0.1,118.7
		c0,4.1,3.4,7.6,7.5,7.6c29.6,0,59.2,0,88.8,0c4.1,0,7.6-3.4,7.6-7.6c0-43.3,0-86.6,0-129.9C1094.9,494.6,1094.3,494.7,1093.7,494.8
		L1093.7,494.8L1093.7,494.8z"/>
	<path style="fill:#161616;" d="M1081.8,406.7c0.2,1.5,0.4,3.1,0.5,4.6c0.1,1.5,0.3,3,0.4,4.6c0.1,1.2,0.2,2.4,0.2,3.7
		c0,0.7,0.1,1.5,0.2,2.3c0.1,0,0.1,0.1,0.2,0.2c0.3,0,0.6,0.1,0.9,0.1c5.7,0,11.3,0,17,0c36.6,0,73.2,0,109.8,0
		c0,24.5,0,48.9,0,73.4c-39.5,0-79.1,0-118.6,0c-2.1,1.1-4.1,2.3-6,3.7c-3.1,2.6-5.9,5.5-8.5,8.6c0,0.5,0,1,0,1.5c0,0.5,0,1,0,1.6
		c27.6,0,55.2,0,82.8,0c1.2,0,2.4,0,3.6,0c18.1,0,36.2,0,54.3,0c4.2,0,7.7-3.5,7.7-7.7c0-29.6,0-59.2,0-88.8c0-4.2-3.5-7.7-7.7-7.7
		C1173.1,406.7,1127.5,406.7,1081.8,406.7L1081.8,406.7L1081.8,406.7z"/>
	<path style="fill:#161616;" d="M938.6,406.7c-18,0-36.1,0-54.1,0c-4.2,0-7.7,3.5-7.7,7.7c0,29.6,0,59.2,0,88.8
		c0,4.2,3.5,7.7,7.7,7.7c40.4,0,80.9,0,121.3,0c-0.1-1.1-0.2-2.1-0.3-3.2c0-0.5,0-0.9-0.1-1.3c-0.7-2.8-1.5-5.5-2.5-8.2
		c-0.3-0.7-0.7-1.3-1-1.9c-3.7,0-7.3,0-11-0.4c-0.7-0.1-1.4-0.2-2-0.4c-16.6,0-33.1,0-49.7,0c-15.7,0-31.3,0-47,0
		c0-24.5,0-49,0-73.4c34.1,0,68.2,0,102.3,0c2.2-1.2,4.4-2.5,6.5-4c1.8-1.5,3.4-3.1,5-4.8c0.3-2.2,0.5-4.4,0.9-6.6
		C984.1,406.7,961.4,406.7,938.6,406.7L938.6,406.7L938.6,406.7z"/>
	<path style="fill:#161616;" d="M1020.6,422.1c11.1,0,22.3,0,33.4,0l-33.8-0.2C1020.3,421.9,1020.4,422,1020.6,422.1L1020.6,422.1
		L1020.6,422.1z"/>
	<path style="fill:#161616;" d="M1544.2,468.8c-3.7,0.2-7.4,0.4-11.1,0.7c-1.6,0.1-3.3,0.4-4.9,0.6c-4.1,0.5-8.3,1.2-12.2,2.5
		c-2,0.6-4,1.3-5.9,1.9c-3.9,1.3-7.8,2.8-11.6,4.5c-9.3,4-17.9,9.2-25.8,15.5c-7.5,6-14.3,13.6-18.7,22.1c-2.2,4.2-4,8.7-5.2,13.3
		c-1.3,5-1.5,10.1-1.1,15.3c0.8,10,4.3,19.5,9.5,28c3.2,5.2,7.3,9.8,11.2,14.4c2.1,2.5,4.2,4.9,6.4,7.2c2.5,2.6,4.8,5.3,7.4,7.9
		c1.5,1.5,3,3,4.6,4.5c1.2,1.1,2.3,2.4,3.5,3.5c2.9,2.5,5.8,5,8.7,7.5c1.4,1.2,3,2.2,4.4,3.3c2,1.5,4.1,3,6.1,4.5
		c2.8,2.1,5.9,3.8,8.9,5.7c2.9,1.8,5.8,3.4,8.8,5c2.8,1.5,5.6,3,8.4,4.4c3.1,1.5,6.1,3.1,9.2,4.5c3.8,1.7,7.6,3.5,11.5,5.2
		c7,3.2,14.3,5.9,21.5,8.6c22.5,8.5,45.9,14.7,68.3,23.5c3.1,1.4,6.1,2.9,9,4.9c1.2,1.1,2.3,2.2,3.4,3.5c2.2,2.9,4.2,5.9,5.8,9.3
		c0.5,1.5,1,3,1.3,4.6c0.2,2.6,0.1,5.1-0.2,7.7c-0.7,4.2-1.7,8.3-3.3,12.3c-0.8,1.8-1.7,3.4-2.8,5c-0.8,1-1.7,1.9-2.7,2.7
		c-0.7,0.5-1.5,0.9-2.2,1.3c-0.8,0.3-1.7,0.5-2.5,0.7c-0.2,0-0.4,0-0.6,0c-0.4-0.1-0.7-0.1-1.1-0.2c-1.4-0.4-2.7-0.4-4.1,0
		c-0.8,0.2-1.6,0.5-2.3,0.9c-3.3,1.9-4.2,5.5-3.9,9c0.2,2,0.2,4.1,0.2,6.1c0.1,4-0.2,8-0.6,12c-0.3,1.8-0.5,3.6-0.9,5.4
		c-0.3,1.3-0.6,2.7-0.9,4c-0.3,1.5-0.9,3-1.4,4.5c-1.4,4.5-3.3,8.9-5.1,13.3c-1.2,2.7-2.3,5.4-3.7,7.9c-1.7,3.4-3.6,6.8-5.4,10.1
		c-1.8,3.2-3.7,6.2-5.7,9.3c-1.6,2.5-3.4,4.9-5.2,7.3c-5.1,6.3-10.8,12-17.1,17.1c-2.9,2.2-5.9,4.4-8.9,6.4
		c-2.2,1.4-4.5,2.9-6.7,4.3c-4,2.6-8.4,4.7-12.8,6.6c-9.7,3.9-19.9,7-30.2,9.3c-5.3,1.2-10.6,2.4-16,3.4c-4.2,0.8-8.5,1.4-12.8,2
		c-8.9,0.9-17.9,0.9-26.8-0.1c-7.6-1.1-15.1-2.8-22.2-5.7c-6.5-2.9-12.7-6.4-18.8-10.1c-3.1-1.9-6-4-9-6c-3-2.4-6-4.9-8.9-7.4
		c-1.3-1.2-2.7-2.3-3.9-3.6c-1.6-1.6-3.4-3.1-4.9-4.8c-3.1-3.3-6.1-6.7-9.1-10.1c-2.2-2.6-4.3-5.3-6.4-7.9c-1.6-2.2-3.1-4.5-4.7-6.7
		c-1.4-2-2.6-4-3.9-6.1c-3.4-5.5-6.4-11.3-9-17.2c-2.9-7.3-5-14.9-6.2-22.7c-0.6-4.8-0.8-9.6-1.2-14.4c-0.4-4.4-1-9.4-3.6-13.2
		c-0.7-1-1.4-1.9-2.4-2.7c-1.3-1.1-2.5-1.7-4-2.3c-1.9-0.8-3.7-1.9-5.3-3c-1.1-1-2.2-2-3.1-3.1c-0.5-0.8-1-1.6-1.5-2.5
		c-0.3-0.9-0.5-1.7-0.7-2.6c-0.1-0.7-0.1-1.4-0.1-2.2c0.2-0.9,0.5-1.8,0.8-2.6c0.6-1.2,1.2-2.3,1.9-3.4c0.6-0.6,1.2-1.2,1.8-1.7
		c1.5-1,3.1-1.8,4.7-2.5c5.5-2.3,11-4.5,16.1-7.7c5.6-3.5,10.8-7.8,15-12.9c4.5-5.5,7.9-11.7,10.8-18.2c4.2-9.1,7.3-18.7,9.9-28.4
		c1.8-6.7,3.6-13.4,5.2-20.2c0.8-3.2-1-6.5-4.2-7.4c-3.1-0.8-6.6,1-7.4,4.2c-1.5,6.2-3.1,12.3-4.8,18.4c-2.1,7.8-4.5,15.5-7.6,22.9
		c0.2-0.5,0.4-1,0.6-1.5c-2.9,6.9-6.4,13.5-10.8,19.5c-2.2,2.7-4.7,5.2-7.4,7.4c-3.6,2.7-7.5,5-11.6,6.9c-2.2,0.9-4.3,1.8-6.5,2.6
		c-2.1,0.8-4.2,1.6-6.3,2.5c-1.6,0.8-3.1,1.6-4.5,2.7c-1.1,0.9-2.2,1.7-3.2,2.8c-0.9,0.9-1.7,2-2.4,3.1c-1,1.4-1.8,2.9-2.5,4.5
		c-0.9,2-1.7,4-2.1,6.1c-0.9,4.7,0,9.8,1.9,14.1c1.8,4,4.7,7.5,8,10.3c1.5,1.2,3.1,2.4,4.8,3.4c1.4,0.8,2.9,1.4,4.3,2.1
		c0.4,1.3,0.7,2.6,0.9,3.9c0.4,3.5,0.6,6.9,0.8,10.4c0.7,10.1,2.9,20,6.4,29.6c2.4,6.4,5.5,12.4,8.7,18.4c1.6,3.1,3.6,6,5.4,8.9
		c0.8,1.3,1.8,2.6,2.7,3.9c1.4,2,2.7,4,4.2,5.9c2,2.6,4,5.3,6.1,7.8c2.3,2.7,4.6,5.5,7,8.1c2.7,2.9,5.5,5.7,8.3,8.4
		c2.5,2.4,5.2,4.7,7.8,7c1.2,1.1,2.5,2,3.8,3c1.6,1.3,3.2,2.6,4.9,3.8c1.8,1.3,3.6,2.5,5.3,3.8c1.2,0.8,2.4,1.5,3.7,2.3
		c5.5,3.3,11,6.5,16.8,9.2c9.8,4.5,20.1,7,30.7,8.3c9.9,1.2,20,1.3,29.9-0.1c7.1-1,14.2-1.9,21.2-3.5c17.8-4,35.7-8.4,51.8-17.2
		c4.3-2.3,8.4-5.1,12.5-7.8c2.9-1.8,5.5-4,8.2-6c8.1-6,15.5-13.4,21.5-21.5c2-2.7,4-5.4,5.8-8.2c2-3.1,3.9-6.2,5.8-9.5
		c1.9-3.4,3.7-6.9,5.5-10.3c1.6-3.1,3.1-6.5,4.4-9.7c1.4-3.3,2.7-6.6,4-10c1.1-3,2.3-6.1,3-9.2c0.4-1.8,0.8-3.6,1.2-5.4
		c0.4-1.8,0.5-3.7,0.8-5.5c0.6-3.8,0.8-7.6,0.9-11.5c0-1.3,0-2.5,0-3.8c1.4-0.3,2.7-0.7,4-1.2c5.3-2,9.7-5.8,12.9-10.3
		c2.8-4,4.6-8.5,6.1-13.2c1.6-5.1,2.5-10.7,2.7-16.1s-0.9-10.7-3.1-15.7c-1.4-3-3.1-5.8-5-8.5c-1.3-1.9-2.8-3.8-4.4-5.6
		c-2.7-3.1-6.1-5.4-9.6-7.4c-6.5-3.6-13.7-6-20.6-8.5c-6.7-2.4-13.5-4.6-20.2-6.8c-9-2.9-18.1-5.9-27.1-9.1c-5-1.8-9.9-3.6-14.8-5.4
		c-4.2-1.6-8.4-3.3-12.6-5.1c-9.3-4.2-18.7-8.4-27.7-13.4c-2.6-1.4-5.2-2.9-7.8-4.3c-2.5-1.3-4.8-3-7.1-4.5
		c-4.1-2.6-7.9-5.5-11.8-8.3c-1.5-1.3-3-2.6-4.6-3.9c-1.3-1.1-2.7-2.2-4-3.4c-3.2-3.1-6.5-6.1-9.6-9.3c-3.3-3.4-6.6-6.8-9.9-10.3
		c-3.5-3.7-7-7.5-10.2-11.4c-2.8-3.8-5.1-7.8-7-12.1c-1.5-3.8-2.6-7.7-3.2-11.7c-0.3-3-0.5-6-0.3-9.1c0.6-3.9,1.8-7.7,3.3-11.4
		c1.6-3.7,3.7-7.1,6.1-10.4c3.9-4.9,8.4-9.2,13.3-13.1c6.9-5.2,14.5-9.4,22.4-12.8c3.5-1.4,7-2.7,10.6-3.9c4.2-1.4,8.5-2.5,12.9-3.2
		c5.1-0.6,10.3-1.2,15.4-1.2c5.9,0,11.8,0.4,17.6,1c6.1,1,12.2,2.1,18.2,3.7c3.5,0.9,6.9,1.8,10.3,2.9c3,0.9,5.9,2.1,8.9,3.2
		c2.3,1,4.5,2,6.8,3c2.7,1.3,5.3,2.8,7.8,4.4c4.9,3,9.5,6.4,14.2,9.8c2.4,1.9,4.8,3.8,7.1,5.9c1.7,1.5,3.4,3,5,4.6
		c3.2,3.1,6.2,6.5,9,10c8.7,11.4,17.2,22.9,25.2,34.9c8,12,14.6,24.8,20.9,37.8c1.2,2.6,2.3,5.2,3.5,7.8c1.6,4.1,3.3,8.3,4.8,12.5
		c1.1,3.1,2.1,6.1,3.2,9.2c0.8,2.2,1.3,4.5,2,6.7c0.6,2.1,1.3,4.2,1.8,6.3c0.8,3.3,1.6,6.6,2.3,9.9c1.1,4.6,1.8,9.3,2.6,13.9
		c0.4,3.7,1,7.3,1.2,11c0.8,10.7,0.4,21.7-0.9,32.4c-2.4,16.2-7.5,31.9-12.1,47.6c-1,3.6-2.2,7.1-3.1,10.7c-1,3.7-2.1,7.3-3,11
		c-0.8,3.7-1.6,7.4-2.5,11c-0.3,1.5-0.5,3.1-0.8,4.7c-0.4,2.4-0.8,4.9-1.1,7.3c-1.2,9.3-1.4,18.6-0.7,27.9c0.3,4.6,0.6,9.3,1.5,13.8
		c0.6,3.1,1.9,6.2,3.2,9c0.9,1.9,1.8,3.8,2.9,5.7c2.2,3.8,5.1,7.1,7.8,10.6c1.7,2.2,3.6,4.3,5.5,6.4c3.4,3.8,6.8,7.6,10,11.5
		c1.2,1.6,2.4,3.3,3.6,5c2.9,4.1,5.4,8.6,7.4,13.2c2.5,6.1,4.4,12.4,5.6,18.8c0.5,2.6,0.9,5.3,1.3,7.9c0.3,3.1,0.5,6.2,0.6,9.3
		c0.1,3.1-0.1,6.2-0.5,9.3c-0.2,1.5-0.4,3.1-0.8,4.6c-0.4,1.6-0.9,3.2-1.5,4.8c-1.5,3.2-3.5,6.1-5.6,9c-4.7,5.9-9.9,11.3-15.8,16
		c-2.3,1.7-4.6,3.4-6.9,5c-2.6,1.8-5.2,3.6-7.9,5.3c-3.5,2.1-4.7,6.6-2.7,10.2c1,1.7,2.6,2.9,4.5,3.4c2,0.6,3.9,0.1,5.7-0.8
		c1.5-0.7,3-1.4,4.4-2.3c1.5-0.9,2.9-1.9,4.3-2.9c3.2-2.3,6.4-4.6,9.5-7.1c5.1-4,9.5-8.6,13.7-13.5c2.4-2.8,4.7-5.7,6.7-8.8
		c0.9-1.4,1.7-2.7,2.5-4.1c1.1-2,1.9-4.1,2.7-6.2c1.1-3.1,1.7-6.3,2.2-9.5c0.7-4,0.9-8.1,0.9-12.2c0-6.5-0.9-13-2-19.4
		c-2.4-13.6-7.1-27-15.1-38.3c-4-5.6-8.3-10.8-12.8-15.9c-2-2.2-4-4.4-5.9-6.7c-1.9-2.2-3.6-4.4-5.4-6.7c-2.2-3-4-6.2-5.6-9.6
		c-0.9-2.3-1.6-4.6-2-7c-0.5-4-0.7-8.1-0.8-12.1c-0.1-2.3-0.2-4.5-0.2-6.8c0-5.3,0.3-10.5,0.9-15.7c0.5-3.2,0.9-6.4,1.6-9.6
		c0.8-3.6,1.6-7.3,2.4-11c0.8-3.8,2-7.5,3-11.2c1-3.6,2.1-7.2,3.1-10.9c4.8-16.5,10.1-32.9,12.3-50c1.3-10.3,1.7-20.8,1.1-31.2
		c-0.3-4.7-0.9-9.3-1.5-13.9c-0.9-7.4-2.5-14.8-4.3-22c-1.6-6.5-3.4-13.1-5.6-19.4c-1.2-3.4-2.3-6.8-3.7-10.2
		c-1.5-3.6-2.9-7.3-4.4-10.9c-1.4-3.5-3-7-4.8-10.3c-1.6-3.1-3.2-6.3-4.8-9.4c-3.4-6.4-6.9-12.8-10.8-18.9
		c-3.9-6.1-7.9-12-12.2-17.8c-4.5-6.1-9-12.3-13.7-18.2c-2.5-3.2-5-6.4-7.5-9.5c-4.3-5.5-9.4-10.3-14.7-14.8
		c-5.6-4.8-11.6-9.2-17.8-13.3c-3.2-2.1-6.4-4.1-9.7-6c-3-1.8-6.3-3.1-9.5-4.4c-6.5-2.7-13.2-5.2-20-6.8c-7-1.7-14-3.2-21.1-4.3
		c-3.8-0.6-7.6-0.9-11.5-1.2c-2.5-0.2-5-0.3-7.5-0.3C1546,468.7,1545.1,468.7,1544.2,468.8L1544.2,468.8L1544.2,468.8z
		 M1598.6,490.1c0.2,0.1,0.5,0.2,0.7,0.3C1599.1,490.3,1598.9,490.2,1598.6,490.1L1598.6,490.1L1598.6,490.1z M1365.5,691.7
		c-0.3,0.1-0.7,0.3-1,0.4C1364.8,692,1365.1,691.9,1365.5,691.7L1365.5,691.7L1365.5,691.7z M1360.1,709.2c-0.6,0.2-1.1,0.5-1.7,0.7
		C1359,709.7,1359.6,709.5,1360.1,709.2L1360.1,709.2L1360.1,709.2z M1356.4,710.9c-0.1,0.1-0.2,0.1-0.3,0.2
		C1356.3,711,1356.3,711,1356.4,710.9L1356.4,710.9L1356.4,710.9z M1354.8,745.5c0.1,0.1,0.1,0.1,0.2,0.2
		C1354.9,745.6,1354.9,745.5,1354.8,745.5L1354.8,745.5L1354.8,745.5z M1639.7,761.1c0,0.2-0.1,0.4-0.1,0.5
		C1639.6,761.4,1639.7,761.3,1639.7,761.1L1639.7,761.1L1639.7,761.1z M1710.2,844.8c0.1,0.3,0.2,0.5,0.3,0.8
		C1710.4,845.3,1710.3,845.1,1710.2,844.8L1710.2,844.8L1710.2,844.8z M1715.2,854.3c0.2,0.3,0.5,0.6,0.7,0.9
		C1715.7,854.9,1715.5,854.6,1715.2,854.3L1715.2,854.3L1715.2,854.3z"/>
	<path style="fill:#161616;" d="M1438.6,506.6c-3.1,0.4-6.1,1.2-9.2,2c-1.4,0.3-2.8,0.8-4.1,1.4c-2,0.8-4,1.5-5.9,2.5
		c-3.4,1.7-6.8,3.6-10.1,5.6c-3.9,2.5-7.6,5.4-11,8.5c-3.6,3.3-6.7,7-9.6,10.8c-3.4,4.6-6.3,9.6-8.7,14.8c-4,8.7-6.1,18-6.1,27.6
		c0,4.6,0.6,9.2,1.4,13.7c0.9,4.7,2.7,9.3,5.2,13.4c1.2,1.9,2.6,3.6,4,5.3c1.5,1.7,3.4,3.1,5.2,4.5c1.8,1.3,4,2.2,6.1,2.9
		c1.1,0.4,2.4,0.5,3.5,0.6c1.3,0.2,2.6,0.2,3.9,0c5.2-0.5,9.9-2.9,14.3-5.5c3-1.8,6-3.7,8.9-5.8c2.9-2.1,5.6-4.4,8.3-6.7
		c2.5-2.2,4.7-4.7,6.9-7.1c4.2-4.6,8.1-9.5,12.2-14.2c3-3.5,6.1-7,9.2-10.4c2.1-2.4,2.3-5.9,0-8.2c-2.2-2.1-6.1-2.4-8.2,0
		c-5.6,6.3-11.1,12.6-16.6,19c-2.3,2.7-4.7,5.4-7.2,8c-2.3,2.4-4.8,4.6-7.4,6.7c-5.3,3.9-10.9,7.2-16.9,10c-1.1,0.4-2.2,0.8-3.4,1
		c-0.8,0.1-1.6,0.1-2.4,0c-0.6-0.1-1.1-0.3-1.7-0.5c-1-0.5-1.9-1-2.8-1.7c-1-0.9-1.9-1.9-2.8-2.9c-1.3-1.8-2.4-3.7-3.4-5.7
		c-1.2-3.2-2-6.5-2.5-9.9c-0.5-4.7-0.6-9.3-0.1-14c0.7-4.7,2-9.3,3.8-13.7c2.4-5.5,5.5-10.7,9.1-15.6c3.5-4.4,7.6-8.3,12-11.8
		c2.8-2.1,5.8-3.9,8.9-5.6c1.6-1,3.3-1.9,5.1-2.7c0.1-0.1,0.3-0.1,0.4-0.2c-0.1,0-0.2,0.1-0.2,0.1c0.8-0.3,1.6-0.7,2.4-1
		c2.7-0.9,5.4-1.8,8.2-2.5c2.3-0.5,4.7-1,7.1-1.4c1.6-0.1,3.1-0.1,4.6,0c0.6,0.1,1.3,0.2,1.9,0.4c1.3,0.3,2.7,0.5,4,0.9
		c2.3,0.9,5.1-0.5,6.2-2.5c1.3-2.2,0.9-4.9-0.9-6.7c-3.1-3.2-7.6-3.8-11.8-4.3c-0.7-0.1-1.5-0.1-2.2-0.1
		C1443.6,505.9,1441.1,506.3,1438.6,506.6L1438.6,506.6L1438.6,506.6z"/>
	<path style="fill:#161616;" d="M1429.4,678.1c-1.5,0.9-2.6,2-3.4,3.5c-1,1.8-1.5,3.8-1.8,5.8c-0.3,1.6-0.4,3.2-0.4,4.8
		c0,0.9,0.2,1.9,0.5,2.8c0.4,1.3,1.2,2.3,2,3.3c0.5,0.6,1.9,1.5,2.7,1.6c0.2,0,0.4,0.1,0.6,0.1c0.9,0.2,1.7,0.2,2.6,0
		c1.4-0.2,2.7-1,3.7-2c0.3-0.2,0.5-0.5,0.7-0.7c0.5-0.5,0.9-1.2,1.1-1.9c0.6-1.2,1-2.5,1.3-3.8c0.5-2,0.5-3.9,0-6
		c-0.1-0.5-0.3-0.9-0.5-1.3c0-0.3-0.1-0.7-0.2-1c-0.1-0.7-0.2-1.4-0.5-2.1c-0.4-1-0.8-1.7-1.7-2.5c-1.1-1-2.5-1.5-4-1.5
		C1431.2,677.4,1430.3,677.6,1429.4,678.1L1429.4,678.1L1429.4,678.1z"/>
	<path style="fill:#161616;" d="M1488.2,751.2c-3.8,3.9-7.6,7.9-11.8,11.3c-3.2,2.4-6.6,4.3-10.3,6c-4,1.6-8,2.7-12.3,3.4
		c-3.3,0.3-6.6,0.3-9.9-0.1c-3-0.5-5.8-1.2-8.7-2c-1.3-0.4-2.6-0.8-3.9-1.1c-0.8-0.2-1.6-0.4-2.4-0.6c-1.2-0.3-2.4-0.4-3.6-0.5
		c-1.7-0.1-4.3,0.9-5.4,2.1c-0.9,1.2-1.8,2.2-2.3,3.7c-0.4,1.2-0.6,2.4-0.7,3.6c-0.2,2.3,0.2,4.5,0.5,6.7c0.7,4.5,2.3,8.9,4,13
		c2.2,5.3,5,10.5,8.4,15.1c3.1,4.2,6.3,8.2,10.1,11.6c1.7,1.6,3.6,3,5.6,4.2c1.9,1.2,4,2.1,6,2.8c2.2,0.8,4.7,0.9,7,1
		c2.8,0.1,5.8-0.6,8.5-1.5c9.2-3.1,15.7-10.9,20.5-19c3.1-5.3,5-11.1,6.8-16.9c1.7-5.2,2.9-10.8,3.4-16.3c0.3-2.7,0.5-5.3,0.7-8
		c0.2-2.7,0.3-5.4,0.2-8.1c-0.1-1.1-0.4-2.2-1-3.1c1.4-2.4,1.2-5.5-0.9-7.6c-1.2-1.2-2.8-1.8-4.4-1.8
		C1490.9,749.4,1489.3,750,1488.2,751.2L1488.2,751.2L1488.2,751.2z M1460.8,783.6c5-1.2,9.9-3.2,14.5-5.6c4.1-2.1,7.7-4.8,11.1-7.8
		c-0.2,2.4-0.4,4.7-0.6,7.1c-0.5,3.3-1.2,6.5-2.1,9.6c-1.2,4.1-2.4,8.1-4,12.1c-1.7,3.8-3.8,7.3-6.2,10.6c-1.5,1.9-3.2,3.6-5,5.2
		c-1.4,1-2.8,1.8-4.3,2.6c-1.3,0.4-2.5,0.8-3.8,1c-1,0.1-2,0.1-3,0c-0.8-0.2-1.5-0.4-2.3-0.6c-1.6-0.8-3-1.7-4.4-2.7
		c-3-2.5-5.6-5.4-8.2-8.3c0.3,0.5,0.7,0.9,1,1.3c-1-1.3-2.1-2.7-3.1-4c0.1,0.2,0.3,0.3,0.4,0.5c-0.9-1.3-1.8-2.6-2.7-3.9
		c-1.9-2.9-3.5-5.9-4.9-9.1c-1.2-3-2.2-6.1-2.9-9.3c1.1,0.3,2.3,0.6,3.4,1c4.4,1.2,9.2,1.8,13.8,2c0.4,0,0.8,0,1.2,0
		C1452.8,785.2,1456.9,784.5,1460.8,783.6L1460.8,783.6L1460.8,783.6z"/>
	<path style="fill:#161616;" d="M1586.6,853.3c-1.5,0.9-2.7,2.4-3.1,4.1c-0.5,1.9-0.1,3.5,0.7,5.3c4.5,10.4,9.6,20.5,15.3,30.2
		c2.6,4.3,5.2,8.6,8.2,12.6c1.8,2.4,3.6,4.8,5.4,7.1c0.9,1.2,1.8,2.3,2.7,3.5c-2.9,3.3-6,6.4-9,9.7c-2.6,2.8-5.2,5.6-7.6,8.5
		c-5.1,6.1-10.1,12.3-15.1,18.6c-5.5,6.9-11.1,13.8-16.4,20.9c-2.6,3.5-5.3,7.1-8,10.6c-2.3,3.1-4.4,6.3-6.5,9.4
		c-4.1,5.9-8,12.1-11.6,18.3c-3.9,6.8-8,13.6-11.4,20.7c-1.9,4.1-3.9,8.1-5.6,12.3c-1.6,3.8-3.1,7.6-4.4,11.5
		c-2.6,7.8-4.8,15.8-7,23.7c-4,14.9-8.2,29.8-12.2,44.7c-2.1,7.6-3.7,15.4-5.2,23.2c-1.5,7.8-2.9,15.7-4.1,23.5
		c-0.9,5.7-1.6,11.4-2.2,17.2c-0.3,2.7-0.5,5.4-0.7,8.1c-0.1,1.3-0.1,2.6-0.1,3.9c0,0.7,0,1.4,0,2.1c0.1,1,0.3,1.9,0.4,2.9
		c0.2,1.4,1.4,2.7,2.3,3.6c0.9,0.9,1.9,1.5,3.1,1.8c1.7,0.5,4,0.4,5.5-0.7c1.1-0.8,2.2-1.6,3-2.6c0.8-1.1,1.5-2,2.1-3.2
		c1.2-2.2,2.2-4.5,3.1-6.8c0.9-2.3,1.7-4.5,2.6-6.8c1.4-3.6,2.6-7.2,3.9-10.7c2.7-7.5,5.1-15.1,7.5-22.6c2.5-7.7,5-15.5,7.4-23.3
		c2.3-7.2,4.7-14.4,7.2-21.5c1-2.9,2.3-5.8,3.5-8.7c1-2.2,2-4.4,3-6.6c2.5-5.7,6-11,9.7-16c2.7-3.5,5.6-6.9,8.8-9.9
		c1.7-1.6,3.3-3.1,5-4.7c2.6-2.4,5.3-4.5,8-6.8c4.3-3.2,8.5-6.4,12.8-9.5c2.2-1.6,4.4-3.3,6.6-5c2.4-1.8,4.9-3.7,7.2-5.7
		c2.2-1.9,4.3-3.8,6.3-5.9c2-2,3.8-4.3,5.5-6.6c1.1-1.5,2-3.3,2.6-5.1c0.7-2,1-4.1,1.2-6.2c0.2-1.4,0-2.9-0.2-4.4
		c-0.3-2.4-0.8-4.7-1.6-7c-0.8-2.1-1.7-4.1-2.8-6c-0.3-0.7-0.7-1.3-1.1-2c2.9-1.5,6-2.8,8.9-4.2c3-1.5,6-2.9,8.9-4.5
		c3.1-1.7,6.2-3.4,9.3-5.2c3.8-2.2,7.4-4.8,10.9-7.5c3.3-2.6,6.3-5.5,8.9-8.8c1.4-1.7,2.6-3.5,3.8-5.4c1.4-2.3,2.5-4.8,3.4-7.3
		c1.7-4.4,1.5-9.1,0.6-13.6c-0.5-2.4-1.6-4.7-2.6-6.8c-1.2-2.5-3-4.7-4.8-6.8c-2.8-3.3-6.4-6-9.9-8.5c-1.5-1.1-3.1-2.1-4.7-3.1
		c-3-1.9-6.1-3.8-9.3-5.3c-2-0.9-3.8-1.4-5.9-0.8c-0.1,0-0.2,0-0.2,0.1c-0.6-0.7-1.3-1.5-1.8-2.2c-0.7-0.8-1.3-1.6-2-2.4
		c-2-2.5-4-5-6-7.6c-2-2.8-4-5.6-5.8-8.5c-1.9-3.1-3.8-6.2-5.5-9.4c-1.8-3.3-3.8-6.6-5.4-10.1c-2.1-4.5-4.3-8.9-6.2-13.5
		c-0.7-1.5-2.5-2.7-4.1-3.1c-0.6-0.2-1.2-0.2-1.8-0.2C1588.8,852.4,1587.6,852.7,1586.6,853.3L1586.6,853.3L1586.6,853.3z
		 M1617.8,895.9c0.1,0.2,0.2,0.3,0.4,0.5C1618.1,896.2,1618,896,1617.8,895.9L1617.8,895.9L1617.8,895.9z M1609.7,945
		c2.4-2.9,5-5.6,7.5-8.4c3.3-3.7,6.8-7.1,9.9-11c0.4-0.6,0.9-1.1,1.3-1.6c4.9,2.6,9.7,5.5,14.1,8.8c2.2,1.8,4.2,3.7,6,5.8
		c0.8,1.1,1.4,2.3,2,3.5c0.4,1,0.7,2.1,0.9,3.2c0,0.8,0,1.5,0,2.2c-0.2,1-0.5,2-0.9,2.9c-1.1,2.2-2.3,4.3-3.8,6.4
		c-2.4,2.9-5.2,5.5-8.2,7.9c-7.9,5.8-16.6,10.2-25.4,14.5c-2.1,1-4.2,2-6.3,3c-5,2.4-10.5,5.2-12.2,10.9c-1.2,4.1,1.3,7.7,3.2,11.1
		c1,1.8,1.9,3.6,2.8,5.4c0.4,1.2,0.8,2.4,1,3.7c0.1,1,0.1,2,0,3c-0.1,0.5-0.2,0.9-0.4,1.4c-0.5,1-1.2,2-1.8,2.9
		c-4.1,4.8-8.9,8.8-13.8,12.8c-6.2,4.7-12.5,9.4-18.7,14.1c-8,6-15.4,12.7-22,20.3c-6.2,7.2-11.5,15.4-15.4,24.1
		c-1.9,4.3-3.7,8.6-5.4,12.9c-3,7.6-5.4,15.3-7.8,23.1c-0.8,2.5-1.6,5-2.3,7.5c3.8-15.2,8.2-30.2,12.2-45.3c2-7.4,4-14.7,6.1-22
		c1.9-6.6,4.4-12.9,6.9-19.2c1.5-3.1,2.9-6.2,4.4-9.3c1.4-3.1,3.2-6,4.8-9c2.7-5.2,5.7-10.3,8.8-15.2c2.2-3.4,4.3-6.8,6.4-10.2
		c1.8-2.8,3.7-5.5,5.6-8.2c3.6-5.2,7.5-10.3,11.3-15.4C1590.2,969.2,1599.7,956.9,1609.7,945L1609.7,945L1609.7,945z"/>
	<path style="fill:#161616;" d="M1478.3,883.2c-3.7,2.2-4.6,6.7-2.7,10.4c8.7,17.2,17.3,34.3,26.3,51.4c3.5,6.5,6.9,13.1,10.1,19.7
		c3.4,7,6.6,14,9.6,21.1c4.3,10.6,8.4,21.3,12.9,31.8c0.7,1.7,2.9,3.1,4.6,3.5c2,0.6,4.1,0.3,5.9-0.8c1.7-1,3-2.7,3.5-4.6
		c0.6-2.2,0.1-3.9-0.8-5.9c-0.2-0.6-0.5-1.1-0.7-1.7c-2.8-6.7-5.4-13.4-8.1-20.1c-3.3-8.1-6.7-16.1-10.4-24
		c-3.5-7.7-7.5-15.1-11.4-22.6c-4-7.6-8-15.2-11.9-22.8c-5.6-10.9-11.1-21.8-16.6-32.7c-1.2-2.4-3.9-3.7-6.5-3.7
		C1480.8,882.2,1479.5,882.6,1478.3,883.2L1478.3,883.2L1478.3,883.2z"/>
	<path style="fill:#161616;" d="M1486,906.4c-5.8,2.8-11.5,5.7-17,8.9c-3.9,2.3-7.8,4.6-11.4,7.3c-2.8,2.1-5.3,4.5-6.8,7.7
		c-1,2.1-1.3,4.1-1.6,6.4c-0.3,2.1,0.3,4.4,0.7,6.5c0.7,3.6,2.5,7,4.3,10.2c1.7,3.1,3.8,6,5.9,8.8c3.8,5.1,8.1,9.8,12.9,14
		c1.8,1.6,3.7,3.1,5.5,4.7c-0.9,0.6-1.8,1.3-2.6,2.1c-1.4,1.4-2.1,3.3-2.6,5.1c-0.9,2.8-0.5,5.8-0.1,8.5c0.4,2.6,1,5,1.7,7.5
		c0.6,2.1,1.4,4.2,2,6.3c2.1,6.7,4.6,13.2,6.8,19.9c2.3,6.9,4.7,13.7,7,20.6c2.4,7.1,5,14.1,7.2,21.3c1.3,4,2.5,8.1,3.7,12.1
		c1.1,3.7,2,7.4,3.1,11.1c1,3.1,3.7,5.4,7.1,5.4c2,0,3.8-0.8,5.2-2.2c1.3-1.3,2.3-3.4,2.2-5.2c-0.2-2.4-0.6-4.8-1.2-7.1
		c-0.5-1.7-1-3.4-1.5-5.1c-1-3.3-2-6.7-3.1-10c-2.3-7.1-4.8-14.1-7.3-21.2c-5-14.1-9.9-28.2-14.9-42.4c-1.6-4.5-3.2-9.2-4-13.9
		c0-0.2,0-0.4,0-0.6c0.8-0.2,1.6-0.3,2.4-0.4c0.7-0.1,1.4-0.3,2.2-0.4c1.2-0.2,2.8-0.6,3.8-1.3c0.8-0.6,1.6-1.2,2.4-1.9
		c2.2-2,2.9-6.1,1.1-8.6c-0.2-0.3-0.4-0.6-0.6-0.9c-0.6-1.1-1.5-1.9-2.5-2.5c-0.7-0.5-1.5-1-2.2-1.5c-1.1-0.7-2.1-1.4-3.1-2.2
		c-1.6-1.1-3.1-2.2-4.6-3.4c-1.6-1.3-3.2-2.6-4.8-3.9c-4.3-3.5-8.2-7.7-11.6-12c-2.7-3.6-5.2-7.3-7.1-11.4c-0.5-1.4-0.9-2.8-1.2-4.2
		c0-0.6,0-1.3,0-1.9c0.1-0.3,0.2-0.6,0.3-0.9c0.2-0.4,0.4-0.7,0.6-1.1c0.7-0.7,1.4-1.4,2.2-2.1c8.6-6.2,18.2-11,27.8-15.7
		c3-1.5,3.8-5.7,2.2-8.4c-1.2-2-3.1-3-5.2-3C1488.2,905.7,1487.1,905.9,1486,906.4L1486,906.4L1486,906.4z"/>
	<path style="fill:#161616;" d="M1649.6,943.4c-1,1.7-1.3,3.8-0.8,5.8c0.5,1.7,1.8,3.7,3.4,4.5c0.3,0.1,0.6,0.2,0.8,0.4
		c6,5.6,11.6,11.5,17.4,17.3c3,3,6,5.9,8.9,9c2.8,2.9,5.3,5.9,7.9,9c1.4,1.9,2.8,3.7,4.1,5.7c3.3,4.9,6.3,9.9,8.7,15.3
		c2.8,7,5.5,14,7.4,21.3c1.1,4.5,2.2,8.9,3.2,13.5c0.7,3.3,1.2,6.7,1.7,10.1c0.1,1.5,0.3,3,0.5,4.5c0.2,1.8,0.5,3.6,0.5,5.4
		c0.2,3.9,0.3,7.7,0.5,11.6c0.1,1.9,0,3.9,0,5.9c0,1.6,0,3.2,0,4.7c-0.1,3.8-0.2,7.6-0.4,11.4c-0.7,15.6-1.5,31.3-1.8,46.9
		c-0.1,6.5-0.2,13-0.4,19.4c-0.2,6.4-0.7,12.7-1.4,19.1c-0.3,2.2-0.6,4.4-0.9,6.7c-0.4,2.6-1,5.1-1.5,7.7c-0.9,4.6-2,9.2-3.3,13.8
		c-0.8,2.8-1.6,5.6-2.4,8.4c-0.8,2.6-1.7,5.2-2.6,7.8c-1.6,4.7-3.5,9.3-5.4,13.9c-1.1,2.5-2.3,5-3.5,7.5c-0.9,1.7-1.7,3.5-2.6,5.2
		c-1.8,3.6-4.1,7-6.5,10.3c-4,5-8.5,9.5-13.4,13.5c-6.3,4.6-13.3,8.2-20.5,11.2c-14.4,5.8-29.7,8.7-44.8,11.6
		c-6.7,1.3-13.4,2.6-20.1,3.8c-6.8,1.2-13.5,2.3-20.3,3.3c-3.4,0.4-6.8,0.8-10.1,1.3c-3.8,0.5-7.6,0.7-11.4,1.1
		c-7.6,0.7-15.2,0.9-22.8,1.2c-15.3,0.5-30.6,0.2-45.9,0c-13.7-0.1-27.4-0.7-41-2.3c-4.2-0.6-8.4-1.3-12.4-2.8
		c-0.5-0.2-0.9-0.5-1.4-0.8c0-0.1,0-0.1,0-0.2c-0.3-3.3-0.2-6.5-0.1-9.8c0.1-2.5,0.2-5,0.3-7.6c0.4-6.1,0.9-12.1,1.4-18.1
		c0.9-10.9,2.3-21.7,3.7-32.5c0.7-4.3,1.5-8.5,3-12.6c0.2-0.4,0.4-0.8,0.6-1.2c0.5-0.1,1-0.2,1.5-0.3c7.3-0.8,14.6-1.1,21.9-1.5
		c7.2-0.4,14.4-0.6,21.5-0.8c15.3-0.4,30.5-0.7,45.8-2c20-1.8,39.8-5,59.8-6.8c1.7-0.2,3.1-0.6,4.4-1.8c1.1-1.1,1.8-2.7,1.8-4.4
		c0-3.1-2.8-6.4-6.1-6.1c-16.3,1.5-32.5,3.6-48.7,5.2c-6.8,0.7-13.6,1.2-20.5,1.5c-7.9,0.3-15.8,0.4-23.8,0.5
		c-13.6,0.2-27.1,0.3-40.7,0.7c-7,0.2-14,0.4-20.9,1.4c-5,0.7-8.3,4.9-10.2,9.2c-2.2,5-3.2,10.3-4.1,15.6c-0.7,4.2-1.1,8.4-1.7,12.6
		c0.1-0.7,0.2-1.4,0.3-2c-1.1,8.1-1.9,16.3-2.7,24.4c-0.7,6.9-1.3,13.8-1.6,20.7c-0.2,3.9-0.4,7.7-0.4,11.5c0,1.5,0.1,3,0.2,4.5
		c0.1,1.4,0.3,2.8,0.6,4.2c0.3,1.4,1.1,2.7,1.7,3.9c0.6,1.1,1.7,2.2,2.7,3.1c1,0.9,2.2,1.7,3.4,2.5c1.2,0.8,2.7,1.2,4,1.7
		c1.4,0.6,2.8,1,4.3,1.3c6.8,1.7,13.8,2.3,20.8,2.9c3.7,0.4,7.5,0.6,11.2,0.8c15.5,0.9,31,0.8,46.5,0.9c6.8,0,13.6,0,20.4-0.2
		c3.6-0.1,7.3-0.2,10.9-0.4c4.2-0.3,8.3-0.6,12.5-0.8c7.7-0.5,15.4-1.6,23-2.5c7.8-1,15.5-2.2,23.2-3.7c7.4-1.4,14.8-2.8,22.2-4.2
		c7.3-1.4,14.7-2.7,21.9-4.7c5.8-1.6,11.5-3.1,17.2-5.1c4.9-1.8,9.6-3.9,14.3-6.2c4.9-2.4,9.6-5.1,13.9-8.4
		c8.5-6.4,15.7-14.3,21.5-23.2c2.6-4,4.9-8.5,6.9-12.9c6.5-14.3,12.1-29.1,15.8-44.4c0.9-3.9,1.8-7.8,2.6-11.7
		c0.8-3.9,1.3-7.9,1.9-11.8c1.1-7.5,1.6-15,1.9-22.6c0.2-8,0.4-16,0.5-24c0.2-7.8,0.5-15.5,0.8-23.2c0.3-7.5,0.7-14.9,1-22.4
		c0.3-6.9,0.5-13.9,0.3-20.8c-0.2-3.7-0.2-7.5-0.6-11.2c-0.4-4.3-0.8-8.7-1.5-13c-0.6-4-1.3-8-2.2-12c-0.8-3.9-1.8-7.8-2.8-11.7
		c-1.9-7.2-4.6-14.2-7.4-21.1c-4.1-10.4-10.4-19.7-17.5-28.3c-4.7-5.8-10-11-15.3-16.3c-5.1-5-10.1-10.1-15.1-15.2
		c-0.6-0.6-1.2-1.2-1.8-1.7c-0.5-0.5-1-0.8-1.5-1.3c-1.7-1.4-3.3-2.2-5.4-2.8c-0.6-0.2-1.3-0.3-2-0.3
		C1653.5,939.7,1650.9,941.2,1649.6,943.4L1649.6,943.4L1649.6,943.4z M1653.6,954.4c0.2,0.1,0.4,0.3,0.6,0.5
		C1654,954.7,1653.8,954.5,1653.6,954.4L1653.6,954.4L1653.6,954.4z M1416,1305.2c0.1,0.1,0.1,0.2,0.2,0.3
		C1416.1,1305.4,1416,1305.3,1416,1305.2L1416,1305.2L1416,1305.2z M1417.3,1307.2c0,0.1,0.1,0.2,0.1,0.3
		C1417.3,1307.4,1417.3,1307.3,1417.3,1307.2L1417.3,1307.2L1417.3,1307.2z"/>
	<path style="fill:#161616;" d="M1338.8,1187.9c-2.3,0.2-4.7,0.8-6.6,2.1c-2.4,1.7-4.1,4.2-4.8,7.1c-1.1,5,0.9,10.1,3.5,14.2
		c1.3,2,2.8,3.9,4.4,5.7c1.6,1.9,3.4,3.5,5.2,5.1c1.3,1.1,2.6,2.2,3.9,3.2c-2.5-0.2-5-0.4-7.5-0.7c-7.1-0.6-14.2-0.6-21.3-0.7
		c-1.5,0-3,0.2-4.4,0.2c-2.1,0.1-4.2,0.2-6.3,0.3c-1.5,0.1-3,0.4-4.5,0.6c-2.3,0.3-4.6,0.5-6.8,0.9c-4.6,0.8-9,1.8-13.5,3.2
		c-2.4,0.7-4.7,1.6-7,2.5c-3.3,1.2-6.7,2.5-9.6,4.4c-2,1.3-3.7,2.9-5,4.9c-1.6,2.5-1.7,5.6-0.9,8.3c1.4,5,6.8,7.4,11.3,8.7
		c0.9,0.3,1.8,0.5,2.8,0.7c-2.4,1-4.7,2.2-7.1,3.5c-3.3,1.7-6.6,3.7-8.6,7c-1.3,2.1-1.2,5.2-0.1,7.4c1.1,2.3,3.1,3.9,5.3,5.1
		c2,1.1,4.4,1.9,6.7,2.4c0.5,0.1,1.1,0.2,1.6,0.4c-0.7,0.3-1.4,0.7-2.2,1.1c-3.6,2-6.6,5.7-6.2,10.1c0.1,1.5,0.4,2.5,1.1,3.9
		c0.5,1,1.2,1.9,1.9,2.7c0.7,0.9,1.9,1.6,2.8,2.2c1.3,0.9,2.9,1.4,4.3,2c2.3,0.9,4.7,1.4,7.2,1.8c-0.5,1-0.8,2-1,3
		c-0.2,1.3-0.3,2.8,0.1,4.1c0.6,1.6,1.2,3.1,2.3,4.4c3.1,3.2,7.6,4.8,11.8,5.8c5,1.2,10.2,1.5,15.3,1.6c5.7,0.2,11.4-0.1,17.1-0.2
		c13.6-0.3,27.3-0.4,40.8-2c5.4-0.6,10.9-1.4,16.3-2.5c2.4-0.5,4.9-0.9,7.3-1.4c1.1-0.2,2.3-0.4,3.4-0.8c2-0.6,3.9-1.5,5.9-2.3
		c1-0.6,1.9-1.4,2.5-2.5c0.9-1.6,1.2-3.5,0.7-5.3c-1-3.6-4.9-5.9-8.5-4.8c-1.5,0.4-3.1,0.7-4.7,1c-1.4,0.3-2.8,0.6-4.2,1
		c-2.4,0.6-4.7,1.1-7.1,1.6c-5.1,1-10.2,1.9-15.3,2.6c-8.3,0.8-16.6,1.5-25,1.8c-4.4,0.2-8.8,0.4-13.3,0.6c-8.5,0.4-17.1,1-25.5,0
		c-2.4-0.4-4.7-0.9-6.9-1.7c2.4-1.6,4.9-2.9,7.5-4.1c6.4-0.8,12.7-2,18.9-3.6c0.8-0.2,1.5-0.4,2.3-0.6c1-0.2,2.5-1.1,3.2-1.8
		c0.9-0.9,1.2-1.9,1.7-3c0.6-1.4,0.1-3.4-0.6-4.6c-1.1-1.9-3-2.8-5.2-3c-4.1-0.3-8.4,0.7-12.4,1.7c-2.9,0.7-5.7,1.6-8.5,2.6
		c-1.4,0.1-2.8,0.3-4.2,0.4c-4.1,0.4-8.2,0.3-12.3-0.1c-1.9-0.3-3.7-0.7-5.5-1.3c0.8-0.4,1.6-0.8,2.5-1.1c2.7-1.1,5.5-2.1,8.3-3.1
		c3.2-1.1,6.4-2,9.6-2.9c6.1-1.7,12.3-3,18.4-4.3c2.6-0.6,4.4-3.2,4.4-5.7c0-1.6-0.6-3.1-1.7-4.2c-1-1-2.7-1.9-4.2-1.7
		c-4.8,0.6-9.6,1.1-14.4,1.5c-7.8,0.6-15.6,1.1-23.4,0.2c-1.6-0.3-3.3-0.6-4.8-1c2.5-1.4,5.1-2.6,7.7-3.8c1.9-0.7,3.9-1.6,5.9-2.2
		c2.6-0.8,5.2-1.7,7.8-2.3c1.6-0.4,3.3-0.7,4.9-1.1c1-0.2,2-0.5,3-0.6c2.3-0.3,4.5-0.7,6.8-1c0.9-0.1,1.9-0.2,2.8-0.3
		c3.2,0,6.5,0.1,9.7-0.3c2.6,0.1,5-2,5.6-4.4c0.8-2.9-1-6.7-4.1-7.3c-3.2-0.6-6.5-0.6-9.8-0.8c-2.5-0.1-5-0.2-7.5-0.3
		c-7.4-0.3-14.8-0.5-22.1-1.4c-1.8-0.3-3.6-0.6-5.3-1c6.8-2.8,13.9-5.3,21.2-6.4c-0.2,0-0.3,0-0.5,0.1c0.1,0,0.3,0,0.4-0.1
		c-0.3,0-0.6,0.1-0.8,0.1c0.4-0.1,0.9-0.1,1.3-0.2c0.2,0,0.3,0,0.5-0.1c-0.1,0-0.2,0-0.3,0c0.1,0,0.1,0,0.2,0c0.3,0,0.7-0.1,1-0.1
		c0.2,0,0.3,0,0.5-0.1c0.6-0.1,1.2-0.2,1.8-0.2c0.1,0,0.1,0,0.2,0c1-0.1,2-0.3,3-0.4c0.4,0,0.8-0.1,1.2-0.2
		c3.6-0.4,7.2-0.5,10.8-0.7c1.4-0.1,2.9,0,4.3,0c2.1,0,4.2,0,6.3,0c3.4,0,6.7,0.3,10.1,0.5c3.3,0.2,6.5,0.5,9.8,0.8
		c3.7,0.3,7.3,0.7,11,1.1c2.4,0.2,4.9,0.4,7.3,0.1c1.5-0.2,2.7-0.3,4.1-1c1.2-0.6,2.3-1.4,3-2.6c0.6-1.1,1-2.6,1-3.8
		c0-1.8-0.8-3.1-1.9-4.5c-0.9-1.1-2.3-1.9-3.5-2.8c-2.5-1.8-5-3.4-7.5-5.2c-2.4-1.7-4.8-3.5-7.2-5.3c-2.9-2.5-5.7-5.1-8.1-8
		c-1.1-1.6-2.2-3.2-3-5c0,0,0,0,0,0c5.1-0.1,10.2,0.6,15.3,1.2c2.3,0.4,4.5,0.8,6.8,1.2c2.2,0.4,4.4,1,6.6,1.6
		c5.3,1.3,10.6,3.1,15.7,5.2c6.8,3,13.1,6.7,19.1,11.2c2.3,1.9,4.4,3.9,6.6,5.9c2.3,2.1,5.9,2.3,8.2,0c2.2-2.2,2.3-6,0-8.2
		c-3.3-3-6.5-6.1-10.1-8.8c-3.9-2.9-7.9-5.6-12.1-8c-6.1-3.5-12.7-6-19.3-8.3c-6.3-2.2-12.8-3.8-19.4-4.7c-3.9-0.5-7.9-1.2-11.9-1.4
		c-1.8-0.1-3.7-0.2-5.5-0.2C1340.1,1187.8,1339.4,1187.8,1338.8,1187.9L1338.8,1187.9L1338.8,1187.9z M1340.3,1201.1
		C1340.3,1201.1,1340.3,1201.1,1340.3,1201.1C1340.3,1201.1,1340.3,1201.1,1340.3,1201.1C1340.3,1201.1,1340.3,1201.1,1340.3,1201.1
		C1340.3,1201.1,1340.3,1201.1,1340.3,1201.1L1340.3,1201.1L1340.3,1201.1z M1340.1,1201.4c0,0.1,0,0.1-0.1,0.2
		C1340.1,1201.5,1340.1,1201.5,1340.1,1201.4C1340.1,1201.4,1340.1,1201.4,1340.1,1201.4L1340.1,1201.4L1340.1,1201.4z
		 M1339.4,1201.6c-0.1,0.1-0.2,0.2-0.3,0.3C1339.2,1201.7,1339.3,1201.7,1339.4,1201.6L1339.4,1201.6L1339.4,1201.6z M1305.8,1237.9
		C1305.7,1237.9,1305.7,1237.9,1305.8,1237.9C1305.7,1237.9,1305.7,1237.9,1305.8,1237.9C1305.7,1237.9,1305.7,1237.9,1305.8,1237.9
		L1305.8,1237.9L1305.8,1237.9z M1305.2,1238c-0.4,0.1-0.8,0.1-1.2,0.2C1304.5,1238.1,1304.8,1238,1305.2,1238L1305.2,1238
		L1305.2,1238z M1305.1,1238c0,0-0.1,0-0.1,0C1305,1238,1305.1,1238,1305.1,1238L1305.1,1238L1305.1,1238z M1305,1238
		c-0.5,0.1-0.9,0.1-1.4,0.2C1304.1,1238.1,1304.5,1238.1,1305,1238L1305,1238L1305,1238z M1279.3,1246.4c0.3,0,0.6,0.1,0.9,0.1
		C1279.9,1246.5,1279.6,1246.4,1279.3,1246.4L1279.3,1246.4L1279.3,1246.4z M1280.6,1246.6c0.2,0,0.3,0,0.5,0.1
		C1280.9,1246.6,1280.7,1246.6,1280.6,1246.6L1280.6,1246.6L1280.6,1246.6z M1270.2,1248.2c-0.1,0.1-0.1,0.3-0.2,0.4
		C1270.1,1248.5,1270.1,1248.3,1270.2,1248.2L1270.2,1248.2L1270.2,1248.2z M1265.4,1270.1c0.1,0.1,0.1,0.2,0.2,0.3
		C1265.5,1270.3,1265.4,1270.2,1265.4,1270.1L1265.4,1270.1L1265.4,1270.1z M1272.2,1292.7c0.1,0.1,0.2,0.3,0.3,0.4
		C1272.4,1293,1272.3,1292.9,1272.2,1292.7L1272.2,1292.7L1272.2,1292.7z M1272.4,1296.6c-0.1,0.1-0.2,0.2-0.2,0.3
		C1272.2,1296.8,1272.3,1296.7,1272.4,1296.6L1272.4,1296.6L1272.4,1296.6z M1289,1311.1c0,0.1,0,0.2,0,0.3c0,0,0,0,0,0
		C1289.1,1311.3,1289.1,1311.2,1289,1311.1L1289,1311.1L1289,1311.1z M1288.9,1313.9c0,0.1-0.1,0.2-0.1,0.2
		C1288.8,1314,1288.9,1313.9,1288.9,1313.9L1288.9,1313.9L1288.9,1313.9z M1297.1,1239.1c-0.1,0-0.2,0-0.3,0c0,0,0,0,0.1,0
		c-0.1,0-0.1,0-0.2,0c0,0-0.1,0-0.1,0c-0.1,0-0.2,0-0.3,0c0.1,0,0.1,0,0.2,0c0,0-0.1,0-0.1,0c0.4-0.1,0.9-0.1,1.3-0.2
		C1297.4,1239,1297.2,1239.1,1297.1,1239.1L1297.1,1239.1L1297.1,1239.1z M1296.9,1239.1c0.4-0.1,0.7-0.1,1.1-0.2
		C1297.7,1239,1297.3,1239,1296.9,1239.1L1296.9,1239.1L1296.9,1239.1z M1298.1,1238.9C1298.1,1238.9,1298,1238.9,1298.1,1238.9
		c0,0,0.1,0,0.2,0C1298.2,1238.9,1298.2,1238.9,1298.1,1238.9L1298.1,1238.9L1298.1,1238.9z M1298.3,1238.9c0.2,0,0.3,0,0.5-0.1
		C1298.6,1238.9,1298.4,1238.9,1298.3,1238.9L1298.3,1238.9L1298.3,1238.9z M1299.1,1238.8c0.4-0.1,0.9-0.1,1.3-0.2
		C1300,1238.7,1299.6,1238.7,1299.1,1238.8L1299.1,1238.8L1299.1,1238.8z M1300.5,1238.6c0,0-0.1,0-0.1,0
		C1300.5,1238.6,1300.6,1238.6,1300.5,1238.6C1300.6,1238.6,1300.6,1238.6,1300.5,1238.6L1300.5,1238.6L1300.5,1238.6z
		 M1300.6,1238.6c0.1,0,0.2,0,0.3,0C1300.8,1238.6,1300.7,1238.6,1300.6,1238.6L1300.6,1238.6L1300.6,1238.6z"/>
	<path style="fill:#161616;" d="M1459.3,946.3c-1.6,0.2-2.8,0.6-4.4,1.2c-2.3,1-4.3,2.6-6.2,4.3c-1.8,1.6-3.3,3.5-4.7,5.4
		c-1.8,2.4-3.5,4.8-5.2,7.3c-4.2,6.5-7.9,13.3-11.4,20.2c-2,4-4,8-5.7,12.1c-1.3,3.2-2.2,6.5-3,9.8c-0.7,2.5-1.4,5.1-2,7.6
		c-3.8,14.4-7.9,28.7-13.1,42.6c-0.8,2-1.5,4.1-2.3,6.1c-1.9,4.4-3.7,8.8-5.8,13.1c-1.6,3.2-3.1,6.4-4.7,9.5
		c-3.5,6.7-7.5,13.1-12,19.1c-4.1,5.1-8.5,9.9-13.6,14c-2.6,1.9-5.4,3.6-8.3,5c-3.9,1.5-7.8,2.4-12,3c-5.2,0.6-10.6,0.8-15.8,0.9
		c-1.2,0-2.5,0-3.7,0c-2.5,0-5,0-7.4,0.1c-3.1,0.2-6.1,0.4-9.2,0.8c-2.8,0.4-5.7,1.6-7.8,3.5c-1,0.9-2.1,2.1-2.8,3.3
		c-0.9,1.5-1.5,3.1-2.1,4.7c-0.8,2.1-1.2,4.2-1.5,6.4c-0.4,2.8-0.6,5.6-0.7,8.5c-0.1,2.5-0.1,5.1,0,7.6c0.1,15.1,1.3,30.1,1.7,45.2
		c0.1,2.2,0.1,4.5,0.2,6.7c0.1,4.3-0.2,9.3,3.5,12.3c0.9,0.9,2,1.5,3.2,1.9c1.9,0.5,3.9,0.2,5.6-0.7c3.1-1.8,4.2-5.5,3.1-8.7
		c0-1.1,0.1-2.2,0-3.3c0-1.1,0-2.3-0.1-3.4c-0.1-2.5-0.1-5.1-0.2-7.7c-0.2-5.8-0.5-11.5-0.8-17.3c-0.3-5.6-0.6-11.3-0.7-16.9
		c-0.1-2.5-0.1-4.9-0.1-7.4c0-4.7-0.1-9.3,0.4-14c0.3-1.9,0.8-3.7,1.4-5.5c0,0,0-0.1,0.1-0.1c0.6-0.1,1.1-0.3,1.7-0.4
		c3.6-0.3,7.2-0.4,10.9-0.5c4.2-0.1,8.3-0.2,12.5-0.3c4.4-0.1,8.8-0.7,13.2-1.3c5.4-0.8,10.4-2.5,15.4-4.7c4.8-2.2,9.1-5.5,13-8.9
		c3.9-3.4,7.4-7.2,10.6-11.2c6.4-7.9,12-16.6,16.4-25.8c1.7-3.6,3.4-7.2,5.1-10.7c1.9-4.1,3.5-8.4,5.3-12.6
		c1.5-3.5,2.6-7.2,3.9-10.8c1.4-3.9,2.6-7.9,3.9-11.9c1.3-4,2.4-8.1,3.5-12.1c1.2-4.4,2.3-8.8,3.5-13.2c1.7-6.8,3.2-13.8,5.7-20.4
		c1.6-3.5,3.2-7,4.9-10.4c4-8.2,8.5-16.4,13.9-23.7c1.4-1.8,3-3.5,4.7-5c0.5-0.3,1-0.7,1.6-0.9c0.1,0,0.2-0.1,0.3-0.1
		c0.6,0,1.2,0,1.9,0c3.4,0,6.3-2.9,6.3-6.3c0-3.5-2.9-6.2-6.3-6.3c-0.2,0-0.3,0-0.5,0C1461.1,946.2,1460.2,946.2,1459.3,946.3
		L1459.3,946.3L1459.3,946.3z M1312.1,1143.2c-0.3,0.1-0.6,0.3-0.9,0.4C1311.4,1143.4,1311.7,1143.3,1312.1,1143.2L1312.1,1143.2
		L1312.1,1143.2z M1310.8,1143.8c-0.2,0.3-0.5,0.6-0.7,0.9C1310.3,1144.4,1310.5,1144.1,1310.8,1143.8
		C1310.8,1143.8,1310.8,1143.8,1310.8,1143.8L1310.8,1143.8L1310.8,1143.8z M1310.7,1144.3c-0.1,0.3-0.2,0.5-0.3,0.8
		C1310.4,1144.8,1310.5,1144.5,1310.7,1144.3L1310.7,1144.3L1310.7,1144.3z"/>
	<path style="fill:#161616;" d="M1168.6,1044.7c-3.9,1-7,4-9,7.3c-2.5,4.1-2.9,9.3-1.5,13.8c1.8,5.9,6.6,10.4,10.8,14.8
		c2.6,2.6,5.1,5.2,7.6,7.9c2.2,2.3,4.4,4.6,6.8,6.8c2.9,2.7,6,5.1,9.6,6.8c2.2,1.1,4.7,0.9,6.5-0.8c2.1-2.1,1.9-5.4,0-7.5
		c-2-2.3-4.5-4-6.8-6c-2.4-2.1-4.6-4.3-6.8-6.6c-2-2.1-4-4.2-6.1-6.3c-2.7-2.8-5.6-5.4-8.1-8.4c-0.8-1.1-1.5-2.2-2.1-3.4
		c-0.2-0.5-0.3-1-0.4-1.5c0-0.4,0-0.8,0-1.3c0.1-0.4,0.2-0.8,0.3-1.2c0.2-0.4,0.4-0.7,0.6-1.1c0.2-0.2,0.4-0.4,0.6-0.7
		c0.2-0.1,0.3-0.2,0.5-0.3c0.1,0,0.3-0.1,0.4-0.1c0.6,0,1.1,0,1.7,0c3.9,0.7,7.6,2,11.3,3.4c11.5,4.9,22.8,10.6,33.2,17.6
		c11.2,7.5,22.2,15.4,33.1,23.2c16.9,12,33.9,23.8,51.6,34.5c3,1.8,7,0.7,8.7-2.3c1.8-3,0.7-6.9-2.3-8.7
		c-6.7-4.1-13.3-8.4-19.8-12.8c-5.6-3.7-11-7.7-16.5-11.7c-10.9-7.8-21.6-15.9-32.4-23.7c-10.5-7.5-21-15.2-32.6-20.8
		c-3.2-1.5-6.3-3.1-9.5-4.5c-3.3-1.5-6.6-3-10.1-4.1c-4.6-1.5-9.5-2.9-14.4-2.9C1172,1044.1,1170.3,1044.3,1168.6,1044.7
		L1168.6,1044.7L1168.6,1044.7z M1183.1,1059.7c0.4,0.2,0.8,0.4,1.2,0.5C1183.9,1060,1183.5,1059.9,1183.1,1059.7L1183.1,1059.7
		L1183.1,1059.7z"/>
	<path style="fill:#161616;" d="M1185.5,1171.4c-1.9,1.4-3,4.3-1.9,6.5c0.5,0.9,0.9,1.8,1.5,2.7c0.6,0.9,1.6,1.7,2.5,2.4
		c1,0.7,2.1,1.4,3.2,2c1.8,1.1,3.6,2.1,5.5,3c3.4,1.8,7,2.9,10.7,4.1c8,2.5,16.3,3.9,24.4,6c3,1,5.9,2.1,8.8,3.2
		c3.6,1.4,7.3,2.5,10.9,3.7c3.8,1.2,7.8,2.1,11.7,3.1c5.1,1.3,10.4,2.1,15.6,2.7c5.5,0.7,11,0.9,16.5,1.3c2,0.1,3.7,0,5.4-1.2
		c1.5-1.1,2.5-2.8,2.9-4.6c0.3-1.9-0.1-3.9-1.2-5.4c-1-1.4-2.8-2.8-4.6-2.9c-4.7-0.3-9.4-0.6-14.1-1c-5.3-0.5-10.5-1.4-15.6-2.5
		c-3.8-0.8-7.6-1.9-11.4-2.9c-3.6-1.2-7.1-2.4-10.6-3.8c-4.5-1.9-9.1-3.5-13.8-4.8c-4.1-1.1-8.3-1.9-12.4-2.7
		c-4-0.8-7.9-1.7-11.8-2.8c-2.4-0.8-4.7-1.6-7-2.6c-1.3-0.5-2.5-1.1-3.7-1.7c-2-0.9-4-1.7-6.1-2.2c-0.7-0.2-1.4-0.3-2.1-0.3
		C1187.5,1170.4,1186.5,1170.7,1185.5,1171.4L1185.5,1171.4L1185.5,1171.4z"/>
	<path style="fill:#161616;" d="M1183.4,1151.6c-0.5,2.6,1.4,5.5,4.1,5.9c3.5,0.5,6.9,0.9,10.4,1.5c3.4,0.6,6.7,1.8,10.2,1.6
		c2.2-0.1,4-1.9,4.4-4c0.3-2-0.7-4.6-2.8-5.3c-1.8-0.6-3.6-1.2-5.5-1.6c-1.5-0.3-3-0.5-4.6-0.8c-3.5-0.6-7-1-10.4-1.4
		c-0.2,0-0.5,0-0.7,0C1186.1,1147.5,1183.8,1149.1,1183.4,1151.6L1183.4,1151.6L1183.4,1151.6z"/>
	<path style="fill:#161616;" d="M1198.4,1130.9c-3.7,0-7.4,0.2-11,0.4c-2.6,0.2-4.5,2.7-4.3,5.2c0.3,2.6,2.6,4.5,5.2,4.3
		c3.7-0.2,7.4-0.3,11-0.3c3,0.2,6,0.4,9.1,0.3c2.1-0.1,3.8-1.9,4.1-3.9c0.2-1.2-0.1-2.5-0.8-3.5c-0.8-1-1.8-1.6-3-1.9
		c-2.7-0.7-5.5-0.7-8.2-0.7C1199.8,1130.9,1199.1,1130.9,1198.4,1130.9L1198.4,1130.9L1198.4,1130.9z"/>
	<path style="fill:#161616;" d="M1177.4,1110.3c-0.5,3,1.6,6.3,4.7,6.7c6.5,0.8,12.9,1.7,19.4,2c1.6,0.1,2.9,0,4.2-1
		c1.2-0.8,2-2.1,2.2-3.6c0.5-3-1.6-5.9-4.5-6.5c-6.4-1.1-12.9-1.7-19.3-2.4c-0.3,0-0.5,0-0.8,0
		C1180.5,1105.6,1177.9,1107.4,1177.4,1110.3L1177.4,1110.3L1177.4,1110.3z"/>
	<path style="fill:#161616;" d="M1492.2,1311.7c-2,0.3-3.9,1.3-5.1,2.9c-1.3,1.7-1.6,3.6-1.5,5.7c0.4,8.4,0.4,16.8,0.5,25.1
		c-0.3,8.9-0.6,17.9-0.9,26.8c-0.3,8.1-0.9,16.1-1.4,24.1c-0.9,15.4-2,30.7-3,46.1c-2.2,33.2-4.5,66.4-6.3,99.6
		c-0.9,17.1-1.6,34.2-2.3,51.3c-0.7,16-1.5,32-2.2,48.1c-0.7,16.2-1.5,32.5-1.8,48.8c-0.1,8.7,0,17.5,0.5,26.2
		c0.4,7.8,1.1,15.5,1.5,23.3c0.3,5.3,0.5,10.5,0.9,15.7c0.4,5.8,0.8,11.6,2.9,17.1c1.1,3.1,4.5,4.9,7.7,4.5c4.1-0.5,6.6-4.2,6.3-8.2
		c-0.2-2.9-0.7-5.8-1-8.7c-0.3-2.7-0.5-5.5-0.7-8.2c-0.4-5.9-0.6-11.8-1-17.6c-0.4-6.3-0.8-12.5-1.3-18.8
		c-0.4-5.8-0.5-11.7-0.5-17.6c0.1-15.7,0.8-31.4,1.5-47c0.7-16.9,1.5-33.8,2.3-50.7c0.7-15.4,1.2-30.7,2-46.1
		c0.9-16.5,1.8-33,2.8-49.5c2-32.7,4.6-65.5,6.5-98.2c0.8-13.8,1.7-27.7,2.2-41.5c0.2-6.9,0.7-13.8,0.6-20.7
		c-0.1-8.6-0.1-17.2-0.5-25.8c-0.2-3.9-4.1-6.7-7.7-6.7C1492.8,1311.7,1492.5,1311.7,1492.2,1311.7L1492.2,1311.7L1492.2,1311.7z"/>
	<path style="fill:#161616;" d="M1661.4,1286.2c-2,0.3-3.8,1.3-5,2.9c-1.1,1.5-1.9,3.7-1.5,5.6c0.6,2.8,0.9,5.7,1.2,8.5
		c0.3,2.8,0.5,5.7,0.8,8.5c0.6,6.2,1.3,12.4,2.1,18.6c1.6,13,3.5,25.9,5.4,38.8c1.8,12.1,3.6,24.2,5.4,36.3
		c2.1,13.6,4.4,27.2,6.8,40.8c2,11.8,4.2,23.6,6.4,35.4c2.4,12.6,4.8,25.2,7.4,37.8c2.8,13.1,5.8,26.1,9,39
		c3.1,12.6,6.9,25,10.6,37.4c2.1,7,4.4,14,6.6,21c2.3,7.2,4.5,14.5,6.7,21.8c1.4,5.3,2.9,10.6,4.1,16c1.5,6.5,3,12.9,4.4,19.4
		c2.8,13.1,5.5,26.3,8.1,39.4c1.3,6.8,2.7,13.6,4,20.4c0.6,3,1.2,6,1.8,8.9c0.3,1.6,0.6,3.1,1,4.7c0.4,2.1,0.9,4.2,1.3,6.4
		c0,0.1,0,0.2,0.1,0.3c-1.6,0.9-2.7,3.2-1.8,5c1.1,2.1,2.1,4.3,3.4,6.3c1.4,2.3,5.3,2.2,6.8,0c0.5-0.7,0.9-1.4,1.3-2.2
		c0.5-0.9,0.5-2.2,0.5-3.2c0.1-2.2-0.2-4.3-0.4-6.5c-0.3-2.8-0.8-5.7-1.2-8.5c-0.6-3.8-1.2-7.6-1.8-11.5c-0.9-5.6-1.7-11.2-2.7-16.7
		c-2.1-12.8-4.3-25.6-6.8-38.4c-1.3-6.6-2.5-13.2-3.9-19.8c-1.4-6.8-3-13.6-4.7-20.4c-1.5-6.2-3.3-12.4-5.1-18.6
		c-1.7-5.8-3.5-11.5-5.2-17.2c-2.2-7.5-4.4-14.9-6.6-22.4c-1.8-6-3.3-12.1-5-18.2c-2.8-11.7-5.7-23.4-8.2-35.2
		c-2.7-13-5.3-26.1-7.7-39.2c-4.5-24.8-9-49.6-12.9-74.5c-4-25.9-7.9-51.8-11.3-77.8c-1-7.4-1.9-14.7-2.6-22.1
		c-0.3-3.5-0.6-7-0.9-10.6c-0.4-3.9-0.6-7.9-2-11.6c-1.1-2.9-4-4.7-7.1-4.7C1662.1,1286.2,1661.7,1286.2,1661.4,1286.2
		L1661.4,1286.2L1661.4,1286.2z M1723.1,1637.1c0.1,0.3,0.2,0.6,0.2,0.9C1723.2,1637.7,1723.2,1637.4,1723.1,1637.1L1723.1,1637.1
		L1723.1,1637.1z"/>
	<path style="fill:#161616;" d="M1561.6,1105.2c-1.4,0-3,0.9-4.2,1.6c-2.3,1.5-3.9,3.9-5.4,6.2c-1.6,2.7-3.1,5.5-4.5,8.3
		c-1.2,2.4-2.4,4.9-2.6,7.6c-0.1,0.9,0,1.9,0.4,2.7c0.6,1.4,1.7,2.5,3,3c0.6,0.3,1.3,0.4,2,0.4c0.2,1.5,1.4,2.9,3,3
		c11.1,0.8,22.2,1.1,33.3,1.5c2.2,0.1,4.5,0.2,6.7,0.3c1.5,0,2.8,0,4-0.9c1.5-1,1.9-2.7,1.9-4.4c0-2-0.2-3.9-0.3-5.9
		c-0.1-2.3-0.2-4.7-0.4-7.1c-0.1-1.6-0.4-3.2-1.1-4.6c-0.8-1.5-1.8-2.6-3.2-3.6c-2.8-2-6.3-2.7-9.6-3.5c-4.6-1-9.3-1.9-13.9-3
		c-1.7-0.5-3.4-1-5.1-1.4c-0.6-0.2-1.2-0.3-1.8-0.4c-0.3-0.1-0.7-0.1-1.1-0.1C1562.5,1105.1,1562,1105.2,1561.6,1105.2
		L1561.6,1105.2L1561.6,1105.2z M1564.2,1115.3c-0.1,0-0.2,0-0.3,0.1C1564.1,1115.3,1564.2,1115.3,1564.2,1115.3L1564.2,1115.3
		L1564.2,1115.3z M1564,1115.5c-0.1,0-0.2,0-0.3,0C1563.8,1115.5,1563.9,1115.5,1564,1115.5L1564,1115.5L1564,1115.5z
		 M1563.5,1115.6c1.6,0.2,3.2,0.5,4.7,0.8c1.9,0.3,3.8,0.7,5.6,1c4.5,0.8,9,1.2,13.4,2.3c0.8,0.3,1.6,0.6,2.4,0.9
		c0.1,0.1,0.2,0.1,0.3,0.2c0.1,0.1,0.2,0.2,0.2,0.3c0,0.1,0,0.1,0.1,0.2c0.4,2,0.5,4.2,0.6,6.2c0.1,1.6,0.2,3.1,0.4,4.7
		c-0.1,0-0.2,0-0.3,0c-1.1,0-2.3,0-3.4,0c0.3,0,0.6,0,0.9,0c-1.5,0-2.9,0-4.4,0c-9.5,0-19-0.3-28.5-1c0.4-1,0.9-1.9,1.3-2.9
		c0.4-0.9,0.8-1.8,1.2-2.7c1.2-2.7,2.4-5.3,3.8-7.9C1562.4,1117,1562.9,1116.3,1563.5,1115.6
		C1563.5,1115.6,1563.5,1115.6,1563.5,1115.6L1563.5,1115.6L1563.5,1115.6z"/>
	<path style="fill:#161616;" d="M1362.7,1311.6c-3.4,0.5-6.6,4-5.8,7.6c1.2,5.4,2.1,10.9,2.5,16.5c0.3,5.6,0.5,11.2,0.7,16.8
		c0,15.9-0.2,31.8-0.7,47.7c-0.5,16.2-1.3,32.4-2.1,48.5c-1.5,31.1-3.6,62.2-5.7,93.2c-2.1,31.4-4.3,62.8-7.2,94.1
		c-1.5,16.2-3,32.3-4.4,48.5c-0.6,7.5-1.3,14.9-1.8,22.3c-0.5,8.1-0.4,16.2-0.2,24.3c0.2,5,0.3,10,0.3,15c0-0.6,0-1.3,0-2
		c0,0.7,0,1.4,0,2.1c0,4.8-0.3,9.6,0.2,14.3c0.2,1.8,0.5,3.5,0.7,5.3c0.1,0.8,0.1,1.6,0.3,2.4c0.2,0.8,0.4,1.7,0.7,2.5
		c0.6,1.6,1.7,2.6,2.8,3.7c1.8,1.7,4.9,1.9,7.1,1c2.2-0.9,4.4-3.3,4.4-5.8c0-1.1,0.1-2,0.1-3.1c0-0.6-0.1-1.2-0.1-1.7
		c-0.2-1.4-0.3-2.8-0.6-4.2c-0.4-2.8-0.5-5.5-0.5-8.3c0,0.7,0,1.3,0,2c0-10.9-0.3-21.8-0.5-32.7c0.1-14.8,1.6-29.7,2.9-44.4
		c1.5-16.2,2.9-32.4,4.3-48.6c2.7-31.4,4.7-63,6.7-94.5c2-32.3,3.9-64.5,5.3-96.8c1.3-31.7,2.4-63.5,1.2-95.3c0-1.5-0.2-3-0.3-4.5
		c-0.2-2.1-0.2-4.2-0.5-6.2c-0.3-2.1-0.6-4.2-0.9-6.3c-0.3-2.5-1-5-1.5-7.4c-0.4-1.8-1.1-3.3-2.6-4.5c-1.2-0.9-2.6-1.4-4.1-1.4
		C1363.3,1311.6,1363,1311.6,1362.7,1311.6L1362.7,1311.6L1362.7,1311.6z M1338.3,1745.5c0,0.2,0,0.5,0,0.7
		C1338.3,1746,1338.3,1745.7,1338.3,1745.5L1338.3,1745.5L1338.3,1745.5z"/>
	<path style="fill:#161616;" d="M1401.7,1300.1c-3.7,0.8-7.2,2.6-10.7,4c-3.7,1.4-5.5,5.9-4,9.5c1.5,3.7,5.8,5.4,9.5,4
		c1.6-0.6,3.2-1.2,4.8-1.9c2-0.8,3.9-1.5,5.7-2.8c2.6-1.9,3.5-5.5,2.3-8.5c-1-2.5-3.7-4.6-6.5-4.6
		C1402.4,1300,1402.1,1300,1401.7,1300.1L1401.7,1300.1L1401.7,1300.1z"/>
</g>
</svg>
