<?xml version="1.0" encoding="utf-8"?>
<!-- Generator: Adobe Illustrator 22.1.0, SVG Export Plug-In . SVG Version: 6.00 Build 0)  -->
<svg version="1.1" id="Layer_1" xmlns="http://www.w3.org/2000/svg" xmlns:xlink="http://www.w3.org/1999/xlink" x="0px" y="0px"
	 viewBox="0 0 2000 2000" style="enable-background:new 0 0 2000 2000;" xml:space="preserve">
<g>
	<path style="fill:#161616;" d="M1049.3,256.9c-5.4,0.1-10.8,0.2-16.2,0.5c-0.2,0-0.3,0-0.5,0c-0.1,0-0.2,0-0.3,0
		c-38.9,1.6-77.6,6.5-115.7,14.2c-19.5,4-38.8,8.8-57.9,14.5c-34.3,10.1-67.8,22.9-100.2,38.1c-0.1,0-0.2,0.1-0.3,0.1
		c-0.3,0.2-0.7,0.3-1,0.5c-27.7,13.1-54.6,27.9-80.5,44.4c-15.5,9.9-30.6,20.4-45.3,31.5c0,0-0.1,0.1-0.1,0.1
		c-0.5,0.4-1,0.8-1.5,1.1c-0.1,0-0.1,0.1-0.2,0.1c-0.5,0.3-0.9,0.7-1.4,1c-0.1,0.1-0.2,0.2-0.3,0.2c-0.4,0.3-0.8,0.6-1.3,1
		c-0.1,0.1-0.2,0.2-0.4,0.3c-0.4,0.3-0.7,0.6-1.1,0.9c-0.2,0.2-0.4,0.3-0.6,0.5c-0.3,0.2-0.6,0.5-0.9,0.7c-0.2,0.2-0.4,0.3-0.6,0.5
		c-0.3,0.2-0.6,0.5-0.9,0.7c-0.2,0.2-0.5,0.4-0.7,0.6c-0.3,0.2-0.5,0.4-0.8,0.6c-0.3,0.2-0.5,0.4-0.8,0.6c-0.2,0.2-0.5,0.4-0.7,0.5
		c-0.3,0.3-0.6,0.5-1,0.8c-0.1,0.1-0.2,0.2-0.4,0.3c-0.4,0.3-0.8,0.6-1.2,0.9c-0.1,0.1-0.3,0.2-0.4,0.3c-1.9,1.5-3.8,3-5.7,4.6
		c0,0,0,0,0,0c-0.5,0.4-1,0.8-1.5,1.2c0,0,0,0,0,0c-0.4,0.3-0.7,0.6-1.1,0.9c-0.2,0.1-0.3,0.3-0.5,0.4c-0.3,0.3-0.7,0.5-1,0.8
		c-0.2,0.1-0.4,0.3-0.5,0.4c-0.3,0.3-0.6,0.5-0.9,0.8c-0.2,0.2-0.4,0.4-0.7,0.6c-0.3,0.2-0.5,0.4-0.8,0.7c-0.2,0.2-0.5,0.4-0.7,0.6
		c-0.2,0.2-0.5,0.4-0.7,0.6c-0.3,0.2-0.6,0.5-0.9,0.7c-0.2,0.2-0.4,0.3-0.6,0.5c-0.3,0.3-0.6,0.5-0.9,0.8c-0.2,0.2-0.4,0.3-0.6,0.5
		c-0.4,0.3-0.7,0.6-1.1,0.9c-0.1,0.1-0.2,0.2-0.3,0.3c-0.4,0.4-0.9,0.7-1.3,1.1c-0.1,0-0.1,0.1-0.2,0.1c-6.1,5.2-12.1,10.5-18,15.9
		c-4.4,4-8.8,8.2-13.1,12.3c0,0-0.1,0.1-0.1,0.1c-0.1,0.1-0.2,0.2-0.3,0.3c-32.5,31.3-62,65.8-88.1,102.7
		c-16.2,22.8-30.9,46.5-44.3,71.1c-2.2,4-4.4,8.1-6.5,12.1c-3.9,7.6-7.7,15.2-11.4,22.9c-0.1,0.2-0.2,0.4-0.3,0.6
		c-0.1,0.2-0.2,0.5-0.3,0.7c-11.9,25.2-22.3,51.1-31.2,77.4c-2.2,6.5-4.3,13-6.3,19.5c-2,6.4-3.8,12.9-5.6,19.4
		c0,0.1-0.1,0.3-0.1,0.4c0,0,0,0.1,0,0.1c-9.2,33.7-15.7,68-19.9,102.7c-0.3,2.3-0.5,4.6-0.8,6.8c-2.1,18.7-3.5,37.4-4.1,56.2
		c0,0,0,0.1,0,0.1c0,0.5,0,1,0,1.6c0,0.2,0,0.5,0,0.7c0,0.4,0,0.7,0,1.1c0,0.4,0,0.8,0,1.2c0,0.2,0,0.4,0,0.6c0,0.6,0,1.1,0,1.7
		c0,0.1,0,0.1,0,0.2c-0.8,35.1,1.1,70.2,5.4,105.1c2,16.3,4.6,32.6,7.8,48.7c0,0.2,0.1,0.5,0.1,0.7c0.1,0.3,0.1,0.6,0.2,0.9
		c3.3,16.9,7.3,33.7,11.8,50.3c11.5,42.1,27,83,46.1,122.3c4.3,8.9,8.8,17.7,13.5,26.4c17.7,33,38.1,64.6,60.8,94.4
		c0,0,0.1,0.1,0.1,0.1c0.2,0.2,0.3,0.4,0.5,0.6c19.9,26.1,41.7,50.9,64.9,74.1c4.6,4.6,9.3,9.2,14.1,13.7c0.2,0.2,0.4,0.4,0.6,0.6
		c0.2,0.2,0.5,0.4,0.7,0.6c7.2,6.7,14.5,13.3,22,19.8c0.1,0,0.1,0.1,0.2,0.1c0.1,0.1,0.2,0.2,0.3,0.3c13.8,11.9,28.1,23.3,42.8,34.1
		c1.9,1.4,3.7,2.7,5.6,4.1c61.9,44.9,131.1,79.4,204,102.5c54,17.1,110,27.4,166.5,31.2c5.4,0.4,10.9,0.7,16.3,0.9
		c38.2,1.8,76.5,0.4,114.5-4c27.8-3.2,55.4-8.1,82.7-14.4c17.1-4,34.1-8.7,50.8-14c1.9-0.6,3.9-1.2,5.8-1.9
		c25.9-8.4,51.3-18.3,76.1-29.7c31-14.1,60.8-30.5,89.4-48.9c14.8-9.5,29.2-19.6,43.3-30.2c0.6-0.5,1.3-1,1.9-1.4
		c7.8-5.9,15.5-12,23.1-18.2c7.6-6.3,15.1-12.7,22.4-19.2c41.6-37.1,78.7-79.2,110.5-125c2.7-3.9,5.4-7.8,8-11.7
		c14.2-21.1,27.2-43,38.9-65.5c0-0.1,0.1-0.2,0.2-0.3c0-0.1,0.1-0.1,0.1-0.2c17-32.4,31.4-66.2,43.1-100.9
		c5.1-14.9,9.7-30,13.7-45.2c1.6-5.8,3-11.6,4.4-17.4c5-20.6,9-41.4,12-62.3c0-0.1,0-0.2,0-0.3c0-0.2,0-0.3,0.1-0.5
		c3-20.4,5.1-41,6.3-61.6c0.1-2.1,0.2-4.2,0.4-6.3c2.3-44.6,0.3-89.4-5.7-133.7c-0.6-4.6-1.3-9.1-2-13.6c0-0.1,0-0.3-0.1-0.4
		c0-0.2-0.1-0.4-0.1-0.6c-1.8-11.4-3.8-22.7-6.1-33.9c-7-34.2-16.6-67.9-28.7-100.7c-12.7-34.7-28.3-68.4-46.1-100.8
		c-5.6-10.1-11.5-20.1-17.6-30c-16.3-26.3-34.5-51.6-54-75.6c-0.4-0.5-0.8-1-1.2-1.5c-5.6-6.9-11.4-13.6-17.2-20.3
		c0,0-0.1-0.1-0.1-0.1c-0.2-0.2-0.4-0.5-0.6-0.7c-9-10.2-18.3-20.1-27.9-29.7c-16.8-16.9-34.4-33-52.9-48.1
		c-8.3-6.8-16.7-13.5-25.3-19.9c0,0,0,0,0,0c-0.4-0.3-0.8-0.6-1.2-0.9c-0.1-0.1-0.3-0.2-0.4-0.3c-0.3-0.2-0.6-0.5-0.9-0.7
		c-0.2-0.2-0.4-0.3-0.7-0.5c-0.2-0.2-0.5-0.3-0.7-0.5c-0.3-0.2-0.6-0.4-0.9-0.7c-0.2-0.1-0.3-0.3-0.5-0.4c-0.4-0.3-0.8-0.6-1.1-0.8
		c-0.1,0-0.1-0.1-0.2-0.1c-0.5-0.3-0.9-0.7-1.4-1c0,0,0,0,0,0c-1-0.7-2-1.5-3-2.2c0,0,0,0,0,0c-3-2.2-6.1-4.4-9.2-6.5
		c-0.1,0-0.1-0.1-0.2-0.1c-0.4-0.3-0.9-0.6-1.3-0.9c-0.1-0.1-0.2-0.2-0.4-0.2c-0.3-0.2-0.7-0.5-1-0.7c-0.2-0.2-0.5-0.3-0.7-0.5
		c-0.2-0.2-0.5-0.3-0.7-0.5c-0.3-0.2-0.6-0.4-0.9-0.6c-0.2-0.1-0.3-0.2-0.5-0.3c-0.4-0.3-0.9-0.6-1.3-0.9c0,0,0,0,0,0
		c-11.2-7.6-22.7-15-34.3-22c-8.4-5.1-16.9-9.9-25.5-14.6c-11.8-6.4-23.8-12.5-35.9-18.3c-13.5-6.4-27.1-12.4-41-17.9
		c-1.4-0.6-2.9-1.2-4.3-1.7c-1.9-0.8-3.8-1.5-5.8-2.2c-12.1-4.7-24.3-9-36.6-12.9c-45.2-14.6-92-24.5-139.2-29.7
		c-26.4-3-53.1-4.5-79.7-4.5C1058,256.8,1053.7,256.8,1049.3,256.9L1049.3,256.9L1049.3,256.9z M1143.7,276.9
		c4.2,0.5,8.4,1,12.6,1.5c8.9,1.2,17.7,2.6,26.6,4.2c0.1,0,0.2,0,0.3,0c0.7,0.1,1.4,0.2,2,0.4c0.4,0.1,0.7,0.1,1.1,0.2
		c0.4,0.1,0.8,0.2,1.3,0.2c0.6,0.1,1.2,0.2,1.8,0.3c0.2,0,0.4,0.1,0.6,0.1c18.1,3.4,36.1,7.4,54,12.2c0.3,0.1,0.7,0.2,1,0.3
		c0.4,0.1,0.9,0.2,1.3,0.4c0.7,0.2,1.5,0.4,2.2,0.6c0,0,0.1,0,0.1,0c23.5,6.4,46.6,14.2,69.2,23c0.1,0,0.1,0,0.2,0.1
		c0.8,0.3,1.5,0.6,2.3,0.9c0.6,0.2,1.1,0.4,1.7,0.7c0.2,0.1,0.5,0.2,0.7,0.3c3.5,1.4,6.9,2.8,10.4,4.2
		c28.7,12.2,56.5,26.1,83.4,41.9c14.2,8.3,28.1,17.1,41.6,26.5c0.2,0.1,0.4,0.3,0.6,0.4c0.3,0.2,0.7,0.5,1,0.7
		c0.5,0.3,0.9,0.6,1.4,1c0.1,0.1,0.2,0.1,0.3,0.2c9.7,6.7,19.2,13.7,28.5,20.9c23.7,18.4,46.2,38.2,67.4,59.4
		c10.8,10.8,21.3,21.9,31.4,33.4c0,0,0,0,0,0c0.6,0.7,1.2,1.3,1.8,2c0.1,0.1,0.1,0.2,0.2,0.2c0.5,0.6,1.1,1.2,1.6,1.8
		c0.1,0.1,0.3,0.3,0.4,0.4c0.5,0.6,1,1.1,1.5,1.7c0.1,0.2,0.3,0.3,0.4,0.5c0.5,0.6,1,1.1,1.4,1.7c0.2,0.2,0.3,0.4,0.5,0.6
		c0.5,0.5,0.9,1.1,1.4,1.6c0.1,0.2,0.3,0.3,0.4,0.5c0.5,0.6,1,1.2,1.5,1.7c0.1,0.1,0.2,0.3,0.3,0.4c0.5,0.6,1.1,1.3,1.6,1.9
		c0,0,0.1,0.1,0.1,0.1c5.1,6.1,10.1,12.3,15,18.6c13.2,17.1,25.5,34.8,37.1,53c0,0,0,0,0,0.1c0.4,0.7,0.9,1.4,1.3,2.1
		c0.1,0.1,0.2,0.3,0.2,0.4c0.4,0.6,0.8,1.2,1.2,1.9c0.1,0.2,0.3,0.4,0.4,0.6c0.3,0.5,0.7,1.1,1,1.6c0.2,0.3,0.4,0.6,0.5,0.9
		c0.3,0.5,0.6,0.9,0.9,1.4c0.2,0.4,0.4,0.7,0.7,1.1c0.2,0.4,0.5,0.8,0.7,1.2c0.3,0.5,0.6,0.9,0.8,1.4c0.2,0.3,0.4,0.6,0.6,0.9
		c0.3,0.5,0.6,1.1,1,1.6c0.1,0.2,0.3,0.5,0.4,0.7c0.4,0.6,0.7,1.2,1.1,1.8c0.1,0.2,0.2,0.3,0.3,0.5c0.4,0.7,0.8,1.3,1.2,2
		c0.1,0.1,0.1,0.2,0.2,0.3c0.4,0.7,0.9,1.4,1.3,2.2c0.1,0.1,0.1,0.2,0.2,0.4c0.4,0.6,0.8,1.3,1.1,1.9c0.2,0.3,0.4,0.7,0.6,1.1
		c0.2,0.4,0.5,0.8,0.7,1.3c0.3,0.6,0.7,1.1,1,1.7c0.1,0.2,0.2,0.4,0.4,0.6c0.5,0.8,0.9,1.6,1.3,2.4l0,0c13.3,23.6,25.2,48,35.8,72.9
		c5.3,12.8,10.2,25.7,14.8,38.7c0,0,0,0.1,0,0.1c0.3,0.9,0.6,1.8,0.9,2.6c0,0,0,0.1,0.1,0.1c0.3,0.8,0.6,1.7,0.9,2.5
		c0,0.1,0.1,0.2,0.1,0.3c0.3,0.8,0.5,1.6,0.8,2.4c0,0.1,0.1,0.2,0.1,0.3c0.3,0.8,0.5,1.6,0.8,2.4c0.1,0.2,0.1,0.3,0.2,0.5
		c0.2,0.7,0.5,1.5,0.7,2.2c0.1,0.2,0.2,0.5,0.2,0.7c0.2,0.7,0.4,1.4,0.7,2c0.1,0.2,0.2,0.5,0.2,0.7c0.2,0.7,0.4,1.3,0.6,2
		c0.1,0.3,0.2,0.6,0.3,0.9c0.2,0.6,0.4,1.2,0.6,1.8c0.1,0.3,0.2,0.7,0.3,1c0.2,0.6,0.4,1.2,0.5,1.7c0.1,0.4,0.2,0.8,0.4,1.2
		c0.2,0.5,0.3,1,0.5,1.5c0.1,0.5,0.3,0.9,0.4,1.4c0.1,0.5,0.3,0.9,0.4,1.4c0.2,0.6,0.4,1.3,0.6,1.9c0.1,0.3,0.2,0.5,0.2,0.8
		c0.2,0.7,0.4,1.4,0.6,2.1c0.1,0.2,0.1,0.5,0.2,0.7c0.2,0.7,0.4,1.4,0.6,2.1c0.1,0.2,0.1,0.4,0.2,0.6c0.2,0.7,0.4,1.5,0.6,2.2
		c0.1,0.2,0.1,0.4,0.2,0.6c0.5,1.9,1,3.7,1.6,5.6c8.4,30.3,14.5,61.1,18.8,92.2c8.1,62.2,8,125.2-0.1,187.4c0-0.1,0-0.3,0.1-0.4
		c-4.3,31-10.5,61.7-18.7,92c-6.4,23.5-14.1,46.6-22.9,69.3c0,0,0,0.1,0,0.1c-0.3,0.8-0.6,1.6-1,2.5c-0.1,0.2-0.2,0.4-0.2,0.6
		c-0.3,0.6-0.5,1.3-0.8,1.9c-0.1,0.3-0.3,0.7-0.4,1c-0.2,0.5-0.4,1-0.6,1.5c-0.2,0.5-0.4,1-0.6,1.5c-0.1,0.4-0.3,0.7-0.4,1.1
		c-0.2,0.6-0.5,1.1-0.7,1.7c-0.1,0.3-0.3,0.6-0.4,0.9c-0.3,0.6-0.5,1.2-0.8,1.8c-0.1,0.3-0.2,0.5-0.3,0.8c-0.3,0.6-0.5,1.3-0.8,1.9
		c0,0.1-0.1,0.2-0.1,0.2c0.1-0.2,0.1-0.3,0.2-0.5c-11.8,27.7-25.2,54.5-40.3,80.5c-11,18.9-22.9,37.3-35.6,55.1c0,0,0,0,0,0
		c-0.5,0.7-1,1.4-1.5,2c-0.1,0.1-0.2,0.3-0.3,0.4c-0.4,0.6-0.8,1.2-1.3,1.7c-0.2,0.2-0.3,0.4-0.5,0.6c-0.3,0.5-0.7,0.9-1,1.4
		c-0.2,0.3-0.5,0.6-0.7,1c-0.3,0.4-0.5,0.7-0.8,1.1c-0.3,0.4-0.6,0.9-0.9,1.3c-0.2,0.2-0.4,0.5-0.5,0.7c-0.4,0.5-0.8,1.1-1.2,1.6
		c-0.1,0.1-0.2,0.3-0.3,0.4c-0.5,0.6-1,1.3-1.4,1.9c0,0,0,0,0,0.1c-1.6,2.2-3.3,4.4-5,6.5c0,0-0.1,0.1-0.1,0.1
		c-0.1,0.1-0.2,0.3-0.3,0.4c-0.5,0.6-1,1.3-1.5,1.9c-0.1,0.1-0.1,0.2-0.2,0.3c-0.5,0.7-1.1,1.4-1.6,2.1c0,0-0.1,0.1-0.1,0.1
		c-16.9,21.3-34.9,41.7-54.1,61c-21.6,21.8-44.8,42.1-69,61c-22.7,17.4-46.3,33.4-70.8,48c0,0,0,0-0.1,0c-0.7,0.4-1.5,0.9-2.2,1.3
		c-0.1,0.1-0.3,0.2-0.4,0.3c-26.6,15.7-54.2,29.5-82.6,41.5c0,0-0.1,0-0.1,0c0,0,0,0,0,0c0,0,0,0,0,0c0,0-0.1,0-0.1,0
		c-0.2,0.1-0.3,0.1-0.5,0.2c0.1-0.1,0.3-0.1,0.4-0.2c-28.2,11.7-57,21.7-86.4,29.8c-24.4,6.7-49.3,12-74.3,16.1
		c-5.3,0.8-10.5,1.6-15.8,2.4c-62.7,8.3-126.2,8.4-188.9,0.2c-32-4.4-63.7-10.9-94.9-19.6c-28.7-7.9-56.8-17.8-84.2-29.3
		c0.1,0,0.2,0.1,0.3,0.1c-0.2-0.1-0.4-0.1-0.5-0.2c-0.2-0.1-0.4-0.2-0.6-0.2c-0.1-0.1-0.3-0.1-0.4-0.2c0.1,0,0.2,0.1,0.3,0.1
		c-27.6-11.8-54.4-25.3-80.3-40.5c-25.7-15-50.4-31.8-74-49.9c-5.8-4.5-11.5-9-17.1-13.7c0,0-0.1-0.1-0.1-0.1
		c-0.3-0.2-0.6-0.5-0.9-0.7c-17.2-14.3-33.8-29.3-49.6-45.1c-12.4-12.4-24.4-25.2-35.8-38.5c-0.3-0.3-0.5-0.6-0.8-0.9
		c-0.1-0.1-0.2-0.3-0.3-0.4c-8-9.3-15.8-18.9-23.3-28.6c-1.4-1.8-2.8-3.7-4.2-5.5c-0.1-0.2-0.3-0.3-0.4-0.5c-0.4-0.5-0.7-1-1.1-1.5
		c-0.3-0.4-0.6-0.8-0.8-1.1c-0.2-0.3-0.4-0.6-0.7-0.9c-0.4-0.6-0.8-1.1-1.2-1.7c-0.1-0.1-0.2-0.3-0.3-0.4
		c-11.8-16-22.9-32.5-33.3-49.5l0,0c-0.4-0.7-0.8-1.3-1.2-2c-0.2-0.3-0.3-0.5-0.5-0.8c-0.3-0.4-0.5-0.8-0.7-1.2
		c-0.3-0.5-0.6-1-0.9-1.5c-0.1-0.1-0.2-0.3-0.2-0.4c-1.4-2.3-2.8-4.7-4.2-7.1c-15.5-26.5-29.2-54-41.2-82.3c0.1,0.2,0.1,0.3,0.2,0.5
		c0-0.1-0.1-0.2-0.1-0.3c-0.1-0.3-0.2-0.6-0.3-0.8c0-0.1-0.1-0.2-0.1-0.3c-6.3-15.1-12-30.5-17.3-46c-0.1-0.2-0.1-0.4-0.2-0.6
		c-0.2-0.7-0.5-1.4-0.7-2.1c-0.1-0.4-0.3-0.9-0.4-1.3c-0.1-0.4-0.3-0.9-0.4-1.3c-0.2-0.7-0.5-1.4-0.7-2.1c-0.1-0.2-0.1-0.4-0.2-0.6
		c-3.2-10-6.3-20-9.1-30.2c-1.8-6.5-3.5-13.1-5.1-19.7c0-0.2-0.1-0.4-0.1-0.6c-0.1-0.5-0.2-1-0.4-1.5c-0.1-0.5-0.3-1.1-0.4-1.6
		c0-0.1,0-0.2-0.1-0.3c-5.3-22.5-9.5-45.2-12.7-68.1c-0.4-2.7-0.7-5.5-1-8.3c0-0.1,0-0.1,0-0.1c-0.1-0.9-0.2-1.8-0.3-2.7
		c0-0.2,0-0.4-0.1-0.5c-0.1-0.8-0.2-1.6-0.3-2.3c0-0.3-0.1-0.5-0.1-0.8c-0.1-0.7-0.2-1.4-0.2-2.1c0-0.4-0.1-0.8-0.1-1.2
		c-0.1-0.6-0.1-1.2-0.2-1.7c0-0.5-0.1-0.9-0.1-1.4c0-0.5-0.1-1-0.1-1.5c-0.1-0.6-0.1-1.2-0.2-1.7c0-0.4-0.1-0.8-0.1-1.2
		c-0.1-0.7-0.1-1.3-0.2-2c0-0.3-0.1-0.6-0.1-0.9c-0.1-0.7-0.1-1.5-0.2-2.2c0-0.2,0-0.5-0.1-0.7c-0.1-0.9-0.1-1.7-0.2-2.6
		c0-0.1,0-0.2,0-0.3c-0.1-0.9-0.2-1.9-0.2-2.8c0,0,0-0.1,0-0.1c-3.9-50-2.7-100.3,3.8-150.1c0.2-1.5,0.4-3.1,0.6-4.6
		c0-0.1,0-0.2,0-0.3c0.1-0.7,0.2-1.5,0.3-2.2c0-0.3,0.1-0.6,0.1-0.9c0.1-0.5,0.2-1,0.2-1.5c0.1-0.5,0.2-1.1,0.2-1.6
		c0-0.3,0.1-0.6,0.1-1c0.1-0.7,0.2-1.4,0.3-2.1c0-0.1,0-0.3,0.1-0.4c0.1-0.8,0.3-1.7,0.4-2.5c0,0,0-0.1,0-0.1
		c1.2-7.6,2.6-15.2,4-22.7c0-0.1,0-0.2,0.1-0.3c0.2-0.8,0.3-1.7,0.5-2.5c0-0.2,0.1-0.4,0.1-0.7c0.1-0.7,0.3-1.4,0.4-2.1
		c0.1-0.4,0.2-0.8,0.3-1.3c0.1-0.5,0.2-1,0.3-1.5c0.1-0.7,0.3-1.3,0.4-2c0-0.2,0.1-0.5,0.1-0.7c2.8-13.4,6-26.6,9.5-39.8
		c8.2-30.5,18.7-60.5,31-89.6c0.2-0.4,0.3-0.8,0.5-1.1c0-0.1,0.1-0.1,0.1-0.2c5.9-13.6,12.1-27,18.8-40.2c0.1-0.1,0.1-0.2,0.1-0.3
		c0.3-0.6,0.6-1.2,0.9-1.9c0.2-0.3,0.3-0.6,0.5-0.9c0.2-0.4,0.4-0.9,0.7-1.3c0.3-0.5,0.5-1,0.8-1.5c0.1-0.2,0.2-0.5,0.4-0.7
		c0.4-0.7,0.8-1.5,1.1-2.2c0,0,0-0.1,0.1-0.1c5.4-10.3,11-20.5,16.9-30.5c5.1-8.8,10.5-17.4,16-25.9c0,0,0,0,0,0
		c0.4-0.7,0.9-1.4,1.3-2.1c0.2-0.2,0.3-0.5,0.5-0.7c0.3-0.5,0.6-0.9,0.9-1.4c0.3-0.4,0.6-0.9,0.9-1.3c0.2-0.3,0.4-0.6,0.6-0.9
		c0.4-0.7,0.9-1.3,1.3-2c0.1-0.1,0.1-0.2,0.2-0.2c8.8-13.1,18-26,27.6-38.5c18.8-24.3,39.2-47.3,60.9-69.1c1.9-1.9,3.8-3.8,5.7-5.7
		c0.2-0.2,0.4-0.3,0.5-0.5c0.3-0.3,0.7-0.6,1-1c0.5-0.5,1-1,1.5-1.5c0.1-0.1,0.1-0.1,0.2-0.2c13.4-12.9,27.3-25.2,41.7-37
		c0,0,0.1-0.1,0.1-0.1c0.7-0.5,1.3-1.1,2-1.6c0.2-0.2,0.5-0.4,0.7-0.6c0.5-0.4,1-0.8,1.4-1.2c0.4-0.3,0.7-0.6,1.1-0.9
		c0.3-0.3,0.7-0.5,1-0.8c0.5-0.4,0.9-0.7,1.4-1.1c0.2-0.2,0.5-0.4,0.7-0.6c0.6-0.4,1.1-0.9,1.7-1.3c0.1-0.1,0.3-0.2,0.4-0.3
		c0.6-0.5,1.3-1,1.9-1.5c0.1-0.1,0.2-0.1,0.3-0.2c0.7-0.5,1.4-1.1,2.1-1.6c0,0,0,0,0,0c0.5-0.4,1-0.8,1.5-1.1
		c23.7-18.1,48.4-34.8,74.1-49.9c0.3-0.2,0.6-0.3,0.8-0.5c0.2-0.1,0.5-0.3,0.7-0.4c19.2-11.2,39-21.5,59.2-30.8
		c0.1-0.1,0.3-0.1,0.4-0.2c0.7-0.3,1.3-0.6,2-0.9c0.3-0.1,0.6-0.3,0.9-0.4c0.5-0.2,1-0.4,1.5-0.7c0.5-0.2,1-0.4,1.4-0.7
		c0.3-0.1,0.6-0.3,0.9-0.4c0.7-0.3,1.3-0.6,2-0.9c0.1,0,0.2-0.1,0.3-0.1c3.6-1.6,7.3-3.2,11-4.8c0.3-0.1,0.6-0.2,0.9-0.4
		c0.6-0.3,1.2-0.5,1.8-0.7c0.3-0.1,0.7-0.3,1-0.4c0.5-0.2,1-0.4,1.6-0.6c0.5-0.2,0.9-0.4,1.4-0.6c0.4-0.2,0.8-0.3,1.2-0.5
		c0.6-0.2,1.2-0.5,1.8-0.7c0.3-0.1,0.6-0.2,0.8-0.3c0.8-0.3,1.6-0.7,2.5-1c0.1,0,0.1-0.1,0.2-0.1c3.6-1.4,7.3-2.9,11-4.2
		c0.1,0,0.1,0,0.2-0.1c0.9-0.3,1.7-0.6,2.6-1c0.1,0,0.2-0.1,0.3-0.1c0.8-0.3,1.6-0.6,2.4-0.9c0.1-0.1,0.3-0.1,0.4-0.2
		c0.8-0.3,1.5-0.6,2.3-0.8c0.2-0.1,0.4-0.1,0.6-0.2c0.7-0.3,1.5-0.5,2.2-0.8c0.2-0.1,0.4-0.1,0.6-0.2c0.7-0.3,1.5-0.5,2.2-0.8
		c0.2-0.1,0.4-0.1,0.6-0.2c0.7-0.3,1.5-0.5,2.2-0.8c0.2-0.1,0.3-0.1,0.5-0.2c0.7-0.3,1.5-0.5,2.2-0.8c0.2-0.1,0.4-0.1,0.6-0.2
		c0.8-0.3,1.5-0.5,2.3-0.8c0.1,0,0.3-0.1,0.4-0.1c0.8-0.3,1.6-0.5,2.4-0.8c0.1,0,0.2-0.1,0.4-0.1c0.8-0.3,1.7-0.6,2.5-0.8
		c0.1,0,0.1,0,0.2-0.1c0.9-0.3,1.8-0.6,2.6-0.9c0,0,0.1,0,0.1,0c11.2-3.7,22.5-7,33.8-10.2c29.8-8.2,60.1-14.2,90.7-18.4
		c1.2-0.2,2.3-0.3,3.5-0.4c0.1,0,0.2,0,0.2,0c0.8-0.1,1.5-0.2,2.3-0.3c0.4,0,0.7-0.1,1.1-0.1c0.5-0.1,0.9-0.1,1.4-0.2
		c0.6-0.1,1.3-0.2,1.9-0.2c0.2,0,0.4,0,0.6-0.1C1034.2,270.7,1089.2,270.7,1143.7,276.9L1143.7,276.9L1143.7,276.9z M1488.9,417.2
		c0.1,0.1,0.2,0.2,0.3,0.2c0.2,0.1,0.3,0.3,0.5,0.4C1489.4,417.6,1489.2,417.4,1488.9,417.2L1488.9,417.2L1488.9,417.2z
		 M1489.7,417.8C1489.7,417.8,1489.8,417.8,1489.7,417.8c0.1,0.1,0.1,0.1,0.1,0.1C1489.8,417.8,1489.7,417.8,1489.7,417.8
		L1489.7,417.8L1489.7,417.8z M1616.9,544.8c0.2,0.2,0.4,0.5,0.6,0.7c0.1,0.1,0.2,0.2,0.3,0.3
		C1617.5,545.5,1617.2,545.1,1616.9,544.8L1616.9,544.8L1616.9,544.8z M1708,700.3C1708,700.3,1708,700.3,1708,700.3
		c0.1,0.3,0.2,0.6,0.4,0.8C1708.3,700.9,1708.1,700.6,1708,700.3L1708,700.3L1708,700.3z M415.4,1245
		C415.4,1245,415.4,1245,415.4,1245C415.4,1245,415.4,1245,415.4,1245L415.4,1245L415.4,1245z M507.4,1402.3
		C507.4,1402.3,507.4,1402.3,507.4,1402.3C507.5,1402.3,507.4,1402.3,507.4,1402.3C507.4,1402.3,507.4,1402.3,507.4,1402.3
		L507.4,1402.3L507.4,1402.3z M1157.2,1668.2c-0.4,0.1-0.8,0.1-1.1,0.2C1156.4,1668.3,1156.8,1668.2,1157.2,1668.2L1157.2,1668.2
		L1157.2,1668.2z M1333.7,1619.9C1333.8,1619.9,1333.8,1619.9,1333.7,1619.9c0.1,0,0.1-0.1,0.2-0.1
		C1333.8,1619.9,1333.8,1619.9,1333.7,1619.9L1333.7,1619.9L1333.7,1619.9z M788.5,1619.2c0.2,0.1,0.5,0.2,0.7,0.3
		c-0.3-0.1-0.6-0.2-0.9-0.4C788.4,1619.1,788.5,1619.1,788.5,1619.2L788.5,1619.2L788.5,1619.2z"/>
	<path style="fill:#161616;" d="M632.5,581.7c-1.3,0.1-3,0.7-4,1.2c-1.3,0.6-2.4,1.4-3.5,2.2c-1.1,0.7-2,1.9-2.8,2.9
		c-1.3,1.5-2.2,3-3,4.8c-2.4,5.2-3.4,10.9-4.5,16.5c-0.5,2.7-0.9,5.4-1.4,8.1c-0.7,4.1-1,8.2-1.3,12.3c-0.3,3.9-0.2,7.9,0,11.7
		c0.2,4.1,0.4,8.1,0.6,12.2c0.9,11.8,1.9,23.5,2.8,35.3c0.7,10.2,1.3,20.4,1.6,30.6c0.2,5.1,0.1,10.3,0,15.4
		c-0.1,4.9-0.4,9.7-1.1,14.5c-1.1,4.9-2.7,9.5-4.8,14.1c-1.5,2.8-3.1,5.4-5.1,7.8c-5.7,6.1-12.4,11-19,16
		c-6.3,4.7-12.6,9.4-18.5,14.5c-6.7,5.8-12.7,12.5-18.2,19.5c-2.6,3.3-4.8,7-6.9,10.6c-2,3.3-4,6.8-5.7,10.3c0,0,0,0,0,0.1
		c0.1-0.2,0.2-0.3,0.2-0.5c-0.1,0.2-0.2,0.3-0.3,0.5c-0.2,0.4-0.4,0.7-0.6,1.1c-0.4,0.7-0.7,1.4-1,2.1c-0.2,0.3-0.3,0.6-0.5,0.9
		c-0.5,1-0.9,2.1-1.4,3.2c-0.9,2-1.7,4.1-2.5,6.1c-3,7.4-5.5,15.1-7.7,22.8c-2.6,9.2-4.4,18.6-6.1,28c-1.4,7.8-2.7,15.7-3.6,23.5
		c-3.9,34.7-5.5,69.6-7.8,104.4c-1.1,16.5-2.2,33.1-3.1,49.6c-0.9,17.7-1.4,35.4-1.4,53.2c0,33.7,0.9,67.3,2.2,101
		c0.7,17.3,2,34.6,5.4,51.6c1.7,8.6,4.5,17,7.9,25.1c1.6,3.7,3.6,7.2,5.8,10.6c2.7,4.1,5.5,8,8.6,11.7c5.4,6.6,12.1,12.3,18.9,17.4
		c7.1,5.3,15,9.4,23.2,12.9c7.5,3.3,15.2,6.1,23.1,8.5c8.5,2.6,17.2,4.5,26,6c7.4,1.2,14.9,2.1,22.4,2.7c7.8,0.6,15.7,1.4,23.5,1
		c2.1-0.1,3.8-0.4,5.4-1.9c1.5-1.3,2.4-3.2,2.5-5.1c0.3-4.1-2.9-7.5-7-7.9c-4.4-0.4-8.7-0.5-13.1-0.7c-4.3-0.3-8.7-0.6-13-1
		c-8.5-0.8-16.9-2-25.3-3.5c-3.1-0.6-6.2-1.3-9.3-2.1c-3.9-1.1-7.8-2.2-11.6-3.5c-7.7-2.5-15.1-5.5-22.5-8.8
		c-3.6-1.8-7.2-3.7-10.6-5.9c-3.9-2.6-7.6-5.4-11.3-8.4c-2.6-2.4-5.2-4.8-7.6-7.4c-2.8-3.2-5.4-6.4-7.9-9.9c-1.8-2.8-3.6-5.6-5-8.6
		c-1.5-3.2-2.9-6.4-4.1-9.7c-2.2-7.1-3.9-14.3-5.2-21.6c-1.3-7.5-2.1-15-2.8-22.5c-1.1-16.5-1.6-33-2.1-49.5
		c-0.6-16.6-0.8-33.3-0.9-50c-0.2-16.8-0.3-33.6,0.3-50.3c0.6-17.2,1.7-34.3,2.7-51.5c1.1-17.7,2.3-35.4,3.4-53.1
		c1-16.8,2-33.6,3.5-50.4c0.9-9.7,1.9-19.4,3.2-29.1c1.1-8.4,2.7-16.7,4.2-25c0.9-3.9,1.7-7.9,2.8-11.8c1.1-4,2.3-8.1,3.7-12.1
		c1.3-4.1,2.8-8.1,4.3-12.2c1.3-3.4,2.5-6.8,4.1-10c0.2-0.4,0.5-0.8,0.6-1.2c0.2-0.3,0.3-0.6,0.5-1c0.1-0.2,0.2-0.3,0.2-0.5
		c2.3-4.4,4.8-8.6,7.4-12.9c2.6-4.3,5.7-8.2,8.9-12.1c5.4-6,11.2-11.4,17.5-16.5c6.1-4.9,12.6-9.4,18.8-14.2c3.4-2.7,6.8-5.5,10-8.5
		c4-3.8,7.4-8.2,10.1-13.1c4.1-7.5,6.8-15.7,7.9-24.2c0.9-7.1,0.9-14.3,0.9-21.5c0-7.4-0.4-14.7-0.8-22.1
		c-0.8-15.4-2.2-30.8-3.4-46.2c0,0.1,0,0.2,0,0.3c-0.3-3.5-0.5-7-0.7-10.5c-0.2-4.2-0.5-8.3-0.4-12.5c0.1-4.1,0.2-8.3,0.7-12.4
		c0.6-4.6,1.3-9.1,2.2-13.7c0.8-3.8,1.6-7.5,3.1-11.1c0.3-0.5,0.7-1,1-1.5c0.2-0.2,0.5-0.4,0.7-0.6c0.6-0.1,1.2-0.2,1.8-0.3
		c4.2-0.2,8.4,0,12.6,0.2c3.9,0.2,7.8,0.5,11.6,1c4.8,0.6,9.5,1.2,14.2,1.9c3.6,0.5,7.2,1.3,10.8,2c1.1,0.2,2.2,0.5,3.3,0.7
		c2,0.5,3.8,0.6,5.7-0.4c1.7-0.9,3-2.4,3.6-4.2c0.6-1.9,0.5-3.9-0.4-5.7c-0.8-1.5-2.4-3.2-4.2-3.6c-1.6-0.3-3.2-0.7-4.8-1
		c-3.2-0.6-6.5-1.3-9.7-1.9c-4-0.8-8.1-1.4-12.2-1.9c-4.2-0.6-8.4-1.1-12.7-1.5c-4.2-0.3-8.3-0.7-12.5-0.8c-0.6,0-1.2,0-1.7,0
		C637.6,581.4,635.1,581.5,632.5,581.7L632.5,581.7L632.5,581.7z M637.8,596.4c-0.2,0-0.4,0-0.5,0
		C637.5,596.4,637.6,596.4,637.8,596.4L637.8,596.4L637.8,596.4z M615.2,687.9c0,0.2,0,0.4,0,0.5C615.3,688.2,615.2,688,615.2,687.9
		L615.2,687.9L615.2,687.9z M610.5,764.7c-0.1,0.2-0.1,0.3-0.2,0.5C610.3,765,610.4,764.9,610.5,764.7L610.5,764.7L610.5,764.7z
		 M520.5,1257.8c0,0.5,0.1,0.9,0.1,1.4C520.5,1258.7,520.5,1258.2,520.5,1257.8L520.5,1257.8L520.5,1257.8z M689.1,587.4
		c0.2,0,0.3,0.1,0.5,0.1c-0.4-0.1-0.7-0.1-1.1-0.2C688.7,587.3,688.9,587.4,689.1,587.4L689.1,587.4L689.1,587.4z M688.5,587.3
		c-0.3-0.1-0.6-0.1-0.9-0.2C687.9,587.2,688.2,587.2,688.5,587.3L688.5,587.3L688.5,587.3z M680.2,585.7c-0.2,0-0.4-0.1-0.6-0.1
		C679.8,585.6,680,585.6,680.2,585.7L680.2,585.7L680.2,585.7z M679.3,585.5c0.1,0,0.2,0,0.3,0c-0.5-0.1-0.9-0.2-1.4-0.3
		C678.6,585.4,679,585.4,679.3,585.5L679.3,585.5L679.3,585.5z"/>
	<path style="fill:#161616;" d="M690.5,584c1.3,0.1,3,0.7,4,1.2c1.3,0.6,2.4,1.4,3.5,2.2c1.1,0.7,2,1.9,2.8,2.9c1.3,1.5,2.2,3,3,4.8
		c2.4,5.2,3.4,10.9,4.5,16.5c0.5,2.7,0.9,5.4,1.4,8.1c0.7,4.1,1,8.2,1.3,12.3c0.3,3.9,0.2,7.9,0,11.7c-0.2,4.1-0.4,8.1-0.6,12.2
		c-0.9,11.8-1.9,23.5-2.8,35.3c-0.7,10.2-1.3,20.4-1.6,30.6c-0.2,5.1-0.1,10.3,0,15.4c0.1,4.9,0.4,9.7,1.1,14.5
		c1.1,4.9,2.7,9.5,4.8,14.1c1.5,2.8,3.1,5.4,5.1,7.8c5.7,6.1,12.4,11,19,16c6.3,4.7,12.6,9.4,18.5,14.5c6.7,5.8,12.7,12.5,18.2,19.5
		c2.6,3.3,4.8,7,6.9,10.6c2,3.3,4,6.8,5.7,10.3c0,0,0,0,0,0.1c-0.1-0.2-0.2-0.3-0.2-0.5c0.1,0.2,0.2,0.3,0.3,0.5
		c0.2,0.4,0.4,0.7,0.6,1.1c0.4,0.7,0.7,1.4,1,2.1c0.2,0.3,0.3,0.6,0.5,0.9c0.5,1,0.9,2.1,1.4,3.2c0.9,2,1.7,4.1,2.5,6.1
		c3,7.4,5.5,15.1,7.7,22.8c2.6,9.2,4.4,18.6,6.1,28c1.4,7.8,2.7,15.7,3.6,23.5c3.9,34.7,5.5,69.6,7.8,104.4
		c1.1,16.5,2.2,33.1,3.1,49.6c0.9,17.7,1.4,35.4,1.4,53.2c0,33.7-0.9,67.3-2.2,101c-0.7,17.3-2,34.6-5.4,51.6
		c-1.7,8.6-4.5,17-7.9,25.1c-1.6,3.7-3.6,7.2-5.8,10.6c-2.7,4.1-5.5,8-8.6,11.7c-5.4,6.6-12.1,12.3-18.9,17.4
		c-7.1,5.3-15,9.4-23.2,12.9c-7.5,3.3-15.2,6.1-23.1,8.5c-8.5,2.6-17.2,4.5-26,6c-7.4,1.2-14.9,2.1-22.4,2.7
		c-7.8,0.6-15.7,1.4-23.5,1c-2.1-0.1-3.8-0.4-5.4-1.9c-1.5-1.3-2.4-3.2-2.5-5.1c-0.3-4.1,2.9-7.5,7-7.9c4.4-0.4,8.7-0.5,13.1-0.7
		c4.3-0.3,8.7-0.6,13-1c8.5-0.8,16.9-2,25.3-3.5c3.1-0.6,6.2-1.3,9.3-2.1c3.9-1.1,7.8-2.2,11.6-3.5c7.7-2.5,15.1-5.5,22.5-8.8
		c3.6-1.8,7.2-3.7,10.6-5.9c3.9-2.6,7.6-5.4,11.3-8.4c2.6-2.4,5.2-4.8,7.6-7.4c2.8-3.2,5.4-6.4,7.9-9.9c1.8-2.8,3.6-5.6,5-8.6
		c1.5-3.2,2.9-6.4,4.1-9.7c2.2-7.1,3.9-14.3,5.2-21.6c1.3-7.5,2.1-15,2.8-22.5c1.1-16.5,1.6-33,2.1-49.5c0.6-16.6,0.8-33.3,0.9-50
		c0.2-16.8,0.3-33.6-0.3-50.3c-0.6-17.2-1.7-34.3-2.7-51.5c-1.1-17.7-2.3-35.4-3.4-53.1c-1-16.8-2-33.6-3.5-50.4
		c-0.9-9.7-1.9-19.4-3.2-29.1c-1.1-8.4-2.7-16.7-4.2-25c-0.9-3.9-1.7-7.9-2.8-11.8c-1.1-4-2.3-8.1-3.7-12.1
		c-1.3-4.1-2.8-8.1-4.3-12.2c-1.3-3.4-2.5-6.8-4.1-10c-0.2-0.4-0.5-0.8-0.6-1.2c-0.2-0.3-0.3-0.6-0.5-1c-0.1-0.2-0.2-0.3-0.2-0.5
		c-2.3-4.4-4.8-8.6-7.4-12.9c-2.6-4.3-5.7-8.2-8.9-12.1c-5.4-6-11.2-11.4-17.5-16.5c-6.1-4.9-12.6-9.4-18.8-14.2
		c-3.4-2.7-6.8-5.5-10-8.5c-4-3.8-7.4-8.2-10.1-13.1c-4.1-7.5-6.8-15.7-7.9-24.2c-0.9-7.1-0.9-14.3-0.9-21.5
		c0-7.4,0.4-14.7,0.8-22.1c0.8-15.4,2.2-30.8,3.4-46.2c0,0.1,0,0.2,0,0.3c0.3-3.5,0.5-7,0.7-10.5c0.2-4.2,0.5-8.3,0.4-12.5
		c-0.1-4.1-0.2-8.3-0.7-12.4c-0.6-4.6-1.3-9.1-2.2-13.7c-0.8-3.8-1.6-7.6-3.1-11.1c-0.3-0.5-0.7-1-1-1.5c-0.2-0.2-0.5-0.4-0.7-0.6
		c-0.6-0.1-1.2-0.2-1.8-0.3c-4.2-0.2-8.4,0-12.6,0.2c-3.9,0.2-7.8,0.5-11.6,1c-4.8,0.6-9.5,1.2-14.2,1.9c-3.6,0.5-7.2,1.3-10.8,2
		c-1.1,0.2-2.2,0.5-3.3,0.7c-2,0.5-3.8,0.6-5.7-0.4c-1.7-0.9-3-2.4-3.6-4.2c-0.6-1.9-0.5-3.9,0.4-5.7c0.8-1.5,2.4-3.2,4.2-3.6
		c1.6-0.3,3.2-0.7,4.8-1c3.2-0.6,6.5-1.3,9.7-1.9c4-0.8,8.1-1.4,12.2-1.9c4.2-0.6,8.4-1.1,12.7-1.5c4.2-0.3,8.3-0.7,12.5-0.8
		c0.6,0,1.2,0,1.7,0C685.4,583.6,687.9,583.7,690.5,584L690.5,584L690.5,584z M685.2,598.6c0.2,0,0.4,0,0.5,0
		C685.5,598.6,685.4,598.6,685.2,598.6L685.2,598.6L685.2,598.6z M707.8,690.1c0,0.2,0,0.4,0,0.5
		C707.7,690.4,707.8,690.3,707.8,690.1L707.8,690.1L707.8,690.1z M712.5,766.9c0.1,0.2,0.1,0.3,0.2,0.5
		C712.7,767.2,712.6,767.1,712.5,766.9L712.5,766.9L712.5,766.9z M802.5,1260c0,0.5-0.1,0.9-0.1,1.4
		C802.5,1260.9,802.5,1260.4,802.5,1260L802.5,1260L802.5,1260z M633.9,589.6c-0.2,0-0.3,0.1-0.5,0.1c0.4-0.1,0.7-0.1,1.1-0.2
		C634.3,589.6,634.1,589.6,633.9,589.6L633.9,589.6L633.9,589.6z M634.5,589.5c0.3-0.1,0.6-0.1,0.9-0.2
		C635.1,589.4,634.8,589.5,634.5,589.5L634.5,589.5L634.5,589.5z M642.8,587.9c0.2,0,0.4-0.1,0.6-0.1
		C643.2,587.8,643,587.9,642.8,587.9L642.8,587.9L642.8,587.9z M643.7,587.7c-0.1,0-0.2,0-0.3,0c0.5-0.1,0.9-0.2,1.4-0.3
		C644.4,587.6,644,587.7,643.7,587.7L643.7,587.7L643.7,587.7z"/>
	<path style="fill:#161616;" d="M821.2,501.9c-1.3,0.1-3,0.7-4,1.2c-1.3,0.6-2.4,1.4-3.5,2.2c-1.1,0.7-2,1.9-2.8,2.9
		c-1.3,1.5-2.2,3-3,4.8c-2.4,5.2-3.4,10.9-4.5,16.5c-0.5,2.7-0.9,5.4-1.4,8.1c-0.7,4.1-1,8.2-1.3,12.3c-0.3,3.9-0.2,7.9,0,11.7
		c0.2,4.1,0.4,8.1,0.6,12.2c0.8,11.6,1.8,23.1,2.7,34.7c0,0,0,0,0,0c0,0,0,0,0,0c0,0.2,0,0.4,0,0.6c0.7,10.2,1.3,20.4,1.6,30.6
		c0.2,5.1,0.1,10.3,0,15.4c-0.1,4.8-0.4,9.7-1.1,14.5c-1.1,4.9-2.7,9.5-4.8,14.1c-1.5,2.8-3.1,5.4-5.1,7.8c-5.7,6.1-12.4,11-19,16
		c-6.3,4.7-12.6,9.4-18.5,14.5c-6.7,5.8-12.7,12.5-18.2,19.5c-2.6,3.3-4.8,7-6.9,10.6c-2,3.3-4,6.8-5.7,10.3c0,0,0,0,0,0.1
		c0.1-0.2,0.2-0.3,0.2-0.5c-0.1,0.2-0.2,0.3-0.3,0.5c-0.2,0.4-0.4,0.7-0.6,1.1c-0.4,0.7-0.7,1.4-1,2.1c-0.2,0.3-0.3,0.6-0.5,0.9
		c-0.5,1-0.9,2.1-1.4,3.2c-0.9,2-1.7,4.1-2.5,6.1c-2.2,5.4-4.1,11-5.8,16.6c2.7,0.6,5.2,2,7,4.2c1.9,2.2,3.6,4.5,5.4,6.8
		c0.1,0.1,0.2,0.2,0.3,0.3c0.9-3,1.8-6,2.8-9c1.3-4.1,2.8-8.1,4.3-12.2c1.3-3.4,2.5-6.8,4.1-10c0.2-0.4,0.5-0.8,0.6-1.2
		c0.2-0.3,0.3-0.6,0.5-0.9c0.1-0.2,0.2-0.3,0.2-0.5c2.3-4.4,4.8-8.6,7.4-12.9c2.6-4.3,5.7-8.2,8.9-12.1c5.4-6,11.3-11.4,17.5-16.5
		c6.1-4.9,12.6-9.4,18.8-14.2c3.4-2.7,6.8-5.5,10-8.5c4-3.8,7.4-8.2,10.1-13.1c4.1-7.5,6.8-15.7,7.9-24.2c0.9-7.1,0.9-14.3,0.9-21.5
		c0-7.4-0.4-14.7-0.8-22.1c-0.8-15.4-2.2-30.8-3.4-46.2c0,0.1,0,0.2,0,0.3c-0.3-3.5-0.5-7-0.7-10.5c-0.2-4.2-0.5-8.3-0.4-12.5
		c0.1-4.1,0.2-8.3,0.7-12.4c0.6-4.6,1.3-9.1,2.2-13.7c0.8-3.8,1.6-7.6,3.1-11.1c0.3-0.5,0.7-1,1-1.5c0.2-0.2,0.5-0.4,0.7-0.6
		c0.6-0.2,1.2-0.2,1.8-0.3c4.2-0.2,8.4,0,12.6,0.2c3.9,0.2,7.8,0.5,11.6,1c4.8,0.6,9.5,1.2,14.2,1.9c3.6,0.5,7.2,1.3,10.8,2
		c1.1,0.2,2.2,0.5,3.3,0.7c2,0.5,3.8,0.6,5.7-0.4c1.7-0.9,3-2.4,3.6-4.2c0.6-1.9,0.5-3.9-0.4-5.7c-0.8-1.5-2.4-3.2-4.2-3.6
		c-1.5-0.3-2.9-0.6-4.4-0.9c0,0,0,0,0.1,0c-0.2,0-0.3-0.1-0.5-0.1c0,0,0,0,0,0c0,0,0,0,0,0c-0.2,0-0.4-0.1-0.5-0.1
		c0.1,0,0.2,0,0.3,0.1c-0.2,0-0.4-0.1-0.6-0.1c0.1,0,0.2,0,0.4,0.1c-0.3-0.1-0.6-0.1-0.9-0.2c0.1,0,0.1,0,0.2,0
		c-2.6-0.5-5.1-1-7.7-1.5c-0.2,0-0.4-0.1-0.5-0.1c0.2,0,0.4,0.1,0.5,0.1c-0.3-0.1-0.5-0.1-0.8-0.2c-4-0.8-8.1-1.4-12.2-1.9
		c-4.2-0.6-8.4-1.1-12.7-1.5c-4.2-0.3-8.3-0.7-12.5-0.8c-0.6,0-1.2,0-1.7,0C826.3,501.5,823.7,501.7,821.2,501.9L821.2,501.9
		L821.2,501.9z M826.5,516.5c-0.2,0-0.4,0-0.5,0C826.2,516.5,826.3,516.5,826.5,516.5L826.5,516.5L826.5,516.5z M799.2,684.9
		c-0.1,0.2-0.2,0.3-0.2,0.5C799,685.2,799.1,685,799.2,684.9L799.2,684.9L799.2,684.9z"/>
	<path style="fill:#161616;" d="M868,505.7c0.1,0,0.2,0,0.3,0c-0.5-0.1-0.9-0.2-1.4-0.3C867.3,505.5,867.7,505.6,868,505.7
		L868,505.7L868,505.7z"/>
	<path style="fill:#161616;" d="M877.8,507.6c0.1,0,0.3,0.1,0.4,0.1C878.1,507.6,877.9,507.6,877.8,507.6L877.8,507.6L877.8,507.6z"
		/>
	<path style="fill:#161616;" d="M797,1293.6c-0.8,1.8-1.7,3.6-2.8,5.2c5.8,1.5,11.6,2.6,17.5,3.6c7.4,1.2,14.9,2.1,22.4,2.7
		c7.8,0.6,15.7,1.4,23.5,1c2.1-0.1,3.8-0.4,5.4-1.9c1.5-1.3,2.4-3.2,2.5-5.1c0.3-4.1-2.9-7.5-7-7.9c-4.4-0.4-8.7-0.5-13.1-0.7
		c-4.3-0.3-8.7-0.6-13-1c-8.5-0.8-16.9-2-25.3-3.5c-2.5-0.5-5-1-7.5-1.7C799.1,1287.6,798.2,1290.6,797,1293.6L797,1293.6
		L797,1293.6z"/>
	<path style="fill:#161616;" d="M879.2,504.1c1.3,0.1,3,0.7,4,1.2c1.3,0.6,2.4,1.4,3.5,2.2c1.1,0.7,2,1.9,2.8,2.9
		c1.3,1.5,2.2,3,3,4.8c2.4,5.2,3.4,10.9,4.5,16.5c0.5,2.7,0.9,5.4,1.4,8.1c0.7,4.1,1,8.2,1.3,12.3c0.3,3.9,0.2,7.9,0,11.7
		c-0.2,4.1-0.4,8.1-0.6,12.2c-0.9,11.8-1.9,23.5-2.8,35.3c-0.7,10.2-1.3,20.4-1.6,30.6c-0.2,5.1-0.1,10.3,0,15.4
		c0.1,4.9,0.4,9.7,1.1,14.5c1.1,4.9,2.7,9.5,4.8,14.1c1.5,2.8,3.1,5.4,5.1,7.8c5.7,6.1,12.4,11,19,16c6.3,4.7,12.6,9.4,18.5,14.5
		c6.7,5.8,12.7,12.5,18.2,19.5c2.6,3.3,4.8,7,6.9,10.6c2,3.3,4,6.8,5.7,10.3c0,0,0,0,0,0.1c-0.1-0.2-0.2-0.3-0.2-0.5
		c0.1,0.2,0.2,0.3,0.3,0.5c0.2,0.4,0.4,0.7,0.6,1.1c0.4,0.7,0.7,1.4,1,2.1c0.2,0.3,0.3,0.6,0.5,0.9c0.5,1,0.9,2.1,1.4,3.2
		c0.9,2,1.7,4.1,2.5,6.1c3,7.4,5.5,15.1,7.7,22.8c2.6,9.2,4.4,18.6,6.1,28c1.4,7.8,2.7,15.7,3.6,23.5c3.9,34.7,5.5,69.6,7.8,104.4
		c1.1,16.5,2.2,33.1,3.1,49.6c0.9,17.7,1.4,35.4,1.4,53.2c0,33.7-0.9,67.3-2.2,101c-0.7,17.3-2,34.6-5.4,51.6
		c-1.7,8.6-4.5,17-7.9,25.1c-1.6,3.7-3.6,7.2-5.8,10.6c-2.7,4.1-5.5,8-8.6,11.7c-5.4,6.6-12.1,12.3-18.9,17.4
		c-7.1,5.3-15,9.4-23.2,12.9c-7.5,3.3-15.2,6.1-23.1,8.5c-8.5,2.6-17.2,4.5-26,6c-7.4,1.2-14.9,2.1-22.4,2.7
		c-7.8,0.6-15.7,1.4-23.5,1c-2.1-0.1-3.8-0.4-5.4-1.9c-1.5-1.3-2.4-3.2-2.5-5.1c-0.3-4.1,2.9-7.5,7-7.9c4.4-0.4,8.7-0.5,13.1-0.7
		c4.3-0.3,8.7-0.6,13-1c8.5-0.8,16.9-2,25.3-3.5c3.1-0.6,6.2-1.3,9.3-2.1c3.9-1.1,7.8-2.2,11.6-3.5c7.7-2.5,15.1-5.5,22.5-8.8
		c3.6-1.8,7.2-3.7,10.6-5.9c3.9-2.6,7.6-5.4,11.3-8.4c2.6-2.4,5.2-4.8,7.6-7.4c2.8-3.2,5.4-6.4,7.9-9.9c1.8-2.8,3.6-5.6,5-8.6
		c1.5-3.2,2.9-6.4,4.1-9.7c2.2-7.1,3.9-14.3,5.2-21.6c1.3-7.5,2.1-15,2.8-22.5c1.1-16.5,1.6-33,2.1-49.5c0.6-16.6,0.8-33.3,0.9-50
		c0.2-16.8,0.3-33.6-0.3-50.3c-0.6-17.2-1.7-34.3-2.7-51.5c-1.1-17.7-2.3-35.4-3.4-53.1c-1-16.8-2-33.6-3.5-50.4
		c-0.9-9.7-1.9-19.4-3.2-29.1c-1.1-8.4-2.7-16.7-4.2-25c-0.9-3.9-1.7-7.9-2.8-11.8c-1.1-4-2.3-8.1-3.7-12.1
		c-1.3-4.1-2.8-8.1-4.3-12.2c-1.3-3.4-2.5-6.8-4.1-10c-0.2-0.4-0.5-0.8-0.6-1.2c-0.2-0.3-0.3-0.6-0.5-1c-0.1-0.2-0.2-0.3-0.2-0.5
		c-2.3-4.4-4.8-8.6-7.4-12.9c-2.6-4.3-5.7-8.2-8.9-12.1c-5.4-6-11.2-11.4-17.5-16.5c-6.1-4.9-12.6-9.4-18.8-14.2
		c-3.4-2.7-6.8-5.5-10-8.5c-4-3.8-7.4-8.2-10.1-13.1c-4.1-7.5-6.8-15.7-7.9-24.2c-0.9-7.1-0.9-14.3-0.9-21.5
		c0-7.4,0.4-14.7,0.8-22.1c0.8-15.4,2.2-30.8,3.4-46.2c0,0.1,0,0.2,0,0.3c0.3-3.5,0.5-7,0.7-10.5c0.2-4.2,0.5-8.3,0.4-12.5
		c-0.1-4.1-0.2-8.3-0.7-12.4c-0.6-4.6-1.3-9.1-2.2-13.7c-0.8-3.8-1.6-7.6-3.1-11.1c-0.3-0.5-0.7-1-1-1.5c-0.2-0.2-0.5-0.4-0.7-0.6
		c-0.6-0.1-1.2-0.2-1.8-0.3c-4.2-0.2-8.4,0-12.6,0.2c-3.9,0.2-7.8,0.5-11.6,1c-4.8,0.6-9.5,1.2-14.2,1.9c-3.6,0.5-7.2,1.3-10.8,2
		c-1.1,0.2-2.2,0.5-3.3,0.7c-2,0.5-3.8,0.6-5.7-0.4c-1.7-0.9-3-2.4-3.6-4.2c-0.6-1.9-0.5-3.9,0.4-5.7c0.8-1.5,2.4-3.2,4.2-3.6
		c1.6-0.3,3.2-0.7,4.8-1c3.2-0.6,6.5-1.3,9.7-1.9c4-0.8,8.1-1.4,12.2-1.9c4.2-0.6,8.4-1.1,12.7-1.5c4.2-0.3,8.3-0.7,12.5-0.8
		c0.6,0,1.2,0,1.7,0C874.1,503.7,876.6,503.9,879.2,504.1L879.2,504.1L879.2,504.1z M873.9,518.7c0.2,0,0.4,0,0.5,0
		C874.2,518.8,874,518.7,873.9,518.7L873.9,518.7L873.9,518.7z M896.5,610.2c0,0.2,0,0.4,0,0.5C896.4,610.6,896.4,610.4,896.5,610.2
		L896.5,610.2L896.5,610.2z M901.2,687.1c0.1,0.2,0.2,0.3,0.2,0.5C901.4,687.4,901.3,687.2,901.2,687.1L901.2,687.1L901.2,687.1z
		 M991.2,1180.1c0,0.5-0.1,0.9-0.1,1.4C991.2,1181.1,991.2,1180.6,991.2,1180.1L991.2,1180.1L991.2,1180.1z M822.6,509.8
		c-0.2,0-0.3,0.1-0.5,0.1c0.4-0.1,0.7-0.1,1.1-0.2C823,509.7,822.8,509.8,822.6,509.8L822.6,509.8L822.6,509.8z M823.2,509.7
		c0.3-0.1,0.6-0.1,0.9-0.2C823.8,509.6,823.5,509.6,823.2,509.7L823.2,509.7L823.2,509.7z M831.5,508c0.2,0,0.4-0.1,0.6-0.1
		C831.9,508,831.7,508,831.5,508L831.5,508L831.5,508z M832.3,507.9c-0.1,0-0.2,0-0.3,0c0.5-0.1,0.9-0.2,1.4-0.3
		C833.1,507.7,832.7,507.8,832.3,507.9L832.3,507.9L832.3,507.9z"/>
	<path style="fill:#161616;" d="M795.8,918.3c-3.2,0.9-6.5,1.4-9.8,2.1c-3.2,0.6-6.4,1.2-9.6,1.8c-6.2,1.1-12.4,2.1-18.6,3.1
		c-11.8,1.8-23.7,3.1-35.6,4.2c-16.4,1-32.8,1.3-49.2,1.6c-15.5,0.3-31.1,0.6-46.6,0.8c-13.6,0.2-27.2,0.3-40.8-0.3
		c-7-0.3-14-0.9-20.9-1.4c-7.3-0.6-14.6-1.3-21.8-2.6c-3.6-0.8-7.2-2-10.7-3.1c-4-1.3-8.4,0.8-9.8,4.8c-1.3,3.9,0.8,8.5,4.8,9.8
		c2.3,0.8,4.7,1.6,7,2.2c4.3,1.2,8.8,2,13.2,2.6c4.5,0.6,9,1.1,13.6,1.5c7.9,0.8,15.8,1.3,23.7,1.7c16.2,0.8,32.5,0.5,48.7,0.2
		c16.8-0.2,33.6-0.6,50.4-0.9c7.7-0.1,15.3-0.3,23-0.6c9-0.3,18-1,27-1.8c10.8-1,21.5-2.6,32.2-4.2c5.4-0.8,10.9-1.8,16.3-2.8
		c2.5-0.5,5.1-1,7.6-1.5c3.6-0.7,7.6-1.4,10.7-3.4c1.1-0.6,2.1-1.4,2.8-2.5c1.1-1.6,1.5-3.7,1.1-5.6c-0.7-3.2-3.8-5.8-7-5.8
		C796.8,918.1,796.3,918.2,795.8,918.3L795.8,918.3L795.8,918.3z"/>
	<path style="fill:#161616;" d="M985.3,846.3c-10.4,3-20.8,6.1-31.4,8.2c-5.6,1.1-11.2,1.9-16.8,2.6c-3.9,0.5-7.8,1-11.7,1.4
		c-7.9,0.7-15.8,1.4-23.7,2.1c-15,1-30,1.9-45,2.6c-16,0.8-32,1.7-48,2.1c-3.2,0.1-6.4,0.2-9.6,0.2c-1.4,0-2.9,0-4.3,0
		c-3.2,0-6.1,0.5-8.9,2c-2.7,1.4-4.2,4.4-3.6,7.5c0.6,3.1,3.2,5,6.2,5.3c0.2,0,0.4,0.1,0.6,0.1c1.1,0.2,2.2,0.5,3.3,0.5
		c0.9,0,1.8,0,2.7,0c1.8,0,3.6,0,5.5-0.1c3.7-0.1,7.5-0.2,11.3-0.3c7.8-0.2,15.6-0.6,23.3-1c16.1-0.8,32.2-1.6,48.3-2.6
		c11.1-0.6,22.2-1.5,33.2-2.5c8.4-0.7,16.8-1.5,25.2-2.6c7.9-1,15.8-2.4,23.6-4.3c7.8-1.9,15.5-4.2,23.2-6.4c2-0.6,3.6-1.5,4.8-3.3
		c1.1-1.7,1.6-3.9,1.1-5.9c-0.7-3.3-4-6.2-7.4-6.2C986.4,846,985.9,846.1,985.3,846.3L985.3,846.3L985.3,846.3z"/>
	<path style="fill:#161616;" d="M798.2,1227.2c-1.5,0.4-3,0.8-4.5,1.1c-2.9,0.7-5.8,1.1-8.7,1.6c-5.9,1-11.8,1.9-17.7,2.6
		c-12.7,1.5-25.3,2.7-38,3.7c-7.8,0.5-15.5,1-23.2,1.4c-8.2,0.4-16.4,0.6-24.7,0.9c-15.9,0.5-31.9,0.2-47.8-0.2
		c-3.5-0.1-7.1,0-10.7-0.2c-4.5-0.3-8.9-0.5-13.4-0.8c-3.6-0.2-7.2-0.3-10.7-0.6c-4.4-0.4-8.9-0.8-13.3-1.2
		c-15.7-1.4-31.4-3.3-47-5.5c-6.6-0.9-13.2-1.9-19.8-2.8c-1.9-0.3-4.2,0.7-5.6,1.9c-1.5,1.4-2.5,3.3-2.6,5.3c-0.1,2,0.6,4,1.9,5.6
		c1.4,1.6,3.2,2.3,5.3,2.6c9.3,1.4,18.7,2.7,28.1,4c8.8,1.2,17.6,2.2,26.4,3.2c8,1,16.1,1.5,24.1,2.3c8,0.7,16.1,0.9,24.1,1.4
		c8.1,0.5,16.2,0.4,24.3,0.5c7,0.1,14,0.2,20.9,0.1c8.6-0.1,17.2-0.2,25.8-0.5c7.9-0.2,15.8-0.7,23.7-1.1c16-0.8,31.9-2.3,47.9-4
		c7.2-0.8,14.4-1.7,21.6-2.9c3.6-0.6,7.2-1.2,10.7-1.9c1.7-0.3,3.4-0.8,5.1-1.2c0.9-0.2,1.7-0.5,2.6-0.8c0.8-0.3,1.7-0.5,2.5-0.9
		c1.1-0.6,2.1-1.3,3.1-2.1c1.9-1.5,2.7-4.4,2.2-6.7c-0.6-3-3.3-5.5-6.4-5.6c-0.2,0-0.4,0-0.6,0
		C801.9,1226.4,800.1,1226.7,798.2,1227.2L798.2,1227.2L798.2,1227.2z"/>
	<path style="fill:#161616;" d="M996.4,1143.1c-7.8,2.9-15.7,5.6-23.5,8.4c0.6-0.2,1.3-0.5,1.9-0.7c-8,2.6-16,5.2-24.1,7.5
		c-7.9,2.3-16,4.2-24,6c-8.2,1.8-16.4,3.3-24.6,4.9c-7.6,1.4-15.2,2.7-22.8,3.8c-10.3,1.5-20.7,2.6-31.1,3.4
		c-5.3,0.4-10.7,0.7-16,0.7c-2.6,0-5.3-0.1-7.9-0.3c-2.6-0.2-5.2-0.5-7.8-0.5c-3.4,0-6.4,1.7-7.5,5c-0.6,1.9-0.5,4,0.4,5.8
		c0.8,1.6,2.5,3.3,4.2,3.7c7.8,1.8,15.9,1.8,23.8,1.6c8.3-0.3,16.7-0.9,24.9-1.8c17.1-1.8,33.9-4.7,50.8-7.8
		c14.2-2.7,28.3-5.8,42.1-9.8c16.2-4.7,32.2-10.3,48-16.2c1.8-0.7,3.2-2.7,3.8-4.4c0.7-2,0.5-4.1-0.4-6c-0.9-1.8-2.5-3.2-4.4-3.8
		c-0.8-0.3-1.6-0.4-2.3-0.4C998.8,1142.3,997.7,1142.6,996.4,1143.1L996.4,1143.1L996.4,1143.1z"/>
	<path style="fill:#161616;" d="M699.4,638.7c-11,0.4-21.9,0.4-32.9,0.4c-12.3,0-24.6,0-36.8,0.1c-4,0-7.5,2.7-7.7,6.8
		c-0.2,3.8,2.9,7.7,6.8,7.7c12.3,0,24.6,0,36.8,0c5.5,0,10.9,0.1,16.4,0.1c6.1,0,12.4,0.2,18.5-0.6c3.2-0.4,5.6-3.7,5.8-6.8
		c0.1-1.9-0.5-3.9-1.8-5.3c-1.2-1.3-3.1-2.5-4.9-2.5C699.5,638.7,699.4,638.7,699.4,638.7L699.4,638.7L699.4,638.7z"/>
	<path style="fill:#161616;" d="M867.3,569.8c-1.8,0.2-3.7,0.4-5.5,0.5c-15.3,1-30.5,1.7-45.8,2.5c-2.1,0.1-3.8,0.4-5.4,1.9
		c-1.5,1.3-2.4,3.1-2.5,5.1c-0.1,2,0.5,3.9,1.9,5.4c1.2,1.3,3.3,2.6,5.1,2.5c11-0.6,22-1.2,33-1.7c4.7-0.2,9.4-0.4,14.1-0.7
		c2.7-0.2,5.4-0.4,8-0.6c2.8-0.3,5.5-0.7,8.1-2c2.8-1.5,4.4-4.7,3.8-7.9c-0.6-3-3.4-5.6-6.6-5.7c-0.2,0-0.5,0-0.7,0
		C872.2,569.2,869.8,569.5,867.3,569.8L867.3,569.8L867.3,569.8z"/>
	<path style="fill:#161616;" d="M1295.7,1043.1c-17.3,0.3-34.6,0.8-51.8,1.3c-16.2,0.5-32.4,1.5-48.5,2.3
		c-15.6,0.8-31.2,0.8-46.7,2.2c-8.2,0.7-16.3,1.7-24.4,2.7c-3.6,0.5-7.3,0.9-10.9,1.2c-3.9,0.4-7.9,0.2-11.7,1.2
		c-3.1,0.8-5.7,1.9-8.1,4c-2.5,2.2-4.2,5-5.8,7.9c-1.8,3.3-2.9,7.3-3.8,11c-0.6,2.3-1.1,4.6-1.5,7c-0.9,4.9-0.6,9.8,0.1,14.7
		c0.2,1.7,1,3.1,2.1,4.2c0.5,1.4,1.4,2.7,2.5,3.6c1.7,1.4,3.6,1.7,5.8,1.6c17.5-0.9,35-1.9,52.6-2.6c9.2-0.4,18.3-0.7,27.5-1.1
		c8.2-0.3,16.5-0.3,24.7-0.4c32.9-0.6,65.9-0.7,98.8-1.3c15.9-0.3,31.9-0.8,47.8-1.9c8.1-0.5,16.2-1.2,24.3-2
		c3.7-0.4,7.4-0.9,11-1.5c1.6-0.3,3.2-0.7,4.7-1.1c2.5-0.7,4.9-3.1,5.9-5.5c1.9-4.5,1.7-9.4,1.6-14.2c-0.1-3.9-0.3-7.8-0.6-11.7
		c-0.1-1.8-0.4-3.6-0.6-5.4c-0.3-2.1-0.8-4.4-1.8-6.2c-0.9-1.6-1.6-2.6-2.9-3.9c-1.3-1.2-2.8-2.1-4.5-3c-1.2-0.6-2.8-1-4.1-1.3
		c-1.3-0.3-2.6-0.5-3.9-0.7c-2.8-0.4-5.6-0.6-8.3-0.8c-2.5-0.2-5-0.2-7.6-0.3c-4.1-0.1-8.3-0.2-12.4-0.2c-9.5-0.1-19-0.1-28.5-0.1
		C1309.7,1042.9,1302.7,1043,1295.7,1043.1L1295.7,1043.1L1295.7,1043.1z M1109.5,1068.5c1.9-0.1,3.8-0.3,5.8-0.5
		c3.6-0.3,7.3-0.8,10.9-1.2c8.1-1,16.3-2,24.4-2.7c15.5-1.4,31.1-1.4,46.7-2.1c16.2-0.8,32.3-1.8,48.5-2.3c17.3-0.6,34.5-1,51.8-1.3
		c16.5-0.3,33.1-0.1,49.6,0c3.4,0.1,6.7,0.2,10.1,0.3c5.6,0.1,11.3,0.3,16.8,1.5c0.3,0.1,0.6,0.2,0.9,0.4c0.6,3.2,0.8,6.5,1.1,9.7
		c0.2,3.3,0.3,6.6,0.3,9.9c0,0.7,0,1.3-0.1,2c-6.9,1.2-13.8,1.8-20.8,2.4c-7.7,0.7-15.4,1.1-23.1,1.5c-16.6,0.8-33.2,1.2-49.9,1.5
		c-16.4,0.3-32.8,0.4-49.2,0.6c-17.6,0.2-35.1,0.5-52.7,0.8c-14.6,0.3-29.3,0.9-43.9,1.5c-13.5,0.5-27,1.3-40.4,2
		c0.3-4.5,1.5-9,2.6-13.3c0.7-2.5,1.6-4.9,2.8-7.3c0.5-0.8,1.1-1.5,1.7-2.3c0.1-0.1,0.2-0.1,0.2-0.2c0.3-0.1,0.6-0.3,0.9-0.4
		C1106.4,1068.7,1108,1068.6,1109.5,1068.5L1109.5,1068.5L1109.5,1068.5z M1347.4,1058.3c0.6,0,1.3,0,1.9,0
		C1348.7,1058.4,1348,1058.4,1347.4,1058.3L1347.4,1058.3L1347.4,1058.3z M1374.6,1059c0.2,0.2,0.3,0.5,0.5,0.8
		C1374.9,1059.5,1374.7,1059.2,1374.6,1059L1374.6,1059L1374.6,1059z M1376.1,1061.1c0.1,0.1,0.2,0.2,0.3,0.3
		C1376.3,1061.3,1376.2,1061.2,1376.1,1061.1L1376.1,1061.1L1376.1,1061.1z"/>
	<path style="fill:#161616;" d="M1404,1082.2c-5.8,0.4-11.5,1-17.3,1.1c-2.9,0-5.8-0.1-8.7-0.1c-1.3,0.2-2.5,0.7-3.6,1.5
		c-1.6,1.2-2.7,3-3,5c-0.6,4,2.3,8.2,6.5,8.6c13.2,1.3,26.6-1,39.8-1.6c13.5-0.7,27-0.9,40.5-0.9c12.7,0.1,25.3,0.3,38,0.6
		c6.9,0.1,13.8,0.2,20.7,0.4c3.4,0.1,6.7,0.1,10.1,0.2c5.2,0.2,10.4,0.2,15.4,1.4c0.9,0.3,1.7,0.6,2.5,1c0.1,0.1,0.3,0.2,0.4,0.3
		c0.1,0.1,0.2,0.3,0.3,0.4c0.3,0.6,0.5,1.2,0.7,1.9c1.1,5.2,1.3,10.6,1.4,15.9c-0.2,7.6-0.8,15.1-2.6,22.5c-0.9,2.9-2,5.8-3.4,8.5
		c-0.4,0.5-0.7,1-1.1,1.5c-0.2,0.2-0.4,0.3-0.6,0.5c-0.1,0-0.2,0.1-0.3,0.1c-3.6,0.7-7.2,1-10.8,1.4c-4.2,0.5-8.4,0.9-12.6,1.4
		c-8.4,0.9-16.7,1.4-25.1,1.9c-16.2,1-32.4,2-48.6,2.8c-17.2,0.9-34.4,1.6-51.6,2c-16.6,0.4-33.3,0.7-49.9,1.2
		c-13.5,0.4-27,0.7-40.5,0.9c-4.6-0.1-9.3-0.2-13.9-0.3c-10-0.2-20-1.5-29.7-4c-5.4-1.6-10.5-3.7-15.4-6.4c-1.7-1.1-3.3-2.3-4.8-3.7
		c-0.9-1.1-1.8-2.2-2.5-3.4c-0.4-0.7-0.7-1.4-1-2.2c-0.3-1.5-0.4-3-0.4-4.5c0.2-5.4,0.6-10.9,0.7-16.3c0.1-7.1-0.2-14.3-0.4-21.4
		c-0.1-1.9-1.4-3.9-2.8-5c-1.6-1.3-3.7-1.8-5.7-1.6c-2,0.3-3.8,1.3-5,2.8c-1.4,1.7-1.6,3.6-1.6,5.7c0.2,5.6,0.4,11.2,0.4,16.7
		c-0.1,3.7-0.3,7.4-0.5,11.1c-0.3,4.8-0.8,9.8,0.1,14.6c0.9,4.9,3.7,9.6,7,13.3c3.9,4.4,9,7.3,14.2,9.9c5,2.5,10.3,4.1,15.6,5.6
		c6.2,1.7,12.5,2.7,18.9,3.3c6.3,0.6,12.6,0.7,19,0.8c4,0.1,8,0.2,12,0.1c9.5-0.1,19-0.3,28.4-0.6c33.5-0.9,67.1-1.4,100.6-3
		c16.1-0.7,32.1-1.6,48.2-2.6c8.6-0.5,17.3-1.1,25.9-1.7c8-0.6,15.9-1.5,23.9-2.4c4.6-0.5,9.2-1,13.7-2.3c2.1-0.6,4-2.1,5.6-3.6
		c1.1-1.1,2-2,2.9-3.3c0.8-1.2,1.5-2.5,2.2-3.8c1.2-2.1,2-4.5,2.7-6.8c1.1-3.2,1.9-6.5,2.6-9.9c1.1-5.5,1.4-11.3,1.6-16.9
		c0.1-4.6,0-9.2-0.3-13.9c-0.2-2.3-0.5-4.7-0.9-7c-0.6-2.9-1.4-5.9-3.1-8.4c-0.8-1.3-1.8-2.3-2.9-3.4c-1.4-1.4-3-2.3-4.7-3.3
		c-2.2-1.2-5-1.8-7.4-2.3c-2.2-0.5-4.6-0.8-6.8-0.9c-2.5-0.1-5.1-0.2-7.6-0.3c-7.7-0.3-15.4-0.3-23.2-0.4
		c-17.3-0.4-34.5-0.8-51.8-0.8C1437.4,1080.5,1420.7,1080.9,1404,1082.2L1404,1082.2L1404,1082.2z M1456.3,1095.8c0.6,0,1.2,0,1.9,0
		C1457.6,1095.8,1457,1095.8,1456.3,1095.8L1456.3,1095.8L1456.3,1095.8z M1545.7,1100.1c0.2,0.2,0.3,0.3,0.5,0.5
		C1546,1100.4,1545.8,1100.2,1545.7,1100.1L1545.7,1100.1L1545.7,1100.1z"/>
	<path style="fill:#161616;" d="M1357,1053.6c-4.3,0.6-7,4.5-6.6,8.6c0.4,4.3,0.8,8.7,1.2,13c0.2,1.8,0.3,3.6,0.5,5.4
		c0.2,2.1,0.3,4.4,0.8,6.4c0.2,1.4,0.7,2.6,1.5,3.6c1.2,1.6,3.1,2.7,5.1,3c3.2,0.5,7-1.4,8.1-4.6c0.3-0.7,0.5-1.5,0.7-2.3
		c0.1-1.3,0.1-2.6,0.1-3.9c0.2-0.1,0.5-0.2,0.7-0.3c0.8,0.4,1.7,0.7,2.5,0.9c3.8,0.5,8-2.3,8.3-6.3c0.2-2.6,0.2-5.3,0.1-7.9
		c-0.1-1.7-0.2-3.3-0.4-5c-0.1-1.3-0.2-2.3-0.7-3.6c-0.7-1.8-1.7-3.2-3.3-4.3c-2.8-2-6.1-2-8.6-0.5c-1.1-1.2-2.6-2-4.4-2.2
		c-0.8-0.1-1.6-0.1-2.3,0.1c-0.7-0.2-1.5-0.4-2.3-0.4C1357.6,1053.6,1357.3,1053.6,1357,1053.6L1357,1053.6L1357,1053.6z
		 M1352.9,1083.7C1352.9,1083.7,1352.9,1083.7,1352.9,1083.7c0,0.3,0,0.5,0,0.8c0,0,0,0,0,0
		C1352.9,1084.2,1352.9,1083.9,1352.9,1083.7L1352.9,1083.7L1352.9,1083.7z"/>
	<path style="fill:#161616;" d="M1422.9,781c-6.6,0.6-13.1,2.8-18.9,5.9c-2.9,1.5-5.7,3.3-8.3,5.2c-2.8,2.1-5.3,4.5-7.7,6.9
		c-3.7,3.7-6.7,7.9-9.4,12.4c-2.6,4.4-4.4,9.2-6.1,14c-1.8,5.2-3.4,10.4-4.7,15.8c-0.9,3.7-1.7,7.4-2.6,11.2
		c-0.9,3.9-2,7.8-2.8,11.7c-0.9,4.2-2.1,8.5-2.5,12.8c-0.2,2.2,1.2,4.3,3.5,4.6c2.3,0.3,4.2-1.3,4.6-3.5c0.7-4,1.9-8,3-11.9
		c0.9-3.2,1.8-6.4,2.7-9.6c1.4-5,2.6-10,4-15.1c1.2-4.3,2.7-8.5,4.3-12.7c1.6-4.2,3.5-8.4,5.7-12.3c2.2-3.5,4.8-6.7,7.7-9.6
		c3.4-3.3,7.2-6.2,11.3-8.6c3.3-1.8,6.7-3.2,10.3-4.3c3.2-0.8,6.5-1.2,9.7-1.3c3.9,0.2,7.8,0.8,11.6,1.8c6.2,1.8,12,4.5,17.6,7.7
		c4.8,3,9.5,6.1,14.1,9.4c2.3,1.7,4.6,3.3,6.9,5c8,5.8,15.9,11.8,22.9,18.8c5.2,5.4,9.9,11.3,13.8,17.8c2.5,4.6,4.5,9.4,6,14.4
		c1.1,4.7,1.7,9.4,1.8,14.2c-0.2,5.9-1.2,11.7-2.7,17.4c-2.3,8-5.7,15.5-9.8,22.7c-3.5,5.8-7.7,11-12.4,15.8
		c-4.9,4.6-10.3,8.7-16.1,12.1c-12.3,6.8-25.5,11.5-38.6,16.3c-4.4,1.6-8.8,3.3-13.2,5c-8.4,3.2-16.8,6.5-24.7,10.9
		c-6.3,3.5-12.3,7.4-17.6,12.3c-2.4,2.2-4.6,4.6-6.5,7.3c-2.1,2.9-4,6-5.7,9.2c-3.1,6-4.5,12.7-5.3,19.3c-0.4,3.2-0.8,6.3-1.2,9.5
		c-0.3,2.1,3,2.6,3.3,0.5c0.7-5.3,1.3-10.5,2.6-15.7c0.6-1.9,1.2-3.9,2-5.7c0.7-1.7,1.6-3.4,2.5-5c2.5-4,5.4-7.8,8.8-11.1
		c4.3-4.1,9.2-7.4,14.3-10.4c8.8-4.9,18.3-8.7,27.9-11.8c4.9-1.6,9.8-3.3,14.7-4.8c12-3.6,24.1-7.1,35.6-12.3
		c6.4-2.9,12.5-6.3,18.2-10.4c5.6-4,10.6-8.8,15.1-13.9c4.6-5.3,8.2-11.2,11.6-17.3c3.2-5.9,5.8-12.1,7.7-18.6
		c2.1-6.9,3.6-14,3.7-21.3c0-3.6-0.1-7.2-0.6-10.8c-0.5-3.7-1.5-7.4-2.6-11c-2-6.7-5.4-12.9-9.1-18.7c-3.8-5.9-8.5-11-13.4-16
		c-7.1-7.3-15.4-13.4-23.8-19.2c-2.4-1.7-4.8-3.3-7.3-5c-5-3.4-10.2-6.7-15.4-9.7c-5.9-3.4-12-6.2-18.5-8.1
		c-5.6-1.6-11.3-2.6-17.1-2.6C1425.8,780.8,1424.4,780.9,1422.9,781L1422.9,781L1422.9,781z M1406.5,798.3c-0.3,0.2-0.6,0.3-0.9,0.5
		C1405.9,798.6,1406.2,798.5,1406.5,798.3L1406.5,798.3L1406.5,798.3z M1454.9,801.7c0.1,0.1,0.3,0.2,0.4,0.2
		C1455.2,801.8,1455.1,801.7,1454.9,801.7L1454.9,801.7L1454.9,801.7z M1498.9,834.5c0.2,0.2,0.5,0.5,0.7,0.7
		C1499.4,835,1499.1,834.8,1498.9,834.5L1498.9,834.5L1498.9,834.5z M1377.8,840.8c0,0.2-0.1,0.3-0.1,0.5
		C1377.7,841.2,1377.8,841,1377.8,840.8L1377.8,840.8L1377.8,840.8z M1509.1,921.5c-0.1,0.1-0.1,0.2-0.2,0.4
		C1508.9,921.7,1509,921.6,1509.1,921.5L1509.1,921.5L1509.1,921.5z M1508.8,922c-0.2,0.3-0.4,0.6-0.5,0.9
		C1508.4,922.6,1508.6,922.3,1508.8,922L1508.8,922L1508.8,922z M1386.3,1002.6c-0.1,0.1-0.2,0.2-0.3,0.3
		C1386,1002.8,1386.2,1002.7,1386.3,1002.6L1386.3,1002.6L1386.3,1002.6z M1373.1,1024.3c0,0.1,0,0.2-0.1,0.2
		C1373.1,1024.5,1373.1,1024.4,1373.1,1024.3L1373.1,1024.3L1373.1,1024.3z"/>
	<path style="fill:#161616;" d="M1542.9,677.3c-4.9,0.4-9.8,1.2-14.5,2.5c-4.3,1.2-8.4,3.1-12.3,5.3c-4.1,2.4-7.7,5.6-11,8.9
		c-3.1,3.1-5.7,6.6-8.2,10.2c-2.6,3.8-4.9,7.7-6.8,12c-1.7,4.1-3.1,8.3-4.3,12.6c-0.5,1.9-1.1,3.8-1.4,5.8c-0.5,2.8-0.6,5.7-0.6,8.5
		c0,2.3,0.4,4.5,0.8,6.7c0.5,2.8,1.1,5.5,2,8.2c1.4,4.5,3.8,8.7,6.5,12.5c5.5,7.7,14,13.5,23.2,15.8c4.6,1.2,9.5,1.4,14.2,1.6
		c4.6,0.1,9.2-0.6,13.7-1.6c4.6-1,8.8-3.1,13-5.1c0,0-0.1,0-0.1,0.1c0.4-0.2,0.8-0.4,1.3-0.6c0.2-0.1,0.3-0.2,0.5-0.3
		c-0.2,0.1-0.3,0.2-0.5,0.2c3.8-1.9,7.4-3.9,10.1-7.4c0.9-1,1.4-2.1,1.7-3.3c0.4-1.9,0-4-1-5.6c-1.1-1.6-2.7-2.7-4.6-3.1
		c-1.7-0.4-4.2-0.2-5.6,1c-2.9,2.5-6.2,4.2-9.6,5.9c-1.2,0.5-2.4,1.1-3.5,1.6c-2.4,1-4.9,1.8-7.4,2.3c-4.1,0.6-8.1,0.7-12.2,0.5
		c-2.9-0.3-5.8-0.8-8.6-1.6c-2.1-0.9-4.1-2-6-3.2c-1.8-1.3-3.4-2.8-4.9-4.4c-1.6-2-3-4.2-4.2-6.5c-1.2-2.8-2.1-5.7-2.8-8.7
		c-0.4-2.7-0.7-5.4-0.6-8.2c0.3-2.3,0.8-4.4,1.4-6.7c0.6-2.4,1.3-4.9,2.2-7.3c0.8-2.2,1.7-4.3,2.8-6.3c1.3-2.5,2.7-4.8,4.3-7.1
		c2.8-3.8,5.8-7.4,9.3-10.6c2.4-1.9,4.9-3.6,7.6-5.1c3.2-1.4,6.4-2.5,9.8-3.2c6.6-1.1,13.5-1.6,20.2-1.2c6.2,0.6,12.3,2.1,18.2,4.1
		c5,1.9,9.7,4.3,14.2,7.2c3.4,2.5,6.3,5.3,9.1,8.5c3.2,3.8,6.1,7.9,8.4,12.3c1,1.9,2.1,3.9,3.1,5.8c1.8,4.2,3.6,8.4,5.2,12.7
		c1.9,5.1,3.7,10.2,5.4,15.4c0.9,2.8,1.7,5.6,2.5,8.4c0.7,2.3,1.2,4.6,1.8,7c1.1,4.5,2,9.1,2.9,13.7c0.5,3.3,1.1,6.6,1.3,9.9
		c0.3,3.6,0.7,7.1,0.8,10.7c0.1,4.1,0.1,8.2,0.1,12.3c0,3.2-0.3,6.4-0.4,9.6c-0.2,1.6-0.3,3.2-0.5,4.7c-0.2,1.8-0.3,3.7-0.5,5.5
		c-0.3,2.2-0.7,4.5-1,6.7c-0.3,1.7-0.4,3.6-0.8,5.3c-0.5,2.2-1,4.4-1.5,6.6c-0.4,1.7-0.7,3.5-1.2,5.2c-1.1,3.9-2.3,7.8-3.4,11.7
		c-1.8,5-3.7,10-5.8,14.9c-2,4.7-4.4,9.5-7.2,13.8c-1.3,2-2.6,4.1-3.9,6.1c-0.9,1.3-1.9,2.6-2.8,4c-1,1.4-1.9,2.8-3,4.2
		c-1.5,1.8-3,3.6-4.5,5.5c-1.1,1.3-2.1,2.8-3.3,4c-2.9,3.1-5.8,6.2-8.7,9.3c-1.4,1.5-3.1,2.9-4.6,4.3c-1.4,1.4-2.9,2.7-4.3,4.1
		c-2.4,2-4.9,4.1-7.3,6.1c-2.1,1.8-4.3,3.4-6.5,5.1c-2.4,1.8-4.7,3.6-7.2,5.3c-3,2-6.1,4.1-9.1,6.2c-2.7,1.8-5.5,3.4-8.3,5.1
		c-2.6,1.6-5.2,3-7.9,4.4c-6,3.1-12.1,6.2-18.2,9.1c-6,2.7-12,5.3-18.1,7.9c-5.6,2.3-11.2,4.6-16.8,7c-6.4,2.7-12.8,5.4-19.2,8.2
		c-6.1,2.7-12,5.8-18,8.8c-4.4,2.2-8.6,4.8-12.8,7.5c-2.8,1.7-5.5,3.5-7.9,5.7c-2.5,2.2-4.7,4.7-7,7c-1.6,1.6-1.3,4.4,0.3,5.9
		c1.7,1.6,4.3,1.3,5.9-0.3c2.1-2.2,4.2-4.4,6.4-6.5c3.2-2.5,6.7-4.5,10.1-6.6c3-1.8,6.2-3.4,9.3-5c5.2-2.5,10.5-5.1,15.8-7.3
		c6.6-2.7,13.2-5.3,19.8-7.9c5.5-2.1,11.1-4,16.6-6.2c3-1.1,5.9-2.2,8.8-3.4c3.5-1.5,7-2.9,10.4-4.4c3.1-1.3,6.1-2.8,9.2-4.2
		c3.1-1.4,6.2-3,9.3-4.5c6-2.9,11.8-6.2,17.5-9.5c2.7-1.6,5.3-3.4,7.9-5.1c2.4-1.6,4.7-3.1,7-4.8c2.6-1.8,5.3-3.6,7.7-5.6
		c3.1-2.5,6.2-5,9.3-7.5c2.6-2.1,5.1-4.5,7.6-6.7c2.1-1.9,4.1-3.8,6.1-5.8c1.6-1.6,3.1-3.2,4.6-4.8c0.7-0.8,1.5-1.5,2.2-2.3
		c2.5-3,5-5.9,7.4-8.9c2.1-2.5,3.9-5.1,5.8-7.7c2.2-2.9,4.1-6,6.1-9c6.1-9.1,9.8-19.3,13.7-29.4c1.2-3.2,2.1-6.6,3.1-9.9
		c0.8-2.7,1.6-5.4,2.2-8.1c0.7-3.1,1.6-6.1,2.1-9.2c0.6-3.7,1.2-7.4,1.8-11.1c0.2-1.2,0.3-2.5,0.4-3.7c0.2-2.3,0.5-4.5,0.7-6.8
		c0.4-3.7,0.5-7.4,0.7-11.2c0.3-5.9,0.4-11.9-0.1-17.8c-0.5-6.8-1.2-13.7-2.5-20.4c-0.6-3.2-1.1-6.5-1.9-9.6
		c-0.4-1.8-0.9-3.7-1.3-5.5c-0.3-1.4-0.6-2.8-1-4.2c-1-3.3-1.9-6.7-2.9-10c-0.9-3.1-2.1-6.2-3.1-9.3c-0.9-2.7-1.9-5.4-3-8.1
		c-1.2-3-2.4-6-3.7-8.9c-1.6-3.6-3.4-7.1-5.3-10.6c-3.7-7.1-8.7-13.4-14.2-19.1c-3-3.1-6.5-5.6-10.1-8c-3.7-2.5-7.8-4.4-11.9-6.1
		c-8.8-3.6-18.2-5.8-27.7-6.4c-1.3-0.1-2.6-0.1-4-0.1C1548.7,676.8,1545.8,677,1542.9,677.3L1542.9,677.3L1542.9,677.3z
		 M1575.7,696.5c0.2,0.1,0.4,0.1,0.6,0.2C1576,696.7,1575.8,696.6,1575.7,696.5L1575.7,696.5L1575.7,696.5z M1597.4,710.9
		c0.2,0.3,0.5,0.5,0.7,0.8C1597.9,711.5,1597.7,711.2,1597.4,710.9L1597.4,710.9L1597.4,710.9z M1502.5,726.5
		c-0.1,0.2-0.1,0.3-0.2,0.5C1502.4,726.8,1502.4,726.6,1502.5,726.5L1502.5,726.5L1502.5,726.5z M1440,1026.2
		c-0.2,0.1-0.5,0.2-0.7,0.3C1439.5,1026.4,1439.8,1026.3,1440,1026.2L1440,1026.2L1440,1026.2z"/>
	<path style="fill:#161616;" d="M1474.7,1268.6c-0.9,1.7-1.1,3.8-0.5,5.6c0.5,1.5,1.7,3.2,3.2,4c-11.3,7.7-22.7,15.3-34.1,22.7
		c-13.7,8.8-27.4,17.6-41.1,26.2c-23.8,15-48.1,29.5-71.8,44.6c-7.1,4.5-14.2,9.1-21.3,13.6c-6.5,4.1-12.8,8.5-19.2,12.7
		c-6,4-11.9,8.2-17.8,12.3c-5.4,3.7-10.8,7.6-16,11.5c-12.1,9.1-24.2,18.2-36.1,27.7c-2.9,2.3-5.7,4.7-8.5,7.1
		c-3.7,3.2-5.5,7.9-4.6,12.8c0.3,1.5,0.6,2.8,1.1,4.2c0.5,1.3,1.2,2.7,1.8,3.9c1,1.9,2.1,3.8,3.3,5.6c4.2,6,8.6,12,13,17.9
		c2.2,3,4.4,5.9,6.7,8.8c0.9,1.2,1.8,2.4,2.8,3.5c2.1,2.4,4.1,5,6.6,7c1.1,0.8,2.2,1.6,3.4,2.2c1.1,0.6,2.5,1,3.7,1.4
		c1,0.3,2,0.5,3,0.5c1.4,0.1,2.8,0.2,4.2,0.2c2.6-0.1,5.2-0.8,7.6-1.6c2.9-0.9,5.8-2.4,8.5-3.7c5.7-2.8,11-6.2,16.3-9.6
		c11.9-7.7,23.6-15.7,35.4-23.7c12.9-8.8,25.7-17.6,38.5-26.5c12.6-8.7,25-17.7,37.5-26.6c11.2-8,22.5-16,33.9-23.8
		c12.2-8.2,24.5-16.3,36.7-24.4c12.3-8.2,24.8-16.4,36.8-25.2c5.9-4.3,11.8-8.6,17.4-13.3c2.8-2.4,5.7-4.7,7.8-7.8
		c1.2-1.8,1.9-3.8,2.3-5.9c0.6-3,0.1-6.1-0.8-9c-0.7-2.3-2-4.5-3.2-6.6c-1.2-2.1-2.6-4-4.1-5.9c-1.4-1.8-3-3.6-4.5-5.4
		c-4.3-5.1-8.9-9.9-13.4-14.9c-3-3.6-6-7.3-9-10.9c-2-2.5-4.1-5-6.3-7.4c-3-3.4-6.3-6.7-11-7.5c-0.5-0.1-1-0.1-1.4-0.1
		C1478.5,1264.7,1476,1266,1474.7,1268.6L1474.7,1268.6L1474.7,1268.6z M1259.6,1436.6c11.9-9.1,24.1-17.7,36.3-26.4
		c6.3-4.5,12.7-8.6,19.1-13c6.2-4.2,12.5-8.2,18.7-12.3c11.2-7.3,22.5-14.5,33.8-21.6c25.5-16.2,51-32.4,76.3-48.9
		c14.1-9.2,28.1-18.5,41.9-28c3.5,4.3,7,8.6,10.6,12.9c4.6,5.4,9.4,10.6,14.1,15.8c3.1,3.6,6.1,7.3,8.4,11.5c0.4,0.9,0.7,1.8,1,2.7
		c0,0.1,0,0.3,0,0.4c0,0.2-0.1,0.3-0.1,0.4c-0.1,0.1-0.1,0.2-0.2,0.3c-0.8,0.9-1.7,1.7-2.6,2.6c-11.2,9.3-23.1,17.6-35.1,25.8
		c-11.3,7.7-22.7,15.3-34.2,22.8c-13.3,8.8-26.4,17.7-39.5,26.9c-11.2,7.8-22.2,15.9-33.3,23.8c-13.1,9.3-26.2,18.5-39.4,27.7
		c-11.7,8.1-23.6,16.1-35.4,24.2c-4.3,2.9-8.5,5.9-12.9,8.7c-7.1,4.6-14.2,9.4-21.8,13.3c-2.8,1.3-5.6,2.5-8.6,3.3
		c-0.8,0.1-1.6,0.1-2.4,0.1c-0.4-0.1-0.9-0.2-1.3-0.3c-0.3-0.1-0.6-0.3-0.8-0.4c-1.5-1.2-2.8-2.6-4-4.1c-4.3-5.4-8.4-10.9-12.5-16.4
		c-1.9-2.5-3.7-5-5.6-7.5c-2.7-3.7-5.4-7.4-7.6-11.5c-0.3-0.7-0.5-1.3-0.8-2c1.4-1.5,3-2.8,4.5-4.2
		C1237,1454,1248.3,1445.2,1259.6,1436.6L1259.6,1436.6L1259.6,1436.6z M1225.4,1463.9c-0.2,0.2-0.4,0.4-0.7,0.6
		C1225,1464.3,1225.2,1464.1,1225.4,1463.9L1225.4,1463.9L1225.4,1463.9z M1221.8,1467.1c0,0.1-0.1,0.1-0.1,0.2c0,0,0,0,0,0
		C1221.7,1467.2,1221.7,1467.1,1221.8,1467.1L1221.8,1467.1L1221.8,1467.1z M1221.1,1468.1c-0.1,0.2-0.1,0.4-0.2,0.5
		C1221,1468.5,1221.1,1468.3,1221.1,1468.1L1221.1,1468.1L1221.1,1468.1z M1246.9,1503.4c0.3,0.3,0.5,0.6,0.8,0.9
		C1247.4,1504,1247.2,1503.7,1246.9,1503.4L1246.9,1503.4L1246.9,1503.4z"/>
	<path style="fill:#161616;" d="M1494.5,1229.6c-2.3,0.1-4.7,0.7-6.9,1.4c-1.3,0.4-2.6,1-3.8,1.6c-2.1,1-4.2,2-6.2,3
		c-2.7,1.4-5.4,2.9-8,4.5c-1.7,1.1-3.4,2.5-4.3,4.4c-1.1,2.3-1.5,4.6-1.1,7.1c0.2,1.4,0.5,2.5,1,3.7c0.1,0.3,0.3,0.7,0.5,1
		c-0.2,0.3-0.3,0.7-0.4,1.1c-0.2,1.1-0.1,2.7,0.7,3.6c8.7,10.3,17,20.9,25.5,31.3c8.6,10.6,17.3,21.1,25.4,32.1
		c8.1,11,16,22.1,24,33.2c1.2,1.7,2.4,3.5,3.9,4.9c1.9,1.9,4.3,2.6,6.8,2.3c3-0.4,5.5-2,7.9-3.7c2.8-2,5.2-4.5,7.6-6.9
		c1.3-1.2,2.5-2.5,3.8-3.7c2.4-2.3,4.8-4.6,7.1-6.9c1.1-1.1,2.2-2.2,3.2-3.4c0.9-1.1,1.8-2.2,2.6-3.4c1.4-2.2,2-4.9,1.6-7.5
		c-0.8-6.2-5.1-11.3-9-15.9c-2.1-2.4-4.2-4.8-6.3-7.2c-2.8-3.2-5.7-6.4-8.5-9.6c-6.1-6.8-12.1-13.7-18.1-20.6
		c0.4,0.5,0.8,0.9,1.2,1.4c-8.8-10.3-17.5-20.7-26-31.2c-2.3-2.8-4.5-5.6-6.9-8.3c-1.4-1.6-2.8-3.1-4.5-4.4c-1.4-1.1-2.8-2-4.4-2.7
		c-2.3-1-4.7-1.4-7.1-1.4C1495.3,1229.6,1494.9,1229.6,1494.5,1229.6L1494.5,1229.6L1494.5,1229.6z M1496.4,1244.6
		c0.1,0,0.3,0.1,0.4,0.1c0.4,0.2,0.8,0.4,1.1,0.6c1.6,1.3,3,2.8,4.3,4.3c8.3,9.9,16.3,20,24.8,29.7c8.8,10.1,17.7,20.1,26.7,30
		c4.2,4.6,8.4,9.2,12.5,13.9c1.7,2.1,3.4,4.2,4.8,6.5c0.1,0.2,0.1,0.3,0.2,0.5c-2.4,2.7-5,5.1-7.7,7.5c-3.8,3.5-7.4,7.2-11.2,10.6
		c-0.3,0.2-0.6,0.5-0.9,0.7c-0.4-0.5-0.8-0.9-1.2-1.4c-1.2-1.4-2.4-2.8-3.5-4.2c0.3-0.4,0.6-0.8,0.8-1.2c0.9-1.8,0.9-3.7,0.4-5.6
		c-1.1-4-3.9-6.9-6.5-10c-1.8-2.1-3.6-4-5.5-6c-3.3-3.5-6.5-7.2-9.6-10.8c-5.2-6.3-10.3-12.6-15.5-18.9c-5.8-7-11.8-13.8-17.7-20.7
		c-5-5.9-10.1-11.9-13.9-18.7c0.9-0.5,1.9-1,2.8-1.5c1.2-0.7,2.5-1.3,3.7-1.9c2.7-1.3,5.5-2.6,8.4-3.4
		C1494.9,1244.7,1495.7,1244.7,1496.4,1244.6L1496.4,1244.6L1496.4,1244.6z M1478.5,1249.1c0,0.1,0,0.2,0,0.3
		C1478.5,1249.2,1478.5,1249.1,1478.5,1249.1L1478.5,1249.1L1478.5,1249.1z M1525.4,1308.6c0.2,0.3,0.5,0.5,0.7,0.8
		C1525.8,1309.2,1525.6,1308.9,1525.4,1308.6L1525.4,1308.6L1525.4,1308.6z M1565.3,1322.1c0.3,0.4,0.6,0.7,1,1.1
		C1566,1322.8,1565.6,1322.5,1565.3,1322.1L1565.3,1322.1L1565.3,1322.1z M1572.2,1329.1c0,0.1-0.1,0.1-0.1,0.2
		C1572.1,1329.2,1572.1,1329.1,1572.2,1329.1L1572.2,1329.1L1572.2,1329.1z M1571.4,1330.5
		C1571.4,1330.5,1571.4,1330.5,1571.4,1330.5C1571.4,1330.5,1571.4,1330.5,1571.4,1330.5C1571.4,1330.5,1571.4,1330.5,1571.4,1330.5
		L1571.4,1330.5L1571.4,1330.5z M1550.5,1348c0.3,0.3,0.6,0.7,0.9,1C1551,1348.6,1550.7,1348.3,1550.5,1348L1550.5,1348L1550.5,1348
		z"/>
	<path style="fill:#161616;" d="M1535.7,1243c-1.5,0.6-2.9,1.5-4.2,2.4c-2.9,1.9-5,4.7-6.8,7.6c-1.8,2.9-0.2,6.9,2.6,8.3
		c1.5,0.8,3.2,0.9,4.8,0.4c1.6-0.5,2.7-1.6,3.5-3c0.1-0.2,0.2-0.3,0.3-0.5c0.5-0.7,1-1.3,1.6-1.9c0.7-0.5,1.4-1,2.1-1.5
		c0.4,0.2,0.8,0.4,1.2,0.7c5.1,4,9.6,8.7,14.2,13.3c3,3,5.9,6.1,8.8,9.2c0.2,0.3,0.5,0.6,0.7,0.9c-0.2,0.4-0.4,0.7-0.6,1
		c-1.9,2.3-3.9,4.5-6,6.6c-1.7,1.7-3.2,3.4-4.7,5.2c-1.9,2.3-2.3,5.4-0.6,7.9c1.6,2.3,4.8,3.6,7.5,2.6c2.5-0.9,4.4-2.2,6.3-4
		c0.9-0.8,1.7-1.7,2.6-2.6c3.1-3.2,6.3-6.6,8.3-10.6c0.7-1.4,1.2-3.1,1.3-4.7c0.2-0.9,0.2-1.9,0.1-2.8c-0.1-1.6-0.6-2.9-1.4-4.4
		c-1-1.9-2.6-3.4-4.1-5c-1.9-1.9-3.8-3.6-5.8-5.4c-3.9-3.6-7.7-7.1-11.5-10.7c-2.1-1.9-4.2-3.7-6.4-5.5c-2.8-2.2-6.1-4.2-9.8-4.3
		c-0.1,0-0.2,0-0.3,0C1538.3,1242.3,1537,1242.5,1535.7,1243L1535.7,1243L1535.7,1243z M1540.2,1254.6c0.1,0,0.2,0,0.3,0
		C1540.4,1254.6,1540.3,1254.6,1540.2,1254.6L1540.2,1254.6L1540.2,1254.6z M1539.4,1254.6
		C1539.4,1254.6,1539.4,1254.6,1539.4,1254.6c-0.3,0-0.5,0.1-0.8,0.1C1538.9,1254.7,1539.2,1254.6,1539.4,1254.6L1539.4,1254.6
		L1539.4,1254.6z M1564.8,1278.5c0,0,0,0.1,0.1,0.1c0,0,0,0,0,0C1564.8,1278.6,1564.8,1278.5,1564.8,1278.5L1564.8,1278.5
		L1564.8,1278.5z M1564.7,1279.1c0,0.1-0.1,0.2-0.1,0.3C1564.7,1279.3,1564.7,1279.2,1564.7,1279.1L1564.7,1279.1L1564.7,1279.1z
		 M1565.1,1279.4C1565.1,1279.4,1565.1,1279.4,1565.1,1279.4c0.1,0.3,0.1,0.5,0.1,0.7C1565.2,1279.9,1565.2,1279.6,1565.1,1279.4
		L1565.1,1279.4L1565.1,1279.4z"/>
	<path style="fill:#161616;" d="M1583.9,1226.2c-1.2,0.1-2.2,0.4-3.2,1.1c-0.6,0.4-1,0.8-1.4,1.2c-3.6,3.2-6.7,7-10,10.4
		c-4.1,4.3-8.2,8.5-12.3,12.7c-2.9,3-2.4,8,0.6,10.7c3.2,2.8,7.8,2.4,10.7-0.6c4.5-4.7,9.1-9.3,13.6-14c1.9-2,3.9-4,5.7-6.1
		c1.5-1.7,3.3-3.9,3.7-6.2c0.4-2.2,0.2-4.3-1-6.1c-1.2-1.9-3.5-3.2-5.7-3.2C1584.2,1226.1,1584,1226.1,1583.9,1226.2L1583.9,1226.2
		L1583.9,1226.2z"/>
	<path style="fill:#161616;" d="M1566.9,1207.6c-3.4,2.2-4.7,7.3-2.2,10.7c6.6,8.9,13.2,17.8,19.8,26.7c2.5,3.3,4.9,6.7,7.4,10
		c1.2,1.7,2.5,3.4,3.7,5.1c0.9,1.2,1.8,2.4,2.8,3.5c1.2,1.3,2.5,2.3,4,3.4c1.9,1.3,5,0.9,6.9-0.3c2.2-1.4,2.9-3.6,3.1-6.1
		c0.2-3.3-1.9-6.2-3.7-8.8c-1.1-1.6-2.3-3.1-3.4-4.7c-2.5-3.3-4.9-6.7-7.4-10c-6.7-9.1-13.4-18.2-20.2-27.2
		c-1.2-1.6-2.7-2.8-4.8-3.3c-0.5-0.1-1.1-0.2-1.6-0.2C1569.6,1206.3,1568.1,1206.8,1566.9,1207.6L1566.9,1207.6L1566.9,1207.6z"/>
	<path style="fill:#161616;" d="M1204.9,1481.7c-3.4,3.6-6.8,7.2-10.3,10.8c-1,1-1.9,2.1-2.7,3.3c-0.9,1.4-1.4,3-1.7,4.7
		c-0.4,3.3,0.5,6.6,1.7,9.6c1.2,3,2.9,5.9,4.5,8.7c1.1,1.9,2.5,3.8,4.2,5.2c2.6,2.2,6,2.8,9.3,2.5c3.1-0.3,6-1.5,8.8-2.8
		c2-1,3.9-2,5.8-3.1c4.3-2.6,8.4-5.6,11.8-9.3c1.4-1.5,1.5-3.9,0.4-5.6c-1.4-2.1-4.2-2.7-6.3-1.3c-2.6,1.7-5.3,3.4-7.9,5.2
		c-2.6,1.7-5.2,3.4-8,4.8c-1.6,0.7-3.3,1.4-5,1.8c-0.6,0.1-1.1,0.1-1.7,0.1c-0.2,0-0.5-0.1-0.7-0.2c0,0-0.1,0-0.1-0.1
		c-0.3-0.3-0.7-0.6-1-0.9c-2-2.5-3.7-5.2-5.2-8.1c-0.6-1.4-1.1-2.8-1.5-4.2c-0.1-0.6-0.1-1.1-0.1-1.7c0-0.1,0.1-0.3,0.1-0.4
		c0.1-0.3,0.3-0.6,0.5-0.9c1.8-2.3,3.9-4.3,5.9-6.4c1.9-2,3.8-4,5.7-6c1.6-1.7,1.4-4.6-0.3-6.1c-0.8-0.7-1.8-1.1-2.9-1.1
		C1207,1480.3,1205.8,1480.8,1204.9,1481.7L1204.9,1481.7L1204.9,1481.7z"/>
	<path style="fill:#161616;" d="M1199.9,1505.7c-17,10.4-33.9,21-51.1,31.3c-7.3,4.4-14.8,8.7-22.1,13c-8,4.7-16,9.4-24,14.1
		c-4.6,2.7-9.2,5.5-13.8,8.1c-2.3,1.3-2.8,4.6-1.4,6.7c1.4,2.2,4.5,2.9,6.7,1.4c7.9-5.5,16.1-10.7,24.2-15.8
		c7.5-4.7,15.1-9.2,22.7-13.9c7.9-4.8,15.7-9.7,23.6-14.6c7.4-4.7,14.9-9.4,22.4-14c5.6-3.5,11.1-6.9,16.7-10.3c1.6-1,2-3.3,1-4.9
		c-0.7-1-1.8-1.6-2.9-1.6C1201.1,1505.2,1200.5,1505.3,1199.9,1505.7L1199.9,1505.7L1199.9,1505.7z"/>
	<path style="fill:#161616;" d="M1465.7,1318c-0.4,0.5-0.9,1-1.4,1.4c-2,1.5-4.1,2.9-6.1,4.4c-1.7,1.2-3.4,2.4-5,3.6
		c-3.4,2.4-6.7,4.8-10,7.3c-6.9,5.1-13.8,10.1-20.6,15.2c-13.7,10.1-27.5,20.1-41.3,30c-13,9.2-26.1,18.5-39,27.8
		c-14.8,10.6-29.6,21.3-44.3,32c-4.7,3.4-9.3,6.8-14,10.2c-1.9,1.4-3.8,2.7-5.6,4.1c-8,6-16,12.1-23.9,18.1
		c-4.7,3.6-9.4,7.2-14.1,10.9c-0.6,0.5-0.9,1.5-0.9,2.3c0,0.9,0.3,1.7,1,2.3c0.6,0.6,1.4,0.9,2.3,0.9c1,0,1.6-0.4,2.3-1
		c2.5-1.9,4.9-3.9,7.4-5.8c-0.2,0.2-0.5,0.3-0.7,0.5c7.8-6,15.6-11.8,23.5-17.7c4.9-3.7,9.8-7.3,14.8-10.9
		c14.7-10.7,29.5-21.4,44.3-32c14.4-10.4,28.9-20.7,43.4-30.9c13.8-9.7,27.4-19.5,41-29.4c13.3-9.7,26.5-19.4,39.8-29
		c1.5-1,2.9-2.1,4.4-3.1c0.8-0.6,1.7-1.2,2.5-1.8c1.2-0.8,2.3-1.7,3.4-2.6c1-0.8,1.7-1.7,2.4-2.8c0.8-1.3,0.5-3-0.5-4
		c-0.6-0.6-1.6-1-2.5-1C1467.1,1317,1466.3,1317.3,1465.7,1318L1465.7,1318L1465.7,1318z"/>
	<path style="fill:#161616;" d="M1287.5,1425.4c-1,0.6-1.4,1.9-0.8,3c0.9,1.6,1.9,3.2,2.9,4.8c0.8,1.3,1.7,2.5,2.6,3.7
		c1.6,2.3,3.5,4.5,5.3,6.7c1.8,2.2,3.8,4.2,5.8,6.2c2.2,2.2,4.3,4.4,6.4,6.6c1.1,1.1,3,1.1,4.1,0c1.1-1.1,1.1-2.9,0-4
		c-2.9-3-6.3-5.5-9.3-8.4c-1.4-1.4-2.9-2.7-4.2-4.2c-0.7-0.8-1.4-1.5-2-2.3c-0.7-0.9-1.4-1.7-2.1-2.6c-0.9-1.2-1.7-2.4-2.6-3.7
		c-0.5-0.7-0.9-1.5-1.3-2.2c-0.6-0.9-1.1-1.9-1.7-2.9c-0.4-0.7-1.1-1.1-1.9-1.1C1288.2,1425.1,1287.8,1425.2,1287.5,1425.4
		L1287.5,1425.4L1287.5,1425.4z"/>
	<path style="fill:#161616;" d="M1315.9,1408.8c-1.1,1.2-1.1,3,0,4.2c4,4.1,7.9,8.3,12.1,12.2c1.9,1.8,3.8,3.6,5.8,5.4
		c0.9,0.8,1.8,1.7,2.7,2.5c1.3,1.1,2.6,2.1,3.9,3.2c0.5,0.3,1,0.4,1.5,0.4c0.8,0,1.7-0.3,2.2-0.9c1.2-1.2,1.2-3.2,0-4.4
		c-1.9-1.8-3.8-3.6-5.8-5.3c-2-1.7-4-3.4-6-5.1c-4.3-3.8-8.2-8-12.2-12.1c-0.6-0.6-1.3-0.9-2.1-0.9
		C1317.3,1407.9,1316.5,1408.2,1315.9,1408.8L1315.9,1408.8L1315.9,1408.8z"/>
	<path style="fill:#161616;" d="M1349.7,1386.9c-1.1,0.3-2.1,1.1-2.7,2.1c-0.6,1-0.8,2.2-0.5,3.4c0.3,1.2,1.1,2,2.1,2.7
		c6.2,4.5,12.5,9,18.7,13.6c0,0-0.1,0-0.1-0.1c0.1,0.1,0.1,0.1,0.2,0.2c0.1,0.1,0.2,0.2,0.3,0.3c0,0,0.1,0.1,0.1,0.1
		c0.3,0.3,0.7,0.5,1,0.8c0.9,0.7,1.8,1.5,2.6,2.3c1,1,2,2.2,2.9,3.2c1.3,1.5,3.7,1.6,5.2,0.7c1.6-0.9,2.6-3.1,2-4.8
		c-0.3-0.9-0.6-1.8-1.2-2.6c-0.5-0.7-1.1-1.4-1.7-2.1c-0.8-0.8-1.6-1.5-2.5-2.2c-1.1-0.8-2.2-1.7-3.3-2.5c-0.3-0.2-0.5-0.5-0.9-0.7
		c0,0-0.1,0-0.1,0c-1.1-0.8-2.2-1.7-3.4-2.5c-5.2-3.8-10.5-7.6-15.7-11.4c-0.6-0.4-1.4-0.6-2.2-0.6
		C1350.5,1386.8,1350.1,1386.8,1349.7,1386.9L1349.7,1386.9L1349.7,1386.9z M1366.4,1408c0.1,0.1,0.2,0.1,0.3,0.2
		C1366.6,1408.1,1366.5,1408,1366.4,1408L1366.4,1408L1366.4,1408z M1366.9,1408.4c0.1,0,0.1,0.1,0.2,0.1c0,0,0,0,0,0
		C1367,1408.5,1367,1408.4,1366.9,1408.4L1366.9,1408.4L1366.9,1408.4z"/>
	<path style="fill:#161616;" d="M1390.9,1356.6c-0.5,0.5-0.8,1.2-0.8,1.9c0,0.8,0.3,1.4,0.8,2c2.6,3.3,5.2,6.6,7.9,9.8
		c2.4,2.9,5,5.6,7.6,8.4c1.1,1.1,3,1.1,4,0c1.1-1.2,1-2.9,0-4c-2.5-2.8-5.2-5.5-7.6-8.3c-2.8-3.1-5.4-6.4-8-9.7
		c-0.4-0.5-1.3-0.8-1.9-0.8c0,0,0,0-0.1,0C1392.1,1355.8,1391.4,1356.1,1390.9,1356.6L1390.9,1356.6L1390.9,1356.6z"/>
	<path style="fill:#161616;" d="M1215.9,1147.2c-4,0.1-8,0.2-12,0.3c-7.6,0.1-15.3,0.3-22.9,0.5c-16.9,0.6-33.7,1.6-50.5,2.6
		c-34.2,2.2-68.4,5.1-102.6,7.9c-7.1,0.6-14.2,1.2-21.3,1.8c-4,0.4-6.9,4.5-6.4,8.4c0.5,4.2,4.3,6.8,8.4,6.4
		c37.5-3.3,75.1-6.2,112.7-8.9c15.4-1.1,30.8-1.9,46.1-2.6c16.4-0.7,32.8-0.9,49.3-1.2c4.6-0.1,9.3,0,13.8-1.1
		c2-0.5,3.6-1.1,4.9-2.8c1.2-1.6,1.8-3.6,1.5-5.6c-0.2-1.9-1.2-3.7-2.8-4.9c-1.7-1.4-3.5-1.6-5.6-1.6
		C1224.3,1146.7,1220.1,1147.1,1215.9,1147.2L1215.9,1147.2L1215.9,1147.2z"/>
	<path style="fill:#161616;" d="M1589.2,1137.9c-11.8,0.1-23.6,0.7-35.4,1.1c-3.5,0.1-6,4-5.6,7.3c0.2,1.7,1.1,3.2,2.4,4.3
		c1.5,1.1,3.1,1.4,4.9,1.3c13.7-0.5,27.4-0.9,41.1-0.9c14.4,0.2,28.8,0.8,43.3,1.4c15.2,0.6,30.5,0.9,45.7,1.3
		c7.1,0.2,14.3,0.5,21.4,0.9c4,0.2,8,0.2,12,0.2c3.8,0,7.7-0.2,11.4-1c1.9-0.5,3.5-1.1,4.8-2.7c1.2-1.6,1.8-3.6,1.5-5.5
		c-0.2-1.9-1.2-3.6-2.7-4.8c-1.6-1.3-3.5-1.6-5.5-1.5c-5.4,0.3-10.8,0.5-16.2,0.5c-6.8-0.1-13.6-0.4-20.5-0.5
		c-7.7-0.1-15.5-0.2-23.2-0.2c-14.6-0.1-29.2-0.6-43.8-0.9c-7.8-0.1-15.5-0.2-23.3-0.2C1597.3,1137.9,1593.2,1137.9,1589.2,1137.9
		L1589.2,1137.9L1589.2,1137.9z M1595.3,1151c0.4,0,0.7,0,1.1,0C1596,1151,1595.6,1151,1595.3,1151L1595.3,1151L1595.3,1151z"/>
	<path style="fill:#161616;" d="M881.2,565.9c-4.2,0.6-8.4,1.2-12.7,1.8c-4,0.5-8,0.9-12,1.4c-3.3,0.4-5.8,3.6-5.3,6.9
		c0.5,3.4,3.6,5.7,6.9,5.3c8.2-0.9,16.6-1.5,24.7-3.1c1.6-0.3,3-1,4.1-2.3c1-1.3,1.5-3,1.3-4.7c-0.4-3.1-3.1-5.4-6.1-5.4
		C881.7,565.9,881.5,565.9,881.2,565.9L881.2,565.9L881.2,565.9z"/>
	<path style="fill:#161616;" d="M506.1,1174.5c-3.9,0.8-7.8,1.6-11.8,2.1c-3.7,0.5-7.5,0.6-11.2,0.8c-7.9,0.4-15.8,0.7-23.7,0.9
		c-17.5,0.3-35,0.4-52.5,0.3c-4.5,0-9,0-13.5,0c-1.9,0-3.9,1.5-5,2.9c-1.3,1.6-1.9,3.7-1.6,5.8c0.3,2,1.3,3.8,2.9,5
		c0.6,0.3,1.1,0.7,1.7,1c1.3,0.6,2.6,0.8,4,0.6c19.6,0.1,39.2,0.1,58.8-0.2c8.2-0.1,16.4-0.4,24.6-0.7c7.6-0.3,15.3-0.5,22.8-1.8
		c2.8-0.5,5.6-1.3,8.3-2.1c3.2-1,5-4.8,4.6-8c-0.5-3.4-3.7-6.7-7.2-6.7C506.9,1174.3,506.5,1174.4,506.1,1174.5L506.1,1174.5
		L506.1,1174.5z"/>
	<path style="fill:#161616;" d="M837.8,1404c-2.7,0.4-5.5,1.4-8,2.5c-2.4,1.1-4.7,2.7-6.9,4.2c-3.1,2.2-6.1,4.8-8.9,7.3
		c-5.9,5.3-11.5,10.9-17.2,16.5c-21.2,21-42.1,42.4-62.7,64c-1.3,1.4-1.7,3.9-1.4,5.7c0.3,1.9,1.4,3.7,3,4.8c1,0.7,2.1,1.2,3.2,1.4
		c-0.6,1.3-1,2.9-0.6,4.3c0.4,1.5,0.7,3.2,1.8,4.4c1,1.1,2.1,2.1,3.2,3c1.1,0.8,2.4,1.4,3.6,2.1c2,1.1,4.4,1.8,6.7,2.4
		c4.2,1.1,8.4,2.1,12.6,3.1c8.2,1.9,16.3,3.6,24.5,5.3c16.2,3.4,32.5,6.1,48.8,8.5c7.5,1.1,15.1,1.9,22.8,2.4
		c3.7,0.3,7.4,0.6,11.1,0.6c2.8,0,5.6,0.1,8.5,0.1c2.2,0,4.4,0.1,6.5,0c13.5-0.8,26.9-1.3,40-4.6c5.5-1.4,10.9-3.2,16.2-5.2
		c5.4-2,10.8-4.9,15.2-8.6c4.5-3.7,7.5-9.2,7.1-15c-0.4-5-3.7-9-7.1-12.4c-8.1-8.4-17-15.9-25.8-23.6c-7.7-6.8-15.1-13.8-22.6-20.9
		c0.5,0.5,0.9,0.9,1.4,1.4c-6-6.1-11.9-12.3-17.8-18.5c-2.6-2.8-5.4-5.6-8.1-8.4c-5.4-5.6-11-11.2-17.2-16
		c-4.4-3.4-9.4-6.2-14.6-8.4c-2.6-1.1-5.4-1.7-8.2-2.3c-1.6-0.3-3.3-0.5-4.9-0.5C840.7,1403.6,839.2,1403.8,837.8,1404L837.8,1404
		L837.8,1404z M841.6,1418.9c1.5,0.1,3,0.3,4.5,0.6c3.1,0.9,6,2.1,8.9,3.6c4.9,2.9,9.3,6.5,13.4,10.4c12.3,12,23.5,25.1,35.9,37
		c3.1,3,6.1,6.1,9.3,8.9c3.4,3.1,6.9,6.2,10.3,9.3c5.7,5.1,11.7,10.1,17.3,15.3c1.3,1.3,2.7,2.5,4,3.7c2.2,2.2,4.5,4.5,6.3,7
		c-0.3,0.5-0.7,0.9-1,1.3c-1,0.9-2.1,1.8-3.3,2.5c-5.7,3.2-11.7,5.5-17.9,7.5c-9.2,2.6-18.8,4.1-28.3,4.7c-4.6,0.3-9.3,0.6-13.9,0.9
		c-4.3,0-8.7-0.1-13-0.1c-3.8,0-7.7-0.4-11.5-0.6c-7.5-0.5-15-1.3-22.4-2.4c-16.4-2.4-32.8-5.2-49.1-8.6c-8.8-1.9-17.7-3.8-26.5-5.9
		c-3.8-1-7.8-1.9-11.4-3.6c-0.2-0.2-0.5-0.3-0.7-0.5c0-0.1,0-0.1-0.1-0.2c-0.8-1.7-2.2-3.1-4-3.8c-0.2-0.1-0.5-0.2-0.7-0.2
		c1.8-1.9,3.5-3.7,5.3-5.6c-0.5,0.5-0.9,0.9-1.3,1.4c12.2-12.7,24.4-25.3,36.8-37.8c11.6-11.7,23.2-23.4,35.3-34.4
		c3.1-2.8,6.3-5.5,9.8-7.8c1.5-0.9,3.1-1.6,4.8-2.2C839.5,1419.2,840.5,1419,841.6,1418.9L841.6,1418.9L841.6,1418.9z M951.5,1515.1
		c-0.1,0.3-0.3,0.5-0.4,0.8C951.2,1515.6,951.3,1515.3,951.5,1515.1L951.5,1515.1L951.5,1515.1z M951.6,1515.4c0,0.1,0,0.2-0.1,0.3
		C951.5,1515.6,951.6,1515.5,951.6,1515.4L951.6,1515.4L951.6,1515.4z M951.8,1515.4c0,0.1,0,0.2,0,0.3
		C951.8,1515.6,951.8,1515.5,951.8,1515.4L951.8,1515.4L951.8,1515.4z"/>
	<path style="fill:#161616;" d="M1013.9,1516.9c-2,1.2-4.1,2.5-6.1,3.7c-1.1,0.7-2.3,1.3-3.4,2.1c-2.6,1.9-5.1,3.7-7.6,5.7
		c-2.4,1.9-4.6,4.2-6.5,6.6c-2.2,2.7-3.6,6.1-3.9,9.5c-0.4,4.2,1.5,7.9,4.1,11c3.2,3.7,7.8,5.8,12.5,6.9c7.5,1.8,15.7,1,23.1-1
		c1.9-0.5,3.7-1.1,5.5-1.8c2.1-0.8,4.1-2.1,6-3.4c3.1-2,6-4.7,8.1-7.7c2.5-3.5,3.8-7.6,3.4-11.9c-0.3-3.8-1.7-7.1-4.2-9.9
		c-2.7-2.9-6.2-4.8-9.8-6.4c-1.9-0.8-4.1-1.3-6.2-1.7c-2-0.4-4.1-0.1-6.1,0c-0.2,0-0.5,0-0.7,0.1c-0.7-0.9-1.7-1.6-2.8-2
		c-0.8-0.3-1.8-0.5-2.7-0.5C1015.6,1516.3,1014.6,1516.5,1013.9,1516.9L1013.9,1516.9L1013.9,1516.9z M1018.5,1530.1
		c1.1,1.4,2.7,2.3,4.6,2.4c1,0.1,2,0.2,2.9,0.3c1.3,0.4,2.6,1,3.8,1.6c1.2,0.7,2.4,1.5,3.6,2.4c0.1,0.1,0.2,0.2,0.3,0.3
		c0.1,0.3,0.1,0.7,0.2,1c-0.1,0.3-0.3,0.7-0.4,1c-0.4,0.6-0.8,1.1-1.3,1.7c-1.4,1.3-2.9,2.5-4.4,3.6c-1.6,0.9-3.2,1.6-5,2.2
		c-3.6,1-7.2,1.5-10.9,1.8c-2.1,0-4.1-0.2-6.2-0.6c-1-0.3-1.9-0.6-2.8-1.1c-0.6-0.4-1.1-0.8-1.7-1.2c-0.1-0.2-0.3-0.3-0.4-0.5
		c0.1-0.3,0.2-0.6,0.3-0.8c0.7-1,1.4-1.9,2.2-2.9c2.4-2.3,4.9-4.4,7.6-6.3c2.3-1.6,4.6-3.1,7-4.5
		C1018.1,1530.4,1018.3,1530.3,1018.5,1530.1L1018.5,1530.1L1018.5,1530.1z M1033.1,1536.1c0.2,0.2,0.3,0.5,0.4,0.7
		C1033.4,1536.6,1033.3,1536.4,1033.1,1536.1L1033.1,1536.1L1033.1,1536.1z M1033.9,1537c0,0.1,0,0.2,0,0.2c0,0,0,0,0,0
		C1033.9,1537.2,1033.9,1537.1,1033.9,1537L1033.9,1537L1033.9,1537z M1033.9,1537.3C1033.9,1537.3,1033.9,1537.3,1033.9,1537.3
		c0,0,0,0.1,0,0.1c0,0,0,0,0,0C1033.9,1537.3,1033.9,1537.3,1033.9,1537.3L1033.9,1537.3L1033.9,1537.3z M1000.7,1544.1
		c0,0.2,0,0.4,0,0.6C1000.7,1544.5,1000.7,1544.3,1000.7,1544.1L1000.7,1544.1L1000.7,1544.1z M1000.8,1545.2
		C1000.8,1545.2,1000.9,1545.3,1000.8,1545.2C1000.9,1545.3,1000.9,1545.3,1000.8,1545.2C1000.8,1545.2,1000.8,1545.2,1000.8,1545.2
		L1000.8,1545.2L1000.8,1545.2z M1000.9,1545.3C1000.9,1545.3,1000.9,1545.3,1000.9,1545.3c0.2,0.3,0.3,0.5,0.5,0.8
		C1001.2,1545.8,1001,1545.6,1000.9,1545.3L1000.9,1545.3L1000.9,1545.3z"/>
	<path style="fill:#161616;" d="M1009.1,1573.7c-1.8,0.4-3.4,1.3-4.5,2.7c-1.1-0.6-2.5-0.8-3.7-0.5c-3.3,0.8-6.6,1.7-9.8,2.9
		c-3.4,1.3-6.7,3.2-9.7,5.3c-1.4,1-2.8,2.3-3.9,3.6c-1.2,1.4-2,3-2.8,4.6c-0.7,1.4-0.9,3.2-0.9,4.8c-0.1,2.4,0.5,4.4,1.3,6.7
		c0.6,1.5,1.7,2.9,2.6,4.2c1,1.3,2.4,2.5,3.7,3.6c1.2,1.1,2.7,1.9,4.2,2.7c2.1,1.2,4.2,2.2,6.5,3c7.7,2.8,16.1,3.3,24.1,2.2
		c3.3-0.4,6.5-1.4,9.7-2.5c3.9-1.2,7.3-3,10.7-5.3c2.8-1.8,5.4-4.2,7.2-7.1c1.2-1.8,1.9-3.6,2.3-5.6c0.5-2.3,0.4-4.6,0.2-6.9
		c-0.1-1.7-0.8-3.6-1.5-5.1c-0.6-1.5-1.6-2.8-2.6-4.1c-2.5-3.2-6.5-5.4-10.1-7.1c-1.4-0.7-2.9-1.1-4.4-1.5c-2.2-0.6-4.5-1-6.8-1.3
		c-1.2-0.1-2.5-0.2-3.7-0.2C1014.4,1572.8,1011.7,1573.1,1009.1,1573.7L1009.1,1573.7L1009.1,1573.7z M1003,1588.8
		c1.4-0.3,2.6-0.9,3.5-1.8c1.4,0.8,3.2,1.2,4.9,1c0.8-0.1,1.5-0.2,2.3-0.3c3,0.1,6,0.4,9,1c1.6,0.5,3.2,1.1,4.7,1.8
		c0.9,0.6,1.8,1.2,2.6,1.8c0.3,0.3,0.5,0.6,0.7,0.9c0,0.1,0.1,0.1,0.1,0.2c0.1,0.5,0.2,0.9,0.2,1.4c0,0.4-0.1,0.8-0.1,1.2
		c-0.3,0.4-0.6,0.9-1,1.3c-1.1,1-2.3,1.9-3.6,2.8c-2.5,1.4-5.1,2.4-7.9,3.3c-3.3,0.9-6.6,1.4-9.9,1.5c-3.2,0-6.2-0.4-9.3-1
		c-2.4-0.7-4.8-1.6-7-2.7c-1.1-0.7-2.2-1.4-3.2-2.3c-0.4-0.4-0.7-0.8-1-1.3c-0.1-0.1-0.1-0.3-0.2-0.4c0,0,0,0,0,0
		c0-0.2,0-0.4,0.1-0.5c0-0.1,0.1-0.2,0.1-0.3c0.2-0.3,0.4-0.6,0.7-0.9c1.3-1.1,2.6-2.1,4-3.1c2.1-1.2,4.3-2.1,6.6-2.9
		C1000.5,1589.4,1001.7,1589.1,1003,1588.8L1003,1588.8L1003,1588.8z M988.7,1595.3c-0.1,0.3-0.3,0.5-0.4,0.8c0,0,0,0,0,0
		C988.3,1595.8,988.5,1595.6,988.7,1595.3L988.7,1595.3L988.7,1595.3z M988.2,1596.1c0,0.1-0.1,0.1-0.1,0.2
		C988.2,1596.2,988.2,1596.2,988.2,1596.1C988.2,1596.1,988.2,1596.1,988.2,1596.1L988.2,1596.1L988.2,1596.1z M1030.7,1596.8
		C1030.7,1596.8,1030.6,1596.9,1030.7,1596.8C1030.6,1596.9,1030.6,1596.9,1030.7,1596.8C1030.6,1596.9,1030.7,1596.8,1030.7,1596.8
		L1030.7,1596.8L1030.7,1596.8z M1030.6,1596.9c-0.1,0.2-0.2,0.3-0.2,0.5C1030.5,1597.2,1030.5,1597.1,1030.6,1596.9
		C1030.6,1596.9,1030.6,1596.9,1030.6,1596.9L1030.6,1596.9L1030.6,1596.9z M987.9,1597.9c0.1,0.2,0.2,0.5,0.2,0.7
		C988.1,1598.4,988,1598.1,987.9,1597.9L987.9,1597.9L987.9,1597.9z M1027.6,1599.6c-0.1,0.1-0.2,0.1-0.4,0.2
		C1027.3,1599.7,1027.4,1599.6,1027.6,1599.6L1027.6,1599.6L1027.6,1599.6z"/>
	<path style="fill:#161616;" d="M1099.5,1486.9c-3.4,0.5-6.6,1.8-9.5,3.7c-3,2-5.4,4.8-7.5,7.7c-1.3,1.7-1.6,3.9-1.1,5.9
		c-0.6,0.7-1.2,1.5-1.8,2.2c-0.8,1-1.6,2.1-2.3,3.2c-1,1.4-2.1,3.7-2.2,5.4c-0.1,1.9-0.1,3.9,0.8,5.6c0.7,1.4,1.6,2.8,2.6,4
		c2.1,2.6,5.1,4.2,8.1,5.5c2.9,1.3,6.2,2,9.3,2.5c3.5,0.6,7.2,0.8,10.7,0.5c6.8-0.5,13.7-2.7,19-7.2c2.8-2.3,4.8-5.2,6.3-8.5
		c0.7-1.6,1-3.4,1.4-5.1c0.3-1.7,0.2-3.7,0-5.4c-0.3-1-0.6-2-0.9-2.9c-0.3-0.7-0.6-1.4-1-2c-0.8-1.6-1.8-3.1-2.9-4.5
		c-1-1.4-2.4-2.7-3.7-3.8c-1.3-1.2-2.7-2.2-4.2-3c-1.6-0.9-3.1-1.7-4.8-2.4c-1.8-0.8-3.8-1.2-5.7-1.6c-1.6-0.4-3.3-0.5-5.1-0.5
		C1103.2,1486.5,1101.3,1486.7,1099.5,1486.9L1099.5,1486.9L1099.5,1486.9z M1104.3,1501.9c1.5,0.1,3,0.2,4.5,0.5
		c1.3,0.4,2.6,1,3.8,1.6c1,0.6,1.9,1.2,2.7,2c0.8,0.9,1.6,1.8,2.2,2.7c0.3,0.5,0.5,1,0.7,1.5c0,0.4-0.1,0.8-0.1,1.2
		c-0.1,0.4-0.3,0.8-0.4,1.2c-0.4,0.6-0.8,1.2-1.3,1.7c-0.8,0.7-1.6,1.4-2.5,2c-1.2,0.6-2.4,1.1-3.7,1.6c-2,0.5-3.9,0.9-5.9,1
		c-3.1-0.1-6.1-0.3-9.1-0.9c-1.6-0.5-3.2-1-4.7-1.8c0,0,0,0-0.1,0c1.2-1.6,2.4-3.1,3.7-4.7c1.3-1.7,1.7-3.9,1.1-5.9
		c0.8-0.6,1.6-1.2,2.4-1.7c0.8-0.4,1.6-0.8,2.5-1.2C1101.4,1502.2,1102.8,1502,1104.3,1501.9L1104.3,1501.9L1104.3,1501.9z
		 M1117.9,1508.7c0.1,0.3,0.2,0.7,0.3,1C1118.1,1509.3,1118,1509,1117.9,1508.7L1117.9,1508.7L1117.9,1508.7z M1089.2,1517.7
		c-0.1,0.3-0.1,0.6-0.2,0.8C1089,1518.2,1089.1,1517.9,1089.2,1517.7C1089.2,1517.7,1089.2,1517.7,1089.2,1517.7L1089.2,1517.7
		L1089.2,1517.7z"/>
	<path style="fill:#161616;" d="M1083.3,1250.5c-3,0.3-5.9,0.7-8.8,1.4c-2.6,0.6-5.2,1.3-7.7,2.2c-1.8,0.6-3.5,1.6-5.2,2.5
		c-4.2,2.4-8.5,4.9-12.3,8c-1.4,1.1-2.5,2.4-3.7,3.7c-1.4,1.5-2.3,3.2-3.3,5c-0.5,0.9-0.7,1.9-0.9,2.9c-0.2,1-0.4,1.9-0.2,2.9
		c0.3,1.8,1,3.2,1.8,4.8c1.3,2.4,4,3.7,6.6,2.5c2.3-1.1,3.7-4.2,2.5-6.6c-0.3-0.6-0.6-1.1-0.9-1.7c0.1-0.3,0.2-0.5,0.3-0.8
		c0.6-0.9,1.2-1.7,1.9-2.5c1.6-1.5,3.3-2.8,5.2-4c4-2.3,8.1-4.5,12.5-6c2.8-0.8,5.6-1.4,8.4-1.7c2.5-0.3,4.9-0.5,7.4-0.6
		c3.3,0,6.6,0.1,9.9,0.4c3.6,0.3,7.1,0.9,10.6,1.6c3.8,1.1,7.5,2.4,11.1,4.1c3.4,1.9,6.6,4.1,9.6,6.5c3.1,2.5,6,5.1,8.9,7.7
		c2.3,2.3,4.5,4.6,6.5,7c2.2,2.6,4.1,5.5,6,8.4c1.2,2.1,2.3,4.2,3.2,6.4c0.9,2.2,1.8,4.4,2.5,6.6c0.7,2.7,1.3,5.5,1.7,8.3
		c0.4,3.2,0.7,6.4,0.9,9.6c0.1,7.4-0.4,14.8-1.9,22c-0.4,1.5-0.8,2.9-1.4,4.3c-0.5,1.4-1.2,2.7-1.9,4.1c-1.6,2.7-3.4,5.1-5.5,7.5
		c-4.6,4.6-10,8.4-15.5,11.8c-2.5,1.5-5.1,3.1-7.8,4.2c-2.9,1.2-4.6,4.6-4.1,7.7c0.6,3.7,4.4,6.6,8.2,5.9c2.3-0.4,4.4-1.1,6.6-2
		c1.5-0.6,2.9-1.5,4.2-2.3c3.3-1.9,6.6-4.1,9.7-6.4c4.4-3.3,8.5-7,12.2-11.1c2.5-2.9,4.4-6.2,6.2-9.6c3.3-6.1,4.5-13.1,5.4-19.9
		c0.5-3.3,0.5-6.6,0.6-9.9c0.1-3.7,0-7.4-0.3-11c-0.6-7.2-1.7-14.4-4.4-21.2c-1.2-3.1-2.4-6.2-4-9c-1.9-3.3-3.8-6.7-6.1-9.7
		c-2.2-2.8-4.4-5.4-6.9-8c-2.6-2.7-5.4-5.2-8.1-7.7c-5.3-4.7-11-8.8-17.2-12.2c-7.2-3.9-15.1-5.6-23.2-6.6c-3-0.4-6-0.5-9-0.5
		C1090.2,1249.9,1086.8,1250.1,1083.3,1250.5L1083.3,1250.5L1083.3,1250.5z M1070.6,1265.1c-0.2,0-0.3,0.1-0.5,0.1
		C1070.3,1265.2,1070.5,1265.1,1070.6,1265.1L1070.6,1265.1L1070.6,1265.1z"/>
	<path style="fill:#161616;" d="M1247.8,1201.4c-1.7,0.1-3.5,0.4-5.2,0.7c-3.4,0.6-6.8,1.4-10.3,2.2c-15.4,3.7-30.6,7.5-45.9,11.5
		c-14.8,3.9-29.6,7.9-44.4,11.8c-15.7,4.1-31.5,8-47,13.2c-8.9,3-17.8,6.2-26.4,10c-4.1,1.8-8,3.9-11.9,6c-2.9,1.6-5.9,3.6-8.4,5.8
		c-2.4,2.1-4.5,4.6-6.6,7c-1.2,1.3-1.6,3.6-1.3,5.3c0.3,1.8,1.3,3.4,2.8,4.5c1.5,1.1,3.4,1.6,5.3,1.3c2-0.3,3.2-1.4,4.5-2.8
		c0.8-0.9,1.7-1.8,2.5-2.8c1.5-1.5,3.1-2.8,4.8-4.1c15.6-9.3,33.2-14.7,50.5-20c-0.6,0.2-1.2,0.4-1.8,0.6
		c15.1-4.3,30.3-7.9,45.5-11.9c15.4-4,30.7-8.1,46.2-12c8.6-2.2,17.3-4.3,26-6.4c4.1-1,8.2-1.9,12.3-2.9c3.4-0.8,6.9-1.5,10.4-1.8
		c0,0,0.1,0,0.1,0c0.7,0.5,1.3,1,1.9,1.5c6,6.2,11.2,13.2,15.9,20.4c1.3,2.1,2.5,4.1,3.7,6.2c1.7,3,3.1,6.1,4.6,9.1
		c2.4,5.1,4.5,10.3,6.2,15.7c2.3,8.7,3.8,17.4,4.3,26.4c0.1,4.8-0.1,9.6-1,14.3c-0.5,1.7-1.1,3.3-1.8,4.9c-1.6,2.7-3.4,5.2-5.5,7.5
		c-5.7,5.5-12,10-18.6,14.3c-12.8,7.6-26.6,13.4-40.2,19.1c-7.2,3-14.4,6-21.7,8.9c-7.3,2.9-14.7,5.8-22.2,8.3
		c-3.4,1.2-6.9,2.2-10.4,3.3c0,0,0.1,0,0.1,0c-5.4,1.6-10.8,3.1-16.4,3.9c-3.1,0.4-6.2,0.7-9.3,1.2c-3.8,0.6-7.5,1.6-11,3.1
		c-3.1,1.3-4.8,4.8-4.3,8c0.6,3.8,4.6,7.1,8.6,6.2c3.5-0.9,7-1.7,10.5-2.3c3.5-0.6,7.1-0.8,10.7-1.4c3.4-0.5,6.7-1.4,10-2.4
		c4-1.2,8-2.4,12-3.6c15.1-4.8,29.7-10.8,44.3-16.8c7.2-3,14.3-6.1,21.4-9.3c6.8-3,13.6-6.2,20.2-9.8c7.3-4,14.2-8.6,20.7-13.9
		c4-3.3,7.9-7,10.9-11.2c1.5-2.2,3-4.4,4.2-6.8c1.4-2.8,2.3-5.7,3-8.8c0.8-3.7,1.1-7.5,1.2-11.3c0.1-4,0-8.1-0.4-12.1
		c-0.6-7.5-1.9-14.8-3.9-22c-2.1-7.8-5.3-15.1-8.7-22.3c-3.4-7.1-7.5-14.1-12.1-20.5c-4.8-6.8-10-13.4-16.2-19
		c-1.5-1.4-3.4-2.4-5.3-3.2c-1.6-0.7-3.2-0.8-4.9-0.8C1249.2,1201.3,1248.5,1201.3,1247.8,1201.4L1247.8,1201.4L1247.8,1201.4z"/>
	<path style="fill:#161616;" d="M1112.2,1357.4c-6.4,3.1-11,8.8-12.8,15.6c-0.9,3.4-1,6.8-0.9,10.3c0.1,3.4,1.6,6.7,3.9,9.1
		c0.6,0.8,1.4,1.3,2.3,1.7c1.4,0.5,3,0.5,4.3-0.1c1.3-0.6,2.4-1.7,2.9-3c0.5-1.3,0.6-3.1-0.1-4.3c-0.5-0.8-0.8-1.6-1.1-2.5
		c-0.4-1.5-0.6-3-0.7-4.5c0-1.4,0.2-2.8,0.4-4.1c0.3-1.1,0.7-2.2,1.3-3.2c0.5-0.8,1-1.5,1.6-2.2c0.8-0.8,1.7-1.4,2.6-2.1
		c1.1-0.6,2.2-1.1,3.3-1.5c1.2-0.3,2.4-0.5,3.7-0.6c1.7,0,3.3,0.2,4.9,0.6c1.3,0.4,2.6,0.8,3.9,1.4c0.2,0.1,0.3,0.2,0.5,0.3
		c0.4,0.4,0.7,0.8,1,1.2c0.2,0.4,0.4,0.8,0.5,1.2c0.2,1,0.3,2,0.3,3c0.3,3,3.5,5,6.3,4.5c3.1-0.5,4.8-3.3,4.5-6.3
		c-0.2-1.7-0.3-3.1-0.8-4.7c-0.5-1.7-1.4-3.2-2.4-4.7c-2-3-5.3-4.8-8.7-5.9c-3.1-1.1-6.4-1.6-9.7-1.6
		C1119.6,1354.9,1115.7,1355.7,1112.2,1357.4L1112.2,1357.4L1112.2,1357.4z"/>
	<path style="fill:#161616;" d="M1084.8,1336.5c-2.6,0.7-5,1.8-7.3,3.3c-1.7,1.2-3.2,2.6-4.4,4.4c-1.6,2.3-2.4,4.9-2.9,7.6
		c-1,5.1-0.3,10.5,2,15.2c1,2,2.2,3.8,3.8,5.4c1,1,2.1,1.9,3.2,2.8c1.2,0.8,2.5,1.5,3.7,2.1c1.9,1,3.9,1.7,5.9,2.2
		c1.4,0.4,2.9,0.7,4.4,0.8c1.2,0,2.5-0.1,3.7-0.2c2.6-0.3,4.7-2.7,4.9-5.2c0.3-3.3-2-6.1-5.3-6.5c-0.5,0-0.9-0.1-1.3-0.2
		c-2.9-0.8-5.8-1.8-8.6-3.1c-0.8-0.5-1.6-1-2.3-1.6c-0.6-0.7-1.1-1.3-1.6-2.1c-0.5-0.8-0.8-1.7-1.2-2.6c-0.2-1-0.4-2.1-0.5-3.1
		c0-1.3,0.1-2.6,0.3-3.9c0.2-0.6,0.4-1.2,0.7-1.7c0.3-0.4,0.6-0.9,1-1.3c0.6-0.5,1.2-1,1.9-1.5c1-0.5,2-1,3.1-1.4
		c1.2-0.3,2.3-0.5,3.5-0.6c1.6,0.1,3.2,0.3,4.8,0.6c3.9,1.1,7.6,2.8,11.2,4.7c6.3,3.5,12.2,7.6,17.8,12.3c1.7,1.4,4.3,0.8,5.5-0.8
		c1.3-1.8,0.8-4.1-0.8-5.5c-7.4-6.3-15.6-11.7-24.2-16.3c-4.3-2.2-9-3.9-13.8-4.3c-0.5,0-1-0.1-1.5-0.1
		C1088.7,1335.7,1086.7,1336,1084.8,1336.5L1084.8,1336.5L1084.8,1336.5z"/>
	<path style="fill:#161616;" d="M1062.2,1369.5c-5.2,2.3-9.2,7.4-10.2,13c-0.5,2.8-0.5,5.8-0.1,8.6c0.3,0.9,0.6,1.9,0.9,2.8
		c0.3,0.7,0.6,1.3,0.9,1.9c0.7,1.3,1.6,2.6,2.5,3.8c1.7,2.2,4,3.9,6.3,5.3c2.7,1.7,5.6,3,8.5,4.1c5.5,2.1,11.4,2.4,17.2,1.1
		c5.7-1.2,11.1-3.6,15-8.1c3.6-4.3,6.1-9.6,6.4-15.2c0.2-3.1-1.4-6-4.4-7.2c-1.7-0.7-3.7-0.6-5.4,0.1c-1.5,0.7-3.1,2.1-3.6,3.8
		c-0.7,2.3-1.6,4.5-2.7,6.7c-0.6,1-1.3,2-2.1,2.9c-0.4,0.3-0.8,0.6-1.2,0.9c-1.3,0.7-2.7,1.2-4,1.6c-1.6,0.4-3.2,0.7-4.8,0.9
		c-1.2,0-2.5-0.2-3.7-0.4c-2.6-0.7-5-1.7-7.4-3c-1-0.6-2-1.3-2.9-2.1c-0.5-0.6-1-1.2-1.4-1.8c-0.2-0.4-0.4-0.7-0.5-1.1
		c-0.1-0.8-0.2-1.7-0.3-2.5c0-0.8,0.1-1.7,0.2-2.5c0.1-0.2,0.2-0.4,0.2-0.6c0.3-0.6,0.7-1.1,1.1-1.6c0.4-0.3,0.8-0.7,1.2-1
		c0.7-0.4,1.5-0.7,2.2-1c1.8-0.4,3.7-0.6,5.6-0.7c5,0,9.9,0.7,14.8,1.8c0.6,0.2,1.3,0.4,1.9,0.5c1.5,0.4,2.8,0.5,4.2-0.1
		c1.3-0.6,2.3-1.6,2.8-3c0.5-1.3,0.5-2.9-0.1-4.2c-0.5-1.2-1.7-2.5-3-2.8c-5.7-1.6-11.4-2.8-17.3-3.2c-1.3-0.1-2.7-0.2-4-0.2
		C1070.6,1367.1,1066.2,1367.7,1062.2,1369.5L1062.2,1369.5L1062.2,1369.5z M1090.8,1380.1c0.2,0,0.3,0.1,0.5,0.1
		C1091.2,1380.2,1091,1380.1,1090.8,1380.1L1090.8,1380.1L1090.8,1380.1z"/>
	<path style="fill:#161616;" d="M1121,1381.2c-3.1,2.5-3.3,6.8-1.1,10c0.4,0.5,0.8,1.1,1.1,1.6c1.1,1.9,2.1,3.9,2.9,5.9
		c0.1,0.5,0.2,1,0.3,1.5c0,0.5-0.1,0.9-0.1,1.4c-0.3,0.8-0.6,1.6-0.9,2.4c-0.2,0.3-0.3,0.5-0.5,0.7c-0.3,0.2-0.5,0.4-0.8,0.6
		c-0.9,0.5-1.9,0.9-2.8,1.2c-1,0.2-2.1,0.4-3.2,0.5c-1,0-2-0.1-3-0.3c-1.2-0.4-2.4-0.8-3.6-1.3c-0.1-0.1-0.3-0.2-0.4-0.3
		c-0.5-0.6-1-1.2-1.5-1.8c0-0.3,0.1-0.7,0.1-1c1.1-3.6,2.8-7,4.5-10.3c0.7-1.4,0.5-3.4-0.1-4.8c-0.6-1.4-1.9-2.6-3.3-3.2
		c-1.5-0.6-3.3-0.6-4.8,0.1c-1.6,0.7-2.4,1.9-3.2,3.3c-2.5,4.6-4.8,9.4-5.6,14.6c-0.7,4.5,1.7,8.5,4.5,11.7c3.4,3.9,9,5.9,14.1,6.5
		c4.3,0.6,8.6-0.3,12.7-1.7c2-0.7,3.8-1.9,5.5-3.2c2.2-1.8,3.6-4.2,4.9-6.7c2.1-4.1,2.6-9,1.5-13.4c-1.2-4.9-3.8-9.5-7.1-13.2
		c-1.5-1.7-3.5-2.6-5.6-2.6C1123.8,1379.6,1122.3,1380.1,1121,1381.2L1121,1381.2L1121,1381.2z M1107.5,1403.7
		c0.1,0.2,0.3,0.4,0.4,0.6C1107.7,1404.1,1107.6,1403.9,1107.5,1403.7L1107.5,1403.7L1107.5,1403.7z"/>
	<path style="fill:#161616;" d="M1046,1264.7c-2.5,3.2-4.9,6.5-7.2,9.9c-2.5,3.7-4.2,7.8-5.7,12c-0.7,2.1-1.4,4.3-1.9,6.4
		c-0.4,1.7-0.8,3.3-1.2,4.9c-1.3,5.5-1.2,11.2-1,16.7c0.1,3.7,0.4,7.5,0.9,11.2c1,7.2,3,14.4,6.2,21c1.6,3.3,3.7,6.5,5.8,9.5
		c1.7,2.4,3.5,4.8,5.6,6.9c1.9,1.9,3.8,3.7,5.9,5.4c0.8,0.6,1.6,1.3,2.4,1.9c0.8,0.6,1.5,1.1,2.3,1.6c0,0,0.1,0,0.1,0.1
		c0,0-0.1,0-0.1-0.1c0.1,0.1,0.3,0.2,0.4,0.3c1,0.8,2.2,1.2,3.4,1.3c1.3,0.1,2.5-0.1,3.7-0.6c2.7-1.2,4.9-4.6,4.1-7.7
		c-0.4-1.6-0.8-3-1.9-4.4c-0.6-0.8-1.4-1.5-2.1-2.1c-0.7-0.6-1.5-1.2-2.3-1.8c-1.5-1.2-2.9-2.3-4.3-3.6c-3.1-3.2-5.9-6.8-8.3-10.6
		c-1.2-2.1-2.4-4.3-3.4-6.6c-0.8-1.9-1.5-3.9-2.1-5.9c-1.9-7.1-3.1-14.5-3.4-21.8c0-3.3,0.1-6.6,0.7-9.9c0.3-1.5,0.5-3,0.8-4.4
		c1.1-4.5,2.3-8.9,4.4-13c2.1-3.6,4.5-6.9,7-10.1c1.9-2.4,1.2-6-1.2-7.8c-1-0.7-2.1-1.1-3.2-1.1
		C1048.8,1262.5,1047.1,1263.3,1046,1264.7L1046,1264.7L1046,1264.7z M1043.3,1295.3c0,0.2-0.1,0.4-0.1,0.6
		C1043.2,1295.7,1043.2,1295.5,1043.3,1295.3L1043.3,1295.3L1043.3,1295.3z M1058,1372.2C1058,1372.2,1058,1372.2,1058,1372.2
		C1058,1372.2,1058,1372.2,1058,1372.2C1058,1372.2,1058,1372.2,1058,1372.2L1058,1372.2L1058,1372.2z"/>
	<path style="fill:#161616;" d="M1004.6,1370.2c-0.3,0.1-0.5,0.2-0.8,0.2c-0.9,0.2-1.7,0.5-2.6,0.9c-1.5,0.6-2.8,1.7-4.1,2.6
		c-0.7,0.5-1.2,1.1-1.6,1.8c-2.2,1-4.2,2.3-6.1,3.7c-2.3,1.7-4.2,3.8-6.1,5.9c-2.1,2.4-3.8,5.2-4.4,8.4c-0.6,3.2-0.1,6.4,1.2,9.4
		c0.6,1.5,1.7,3,2.7,4.2c1.1,1.4,2.6,2.6,4,3.6c6,4.2,14,5,21,3.6c3.2-0.6,6.4-1.8,9.2-3.5c2.7-1.7,5-4,7.1-6.4
		c1-1.1,1.9-2.3,2.9-3.5c2.2-3,3.1-7,3.2-10.7c0-3.9-0.8-7.7-3.1-11c-1.1-1.5-2.4-2.8-3.8-4c-1.4-1.2-3.1-2-4.7-2.8
		c-1.6-0.8-3.3-1.3-5-1.7c-2-0.5-3.9-0.9-6-0.8c-0.2,0-0.4,0-0.6,0C1006.1,1370,1005.4,1370.1,1004.6,1370.2L1004.6,1370.2
		L1004.6,1370.2z M1006.8,1384.7c0.7,0.1,1.4,0.2,2.1,0.3c1.4,0.4,2.7,0.9,4,1.5c0.5,0.3,1,0.7,1.5,1.1c0.2,0.2,0.4,0.4,0.6,0.7
		c0.1,0.2,0.2,0.4,0.2,0.6c0.1,0.5,0.2,1,0.2,1.4c0,0.7-0.1,1.3-0.2,2c-0.1,0.3-0.2,0.6-0.3,0.8c-1.1,1.7-2.4,3.3-3.8,4.9
		c-0.7,0.7-1.5,1.3-2.3,1.9c-1.2,0.6-2.5,1.2-3.8,1.6c-1.5,0.4-3.1,0.6-4.6,0.7c-1.5,0-2.9-0.2-4.3-0.5c-1-0.3-1.9-0.7-2.8-1.1
		c-0.7-0.4-1.3-0.9-1.9-1.4c-0.4-0.5-0.8-0.9-1.2-1.4c-0.2-0.4-0.4-0.8-0.5-1.2c-0.1-0.5-0.2-0.9-0.2-1.4c0-0.4,0.1-0.8,0.1-1.2
		c0.2-0.7,0.5-1.4,0.9-2.1c0.9-1.5,1.9-3,3.1-4.3c1.1-1,2.2-2,3.4-2.9c0.6,0.5,1.2,0.9,1.9,1.2c1.6,0.6,3.9,0.8,5.4-0.1
		c0.7-0.4,1.3-0.7,2-1C1006.5,1384.7,1006.7,1384.7,1006.8,1384.7L1006.8,1384.7L1006.8,1384.7z"/>
	<path style="fill:#161616;" d="M1027.3,1412.9c-3.1,1.6-5.9,3.4-7.7,6.6c-2,3.6-3,7.5-3.6,11.6c-0.5,3.5-0.3,7.3,0.3,10.8
		c0.7,4.1,2.7,7.7,5.2,11c1.9,2.5,4.4,4.7,7,6.3c1.5,0.9,3.1,1.7,4.7,2.3c2.1,0.7,4.4,1,6.6,1.3c3.6,0.5,7.3,0.3,10.9,0.1
		c4.2-0.3,8.3-1.5,12.2-2.9c3.2-1.2,6.2-3,8.6-5.3c2.8-2.6,4.7-5.8,6.2-9.3c1.3-3,1.7-6.5,1.7-9.7c0-4.1-0.7-8-2.6-11.7
		c-1.6-3-3.8-5.6-6.6-7.3c-3.5-2.2-7.6-3.3-11.7-3.8c-3.9-0.5-8.1-0.1-11.9,0.5c-3.5,0.6-7,1.4-10.5,2.1c-1.4-1.9-3.7-3.2-6-3.2
		C1029.2,1412.2,1028.2,1412.4,1027.3,1412.9L1027.3,1412.9L1027.3,1412.9z M1037.2,1429.5c5.4-1.2,10.8-2.6,16.3-2.9
		c1.8,0,3.7,0.1,5.5,0.5c1.2,0.3,2.3,0.8,3.4,1.3c0.2,0.1,0.3,0.2,0.5,0.3c0.3,0.4,0.6,0.7,0.9,1.1c0.4,0.7,0.7,1.4,0.9,2.1
		c0.2,0.7,0.3,1.5,0.3,2.2c0,1.4-0.2,2.8-0.4,4.2c-0.3,0.9-0.7,1.8-1.1,2.6c-0.5,0.7-0.9,1.4-1.5,2.1c-0.6,0.6-1.2,1.1-1.9,1.6
		c-1.5,0.8-3.1,1.4-4.7,2c-2.8,0.7-5.7,1.2-8.6,1.3c-2.9,0-5.7-0.2-8.5-0.8c-0.5-0.2-0.9-0.4-1.4-0.6c-0.7-0.5-1.5-1-2.2-1.6
		c-0.8-0.9-1.6-1.9-2.3-2.9c-0.4-0.7-0.7-1.4-1-2.2c-0.2-1.1-0.4-2.3-0.5-3.4c0.1-2.2,0.3-4.4,0.7-6.5c0.2-0.5,0.3-1,0.5-1.5
		c1.1,0.7,2.4,1.2,3.7,1.2C1036.3,1429.6,1036.8,1429.6,1037.2,1429.5L1037.2,1429.5L1037.2,1429.5z"/>
	<path style="fill:#161616;" d="M1210.1,1234.9c-2.3,0.2-4.7,1.1-6.8,2c-1.4,0.6-2.6,1.5-3.8,2.3c-1.3,0.8-2.5,1.9-3.6,3
		c-1.7,1.6-3.3,3.4-4.8,5.1c-0.7,1-1.2,2.1-1.3,3.4c-0.1,0.8,0,1.6,0.2,2.4c-0.7-0.4-1.6-0.7-2.5-0.8c-3.3-0.4-6.5,2.1-6.8,5.5
		c-0.9,10.5-2,21-0.6,31.5c0.7,5.2,2.4,10.3,4.5,15.1c2.3,5.2,5.8,9.8,10,13.7c3.9,3.6,8.4,6.1,13.4,7.9c2.4,0.9,4.9,1.4,7.3,1.9
		c3.1,0.6,6.3,0.5,9.5,0.4c4.7-0.2,9.5-1.7,13.7-3.7c2.2-1,4.3-2.4,6.3-3.7c2.3-1.5,4.2-3.5,6-5.5c1.8-1.9,3-4.2,4.3-6.4
		c1.2-2.2,2.2-4.6,3.1-7c0.9-2.6,1.6-5.3,2.1-8c0.6-3,0.5-6.1,0.5-9c-0.1-5.4-0.6-10.9-2.2-16.1c-0.7-2.4-1.6-4.8-2.6-7.1
		c-1.2-2.8-2.8-5.4-4.5-7.9c-2.7-4.1-6.6-7.2-10.6-10c-2.3-1.6-4.7-2.9-7.2-4.2c-2.3-1.2-4.7-2.1-7.2-2.8c-4.2-1.2-8.5-1.9-12.9-1.9
		C1212.4,1234.8,1211.3,1234.8,1210.1,1234.9L1210.1,1234.9L1210.1,1234.9z M1213.1,1250c2.6,0.1,5.2,0.4,7.7,1
		c2.5,0.7,4.9,1.7,7.3,2.9c3,1.7,5.9,3.7,8.5,6c1.3,1.4,2.4,2.9,3.4,4.5c1.5,2.7,2.8,5.5,3.8,8.4c1,3.8,1.5,7.7,1.7,11.7
		c0,3.2-0.2,6.3-0.8,9.4c-0.9,3-1.9,5.9-3.3,8.6c-0.9,1.5-1.9,2.9-3.1,4.3c-1.3,1.2-2.7,2.3-4.2,3.3c-2.1,1.2-4.2,2.2-6.4,3
		c-2.2,0.6-4.4,0.9-6.7,1.1c-2.2,0-4.4-0.3-6.6-0.8c-2.6-0.7-5.1-1.6-7.5-2.8c-1.8-1.1-3.4-2.3-5-3.7c-1.7-1.7-3.1-3.6-4.5-5.5
		c-1.6-2.8-2.9-5.8-4-8.9c-1.2-4.4-1.8-8.9-2-13.5c-0.1-6.6,0.6-13.2,1.2-19.8c0.1-0.6,0-1.3-0.1-1.9c2.4,1.6,5.9,1.6,8.2-0.4
		c2.1-1.9,4.3-3.6,6.6-5.2c0.8-0.4,1.7-0.8,2.6-1.1C1211.1,1250.3,1212.1,1250.1,1213.1,1250L1213.1,1250L1213.1,1250z
		 M1193.8,1292.9c0.1,0.2,0.1,0.4,0.2,0.5C1193.9,1293.3,1193.9,1293.1,1193.8,1292.9L1193.8,1292.9L1193.8,1292.9z M1198,1301.9
		c0.1,0.1,0.1,0.2,0.2,0.4C1198.2,1302.1,1198.1,1302,1198,1301.9L1198,1301.9L1198,1301.9z"/>
</g>
</svg>
