<?xml version="1.0" encoding="utf-8"?>
<!-- Generator: Adobe Illustrator 22.1.0, SVG Export Plug-In . SVG Version: 6.00 Build 0)  -->
<svg version="1.1" id="Layer_1" xmlns="http://www.w3.org/2000/svg" xmlns:xlink="http://www.w3.org/1999/xlink" x="0px" y="0px"
	 viewBox="0 0 2000 2000" style="enable-background:new 0 0 2000 2000;" xml:space="preserve">
<g>
	<path style="fill:#161616;" d="M1000.6,33.4c-40,0-81,2.6-122,7.6C764.8,55,654.3,89.8,550.2,144.5c-47.9,25.1-95,55.5-140.1,90.1
		C366.7,268,325.2,306.1,286.8,348c-37.6,41-72.1,86.1-102.7,133.9c-29.9,46.8-56.3,97.8-78.5,151.5c-45,109-69.2,226-71.8,347.7
		c-1.3,59.3,3.2,120.1,13.3,180.7c4.7,28.2,11.1,57.7,19.1,87.7c7.1,26.6,15.7,53.9,26.5,83.4c39.2,107.4,97.7,207.1,174.2,296.4
		c71.8,84,157.6,154.8,254.9,210.6c48.3,27.7,100.2,51.5,154.3,70.9c53,19,109.8,33.5,169,43.3c50.7,8.3,102.7,12.6,154.7,12.6
		c68,0,136.3-7.2,203-21.3c52.1-11,105.1-27.3,157.4-48.2c47.7-19.1,95.1-42.8,140.9-70.6c43.5-26.4,85.9-57,126.1-91.2
		c38.7-32.9,76.1-70.5,111.2-111.8c35.4-41.7,68-87.6,96.6-136.5c28.3-48.3,52.8-100.3,72.7-154.6c2.4-6.6,4.7-13.1,6.9-19.7
		c0.8-2.3,1.6-4.7,2.4-7c17.7-52.6,30.9-108.8,39.5-167c8.8-60.3,11.8-122.9,8.9-186c-2.8-59.9-11.5-120.5-25.8-180.2
		c-13.5-56.3-32.9-112.8-57.7-168.2c-23.5-52.6-52.8-104.3-87-153.9c-32.5-47-69.8-91.7-110.8-133c-39.5-39.7-83.6-76.8-131.1-110.1
		c-45.5-32-95.5-60.7-148.7-85.4c-51.5-23.9-106.6-43.5-163.7-58.2c-57-14.7-117-24.2-178.3-28.3
		C1041.9,34.1,1021.2,33.4,1000.6,33.4L1000.6,33.4L1000.6,33.4z M677.9,105.4L677.9,105.4l0.6-0.2c-1.6,0.6-3.2,1.2-4.9,1.7
		c1.3-0.5,2.6-1,3.9-1.4l0,0l0,0C677.8,105.4,677.9,105.4,677.9,105.4L677.9,105.4L677.9,105.4z M925.4,180.7
		c22.1-1.7,44.6-2.6,66.8-2.6c0,0,0,0,0,0c14.6,0,29.4,0.4,44.1,1.1c35.7,1.8,72.5,6.1,109.4,12.9c35.7,6.8,71.3,16,105.8,27.3
		c33.7,11,67.7,24.8,101.2,41l-1.8-1c31.7,15.5,62.7,33,92.2,52.2c29.2,19,58.1,40.7,86.1,64.6c0,0,0,0,0,0l0.5,0.4l-0.5-0.5
		c0,0,0,0,0,0c0,0,0,0,0,0c0,0,0,0,0,0.1l-0.9-0.9c26.9,23.3,52.6,48.3,76.4,74.6c23.2,25.6,45.6,53.8,66.4,83.7
		c20.1,29.3,38.6,60,54.9,91.3c15.9,30.6,30.3,63.5,42.8,97.7l0.2,0.4l0.2,0.4c0,0,0,0,0,0c0,0,0,0.1,0,0.1l0-0.1l0,0
		c0,0,0-0.2,0-0.2c0,0,0-0.1,0-0.2l0.2,0.8c11.8,33.2,21.8,67.7,29.4,102.3c7.6,34.4,13,70.6,16.2,107.7l0,0.5c0,0,0,0,0,0
		c0,0,0,0,0,0l0-0.1l0,0c0,0,0-0.2,0-0.2c0,0,0,0,0-0.1c0,0.5,0,1,0.1,1.5l0-0.5c2.8,36.5,3.3,73.7,1.4,110.5
		c-1.8,35.9-6.2,72.8-13,109.6c-6.8,35.9-16.1,71.7-27.4,106.3c-11,33.4-24.7,67.3-40.8,100.7c-15.7,32.1-33.6,63.4-53.1,93.2
		c-18.9,28.8-40.5,57.4-64.2,85c-22.9,26.4-47.5,51.5-73.3,74.8c-7.2,6.5-14.6,12.9-22,19.1c-18.3,15.3-37.9,30.2-58.2,44.4
		c-29.2,20.2-60.1,38.8-91.6,55.2c-31.7,16.5-65.2,31.2-99.5,43.7c-33.1,11.9-67.3,21.8-101.6,29.5c-35,7.8-71.9,13.4-109.5,16.6
		l-0.7,0.1c-22.4,1.8-45.1,2.7-67.6,2.7c-13.7,0-27.7-0.3-41.5-1c-36.6-1.7-74.4-6.2-112.1-13.1c-36.1-6.9-72.1-16.2-106.9-27.7
		c-33.7-11.1-67.9-25-101.6-41.4l0.8,0.4c-30.9-15.3-61.3-32.5-90.2-51.4c-29-18.9-57.8-40.5-85.6-64.3
		c-26.4-22.8-51.6-47.4-75-73.1c-23.2-25.5-45.4-53.5-66.1-83.2c-20-29-38.4-59.6-54.7-90.8c-16.6-31.8-31.5-65.9-44.3-101.3
		l0.4,1.3c-12-33.8-22-68.7-29.7-103.7c-7.5-34.1-12.8-70-16-106.9l0-0.5c0,0,0-0.3-0.1-0.3l0,0l0,0c0,0-0.1-0.3-0.1-0.3
		c0,0,0,0,0,0c-2.7-36.4-3.2-73.5-1.4-110.4c1.8-36.1,6.3-73.4,13.2-110.7c7.1-36.9,16.7-73.6,28.6-109
		c10.6-31.7,23.8-64.1,39.2-96.1c15.5-31.8,33.3-63,52.8-92.7c18.8-28.8,40.4-57.4,64-85l-0.7,0.7l-0.7,0.8
		c22.9-26.5,47.7-51.9,73.7-75.5c25.4-23.1,53.4-45.4,83.3-66.3l0.5-0.4l-0.5,0.3c0,0,0.3-0.2,0.3-0.2c0,0,0,0,0,0c0,0,0,0,0,0
		c0,0,0.4-0.2,0.4-0.2c0,0,0.3-0.2,0.3-0.2c28.7-19.8,58.6-37.8,89.1-53.7c31.2-16.3,64.7-31,99.6-43.8
		c33.3-11.9,67.6-21.9,102-29.5c34.9-7.8,71.8-13.4,109.8-16.6l-0.5,0l0.6,0v0l0.4,0L925.4,180.7L925.4,180.7L925.4,180.7
		L925.4,180.7z M218,1540.1l-0.1-0.1l-0.1-0.3c0.5,0.7,0.9,1.4,1.4,2.1c-0.3-0.4-0.6-0.8-0.9-1.3c0,0,0,0,0,0l0,0
		c-0.1-0.1-0.1-0.1-0.2-0.2L218,1540.1L218,1540.1C218,1540.1,218,1540.1,218,1540.1L218,1540.1L218,1540.1L218,1540.1z M822.8,1934
		l-0.2,0l-0.3-0.1c1.3,0.3,2.7,0.5,4,0.8c-1-0.2-2-0.4-3-0.6c0,0,0,0,0,0l0,0c-0.1,0-0.2,0-0.3-0.1l0,0l0,0
		C822.9,1934,822.8,1934,822.8,1934L822.8,1934L822.8,1934L822.8,1934z"/>
	<path style="fill:#161616;" d="M1499.9,845.4c-15.1,1.1-30,3.8-44.6,7.9c-13.6,3.9-26.8,9.1-39.4,15.4c-1.1,0.6-2.3,1.2-3.4,1.8
		c-9.7,5.1-19,10.9-27.9,17.4c-10.8,7.9-20.9,16.6-30.1,26.3c-9.3,9.6-17.6,20.1-25,31.2c-7.3,10.9-13.6,22.5-18.9,34.6
		c-5.7,13.1-10.2,26.6-13.3,40.5c-3.2,14.3-5,28.9-5.4,43.5c-0.5,14.9,0.8,29.9,3.3,44.7c2.3,14.1,6.2,27.9,11.3,41.2
		c5,13.1,11.2,25.8,18.5,37.8c7.3,11.9,15.7,23,25,33.4c9.3,10.4,19.7,19.7,30.8,28.2c21.7,16.8,46.8,29.3,73.1,37
		c13.9,4.1,28.3,6.7,42.8,8c13.6,1.3,27.4,1.3,41.1,0c12.4-1.2,24.8-3.3,36.9-6.5c11.8-3.1,23.3-7.3,34.5-12.3
		c21.6-9.6,41.5-22.8,59.1-38.6c38.5-34.6,64.3-82.8,71.6-134.1c2.2-15.3,2.9-30.7,2-46.1c-0.9-14.9-3.2-29.7-7-44.1
		c-3.8-14.4-9.1-28.4-15.7-41.8c-6.3-13-14-25.3-22.8-36.8c-9.1-11.9-19.3-23-30.6-32.9c-11.5-10.1-24.1-19.1-37.4-26.7
		c-12.7-7.3-26.2-13.2-40.1-17.9c-14.3-4.8-29-7.9-43.9-9.8c-9-1.2-18.1-1.7-27.2-1.7C1511.4,844.7,1505.7,844.9,1499.9,845.4
		L1499.9,845.4L1499.9,845.4z M1488.8,1277.6c-18.3-2.6-36.2-7.5-53.2-14.5c-16.4-7-32-16-46.3-26.9c-14.2-11.1-27.1-23.9-38.2-38
		c-11.1-14.5-20.3-30.3-27.4-46.9c-7-16.9-11.9-34.8-14.6-53.2c-2.4-18.7-2.4-37.6,0-56.1c2.6-18.4,7.5-36.3,14.6-53.3
		c7.1-16.6,16.3-32.3,27.4-46.8c11-14,23.6-26.6,37.7-37.7c11.3-8.6,23.5-16.2,36.2-22.4c3.8-1.9,7.3-3.5,10.4-4.8
		c17.1-7.1,35.1-12,53.5-14.6c9.4-1.2,18.8-1.8,28.1-1.8c9.2,0,18.5,0.6,27.6,1.7c18.2,2.5,36,7.4,53,14.4c16.6,7,32.4,16.2,47,27.3
		l0.5,0.4c14.1,11.1,26.8,23.9,37.8,37.9c10.7,14.1,19.7,29.5,26.7,45.7c7.2,17.2,12.2,35.4,14.9,54.1c2.3,18.5,2.3,37.2,0,55.7
		c-2.6,18.3-7.4,36.2-14.4,53.1c-7,16.5-16.2,32.2-27.1,46.7c-11.3,14.5-24.3,27.5-38.6,38.6c-14.1,10.7-29.5,19.7-45.7,26.7
		c-17.2,7.2-35.3,12.2-53.9,14.8c-9.3,1.2-18.7,1.8-27.9,1.8C1507.5,1279.3,1498.1,1278.7,1488.8,1277.6L1488.8,1277.6
		L1488.8,1277.6z"/>
	<path style="fill:#161616;" d="M1377.3,1170.2l-0.4,0.6c-0.5,0.9-0.8,1.9-1,3c0,0.3,0,0.6,0,0.9c0,1.7,0.7,4.2,2.2,5.4l0.9,0.7
		l-0.9-0.8l3,2.5l1,0.9l0.8,0.6l-0.2-0.5c-1.9-4.1-3.4-8.1-4.4-12.1c-0.2-0.6-0.3-1.2-0.5-1.8L1377.3,1170.2L1377.3,1170.2
		L1377.3,1170.2z"/>
	<path style="fill:#161616;" d="M1442.3,1231.6l4.5,3.6l1.5,1.2c1.2,0.7,2.5,1,3.9,1c1.8,0,4.2-0.7,5.4-2.2l1.9-2.3l0.6-0.7
		c-6.5-0.7-12.5-1.8-18-3.1c-1.4-0.3-2.7-0.7-4.1-1L1442.3,1231.6L1442.3,1231.6L1442.3,1231.6z"/>
	<path style="fill:#161616;" d="M1682.2,1149.4c-0.6,1.9-1.1,3.5-1.9,5.2l3.6-4c1.5-1.6,2.2-3.4,2.2-5.4c0-0.2,0-0.3,0-0.5
		c0,0.1,0,0.1,0,0.2c0-1.3-0.5-2.7-1.2-4.1c-0.1-0.1-0.1-0.2-0.2-0.3C1684,1143.4,1683.2,1146.4,1682.2,1149.4L1682.2,1149.4
		L1682.2,1149.4z"/>
	<path style="fill:#161616;" d="M1634.5,1200c-3.1,2.4-6.6,4.7-10.9,7.3c-3.9,2.3-7.9,4.4-12.1,6c-0.3,0.1-0.6,0.3-0.9,0.4l3.6,3.2
		c1.6,1.5,3.4,2.2,5.4,2.2c2.1,0,4.2-0.9,5.4-2.2l9.5-10.6l7.9-8.8C1639.6,1198.4,1637,1199.3,1634.5,1200L1634.5,1200L1634.5,1200z
		"/>
	<path style="fill:#404040;" d="M1488.8,862.2c-18.4,2.6-36.4,7.5-53.5,14.6c-3.1,1.3-6.6,2.9-10.4,4.8
		c-12.7,6.3-24.9,13.8-36.2,22.4c-14,11-26.7,23.7-37.7,37.7c-11,14.5-20.2,30.2-27.4,46.8c-7.1,17-11.9,34.9-14.6,53.2
		c-2.4,18.6-2.4,37.5,0,56.1c2.7,18.4,7.6,36.3,14.6,53.2c7.1,16.6,16.3,32.4,27.4,46.9c11.1,14.1,23.9,26.9,38.2,38.1
		c14.4,10.9,30,20,46.3,26.9c17,7.1,34.9,11.9,53.2,14.5c9.3,1.2,18.8,1.8,28.1,1.8c9.2,0,18.6-0.6,27.9-1.8
		c18.6-2.6,36.7-7.6,53.9-14.8c16.2-7,31.6-16,45.7-26.7c14.4-11.2,27.4-24.2,38.6-38.6c11-14.5,20.1-30.2,27.1-46.7
		c7-16.9,11.8-34.8,14.4-53.1c2.3-18.5,2.3-37.2,0-55.7c-2.7-18.7-7.7-36.9-14.9-54.1c-7-16.2-16-31.5-26.7-45.7
		c-10.9-14-23.7-26.8-37.8-37.9l-0.5-0.4c-14.6-11.1-30.4-20.3-47-27.3c-17-7-34.9-11.8-53-14.4c-9.1-1.1-18.4-1.7-27.6-1.7
		C1507.7,860.5,1498.2,861.1,1488.8,862.2L1488.8,862.2L1488.8,862.2z M1483.8,1068.9c0-5.5,0.1-11,0-16.6c0-11.8-0.4-23.7-0.7-36.9
		l-0.3-9.5c-0.3-12.1-0.8-24.1-1.2-36.3l0-4l-0.1-3.9v-0.9c-0.1-3.7-0.1-7.5,0.3-11.3c1.1-1.1,1.7-2.5,1.7-4l1.5-0.2l2.4-0.2
		l2.4-0.3c4.4-0.4,9.1-0.7,14.9-1c3.4-0.1,6.8-0.2,10.3-0.2c10,0,17.7,0.7,25,2.1c0,0,0.4,0.1,0.4,0.2c0.5,2.9,0.6,5.9,0.7,8.8h0
		l0,0.4c0.4,11.9,0.6,24.1,0.7,35.8l0,2.5l0.1,4.8c0.2,15.3,0.3,30.4,0.1,45.8l0,2.4c-0.1,4.5-0.1,8.9-0.3,13.4l-0.1,2
		c-0.3,8.1-0.7,16.5-2.4,24.6c-0.4,1.7-0.9,3-1.4,4.2c-1.2,0.2-2.4,0.2-3.7,0.3l-1.4,0.1c-0.9,0-1.9,0.1-3,0.1
		c-5.1,0.1-10.2,0.1-15.3,0.2l-7.7,0.1c-7,0-14.1,0.5-20.9,1l-0.6,0l-1.5,0C1483.6,1084.8,1483.7,1076.6,1483.8,1068.9
		L1483.8,1068.9L1483.8,1068.9z M1682.2,1149.4c1-3,1.8-6,2.5-8.9c0.9,1.5,1.4,3,1.4,4.4c0-0.1,0-0.1,0-0.2c0,0.2,0,0.3,0,0.5
		c0,2-0.7,3.7-2.2,5.4l-3.6,4C1681.1,1152.9,1681.6,1151.3,1682.2,1149.4L1682.2,1149.4L1682.2,1149.4z M1508.8,1208.6
		c-1.4-0.4-2.7-0.8-4-1.3c-1.4-0.5-2.8-1.2-4.1-1.8c-2.8-1.7-5.6-3.6-8.3-5.9c-1.5-1.5-2.7-3.1-3.8-4.7c-1.3-2.5-2.3-5.2-3.1-7.8
		c-0.6-2.1-0.9-4.2-1.2-6.6c0-1.9,0.2-3.8,0.6-5.8c1.3-4.8,3.5-9.3,5.4-13c2-3.5,4.3-6.8,6.8-9.8c1.1-1,2.3-2,3.6-3
		c1.9-1,3.7-1.9,5.6-2.6c1.2-0.3,2.3-0.6,3.5-0.8c1.2-0.2,2.4-0.7,3.5-1.5c0,0,0.4-0.1,0.4-0.1c1-0.2,1.9-0.4,2.8-0.5l0.5,0.1
		c5.3,1.5,9.6,3.2,13.4,5.1c1.8,1.1,3.5,2.3,5.1,3.7c2.1,2.2,4.1,4.7,5.9,7.4c1.7,2.9,3.1,5.8,4.3,9.1c0.8,2.7,1.3,5.3,1.5,8
		c0,1.9-0.2,3.7-0.6,5.6c-0.8,2.8-1.9,5.6-3.4,8.6c-1.5,2.5-3.4,5-5.7,7.6c-2.9,2.9-5.6,5.2-8.4,7.1c-1.8,1-3.6,1.8-6.1,2.6
		c-2.1,0.6-3.8,0.9-5.4,1.1C1514.8,1209.6,1512,1209.3,1508.8,1208.6L1508.8,1208.6L1508.8,1208.6z M1378.1,1180
		c-1.5-1.2-2.2-3.6-2.2-5.4c0-0.3,0-0.6,0-0.9c0.2-1.1,0.5-2.1,1-3l0.4-0.6l0.5-0.6c1,4.5,2.7,9.2,4.8,13.9l0.3,0.5l-1.8-1.6
		L1378.1,1180l0.9,0.7L1378.1,1180L1378.1,1180L1378.1,1180z M1614.2,1216.8l-3.6-3.2c4.5-1.7,8.8-3.9,13-6.4
		c4.3-2.6,7.8-4.9,10.9-7.3c2.5-0.7,5.1-1.5,8-2.6l-17.5,19.5c-1.2,1.3-3.3,2.2-5.4,2.2C1617.6,1219.1,1615.8,1218.3,1614.2,1216.8
		L1614.2,1216.8L1614.2,1216.8z M1448.3,1236.4l-1.5-1.2l-4.5-3.6l-4.5-3.6c6.6,2,14,3.4,22.2,4.3l-2.5,3c-1.2,1.5-3.6,2.2-5.4,2.2
		C1450.8,1237.4,1449.5,1237.1,1448.3,1236.4L1448.3,1236.4L1448.3,1236.4z"/>
	<path style="fill:#404040;" d="M1651.6,1176c-4.4,0.5-7.3,4.1-9.7,7.4c-0.4,0.5-0.7,0.9-1.1,1.4c-2,1.5-4,2.9-6.1,4.4
		c-3.8,2.7-7.6,5.5-11.6,8c-7.4,4.5-15,8.6-22.9,12.1c-1.8,0.8-3.5,1.5-5.3,2.2c-1.1-0.2-2.3-0.3-3.4-0.5c-1.8-0.3-3.6-0.5-5.4-0.7
		c-2.8-0.3-5.6-0.4-8.4-0.5c-4.1-0.2-7.9,2.6-8.3,6.8c-0.1,1.3,0.1,2.4,0.5,3.5c-12.8,3.7-25.7,6.6-38.9,8.3
		c-0.6-3.6-2.6-6.9-4.9-9.7c-2.8-3.4-6.6-5.5-10.5-7.5c-1.8-1-3.7-1.8-5.6-2.5c-0.4-0.1-0.8-0.1-1.1-0.2c-1.4-0.4-2.7-0.8-4-1.3
		c-0.3-0.1-0.7-0.3-1-0.4c-0.1,0-0.1,0-0.2-0.1c-4.4-1.1-8.8-2-13.2-2.5c-3.9-0.5-7.8-0.7-11.7-0.8c-5.3-1.3-10.6-2.6-16-3.9
		c-1.9-0.5-3.8-1-5.8-1.4c-2.8-0.7-5.6-1.6-8.5-1.9c-0.9-0.1-1.8-0.2-2.7-0.1c-0.8,0.1-1.8,0.2-2.5,0.6c-0.7,0.4-1.4,0.8-2.1,1.3
		c-0.7,0.5-1.2,1.3-1.8,1.9c-1.1,1.3-1.9,3-2.5,4.6c-0.8,2.1-1,4.4-1.2,6.6c-0.1,1-0.1,2,0,3c-0.6,0.7-1,1.9-1.3,2.8
		c-0.3,1.3-0.5,2.1-0.5,3.3c0,1.2,0.1,2.3,0.3,3.5c0.2,1.1,0.6,2.2,1,3.2c0.4,1,1.1,1.9,1.7,2.8c0.4,0.6,1,1.2,1.5,1.7
		c1.6,1.6,3.4,3,5.3,4.1c3.3,2,6.9,3.7,10.6,5.1c0.5,0.2,1,0.4,1.6,0.6c3,1.5,6.1,2.9,9.2,4.1c4,1.5,7.9,3.1,12,4
		c2.1,0.5,4,0.5,6.2,0.4c2.6-0.1,4.9-1.6,6.6-3.5c0.1-0.1,0.2-0.2,0.3-0.3c1.7,0,3.5,0,5.2-0.1c2.4-0.1,4.7-0.2,7.1-0.3
		c4.6,0.1,9.3,0.1,13.9-0.1c9.1-0.4,18.2-1.6,27.2-3.1c8.8-1.5,17.6-3.5,26.2-6c8.9-2.5,17.8-5.3,26.5-8.6c0.6,0.1,1.2,0.2,1.9,0.3
		c1.3,0.2,2.5,0.4,3.8,0.6c1.9,0.3,4,0.5,5.9,0.2c1.8-0.3,3.6-0.9,5.4-1.4c5.8-1.8,11-5.3,16-8.8c5.5-3.9,10.3-8.6,14.8-13.6
		c2.3-2.5,4.4-5,6.6-7.6c0.4-0.4,0.7-0.9,1.1-1.3c2.8-2.3,5.1-5,7.6-7.7c0.8-1.2,1.3-2.5,1.5-3.9c0.1-1.4-0.1-2.8-0.7-4.1
		c-0.6-1.3-1.4-2.3-2.6-3.1c-1.5-1.1-3.1-1.5-4.8-1.5C1652.5,1176,1652,1176,1651.6,1176L1651.6,1176L1651.6,1176z M1447.2,1203
		c-0.1,0.1-0.3,0.2-0.5,0.3C1446.9,1203.2,1447.1,1203.1,1447.2,1203L1447.2,1203L1447.2,1203z M1444.3,1207.7c0.3-1,0.6-1.9,1-2.8
		c0.3-0.5,0.6-0.9,1-1.3c0,0,0.1-0.1,0.2-0.1c0.1,0,0.2,0,0.3,0c1.7,0,3.3,0.2,5,0.6c0.1,0,0.2,0,0.3,0.1c0.2,0,0.3,0.1,0.5,0.1
		c-0.2,0-0.3-0.1-0.5-0.1c1.2,0.3,2.5,0.6,3.7,0.9c-0.3,0-0.6,0.1-0.9,0.1c-1.1,0.1-2.2,0.6-3.2,1c-1.3,0.5-2.7,1.8-3.5,2.9
		c-0.2,0.2-0.4,0.5-0.6,0.7c-0.9,0-1.9,0-2.7,0.1c-0.2,0-0.5,0.1-0.7,0.1C1444.1,1209.1,1444.2,1208.4,1444.3,1207.7L1444.3,1207.7
		L1444.3,1207.7z M1462.7,1206.5c0.1,0,0.3,0.1,0.4,0.1c0,0,0.1,0,0.1,0C1463,1206.6,1462.9,1206.6,1462.7,1206.5L1462.7,1206.5
		L1462.7,1206.5z M1486.9,1228.3c-1.1-1.1-2.3-2.2-3.5-3.3c-2.7-2.5-6.2-4.3-9.5-6c3.6,0,7.1,0.1,10.7,0.3c4.6,0.3,9.1,1,13.6,2
		c1.9,0.5,3.8,1,5.7,1.7c2.1,0.7,4.2,1.7,6.2,2.7c1.3,0.8,2.6,1.6,3.8,2.6c0.3,0.3,0.5,0.6,0.8,0.9c-1.5,0.4-3,0.7-4.5,0.9
		c-0.3,0-0.6,0-1,0C1501.7,1230.1,1494.2,1229.6,1486.9,1228.3L1486.9,1228.3L1486.9,1228.3z M1509.1,1225.2
		c0.1,0.1,0.3,0.2,0.4,0.3C1509.4,1225.4,1509.3,1225.3,1509.1,1225.2L1509.1,1225.2L1509.1,1225.2z"/>
	<path style="fill:#161616;" d="M1513.8,928c-8,0.1-16,0.4-24,1c-3.7,0.3-7.4,0.7-11,1.1c-1.5,0.2-3,0.3-4.5,0.5
		c-1.5,0.2-2.8,0.5-4.2,1c-3.1,1.1-5.6,4.3-5.5,7.7c-0.1,1,0,1.9,0.3,2.8c0.4,1.3,0.8,2.5,1.3,3.7c0.8,1.8,2.3,3.2,4,3.9
		c-0.2,2.2-0.3,4.4-0.3,6.6c-0.1,2.2-0.1,4.4-0.1,6.6c-0.1,3.5-0.1,6.9,0,10.3c0.1,8.4,0.2,16.7,0.3,25.1c0.2,14.5,0.2,29,0.2,43.6
		c0,11.9-0.3,23.7-0.6,35.6c-0.2,6-0.3,11.9-0.5,17.9c0,1.6-0.3,3.3,0,4.9c0.1,0.9,0.3,1.7,0.7,2.5c0.5,1,1.9,2.9,2.9,3.5
		c0.8,0.4,1.6,0.9,2.3,1.3c1.3,0.5,2.7,0.7,4.1,0.7c2.2,0,4.3-0.1,6.5-0.3c3.3-0.2,6.5-0.4,9.8-0.6c6.7-0.2,13.3-0.3,20-0.3
		c8.4,0,16.7-0.1,25-0.6c2.9-0.2,5.6-1.4,7.8-3.2c2.1-1.7,3.5-4.3,4.6-6.7c1-2.3,1.6-4.9,2.1-7.3c0.6-2.8,1.1-5.6,1.4-8.4
		c0.8-5.8,0.9-11.6,1.2-17.4c0.3-7.7,0.4-15.4,0.5-23c0.2-14.3-0.1-28.7-0.2-43c-0.2-14.4-0.4-28.9-0.9-43.3c0,0,0,0,0,0
		c0-0.3,0-0.5,0-0.8c0,0,0-0.1,0-0.1c0,0,0,0.1,0,0.1c0-0.1,0-0.2,0-0.2c0,0,0,0,0,0c0,0,0,0,0,0c0-0.1,0-0.1,0-0.2c0,0,0-0.1,0-0.1
		c0,0,0,0,0,0c0,0,0,0,0,0c0-0.1,0-0.2,0-0.3c0,0,0,0,0,0c0,0,0,0,0,0c0,0,0-0.1,0-0.1c0,0,0,0,0,0.1c0-0.3,0-0.5,0-0.8
		c0,0.2,0,0.3,0,0.5c0,0.1,0,0.2,0,0.3c0,0.1,0,0.3,0,0.5c-0.1-2.2-0.2-4.4-0.3-6.6c-0.3-3.6-0.9-7.7-3.3-10.5
		c-1.8-2.1-3.8-3.5-6.4-4.6c-0.8-0.4-1.8-0.5-2.7-0.7c-1.1-0.3-2.3-0.6-3.4-0.8c-1.9-0.3-3.8-0.6-5.7-0.9c-3.8-0.5-7.6-0.6-11.3-0.8
		c-2.6-0.1-5.3-0.2-7.9-0.2C1515,928,1514.4,928,1513.8,928L1513.8,928L1513.8,928z M1483.8,1068.9c0-5.5,0.1-11,0-16.6
		c0-11.8-0.4-23.7-0.7-36.9l-0.3-9.5c-0.3-12.1-0.8-24.1-1.2-36.3l0-4l-0.1-3.9v-0.9c-0.1-3.7-0.1-7.5,0.3-11.3
		c1.1-1.1,1.7-2.5,1.7-4l1.5-0.2l2.4-0.2l2.4-0.3c4.4-0.4,9.1-0.7,14.9-1c3.4-0.1,6.8-0.2,10.3-0.2c10,0,17.7,0.7,25,2.1
		c0,0,0.4,0.1,0.4,0.2c0.5,2.9,0.6,5.9,0.7,8.8h0l0,0.4c0.4,11.9,0.6,24.1,0.7,35.8l0,2.5l0.1,4.8c0.2,15.3,0.3,30.4,0.1,45.8l0,2.4
		c-0.1,4.5-0.1,8.9-0.3,13.4l-0.1,2c-0.3,8.1-0.7,16.5-2.4,24.6c-0.4,1.7-0.9,3-1.4,4.2c-1.2,0.2-2.4,0.2-3.7,0.3l-1.4,0.1
		c-0.9,0-1.9,0.1-3,0.1c-5.1,0.1-10.2,0.1-15.3,0.2l-7.7,0.1c-7,0-14.1,0.5-20.9,1l-0.6,0l-1.4,0c0,0,0,0,0,0v0l-0.1,0
		C1483.6,1084.8,1483.7,1076.6,1483.8,1068.9L1483.8,1068.9L1483.8,1068.9z"/>
	<path style="fill:#161616;" d="M1515,1128.2c-1.3,0.1-2.6,0.5-3.8,0.9c-0.8,0.2-1.5,0.5-2.2,0.8c-0.6,0-1.2,0-1.8,0.1
		c-5.6,1-10.8,3-15.5,6.1c-5.2,3.4-9.1,8.3-12.5,13.4c-1.7,2.5-3,5.2-4.4,7.8c-1.1,2.2-2.2,4.5-3.1,6.8c-2.4,5.8-3.5,12.1-3,18.4
		c0.2,2.5,0.6,4.9,1.2,7.3c0.4,1.5,1,3.1,1.4,4.6c1,3.2,2.3,6.3,4.1,9.1c3.8,6,9.4,11,15.5,14.5c3.8,2.2,7.6,4,11.9,5.2
		c4.3,1.2,8.6,2,13,2.1c6.2,0.1,12.3-1.5,18-4c4-1.8,7.6-4.6,10.9-7.5c4.4-3.8,8.5-8.4,11.5-13.4c4.6-7.7,7.5-16.7,6.8-25.7
		c-0.7-9.7-4.6-18.8-10.2-26.7c-2.3-3.3-5.1-6.2-8.1-8.9c-3.5-3.2-8-5.4-12.2-7.3c-2.8-1.3-5.8-2.2-8.8-3c-1.7-0.5-3.5-0.9-5.2-1.1
		C1517.3,1128.1,1516.1,1128.2,1515,1128.2L1515,1128.2L1515,1128.2z M1508.8,1208.6c-1.4-0.4-2.7-0.8-4-1.3
		c-1.4-0.5-2.8-1.2-4.1-1.8c-2.8-1.7-5.6-3.6-8.3-5.9c-1.5-1.5-2.7-3.1-3.8-4.7c-1.3-2.5-2.3-5.2-3.1-7.8c-0.6-2.1-0.9-4.2-1.2-6.6
		c0-1.9,0.2-3.8,0.6-5.8c1.3-4.8,3.5-9.3,5.4-13c2-3.5,4.3-6.8,6.8-9.8c1.1-1,2.3-2,3.6-3c1.9-1,3.7-1.9,5.6-2.6
		c1.2-0.3,2.3-0.6,3.5-0.8c1.2-0.2,2.4-0.7,3.5-1.5c0,0,0.4-0.1,0.4-0.1c1-0.2,1.9-0.4,2.8-0.5l0.5,0.1c5.3,1.5,9.6,3.2,13.4,5.1
		c1.8,1.1,3.5,2.3,5.1,3.7c2.1,2.2,4.1,4.7,5.9,7.4c1.7,2.9,3.1,5.8,4.3,9.1c0.8,2.7,1.3,5.3,1.5,8c0,1.9-0.2,3.7-0.6,5.6
		c-0.8,2.8-1.9,5.6-3.4,8.6c-1.5,2.5-3.4,5-5.7,7.6c-2.9,2.9-5.6,5.2-8.4,7.1c-1.8,1-3.6,1.8-6.1,2.6c-2.1,0.6-3.8,0.9-5.4,1.1
		C1514.8,1209.6,1512,1209.3,1508.8,1208.6L1508.8,1208.6L1508.8,1208.6z M1517.7,1143.9c0.2,0,0.3,0.1,0.5,0.1
		C1518,1144,1517.9,1143.9,1517.7,1143.9L1517.7,1143.9L1517.7,1143.9z M1487.7,1193.5c0.1,0.2,0.2,0.3,0.3,0.5
		C1487.9,1193.8,1487.8,1193.6,1487.7,1193.5L1487.7,1193.5L1487.7,1193.5z"/>
	<path style="fill:#F8F8F5;" d="M1516.5,1143.7C1516.5,1143.7,1516.5,1143.7,1516.5,1143.7c-0.9,0.1-1.8,0.3-2.8,0.5
		c0,0-0.4,0.1-0.4,0.1c-1.1,0.8-2.2,1.3-3.5,1.6c-1.2,0.2-2.3,0.5-3.5,0.8c-1.9,0.7-3.7,1.5-5.6,2.6c-1.4,1-2.5,1.9-3.6,3
		c-2.6,3-4.9,6.3-6.9,9.8c-1.9,3.7-4.1,8.2-5.4,13c-0.4,2-0.5,3.9-0.6,5.7c0.2,2.3,0.6,4.5,1.2,6.5c0.8,2.5,1.7,5.2,3.1,7.8
		c1.1,1.6,2.4,3.2,3.8,4.7c2.7,2.3,5.5,4.3,8.3,5.9c1.3,0.7,2.7,1.3,4.1,1.8c1.3,0.5,2.7,0.9,4.1,1.3c3.2,0.7,6,1,8.7,1
		c1.6-0.2,3.3-0.5,5.4-1.1c2.5-0.8,4.4-1.6,6.1-2.6c2.8-1.9,5.6-4.3,8.4-7.2c2.3-2.6,4.2-5.1,5.7-7.6c1.5-3,2.6-5.8,3.4-8.7
		c0.4-1.9,0.5-3.7,0.6-5.6c-0.3-2.7-0.8-5.3-1.5-8c-1.1-3.3-2.5-6.2-4.3-9.1c-1.8-2.7-3.7-5.1-5.9-7.4c-1.6-1.4-3.3-2.6-5.1-3.7
		c-3.8-1.9-8.1-3.5-13.4-5.1L1516.5,1143.7C1516.5,1143.7,1516.5,1143.7,1516.5,1143.7L1516.5,1143.7L1516.5,1143.7z"/>
	<path style="fill:#F8F8F5;" d="M1514.9,943.8c-3.4,0-6.9,0.1-10.3,0.2c-5.7,0.3-10.5,0.6-14.9,1l-2.4,0.2l-2.4,0.2l-1.5,0.2
		c0,1.5-0.6,2.9-1.7,4c-0.5,3.8-0.4,7.6-0.3,11.3v0.9l0.1,3.9l0,4c0.5,12.2,0.9,24.3,1.2,36.3l0.3,9.5c0.4,13.2,0.7,25.1,0.7,36.9
		c0,5.5,0,11,0,16.6c-0.1,7.7-0.1,15.9,0,23.9l1.5,0l0.6,0c6.8-0.5,13.9-1,20.9-1l7.7-0.1c5.1,0,10.2-0.1,15.3-0.2
		c1.1,0,2.1-0.1,3-0.1l1.4-0.1c1.2-0.1,2.5-0.1,3.7-0.3c0.6-1.2,1-2.6,1.4-4.2c1.7-8.1,2-16.5,2.4-24.6l0.1-2
		c0.2-4.5,0.2-8.9,0.3-13.4l0-2.4c0.2-15.4,0.1-30.4-0.1-45.8l-0.1-4.8l0-2.5c-0.2-11.7-0.3-23.9-0.7-35.8l0-0.4l0,0
		c-0.1-2.9-0.2-6-0.7-8.8c0,0-0.4-0.2-0.4-0.2C1532.6,944.5,1524.9,943.8,1514.9,943.8L1514.9,943.8L1514.9,943.8z"/>
	<path style="fill:#161616;" d="M823.7,642.2c-4.8,0.1-9.7,0.2-14.5,0.2c-3.5,0-7.1,0-10.6,0.2c-4.8,0.2-9.6,0.5-14.5,0.7
		c-33.5,1.6-67,4.5-100.6,6.5c-33.7,2-67.5,2.3-101.3,1.9c-32.7-0.4-65.4-1.1-98,1.1c-7.6,0.5-15.3,1.4-22.8,2.8
		c-3.5,0.6-7,1.4-10.5,2.3c-2,0.5-4,1.3-5.8,2.2c-2.4,1.2-4.4,3.2-6.1,5.2c-3.3,4-4.7,9.1-5.1,14.3c0,0.4,0,0.8,0,1.2
		c-0.8,1.1-1.3,2.5-1.4,4c-1.8,18.7-3.4,37.3-4.6,56.1c-0.5,8.2-1.1,16.4-1.5,24.6c-0.3,5.6-1,11.5-0.2,17.1
		c0.2,1.4,1.3,3.2,2.2,4.2c0.9,1,1.9,1.8,3,2.6c2.3,1.7,5.4,2.1,8.1,2.5c4.1,0.6,8.3,0.6,12.4,0.5c17.7-0.4,35.5-0.8,53.2-1
		c15.9-0.2,31.8,0,47.7,0.2c34.2,0.5,68.5,0.9,102.7,1.1c17.1,0.1,34.3-0.4,51.4-0.8c16.4-0.4,32.7-1,49.1-1.6
		c16.5-0.6,33-1.3,49.4-1.9c16.3-0.6,32.7-1.1,49-2.2c4.3-0.3,8.5-0.7,12.8-1.2c6.7-0.7,14-1.1,19-6.3c3.8-4,5.8-9.6,6.8-14.9
		c0.9-4.8,1.4-9.7,1.4-14.6c0-4.2,0-8.4-0.1-12.6c-0.8-16.4-2.3-32.8-3.7-49.2c-0.3-4-0.7-8.1-1-12.1c-0.2-2.5-0.5-5.1-0.7-7.6
		c-0.1-0.9-0.2-1.8-0.4-2.8c-0.3-2.4-1-4.6-2.1-6.9c-1.3-2.7-3.6-4.6-5.9-6.4c-0.9-0.7-2.1-1.2-3.1-1.7c-1.4-0.6-2.7-1.2-4.1-1.8
		c-2.7-1-5.6-1.6-8.5-2.2c-3.5-0.7-7.1-1.3-10.6-1.7c-6.2-0.8-12.4-1.1-18.6-1.4c-2.8-0.1-5.6-0.3-8.4-0.4c-1.1-0.1-2.1-0.2-3.2-0.2
		C823.8,642.2,823.7,642.2,823.7,642.2L823.7,642.2L823.7,642.2z M625.7,667.7c16.6-0.2,33.2-0.5,49.8-1.5c16.8-1,33.7-2.1,50.5-3.3
		c16.5-1.2,33.1-2.5,49.6-3.3c7.3-0.4,14.6-0.7,21.9-1.1c5.6-0.3,11.3-0.2,16.9-0.3c2.9,0,5.7-0.1,8.6-0.1c2.2,0,4.4,0.2,6.6,0.3
		c9.5,0.5,19,0.8,28.4,2.3c4,0.7,7.9,1.6,11.8,3.1c0.7,0.4,1.4,0.8,2,1.2c0.1,0.1,0.2,0.2,0.3,0.3c0,0,0.1,0.1,0.1,0.2
		c0.5,1.9,0.7,3.9,0.9,5.8c1.2,13.2,2.3,26.4,3.4,39.6c0.5,6.8,1.1,13.7,1.5,20.5c0.4,9.3,0.8,18.8-0.5,28c-0.4,2-0.9,3.9-1.7,5.8
		c-0.4,0.7-0.8,1.4-1.3,2.1c-0.1,0-0.2,0.1-0.2,0.1c-4.5,1.2-9.5,1.4-14.2,1.9c0.7-0.1,1.4-0.1,2.1-0.2c-16,1.4-32.1,2-48.2,2.6
		c-16.6,0.6-33.3,1.3-49.9,2c-33.8,1.3-67.7,2.4-101.5,2.7c-17.4,0.1-34.8-0.1-52.1-0.3c-15.2-0.1-30.3-0.4-45.5-0.6
		c-17.3-0.2-34.5-0.6-51.8-0.4c-8.7,0.1-17.5,0.1-26.2,0.3c-8.1,0.2-16.2,0.4-24.2,0.6c-7.2,0.2-14.6,0.6-21.8-0.1
		c0-3.2,0.3-6.5,0.4-9.7c0.2-3.7,0.3-7.4,0.5-11.1c0.3-6.3,0.7-12.6,1.1-19c1.1-17.1,2.5-34.2,4.2-51.2c0-0.4,0-0.7,0-1.1
		c0.4-0.6,0.8-1.3,1-2.1c0.3-1.1,0.6-2.2,1-3.2c0.7-1.2,1.4-2.4,2.1-3.5c0.3-0.3,0.7-0.6,1-1c0.4-0.2,0.8-0.4,1.2-0.6
		c4.2-1.3,8.7-2.2,13-2.9c4-0.7,8-1.2,12.1-1.6c15.9-1.4,31.9-1.7,47.8-1.9c17.1-0.2,34.1,0.1,51.1,0.3c9.9,0.2,19.7,0.3,29.6,0.3
		C613.5,667.8,619.6,667.8,625.7,667.7L625.7,667.7L625.7,667.7z M874.2,767.8c-0.2,0.2-0.5,0.4-0.8,0.5
		C873.7,768.2,874,768,874.2,767.8L874.2,767.8L874.2,767.8z M873.8,767.9c-0.3,0.1-0.6,0.3-0.9,0.4
		C873.2,768.1,873.5,768,873.8,767.9L873.8,767.9L873.8,767.9z"/>
	<path style="fill:#161616;" d="M869,767.1c-3.1,2.9-3.2,7.7-0.4,10.8c0.1,0.1,0.1,0.1,0.2,0.2c0,0.1,0.1,0.1,0.1,0.2
		c0.9,3,1.5,6.2,2.1,9.2c0.6,3.3,1.2,6.7,1.7,10.1c1,6.5,1.7,13.1,2.4,19.7c0.8,8.2,1.4,16.3,1.8,24.5c0.5,8.5,0.7,17,0.9,25.5
		c0.5,16.6,0.8,33.3,1.5,49.9c1.3,34,3.9,68,5.5,102.1c0.8,16.8,1,33.5,1.2,50.3c0.1,16.6,0.3,33.3,0.3,50c0,17.1,0,34.1-0.3,51.2
		c-0.4,18.2-0.9,36.3-0.9,54.5c0,9.1,0.2,18.1,0.4,27.2c0.2,8.6,0.7,17.3,1.2,25.9c0.4,8.2,1,16.4,1.4,24.5c0.2,4,0.3,7.9,0.4,11.9
		c0.2,4.9,0.4,9.8,0.4,14.8c-0.1,12.3-1.3,24.5-3.3,36.7c-1.2,7-2.9,13.8-5.7,20.3c-1.2,2.3-2.5,4.5-4,6.5c-0.9,1-1.9,2-3,2.9
		c-0.9,0.5-1.7,1-2.6,1.4c-11.5,3.8-23.5,5.9-35.4,7.9c-7,1.1-14,2.3-20.9,3.3c-6,0.9-12,1.6-18,2.4c-7.7,0.7-15.3,1.4-23,1.8
		c-4.9,0.3-9.7,0.5-14.6,0.8c-4,0.2-8.1,0.2-12.2,0.3c-4.5,0.1-9.1,0.2-13.6,0.3c-4.1,0.1-8.2-0.1-12.3-0.2
		c-9-0.2-17.9-0.4-26.8-0.7c-34.5-1.3-69.1-2.8-103.6-4.2c-12.4-0.5-24.8-0.9-37.2-1.5c-6.6-0.3-13.2-0.6-19.9-1.1
		c-10-0.8-19.9-1.3-29.8-2.9c-6.2-1.2-12.1-2.9-17.9-5.4c-2.5-1.2-4.8-2.6-7-4.2c-1.1-1-2.1-2-3-3.1c-1.3-2-2.2-4.2-3.1-6.4
		c-4.3-13.2-7.2-26.9-9.7-40.6c-2.4-13.1-3.8-26.3-5.2-39.6c-0.3-4.8-0.6-9.6-0.9-14.3c-0.3-3.9-0.3-7.7-0.4-11.6
		c-0.2-8.2-0.4-16.3-0.4-24.5c0-17.6,0.1-35.2,0.3-52.8c0.5-34.3,1.3-68.6,2.1-102.9c0.4-16.3,0.8-32.6,0.9-48.9
		c0.1-19.1,0.1-38.3,0-57.4c-0.1-17.7-0.4-35.4-0.7-53.1c-0.2-14.7-0.7-29.4-0.7-44.1c0-13.5-0.2-26.9,0.3-40.4
		c0.3-9.7,0.6-19.5,0.9-29.2c0.3-10.2,0.8-20.4,1.3-30.6c0.2-4.3-3.4-8.1-7.7-8.3c-4.4-0.2-8.1,3.4-8.3,7.7
		c-0.6,12.3-1.1,24.6-1.5,36.9c-0.3,10.4-0.7,20.8-1,31.2c-0.1,2.1,0,4.1,0,6.2c0,5.9,0,11.8,0,17.8c0,7.4,0,14.8,0.1,22.2
		c0.4,19.2,0.7,38.5,1,57.7c0.3,17.7,0.3,35.5,0.3,53.2c0.1,33-0.7,65.9-1.5,98.8c-0.8,33.8-1.6,67.7-1.8,101.6
		c-0.1,9.5-0.1,18.9-0.1,28.4c0,7.8,0,15.6,0.2,23.4c0.1,5,0.3,10.1,0.4,15.1c0.1,4.3,0.5,8.7,0.8,13c0.5,8.3,1.4,16.5,2.4,24.7
		c2.2,16.9,4.9,33.7,9.2,50.2c1,4.1,2.1,8.1,3.4,12.1c0.8,2.5,1.8,4.8,2.7,7.3c1,2.5,2.4,4.8,4,7c2,2.8,4.5,4.9,7.1,7
		c2,1.6,4.4,2.8,6.7,4c2.6,1.3,5.2,2.4,7.9,3.5c5.9,2.3,12.1,3.5,18.4,4.5c6.3,1,12.7,1.6,19.2,2c9.1,0.7,18.1,1.3,27.2,1.7
		c8.9,0.4,17.8,0.8,26.7,1.2c17.2,0.7,34.4,1.4,51.7,2.1c17.1,0.7,34.2,1.4,51.3,2.1c8.6,0.3,17.3,0.7,26,1c8.6,0.3,17.3,0.3,26,0.5
		c3,0,6-0.1,9-0.1c5.6-0.1,11.2-0.2,16.8-0.3c3.3-0.1,6.6-0.3,9.9-0.5c4.4-0.3,8.8-0.4,13.2-0.7c9.3-0.8,18.6-1.7,27.9-2.8
		c8.1-1,16.2-2.2,24.3-3.5c8.3-1.4,16.6-2.7,24.8-4.4c4.2-0.9,8.3-1.9,12.4-3c2.1-0.6,4.2-1.3,6.3-2c2.9-1,5.7-2.4,8.1-4.4
		c2.6-2.1,4.6-4.5,6.6-7.1c3.4-4.4,5.6-9.7,7.4-14.9c2.2-6,3.3-12.4,4.3-18.7c2-12.4,3.2-24.8,3.4-37.4c0.1-4.9-0.2-9.9-0.4-14.8
		c-0.1-4-0.2-7.9-0.4-11.9c-0.5-8.2-1-16.3-1.4-24.5c-0.4-8.6-1-17.3-1.2-25.9c-0.2-9.1-0.4-18.1-0.4-27.2c0-9.3,0.1-18.7,0.3-28.1
		c0.3-17.4,0.7-34.7,0.8-52.1c0.1-16,0.1-32,0-47.9c-0.1-17.6-0.3-35.2-0.5-52.9c-0.3-16.4-1.2-32.8-2.2-49.2
		c-1-17.7-2.1-35.3-3.1-53c-1-17-1.4-34-1.9-51c-0.4-16.4-0.6-32.9-1.5-49.3c-1-17.2-2.4-34.4-5.1-51.4c-0.5-3.2-1.1-6.5-1.8-9.7
		c-0.3-1.5-0.6-3-1-4.6c-0.2-1-0.5-2-0.8-2.9c-1.1-3.2-3-5.5-5.9-7.4c-1.2-0.8-2.6-1.2-4-1.2C872.3,765,870.4,765.7,869,767.1
		L869,767.1L869,767.1z M874.9,815.7c0,0.2,0,0.4,0.1,0.6C874.9,816.1,874.9,815.9,874.9,815.7L874.9,815.7L874.9,815.7z
		 M456.7,1302.1c0,0.2,0,0.4,0.1,0.6C456.8,1302.4,456.7,1302.2,456.7,1302.1L456.7,1302.1L456.7,1302.1z M471.2,1382.6
		c0.1,0.3,0.2,0.5,0.3,0.8C471.4,1383.2,471.3,1382.9,471.2,1382.6L471.2,1382.6L471.2,1382.6z"/>
	<path style="fill:#161616;" d="M884.1,1078.1c-2.8,0.7-5.6,1.1-8.5,1.5c-7.7,0.6-15.4,0.6-23.1,0.8c-7.9,0.2-15.9,0.4-23.8,0.8
		c-16.7,0.8-33.3,1.5-50,2.2c-33.4,1.5-66.7,2-100.1,2.2c-16.8,0.1-33.6,0.3-50.4,0.4c-16.5,0.1-33,0.2-49.5,0.6
		c-17.4,0.5-34.8,0.9-52.3,1.7c-6,0.3-11.9,0.5-17.9,0.8c-2.4,0.1-4.8,0.1-7.2,0.3c-10.2,0.7-20.4,1.4-30.6,2.2
		c-5.5,0.4-11,0.9-16.5,1.3c-2.1,0.2-3.8,0.5-5.4,2c-1.5,1.4-2.3,3.3-2.4,5.3c-0.1,2,0.7,4,2,5.4c1.2,1.3,3.4,2.6,5.3,2.4
		c18.7-1.6,37.4-3.1,56.1-3.8c10.6-0.4,21.1-0.9,31.6-1.3c8.2-0.3,16.4-0.4,24.6-0.6c32.7-0.8,65.3-0.9,98-1
		c17.9-0.1,35.7-0.2,53.6-0.4c16.4-0.2,32.7-0.7,49-1.2c16.9-0.6,33.9-1.3,50.8-2c8.2-0.4,16.4-0.8,24.6-1
		c7.8-0.3,15.7-0.3,23.5-0.6c4.3-0.1,8.6-0.4,12.9-0.8c2-0.2,4.1-0.5,6.1-1c1.2-0.3,2.4-0.6,3.6-1.1c0.6-0.2,1.3-0.5,1.9-0.7
		c0.8-0.6,1.6-1.1,2.4-1.7c1.8-1.4,2.2-3.7,2.5-5.8c0.4-2.5-1.5-5.3-3.5-6.5c-1.1-0.7-2.7-1.2-4.2-1.2
		C886.1,1077.3,885,1077.6,884.1,1078.1L884.1,1078.1L884.1,1078.1z M874.6,1079.7c-0.2,0-0.4,0-0.6,0.1
		C874.2,1079.8,874.4,1079.7,874.6,1079.7L874.6,1079.7L874.6,1079.7z"/>
	<path style="fill:#161616;" d="M523.5,1100.9c-12.4,19.9-24.9,39.8-37.4,59.7c-5,7.9-10.1,15.7-15.2,23.5
		c-4.2,6.5-8.5,13-12.8,19.4c-2.6,3.9-5.3,7.8-7.9,11.7c-3.5,5-6.9,10.1-10.5,15c-1,1.4-0.7,3.5,0.4,4.7c1.1,1.2,3.2,1.7,4.6,0.8
		c0.5-0.3,1.2-0.7,1.6-1.1c0.5-0.5,0.9-1,1.3-1.5c0.6-0.7,1.2-1.4,1.7-2.1c0.8-1.2,1.7-2.4,2.5-3.6c1.2-1.7,2.3-3.4,3.5-5.1
		c2.7-3.9,5.3-7.8,7.9-11.8c4.3-6.4,8.5-12.9,12.7-19.3c5.5-8.6,11.1-17.2,16.6-25.8c4.6-7.1,9-14.3,13.5-21.4
		c8.1-12.9,16.2-25.8,24.2-38.8c1.2-1.9,0.6-4.4-1.3-5.5c-0.6-0.4-1.4-0.6-2.1-0.6C525.6,1099,524.2,1099.7,523.5,1100.9
		L523.5,1100.9L523.5,1100.9z"/>
	<path style="fill:#161616;" d="M598.9,1113.2c-4.1,6.4-8.1,12.9-12.3,19.2c-3.4,5.1-6.8,10.2-10.1,15.3c-3.8,5.7-7.5,11.3-11.3,17
		c-1.4,2.2-2.8,4.4-4.3,6.5c-6.9,9.7-13.7,19.4-20.6,29c-5,7-10.1,13.9-15.2,20.9c-5.8,7.8-11.6,15.6-17.4,23.4
		c-6.3,8.3-12.7,16.6-19.1,24.9c-5,6.4-9.9,12.8-14.7,19.3c-2.8,3.8-5.6,7.6-8.4,11.4c-1.7,2.4-3.4,4.8-5.2,7.3
		c-1.3,1.9-2.6,3.7-3.8,5.6c-0.8,1.4-1.6,2.9-2.1,4.5c-0.6,1.9-0.1,3.7,0.9,5.3c1,1.6,2.8,2.6,4.7,2.1c1.1-0.3,2-0.9,2.6-1.9
		c0.5-0.9,0.9-2.2,0.5-3.2c0,0,0,0,0-0.1c2-3.4,4.5-6.4,6.8-9.6c1.5-2,2.9-4.1,4.4-6.1c3-4.1,5.9-8.2,8.9-12.2
		c5.7-7.9,11.6-15.6,17.4-23.3c12.3-16.2,24.3-32.6,36.2-49.1c4.9-6.8,9.7-13.6,14.5-20.4c4-5.7,8-11.4,12.1-17.1
		c1.6-2.3,3.3-4.6,4.9-7c5.7-8.7,11.5-17.4,17.2-26.1c2.8-4.3,5.7-8.6,8.5-12.8c4-6.1,7.8-12.3,11.8-18.5c1.2-1.9,0.6-4.5-1.3-5.6
		c-0.7-0.4-1.4-0.6-2.2-0.6C601,1111.3,599.7,1112,598.9,1113.2L598.9,1113.2L598.9,1113.2z M463.1,1319.5c0,0.1,0,0.1-0.1,0.2
		c0,0,0,0,0,0C463,1319.6,463,1319.6,463.1,1319.5L463.1,1319.5L463.1,1319.5z"/>
	<path style="fill:#161616;" d="M705.1,1103.3c-6.1,9.3-12,18.7-18.2,27.8c-2.9,4.2-5.7,8.4-8.6,12.6c-9.3,13.6-18.5,27.3-27.8,40.9
		c-4.1,6-8.1,12.2-12.4,18.1c-8.8,12.3-17.7,24.5-26.6,36.8c-12.9,17.8-25.7,35.6-38.7,53.3c-3.4,4.7-6.7,9.5-10,14.3
		c-3.1,4.4-6.3,8.7-9.2,13.1c-6.8,10.2-13.6,20.4-20.2,30.7c-2.9,4.5-5.7,9-8.5,13.5c-1.2,1.9-2.3,3.7-3.4,5.6
		c-0.7,1.1-1.3,2.3-2,3.4c-1.9,3.2-3.4,6.7-4.6,10.3c-0.9,2.6,0.8,5.6,3.3,6.4c1.3,0.4,2.7,0.3,3.9-0.4c1.3-0.7,1.9-1.7,2.5-3
		c0.3-0.6,0.5-1.1,0.8-1.7c2-4,4.6-7.7,6.9-11.6c1.4-2.3,2.9-4.6,4.3-6.9c3.3-5.3,6.6-10.5,9.9-15.7c2.8-4.4,5.6-8.7,8.4-13
		c2.8-4.3,5.6-8.7,8.5-12.9c4.2-6,8.3-12.1,12.5-18.1c2.3-3.3,4.5-6.6,6.8-9.8c8.2-11.3,16.4-22.7,24.5-34c13.7-19,27.3-38,41-57.1
		c1.2-1.7,2.3-3.4,3.5-5.1c3.7-5.4,7.3-10.8,11-16.2c9.1-13.4,18.2-26.8,27.2-40.2c8-11.8,15.8-23.8,23.6-35.8
		c1.5-2.3,0.7-5.4-1.5-6.8c-0.8-0.5-1.7-0.8-2.6-0.8C707.7,1101,706.1,1101.9,705.1,1103.3L705.1,1103.3L705.1,1103.3z"/>
	<path style="fill:#161616;" d="M814.2,1103.1c-4.5,7-8.8,14.1-13.4,21.1c-2,3-4,6-6,9.1c-6.9,10.5-13.9,21-20.8,31.5
		c-2.8,4.3-5.7,8.6-8.5,12.9c-1,1.6-2.1,3.2-3.2,4.8c-4.9,7-9.9,14-14.8,21c-6.5,9.3-13,18.5-19.5,27.8c-3.5,5-7.2,9.8-10.8,14.6
		c-6.5,8.7-13,17.5-19.4,26.2c-5.1,6.9-10.4,13.6-15.6,20.4c-10.1,13.2-20.1,26.5-29.8,39.9c-10.6,14.7-21.2,29.5-31.5,44.4
		c-1.3,1.9-2.6,3.8-3.9,5.7c-0.8,1.2-1.5,2.3-2.3,3.5c-0.9,1.5-1.9,3-2.5,4.7c-0.3,0.7-0.5,1.6-0.5,2.3c0,1.1,0.4,2,0.8,3
		c0.4,0.7,0.9,1.2,1.5,1.6c1,0.6,2.2,0.8,3.4,0.6c1.8-0.4,3.1-2,3.3-3.8c1-1.6,2.1-3.1,3.1-4.7c0.8-1.2,1.6-2.4,2.4-3.7
		c1.1-1.7,2.2-3.4,3.3-5.1c2.6-3.9,5.2-7.8,7.8-11.8c4.3-6.5,8.6-13,13-19.4c3.2-4.6,6.4-9.3,9.6-13.9c1.8-2.6,3.5-5.2,5.3-7.7
		c3.3-4.5,6.5-9,9.8-13.5c2.2-3.1,4.4-6.3,6.7-9.3c10.2-13.6,20.3-27.3,30.3-41c6.4-8.7,12.7-17.4,19.1-26.1
		c3.9-5.3,7.5-10.8,11.3-16.2c7-10,14-20.1,21-30.1c2.6-3.8,5.2-7.6,7.8-11.5c11.6-17.7,23.3-35.4,35-53.1
		c4.5-6.9,8.8-13.9,13.2-20.9c0.9-1.4,0.5-3.4-1-4.3c-0.5-0.3-1.1-0.5-1.6-0.5C815.8,1101.6,814.7,1102.2,814.2,1103.1L814.2,1103.1
		L814.2,1103.1z M620.8,1394c0,0,0,0.1-0.1,0.1C620.8,1394,620.8,1394,620.8,1394L620.8,1394L620.8,1394z"/>
	<path style="fill:#161616;" d="M865,1140.8c-4.9,8.4-9.6,16.9-14.6,25.2c-2.2,3.5-4.3,7.1-6.5,10.7c-7.3,11.9-14.5,23.8-21.8,35.7
		c-2.5,4.2-5.1,8.3-7.6,12.5c-0.8,1.3-1.6,2.6-2.5,3.9c-6.9,10.4-13.9,20.8-20.8,31.1c-2.8,4.2-5.6,8.4-8.4,12.6
		c-1.2,1.8-2.5,3.6-3.9,5.3c-7.3,9.8-14.5,19.5-21.8,29.3c-1.9,2.5-3.9,4.9-5.8,7.4c-4.1,5.2-8.3,10.5-12.4,15.7
		c-5.1,6.5-10.5,12.8-15.7,19.3c-2.9,3.6-5.8,7.3-8.8,10.9c-2.3,2.8-4.5,5.8-6.7,8.7c-2.2,2.8-4.3,5.7-6.4,8.6
		c-1.1,1.4-2.1,3-3.1,4.4c-0.8,1.1-1.5,2.3-2.2,3.4c-0.7,1.2-1.3,2.5-1.9,3.7c-0.6,1.3-0.8,2.7-0.9,4.1c-0.2,2.1,1.4,4.1,3.3,4.7
		c2.5,0.8,5.1-0.6,5.9-3.1c0.1-0.5,0.3-0.9,0.5-1.4c1.8-3.3,4.1-6.3,6.2-9.3c1.4-2,2.8-4,4.2-6c2.8-4,5.8-8,8.7-12.1
		c3-4.1,6.2-8.1,9.3-12.2c2.9-3.8,5.8-7.5,8.8-11.3c6.3-8.1,12.6-16.3,18.8-24.4c5.3-6.9,10.3-13.9,15.4-20.9
		c3.9-5.3,7.8-10.6,11.6-15.9c1.2-1.7,2.5-3.4,3.7-5.1c6.9-10.3,13.7-20.7,20.6-31c3.7-5.6,7.5-11.1,11-16.8
		c6.3-10.4,12.6-20.8,18.9-31.2c4.8-7.9,9.6-15.7,14.4-23.6c5.8-9.6,11.3-19.3,16.9-29c1-1.8,0.6-4.1-1.2-5.2
		c-0.6-0.4-1.3-0.6-2-0.6C866.9,1139.1,865.7,1139.7,865,1140.8L865,1140.8L865,1140.8z"/>
	<path style="fill:#161616;" d="M881.8,1256.3c-1.1,0.3-2.4,1-2.9,2c-4.1,8.4-8.1,16.8-12.3,25.1c-3.3,6.6-6.7,13.2-10,19.7
		c-3,5.8-5.9,11.7-8.9,17.5c-1.6,3.2-3.4,6.3-5.2,9.4c-3.5,6.4-7.1,12.8-10.6,19.1c-2.4,4.3-5,8.6-7.5,12.9
		c-5.4,9.3-11.1,18.6-17,27.7c-0.7,1-1.3,2.1-2,3.1c-0.1,0.1-0.2,0.1-0.3,0.2c-1.2,0.7-2.1,1.8-2.5,3.1c-0.5,1.4-0.2,2.8,0.4,4.1
		c0.3,0.6,0.7,1,1.1,1.5c0.8,1.1,2.4,1.7,3.7,1.7c1.5,0.1,2.7-0.5,3.9-1.4c2-1.5,3.3-3.7,4.5-5.8c0.9-1.5,1.8-3,2.7-4.5
		c1.5-2.4,2.8-4.9,4.3-7.4c2.4-4.1,4.7-8.2,7-12.3c5.8-10.2,11.4-20.5,17.1-30.8c2.5-4.7,5.2-9.3,7.6-14c2.2-4.3,4.3-8.6,6.5-12.9
		c6.5-12.8,13-25.6,19.2-38.5c2-4.1,4-8.3,6-12.5c0.6-1.2,0.9-2.2,0.6-3.5c-0.3-1.2-1-2.2-2-2.8c-0.7-0.5-1.6-0.7-2.5-0.7
		C882.5,1256.1,882.2,1256.2,881.8,1256.3L881.8,1256.3L881.8,1256.3z"/>
	<path style="fill:#161616;" d="M1316.1,1168.5c-4.1,0-8.2,0.3-12.3,0.4c-4,0.1-7.9,0.1-11.9,0.2c-8.4,0.1-16.7,0.3-25.1,0.4
		c-17.4,0.4-34.7,0.9-52.1,1.4c-34.5,1.1-68.9,2.7-103.4,3.9c-36.1,1.3-72.1,2-108.2,2.8c-34.2,0.7-68.4,0.7-102.6,0.7
		c-4.4,0-8,3.6-8,8c0,4.4,3.6,8,8,8c36.2,0,72.4,0,108.6-0.8c36.4-0.8,72.8-1.6,109.2-2.9c34.4-1.2,68.7-2.8,103.1-3.9
		c16-0.5,32-0.9,48.1-1.2c7.7-0.2,15.3-0.3,23-0.4c7.9-0.1,15.8,0,23.6-0.8c2.2-0.2,4-0.7,5.6-2.3c1.5-1.5,2.3-3.5,2.3-5.6
		C1324,1172.2,1320.5,1168.5,1316.1,1168.5C1316.2,1168.5,1316.2,1168.5,1316.1,1168.5L1316.1,1168.5L1316.1,1168.5z"/>
	<path style="fill:#161616;" d="M1817.2,1153.2c-3.8,0.1-7.6,0.3-11.5,0.4c-8.1,0.2-16.2,0.3-24.4,0.3c-17,0.1-33.9,0.1-50.9,0.1
		c-3.3,0-6.5,0-9.8,0c-4,0-7.4,3.4-7.4,7.4c0,4,3.4,7.4,7.4,7.4c18.6,0,37.2,0,55.9,0.1c8.4,0,16.7,0.1,25.1,0.1
		c3.7,0,7.4,0,11.1-0.1c3.8-0.1,7.6,0,11.4-0.3c2.4-0.2,4.8-0.4,7.1-1.1c3.2-0.9,5.5-3.9,5.5-7.2c0-4.1-3.4-7.4-7.5-7.5
		c-0.3,0-0.7,0-1,0C1824.6,1152.8,1820.9,1153.1,1817.2,1153.2L1817.2,1153.2L1817.2,1153.2z"/>
	<path style="fill:#161616;" d="M416.1,1217.1c-15.5,1.9-31.1,2.3-46.7,3.1c-16.8,0.8-33.6,1.7-50.4,2.7
		c-15.7,0.9-31.5,2.1-47.2,2.5c-8.3,0.3-16.7,0.5-25,0.6c-8.2,0.1-16.4,0.2-24.6,0.2c-12.3,0-24.7,0-37-0.1c-4.2,0-7.8,3.5-7.8,7.8
		c0,4.3,3.5,7.8,7.8,7.8c20.3,0.1,40.6,0.1,60.9,0c15.9-0.1,31.7-0.7,47.6-1.6c16.9-0.9,33.9-2,50.9-2.8c16.3-0.8,32.7-1.4,49-2.3
		c5.6-0.3,11.2-0.7,16.8-1.2c3.3-0.3,6.6-0.7,9.8-1.2c1.3-0.2,2.7-0.4,4-0.6c2.1-0.3,4-1.3,5.9-2.1c1.1-0.6,2-1.5,2.6-2.6
		c1-1.7,1.3-3.7,0.7-5.6c-0.9-3.3-3.8-5.2-7-5.4c-0.5,0-0.9,0-1.4,0C422,1216.2,419.1,1216.6,416.1,1217.1L416.1,1217.1
		L416.1,1217.1z"/>
	<path style="fill:#161616;" d="M441.9,1215.7c-9.7,0.8-19.4,1.7-29.1,3.2c-1,0.3-1.8,0.8-2.5,1.5c-1,1.1-1.7,2.5-1.7,4
		c0,2.9,2.6,5.9,5.7,5.7c9.2-0.8,18.4-1.4,27.6-2.2c1.7-0.1,3.1-0.6,4.3-1.8c1.1-1.1,1.8-2.7,1.8-4.3c0-3-2.5-6.1-5.7-6.1
		C442.2,1215.7,442,1215.7,441.9,1215.7L441.9,1215.7L441.9,1215.7z"/>
	<path style="fill:#161616;" d="M1015.1,361.7c-0.7,76-1.4,152.1-2.2,228.1c-0.6,57.1-1.1,114.3-1.7,171.4c0,4.2,3.1,8.1,7.5,8.2
		c37.9,0.3,75.7,0.7,113.6,1.1c18.9,0.2,37.8,0.4,56.7,0.5c18.9,0.2,37.8,0.1,56.6,0.2c6.3,0,12.6,0,18.9,0
		c51.2,0.6,102.4,1.1,153.6,1.6c4,0,7.7-3,7.7-7.1c0.8-75.6,1.5-151.2,2.3-226.9c0.6-57.5,1.2-115.1,1.8-172.6c0-4.1-3.1-8-7.4-8.1
		c-75.8-0.7-151.6-1.5-227.5-2.2c-57.3-0.5-114.7-1.1-172-1.6c0,0-0.1,0-0.1,0C1019,354.3,1015.1,357.4,1015.1,361.7L1015.1,361.7
		L1015.1,361.7z M1029,534.6c0.5-54.9,1-109.8,1.6-164.7c73.2,0.7,146.5,1.4,219.7,2.1c54.8,0.5,109.5,1,164.3,1.5
		c-0.7,72.7-1.2,145.4-1.9,218.2c-0.5,55.4-0.9,110.8-1.5,166.2c-49.2-0.4-98.4-0.8-147.6-1.2c-29.1-0.6-58.3-1.1-87.5-1.4
		c-37.8-0.4-75.7-0.7-113.5-1.1c-11.9-0.1-23.7-0.2-35.6-0.3C1027.7,680.7,1028.3,607.6,1029,534.6L1029,534.6L1029,534.6z"/>
	<path style="fill:#161616;" d="M1083.7,512.3c-4.1,0-8,3.1-8,7.5c-0.3,30-0.6,60-0.9,90.1c0,4.1,3.1,8.1,7.5,8.1
		c33.4,0.3,66.8,0.6,100.3,1c1.9,0,3.8,0,5.8,0.1c-0.1-0.9-0.1-1.8-0.1-2.6c0-1.3-0.1-2.6-0.1-3.9c-0.1-1.6-0.1-3.1-0.2-4.7
		c0-0.9-0.1-1.8-0.1-2.8c-0.8,0.4-1.7,0.6-2.6,0.8c-3.7,0.8-8.2,0.2-11.8-0.5c-1.9-0.4-3.8-1.1-5.4-2.2c-25.8-0.2-51.6-0.5-77.4-0.7
		c0.2-24.8,0.5-49.7,0.7-74.5c32.5,0.3,65.1,0.6,97.6,0.8c0.4-4,0.7-7.9,1-11.9c0.1-1.2,0.4-2.3,0.8-3.4
		c-17.1-0.2-34.3-0.4-51.4-0.6C1120.6,512.6,1102.2,512.5,1083.7,512.3C1083.7,512.3,1083.7,512.3,1083.7,512.3L1083.7,512.3
		L1083.7,512.3z"/>
	<path style="fill:#161616;" d="M1263.2,526c0,0.7,0,1.4,0,2.2c0,0.4,0,0.8,0,1.2c16.8,0.1,33.6,0.3,50.4,0.4
		c15.9,0.1,31.8,0.3,47.8,0.4c-0.2,25.1-0.3,50.2-0.5,75.3c-25-0.1-50.1-0.3-75.1-0.5c-0.9-0.4-1.9-0.7-2.9-0.7
		c-0.4,0.1-0.8,0.1-1.2,0.2c-2.2,0.3-4.4,0.6-6.5,0.8c-0.7,0.9-1.4,1.8-2.1,2.6c-2.4,2.9-4.7,5.8-7.2,8.6c-1,1.1-1.9,2.1-2.9,3.2
		c6.4,0,12.8,0.1,19.2,0.1c1.2,0,2.3-0.2,3.3-0.7c8.6,0.1,17.2,0.2,25.8,0.3c18.9,0.2,37.7,0.5,56.6,0.7c3.9,0.1,7.5-2.9,7.6-7
		c0.3-30,0.8-60,1.1-90c0-4-3-7.8-7.2-7.8c-35.3-0.3-70.6-0.7-105.9-1C1263.2,518.1,1263.2,522.1,1263.2,526L1263.2,526L1263.2,526z
		"/>
	<path style="fill:#161616;" d="M1173.5,420.8c0,36.3,0,72.6,0,109c2.5,0,5.1,0.3,7.6,0.4c2.5,0.1,5,0.2,7.6,0.3
		c0.3-3,0.6-6,0.8-9.1c0-30.8,0-61.5,0-92.3c24.7,0,49.4,0,74.1,0c0,12.3,0,24.6,0,36.9c0,0,0,0.1,0,0.1c0,21.8,0,43.5,0,65.3
		c0.9-0.1,1.8-0.2,2.7-0.2c1.1-0.1,2.2-0.1,3.2-0.2c1.2-0.1,2.4-0.1,3.6-0.1c2.1,0,4.3-0.1,6.4-0.1c0-18.8,0-37.6,0-56.4
		c0-0.1,0-0.1,0-0.2c0-17.5,0-35.1,0-52.6c0-4.2-3.2-8.3-7.7-8.3c-30,0-60,0-90,0C1177.6,413.2,1173.5,416.4,1173.5,420.8
		L1173.5,420.8L1173.5,420.8z"/>
	<path style="fill:#161616;" d="M1188.5,577.1C1188.5,577.1,1188.5,577.1,1188.5,577.1c0.3,0.1,0.6,0.1,0.9,0.1c0-0.2,0-0.3,0-0.5
		C1189.1,576.9,1188.8,577,1188.5,577.1L1188.5,577.1L1188.5,577.1z"/>
	<path style="fill:#161616;" d="M1275.1,605.3c-0.7,0.9-1.4,1.8-2.1,2.6c-2.4,2.9-4.7,5.8-7.2,8.6c-0.7,0.9-1.5,1.7-2.3,2.5
		c0,26.6,0,53.1,0,79.7c-24.7,0-49.4,0-74.1,0c0-23.9,0-47.8,0-71.7c-0.2-0.6-0.4-1.1-0.6-1.7c-0.4-1.5-0.3-3.1-0.3-4.7
		c-0.2-1.4-0.2-2.9-0.3-4.2c0-1.3-0.1-2.6-0.1-3.9c-0.1-1.6-0.1-3.1-0.2-4.7c0-0.9-0.1-1.8-0.1-2.8c-0.8,0.4-1.7,0.7-2.6,0.8
		c-3.7,0.8-8,0.2-11.7-0.5c0,0.7,0,1.5,0,2.2c0,30.5-0.1,61.1-0.1,91.6c0,2.4,0,4.8,0,7.2c0,4.2,3.2,8.3,7.6,8.3c30,0,60,0,90.1,0
		c4.2,0,8.3-3.2,8.3-7.6c0-34.1,0-68.2,0-102.3C1278,604.9,1276.5,605.1,1275.1,605.3L1275.1,605.3L1275.1,605.3z"/>
</g>
</svg>
