<?xml version="1.0" encoding="utf-8"?>
<!-- Generator: Adobe Illustrator 22.1.0, SVG Export Plug-In . SVG Version: 6.00 Build 0)  -->
<svg version="1.1" id="Layer_1" xmlns="http://www.w3.org/2000/svg" xmlns:xlink="http://www.w3.org/1999/xlink" x="0px" y="0px"
	 viewBox="0 0 2000 2000" style="enable-background:new 0 0 2000 2000;" xml:space="preserve">
<g>
	<path style="fill:#161616;" d="M1000.6,33.4c-40,0-81,2.6-122,7.6C764.8,55,654.3,89.8,550.2,144.5c-47.9,25.1-95,55.5-140.1,90.1
		C366.7,268,325.2,306.1,286.8,348c-37.6,41-72.1,86.1-102.7,133.9c-29.9,46.8-56.3,97.8-78.5,151.5c-45,109-69.2,226-71.8,347.7
		c-1.3,59.3,3.2,120.1,13.3,180.7c4.7,28.2,11.1,57.7,19.1,87.7c7.1,26.6,15.7,53.9,26.5,83.4c39.2,107.4,97.7,207.1,174.2,296.4
		c71.8,84,157.6,154.8,254.9,210.6c48.3,27.7,100.2,51.5,154.3,70.9c53,19,109.8,33.5,169,43.3c50.7,8.3,102.7,12.6,154.7,12.6
		c68,0,136.3-7.2,203-21.3c52.1-11,105.1-27.3,157.4-48.2c47.7-19.1,95.1-42.8,140.9-70.6c43.5-26.4,85.9-57,126.1-91.2
		c38.7-32.9,76.1-70.5,111.2-111.8c35.4-41.7,68-87.6,96.6-136.5c28.3-48.3,52.8-100.3,72.7-154.6c2.4-6.6,4.7-13.1,6.9-19.7
		c0.8-2.3,1.6-4.7,2.4-7c17.7-52.6,30.9-108.8,39.5-167c8.8-60.3,11.8-122.9,8.9-186c-2.8-59.9-11.5-120.5-25.8-180.2
		c-13.5-56.3-32.9-112.8-57.7-168.2c-23.5-52.6-52.8-104.3-87-153.9c-32.5-47-69.8-91.7-110.8-133c-39.5-39.7-83.6-76.8-131.1-110.1
		c-45.5-32-95.5-60.7-148.7-85.4c-51.5-23.9-106.6-43.5-163.7-58.2c-57-14.7-117-24.2-178.3-28.3
		C1041.9,34.1,1021.2,33.4,1000.6,33.4L1000.6,33.4L1000.6,33.4z M677.9,105.4L677.9,105.4l0.6-0.2c-1.6,0.6-3.2,1.2-4.9,1.7
		c1.3-0.5,2.6-1,3.9-1.4l0,0l0,0C677.8,105.4,677.9,105.4,677.9,105.4L677.9,105.4L677.9,105.4z M925.4,180.7
		c22.1-1.7,44.6-2.6,66.8-2.6c0,0,0,0,0,0c14.6,0,29.4,0.4,44.1,1.1c35.7,1.8,72.5,6.1,109.4,12.9c35.7,6.8,71.3,16,105.8,27.3
		c33.7,11,67.7,24.8,101.2,41l-1.8-1c31.7,15.5,62.7,33,92.2,52.2c29.2,19,58.1,40.7,86.1,64.6c0,0,0,0,0,0l0.5,0.4l-0.5-0.5
		c0,0,0,0,0,0c0,0,0,0,0,0c0,0,0,0,0,0.1l-0.9-0.9c26.9,23.3,52.6,48.3,76.4,74.6c23.2,25.6,45.6,53.8,66.4,83.7
		c20.1,29.3,38.6,60,54.9,91.3c15.9,30.6,30.3,63.5,42.8,97.7l0.2,0.4l0.2,0.4c0,0,0,0,0,0c0,0,0,0.1,0,0.1l0-0.1l0,0
		c0,0,0-0.2,0-0.2c0,0,0-0.1,0-0.2l0.2,0.8c11.8,33.2,21.8,67.7,29.4,102.3c7.6,34.4,13,70.6,16.2,107.7l0,0.5c0,0,0,0,0,0
		c0,0,0,0,0,0l0-0.1l0,0c0,0,0-0.2,0-0.2c0,0,0,0,0-0.1c0,0.5,0,1,0.1,1.5l0-0.5c2.8,36.5,3.3,73.7,1.4,110.5
		c-1.8,35.9-6.2,72.8-13,109.6c-6.8,35.9-16.1,71.7-27.4,106.3c-11,33.4-24.7,67.3-40.8,100.7c-15.7,32.1-33.6,63.4-53.1,93.2
		c-18.9,28.8-40.5,57.4-64.2,85c-22.9,26.4-47.5,51.5-73.3,74.8c-7.2,6.5-14.6,12.9-22,19.1c-18.3,15.3-37.8,30.2-58.2,44.4
		c-29.2,20.2-60.1,38.8-91.6,55.2c-31.7,16.5-65.2,31.2-99.5,43.7c-33.1,11.9-67.3,21.8-101.6,29.5c-35,7.8-71.9,13.4-109.5,16.6
		l-0.7,0.1c-22.4,1.8-45.1,2.7-67.6,2.7c-13.7,0-27.7-0.3-41.5-1c-36.6-1.7-74.4-6.2-112.1-13.1c-36.1-6.9-72.1-16.2-106.9-27.7
		c-33.7-11.1-67.9-25-101.6-41.4l0.8,0.4c-30.9-15.3-61.3-32.5-90.2-51.4c-29-18.9-57.8-40.5-85.6-64.3
		c-26.4-22.8-51.6-47.4-75-73.1c-23.2-25.5-45.4-53.5-66.1-83.2c-20-29-38.4-59.6-54.7-90.8c-16.6-31.8-31.5-65.9-44.3-101.3
		l0.4,1.3c-12-33.8-22-68.7-29.7-103.7c-7.5-34.1-12.8-70-16-106.9l0-0.5c0,0,0-0.3-0.1-0.3l0,0l0,0c0,0-0.1-0.3-0.1-0.3
		c0,0,0,0,0,0c-2.7-36.4-3.2-73.5-1.4-110.4c1.8-36.1,6.3-73.4,13.2-110.7c7.1-36.9,16.7-73.6,28.6-109
		c10.6-31.7,23.8-64.1,39.2-96.1c15.5-31.8,33.3-63,52.8-92.7c18.8-28.8,40.4-57.4,64-85l-0.7,0.7l-0.7,0.8
		c22.9-26.5,47.7-51.9,73.7-75.5c25.4-23.1,53.4-45.4,83.3-66.3l0.5-0.4l-0.5,0.3c0,0,0.3-0.2,0.3-0.2c0,0,0,0,0,0c0,0,0,0,0,0
		c0,0,0.4-0.2,0.4-0.2c0,0,0.3-0.2,0.3-0.2c28.7-19.8,58.6-37.8,89.1-53.7c31.2-16.3,64.7-31,99.6-43.8
		c33.3-11.9,67.6-21.9,102-29.5c34.9-7.8,71.8-13.4,109.8-16.6l-0.5,0l0.6,0v0l0.4,0L925.4,180.7L925.4,180.7L925.4,180.7
		L925.4,180.7z M218,1540.1l-0.1-0.1l-0.1-0.3c0.5,0.7,0.9,1.4,1.4,2.1c-0.3-0.4-0.6-0.8-0.9-1.3c0,0,0,0,0,0l0,0
		c-0.1-0.1-0.1-0.1-0.2-0.2L218,1540.1L218,1540.1C218,1540.1,218,1540.1,218,1540.1L218,1540.1L218,1540.1L218,1540.1z M822.8,1934
		l-0.2,0l-0.3-0.1c1.3,0.3,2.7,0.5,4,0.8c-1-0.2-2-0.4-3-0.6c0,0,0,0,0,0l0,0c-0.1,0-0.2,0-0.3-0.1l0,0l0,0
		C822.9,1934,822.8,1934,822.8,1934L822.8,1934L822.8,1934L822.8,1934z"/>
	<path style="fill:#161616;" d="M1499.9,845.4c-15.1,1.1-30,3.8-44.6,7.9c-13.6,3.9-26.8,9.1-39.4,15.4c-1.1,0.6-2.3,1.2-3.4,1.8
		c-9.7,5.1-19,10.9-27.9,17.4c-10.8,7.9-20.9,16.6-30.1,26.3c-9.3,9.6-17.6,20.1-25,31.2c-7.3,10.9-13.6,22.5-18.9,34.6
		c-5.7,13.1-10.2,26.6-13.3,40.5c-3.2,14.3-5,28.9-5.4,43.5c-0.5,14.9,0.8,29.9,3.3,44.7c2.3,14.1,6.2,27.9,11.3,41.2
		c5,13.1,11.2,25.8,18.5,37.8c7.3,11.9,15.7,23,25,33.4c9.3,10.4,19.7,19.7,30.8,28.2c21.7,16.8,46.8,29.3,73.1,37
		c13.9,4.1,28.3,6.7,42.8,8c13.6,1.3,27.4,1.3,41.1,0c12.4-1.2,24.8-3.3,36.9-6.5c11.8-3.1,23.3-7.3,34.5-12.3
		c21.6-9.6,41.5-22.8,59.1-38.6c38.5-34.6,64.3-82.8,71.6-134.1c2.2-15.3,2.9-30.7,2-46.1c-0.9-14.9-3.2-29.7-7-44.1
		c-3.8-14.4-9.1-28.4-15.7-41.8c-6.3-13-14-25.3-22.8-36.8c-9.1-11.9-19.3-23-30.6-32.9c-11.5-10.1-24.1-19.1-37.4-26.7
		c-12.7-7.3-26.2-13.2-40.1-17.9c-14.3-4.8-29-7.9-43.9-9.8c-9-1.2-18.1-1.7-27.2-1.7C1511.4,844.7,1505.7,844.9,1499.9,845.4
		L1499.9,845.4L1499.9,845.4z M1488.8,1277.6c-18.3-2.6-36.2-7.5-53.2-14.5c-16.4-7-32-16-46.3-26.9c-14.2-11.1-27.1-23.9-38.2-38
		c-11.1-14.5-20.3-30.3-27.4-46.9c-7-16.9-11.9-34.8-14.6-53.2c-2.4-18.7-2.4-37.6,0-56.1c2.6-18.4,7.5-36.3,14.6-53.3
		c7.1-16.6,16.3-32.3,27.4-46.8c11-14,23.6-26.6,37.7-37.7c11.3-8.6,23.5-16.2,36.2-22.4c3.8-1.9,7.3-3.5,10.4-4.8
		c17.1-7.1,35.1-12,53.5-14.6c9.4-1.2,18.8-1.8,28.1-1.8c9.2,0,18.5,0.6,27.6,1.7c18.2,2.5,36,7.4,53,14.4c16.6,7,32.4,16.2,47,27.3
		l0.5,0.4c14.1,11.1,26.8,23.9,37.8,37.9c10.7,14.1,19.7,29.5,26.7,45.7c7.2,17.2,12.2,35.4,14.9,54.1c2.3,18.5,2.3,37.2,0,55.7
		c-2.6,18.3-7.4,36.2-14.4,53.1c-7,16.5-16.2,32.2-27.1,46.7c-11.3,14.5-24.3,27.5-38.6,38.6c-14.1,10.7-29.5,19.7-45.7,26.7
		c-17.2,7.2-35.3,12.2-53.9,14.8c-9.3,1.2-18.7,1.8-27.9,1.8C1507.5,1279.3,1498.1,1278.7,1488.8,1277.6L1488.8,1277.6
		L1488.8,1277.6z"/>
	<path style="fill:#161616;" d="M1377.3,1170.2l-0.4,0.6c-0.5,0.9-0.8,1.9-1,3c0,0.3,0,0.6,0,0.9c0,1.7,0.7,4.2,2.2,5.4l0.9,0.7
		l-0.9-0.8l3,2.5l1,0.9l0.8,0.6l-0.2-0.5c-1.9-4.1-3.4-8.1-4.4-12.1c-0.2-0.6-0.3-1.2-0.5-1.8L1377.3,1170.2L1377.3,1170.2
		L1377.3,1170.2z"/>
	<path style="fill:#161616;" d="M1442.3,1231.6l4.5,3.6l1.5,1.2c1.2,0.7,2.5,1,3.9,1c1.8,0,4.2-0.7,5.4-2.2l1.9-2.3l0.6-0.7
		c-6.5-0.7-12.5-1.8-18-3.1c-1.4-0.3-2.7-0.7-4.1-1L1442.3,1231.6L1442.3,1231.6L1442.3,1231.6z"/>
	<path style="fill:#161616;" d="M1682.2,1149.4c-0.6,1.9-1.1,3.5-1.9,5.2l3.6-4c1.5-1.6,2.2-3.4,2.2-5.4c0-0.2,0-0.3,0-0.5
		c0,0.1,0,0.1,0,0.2c0-1.3-0.5-2.7-1.2-4.1c-0.1-0.1-0.1-0.2-0.2-0.3C1684,1143.4,1683.2,1146.4,1682.2,1149.4L1682.2,1149.4
		L1682.2,1149.4z"/>
	<path style="fill:#161616;" d="M1634.5,1200c-3.1,2.4-6.6,4.7-10.9,7.3c-3.9,2.3-7.9,4.4-12.1,6c-0.3,0.1-0.6,0.3-0.9,0.4l3.6,3.2
		c1.6,1.5,3.4,2.2,5.4,2.2c2.1,0,4.2-0.9,5.4-2.2l9.5-10.6l7.9-8.8C1639.6,1198.4,1637,1199.3,1634.5,1200L1634.5,1200L1634.5,1200z
		"/>
	<path style="fill:#404040;" d="M1488.8,862.2c-18.4,2.6-36.4,7.5-53.5,14.6c-3.1,1.3-6.6,2.9-10.4,4.8
		c-12.7,6.3-24.9,13.8-36.2,22.4c-14,11-26.7,23.7-37.7,37.7c-11,14.5-20.2,30.2-27.4,46.8c-7.1,17-11.9,34.9-14.6,53.2
		c-2.4,18.6-2.4,37.5,0,56.1c2.7,18.4,7.6,36.3,14.6,53.2c7.1,16.6,16.3,32.4,27.4,46.9c11.1,14.1,23.9,26.9,38.2,38.1
		c14.4,10.9,30,20,46.3,26.9c17,7.1,34.9,11.9,53.2,14.5c9.3,1.2,18.8,1.8,28.1,1.8c9.2,0,18.6-0.6,27.9-1.8
		c18.6-2.6,36.7-7.6,53.9-14.8c16.2-7,31.6-16,45.7-26.7c14.4-11.2,27.4-24.2,38.6-38.6c11-14.5,20.1-30.2,27.1-46.7
		c7-16.9,11.8-34.8,14.4-53.1c2.3-18.5,2.3-37.2,0-55.7c-2.7-18.7-7.7-36.9-14.9-54.1c-7-16.2-16-31.5-26.7-45.7
		c-10.9-14-23.7-26.8-37.8-37.9l-0.5-0.4c-14.6-11.1-30.4-20.3-47-27.3c-17-7-34.9-11.8-53-14.4c-9.1-1.1-18.4-1.7-27.6-1.7
		C1507.7,860.5,1498.2,861.1,1488.8,862.2L1488.8,862.2L1488.8,862.2z M1483.8,1068.9c0-5.5,0.1-11,0-16.6c0-11.8-0.4-23.7-0.7-36.9
		l-0.3-9.5c-0.3-12.1-0.8-24.1-1.2-36.3l0-4l-0.1-3.9v-0.9c-0.1-3.7-0.1-7.5,0.3-11.3c1.1-1.1,1.7-2.5,1.7-4l1.5-0.2l2.4-0.2
		l2.4-0.3c4.4-0.4,9.1-0.7,14.9-1c3.4-0.1,6.8-0.2,10.3-0.2c10,0,17.7,0.7,25,2.1c0,0,0.4,0.1,0.4,0.2c0.5,2.9,0.6,5.9,0.7,8.8h0
		l0,0.4c0.4,11.9,0.6,24.1,0.7,35.8l0,2.5l0.1,4.8c0.2,15.3,0.3,30.4,0.1,45.8l0,2.4c-0.1,4.5-0.1,8.9-0.3,13.4l-0.1,2
		c-0.3,8.1-0.7,16.5-2.4,24.6c-0.4,1.7-0.9,3-1.4,4.2c-1.2,0.2-2.4,0.2-3.7,0.3l-1.4,0.1c-0.9,0-1.9,0.1-3,0.1
		c-5.1,0.1-10.2,0.1-15.3,0.2l-7.7,0.1c-7,0-14.1,0.5-20.9,1l-0.6,0l-1.5,0C1483.6,1084.8,1483.7,1076.6,1483.8,1068.9
		L1483.8,1068.9L1483.8,1068.9z M1682.2,1149.4c1-3,1.8-6,2.5-8.9c0.9,1.5,1.4,3,1.4,4.4c0-0.1,0-0.1,0-0.2c0,0.2,0,0.3,0,0.5
		c0,2-0.7,3.7-2.2,5.4l-3.6,4C1681.1,1152.9,1681.6,1151.3,1682.2,1149.4L1682.2,1149.4L1682.2,1149.4z M1508.8,1208.6
		c-1.4-0.4-2.7-0.8-4-1.3c-1.4-0.5-2.8-1.2-4.1-1.8c-2.8-1.7-5.6-3.6-8.3-5.9c-1.5-1.5-2.7-3.1-3.8-4.7c-1.3-2.5-2.3-5.2-3.1-7.8
		c-0.6-2.1-0.9-4.2-1.2-6.6c0-1.9,0.2-3.8,0.6-5.8c1.3-4.8,3.5-9.3,5.4-13c2-3.5,4.3-6.8,6.8-9.8c1.1-1,2.3-2,3.6-3
		c1.9-1,3.7-1.9,5.6-2.6c1.2-0.3,2.3-0.6,3.5-0.8c1.2-0.2,2.4-0.7,3.5-1.5c0,0,0.4-0.1,0.4-0.1c1-0.2,1.9-0.4,2.8-0.5l0.5,0.1
		c5.3,1.5,9.6,3.2,13.4,5.1c1.8,1.1,3.5,2.3,5.1,3.7c2.1,2.2,4.1,4.7,5.9,7.4c1.7,2.9,3.1,5.8,4.3,9.1c0.8,2.7,1.3,5.3,1.5,8
		c0,1.9-0.2,3.7-0.6,5.6c-0.8,2.8-1.9,5.6-3.4,8.6c-1.5,2.5-3.4,5-5.7,7.6c-2.9,2.9-5.6,5.2-8.4,7.1c-1.8,1-3.6,1.8-6.1,2.6
		c-2.1,0.6-3.8,0.9-5.4,1.1C1514.8,1209.6,1512,1209.3,1508.8,1208.6L1508.8,1208.6L1508.8,1208.6z M1378.1,1180
		c-1.5-1.2-2.2-3.6-2.2-5.4c0-0.3,0-0.6,0-0.9c0.2-1.1,0.5-2.1,1-3l0.4-0.6l0.5-0.6c1,4.5,2.7,9.2,4.8,13.9l0.3,0.5l-1.8-1.6
		L1378.1,1180l0.9,0.7L1378.1,1180L1378.1,1180L1378.1,1180z M1614.2,1216.8l-3.6-3.2c4.5-1.7,8.8-3.9,13-6.4
		c4.3-2.6,7.8-4.9,10.9-7.3c2.5-0.7,5.1-1.5,8-2.6l-17.5,19.5c-1.2,1.3-3.3,2.2-5.4,2.2C1617.6,1219.1,1615.8,1218.3,1614.2,1216.8
		L1614.2,1216.8L1614.2,1216.8z M1448.3,1236.4l-1.5-1.2l-4.5-3.6l-4.5-3.6c6.6,2,14,3.4,22.2,4.3l-2.5,3c-1.2,1.5-3.6,2.2-5.4,2.2
		C1450.8,1237.4,1449.5,1237.1,1448.3,1236.4L1448.3,1236.4L1448.3,1236.4z"/>
	<path style="fill:#404040;" d="M1651.6,1176c-4.4,0.5-7.3,4.1-9.7,7.4c-0.4,0.5-0.7,0.9-1.1,1.4c-2,1.5-4,2.9-6.1,4.4
		c-3.8,2.7-7.6,5.5-11.6,8c-7.4,4.5-15,8.6-22.9,12.1c-1.8,0.8-3.5,1.5-5.3,2.2c-1.1-0.2-2.3-0.3-3.4-0.5c-1.8-0.3-3.6-0.5-5.4-0.7
		c-2.8-0.3-5.6-0.4-8.4-0.5c-4.1-0.2-7.9,2.6-8.3,6.8c-0.1,1.3,0.1,2.4,0.5,3.5c-12.8,3.7-25.7,6.6-38.9,8.3
		c-0.6-3.6-2.6-6.9-4.9-9.7c-2.8-3.4-6.6-5.5-10.5-7.5c-1.8-1-3.7-1.8-5.6-2.5c-0.4-0.1-0.8-0.1-1.1-0.2c-1.4-0.4-2.7-0.8-4-1.3
		c-0.3-0.1-0.7-0.3-1-0.4c-0.1,0-0.1,0-0.2,0c-4.4-1.1-8.8-2-13.2-2.5c-3.9-0.5-7.8-0.7-11.7-0.8c-5.3-1.3-10.6-2.6-16-3.9
		c-1.9-0.5-3.8-1-5.8-1.4c-2.8-0.7-5.6-1.6-8.5-1.9c-0.9-0.1-1.8-0.2-2.7-0.1c-0.8,0.1-1.8,0.2-2.5,0.6c-0.7,0.4-1.4,0.8-2.1,1.3
		c-0.7,0.5-1.2,1.3-1.8,1.9c-1.1,1.3-1.9,3-2.5,4.6c-0.8,2.1-1,4.4-1.2,6.6c-0.1,1-0.1,2,0,3c-0.6,0.7-1,1.9-1.3,2.8
		c-0.3,1.3-0.5,2.1-0.5,3.3c0,1.2,0.1,2.3,0.3,3.5c0.2,1.1,0.6,2.2,1,3.2c0.4,1,1.1,1.9,1.7,2.8c0.4,0.6,1,1.2,1.5,1.7
		c1.6,1.6,3.4,3,5.3,4.1c3.3,2,6.9,3.7,10.6,5.1c0.5,0.2,1,0.4,1.6,0.6c3,1.5,6,2.9,9.2,4.1c4,1.5,7.9,3.1,12,4
		c2.1,0.5,4,0.5,6.2,0.4c2.6-0.1,4.9-1.6,6.6-3.5c0.1-0.1,0.2-0.2,0.3-0.3c1.7,0,3.5,0,5.2-0.1c2.4-0.1,4.7-0.2,7.1-0.3
		c4.6,0.1,9.3,0.1,13.9-0.1c9.1-0.4,18.2-1.6,27.2-3.1c8.8-1.5,17.6-3.5,26.2-6c8.9-2.5,17.8-5.3,26.5-8.6c0.6,0.1,1.2,0.2,1.9,0.3
		c1.3,0.2,2.5,0.4,3.8,0.6c1.9,0.3,4,0.5,5.9,0.2c1.8-0.3,3.6-0.9,5.4-1.4c5.8-1.8,11-5.3,16-8.8c5.5-3.9,10.3-8.6,14.8-13.6
		c2.3-2.5,4.4-5,6.6-7.6c0.4-0.4,0.7-0.9,1.1-1.3c2.8-2.3,5.1-5,7.6-7.7c0.8-1.2,1.3-2.5,1.5-3.9c0.1-1.4-0.1-2.8-0.7-4.1
		c-0.6-1.3-1.4-2.3-2.6-3.1c-1.5-1.1-3.1-1.5-4.8-1.5C1652.5,1176,1652,1176,1651.6,1176L1651.6,1176L1651.6,1176z M1447.2,1203
		c-0.1,0.1-0.3,0.2-0.5,0.3C1446.9,1203.2,1447.1,1203.1,1447.2,1203L1447.2,1203L1447.2,1203z M1444.3,1207.7c0.3-1,0.6-1.9,1-2.8
		c0.3-0.5,0.6-0.9,1-1.3c0,0,0.1-0.1,0.2-0.1c0.1,0,0.2,0,0.3,0c1.7,0,3.3,0.2,5,0.6c0.1,0,0.2,0,0.3,0.1c0.2,0,0.3,0.1,0.5,0.1
		c-0.2,0-0.3-0.1-0.5-0.1c1.2,0.3,2.5,0.6,3.7,0.9c-0.3,0-0.6,0.1-0.9,0.1c-1.1,0.1-2.2,0.6-3.2,1c-1.3,0.5-2.7,1.8-3.5,2.9
		c-0.2,0.2-0.4,0.5-0.6,0.7c-0.9,0-1.9,0-2.7,0.1c-0.2,0-0.5,0.1-0.7,0.1C1444.1,1209.1,1444.2,1208.4,1444.3,1207.7L1444.3,1207.7
		L1444.3,1207.7z M1462.7,1206.5c0.1,0,0.3,0.1,0.4,0.1c0,0,0.1,0,0.1,0C1463,1206.6,1462.8,1206.6,1462.7,1206.5L1462.7,1206.5
		L1462.7,1206.5z M1486.9,1228.3c-1.1-1.1-2.3-2.2-3.5-3.3c-2.7-2.5-6.2-4.3-9.5-6c3.6,0,7.1,0.1,10.7,0.3c4.6,0.3,9.1,1,13.6,2
		c1.9,0.5,3.8,1,5.7,1.7c2.1,0.7,4.2,1.7,6.2,2.7c1.3,0.8,2.6,1.6,3.8,2.6c0.3,0.3,0.5,0.6,0.8,0.9c-1.5,0.4-3,0.7-4.5,0.9
		c-0.3,0-0.6,0-1,0C1501.7,1230.1,1494.2,1229.6,1486.9,1228.3L1486.9,1228.3L1486.9,1228.3z M1509.1,1225.2
		c0.1,0.1,0.3,0.2,0.4,0.3C1509.4,1225.4,1509.3,1225.3,1509.1,1225.2L1509.1,1225.2L1509.1,1225.2z"/>
	<path style="fill:#161616;" d="M1513.8,928c-8,0.1-16,0.4-24,1c-3.7,0.3-7.4,0.7-11,1.1c-1.5,0.2-3,0.3-4.5,0.5
		c-1.5,0.2-2.8,0.5-4.2,1c-3.1,1.1-5.6,4.3-5.5,7.7c-0.1,1,0,1.9,0.3,2.8c0.4,1.3,0.8,2.5,1.3,3.7c0.8,1.8,2.3,3.2,4,3.9
		c-0.2,2.2-0.3,4.4-0.3,6.6c-0.1,2.2-0.1,4.4-0.1,6.6c-0.1,3.5-0.1,6.9,0,10.3c0.1,8.4,0.2,16.7,0.3,25.1c0.2,14.5,0.2,29,0.2,43.6
		c0,11.9-0.3,23.7-0.6,35.6c-0.2,6-0.3,11.9-0.5,17.9c0,1.6-0.3,3.3,0,4.9c0.1,0.9,0.3,1.7,0.7,2.5c0.5,1,1.9,2.9,2.9,3.5
		c0.8,0.4,1.6,0.9,2.3,1.3c1.3,0.5,2.7,0.7,4.1,0.7c2.2,0,4.3-0.1,6.5-0.3c3.3-0.2,6.5-0.4,9.8-0.6c6.7-0.2,13.3-0.3,20-0.3
		c8.4,0,16.7-0.1,25-0.6c2.9-0.2,5.6-1.4,7.8-3.2c2.1-1.7,3.5-4.3,4.6-6.7c1-2.3,1.6-4.9,2.1-7.3c0.6-2.8,1.1-5.6,1.4-8.4
		c0.8-5.8,0.9-11.6,1.2-17.4c0.3-7.7,0.4-15.4,0.5-23c0.2-14.3-0.1-28.7-0.2-43c-0.2-14.4-0.4-28.9-0.9-43.3c0,0,0,0,0,0
		c0-0.3,0-0.5,0-0.8c0,0,0-0.1,0-0.1c0,0,0,0.1,0,0.1c0-0.1,0-0.2,0-0.2c0,0,0,0,0,0c0,0,0,0,0,0c0-0.1,0-0.1,0-0.2c0,0,0-0.1,0-0.1
		c0,0,0,0,0,0c0,0,0,0,0,0c0-0.1,0-0.2,0-0.3c0,0,0,0,0,0c0,0,0,0,0,0c0,0,0-0.1,0-0.1c0,0,0,0,0,0.1c0-0.3,0-0.5,0-0.8
		c0,0.2,0,0.3,0,0.5c0,0.1,0,0.2,0,0.3c0,0.1,0,0.3,0,0.5c-0.1-2.2-0.2-4.4-0.3-6.6c-0.3-3.6-0.9-7.7-3.3-10.5
		c-1.8-2.1-3.8-3.5-6.4-4.6c-0.8-0.4-1.8-0.5-2.7-0.7c-1.1-0.3-2.3-0.6-3.4-0.8c-1.9-0.3-3.8-0.6-5.7-0.9c-3.8-0.5-7.6-0.6-11.3-0.8
		c-2.6-0.1-5.3-0.2-7.9-0.2C1515,928,1514.4,928,1513.8,928L1513.8,928L1513.8,928z M1483.8,1068.9c0-5.5,0.1-11,0-16.6
		c0-11.8-0.4-23.7-0.7-36.9l-0.3-9.5c-0.3-12.1-0.8-24.1-1.2-36.3l0-4l-0.1-3.9v-0.9c-0.1-3.7-0.1-7.5,0.3-11.3
		c1.1-1.1,1.7-2.5,1.7-4l1.5-0.2l2.4-0.2l2.4-0.3c4.4-0.4,9.1-0.7,14.9-1c3.4-0.1,6.8-0.2,10.3-0.2c10,0,17.7,0.7,25,2.1
		c0,0,0.4,0.1,0.4,0.2c0.5,2.9,0.6,5.9,0.7,8.8h0l0,0.4c0.4,11.9,0.6,24.1,0.7,35.8l0,2.5l0.1,4.8c0.2,15.3,0.3,30.4,0.1,45.8l0,2.4
		c-0.1,4.5-0.1,8.9-0.3,13.4l-0.1,2c-0.3,8.1-0.7,16.5-2.4,24.6c-0.4,1.7-0.9,3-1.4,4.2c-1.2,0.2-2.4,0.2-3.7,0.3l-1.4,0.1
		c-0.9,0-1.9,0.1-3,0.1c-5.1,0.1-10.2,0.1-15.3,0.2l-7.7,0.1c-7,0-14.1,0.5-20.9,1l-0.6,0l-1.4,0c0,0,0,0,0,0v0l-0.1,0
		C1483.6,1084.8,1483.7,1076.6,1483.8,1068.9L1483.8,1068.9L1483.8,1068.9z"/>
	<path style="fill:#161616;" d="M1515,1128.2c-1.3,0.1-2.6,0.5-3.8,0.9c-0.8,0.2-1.5,0.5-2.2,0.8c-0.6,0-1.2,0-1.8,0.1
		c-5.6,1-10.8,3-15.5,6.1c-5.2,3.4-9.1,8.3-12.5,13.4c-1.7,2.5-3,5.2-4.4,7.8c-1.1,2.2-2.2,4.5-3.1,6.8c-2.4,5.8-3.5,12.1-3,18.4
		c0.2,2.5,0.6,4.9,1.2,7.3c0.4,1.5,1,3.1,1.4,4.6c1,3.2,2.3,6.3,4.1,9.1c3.8,6,9.4,11,15.5,14.5c3.8,2.2,7.6,4,11.9,5.2
		c4.3,1.2,8.6,2,13,2.1c6.2,0.1,12.3-1.5,18-4c4-1.8,7.6-4.6,10.9-7.5c4.4-3.8,8.5-8.4,11.5-13.4c4.6-7.7,7.5-16.7,6.8-25.7
		c-0.7-9.7-4.6-18.8-10.2-26.7c-2.3-3.3-5.1-6.2-8.1-8.9c-3.5-3.2-8-5.4-12.2-7.3c-2.8-1.3-5.8-2.2-8.8-3c-1.7-0.5-3.5-0.9-5.2-1.1
		C1517.3,1128.1,1516.1,1128.2,1515,1128.2L1515,1128.2L1515,1128.2z M1508.8,1208.6c-1.4-0.4-2.7-0.8-4-1.3
		c-1.4-0.5-2.8-1.2-4.1-1.8c-2.8-1.7-5.6-3.6-8.3-5.9c-1.5-1.5-2.7-3.1-3.8-4.7c-1.3-2.5-2.3-5.2-3.1-7.8c-0.6-2.1-0.9-4.2-1.2-6.6
		c0-1.9,0.2-3.8,0.6-5.8c1.3-4.8,3.5-9.3,5.4-13c2-3.5,4.3-6.8,6.8-9.8c1.1-1,2.3-2,3.6-3c1.9-1,3.7-1.9,5.6-2.6
		c1.2-0.3,2.3-0.6,3.5-0.8c1.2-0.2,2.4-0.7,3.5-1.5c0,0,0.4-0.1,0.4-0.1c1-0.2,1.9-0.4,2.8-0.5l0.5,0.1c5.3,1.5,9.6,3.2,13.4,5.1
		c1.8,1.1,3.5,2.3,5.1,3.7c2.1,2.2,4.1,4.7,5.9,7.4c1.7,2.9,3.1,5.8,4.3,9.1c0.8,2.7,1.3,5.3,1.5,8c0,1.9-0.2,3.7-0.6,5.6
		c-0.8,2.8-1.9,5.6-3.4,8.6c-1.5,2.5-3.4,5-5.7,7.6c-2.9,2.9-5.6,5.2-8.4,7.1c-1.8,1-3.6,1.8-6.1,2.6c-2.1,0.6-3.8,0.9-5.4,1.1
		C1514.8,1209.6,1512,1209.3,1508.8,1208.6L1508.8,1208.6L1508.8,1208.6z M1517.7,1143.9c0.2,0,0.3,0.1,0.5,0.1
		C1518,1144,1517.9,1143.9,1517.7,1143.9L1517.7,1143.9L1517.7,1143.9z M1487.7,1193.5c0.1,0.2,0.2,0.3,0.3,0.5
		C1487.9,1193.8,1487.8,1193.6,1487.7,1193.5L1487.7,1193.5L1487.7,1193.5z"/>
	<path style="fill:#F8F8F5;" d="M1516.5,1143.7C1516.5,1143.7,1516.5,1143.7,1516.5,1143.7c-0.9,0.1-1.8,0.3-2.8,0.5
		c0,0-0.4,0.1-0.4,0.1c-1.1,0.8-2.2,1.3-3.5,1.6c-1.2,0.2-2.3,0.5-3.5,0.8c-1.9,0.7-3.7,1.5-5.6,2.6c-1.4,1-2.5,1.9-3.6,3
		c-2.6,3-4.9,6.3-6.9,9.8c-1.9,3.7-4.1,8.2-5.4,13c-0.4,2-0.5,3.9-0.6,5.7c0.2,2.3,0.6,4.5,1.2,6.5c0.8,2.5,1.7,5.2,3.1,7.8
		c1.1,1.6,2.4,3.2,3.8,4.7c2.7,2.3,5.5,4.3,8.3,5.9c1.3,0.7,2.7,1.3,4.1,1.8c1.3,0.5,2.7,0.9,4.1,1.3c3.2,0.7,6,1,8.7,1
		c1.6-0.2,3.3-0.5,5.4-1.1c2.5-0.8,4.4-1.6,6.1-2.6c2.8-1.9,5.6-4.3,8.4-7.2c2.3-2.6,4.2-5.1,5.7-7.6c1.5-3,2.6-5.8,3.4-8.7
		c0.4-1.9,0.5-3.7,0.6-5.6c-0.3-2.7-0.8-5.3-1.5-8c-1.1-3.3-2.5-6.2-4.3-9.1c-1.8-2.7-3.7-5.1-5.9-7.4c-1.6-1.4-3.3-2.6-5.1-3.7
		c-3.8-1.9-8.1-3.5-13.4-5.1L1516.5,1143.7C1516.5,1143.7,1516.5,1143.7,1516.5,1143.7L1516.5,1143.7L1516.5,1143.7z"/>
	<path style="fill:#F8F8F5;" d="M1514.9,943.8c-3.4,0-6.9,0.1-10.3,0.2c-5.7,0.3-10.5,0.6-14.9,1l-2.4,0.2l-2.4,0.2l-1.5,0.2
		c0,1.5-0.6,2.9-1.7,4c-0.5,3.8-0.4,7.6-0.3,11.3v0.9l0.1,3.9l0,4c0.5,12.2,0.9,24.3,1.2,36.3l0.3,9.5c0.4,13.2,0.7,25.1,0.7,36.9
		c0,5.5,0,11,0,16.6c-0.1,7.7-0.1,15.9,0,23.9l1.5,0l0.6,0c6.8-0.5,13.9-1,20.9-1l7.7-0.1c5.1,0,10.2-0.1,15.3-0.2
		c1.1,0,2.1-0.1,3-0.1l1.4-0.1c1.2-0.1,2.5-0.1,3.7-0.3c0.5-1.2,1-2.6,1.4-4.2c1.7-8.1,2-16.5,2.4-24.6l0.1-2
		c0.2-4.5,0.2-8.9,0.3-13.4l0-2.4c0.2-15.4,0.1-30.4-0.1-45.8l-0.1-4.8l0-2.5c-0.2-11.7-0.3-23.9-0.7-35.8l0-0.4l0,0
		c-0.1-2.9-0.2-6-0.7-8.8c0,0-0.4-0.2-0.4-0.2C1532.6,944.5,1524.9,943.8,1514.9,943.8L1514.9,943.8L1514.9,943.8z"/>
	<path style="fill:#161616;" d="M1127.8,664.2c-6,0.3-11.9,1.3-17.7,2.3c-4.1,0.7-8.1,1.5-12.1,2.4c-5.3,1.1-10.5,2.3-15.8,3.4
		c-8.3,1.8-16.5,3.6-24.8,5.4c-16.1,3.5-32.4,6.4-48.7,9.2c0.5-0.1,1-0.2,1.5-0.3c-8.6,1.3-17.1,2.6-25.7,4
		c-8.9,1.4-17.9,2.3-26.8,3.5c-17.3,2.2-34.6,4-51.9,5.9c-33.5,3.7-67,7.2-100.5,10.9c-35.5,3.9-71.1,7.8-106.5,12.1
		c-33.4,4.1-66.7,8.6-99.9,14.1c-33.9,5.6-67.8,11.4-101.6,17.2c-4.3,0.8-8.6,1.5-12.8,2.5c-2.8,0.7-5.4,1.7-8,3
		c-1.9,0.9-3.5,2.5-5,3.9c-2,1.9-3.5,4.5-4.7,6.9c-1.1,2.3-1.9,4.9-2.5,7.3c-0.6,2-1,4.2-1.2,6.3c-0.3,2.6-0.7,5.3-0.9,7.9
		c-0.3,3.8-0.5,7.5-0.4,11.3c-2.3,1.5-3.8,4.1-3.6,6.9c0.9,12.3,1.9,24.6,3,36.9c1.1,11.9,2.2,23.8,3.3,35.7
		c1.6,17.1,3.8,34.1,5.7,51.1c1.9,16.6,3.7,33.2,5.4,49.7c1.9,17.7,3.6,35.5,5.2,53.2c1.4,15.3,2.6,30.5,3.9,45.8
		c1.6,18.7,3.3,37.3,5,56c1.6,17.3,3.7,34.5,5.6,51.8c1.9,17.2,4,34.3,6,51.5c1.9,16.2,3.8,32.5,6.3,48.7
		c2.7,17.8,5.7,35.6,10.1,53.1c0.6,2.2,1.1,4.3,1.8,6.5c0.4,1.5,0.9,2.9,1.5,4.3c0.6,1.4,1.2,2.6,2,3.8c1.1,1.8,2.9,3.2,4.6,4.4
		c5.1,3.4,11.1,4,17,4.5c6.2,0.5,12.6-0.1,18.8-0.6c12.7-1.1,25.4-3.2,38.1-5c15.6-2.2,31.2-4.8,46.8-7.1
		c18.9-2.8,37.7-5.6,56.6-8.3c15.1-2.2,30.3-4.2,45.4-6.4c9.5-1.4,19.1-2.7,28.6-4.2c9.6-1.5,19.1-3.1,28.7-4.6
		c16.6-2.7,33.3-5.6,49.9-8.4c16-2.7,32-5.3,48-7.7c17.8-2.7,35.5-5.6,53.4-8c9.4-1.3,18.8-2.6,28.2-3.9c8.6-1.2,17.3-2.1,25.9-3.1
		c16-1.9,32-3.4,48-5.4c35.2-4.5,70.3-9.4,105.3-14.6c7.8-1.2,15.7-2.3,23.5-3.6c5-0.8,10-1.7,14.9-2.5c1.7-0.3,3.5-0.7,5.2-1
		c1.3-0.3,2.6-0.5,3.9-1c1.3-0.4,2.6-1.2,3.9-1.8c3.1-1.5,5.5-4.5,7.4-7.3c3.1-4.7,4.8-10.3,6-15.8c0.6-3,0.9-6.2,1.1-9.2
		c0.3-3.4,0.4-6.7,0.5-10.1c0.1-6.6-0.5-13.1-1-19.7c-0.3-3.4-0.5-6.8-1-10.1c-0.8-5.7-1.5-11.5-2.3-17.2
		c-1.1-8.6-2.6-17.1-3.9-25.7c-1.3-8.5-2.8-17-4.2-25.5c-2.8-17.1-5.6-34.1-8.4-51.2c-1.3-8.4-2.3-16.8-3.5-25.2
		c-1.2-8.9-2-17.9-2.9-26.8c-1.8-16.4-3.4-32.9-5.1-49.4c-1.8-16.3-3.6-32.6-5.3-48.9c-1.8-17.1-3.5-34.3-5.4-51.5
		c-3.9-35.8-7.9-71.5-12.4-107.2c-1-7.7-2-15.4-3.2-23.1c-1.3-9-2.5-18-4.2-26.9c-1.6-8.4-3.1-16.9-5.5-25.2
		c-1.8-6.4-3.7-12.7-6.8-18.6c-2.6-4.8-7.1-8.1-12.1-9.9c-4.3-1.5-8.8-1.9-13.3-1.9C1130.9,664.1,1129.3,664.1,1127.8,664.2
		L1127.8,664.2L1127.8,664.2z M1135.8,680.1c1.7,0.2,3.4,0.6,5,1.1c0.5,0.2,1,0.5,1.5,0.8c0.3,0.3,0.6,0.5,0.9,0.8
		c0.6,0.9,1.2,1.9,1.7,2.8c2.9,6.9,4.6,14.3,6.4,21.5c1.5,5.9,2.5,12,3.7,18c5.5,34.5,9.6,69.2,13.6,104c4,34.6,7.5,69.3,11.1,104
		c1.8,16.7,3.7,33.4,5.5,50.2c1.8,16.1,3.3,32.2,5,48.3c1.9,17.2,3.8,34.4,6.5,51.5c2.7,17.2,5.6,34.3,8.4,51.5
		c1.2,7.3,2.5,14.6,3.6,22c1.2,7.8,2.6,15.6,3.6,23.4c0.6,4.6,1.2,9.1,1.8,13.7c0.4,3.1,1,6.2,1.2,9.3c0.4,4.7,0.7,9.4,1.1,14
		c0.6,7.2,0.5,14.5-0.1,21.7c-0.5,4.2-1.3,8.3-2.7,12.3c-0.6,1.4-1.3,2.8-2.1,4.1c-0.4,0.5-0.9,1-1.4,1.5c-0.4,0.2-0.7,0.5-1.1,0.7
		c-2.7,1-5.7,1.4-8.6,1.9c-1.3,0.3-2.6,0.5-3.9,0.7c-16.7,2.8-33.4,5.2-50.1,7.6c-16.8,2.4-33.5,4.9-50.3,7.1
		c-18.3,2.4-36.6,4.7-55,6.8c-8.6,1-17.3,1.9-25.9,2.8c-8.7,1-17.3,2-26,3.1c-8.7,1-17.3,2.3-26,3.5c-8.2,1.1-16.3,2.3-24.5,3.5
		c-15.9,2.3-31.9,4.8-47.8,7.3c-35.9,5.8-71.8,12-107.7,17.8c-15.2,2.5-30.4,4.6-45.6,6.7c-19.3,2.7-38.6,5.4-57.9,8.2
		c-15.1,2.2-30.3,4.4-45.4,6.8c-18.7,2.9-37.4,5.7-56.2,8.3c-5.1,0.7-10.3,1.3-15.4,1.8c-6.4,0.6-12.8,1-19.2,0.6
		c-2-0.2-4-0.6-6-1.2c-0.5-0.2-1-0.5-1.5-0.8c-0.1-0.2-0.2-0.4-0.3-0.6c-1.4-3.6-2.3-7.5-3.2-11.3c-1-4.3-2-8.7-3-13
		c-1.6-7.4-2.9-14.9-4.2-22.3c-5.3-34.5-9.1-69.1-13.1-103.7c-3.9-33.3-7.5-66.6-10.3-99.9c-1.5-18.3-3-36.6-4.5-54.8
		c-1.3-15.4-2.7-30.7-4.3-46c-1.9-17.4-3.6-34.8-5.6-52.2c-2.2-19-4.5-38-6.6-57c-1.2-11.2-2-22.5-3.1-33.7
		c-0.5-5.6-1-11.2-1.5-16.8c0.2,0.1,0.3,0.1,0.5,0.2c17.2,5.8,35.4,4.6,53.2,3.5c4.5-0.3,8.9-0.6,13.4-0.9c4.5-0.3,9.1-1,13.6-1.4
		c8.7-0.9,17.3-2,26-3.1c15.8-2,31.7-4.2,47.5-6.5c35-5.1,70-10.2,104.9-15.8c33.7-5.4,67.3-11.2,100.9-17.3
		c16.1-2.8,32.2-5.6,48.3-8.1c17.7-2.8,35.4-5.5,53.1-8.2c33.8-5.1,67.6-10.1,101.4-15.1c16.5-2.5,33.1-4.7,49.6-7.3
		c8.6-1.4,17.2-2.8,25.8-4.3c8.5-1.4,17.1-2.7,25.5-4.2c3.6-0.7,7.2-1.6,10.7-2.7c4-1.2,6.3-5.7,5-9.7c-0.6-1.9-2-3.5-3.7-4.5
		c-2-1-3.9-1-6-0.5c-3.9,0.8-7.7,1.6-11.6,2.4c-7.7,1.3-15.5,2.5-23.2,3.8c-8.1,1.3-16.1,2.8-24.2,4c-16.7,2.6-33.4,4.9-50,7.4
		c-33.7,5-67.5,10-101.2,15.1c-34.8,5.3-69.5,10.6-104.1,16.8c-16.4,2.9-32.8,5.8-49.3,8.8c-33.7,5.7-67.4,11.1-101.2,16.2
		c-35.5,5.3-70.9,10.5-106.5,15.1c-10.6,1.3-21.3,2.4-31.9,3.6c-1.6,0.2-3.2,0.2-4.7,0.3c-3.9,0.3-7.8,0.5-11.8,0.8
		c-9.7,0.6-19.4,1.2-29,0.5c-5.4-0.6-10.8-1.7-16-3.4c-0.5-0.2-1-0.5-1.4-0.7c0,0,0,0,0,0c-0.4-1.3-0.6-2.6-0.8-4
		c-0.6-4-1.1-8.1-1.3-12.2c-0.1-2.7-0.2-5.3-0.1-8.1c0-1.7,0.2-3.4,0.3-5.1c0.6-4.9,1.2-9.6,2.7-14.3c0.4-0.9,0.9-1.8,1.4-2.6
		c0.5-0.6,1-1.2,1.5-1.7c0.4-0.3,0.8-0.5,1.2-0.8c4.6-1.8,9.6-2.5,14.5-3.4c-0.5,0.1-1.1,0.2-1.6,0.3c33.6-5.8,67.3-11.5,100.9-17.1
		c33-5.5,66.3-10.1,99.5-14.1c35.7-4.3,71.5-8.3,107.2-12.2c33.5-3.6,67-7.1,100.5-10.9c17.4-2,34.8-3.9,52.2-6
		c17.6-2.1,35-4.8,52.5-7.4c8.8-1.3,17.5-3.1,26.2-4.6c8.1-1.4,16.2-3.3,24.3-4.9c18.1-3.6,36-8.3,54.2-11.6
		C1122.2,680.6,1129,679.8,1135.8,680.1L1135.8,680.1L1135.8,680.1z M1216.3,1239.6c0,0.3,0,0.5-0.1,0.8
		C1216.2,1240.1,1216.3,1239.8,1216.3,1239.6L1216.3,1239.6L1216.3,1239.6z M1195.5,1259.8c-0.3,0.1-0.6,0.1-0.9,0.2
		C1194.9,1259.9,1195.2,1259.9,1195.5,1259.8L1195.5,1259.8L1195.5,1259.8z M535.3,1348.7c0.2,0.3,0.4,0.5,0.6,0.8
		C535.7,1349.2,535.5,1348.9,535.3,1348.7L535.3,1348.7L535.3,1348.7z"/>
	<path style="fill:#161616;" d="M469.8,788.4c-4.5,0.2-7.6,4-7.7,8.3c-0.2,18.6-0.5,37.2-0.7,55.9c-0.1,9.2-0.1,18.5-0.3,27.7
		c-0.3,9.6-0.5,19.2-0.7,28.7c-0.4,17.3-1.5,34.7-2.3,52c-0.9,17.9-2,35.8-3,53.7c-2.1,35-3.6,70.1-5.5,105.2
		c-1,17.1-1.8,34.2-2.7,51.4c-0.8,16.4-1.2,32.8-1.6,49.2c-0.4,17.4-0.8,34.7-1.1,52.1c-0.1,4.3-0.2,8.5-0.2,12.8
		c0,2.1-0.1,4.3-0.1,6.4c0,3.2-0.3,6.5,0.5,9.6c2.3,9,10.3,14.8,17.3,20.2c3.5,2.7,7.2,5.3,10.9,7.9c13.3,9.4,26.9,18.5,40.2,27.9
		c2.2,1.6,4.4,3.2,6.6,4.7c3,2.2,6.1,4.5,9.2,6.5c3,1.9,7.2,0.9,9.5-1.6c1.4-1.5,2.2-3.6,2.1-5.7c-0.1-1.9-1-4.3-2.5-5.5
		c-19.6-14.6-40.1-28-60-42.2c0.6,0.4,1.1,0.8,1.7,1.2c-6.1-4.5-12.5-8.8-17.7-14.4c-0.6-0.8-1.1-1.5-1.6-2.3
		c-0.1-0.2-0.1-0.3-0.2-0.5c-0.4-4.3-0.1-8.7,0-13c0.1-4.3,0.2-8.7,0.2-13c0.2-7.9,0.3-15.8,0.5-23.7c0.4-18.1,0.8-36.1,1.3-54.1
		c1-33.7,3.3-67.4,5-101.1c0.9-17.5,1.7-35,2.6-52.4c1-17.7,2.1-35.4,3.1-53.2c1-17.5,2-35,2.7-52.5c0.3-8.7,0.8-17.5,1-26.2
		c0.2-9.5,0.5-19.1,0.7-28.6c0.3-12.3,0.3-24.7,0.4-37c0.2-15.5,0.4-31,0.6-46.5c0-4.3-3.9-7.7-8-7.7
		C470,788.4,469.9,788.4,469.8,788.4L469.8,788.4L469.8,788.4z"/>
	<path style="fill:#161616;" d="M1064.3,784.3c-3.9,0.3-7.9,0.8-11.8,1.3c-3.5,0.5-7.1,0.8-10.6,1.4c-8.4,1.3-16.8,2.5-25.2,3.9
		c-17.5,2.8-35.1,5.7-52.6,8.8c-11.2,2-22.3,3.9-33.5,5.9c0.7-0.1,1.4-0.3,2.1-0.4c-33.3,5.8-66.5,11.9-99.7,17.8
		c0.7-0.1,1.4-0.3,2.1-0.4c-16.1,2.8-32.1,5.7-48.1,8.5c-32.9,5.7-65.9,11.1-99.1,15c-34.4,4.1-68.9,7.4-103.1,13.5
		c-8,1.4-15.9,2.9-23.9,4.5c-5,1-10.4,1.7-14.8,4.3c-2.3,1.4-4,3.9-5.2,6.2c-1.5,2.7-2.3,5.8-2.9,8.8c-1.1,6.2,0.2,12.8,1.9,18.8
		c0,0,0,0.1,0,0.1c-0.4,1-0.5,2-0.4,3.1c3.6,40.3,7.7,80.5,11.8,120.7c3.4,32.1,6.9,64.2,10,96.3c1.7,17,3.2,34.1,5.3,51.1
		c2.1,16.9,4.5,33.8,7.1,50.7c2.6,16.8,5.4,33.5,7.7,50.3c0.3,1.9,0.5,3.8,0.8,5.7c0.3,2.3,0.6,4.5,1.5,6.7c0.8,1.8,1.5,2.7,2.7,4.3
		c1.1,1.4,2.5,2.3,4,3.3c1,0.7,2.1,1.1,3.2,1.5c1.5,0.6,2.9,1.1,4.5,1.5c2.6,0.7,5.3,1,7.9,1.2c6.4,0.6,12.9,0.6,19.3,0.2
		c6.3-0.4,12.5-1.2,18.8-1.9c3.7-0.5,7.5-0.8,11.2-1.4c35-5.4,69.8-11.3,104.6-17.7c34.3-6.3,68.5-13.7,102.4-21.7
		c15.1-3.5,30.2-7.1,45.3-10.5c14.1-3.2,28.4-5.9,42.6-8.5c17-2.9,34.1-5.8,51.1-8.6c16.6-2.8,33.3-5.3,50-7.9
		c16.6-2.5,33.2-5.1,49.5-8.6c16.9-3.6,33.5-7.9,49.9-13.1c3.7-1.1,7.3-2.3,10.9-3.6c2-0.8,4-1.5,6-2.4c1.8-0.8,3.5-1.6,5.1-2.5
		c1.1-0.7,2.3-1.6,3.2-2.5c1.3-1.2,2.2-2.7,3.2-4.1c1.5-2.1,2.2-4.8,3-7.3c0.8-2.6,1-5.5,1.2-8.2c0.4-6.2-0.5-12.3-1.5-18.4
		c-1.1-6.4-3-12.7-4.7-19c-1.9-7.2-4.1-14.4-5.9-21.7c-1.3-5.4-2.6-10.7-3.9-16.1c-0.8-3.3-1.4-6.7-2.1-10
		c-0.8-3.7-1.5-7.4-2.2-11.2c-1.2-7.3-2.5-14.7-3.4-22c-1-8.6-2.1-17.3-3-26c-1-9-1.9-18-2.9-27c-1-8.9-2.2-17.8-3.3-26.7
		c-1-8-2.4-15.9-3.7-23.9c-0.8-5-1.9-10.1-2.8-15.1c-0.7-3.5-1.4-7.1-2.2-10.6c-3.6-16.9-7.4-33.8-10.8-50.8
		c-1.6-7.9-3.1-15.9-4.8-23.8c-1.8-8-3.8-16-6.1-23.9c-2.3-7.9-4.6-15.8-7.9-23.4c-0.8-1.8-1.6-3.6-2.6-5.4
		c-1.4-2.5-3.7-4.2-6.1-5.8c-1-0.6-2.1-1-3.1-1.4c-1.4-0.5-2.8-1-4.2-1.4c-3.2-0.8-6.6-1-9.8-1.2c-1.7-0.1-3.4-0.1-5.1-0.1
		C1075.7,783.4,1070,783.9,1064.3,784.3L1064.3,784.3L1064.3,784.3z M1018.7,806.7c8.3-1.3,16.6-2.6,24.9-3.9
		c4.1-0.6,8.3-1.1,12.5-1.6c3.9-0.5,7.7-0.9,11.7-1.2c7-0.5,13.9-0.9,20.9-0.4c1.9,0.2,3.7,0.6,5.5,1.1c0.6,0.3,1.2,0.5,1.8,0.9
		c0.3,0.5,0.7,1.1,1,1.7c3,7.2,5.3,14.6,7.5,22.1c2.3,7.9,4.4,15.9,6.2,23.9c1.9,8.3,3.5,16.7,5.1,25c1.6,8.5,3.4,17,5.2,25.5
		c1.7,8,3.6,16,5.3,24.1c1.7,8.1,3.3,16.2,4.8,24.3c1.2,7.3,2.5,14.6,3.4,21.9c1.2,8.8,2.3,17.7,3.3,26.5c2,17.8,3.9,35.5,6,53.2
		c1,8,2.4,15.9,3.6,23.7c0.8,4.8,1.8,9.5,2.8,14.2c0.7,3.4,1.3,6.7,2.1,10c2.2,9.1,4.4,18.1,6.9,27.1c2.6,9.7,5.6,19.4,7.5,29.3
		c0.7,4.6,1.1,9.2,0.9,13.9c-0.3,2-0.6,3.9-1.2,5.7c-0.3,0.7-0.7,1.5-1.1,2.2c0,0,0,0.1-0.1,0.1c-0.8,0.5-1.5,1-2.4,1.4
		c-6.4,2.7-12.9,4.8-19.5,6.8c-6.4,2-12.8,4-19.3,5.6c-7,1.8-14,3.7-21,5.2c-7.6,1.6-15.2,3.1-22.8,4.6c-15.7,2.6-31.5,5-47.2,7.5
		c-16.6,2.6-33.2,5.3-49.7,8.1c-18.5,3.1-36.9,6.3-55.3,9.7c-7.6,1.4-15.1,3-22.6,4.7c-7.8,1.8-15.6,3.5-23.4,5.3
		c-33.1,7.8-66.2,15.7-99.6,22.1c-9.1,1.8-18.2,3.6-27.3,5.3c-9.2,1.7-18.5,3.3-27.7,5c0.7-0.1,1.4-0.3,2.1-0.4
		c-17.3,3-34.7,5.9-52,8.8c-3.6,0.6-7.2,1.1-10.8,1.7c-4.2,0.6-8.4,1.4-12.6,1.9c-12.7,1.6-25.3,3.4-38.1,3.5
		c-2.5,0-5.1-0.1-7.6-0.3c-2.8-0.3-5.5-0.8-8.3-1.6c-0.5-0.2-1-0.5-1.5-0.8c-0.1-0.3-0.2-0.6-0.2-0.9c-1.2-8-2.2-16.1-3.4-24.1
		c-1.2-7.6-2.5-15.1-3.6-22.7c-2.5-16.6-5.2-33.2-7.2-49.9c-1-8.5-2.2-16.9-3-25.5c-0.8-8.5-1.6-17-2.5-25.5
		c-1.7-17.4-3.4-34.7-5.3-52.1c-1.6-15.7-3.3-31.4-5-47.1c-1.8-17.6-3.8-35.2-5.5-52.8c-2.4-25.1-4.9-50.2-7.1-75.3
		c-0.1-1.3-0.5-2.5-1.1-3.6c0.2-1.2,0.1-2.4-0.2-3.6c-0.1-0.5-0.2-1-0.3-1.5c-0.4-3-0.5-6-0.3-9.1c0.2-1.3,0.5-2.5,0.9-3.8
		c0.2-0.5,0.5-1,0.7-1.5c2.8-1,5.8-1.4,8.6-2c3-0.6,6-1.2,9-1.7c5.9-1.1,11.9-2.2,17.8-3.3c16-2.7,32.2-4.9,48.3-6.9
		c16.8-2,33.6-3.8,50.4-5.9c16.4-2,32.9-4.1,49.2-6.7c17.5-2.8,35-5.6,52.4-8.7c15.1-2.7,30.1-5.4,45.2-8
		c32.8-5.7,65.7-11.6,98.5-17.5c11.5-2,22.9-4,34.4-6c-0.7,0.1-1.4,0.3-2.1,0.4C984.4,812.3,1001.6,809.4,1018.7,806.7L1018.7,806.7
		L1018.7,806.7z M1096.6,802.2c0.1,0.1,0.3,0.3,0.4,0.5C1096.9,802.5,1096.8,802.3,1096.6,802.2L1096.6,802.2L1096.6,802.2z
		 M556.5,880.6c-0.2,0.2-0.4,0.3-0.6,0.5C556.1,880.9,556.3,880.8,556.5,880.6L556.5,880.6L556.5,880.6z M597.5,1279.3
		c0.2,0.3,0.4,0.5,0.7,0.8C597.9,1279.9,597.7,1279.6,597.5,1279.3L597.5,1279.3L597.5,1279.3z M609,1282.9c0.3,0,0.6,0.1,0.9,0.1
		C609.6,1282.9,609.3,1282.9,609,1282.9L609,1282.9L609,1282.9z"/>
	<path style="fill:#161616;" d="M1158.1,732.4c-5.7,0.9-11.3,1.9-17,3c-0.8,0.3-1.5,0.7-2,1.3c-0.8,0.9-1.3,2.2-1.3,3.4
		c0,1.3,0.6,2.5,1.5,3.3c0.8,0.8,2.3,1.5,3.4,1.3c5.2-0.9,10.5-1.7,15.7-2.5c1.3-0.2,2.4-0.5,3.4-1.6c0.9-1,1.3-2.2,1.3-3.5
		c0-1.3-0.6-2.5-1.6-3.4c-0.7-0.7-2-1.3-3.1-1.3C1158.4,732.4,1158.3,732.4,1158.1,732.4L1158.1,732.4L1158.1,732.4z"/>
	<path style="fill:#161616;" d="M1116.8,854c-8.6,1.1-17.1,3-25.6,4.6c-8.2,1.5-16.4,3.1-24.6,4.7c-16.3,3.1-32.6,6.1-48.9,9.1
		c-19.5,3.6-39,7.2-58.5,10.6c0.1,0,0.3,0,0.4-0.1c-32.5,5.6-65.1,10.5-97.8,14.5c-34.7,4.2-69.3,8.5-104,13.3
		c-15.1,2.1-30.2,4.4-45.3,6.9c-9.9,1.6-19.9,3.1-29.7,5c-8.6,1.6-17.1,3.2-25.7,4.7c-12.7,2.3-25.3,4.7-37.9,7.3
		c-20.3,4.1-40.6,8.3-60.8,12.7c-1.9,0.4-3.7,2.2-4.6,3.8c-1,1.9-1.2,4.1-0.6,6.1c0.6,2,2,3.6,3.8,4.6c2,1.1,4,1,6.1,0.6
		c23.3-5,46.7-9.8,70-14.5c16.4-3.4,33-6.2,49.5-9.3c1.4-0.3,2.9-0.5,4.3-0.8c32.2-5.4,64.4-10.5,96.8-14.7
		c17.7-2.3,35.3-4.5,53-6.7c16.3-2,32.7-3.8,49-6c17.6-2.4,35.1-5,52.6-7.8c17.2-2.8,34.3-5.9,51.5-9c32.3-5.8,64.6-11.8,96.9-18
		c5.3-1,10.6-2,15.8-3c2.6-0.5,5.1-1,7.7-1.6c3-0.7,6-1.7,9-2.5c3.2-0.9,5.3-4.2,5.2-7.4c-0.1-3.6-3.3-7.2-7-7.2
		C1117.3,854,1117,854,1116.8,854L1116.8,854L1116.8,854z"/>
	<path style="fill:#161616;" d="M1129,949.7c-8.3,0.3-16.4,1.7-24.6,2.7c-8.1,1-16.2,2-24.3,3c-17.2,2.1-34.5,4.4-51.7,6.8
		c-16.4,2.3-32.7,4.6-49,7.2c-17,2.7-33.9,5.7-50.8,8.8c-23.4,4.2-46.8,8.4-70.3,12.6c0.7-0.1,1.4-0.3,2.1-0.4
		c-33.7,5.8-67.4,11.4-101.1,17.1c-15.7,2.6-31.4,5.2-47,8c0.2,0,0.3-0.1,0.5-0.1c-11.1,1.9-22.2,3.9-33.4,5.8
		c0.7-0.1,1.4-0.3,2.1-0.4c-15.1,2.6-30.2,5.3-45.3,8c-0.1,0-0.1,0-0.2,0c-0.2,0-0.4,0.1-0.6,0.1c-0.4,0.1-0.8,0.1-1.2,0.2
		c0.3-0.1,0.7-0.1,1-0.2c-17.4,3-34.8,6-52.2,9.1c0.5-0.1,0.9-0.2,1.4-0.2c-7,1.2-14.1,2.4-21.1,3.6c-0.7,0.1-1.4,0.2-2.1,0.4
		c-1.3,0.4-2.5,1.2-3.4,2.2c-1.4,1.5-2.2,3.6-2.1,5.8c0.1,2.1,1,4.1,2.6,5.5c1.4,1.3,3.8,2.5,5.8,2.1c7.6-1.3,15.2-2.6,22.9-3.9
		c-0.3,0.1-0.6,0.1-1,0.2c17.8-3.1,35.5-6.1,53.3-9.3c-0.7,0.1-1.4,0.3-2.1,0.4c15.5-2.7,31.1-5.4,46.6-8.2
		c-0.4,0.1-0.8,0.1-1.1,0.2c11.4-2,22.7-3.9,34.1-5.9c-0.4,0.1-0.9,0.2-1.3,0.2c33.2-5.8,66.4-11.2,99.6-16.9
		c34.3-5.8,68.6-11.8,102.8-18c14.5-2.6,29-5.2,43.6-7.8c32.7-5.5,65.6-10.3,98.5-14.4c11.9-1.5,23.8-3,35.7-4.5
		c5.6-0.7,11.1-1.4,16.7-2.1c6.6-0.8,13.2-1.5,19.6-3.3c3.2-0.9,5.3-4.2,5.2-7.4c-0.2-4-3.5-7.2-7.5-7.2
		C1129.2,949.7,1129.1,949.7,1129,949.7L1129,949.7L1129,949.7z M635.9,1028.9c-0.6,0.1-1.2,0.2-1.9,0.3
		C634.7,1029.1,635.3,1029,635.9,1028.9L635.9,1028.9L635.9,1028.9z M682.6,1036.8c-0.1,0-0.2,0-0.3,0c-0.1,0-0.2,0-0.3,0
		C682.2,1036.9,682.4,1036.9,682.6,1036.8L682.6,1036.8L682.6,1036.8z M586.7,1053.6c0.4-0.1,0.8-0.1,1.1-0.2
		C587.4,1053.4,587,1053.5,586.7,1053.6L586.7,1053.6L586.7,1053.6z M683.5,1036.7c0.2,0,0.4-0.1,0.7-0.1
		C683.9,1036.6,683.7,1036.6,683.5,1036.7L683.5,1036.7L683.5,1036.7z M635.2,1029c0,0,0.1,0,0.1,0c0.3-0.1,0.6-0.1,0.8-0.2
		c0,0,0.1,0,0.1,0C635.9,1028.9,635.5,1029,635.2,1029L635.2,1029L635.2,1029z"/>
	<path style="fill:#161616;" d="M1149.3,1056.5c-8.1,0.4-16.1,1.8-24.2,3c-7.7,1.2-15.4,2.3-23.1,3.5c-15.4,2.3-30.8,4.4-46.2,6.6
		c-31.3,4.4-62.7,8.5-93.9,13.4c-31.4,5-62.8,10.4-94.3,15.1c-32.1,4.7-64.2,9.2-96.3,13.8c-33.9,4.8-67.8,9.6-101.7,14.6
		c-15.1,2.3-30.2,4.4-45.3,6.6c-6.8,1-13.6,1.7-20.4,2.6c-10.3,1.3-20.7,2.6-31.1,3.7c-3.6,0.4-6.5,3.1-6.4,6.9
		c0.1,3.4,3.3,6.8,6.9,6.4c10.8-1.2,21.7-2.5,32.5-3.9c6.8-0.8,13.5-1.6,20.2-2.5c16.6-2.4,33.2-4.7,49.8-7.1
		c32.3-4.7,64.6-9.2,96.9-13.5c32.8-4.4,65.6-8.9,98.4-13.5c31.2-4.4,62.2-9.8,93.3-14.3c32.1-4.6,64.2-8.8,96.3-13.1
		c14.9-2,29.9-4,44.8-6.2c7.4-1.1,14.7-2.2,22.1-3.3c3.6-0.5,7.3-1.1,10.9-1.6c4.5-0.6,8.9-1.2,13.3-2.3c3.3-0.8,5.4-4.3,5.3-7.5
		c-0.2-4-3.5-7.3-7.5-7.3C1149.6,1056.5,1149.4,1056.5,1149.3,1056.5L1149.3,1056.5L1149.3,1056.5z"/>
	<path style="fill:#161616;" d="M1157.2,1128.1c-14.9,2.1-29.8,4.7-44.7,7.1c-14.3,2.3-28.7,4.4-43.1,6.6c-14.6,2.3-29.3,4.7-43.9,7
		c-14.6,2.3-29.2,4.5-43.8,6.9c-12.5,2.1-25,4.1-37.5,6.3c0.1,0,0.2,0,0.3-0.1c-6.4,1.1-12.8,2.3-19.3,3.4c0.1,0,0.2,0,0.3-0.1
		c-0.1,0-0.2,0-0.4,0.1c-0.1,0-0.2,0-0.3,0.1c-0.1,0-0.3,0.1-0.4,0.1c0.3,0,0.5-0.1,0.8-0.1c-0.5,0.1-1,0.2-1.6,0.3
		c-0.7,0.1-1.4,0.2-2,0.4c-0.2,0-0.4,0.1-0.5,0.1c-1.4,0.2-2.8,0.4-4.2,0.7c0,0,0,0,0,0c-0.3,0.1-0.6,0.1-0.9,0.2
		c-1.2,0.1-2.5,0.4-3.7,0.6c-0.6,0.1-1.3,0.2-1.9,0.3c-0.1,0-0.2,0-0.3,0.1c-0.3,0.1-0.6,0.1-1,0.2c-1.8,0.3-3.7,0.6-5.5,1
		c0.6-0.1,1.3-0.2,1.9-0.3c-0.6,0.1-1.2,0.2-1.8,0.3c-0.3,0-0.6,0.1-0.9,0.1c0,0,0,0,0.1,0c-0.1,0-0.1,0-0.2,0
		c-0.4,0.1-0.8,0.1-1.1,0.2c0.5-0.1,1-0.2,1.5-0.3c0.1,0,0.1,0,0.2,0c-29.3,5-58.7,9.9-88.1,14.1c-13.7,2-27.4,3.9-41.1,5.8
		c-4.8,0.7-9.6,1.4-14.4,2.1c-7,1.1-14,2.1-20.9,3.2c0.1,0,0.2,0,0.4-0.1c-28.5,5-57,10.1-85.5,15.3c0.4-0.1,0.8-0.1,1.2-0.2
		c-11.7,2-23.4,4-35.2,5.8c-5.4,0.8-10.9,1.7-16.3,2.4c-8.2,1-16.4,2-24.5,2.9c-3.1,0.3-5.6,2.7-5.5,5.9c0.1,2.9,2.8,5.8,5.9,5.5
		c9.1-1,18.3-2.1,27.4-3.1c7.8-0.9,15.6-2.2,23.4-3.3c7.6-1.1,15.2-2.4,22.8-3.7c7.2-1.2,14.4-2.4,21.6-3.6
		c13.4-2.3,26.9-4.7,40.3-6.9c8.4-1.4,16.7-2.7,25.1-4.1c8.3-1.4,16.7-2.4,25.1-3.6c13.3-1.9,26.6-3.5,39.9-5.3
		c16.5-2.2,33-4.5,49.5-6.9c14.9-2.1,29.6-4.6,44.4-7c4.6-0.7,9.1-1.5,13.7-2.2c0.5,0,1.1-0.1,1.6-0.3c1-0.2,2-0.3,3-0.5
		c0.5,0,1.1-0.1,1.6-0.3c0.1,0,0.2,0,0.3-0.1c0.5,0,0.9-0.1,1.4-0.2c1-0.2,2-0.3,3-0.5c0.5,0,1-0.1,1.4-0.2c6.1-1,12.1-2,18.2-3
		c13.6-2.3,27.3-4.6,41-6.6c14.9-2.2,29.7-4.4,44.6-6.6c14.8-2.3,29.6-4.6,44.4-6.8c14.7-2.2,29.4-4.2,44.1-6.6
		c6.6-1.1,13.1-2.2,19.7-3.2c7-1.1,14.1-2.1,21.1-3.3c0.7-0.1,1.4-0.3,2.1-0.4c1.3-0.4,2.5-1.2,3.4-2.2c1.4-1.5,2.2-3.6,2.1-5.7
		c-0.1-2.1-1-4.1-2.5-5.5c-1.3-1.2-3.2-2.1-5-2.1C1157.7,1128.1,1157.4,1128.1,1157.2,1128.1L1157.2,1128.1L1157.2,1128.1z
		 M925,1165.4c-0.3,0-0.5,0.1-0.8,0.1c0,0,0.1,0,0.1,0C924.6,1165.5,924.8,1165.5,925,1165.4L925,1165.4L925,1165.4z M924.5,1165.5
		c-0.1,0-0.2,0-0.3,0.1C924.3,1165.6,924.4,1165.5,924.5,1165.5C924.5,1165.5,924.5,1165.5,924.5,1165.5c-0.2,0-0.3,0-0.4,0.1
		c0,0,0,0,0,0c0,0,0,0,0,0c0,0,0,0,0,0c0,0,0,0,0,0c0,0,0.1,0,0.1,0C924.4,1165.5,924.5,1165.5,924.5,1165.5L924.5,1165.5
		L924.5,1165.5z M924.1,1165.6c0,0-0.1,0-0.1,0c0,0-0.1,0-0.1,0C924,1165.6,924.1,1165.6,924.1,1165.6L924.1,1165.6L924.1,1165.6z
		 M924,1165.6C924,1165.6,924,1165.6,924,1165.6C924,1165.6,924,1165.6,924,1165.6C924,1165.6,924,1165.6,924,1165.6L924,1165.6
		L924,1165.6z M923.9,1165.6C923.9,1165.6,923.9,1165.6,923.9,1165.6c-0.2,0-0.3,0-0.3,0.1C923.7,1165.7,923.8,1165.6,923.9,1165.6
		L923.9,1165.6L923.9,1165.6z M923.7,1165.7C923.7,1165.7,923.7,1165.7,923.7,1165.7c-0.2,0-0.5,0.1-0.7,0.1
		C923.3,1165.7,923.5,1165.7,923.7,1165.7C923.7,1165.7,923.7,1165.7,923.7,1165.7L923.7,1165.7L923.7,1165.7z M908.1,1168.4
		c-0.1,0-0.1,0-0.2,0C908,1168.4,908,1168.4,908.1,1168.4L908.1,1168.4L908.1,1168.4z M903.1,1169.3c0,0-0.1,0-0.1,0
		c0.2,0,0.3-0.1,0.5-0.1C903.3,1169.2,903.2,1169.2,903.1,1169.3L903.1,1169.3L903.1,1169.3z M924.2,1165.6
		C924.2,1165.6,924.2,1165.6,924.2,1165.6C924.2,1165.6,924.2,1165.6,924.2,1165.6C924.2,1165.6,924.2,1165.6,924.2,1165.6
		C924.2,1165.6,924.2,1165.6,924.2,1165.6L924.2,1165.6L924.2,1165.6z M925.3,1165.4C925.3,1165.4,925.3,1165.4,925.3,1165.4
		C925.3,1165.4,925.3,1165.4,925.3,1165.4C925.3,1165.4,925.3,1165.4,925.3,1165.4L925.3,1165.4L925.3,1165.4z M944.6,1162
		c0.5-0.1,1.1-0.2,1.6-0.3C945.7,1161.8,945.1,1161.9,944.6,1162L944.6,1162L944.6,1162z"/>
	<path style="fill:#161616;" d="M646.6,866.3c-4.1,1.3-6.1,5.6-5,9.7c1.4,5.1,2.8,10.2,4,15.3c1,4.5,2,9.1,3.1,13.6
		c1.7,7.5,3.4,14.9,5,22.3c1.3,8.5,2.6,17.1,3.8,25.6c1.1,7.2,2.3,14.4,3.2,21.7c1.2,10.6,2.4,21.1,3.7,31.7c1,8.5,1.5,17,2.2,25.5
		c1.4,15.9,2.3,31.8,3.5,47.7c1.3,17.2,2.5,34.4,4.2,51.5s3.2,34.3,5.2,51.4c1.1,9.1,2.2,18.1,3.4,27.2c1.2,8.8,2.7,17.5,4.3,26.2
		c1.3,7.4,2.7,14.9,4,22.3c0.7,3.7,1.4,7.4,2.1,11.1c0.7,3.8,1.2,7.9,2.6,11.5c0.8,1.9,1.9,3.5,3.8,4.5c1.8,1,4,1.2,6,0.5
		c1.9-0.6,3.5-2,4.5-3.8c1.1-2,1-3.9,0.5-6c-3.4-17.8-6.7-35.6-9.9-53.5c-5.5-33.7-8.6-67.9-11.7-101.9c-3.1-34.6-5.2-69.3-8.3-104
		c-0.7-7.8-1.6-15.6-2.5-23.5c-0.9-7.7-1.6-15.4-2.8-23.1c-1.7-11.1-3.4-22.3-5-33.4c-0.5-3.7-1.1-7.3-1.7-11
		c-0.5-3-1.2-5.9-1.9-8.9c-1.8-7.9-3.5-15.7-5.3-23.6c-0.6-2.6-1.2-5.3-1.8-7.9c-1.1-4.7-2.4-9.3-3.7-14c-0.9-3.3-4.2-5.3-7.4-5.3
		C648.1,866,647.4,866.1,646.6,866.3L646.6,866.3L646.6,866.3z"/>
	<path style="fill:#161616;" d="M787.2,852c-3.7,0.1-7,3.4-6.7,7.2c0.9,10.8,2.3,21.5,3.5,32.2c0.8,6.8,1.8,13.5,2.9,20.3
		c2.7,17.5,5.4,35,8.1,52.5c2.5,16.2,4.6,32.4,6.8,48.7c2.2,16.2,4.2,32.5,6.3,48.7c4,32.2,7,64.5,10,96.8
		c1.3,14.4,2.9,28.9,4.1,43.3c0.6,7,1,14,1.7,21c0.7,7.9,1.5,15.8,2.9,23.6c0.4,1.3,1.1,2.4,2.1,3.3c1.5,1.4,3.5,2.1,5.5,2
		c2-0.1,3.9-1,5.3-2.4c1.5-1.6,1.9-3.4,2-5.5c0.3-4.1-0.3-8.1-0.9-12.2c-0.5-3.6-0.9-7.1-1.2-10.7c-0.7-7.4-1.3-14.9-2-22.3
		c-1.6-16.8-3.5-33.5-5.1-50.2c-1.6-15.6-3.1-31.2-4.8-46.8c-1.9-17-4-34-6.2-51c-4.2-31.5-8.5-63-13.5-94.4
		c-2.6-16.6-5.2-33.1-7.8-49.7c-0.9-5.8-1.7-11.6-2.4-17.5c-1.2-10.1-2.5-20.1-3.3-30.3c-0.3-3.7-3.2-6.6-6.9-6.6
		C787.4,852,787.3,852,787.2,852L787.2,852L787.2,852z"/>
	<path style="fill:#161616;" d="M933.8,824.5c-3.8,0.2-7.2,3.5-6.9,7.4c1.7,22.2,3.6,44.5,5.5,66.7c0.7,8.6,1.8,17.1,2.6,25.6
		c0.8,7.4,1.6,14.7,2.4,22.1c3.9,33.8,7.4,67.7,10.8,101.5c1.6,16,3.2,32.1,5,48.1c0.9,7.6,1.8,15.2,2.5,22.8c0.8,9,1.5,18,2.2,27.1
		c0.9,12.7,1.5,25.5,2,38.3c0.3,6.2,0.5,12.5,0.8,18.7c0.1,3,0.2,6.1,0.3,9.1c0.2,4.1,0.4,8.3,0.1,12.4c0.1,1.4,0.5,2.7,1.2,3.8
		c1.1,1.7,2.8,2.9,4.7,3.3c4,0.9,8.3-1.6,9.2-5.7c1.1-5.1,0.8-10.2,0.5-15.3c-0.2-4.2-0.4-8.4-0.5-12.6c-0.3-7.8-0.7-15.6-1.1-23.4
		c-0.9-16.3-1.8-32.6-3.4-48.8c-1.6-17-3.8-33.8-5.7-50.7c-1.9-16.8-3.6-33.7-5.3-50.5c-1.6-15.7-3.4-31.5-5.2-47.2
		c-1.8-15.5-3.8-31-5.4-46.5c-1.4-13.2-2.9-26.5-4-39.7c-1.7-19.9-3.4-39.7-4.9-59.6c-0.3-3.8-3.3-6.9-7.1-6.9
		C934,824.5,933.9,824.5,933.8,824.5L933.8,824.5L933.8,824.5z"/>
	<path style="fill:#161616;" d="M1055.2,804.8c-3.8,0.2-7.4,3.7-7.1,7.6c3.7,38.8,7.6,77.6,11.5,116.5c1.5,14.6,2.8,29.2,4,43.8
		c1.3,16.1,2.5,32.2,3.8,48.3c0.7,8.3,1.3,16.5,2.2,24.7c0.5,4.9,1,9.7,1.6,14.6c0.4,3.9,1.1,7.9,1.7,11.8
		c1.1,7.6,2.5,15.1,3.8,22.7c0.8,4.6,1.6,9.2,2.4,13.8c0.7,3.8,1.1,7.7,1.7,11.5c1.7,11.8,2.7,23.7,3.6,35.6
		c0.5,6.3,0.9,12.5,1.2,18.8c0.2,2.9,0.3,5.7,0.5,8.6c-0.1,0-0.1,0-0.2,0c-3.5,1.1-5.5,5-4.4,8.6c0.7,2.3,1.4,4.6,2.2,6.8
		c0.7,2.2,1.9,4,3.3,5.8c0.7,1.1,1.7,2,2.9,2.6c1.2,0.6,2.5,0.9,3.9,0.9c2.6-0.1,5.3-1.6,6.5-4c0.6-1.2,1.1-2.4,1.5-3.7
		c0.5-1.4,0.6-2.8,0.7-4.3c0-1.6,0-3.1-0.1-4.7c-0.1-2.1-0.2-4.2-0.3-6.2c-0.2-4.1-0.5-8.1-0.7-12.2c-0.4-7.6-1-15.2-1.7-22.8
		c-0.8-8.5-1.7-17.1-2.6-25.6c-0.5-4.3-1.3-8.7-1.9-13c-0.6-4.1-1.4-8.2-2.1-12.2c-1.3-7.2-2.5-14.3-3.8-21.5
		c-1.1-7.4-2.4-14.8-3.2-22.2c-0.9-8.3-1.8-16.6-2.5-24.9c-1.4-16-2.6-31.9-4-47.9c-1.5-17.4-3.2-34.9-4.8-52.3
		c-1.4-14.3-3-28.6-4.5-42.9c-2.5-25.2-5-50.3-7.4-75.5c-0.4-3.9-3.3-7.1-7.4-7.1C1055.4,804.8,1055.3,804.8,1055.2,804.8
		L1055.2,804.8L1055.2,804.8z"/>
	<path style="fill:#161616;" d="M727,1046.1c-1.7,1.1-2.9,2.8-3.4,4.8c-0.4,1.8-0.2,4.4,1,6c6.5,7.9,13,15.9,19.7,23.6
		c2.8,3.2,5.5,6.5,8.3,9.7c1.2,1.4,2.5,2.9,3.7,4.3c0.6,0.7,1.3,1.4,1.9,2.1c1.6,1.8,3.5,3.1,5.9,3.7c5.2,1.3,10.4-4,8.5-9.2
		c-1.3-3.6-4.1-6.3-6.6-9.2c-1.7-2-3.5-4-5.2-6c-3.3-3.8-6.6-7.6-9.9-11.4c-4.4-5.3-8.9-10.7-13.2-16c-1.3-1.6-2.6-2.9-4.8-3.4
		c-0.6-0.1-1.2-0.2-1.8-0.2C729.7,1044.9,728.2,1045.3,727,1046.1L727,1046.1L727,1046.1z"/>
	<path style="fill:#161616;" d="M761.5,1040.7c-3.5,4.5-6.8,9.3-10,14.1c-2.7,4-5.4,7.9-8.1,11.9c-3,4.1-6,8.2-9.1,12.2
		c-1.8,2.2-3.5,4.4-5.3,6.6c-0.8,1-1.7,2-2.4,3.1c-1.2,1.6-2,3-2.5,5c-0.3,1.2-0.3,3.2,0.1,4.3c0.4,0.9,0.8,1.8,1.3,2.7
		c1.4,2.5,4.9,3.5,7.5,2.7c2.9-0.9,5-4.1,4.5-7.1c2.5-3.5,4.8-7.2,7.3-10.7c2.9-4.2,5.8-8.5,8.7-12.8c2.5-3.8,4.9-7.7,7.4-11.6
		c1.2-1.9,2.3-3.8,3.6-5.6c1.3-1.9,2.7-3.8,4-5.7c0,0.1-0.1,0.1-0.1,0.2c0.4-0.6,0.9-1.2,1.3-1.8c0.9-1.2,1.5-2.4,1.5-4
		c0-1.5-0.7-2.9-1.8-3.9c-1-0.9-2.5-1.5-3.9-1.5C763.9,1039,762.4,1039.5,761.5,1040.7L761.5,1040.7L761.5,1040.7z M737.4,1096.2
		c-0.1,0.1-0.2,0.3-0.3,0.4C737.2,1096.5,737.3,1096.4,737.4,1096.2L737.4,1096.2L737.4,1096.2z M736.9,1097
		C736.9,1097,736.9,1097,736.9,1097c-0.1,0.2-0.3,0.4-0.4,0.6C736.6,1097.4,736.7,1097.2,736.9,1097L736.9,1097L736.9,1097z"/>
	<path style="fill:#161616;" d="M883.6,1018.3c-2.4,0.1-4.8,0.7-7.1,1.2c-2,0.5-3.8,1.2-5.6,2.1c-2,1-3.6,2.4-5.3,3.8
		c-3.4,0.2-6.5,2.6-7.2,6c-1.6,7.5-3.7,15.2-3.1,22.9c0.2,2,0.6,4.1,1.1,6.1c0.5,2,1.5,3.9,2.4,5.7c1.8,3.8,5.4,6.3,8.7,8.6
		c3.1,2.1,6.9,3.4,10.5,4.3c4.5,1.1,9.2,0.7,13.7-0.2c8.3-1.6,14.5-7.6,18.6-14.8c1.8-3.1,3-6.8,3.8-10.3c1-4.3,0.9-8.7,0-13
		c-0.7-3.6-2.3-7-4.4-10.1c-2.5-3.6-5.9-6.5-9.6-8.8c-1.7-1-3.8-1.8-5.6-2.4c-1.6-0.5-3.2-0.8-4.9-1c-1.5-0.2-3-0.3-4.5-0.3
		C884.5,1018.3,884.1,1018.3,883.6,1018.3L883.6,1018.3L883.6,1018.3z M886.8,1034.3c1.1,0.2,2.2,0.4,3.3,0.7c1.1,0.5,2.1,1,3,1.6
		c1,0.8,1.9,1.7,2.8,2.6c0.6,0.9,1.2,1.7,1.7,2.7c0.4,0.9,0.7,1.9,0.9,2.9c0.1,1.3,0.2,2.5,0.1,3.8c-0.3,1.9-0.7,3.7-1.3,5.6
		c-0.7,1.6-1.5,3.2-2.5,4.7c-0.8,1-1.6,1.9-2.5,2.7c-0.7,0.5-1.4,0.9-2.1,1.4c-0.9,0.3-1.8,0.6-2.7,0.8c-1.5,0.2-3,0.3-4.6,0.3
		c-1.4-0.2-2.7-0.5-4-1c-1.5-0.7-3-1.4-4.4-2.3c-0.6-0.5-1.1-0.9-1.6-1.4c-0.3-0.5-0.6-0.9-0.9-1.4c-0.4-1.1-0.7-2.2-1-3.4
		c-0.2-1.6-0.2-3.2-0.2-4.9c0.3-2.6,0.8-5.3,1.4-7.9c1.3-1.7,2.6-3.4,4.1-4.9c0.5-0.3,0.9-0.6,1.4-0.9c1.5-0.6,3.1-1,4.7-1.3
		C883.9,1034.3,885.4,1034.3,886.8,1034.3L886.8,1034.3L886.8,1034.3z M888.9,1063.5c-0.1,0-0.3,0-0.4,0.1
		C888.7,1063.5,888.8,1063.5,888.9,1063.5L888.9,1063.5L888.9,1063.5z"/>
	<path style="fill:#161616;" d="M997.8,999.4c-3.3,2.1-4.7,7-2.3,10.3c3,4.2,6.2,8.3,9.3,12.5c2.6,3.5,5.5,6.8,8.3,10.1
		c2.2,2.6,4.5,5.2,6.8,7.8c2.5,2.8,5,5.9,8,8.2c0.9,0.9,2,1.5,3.3,1.8c1.9,0.4,3.9,0.1,5.6-1c2.7-1.8,4-5.2,3-8.3
		c-1.1-3.4-3.8-5.8-6.2-8.3c-1.6-1.7-3.1-3.3-4.7-5c-3.3-3.6-6.4-7.3-9.6-11c-3.8-4.9-7.6-9.8-11.2-14.8c-1.5-2.2-3.9-3.5-6.4-3.5
		C1000.4,998.2,999,998.6,997.8,999.4L997.8,999.4L997.8,999.4z"/>
	<path style="fill:#161616;" d="M1033.7,995.9c-2,1.2-4.1,2.4-6.1,3.8c-2.6,1.8-4.9,4-7,6.3c-2.7,2.9-5,6.1-7.4,9.3
		c-2.9,3.9-5.9,7.7-8.8,11.6c-2.5,3.3-4.9,6.6-7.4,9.9c-1.1,1.4-2.1,2.9-3.2,4.3c-0.9,1.2-1.7,2.4-2.5,3.7c-0.8,1.4-1.3,2.9-1.8,4.4
		c-0.3,1.3-0.2,2.5,0.2,3.8c0.6,1.8,1.8,3.3,3.5,4.2c1.1,0.6,2.4,0.9,3.6,0.8c1.7-0.1,3.9-0.8,5-2.3c1.4-1.9,2.8-3.7,4.1-5.6
		c1-1.4,1.9-2.9,2.9-4.3c2-2.9,4-5.7,6-8.6c2.1-2.9,4.2-5.8,6.4-8.7c4.1-5.5,7.9-11.2,13-15.8c2.3-1.8,4.7-3.2,7.2-4.7
		c3.3-2,4.2-6.6,2.2-9.8c-1.4-2.1-3.7-3.3-6-3.3C1036.3,994.8,1034.9,995.1,1033.7,995.9L1033.7,995.9L1033.7,995.9z"/>
	<path style="fill:#161616;" d="M625.2,1069.6c-3.7,0.8-7.1,2.2-10.2,4.2c-2.9,1.8-5.4,4.4-7.8,6.8c-1.4,1.4-2,3.3-2,5.1
		c-1.3,2.7-2.6,5.4-3.8,8.2c-0.7,1.6-1.4,3.3-1.8,5.1c-0.4,1.9-0.4,4.1-0.2,6.1c0.8,7.5,5.8,14.4,11.9,18.4
		c5.6,3.6,12.5,5.2,19.1,4.1c7.3-1.3,14.2-5,18.7-11.1c2.3-3.1,4-6.4,5.3-10.1c1.3-3.7,1.9-7.5,2-11.5c0.1-3.7-0.8-7.7-2.2-11.1
		c-1.5-3.6-3.8-6.7-6.7-9.3c-4.4-3.9-10.1-5.5-15.8-5.5C629.5,1068.9,627.4,1069.1,625.2,1069.6L625.2,1069.6L625.2,1069.6z
		 M632.7,1084.7c0.8,0.1,1.6,0.3,2.4,0.5c0.6,0.3,1.2,0.6,1.7,0.9c0.5,0.4,0.9,0.8,1.3,1.2c0.5,0.7,0.9,1.4,1.4,2.1
		c0.4,1,0.7,2,0.9,3c0.2,1.5,0.2,3,0.1,4.5c-0.3,1.7-0.7,3.3-1.2,5c-0.7,1.7-1.5,3.2-2.5,4.8c-0.7,0.9-1.4,1.7-2.2,2.4
		c-1,0.7-2,1.4-3.1,1.9c-1.2,0.5-2.4,0.9-3.7,1.2c-1,0.1-2,0.1-3,0.1c-1.1-0.2-2.2-0.4-3.2-0.7c-0.9-0.4-1.8-0.9-2.7-1.4
		c-0.8-0.6-1.5-1.3-2.2-2c-0.7-1-1.4-2-2-3.1c-0.2-0.6-0.4-1.1-0.5-1.7c0-0.6-0.1-1.2,0-1.8c0-0.1,0.1-0.3,0.1-0.4
		c1.3-3,2.7-6,4.1-9c0.4-0.8,0.7-1.7,0.8-2.6c1.7-1.3,3.3-2.5,5.2-3.5c1.4-0.6,2.9-1,4.4-1.3
		C630.1,1084.8,631.4,1084.7,632.7,1084.7L632.7,1084.7L632.7,1084.7z M614.8,1100.1c-0.1,0.2-0.2,0.5-0.3,0.7
		C614.6,1100.6,614.7,1100.4,614.8,1100.1L614.8,1100.1L614.8,1100.1z"/>
	<path style="fill:#161616;" d="M984.3,903.7c-2.4,1.5-3.4,5.1-1.6,7.5c3.7,5,7.5,9.9,11.3,14.9c2.8,3.6,5.9,7.1,8.9,10.5
		c2.7,3.1,5.4,6.2,8.2,9.3c1.3,1.5,2.6,3,4,4.3c0.8,0.8,1.5,1.6,2.4,2.3c1.2,1,2.5,2,3.8,2.8c0.9,0.5,2,0.7,3,0.7
		c1.6-0.1,3.1-0.8,4.1-1.9c1.7-1.9,2.2-5.1,0.6-7.2c-1.9-2.5-4.2-4.5-6.5-6.7c-2.1-2-4.3-3.9-6.3-6c-1.9-2-3.9-3.9-5.7-5.9
		c-2.2-2.4-4.4-4.8-6.5-7.2c-4.1-5.2-8.2-10.4-12.2-15.7c-1.1-1.5-2.9-2.5-4.7-2.5C986.2,902.9,985.2,903.1,984.3,903.7L984.3,903.7
		L984.3,903.7z"/>
	<path style="fill:#161616;" d="M1022.1,902.5c-4.5,7.4-9.3,14.7-14.1,21.9c-3.7,5-7.4,10-11.2,14.9c-4.3,5.3-8.8,10.5-13.2,15.7
		c-2.4,2.9-2.5,7.2,0.4,9.8c2.8,2.6,7.2,2.4,9.9-0.4c7.1-7.4,13.1-15.8,19.2-24.1c3.1-4.3,6.3-8.6,9.2-13.1
		c3.9-6.1,7.9-12.2,11.6-18.4c1.9-3.1,0.3-7.4-2.7-9c-1-0.5-2-0.8-3-0.8C1025.6,899,1023.4,900.4,1022.1,902.5L1022.1,902.5
		L1022.1,902.5z"/>
	<path style="fill:#161616;" d="M885.6,917.2c-4.5,0.4-9.1,1.7-12.9,4.3c-1.8,1.3-3.4,2.8-4.7,4.6c-1-0.1-2,0-3,0.3
		c-1.7,0.5-3.6,1.9-4.3,3.6c-1.6,3.9-3.1,7.9-4.6,11.8c-1,2.5-1.6,4.8-1.7,7.5c-0.1,2.3,0.2,4.6,0.7,6.8c1,4.4,3.1,9,6.4,12.2
		c3,3,6.8,4.9,10.8,6.2c4.2,1.4,8.5,2.1,12.9,2.2c4.5,0.2,9.3-0.8,13.5-2.4c4.3-1.7,7.8-4.4,10.6-8c2.7-3.4,4.4-7.2,5.8-11.3
		c1.6-4.6,1.3-9.9,0.2-14.6c-0.9-4.1-2.6-8-5.1-11.4c-2.8-3.8-6.4-6.8-10.6-9.1c-2.1-1.1-4.4-1.8-6.7-2.4c-1.4-0.4-2.9-0.5-4.4-0.5
		C887.5,917.1,886.5,917.1,885.6,917.2L885.6,917.2L885.6,917.2z M888.8,932.9c0.8,0.1,1.5,0.3,2.3,0.5c1,0.4,1.9,0.9,2.8,1.5
		c1.1,0.8,2,1.7,3,2.7c0.7,1,1.4,2,2,3c0.6,1.4,1,2.9,1.3,4.4c0.1,1.3,0.2,2.5,0.2,3.8c-0.2,1.1-0.5,2.2-0.8,3.2
		c-0.6,1.5-1.4,3-2.3,4.4c-0.6,0.8-1.3,1.5-2,2.2c-0.5,0.3-0.9,0.6-1.4,0.9c-1.6,0.6-3.2,1.1-4.8,1.5c-2,0.3-4,0.4-6.1,0.3
		c-2.3-0.3-4.5-0.8-6.6-1.5c-1.2-0.5-2.4-1.1-3.5-1.7c-0.4-0.3-0.7-0.6-1.1-1c-0.5-0.7-0.9-1.3-1.3-2.1c-0.4-1-0.7-2-1-3
		c-0.1-1-0.2-2.1-0.2-3.1c0.1-0.4,0.2-0.8,0.3-1.2c1.7-0.6,3.1-1.8,4.1-3.4c1.3-2.3,2.8-4.5,4.2-6.6c0.8-1,1.6-1.9,2.4-2.7
		c0.5-0.4,1-0.7,1.6-1c1.2-0.4,2.4-0.7,3.6-1C886.6,933,887.7,932.9,888.8,932.9L888.8,932.9L888.8,932.9z"/>
	<path style="fill:#161616;" d="M712.9,951.2c-2.4,2.5-2.4,7.1,0.4,9.4c6.3,5.3,12.7,10.5,19.1,15.6c5.8,4.7,11.6,9.3,17.7,13.6
		c1.4,1,3.8,1,5.3,0.5c1.7-0.5,3.1-1.8,4-3.3c0.9-1.6,1-3.6,0.5-5.3c-0.5-1.7-1.6-2.7-2.9-3.7c0.1,0,0.1,0.1,0.2,0.1
		c-12-8.6-23.5-17.8-34.9-27.2c-1.4-1.1-3-1.7-4.7-1.7C715.9,949.1,714.2,949.7,712.9,951.2L712.9,951.2L712.9,951.2z M755.8,977
		c0.2,0.1,0.3,0.2,0.5,0.4C756.1,977.3,755.9,977.1,755.8,977L755.8,977L755.8,977z"/>
	<path style="fill:#161616;" d="M755.5,939.1c-1.8,0.1-4.2,0.9-5.3,2.5c-6.8,9.3-13.6,18.5-20.5,27.7c-2.7,3.7-5.4,7.3-8.2,11
		c-3.2,4.3-6.2,8.7-8.9,13.4c-1.6,2.8-0.9,6.5,1.5,8.6c1.4,1.3,3.3,2,5.1,1.9c1.7-0.1,3.9-0.8,5-2.3c5.5-7.4,11.2-14.8,16.7-22.2
		c6.8-9.2,13.6-18.5,20.4-27.8c1.3-1.7,2.1-3.3,2-5.5c-0.1-2-1-3.9-2.5-5.3c-1.4-1.3-3.3-2-5.2-2
		C755.7,939.1,755.6,939.1,755.5,939.1L755.5,939.1L755.5,939.1z"/>
	<path style="fill:#161616;" d="M615.9,961.2c-2.2,0.6-4.2,1.6-6,2.9c-1.6,1.2-2.8,2.6-3.2,4.6c-0.2,0.9-0.2,1.9-0.1,2.8
		c-0.1,0.1-0.2,0.2-0.3,0.2c-4.9,4.2-7.4,10.2-9,16.2c-1.9,7.1-2.1,15.1,0.7,21.9c3,7.3,10.5,10.8,17.7,12.8c3.8,1,7.8,1.1,11.7,0.4
		c3.6-0.7,6.9-2.2,9.9-4.2c2.9-1.9,5.5-4.5,7.5-7.3c1-1.4,1.9-2.8,2.7-4.3c1-1.9,1.7-4,2.3-6.1c0.5-1.8,0.7-3.8,0.8-5.6
		c0.1-2.1,0-4.2-0.2-6.3c-0.4-3.5-1.2-7.2-2.5-10.5c-2.8-7-8.5-12-15.3-14.9c-3.4-1.4-7.1-2.5-10.7-2.9c-1-0.1-2-0.2-3-0.2
		C618,960.8,617,960.9,615.9,961.2L615.9,961.2L615.9,961.2z M619.9,975.5c-0.2,0.1-0.4,0.2-0.5,0.3
		C619.6,975.7,619.8,975.6,619.9,975.5L619.9,975.5L619.9,975.5z M618.8,976.2c2.4,0.4,4.9,1,7.2,1.8c1.4,0.6,2.7,1.3,4,2.1
		c0.7,0.6,1.4,1.2,2.1,1.9c0.5,0.7,1,1.5,1.5,2.3c0.8,2,1.3,4.2,1.7,6.4c0.2,1.9,0.3,3.7,0.2,5.6c-0.2,1.3-0.5,2.5-0.9,3.7
		c-0.5,1.1-1.1,2.2-1.8,3.3c-1,1.2-2,2.4-3.1,3.4c-1,0.8-2.1,1.4-3.2,2.1c-1.1,0.4-2.1,0.8-3.2,1c-1.1,0.1-2.2,0.1-3.3,0.1
		c-1.9-0.3-3.7-0.7-5.5-1.2c-1.2-0.5-2.4-1.1-3.6-1.8c-0.4-0.3-0.7-0.6-1.1-0.9c-0.3-0.4-0.5-0.8-0.8-1.3c-0.4-1.1-0.7-2.1-1-3.2
		c-0.3-2.2-0.3-4.3-0.2-6.4c0.4-2.9,1-5.6,2-8.3c0.6-1.3,1.2-2.6,2-3.8c0.9-1.1,1.8-2.2,2.9-3.1c0.6-0.5,1-1.4,1.3-2.2
		c0.6-0.2,1.2-0.4,1.8-0.8c0.2-0.1,0.4-0.3,0.6-0.4C618.6,976.2,618.7,976.2,618.8,976.2C618.8,976.2,618.8,976.2,618.8,976.2
		L618.8,976.2L618.8,976.2z M618,976.2c-0.2,0-0.4,0.1-0.6,0.1C617.6,976.3,617.8,976.3,618,976.2L618,976.2L618,976.2z"/>
	<path style="fill:#161616;" d="M440.8,1235.5c-4.2,0.4-8.3,0.8-12.4,1.2c-8.2,0.9-16.3,2-24.5,3c-16.9,2.1-34,3.2-51,4.5
		c-16.5,1.3-33,2.6-49.5,3.5c-16.7,1-33.5,1.8-50.2,2.6c-15.2,0.7-30.5,1.4-45.7,2c-4.3,0.2-7.8,3.9-7.6,8.3
		c0.2,4.3,3.9,7.8,8.2,7.6c37.4-1.7,74.9-3,112.2-5.7c17.4-1.2,34.7-2.5,52-3.9c8.4-0.7,16.8-1.3,25.2-2.2c8.1-0.8,16.1-2,24.2-2.9
		c5.4-0.6,10.8-1.2,16.3-1.7c5.9-0.5,11.8-0.8,17.6-1.9c1.3-0.4,2.4-1.1,3.3-2.1c1.4-1.5,2.1-3.5,2-5.5c-0.2-4.4-3.8-7.3-8-7.4
		c-0.5,0-1,0-1.6,0C447.8,1234.9,444.3,1235.2,440.8,1235.5L440.8,1235.5L440.8,1235.5z"/>
	<path style="fill:#161616;" d="M1299.8,1142.4c-3.1,0.4-6.1,0.7-9.2,1c-6.3,0.6-12.6,1.1-19,1.7c-13.9,1.2-27.7,2.2-41.6,3.2
		c-4.2,0.3-7.5,3.7-7.4,8c0.2,4.1,3.8,7.7,8,7.4c13.9-1,27.7-2,41.6-3.2c6.3-0.5,12.6-1,19-1.6c3.1-0.3,6.1-0.6,9.2-1
		c1.6-0.2,3.2-0.4,4.8-0.7c1.1-0.2,2.2-0.3,3.3-0.7c1.4-0.5,2.7-1.1,4-1.8c2-1.2,3.2-3.6,3.1-5.9c0-1.2-0.4-2.3-1-3.3
		c-1-1.6-2.4-2.3-4.1-2.9c-1.5-0.5-3-0.7-4.6-0.7C1303.9,1141.8,1301.8,1142.1,1299.8,1142.4L1299.8,1142.4L1299.8,1142.4z"/>
	<path style="fill:#161616;" d="M1836.9,1103.8c-29.5,4-59.2,6.8-88.8,10.1c-1.8,0.2-3.4,0.8-4.6,2.1c-1.2,1.3-1.8,3-1.8,4.8
		c0.1,3.4,3.3,6.8,6.9,6.4c16-1.8,32.1-3.4,48.1-5c7-0.7,14-1.3,21-2c3.8-0.3,7.6-0.7,11.3-1c1.8-0.2,3.5-0.3,5.3-0.5
		c0.8-0.1,1.6-0.2,2.5-0.3c0.5-0.1,1-0.2,1.5-0.3c1-0.1,1.9-0.3,2.8-0.5c0.8-0.4,1.6-0.8,2.4-1.2c2.2-1.1,3.4-3.9,3.3-6.3
		c-0.1-3-2.4-6.1-5.5-6.6c-0.8-0.1-1.5-0.2-2.3-0.2c0,0-0.1,0-0.1,0C1838.3,1103.4,1837.6,1103.6,1836.9,1103.8L1836.9,1103.8
		L1836.9,1103.8z"/>
	<path style="fill:#161616;" d="M1828.6,1107.8c-1,0-1.9,0-2.9,0c-1.5,0-3,0.1-4.5,0.2c-3.5,0.2-7.1,0.4-10.6,0.7
		c-6.7,0.4-13.3,0.7-20,1c-14.9,0.7-29.8,1.4-44.7,2c-6.9,0.3-13.8,0.6-20.7,0.9c-3.7,0.2-6.6,3.3-6.5,7c0.2,3.7,3.3,6.6,7,6.5
		c17.3-0.8,34.6-1.5,52-2.3c6.2-0.3,12.5-0.5,18.7-0.8c7-0.3,14.1-0.4,21.1-0.9c4.6-0.3,9.2-0.7,13.7-1.6c0.4-0.1,0.8-0.1,1.2-0.1
		c2.7-0.3,5-1.9,5.6-4.6c0.3-1.1,0.2-2.2-0.1-3.2c-0.4-1.3-1.5-3-2.9-3.5c-1.2-0.5-2.3-1-3.7-1.1c-0.8-0.1-1.9-0.2-2.8-0.2
		C1828.7,1107.8,1828.7,1107.8,1828.6,1107.8L1828.6,1107.8L1828.6,1107.8z"/>
</g>
</svg>
