<?xml version="1.0" encoding="utf-8"?>
<!-- Generator: Adobe Illustrator 22.1.0, SVG Export Plug-In . SVG Version: 6.00 Build 0)  -->
<svg version="1.1" id="Layer_1" xmlns="http://www.w3.org/2000/svg" xmlns:xlink="http://www.w3.org/1999/xlink" x="0px" y="0px"
	 viewBox="0 0 2000 2000" style="enable-background:new 0 0 2000 2000;" xml:space="preserve">
<g>
	<path style="fill:#161616;" d="M926.7,1083.9c-2,2.6-4.2,4.9-6.6,7c0.1,0.2,0.3,0.5,0.4,0.7c3,5.1,5.9,10.3,9.3,15.2
		c1.7,2.4,3.6,4.7,5.7,6.8c0.8,0.7,2.5,1.4,3.5,1.6c1.2,0.2,2.5,0.1,3.7-0.1c1.6-0.3,3.1-0.8,4.5-1.4c1.5-0.7,3.1-1.4,4.6-2.1
		c2.9-1.3,5.9-2.7,8.9-3.9c3-1.2,6-2.2,9.1-3c2-0.4,4-0.7,6.1-0.9c2.1-0.3,4.3-0.2,6.4-0.1c0.8,0.1,1.7,0.2,2.5,0.3
		c1.2,0.2,2.4,0.5,3.5,0.8c1.5,0.5,2.9,1.1,4.3,1.9c0.3,0.2,0.6,0.5,0.9,0.7c0.4,0.5,0.8,1.1,1.1,1.7c0.4,1,0.8,1.9,1,2.9
		c0.1,0.8,0.2,1.5,0.2,2.3c-0.1,1.1-0.3,2.1-0.6,3.2c-0.4,1-0.9,1.9-1.4,2.8c-1.8,2.4-3.8,4.5-6,6.5c-3.5,3.1-7.2,6.2-10.4,9.8
		c-1.3,1.5-2.5,2.9-3.6,4.5c-1.9,2.8-3,5.8-4.1,9c-1.3,4.2-1.5,8.6-1.8,12.9c-0.1,1.3,0,2.3,0.7,3.4c0.7,1,1.7,1.6,2.9,1.9
		c2.4,0.4,4.9-1.2,5.3-3.6c0.6-3.5,1.1-7.1,2.2-10.5c0.8-2.4,1.7-4.7,3-6.8c2.1-2.9,4.6-5.5,7.2-7.9c2.5-2.2,5-4.4,7.5-6.7
		c2.2-2,4.2-4.2,5.9-6.7c1.1-1.6,2-3.3,2.6-5.1c0.6-1.9,1-3.8,1.2-5.8c0.3-3.7-0.4-7.5-1.9-10.9c-0.9-1.9-1.9-3.6-3.4-5.1
		c-1.2-1.3-2.6-2.2-4.1-3.1c-1.2-0.8-2.5-1.4-3.9-1.9c-2.4-1-4.9-1.8-7.5-2.2c-3.5-0.5-7.1-0.6-10.6-0.5c-3.4,0.1-6.9,0.9-10.2,1.7
		c-5.9,1.5-11.4,4.1-16.9,6.7c-1.7,0.8-3.3,1.7-5,2.4c-1.1-1.8-2.3-3.7-3.5-5.5c-2-3.2-4.1-6.4-6.2-9.6c-1.2-1.8-2.4-3.7-3.6-5.5
		C928.6,1082.3,927.7,1083.1,926.7,1083.9L926.7,1083.9L926.7,1083.9z M995.6,1115.1c0,0.1,0,0.2,0,0.3
		C995.6,1115.3,995.6,1115.2,995.6,1115.1L995.6,1115.1L995.6,1115.1z"/>
	<path style="fill:#161616;" d="M1090.7,927.4c-0.7,0.2-1.5,0.3-2.2,0.5c-1.3,4.5-3,8.7-5.2,12.6c0.4,0.2,0.7,0.4,1.1,0.6
		c1.9,1.4,3.5,2.8,5.1,4.5c1.8,2.1,3.4,4.3,4.8,6.6c1,2.2,1.7,4.4,2.3,6.7c1.4,6.8,2.1,13.7,2,20.7c-0.1,1.7-0.3,3.4-0.7,5.1
		c-0.3,1.6-0.8,3.1-1.2,4.6c-1,2.9-2.2,5.7-3.4,8.5c-1.3,3-2.9,6-4.3,8.9c-3,6.1-5.7,12.2-7.9,18.6c-2.3,6.7-4.3,13.8-4.7,20.9
		c-0.3,4.2,0.6,8.7,3.2,12c1.7,2.1,3.9,3.5,6.3,4.6c2.4,1.2,5.1,2,7.8,2.4c2.3,0.3,4.8,0.5,7.1,0.3c2.3-0.1,4.6-0.8,6.8-1.4
		c2.3-0.6,4.6-1.7,6.8-2.8c2.8-1.4,5.5-3,8-4.9c1.7-1.3,3.3-2.8,4.8-4.3c2.3-2.1,4.2-4.5,6.1-6.9c2.3-2.9,4.4-6.1,6.3-9.3
		c1.8-3,3.4-6,5-9.1c1.7-3.3,2.9-6.8,4-10.2c0.9-2.9,1.6-5.9,2.1-8.9c0.5-3.6,0.6-7.4,0.5-11.1c-0.1-3.4-0.3-6.8-1-10.2
		c-0.7-3.9-1.8-7.6-3.1-11.4c-1.2-3.5-3.2-6.7-5.1-9.9c-3.4-5.8-7.7-11.2-12.2-16.2c-4.7-5.3-10.2-9.9-15.9-14.1
		c-3.1-2.3-6.6-4.1-10.1-5.5c-3.5-1.4-7.5-2.3-11.3-2.3C1091.8,927.4,1091.2,927.4,1090.7,927.4L1090.7,927.4L1090.7,927.4z
		 M1093.8,1050.4c-0.9-0.4-1.7-0.8-2.6-1.2c-0.1-0.2-0.2-0.4-0.2-0.6c0-0.3-0.1-0.6-0.1-0.9c0.5-6.3,2.2-12.5,4.1-18.4
		c2.2-6.3,5-12.3,7.9-18.4c3-6.3,6-12.8,7.7-19.7c2-8.2,1.7-16.8,0.2-25c-1.3-7.4-2.9-14.8-7.1-21.1c-0.3-0.5-0.7-1-1-1.5
		c1,0.5,1.9,1.1,2.9,1.7c6,4.3,11.4,9.1,16.4,14.4c4.6,5.6,8.8,11.4,12.3,17.7c1.5,3.3,2.5,6.5,3.5,9.9c0.5,2.6,0.8,5.2,1,7.9
		c0.2,2.5,0.1,5.1,0,7.6c-0.2,1.9-0.4,3.7-0.8,5.6c-0.4,1.6-0.8,3.1-1.3,4.7c-1.9,5.1-4.4,9.9-7.2,14.4c0,0,0,0,0,0
		c-0.2,0.4-0.5,0.7-0.7,1.1c-0.1,0.1-0.1,0.2-0.2,0.3c-0.1,0.1-0.1,0.2-0.2,0.2c-0.2,0.3-0.4,0.7-0.7,1c0.1-0.1,0.1-0.2,0.2-0.3
		c0.1-0.2,0.3-0.4,0.4-0.6c-0.2,0.3-0.4,0.5-0.5,0.8c0,0,0-0.1,0.1-0.1c-2.8,4.3-6.1,8.2-9.7,11.9c-2.4,2.1-4.9,4-7.7,5.6
		c-2.7,1.3-5.6,2.5-8.5,3.3c-1.3,0.2-2.6,0.3-3.9,0.3C1096.7,1050.9,1095.2,1050.7,1093.8,1050.4L1093.8,1050.4L1093.8,1050.4z
		 M1129.3,1027.8c-0.2,0.3-0.4,0.7-0.6,1C1128.8,1028.5,1129,1028.1,1129.3,1027.8L1129.3,1027.8L1129.3,1027.8z M1095.5,1028
		c-0.1,0.2-0.1,0.4-0.2,0.6C1095.3,1028.4,1095.4,1028.2,1095.5,1028L1095.5,1028L1095.5,1028z M1090.9,1048.8
		c0.1,0.1,0.1,0.2,0.2,0.3c0,0,0,0,0,0C1091,1049,1090.9,1048.9,1090.9,1048.8L1090.9,1048.8L1090.9,1048.8z M1091.3,1049.4
		c0.2,0.1,0.3,0.2,0.5,0.3C1091.6,1049.6,1091.5,1049.5,1091.3,1049.4L1091.3,1049.4L1091.3,1049.4z"/>
	<path style="fill:#161616;" d="M1129.5,1027.4C1129.5,1027.4,1129.5,1027.4,1129.5,1027.4
		C1129.5,1027.4,1129.5,1027.4,1129.5,1027.4L1129.5,1027.4L1129.5,1027.4z"/>
	<path style="fill:#161616;" d="M1129.4,1027.5C1129.5,1027.5,1129.5,1027.5,1129.4,1027.5
		C1129.5,1027.5,1129.5,1027.5,1129.4,1027.5L1129.4,1027.5L1129.4,1027.5z"/>
	<path style="fill:#161616;" d="M1128.7,1028.6C1128.7,1028.6,1128.7,1028.6,1128.7,1028.6
		C1128.7,1028.6,1128.7,1028.6,1128.7,1028.6C1128.7,1028.6,1128.7,1028.6,1128.7,1028.6L1128.7,1028.6L1128.7,1028.6z"/>
	<path style="fill:#161616;" d="M1128.7,1028.7C1128.7,1028.7,1128.7,1028.6,1128.7,1028.7
		C1128.7,1028.6,1128.7,1028.7,1128.7,1028.7L1128.7,1028.7L1128.7,1028.7z"/>
	<path style="fill:#161616;" d="M1128.6,1028.8c0,0,0.1-0.1,0.1-0.1C1128.6,1028.7,1128.6,1028.8,1128.6,1028.8L1128.6,1028.8
		L1128.6,1028.8z"/>
	<path style="fill:#161616;" d="M1128.3,1029.2C1128.4,1029.2,1128.4,1029.2,1128.3,1029.2c0-0.1,0.1-0.1,0.1-0.1
		C1128.4,1029.1,1128.4,1029.2,1128.3,1029.2L1128.3,1029.2L1128.3,1029.2z"/>
	<path style="fill:#161616;" d="M1136.8,961.3c-2.2,0.8-3.7,3.5-2.7,5.8c3.6,8.5,7.9,16.6,11.8,25c1.8,3.8,3.5,7.8,4.8,11.8
		c1.4,4.1,2.5,8.4,3.5,12.6c1.1,5.7,1.9,11.3,2.6,17.1c0.6,5.4,0.8,10.7,0.7,16.1c-0.4,5.8-1.1,11.5-2.6,17.1
		c-0.4,1-0.9,1.9-1.4,2.8c-1.3,1.7-2.7,3.2-4.2,4.6c-1.8,1.5-3.7,2.9-5.7,4.1c-2,1-4.2,1.8-6.3,2.4c-1,0.1-2.1,0.2-3.1,0.2
		c-0.7-0.1-1.3-0.2-2-0.4c-0.9-0.4-1.8-0.8-2.6-1.2c-0.2-0.1-0.3-0.3-0.5-0.4c-0.4-0.6-0.8-1.2-1.2-1.8c-0.9-2-1.5-4.1-2-6.3
		c-0.3-1.8-0.6-3.6-0.8-5.5c-0.3-2.7-0.8-5.4-0.8-8.2c0-0.5,0.1-1,0.2-1.5c0.2-1.5,0-2.9-0.9-4.1c-0.8-1.2-2-2-3.4-2.2
		c-1.4-0.3-3,0.1-4.1,0.9c-1.2,0.9-1.8,2-2.2,3.5c-0.5,1.8-1,3.6-1.2,5.5c-0.2,1.4-0.2,2.8-0.2,4.3c0,1.5,0.1,3.1,0.3,4.6
		c0.4,3.5,1.3,6.9,2.3,10.3c0.9,2.9,2.3,5.9,4.2,8.3c2.8,3.7,7.3,5.5,11.6,6.8c1.8,0.5,3.9,0.5,5.8,0.5c2,0,3.8-0.4,5.8-0.9
		c1.5-0.3,2.9-0.8,4.3-1.3c4-1.5,7.6-3.7,11-6.3c5.3-4.1,9.6-9.5,11.3-16.1c0.8-3,1.4-6,1.7-9.1c0.2-1.6,0.3-3.1,0.5-4.7
		c0.2-2.1,0.2-4.3,0.3-6.4c0-1.3,0-2.7-0.1-4c-0.1-1.6-0.1-3.2-0.3-4.8c-0.3-3.1-0.7-6.2-1.2-9.3c-1.1-6.8-2.5-13.6-4.5-20.2
		c-1.8-5.9-4-11.6-6.8-17.1c-2.9-5.8-6.2-11.2-9.4-16.8c-0.8-1.4-1.6-2.8-2.3-4.2c-1.4-2.9-2.9-5.9-4.1-8.9c-0.8-1.8-2.4-3-4.3-3
		C1137.9,961,1137.4,961.1,1136.8,961.3L1136.8,961.3L1136.8,961.3z"/>
	<path style="fill:#161616;" d="M1157.1,1008c-1.9,2.3-1.8,6.2,0.7,8.1c2.6,2,5.3,4,7.6,6.3c1.6,1.9,2.8,4,4.1,6.2
		c1.7,3.5,3.3,7.1,4.6,10.9c1.2,3.7,2.3,7.5,3.2,11.3c0.7,4.2,1.3,8.3,1.6,12.5c0.2,2.4,0.3,4.8,0.3,7.3c0,1.9,0,3.7-0.1,5.6
		c-0.4,4.4-0.9,8.8-2.2,13.1c-0.7,1.8-1.4,3.6-2.3,5.2c-0.8,1.1-1.7,2.1-2.6,3.1c-1.8,1.4-3.7,2.7-5.7,3.8c-1.7,0.8-3.4,1.5-5.2,2
		c-1.5,0.3-3,0.4-4.6,0.4c-0.8-0.1-1.5-0.2-2.3-0.4c-0.5-0.2-0.9-0.4-1.4-0.6c-0.3-0.4-0.5-0.7-0.8-1.1c-0.6-1.5-1.1-3-1.5-4.6
		c-0.2-1-0.3-1.9-0.3-2.9c-0.2-2.7-2.3-5-5-5.5c-3.3-0.6-6.6,1.6-7.2,4.9c-0.8,4.3-0.7,8.6,0.8,12.7c1.6,4.3,5.2,7.7,9.3,9.5
		c4.2,1.8,9.1,2.1,13.6,1.7c2-0.2,3.9-0.7,5.8-1.3c1.5-0.4,2.9-1,4.3-1.6c5.3-2.3,10.4-5.8,13.9-10.5c4.1-5.5,5.8-12.5,6.7-19.3
		c0.5-4.1,0.6-8.2,0.6-12.3c0-3.5-0.4-7-0.7-10.5c-0.4-3.7-1-7.5-1.8-11.1c-0.8-3.3-1.7-6.6-2.9-9.8c-1.3-3.5-2.5-7.1-4.2-10.5
		c-1.9-3.9-3.9-7.8-6.3-11.5c-3.1-4.7-7.6-8.1-12-11.5c-1.1-0.9-2.5-1.3-3.8-1.3C1159.8,1006.1,1158.3,1006.7,1157.1,1008
		L1157.1,1008L1157.1,1008z M1153.4,1103c0.1,0.1,0.2,0.1,0.3,0.2C1153.6,1103.2,1153.5,1103.1,1153.4,1103L1153.4,1103L1153.4,1103
		z"/>
	<path style="fill:#161616;" d="M1185,1052.3c-2,1.4-2.7,4.4-1.1,6.5c2.2,2.9,4.4,5.9,6.9,8.6c2.3,2.5,4.8,4.7,7.4,7
		c4.7,4.2,9.4,8.5,13.7,13.1c3.7,4.3,6.7,8.9,9.4,13.8c2.4,4.9,4.5,10,6,15.3c-0.2,0.1-0.5,0.2-0.7,0.3c-0.6,0.1-1.2,0.1-1.8,0.2
		c-4.1-0.4-8-1.6-11.9-2.9c-2.3-0.8-4.7-1.6-7-2.6c-2.2-0.9-4.3-2.1-6.3-3.4c-1.8-1.2-3.6-2.6-5.3-4.1c-1-0.9-1.8-1.8-2.7-2.7
		c-0.9-1-1.8-1.8-2.7-2.8c-0.8-0.6-1.6-1-2.6-1.2c-1.5-0.3-3,0-4.3,0.9c-2,1.4-2.9,4.2-2,6.5c0.6,1.5,1.3,3.2,2.3,4.4
		c1.2,1.4,2.4,2.7,3.8,3.9c2.4,2,4.9,3.8,7.6,5.4c4.7,3,9.8,5,15,6.8c3.1,1,6.3,2.2,9.5,2.9c1.8,0.4,3.5,0.7,5.3,0.9
		c4.6,0.4,9.1-0.7,12.9-3.4c1.8-1.3,3.4-3.5,3.8-5.7c0.4-2.2,0-4.3-0.5-6.4c-0.3-1.4-0.7-2.7-1.2-4.1c-0.9-2.8-2-5.5-3.3-8.2
		c-2.2-4.6-4.8-8.9-7.8-13.1c-3-4.2-6.6-8-10.4-11.4c-3.4-3.1-7-5.9-10.6-8.8c-3.4-2.7-6.9-5.4-9.9-8.5c-1.7-2-3.3-4.1-4.9-6.2
		c-0.9-1.3-2.4-2-3.9-2C1186.8,1051.5,1185.8,1051.8,1185,1052.3L1185,1052.3L1185,1052.3z M1228.8,1115.5c-0.1,0.1-0.1,0.2-0.2,0.3
		c0,0,0,0,0,0C1228.7,1115.8,1228.7,1115.7,1228.8,1115.5L1228.8,1115.5L1228.8,1115.5z"/>
	<path style="fill:#161616;" d="M1174.6,1101.2c-1.4,1-2.4,2.6-2.8,4.3c-0.3,1.6,0,3.8,1.1,5.1c4.8,5.4,9.6,10.7,14,16.4
		c4.1,5.3,8,10.6,12,15.9c3.6,4.8,7.1,9.8,10.7,14.6c3.6,4.9,7.1,9.7,10,15c1.2,2.4,2.2,4.9,3,7.5c0,0.4,0.1,0.7,0.1,1.1
		c0,0.2-0.1,0.5-0.1,0.7c-0.1,0.2-0.2,0.4-0.3,0.6c-1.6,2.2-3.4,4.1-5.3,5.9c-10.8,9.6-22.5,18.4-34.1,26.9
		c-12.5,9.2-24.8,18.5-37.3,27.7c-6.9,5.1-13.9,10.4-21.3,14.8c-7.5,4.5-15.3,8.7-23.1,12.9c-4.4,2.3-8.9,4.5-13.4,6.6
		c-4.1,1.9-8.2,3.5-12.6,4.6c-1,0.2-1.9,0.3-2.9,0.4c-0.4-0.1-0.8-0.1-1.3-0.2c-1-0.4-2-0.9-3-1.5c-5.6-4-10.3-9-15-14
		c-4.9-5.4-9.6-10.9-14.1-16.6c-4.8-6.2-9.3-12.6-13.7-19.1c-8.4-12.5-16.1-25.5-23.8-38.4c-3.4-5.7-6.9-11.5-10-17.3
		c-1.8-3.4-3.5-6.9-5.3-10.3c-1.7-3.3-3.5-6.6-5.8-9.6c-2.2-2.8-6-3.7-9-1.6c-2.9,2-3.6,6.1-1.6,9c1.5,2.1,2.8,4.3,4,6.5
		c2.9,5.8,5.5,11.8,8.5,17.6c3.5,6.8,7.2,13.5,11,20.1c7.7,13.6,15.8,27,24.6,39.8c4.2,6.2,8.8,12.1,13.7,17.8
		c5.2,6.1,10.5,12.2,16.1,17.9c2.5,2.6,5.2,5.1,8,7.3c1.9,1.4,3.8,2.8,5.9,4c3.9,2.3,8.9,3.3,13.3,2.6c7.2-1.2,14-4,20.6-7
		c5.9-2.7,11.6-5.6,17.4-8.6c-0.2,0.1-0.4,0.2-0.6,0.3c1-0.5,2-1,3-1.5c-0.5,0.3-1.1,0.6-1.7,0.9c7-3.7,14-7.3,20.8-11.5
		c6.4-4,12.6-8.3,18.7-12.7c12.4-9,24.7-18.1,37.1-27.1c6.2-4.5,12.4-9,18.5-13.6c5.8-4.5,11.7-8.9,17.2-13.8c3-2.7,5.9-5.4,8.4-8.6
		c2.1-2.7,3.6-5.8,4.1-9.1c0.5-2.9,0.1-5.7-0.7-8.5c-1-3.7-2.7-7.1-4.5-10.4c-1.7-3.1-3.5-6-5.5-8.8c-3-4.2-6.3-8.2-9.5-12.3
		c-3.5-4.4-7-8.8-10.5-13.2c-3.5-4.4-7-8.7-10.6-13c-4.2-5-8.5-9.8-12.9-14.7c-1.2-1.4-2.4-2.4-4.3-2.8c-0.4-0.1-0.8-0.1-1.3-0.1
		C1177,1100,1175.7,1100.4,1174.6,1101.2L1174.6,1101.2L1174.6,1101.2z M991,1174.6c0.1,0.1,0.2,0.3,0.2,0.4
		C991.2,1174.8,991.1,1174.7,991,1174.6L991,1174.6L991,1174.6z M991.4,1175.2c0.2,0.3,0.3,0.6,0.5,0.9
		C991.7,1175.8,991.5,1175.5,991.4,1175.2L991.4,1175.2L991.4,1175.2z M1100.3,1271c-0.2,0.1-0.5,0.3-0.7,0.4
		C1099.8,1271.3,1100,1271.2,1100.3,1271L1100.3,1271L1100.3,1271z M1112.7,1280.7c0.4-0.2,0.7-0.4,1.1-0.6
		C1113.4,1280.3,1113,1280.5,1112.7,1280.7L1112.7,1280.7L1112.7,1280.7z"/>
	<path style="fill:#161616;" d="M917.8,1092.9c0,0.1,0,0.1,0,0.2c0,7.6,0.1,15.3,0.8,22.9c0.3,3.7,0.7,7.3,1.1,11
		c0.4,3.7,1.2,7.4,2,11.1c1.5,7.2,3.1,14.6,6,21.4c3,7.1,6.6,13.9,10.7,20.4c2.5,4,5.1,7.8,7.9,11.5c2.4,3.1,5,6.2,7,9.6
		c0.2,0.4,0.3,0.9,0.5,1.3c0.1,0.8,0.2,1.7,0.2,2.5c-0.5,5.4-2.1,10.6-3.6,15.8c-1.3,4.5-2.7,9-4,13.5c-1.3,4.4-2.7,8.8-4,13.2
		c4.2,2.1,8,4.8,11.5,8.1c1.4-3.2,2.7-6.4,4-9.6c2.8-7.3,5.4-14.7,7.8-22.1c1.1-3.4,2.2-6.9,3-10.4c0.8-3.5,1.3-7.1,1.2-10.7
		c-0.2-4.1-1.8-7.8-3.9-11.2c-1.8-2.9-4.1-5.5-6.2-8.1c-2.1-2.7-4.3-5.3-6.2-8.1c-3.8-5.5-7.3-11.2-10.5-17.1c-2-4.3-4-8.6-5.4-13.2
		c-1.4-4.7-2.7-9.3-3.8-14.1c-0.6-3-1.1-5.9-1.5-8.9c-0.5-3.2-0.7-6.5-1.1-9.7c-0.3-3.1-0.4-6.3-0.5-9.4c-0.2-3.5-0.1-7.1-0.1-10.6
		c0-3-2.8-5.4-5.6-5.8C922.6,1088.7,920.3,1090.9,917.8,1092.9L917.8,1092.9L917.8,1092.9z"/>
	<path style="fill:#161616;" d="M1053.6,1285.5c-1.3,3-2.8,5.8-4.3,8.7c-1.8,3.5-3.5,7.1-5.3,10.6c-1.8,3.6-3.8,7.2-5.9,10.7
		c4.2,3.3,8.3,6.9,12.2,10.7c0.5-0.9,1.1-1.8,1.6-2.7c3.2-5.4,6.1-10.9,8.9-16.5c1.4-2.8,2.7-5.5,4.1-8.3c1-2.1,2.3-4.2,3-6.4
		c0.8-2.1,1.1-4,0.3-6.2c-0.7-1.9-2.2-3.6-4-4.5c-1.1-0.5-2.2-0.8-3.4-0.8C1057.8,1281,1054.9,1282.6,1053.6,1285.5L1053.6,1285.5
		L1053.6,1285.5z"/>
	<path style="fill:#161616;" d="M1029.1,1175.8c-1.7,0-3.2,0.7-4.6,1.5c-1.3,0.7-2.4,1.9-3.3,3.1c-2,2.6-3.2,5.7-3.7,9
		c-0.5,3-0.3,6.2,0.1,9.3c0.5,3.3,1.3,6.5,2.5,9.6c1.1,3.1,2.8,6,4.3,8.9c2.1,3.9,4.4,7.7,6.8,11.4c1.2,1.8,2.6,3.5,3.9,5.1
		c3.1,3.8,6.4,7.4,10.4,10.2c2.6,1.8,5.3,3.2,8.3,4.1c3.1,0.9,6.6,1.4,9.6,0.2c2.9-1.2,4.8-4.4,4.8-7.5c0,0,0,0,0,0
		c0.5-0.3,1-0.6,1.6-1c1.8-1.1,3.5-2.7,4.8-4.4c1.4-1.9,2.3-4,3.1-6.3c0.9-2.5,1.7-5.1,2.2-7.7c0.5-2.8,0.6-5.6,0.5-8.4
		c-0.2-2.6-0.7-5.2-1.5-7.7c-0.7-2.4-1.9-4.8-3.3-6.9c-0.7-1.1-1.7-2-2.6-2.9c-1-0.9-2.1-1.8-3.3-2.4c-2.1-1.2-4.5-2-6.9-2.5
		c-2.7-0.5-5.3-0.3-7.9,0.5c-0.9,0.3-1.9,0.8-2.7,1.2c-1.1,0.5-2.1,1.1-3.1,1.8c0,0,0,0,0,0c-1.1-3-2.5-5.9-4.2-8.5
		c-1.7-2.5-3.9-4.6-6.3-6.3c-1.3-0.8-2.6-1.6-4-2.2c-1.6-0.7-3.3-0.9-5.1-0.9C1029.4,1175.8,1029.2,1175.8,1029.1,1175.8
		L1029.1,1175.8L1029.1,1175.8z M1030.1,1183.9c0.4,0,0.7,0.1,1.1,0.2c1,0.4,1.8,0.9,2.7,1.4c1.1,0.8,2,1.6,2.9,2.5
		c1.1,1.3,2,2.7,2.8,4.1c1.4,2.8,2.4,5.8,3.1,8.9c0,0.2,0.1,0.4,0.1,0.6c-0.6,1.4-1.1,3-1.5,4.5c-0.3,1.2-0.5,2.4-0.7,3.7
		c-1.1-0.7-2.1-1.5-3.2-2.2c-1.6-1.1-3.3-2.2-4.9-3.2c-2-1.3-4.1-2.8-6.4-3.6c-0.1-0.2-0.1-0.5-0.2-0.7c-0.5-2.5-0.8-5.1-0.7-7.6
		c0.1-1.3,0.3-2.5,0.6-3.8c0.4-1,0.8-1.8,1.3-2.7c0.4-0.5,0.7-0.9,1.1-1.4c0.3-0.2,0.5-0.4,0.8-0.5c0,0,0.1,0,0.1,0
		C1029.5,1183.9,1029.8,1183.9,1030.1,1183.9L1030.1,1183.9L1030.1,1183.9z M1025.7,1199c0.1,0.2,0.1,0.5,0.2,0.7
		C1025.9,1199.5,1025.8,1199.3,1025.7,1199L1025.7,1199L1025.7,1199z M1059.9,1200c0.9,0.1,1.7,0.3,2.6,0.5c0.8,0.3,1.6,0.7,2.4,1.1
		c0.7,0.5,1.3,1.1,1.9,1.7c0.4,0.6,0.8,1.2,1.2,1.8c0.7,1.5,1.2,3,1.7,4.6c0.4,2.1,0.5,4.1,0.5,6.2c-0.2,2.2-0.6,4.3-1.2,6.3
		c-0.7,2-1.4,3.9-2.4,5.7c-0.3,0.4-0.7,0.8-1,1.2c-0.7,0.6-1.5,1.2-2.3,1.7c-0.8-1-1.7-2-2.5-3.1c-1.6-1.9-3.3-3.7-5-5.5
		c-1.5-1.6-3.2-3.1-4.8-4.6c-0.1-0.1-0.1-0.1-0.2-0.2c0.7-1.7,0.9-3.5,1.1-5.3c0.2-2.4,0.2-4.7,0-7.1c0.1-0.3,0.3-0.5,0.4-0.7
		c0.5-0.7,1-1.4,1.6-2c0.7-0.5,1.4-1,2.1-1.5c0.9-0.4,1.8-0.8,2.7-1C1059,1200,1059.4,1200,1059.9,1200L1059.9,1200L1059.9,1200z
		 M1061.6,1200.2c0.1,0,0.2,0.1,0.4,0.1C1061.8,1200.3,1061.7,1200.2,1061.6,1200.2L1061.6,1200.2L1061.6,1200.2z M1051.8,1204.9
		c0,0.1-0.1,0.1-0.1,0.2c0,0,0,0,0,0C1051.7,1205.1,1051.8,1205,1051.8,1204.9L1051.8,1204.9L1051.8,1204.9z M1026.6,1207.4
		C1026.6,1207.4,1026.6,1207.4,1026.6,1207.4C1026.6,1207.4,1026.6,1207.4,1026.6,1207.4C1026.6,1207.4,1026.6,1207.4,1026.6,1207.4
		L1026.6,1207.4L1026.6,1207.4z M1035.9,1220.2c-2.2-3.5-4.4-7.1-6.4-10.8c3.5,2.4,6.8,5,10.1,7.7c0.8,0.6,1.5,1.3,2.3,1.9
		c0.3,0.4,0.7,0.8,1,1.2c0.3,0.3,0.6,0.5,1,0.7c2.1,2,4,4,6.1,6.1c2,2.3,4,4.7,5.8,7.2c-0.8,1.8-0.4,3.7,0.7,5.1
		c-0.3-0.1-0.6-0.1-0.8-0.2c-1.8-0.7-3.5-1.6-5.1-2.6c-2.4-1.7-4.5-3.7-6.5-5.8C1041,1227.3,1038.2,1223.9,1035.9,1220.2
		L1035.9,1220.2L1035.9,1220.2z M1043.9,1230.6c0.2,0.2,0.4,0.4,0.6,0.7C1044.3,1231,1044.1,1230.8,1043.9,1230.6L1043.9,1230.6
		L1043.9,1230.6z"/>
	<path style="fill:#161616;" d="M1056,1141.8c-1.6,0.6-2.7,1.8-3.6,3.2c-2,3.1-2.5,6.8-2.7,10.5c-0.3,6.7,2.3,13.3,5.6,18.9
		c0.8,1.4,1.7,2.9,2.5,4.3c1.2,2,2.7,3.7,4.3,5.4c1.8,2,3.8,3.9,5.9,5.5c1.7,1.3,3.3,2.6,5.1,3.7c1.3,0.9,3,1.6,4.6,2
		c2.2,0.5,4.3,0.3,6.5-0.4c1.8-0.6,3.4-2,4.7-3.3c1.1-1.2,2-2.7,2.6-4.2c1.5-3.3,1.8-7,1.9-10.5c0.1-2.6,0.1-5.2,0.1-7.9
		c0-2.1-1.9-3.9-3.8-4.3c-1.2-0.2-2.5,0-3.6,0.8c-0.9,0.6-1.8,1.8-1.9,3c-0.2,1.8-0.3,3.5-0.5,5.2c-0.3,2.6-0.5,5.2-1.2,7.8
		c-0.3,0.7-0.6,1.4-1,2.1c-0.3,0.4-0.6,0.7-0.9,1.1c-0.1,0-0.1,0.1-0.2,0.1c0,0,0,0-0.1,0c-0.1,0-0.2,0-0.3,0c-0.1,0-0.1,0-0.2,0
		c-1.1-0.4-2.1-1-3.1-1.6c-1.3-0.9-2.6-1.9-3.8-2.9c0.8-0.4,1.5-1.1,1.8-1.9c0.6-1.7,0.9-3.2,1-5c0.1-1.8,0-3.5-0.3-5.2
		c-0.5-3.7-1.7-7.4-3-10.9c-1.2-3.1-2.8-6.1-4.5-8.9c-0.8-1.2-1.6-2.4-2.6-3.5c-0.5-0.6-1-1.1-1.6-1.6c-0.9-0.7-1.8-1.1-2.9-1.4
		c-0.8-0.3-1.7-0.4-2.6-0.4C1057.4,1141.5,1056.7,1141.6,1056,1141.8L1056,1141.8L1056,1141.8z M1058,1150.2c0.1,0,0.1,0,0.2,0.1
		C1058.2,1150.2,1058.1,1150.2,1058,1150.2L1058,1150.2L1058,1150.2z M1059.4,1151.4c1.3,1.6,2.3,3.3,3.3,5.1
		c1.8,3.6,3.2,7.3,4.1,11.2c0.3,1.8,0.5,3.7,0.5,5.5c-0.1,0.5-0.2,1-0.3,1.5c-2-2.6-3.8-5.4-5.4-8.3c-1.1-2.1-1.9-4.3-2.5-6.6
		c-0.3-1.8-0.4-3.6-0.4-5.4C1058.9,1153.4,1059.1,1152.4,1059.4,1151.4L1059.4,1151.4L1059.4,1151.4z M1067.2,1174.6
		c0,0.1,0,0.1-0.1,0.2h0C1067.1,1174.7,1067.2,1174.7,1067.2,1174.6L1067.2,1174.6L1067.2,1174.6z M1081.3,1184.3
		c-0.2,0.1-0.4,0.2-0.5,0.3C1080.9,1184.5,1081.1,1184.4,1081.3,1184.3L1081.3,1184.3L1081.3,1184.3z M1079.2,1184.5
		c0.1,0,0.2,0.1,0.4,0.1C1079.4,1184.6,1079.3,1184.6,1079.2,1184.5L1079.2,1184.5L1079.2,1184.5z"/>
	<path style="fill:#161616;" d="M1066.2,1115.7c-0.3,0.2-0.7,0.4-1,0.5c-0.4,0.4-0.8,0.8-1.3,1.2c-0.7,0.7-1.2,1.8-1.6,2.6
		c-0.8,1.7-1.1,3.6-1.2,5.4c-0.1,1.8,0,3.5,0.3,5.4c0.5,2.9,1.2,5.9,2.3,8.6c2,4.9,4.4,9.7,7.7,13.9c1.4,1.9,2.9,3.7,4.7,5.2
		c1.7,1.4,3.5,2.5,5.6,3.3c0.9,0.3,1.8,0.6,2.8,0.9c1.4,0.4,2.9,0.4,4.3,0.3c1.5-0.1,3.1-0.5,4.5-1.2c0.8-0.4,1.5-0.7,2.2-1.2
		c0.9-0.6,1.6-1.4,2.3-2c2.3-2.1,3.4-5.1,4.2-8.1c0.8-3.1,0.9-6.4,0.7-9.5c-0.3-5.3-1.7-10.3-3.4-15.3c-0.2-0.5-0.3-1-0.5-1.5
		c-0.6-1.8-2.5-2.9-4.4-2.8c-1.1,0.1-2.2,0.6-2.9,1.5c-0.7,0.8-1.2,2.1-1,3.1c0.4,1.9,0.7,3.7,1.1,5.6c0.7,3.8,0.9,7.7,0.8,11.5
		c-0.2,1.7-0.5,3.4-1,5.1c-0.2,0.6-0.5,1.3-0.8,1.9c-0.2,0.2-0.3,0.4-0.5,0.6c-0.4,0.4-0.9,0.7-1.4,1.1c-0.3,0.1-0.6,0.2-0.9,0.3
		c-0.2,0-0.5,0-0.7,0.1c-0.7-0.1-1.4-0.3-2.1-0.5c-0.2-0.1-0.5-0.2-0.7-0.3c0.3-0.1,0.6-0.3,0.9-0.5c0.8-0.5,1.5-1.5,1.6-2.5
		c0.2-2.2,0.2-4.4,0.3-6.6c0-3.6-0.6-7.1-1.6-10.6c-0.5-1.5-1-3-1.7-4.4c-1.2-2.4-2.6-4.5-4.5-6.5c-1.1-1.2-2.3-2.1-3.6-3
		c-0.5-0.3-1.1-0.7-1.6-1c-0.9-0.5-1.9-0.8-2.9-1.1c-0.5-0.2-1.1-0.2-1.7-0.2C1068.3,1115,1067.2,1115.2,1066.2,1115.7
		L1066.2,1115.7L1066.2,1115.7z M1070.6,1123.7C1070.6,1123.7,1070.6,1123.7,1070.6,1123.7
		C1070.6,1123.7,1070.6,1123.7,1070.6,1123.7C1070.6,1123.7,1070.6,1123.7,1070.6,1123.7C1070.6,1123.7,1070.6,1123.7,1070.6,1123.7
		L1070.6,1123.7L1070.6,1123.7z M1070.6,1124.2c0.4,0.2,0.9,0.4,1.3,0.7c0.9,0.7,1.7,1.4,2.5,2.2c0.9,1.1,1.6,2.2,2.3,3.4
		c0.9,2,1.6,4.1,2.1,6.2c0.6,3.3,0.5,6.6,0.4,10c0,0,0,0.1,0,0.1c-0.7-0.8-1.3-1.6-1.9-2.5c-1-1.4-1.9-3-2.8-4.5
		c-0.4-0.8-0.8-1.6-1.2-2.4c-1-2.3-1.9-4.7-2.5-7.2c-0.3-1.4-0.5-2.8-0.5-4.3C1070.4,1125.4,1070.5,1124.8,1070.6,1124.2
		L1070.6,1124.2L1070.6,1124.2z M1076.9,1130.9c0.1,0.1,0.1,0.2,0.2,0.3C1077,1131.1,1076.9,1131,1076.9,1130.9L1076.9,1130.9
		L1076.9,1130.9z M1079.2,1146.2c0,0.1,0,0.3,0,0.4C1079.2,1146.5,1079.2,1146.4,1079.2,1146.2L1079.2,1146.2L1079.2,1146.2z
		 M1079.2,1146.7c0,0,0,0.1,0,0.1c0,0,0,0,0,0C1079.2,1146.8,1079.2,1146.7,1079.2,1146.7L1079.2,1146.7L1079.2,1146.7z
		 M1084.2,1151.3c0.1,0,0.1,0,0.2,0.1C1084.3,1151.3,1084.2,1151.3,1084.2,1151.3C1084.2,1151.3,1084.2,1151.3,1084.2,1151.3
		L1084.2,1151.3L1084.2,1151.3z M1075.6,1117.3c0.1,0.1,0.3,0.2,0.4,0.3C1075.9,1117.4,1075.7,1117.3,1075.6,1117.3
		C1075.6,1117.2,1075.6,1117.2,1075.6,1117.3L1075.6,1117.3L1075.6,1117.3z M1075.5,1117.2c-0.1-0.1-0.3-0.2-0.4-0.3
		C1075.3,1117,1075.4,1117.1,1075.5,1117.2L1075.5,1117.2L1075.5,1117.2z"/>
	<path style="fill:#161616;" d="M1087.1,1073.4c-1.1,0.1-2.5,0.6-3.1,1.6c-0.8,1.2-1.5,2.3-2,3.7c-0.4,1-0.7,2.1-1.1,3.2
		c-0.9,2.4-1.8,4.7-2.8,7c-0.5,1.1-1,2.1-1.4,3.2c-0.8,1.6-1.7,3.4-1.6,5.3c0,1,0.2,2,0.8,2.8c0.5,0.6,1,1.1,1.5,1.7
		c1.6,1.7,3.2,3.4,4.8,5.1c0.3,0.3,0.6,0.6,0.9,1c-0.2-0.2-0.3-0.4-0.5-0.5c2,2.2,4,4.4,5.9,6.7c2.3,2.7,4.6,5.4,6.8,8.3
		c0.1,0.2,0.2,0.3,0.4,0.5c1.1,1.4,2.9,2.1,4.6,1.5c2-0.7,3.1-3,2.4-5.1c-0.7-1.9-2-3.5-3.3-5.1c-0.7-0.9-1.4-1.8-2.1-2.7
		c-1.5-1.9-3-3.8-4.6-5.6c-2.6-3.1-5.4-6.1-8.2-9.1c0.6-1.3,1.4-2.5,2-3.8c0.8-1.5,1.5-3,2.3-4.5c0.7-1.3,1.3-2.7,1.8-4.1
		c0.4-1.1,0.8-2.2,1.1-3.3c0.3-1,0.3-2.4,0.3-3.4c0-1.5-1.2-3.1-2.5-3.7c-0.6-0.3-1.3-0.5-1.9-0.5
		C1087.4,1073.4,1087.2,1073.4,1087.1,1073.4L1087.1,1073.4L1087.1,1073.4z M1082.6,1107.3c-0.1-0.1-0.2-0.2-0.3-0.3
		C1082.4,1107.1,1082.5,1107.2,1082.6,1107.3L1082.6,1107.3L1082.6,1107.3z M1082.4,1107.1c-0.1-0.1-0.1-0.2-0.2-0.2
		c-0.2-0.2-0.4-0.4-0.5-0.6C1081.9,1106.5,1082.2,1106.8,1082.4,1107.1L1082.4,1107.1L1082.4,1107.1z"/>
	<path style="fill:#161616;" d="M1141.7,1086.3c-1.5,0.5-2.5,1.5-3.4,2.6c0,0,0-0.1,0.1-0.1c-2.3,3-3.7,6.6-5.3,9.9
		c-1.5,3.2-3,6.5-4.4,9.8c-2.9,6.9-5.3,13.9-8.1,20.8c-5.3,13.6-10.8,27.2-15.7,40.9c-0.8,2.3-1.5,4.5-2.3,6.8
		c0-0.1,0.1-0.2,0.1-0.3c-0.3,1.1-0.7,2.1-1,3.2c0.2-0.6,0.4-1.2,0.6-1.8c-1.7,5.1-3.4,10.3-5,15.4c0.1-0.2,0.1-0.4,0.2-0.7
		c-0.1,0.4-0.3,0.8-0.4,1.2c-0.1,0.2-0.1,0.4-0.2,0.6c0-0.1,0.1-0.2,0.1-0.4c-1,2.9-1.9,5.7-2.8,8.6c0.1-0.4,0.3-0.9,0.4-1.3
		c-4.2,12.8-8.8,25.7-11.2,39c-1.3,6.6-2.5,13.3-3.2,20.1c-0.7,7.7-1.3,15.4-1.6,23.1c-0.1,1.5,1,3.1,2,4c1.2,1,2.7,1.5,4.3,1.4
		c1.5-0.1,3-0.9,4-2.1c1.1-1.3,1.3-2.7,1.4-4.3c0-0.2,0-0.4,0-0.6c0.5-8.9,1.2-17.9,2.9-26.6c0.9-4.7,1.8-9.3,3-14
		c1.2-4.6,2.5-9,3.8-13.5c4.4-13.2,9.3-26.2,13.8-39.3c4.9-14,10.3-27.7,16-41.4c1.7-4.2,3.5-8.3,5.2-12.4c1.9-4.6,3.6-9.2,5.5-13.8
		c1.8-4.5,3.7-8.8,5.8-13.2c1-2.1,2-4.2,3.1-6.3c0.4-0.9,0.9-1.8,1.3-2.7c1-2,1.3-4.1,1.1-6.3c-0.3-3.3-2.8-6.1-6-6.7
		c-0.5-0.1-0.9-0.1-1.4-0.1C1143.4,1085.9,1142.6,1086,1141.7,1086.3L1141.7,1086.3L1141.7,1086.3z M1099.6,1229.2
		c0,0.1-0.1,0.3-0.1,0.4C1099.5,1229.5,1099.6,1229.3,1099.6,1229.2L1099.6,1229.2L1099.6,1229.2z M1094.5,1201.7
		c0-0.1,0.1-0.3,0.1-0.4C1094.5,1201.5,1094.5,1201.6,1094.5,1201.7L1094.5,1201.7L1094.5,1201.7z M1096.9,1194.4
		c0-0.1,0-0.1,0.1-0.2c0.1-0.2,0.1-0.3,0.2-0.5C1097,1194,1096.9,1194.2,1096.9,1194.4L1096.9,1194.4L1096.9,1194.4z M1102.6,1176.9
		c0.2-0.5,0.3-1,0.5-1.5C1102.9,1175.9,1102.8,1176.4,1102.6,1176.9L1102.6,1176.9L1102.6,1176.9z"/>
	<path style="fill:#161616;" d="M1093.4,957.6c-4,8.5-8.2,16.9-12.3,25.3c-2.9,5.9-6,11.7-9.1,17.5c-6.3,11.9-12.8,23.7-19.2,35.5
		c-3.3,6.2-6.5,12.4-9.7,18.6c-1.3,2.5-2.5,5-3.8,7.6c-1.3,2.6-2.7,5.2-3.9,7.9c-1.8,3.9-3.6,7.8-5.4,11.7c-1.3,2.9-2.5,6-3.8,8.9
		c-2.4,5.7-4.5,11.5-6.5,17.4c-2.3,6.7-4.5,13.4-6.6,20.2c-2,6.5-3.8,13-5.7,19.5c-3.5,12.3-6.7,24.6-8.9,37.1
		c-0.6,3.7-1.3,7.4-1.6,11.1c-0.2,2.1-0.3,4.2-0.3,6.3c0,0.6,0,1.3,0,1.9c0.1,0.8,0.3,1.5,0.5,2.3c0.3,1.2,1.3,2.1,2.1,3
		c1.2,1.2,3.2,1.7,4.8,1.5c1.9-0.2,3.2-1,4.5-2.3c2.1-2,1.9-5.1,2-7.7c0.4-5.6,1.3-11.2,2.2-16.7c1-6.1,2.1-12.2,3.5-18.2
		c2.9-13,6.5-25.8,10.1-38.6c2.1-7.5,4.4-15,6.8-22.5c1-2.7,1.9-5.5,2.9-8.1c1.3-3.2,2.5-6.5,3.9-9.6c2.8-6.2,5.5-12.5,8.5-18.6
		c6-12.3,12.3-24.5,18.7-36.6c5.8-10.9,11.6-21.8,17.4-32.8c6.4-12.2,12.4-24.5,18.3-36.9c1.2-2.6,0.1-5.8-2.5-7
		c-0.7-0.3-1.5-0.5-2.2-0.5C1096.2,954.6,1094.2,955.7,1093.4,957.6L1093.4,957.6L1093.4,957.6z"/>
	<path style="fill:#161616;" d="M1053.7,918c-1.7,0.5-3.3,1.6-4.9,2.4c-7.9,4.2-15.7,8.6-23.4,13.2c-7.2,4.3-14.2,8.7-21.3,13
		c-6.7,4-13.4,8-20.2,12c-13.6,8.1-27.4,16-40.7,24.6c-6.6,4.3-13.2,8.6-19.7,13.1c-2.8,1.9-5.6,3.9-8.5,5.7
		c-2.3,1.5-4.7,2.8-7.1,4.3c-5.7,3.6-12.5,7.8-13.9,14.9c-1.2,6,2.5,11,6.1,15.3c2.7,3.2,5.4,6.4,7.5,9.9c1.4,2.8,2.4,5.7,3.2,8.7
		c0.5,2.8,0.8,5.6,0.7,8.4c-0.3,5.3-0.7,10.6,0.2,15.9c0.5,3.2,1.3,6.2,2.8,9.1c1.8,3.4,3.7,6.2,6.5,8.9c2.4,2.3,6.6,2.2,9.3,0.4
		c3.5-2.5,4-7.1,1.8-10.6c-0.2-0.3-0.4-0.6-0.6-1c0.1,0.2,0.2,0.4,0.3,0.5c-0.9-1.6-1.8-3.1-2.7-4.7c-0.5-1.2-1-2.3-1.4-3.5
		c-0.5-3-0.7-6-0.7-9.1c0.2-3.8,0.6-7.6,0.3-11.4c-0.4-5.1-1.8-10.2-3.8-14.9c-1.7-4.1-4.1-7.8-6.8-11.3c-2.1-2.6-4.4-5-6.3-7.7
		c2.8-2.3,6-4.3,9.1-6.2c2.5-1.5,5.1-3,7.6-4.6c3-2,5.9-4,8.8-6.1c13-9,26.5-17.2,40.1-25.4c12.6-7.6,25.4-15,38-22.6
		c13.4-8.1,26.7-16.4,40.5-23.9c-0.6,0.3-1.2,0.7-1.8,1c0.8-0.4,1.5-0.8,2.3-1.3c2.1,2.6,4.6,4.6,7.5,6.3c5.2,3.1,11.4,3.5,17.2,5.2
		c1.9,0.7,3.8,1.5,5.6,2.5c1.6,1.1,3.1,2.3,4.5,3.6c0.3,0.3,0.5,0.6,0.7,1c0.9,2,1.5,4,2.3,6.1c1.4,4.1,6.3,6.2,10.3,4.7
		c4.1-1.6,6.1-6.2,4.7-10.3c-0.7-1.9-1.3-3.8-2.1-5.7c-1.1-2.8-2.8-5.1-4.8-7.2c-2.3-2.4-5-4.3-7.8-6c-3-1.9-6.3-3-9.6-4
		c-3.6-1.1-7.3-1.7-10.9-2.7c-1-0.4-1.9-0.8-2.8-1.3c-0.6-0.4-1.1-0.9-1.6-1.3c-1.2-1.5-2.2-3.2-3.4-4.7c-1.1-1.3-2-2.3-3.6-3
		c-1.2-0.5-2.3-0.7-3.5-0.7C1056.3,917.4,1055,917.6,1053.7,918L1053.7,918L1053.7,918z"/>
	<path style="fill:#161616;" d="M1062.7,928.7c-1.5,2-2.9,4-4.6,5.9c-1.8,1.9-3.6,3.8-5.5,5.6c-5.2,4.6-10.6,8.9-16.1,13.1
		c-5.8,4.4-11.7,8.7-17.6,12.9c-12.1,8.5-24.3,16.9-36.9,24.6c-9.9,6-19.8,11.9-30,17.4c-3.8,1.9-7.6,3.7-11.5,5.4
		c-7.4,3.2-14.7,6.7-22.5,8.6c-2,0.4-4,0.8-6,1.2c-1.8,0.3-3.2,0.9-4.4,2.3c-1.1,1.3-1.6,3-1.5,4.8c0.3,3.3,3.6,6.5,7.1,5.9
		c4.9-0.9,9.8-1.9,14.6-3.5c3.8-1.3,7.6-2.8,11.3-4.4c3.7-1.6,7.5-3.1,11.2-4.8c7.2-3.3,14.3-6.8,21.2-10.7
		c13.1-7.3,26-14.7,38.5-22.9c11.7-7.6,23.2-15.3,34.4-23.7c5.8-4.4,11.5-8.8,16.8-13.7c2.5-2.4,5-4.8,7.3-7.3
		c2.8-3.1,5.5-6.7,6.3-10.9c0.6-3-1.1-6.2-3.9-7.5c-0.9-0.4-1.9-0.6-2.9-0.6C1065.9,926.2,1063.9,927.1,1062.7,928.7L1062.7,928.7
		L1062.7,928.7z M917.7,1022.2c-0.3,0.1-0.5,0.1-0.8,0.2C917.2,1022.3,917.5,1022.2,917.7,1022.2L917.7,1022.2L917.7,1022.2z"/>
	<path style="fill:#161616;" d="M1168.3,1111.9c-0.8,0.8-1.6,1.6-2.3,2.5c-0.8,1.1-1.5,2.2-2.3,3.3c-1.5,2.3-3,4.7-4.5,7.1
		c-3.3,5.3-6.5,10.6-9.3,16.2c-2.8,5.6-5.5,11.4-8.2,17.1c-2.5,5.5-5.1,11.1-7.5,16.7c-4.9,11.5-9.7,23.1-14.4,34.7
		c-2.4,6-4.8,11.9-7.2,18c-1.1,3-2.3,5.9-3.4,8.9c-0.6,1.7-1.3,3.3-1.9,5c-0.5,1.4-0.9,2.9-1.3,4.3c-2.6,8.9-4.6,17.9-6.7,27
		c-0.5,2.2,1.3,4.3,3.4,4.6c2.3,0.4,4.1-1.3,4.7-3.4c1-4.2,2.1-8.4,3.1-12.6c0.8-3,1.7-5.9,2.6-8.9c0,0.2-0.1,0.3-0.1,0.5
		c1-2.7,1.9-5.4,3-8c1.3-3,2.6-6.1,4-9.1c2.7-5.7,5.4-11.3,8.2-17c2.8-5.6,5.7-11.2,8.4-16.8c2.8-5.7,5.5-11.4,8.2-17.1
		c5.5-11.4,11.1-22.8,16.8-34.1c2.7-5.3,5.6-10.5,8.6-15.6c1.4-2.5,2.9-5,4.3-7.4c1.3-2.2,2.6-4.3,3.6-6.6c0.6-1.3,0.8-2.7,1.2-4.1
		c0.2-1.1,0-2.2-0.4-3.2c-0.6-1.6-1.8-2.8-3.3-3.5c-0.8-0.4-1.7-0.5-2.5-0.5C1171.4,1109.6,1169.6,1110.5,1168.3,1111.9
		L1168.3,1111.9L1168.3,1111.9z"/>
	<path style="fill:#161616;" d="M1078.6,941.5c-2.7,0.2-4.6,1.5-6.4,3.4c-0.5,0.5-0.8,1.1-1.1,1.7c-0.8,1.2-1.5,2.4-2.2,3.6
		c-1.8,3-3.5,6-5.4,9c-3.8,6.3-7.5,12.7-11.1,19.2c-7.2,13-13.8,26.4-20.9,39.4c-3.5,6.4-6.9,12.8-10.1,19.4
		c-2.7,5.6-5,11.4-7.6,17.1c-6.3,13.9-12.7,27.9-20.1,41.3c-1.6,3,0.3,6.9,3.2,8.3c1.5,0.7,3.2,0.7,4.8,0.1c1.6-0.6,2.6-1.8,3.5-3.3
		c7.8-14,14.6-28.5,21.6-43c3.5-7.3,7.1-14.6,10.9-21.8c3.5-6.7,7.6-13.2,11.4-19.7c3.3-5.7,6.3-11.6,9.5-17.4
		c3.1-5.6,6.2-11.3,9.5-16.8c3.5-5.9,7.1-11.9,10.6-17.8c1.5-2.5,3-5.1,4.4-7.6c1.6-2.9,3.3-5.7,2.7-9.2c-0.6-3.4-3.2-5.9-6.7-5.9
		C1079,941.5,1078.8,941.5,1078.6,941.5L1078.6,941.5L1078.6,941.5z"/>
	<path style="fill:#161616;" d="M940.6,1245.6c-2.1,7.8-4.2,15.6-6.4,23.4c-2.2,7.8-4.4,15.7-7.4,23.2c-3.1,7-7.2,13.5-11.8,19.7
		c-2.3,2.9-4.7,5.6-7.2,8.4c-1.7,1.9-3.3,3.7-5.1,5.4c-2.1,2-4.1,4.2-6.3,6c-2.2,1.9-4.4,3.8-6.7,5.6c-4.5,3.3-8.9,6.5-13.5,9.6
		c-5.2,3.5-10.4,6.7-15.7,9.9c-4.8,2.9-9.8,5.6-14.8,8.1c-2.5,1.3-4.9,2.6-7.5,3.7c-2.7,1.2-5.3,2.3-8,3.5c-2.8,1-5.5,2.1-8.2,3.1
		c-2.8,1-5.6,1.9-8.4,2.8c-5.5,1.8-11,3.2-16.6,4.5c-10.8,2.6-21.8,4.4-32.8,6c-6.7,0.8-13.4,1.6-20.1,2.4c-4,0.5-8.1,1.1-12.1,1.9
		c-2.8,0.5-5.7,1-8.5,1.8c-2.4,0-5.3,1.4-6.3,3.6c-0.1,0.1-0.1,0.2-0.2,0.3c-0.9,1.9-1.4,3.7-0.8,5.8c0.5,2,1.8,3.4,3.5,4.5
		c3.9,2.5,9.1,0.7,13.3-0.1c3.2-0.6,6.5-1.2,9.8-1.7c15.8-2,31.6-3.6,47.3-6.8c4.5-0.9,8.9-1.9,13.4-2.9c4.1-1,8.2-2.2,12.3-3.3
		c3.5-1,7.1-2.2,10.5-3.5c4.4-1.7,8.9-3.3,13.2-5.2c4-1.7,7.9-3.4,11.7-5.4c3.8-1.9,7.5-3.9,11.2-6c7.2-4.1,14.4-8.4,21.3-13
		c3.5-2.3,6.9-4.7,10.3-7.2c1.7-1.2,3.3-2.4,5-3.7c2.3-1.7,4.5-3.7,6.7-5.5c3.3-2.8,6.3-5.8,9.4-8.8c2.7-2.6,5.1-5.6,7.7-8.4
		c1.9-2.1,3.6-4.4,5.4-6.7c1.9-2.5,3.8-5.1,5.5-7.8c3.7-5.5,6.6-11.6,9-17.7c2.2-5.5,3.8-11.3,5.5-17c2.9-9.4,5.3-19,7.9-28.5
		c1.1-4.2-1.4-8.7-5.6-9.8c-0.7-0.2-1.4-0.3-2.1-0.3C944.9,1239.8,941.5,1242.1,940.6,1245.6L940.6,1245.6L940.6,1245.6z"/>
	<path style="fill:#161616;" d="M948.4,1244.2c-1.4,0.4-2.6,1.3-3.3,2.6c-0.7,1.2-1.1,3-0.6,4.3c4,9.9,8.7,19.5,14.7,28.4
		c1.3,2,2.8,3.8,4.2,5.7c1.2,1.6,2.4,3.2,3.6,4.7c4.6,5.6,9.3,11,14.3,16.3c2.7,2.9,5.4,5.8,8.2,8.7c2.5,2.6,5.3,5,8,7.3
		c3.1,2.7,6.5,5,9.8,7.2c4.8,3.2,10.4,5.3,16,6.8c2.5,0.7,5.1,1,7.7,1.3c2.5,0.3,5.2-0.1,7.7-0.6c0.3,0,0.5-0.1,0.8-0.2
		c-0.5,2.3-1,4.5-1.6,6.8c-0.8,3.3-1.6,6.6-2.5,9.9c-2,7.5-4,14.9-6.2,22.3c-4.1,14-8.5,27.8-13.2,41.6c-3.4,10-7.1,19.9-10.9,29.7
		c-3.5,8.9-7.2,17.6-10.9,26.4c-4.2,9.6-8.6,19.1-13.5,28.3c-2.4,4.5-5,9-7.8,13.2c-1.6,2.4-3.2,4.8-4.9,7.2c-1.5,2-3,4-4.5,6
		c-2.3,2.8-4.5,5.5-6.9,8.2c-1.6,1.8-3.3,3.7-5,5.4c-3.5,3.6-7.2,6.9-11.1,9.9c-4.2,3.1-8.5,6-13,8.7c-2.5,1.5-5.1,3.1-7.7,4.5
		c-2.7,1.4-5.4,3-8.2,4.3c-3,1.4-6,2.8-8.9,4.2c-6,2.5-12.1,4.9-18.3,6.9c-6.9,2.3-13.9,4.4-20.9,6c-7.1,1.7-14.2,3-21.3,4.2
		c-3.4,0.6-6.8,1-10.3,1.6c-3.9,0.7-7.7,1.8-11.1,3.8c-0.3,0.2-0.7,0.4-1,0.6c-2.9,1.8-4.5,5.3-3.5,8.7c0.5,1.9,1.8,3.6,3.5,4.6
		c1.6,1,4.1,1.5,5.9,0.8c3.3-1.3,6.7-2.3,10.1-3c3.4-0.6,6.9-1.1,10.4-1.6c7-1.1,14-2.5,20.9-4.1c7.1-1.7,14-3.7,20.9-6
		c7-2.3,13.9-5,20.7-7.9c3.8-1.6,7.5-3.4,11.2-5.2c1.6-0.8,3.2-1.7,4.7-2.5c1.6-0.8,3.2-1.6,4.8-2.5c3.5-2.1,7.1-4.2,10.6-6.4
		c8.6-5.6,16.6-12,23.7-19.3c1.3-1.3,2.5-2.8,3.7-4.1c1-1.1,2-2.2,3-3.4c2.7-3.3,5.4-6.6,8-10.1c2.4-3.2,4.7-6.4,6.9-9.7
		c2.2-3.2,4.2-6.5,6.3-9.9c1.7-2.8,3.3-5.8,4.8-8.8c1.6-3.2,3.3-6.3,4.8-9.5c3.5-7.6,6.9-15.2,10.1-22.9c5.5-13.2,11-26.4,15.8-39.9
		c5.2-14.5,10-29.1,14.5-43.8c4.2-13.6,8.1-27.4,11.5-41.3c0.8-3.2,1.5-6.3,2.2-9.5c0.6-2.7,0.9-5.4,1.2-8.1
		c0.2-2.4,0.2-4.7-0.2-7.1c-0.3-2.5-1.2-4.7-3.1-6.5c-2-1.9-5-3-7.8-2c-1.3,0.4-2.3,1-3.4,1.7c-0.7,0.5-1.3,1-2,1.4
		c-1.3,0.9-2.7,1.8-4.1,2.5c-0.7,0.2-1.4,0.4-2.1,0.6c-1.4,0.1-2.9,0-4.3-0.1c-3.6-0.6-7-1.6-10.4-2.9c-4.3-2-8.1-4.6-12-7.3
		c-3-2.4-6-4.9-8.8-7.5c-3.3-3.1-6.6-6.2-9.8-9.4c-3-3-6.1-6-9-9.2c-1.5-1.7-3.2-3.3-4.6-5.1c-1.6-1.9-3.2-3.9-4.8-5.8
		c-2.8-3.7-5.3-7.5-7.6-11.5c-2.5-4.4-4.7-9-6.7-13.7c-0.2-0.5-0.4-0.9-0.6-1.4c-0.6-1.4-1.2-2.5-2.6-3.3c-0.9-0.5-1.8-0.8-2.8-0.8
		C949.4,1244,948.9,1244,948.4,1244.2L948.4,1244.2L948.4,1244.2z M955.6,1248.8c0,0.1,0.1,0.2,0.1,0.3
		C955.7,1249.1,955.7,1249,955.6,1248.8L955.6,1248.8L955.6,1248.8z M955.9,1249.6c0,0,0,0.1,0.1,0.1
		C956,1249.7,956,1249.7,955.9,1249.6L955.9,1249.6L955.9,1249.6z M994.6,1472.8c-0.1,0.2-0.1,0.3-0.2,0.5
		C994.4,1473.1,994.5,1473,994.6,1472.8L994.6,1472.8L994.6,1472.8z M994.3,1473.5c-0.2,0.4-0.3,0.8-0.5,1.2
		C993.9,1474.3,994.1,1473.9,994.3,1473.5L994.3,1473.5L994.3,1473.5z M939.9,1552.1c-0.2,0.1-0.4,0.3-0.5,0.4
		C939.6,1552.4,939.8,1552.3,939.9,1552.1L939.9,1552.1L939.9,1552.1z"/>
	<path style="fill:#161616;" d="M814.9,1604c-3.6,16.8-6.4,33.6-9.4,50.5c-2.7,15.3-5.7,30.5-8,45.8c-4.8,31.7-9.7,63.4-13.5,95.2
		c-0.4,3.3-0.9,6.7-1.3,10.1c-1.2,2.3-1.3,5.4,0.2,7.5c0.1,0.1,0.2,0.2,0.3,0.4c0.7,1.2,1.7,2.1,2.8,2.7c1.7,1,4.1,1.3,6,0.6
		c1.5-0.5,2.6-1,3.7-2.2c1.2-1.2,1.6-2.6,2.2-4.2c0.3-0.8,0.3-1.9,0.4-2.7c0.2-2,0.5-4.1,0.7-6.1c0.1-0.7,0.1-1.4,0.2-2
		c0,0.3-0.1,0.7-0.1,1c0.1-0.5,0.1-1,0.2-1.5c0-0.2,0-0.4,0.1-0.6c0,0.1,0,0.2,0,0.3c3.3-31.2,7.9-62.4,12.3-93.5
		c2.2-15.1,4.9-30,7.3-45.1c1.3-7.9,2.4-15.8,3.8-23.7c1.5-8.5,3-17,4.6-25.5c0.3-1.3,0.5-2.6,0.8-3.9c0.8-3.6-1.3-7.3-5-8.2
		c-0.5-0.1-1-0.2-1.5-0.2C818.5,1598.9,815.5,1600.9,814.9,1604L814.9,1604L814.9,1604z M799.2,1799.1c0,0.2,0,0.4-0.1,0.5
		c0-0.3,0.1-0.5,0.1-0.8C799.3,1799,799.2,1799,799.2,1799.1L799.2,1799.1L799.2,1799.1z"/>
	<path style="fill:#161616;" d="M404.5,991.6c-4.4,0.5-8.6,2.5-12.3,5c-3.9,2.6-6.7,6-9.3,9.7c-5.2,7.2-8.7,15.5-9.9,24.3
		c-1.2,9.1-0.5,18.4,2.7,27c3.2,8.6,9,16.5,16.5,21.7c5.7,4,12.2,6.2,18.8,8.1c2.5,0.7,5.2,1.2,7.8,1.5c0.1,0.2,0.2,0.3,0.2,0.5
		c1.4,3.3,2.7,6.6,4,9.9c0.8,1.8,1.6,3.7,2.5,5.5c0.7,1.5,1.3,3.1,2.1,4.6c1.7,3.2,3.3,6.5,5.3,9.6c1.9,3.2,3.9,6.3,6,9.4
		c4.4,6.4,9.1,12.6,14.1,18.7c2.2,2.6,4.3,5.2,6.6,7.7c2.5,2.7,4.9,5.5,7.6,8.1c2.9,2.8,5.9,5.7,8.8,8.6c2.5,2.5,5.3,4.8,7.9,7.1
		c2.8,2.6,5.8,4.9,8.7,7.4c2.9,2.4,5.9,4.7,8.8,7.1c2.7,2.2,5.5,4.2,8.3,6.2c3,2.1,5.9,4.5,8.9,6.5c3.6,2.3,7.2,4.6,10.7,6.9
		c3,1.9,6.3,3.5,9.4,5.2c2.8,1.5,5.7,2.9,8.6,4.3c2.9,1.4,5.8,2.8,8.9,4c2.3,0.9,4.5,1.8,6.8,2.7c1.8,0.7,3.7,1.6,5.5,2.2
		c4,1.3,8,2.6,12,3.9c6.8,2.2,13.8,3.9,20.7,5.7c6.3,1.6,12.8,3,19.2,4.2c3.6,0.7,7.1,1.5,10.7,2c3.9,0.6,7.8,1.2,11.7,1.8
		c3.7,0.6,7.4,0.9,11.1,1.3c2.1,0.3,4.2,0.4,6.3,0.6c1.8,0.2,3.6,0.4,5.5,0.4c7.1,0.1,14.3,0.3,21.4-0.3c3.7-0.3,7.3-0.6,10.9-1.2
		c4.2-0.7,8.3-1.4,12.4-2.3c3.7-0.8,7.2-1.7,10.8-2.6c3.7-1,7.3-2.1,10.9-3.3c6.6-2.1,13-4.8,19.4-7.5c13.9-5.9,27.4-12.6,40.9-19.4
		c6.3-3.2,12.6-6.3,18.6-9.8c3.4-2,6.7-4,10-6c3-1.8,5.9-3.9,8.7-6c6.1-4.4,11.9-9.1,17.5-14.1c5.5-4.9,10.7-10.2,15.7-15.7
		c4.7-5.1,9.2-10.5,13.6-15.9c4.8-5.9,9.4-12,13.7-18.2c8.2-11.8,14.4-24.7,20-37.9c1.8-4.1,3.4-8.3,4.8-12.5
		c1.3-3.9,2.6-7.8,3.5-11.9c0.5-2.4,0.7-4.9,0.9-7.4c0.1-1.8,0.1-3.7,0.1-5.6c-0.1-1.8-0.3-3.6-0.5-5.3c-0.2-1.3-0.4-2.6-0.6-3.9
		c-0.4-2.3-1.6-3.9-3.1-5.6c-2.3-2.6-6.6-2.7-9.4-1c-3,1.8-4.4,5.5-3.4,8.8c0.1,0.4,0.2,0.9,0.3,1.3c0.5,4.2,0.7,8.3,0.4,12.5
		c-1,6.7-3.4,13.2-5.8,19.5c0-0.1,0.1-0.2,0.1-0.3c-3.5,8.6-7.3,17-11.6,25.2c-4.1,7.8-9,15.1-14.2,22.2
		c-6.5,8.4-13.2,16.6-20.3,24.5c-3.7,4.1-7.5,8-11.4,11.8c-3.6,3.5-7.4,6.7-11.3,9.9c-2.4,1.9-4.7,3.7-7.1,5.5c-3,2.2-6,4.3-9.1,6.3
		c-6,4-12.4,7.4-18.7,10.7c-6.7,3.5-13.5,6.9-20.3,10.3c-6.1,3.1-12.3,6.1-18.5,8.9c-1.7,0.7-3.3,1.5-5,2.2
		c-7.6,3.2-15.3,6.5-23.1,9c-2.2,0.7-4.4,1.5-6.6,2.1c-2.4,0.7-4.9,1.3-7.3,2c-3.9,1-7.9,1.8-11.8,2.7c0.7-0.1,1.4-0.2,2-0.3
		c-3.6,0.6-7.1,1.3-10.7,1.6c-4.4,0.4-8.8,0.7-13.3,0.9c-4.3,0.2-8.5,0.1-12.7,0c-3.4-0.1-6.8-0.4-10.2-0.7
		c-3.3-0.4-6.6-0.8-9.9-1.2c-3.8-0.5-7.6-1.2-11.5-1.8c-3.5-0.5-7-1.3-10.4-1.9c-3-0.6-6-1.2-9-1.9c-7-1.6-14-3.1-20.9-5.1
		c-3.4-1-6.8-1.9-10.2-3c-4.1-1.3-8.2-2.6-12.3-4c0,0-0.1,0-0.1,0c0.2,0.1,0.5,0.2,0.7,0.3c-4.5-1.8-9.2-3.4-13.6-5.5
		c-3.2-1.5-6.3-3-9.5-4.5c-2.7-1.3-5.3-2.9-7.9-4.3c-2-1.1-4-2.1-5.9-3.4c-3.1-2-6.3-4-9.4-6.1c-2-1.3-3.8-2.7-5.7-4.1
		c-2.1-1.5-4.2-3-6.3-4.5c-4.6-3.7-9.2-7.3-13.7-11.1c-4.8-4-9.6-8.1-14.1-12.4c-2.7-2.6-5.3-5.2-8-7.8c-2-2-3.9-4-5.8-6.1
		c-1.8-2-3.7-3.8-5.4-5.9c-2-2.4-3.9-4.7-5.9-7.1c-4.5-6-9-11.8-12.9-18.2c-1.1-1.8-2.3-3.7-3.4-5.5c-1.1-1.8-2-3.7-2.9-5.5
		c-1.6-2.9-3-5.9-4.3-8.9c-1.2-3-2.4-5.9-3.6-8.9c-1.5-3.6-2.9-7.4-5.9-10c-1.2-1-2.7-1.9-4.3-2.3c-1.1-0.3-2.6-0.3-3.8-0.3
		c-0.3,0-0.7,0-1,0c-4.1-0.6-8.2-1.7-12.1-3.1c-2.8-1.2-5.4-2.5-8-4.2c-1.8-1.5-3.4-3.1-4.9-4.8c-1.8-2.4-3.3-4.8-4.6-7.5
		c-1.2-2.8-2.1-5.7-2.7-8.7c-0.6-4.1-0.7-8.1-0.4-12.2c0.5-3.5,1.3-6.9,2.4-10.2c1.6-3.8,3.7-7.4,6.1-10.9c1.2-1.5,2.4-2.8,3.9-4.1
		c1.5-1.1,3-2,4.6-2.8c0.9-0.3,1.8-0.6,2.7-0.8c1.2-0.1,2.4-0.1,3.6,0c1.2,0.2,2.3,0.5,3.4,0.8c1.2,0.6,2.3,1.2,3.5,2
		c3.2,2.6,6.2,5.5,9.2,8.4c2.1,2,5.5,1.9,7.5-0.1c2-2.1,1.9-5.4-0.1-7.5c-2.4-2.4-4.8-4.9-7.2-7.3c-2.6-2.7-5.5-5.1-8.9-6.6
		c-3.3-1.4-6.9-2.2-10.4-2.2C406.4,991.4,405.4,991.4,404.5,991.6L404.5,991.6L404.5,991.6z M411.1,1003.9c0.2,0,0.4,0,0.5,0.1
		C411.5,1003.9,411.3,1003.9,411.1,1003.9L411.1,1003.9L411.1,1003.9z M897.4,1080.8c-0.1,0.2-0.1,0.4-0.2,0.6
		C897.2,1081.1,897.3,1081,897.4,1080.8L897.4,1080.8L897.4,1080.8z M750.2,1217c-0.5,0.2-1.1,0.5-1.6,0.7
		C749.2,1217.5,749.7,1217.2,750.2,1217L750.2,1217L750.2,1217z"/>
	<path style="fill:#161616;" d="M791.8,688.1c-1.5,1.2-2.7,2.1-3.5,3.9c-0.8,1.8-1.2,3.6-1.5,5.5c-0.2,1.6-0.5,3.1-0.7,4.7
		c-1,6.4-2.2,12.7-4.4,18.9c-1.7,4-3.8,7.6-6.3,11.2c-3.5,4.5-7.5,8.5-11.8,12.2c-8.5,6.6-17.8,11.8-27.6,16.3
		c-8.5,3.8-17.3,7.3-26.1,10.3c-3.8,1.3-7.5,2.6-11.3,3.7c-5,1.5-10,2.9-15,4.4c-7.6,2.2-15.2,4.2-22.8,6.1
		c-9.2,2.4-18.4,4.8-27.6,7.2c-7.9,2-15.6,4.3-23.5,6.5c-4.5,1.2-8.9,2.8-13.3,4.2c-3.1,1-6.2,2-9.3,3c-5.1,1.8-10.2,3.6-15.4,5.5
		c-3.8,1.4-7.6,3-11.3,4.5c-3.5,1.4-6.9,2.8-10.3,4.3c-4.4,1.9-8.9,3.8-13.1,5.9c-4,2-8.1,4-12,6.2c-4.1,2.3-8.1,4.7-12.1,7.2
		c-3.3,2.1-6.6,4.4-9.7,6.8c-3.5,2.7-7.1,5.5-10.3,8.5c-6.4,5.9-12.6,11.9-18.5,18.3c-5.8,6.2-11.3,12.9-16.4,19.7
		c-10.2,13.6-18.9,28.4-25.8,43.9c-1.8,4.2-3.6,8.4-5,12.8c-1.3,3.9-2.4,7.8-3.5,11.8c-1.1,3.8-2,7.6-2.7,11.5
		c-0.9,4.7-1.4,9.4-1.6,14.1c-0.2,3.2-0.2,6.3-0.2,9.5c0,3.9-0.2,8.3,1.1,12c1.2,3.3,4,5.6,7.6,5.5c4-0.1,7.9-3.8,7.5-8
		c-0.2-1.9-0.2-3.9-0.2-5.9c0-2-0.1-3.9-0.1-5.9c0-3.5,0.1-7,0.3-10.5c0.3-2.7,0.7-5.3,1.2-8c0.5-3,1.3-6,2.1-8.9
		c1.6-6,3.4-12,5.5-17.8c3.2-7.6,6.7-15.1,10.8-22.3c2.2-3.8,4.4-7.7,6.8-11.5c2.5-3.8,5.1-7.6,7.7-11.4
		c5.7-7.5,11.7-14.9,18.3-21.8c3.6-3.7,7.3-7.4,10.9-11c3.5-3.5,7.3-6.7,11.2-9.9c2.6-2,5.2-3.9,7.9-5.7c3.2-2.2,6.4-4.2,9.6-6.2
		c2.9-1.8,6-3.3,8.9-5c3.2-1.8,6.6-3.3,9.8-4.9c3.7-1.6,7.5-3.3,11.2-5c3.9-1.7,7.9-3.2,11.9-4.8c8.2-3.3,16.6-6.2,24.9-9.2
		c3.6-1.3,7.3-2.3,11-3.5c3.4-1.1,6.8-2.2,10.3-3.2c8.8-2.5,17.6-4.9,26.5-7.2c16.1-4.2,32.4-8.1,48.4-12.8
		c4.9-1.4,9.7-2.8,14.6-4.3c4.4-1.3,8.7-2.9,13.1-4.3c3.8-1.3,7.4-2.9,11.1-4.3c7.3-2.9,14.5-6,21.6-9.4
		c16.7-8.2,32.2-20.1,41.8-36.3c1.2-2,2.3-4.1,3.2-6.3c0.5,2,1,4,1.5,6c0.9,3.7,1.9,7.4,3,11c1.3,4,2.3,8,3.8,11.9
		c1.7,4.6,3.4,9.2,5.1,13.8c1.8,4.9,4,9.6,6.3,14.3c2.6,5.3,5.7,10.4,8.9,15.4c6.7,10.2,14.5,19.6,23,28.2
		c7.5,7.6,15.9,14.3,24.5,20.6c6.1,4.5,12.3,9,19,12.6c6.7,3.7,13.5,7.1,20.5,10.2c6.4,2.8,13.3,5.2,19.2,9.2c0.8,0.6,1.5,1.3,2.1,2
		c0.3,0.4,0.6,0.9,0.9,1.4c0.1,1.8,0.1,3.6,0,5.4c-0.3,1.8-0.7,3.5-1.3,5.2c-1.9,4.4-4.3,8.6-7.1,12.5c-2.3,2.9-4.7,5.7-7.5,8.2
		c-1.2,1-2.4,2.1-3.5,3.1c-2.4,1.8-4.7,3.6-7.3,5.1c-4.3,2.7-8.7,5.3-12.6,8.5c-1.7,1.5-3.4,3.8-3.9,6c-0.2,1-0.4,2-0.4,3
		c0,1.3,0.4,2.2,0.8,3.3c0.5,1.4,1.1,2.8,1.6,4.2c1.2,3.3,2.2,6.6,3.1,9.9c1.9,6.6,3.5,13.3,4.9,20.1c1.8,8.6,3.7,17.3,5.7,25.9
		c0.9,4.1,5.8,6.3,9.6,5.2c1.9-0.6,3.5-1.9,4.5-3.6c1-1.9,1.1-3.9,0.6-5.9c-2.6-11.4-4.9-22.9-7.4-34.3c-1-4.6-2.2-9.2-3.4-13.8
		c-0.9-3.3-1.9-6.4-3-9.6c3.4-2.4,7-4.3,10.4-6.6c4.1-2.7,7.9-5.9,11.6-9.1c6.1-5.3,10.6-11.9,14.7-18.8c1.5-2.5,2.7-5.4,3.7-8.2
		c0.8-2.2,1.5-4.3,1.8-6.6c0.4-2.5,0.5-5.1,0.5-7.7c0-1.8-0.1-3.6-0.6-5.4c-0.5-2.1-1.6-4.1-2.9-5.8c-2.6-3.6-5.9-6.3-9.7-8.6
		c-3.5-2.1-7.2-3.7-10.9-5.3c-7.7-3.3-15.3-6.7-22.7-10.6c-4.5-2.4-8.8-5-13.1-7.8c-4.1-2.7-8-5.6-11.9-8.5c-3-2.4-6.1-4.9-9.1-7.4
		c-8.3-6.7-15.6-14.7-22.3-22.9c-7.4-9.5-13.9-19.5-19-30.5c-1.9-4.4-3.6-8.8-5.3-13.3c-1.1-2.9-2.3-5.8-3.2-8.7
		c-1.2-3.7-2.3-7.4-3.5-11.1c-1.1-3.3-1.8-6.8-2.8-10.2c-1.7-6.3-3.1-12.7-4.5-19c-0.8-3.4-1.5-6.8-2.3-10.2c-0.3-1.5-0.7-3-1-4.4
		c-0.5-2.1-0.9-4.2-2-6.1c-1.1-1.8-2.9-3.1-4.9-3.6c-0.6-0.1-1.3-0.2-2-0.2C794.3,687,792.8,687.3,791.8,688.1L791.8,688.1
		L791.8,688.1z M737.4,760c-0.4,0.2-0.9,0.4-1.3,0.6C736.5,760.4,737,760.2,737.4,760L737.4,760L737.4,760z M933.1,884.3
		c0.1,0.2,0.2,0.4,0.3,0.6C933.2,884.7,933.2,884.5,933.1,884.3L933.1,884.3L933.1,884.3z M468.8,904.7c-0.1,0.2-0.3,0.3-0.4,0.5
		C468.5,905,468.6,904.8,468.8,904.7L468.8,904.7L468.8,904.7z"/>
	<path style="fill:#161616;" d="M662.2,541.4c-9.2,1.3-18.4,2.8-27.5,4.8c-3.8,0.8-7.6,1.6-11.4,2.7c-4.1,1.2-8.1,2.4-12.1,3.7
		c-16.2,5.4-32.1,11.6-47.5,19.1c-3.8,1.9-7.7,3.7-11.4,5.7c-3.8,2-7.6,4-11.3,6.2c-3.6,2.2-7.3,4.2-10.7,6.7
		c-5.8,4.1-11.5,8.2-16.9,12.8c-4.5,3.8-8.7,7.9-12.5,12.3c-2,2.3-4.2,4.5-6.1,6.9c-2.1,2.8-4.2,5.5-6.2,8.3c-2.3,3-4.2,6.3-6.3,9.4
		c-1.6,2.5-3,5.1-4.4,7.7c-1.3,2.2-2.3,4.6-3.3,7c-1.3,3.3-2.8,6.6-3.7,10.1c-0.3,1-0.5,2-0.7,3c-0.7-0.2-1.4-0.3-2.2-0.5
		c-2.5-0.6-5.1-1.2-7.6-1.8c-11.5-2.4-23.4-3-35.1-1.7c-4.5,0.5-8.9,1.5-13.3,2.6c-2,0.5-4.1,1-6.1,1.7c-8.2,2.8-16.2,6.1-23.8,10.4
		c-4.9,2.8-9.6,6-14.1,9.4c-5.2,3.9-10.3,8.1-15.1,12.5c-8.8,8.1-16.9,17.1-24,26.6c-7,9.4-12.8,19.7-17.7,30.3
		c-5.1,11.1-8.5,22.9-11.2,34.8c-0.4,1.8-0.7,3.6-1,5.4c-0.7,3.6-1.3,7.2-2,10.8c-1.8,9.7-3.1,19.5-3.1,29.4
		c0,7.4,1.2,14.7,2.8,21.9c1.5,6.7,4,13.1,7.1,19.2c1.5,2.9,3.2,5.8,5,8.5c0.2,0.3,0.3,0.5,0.5,0.8c-2.1,1.5-4.1,3.3-6.1,4.9
		c-3.9,3.2-7.5,6.7-10.9,10.4c-3.4,3.8-6.3,8.1-9.1,12.3c-3.1,4.8-5.8,9.9-8.2,15.1c-4.8,10.4-8.1,21.5-10,32.9
		c-0.9,5.6-1.3,11.3-1.5,17c-0.2,5.8,0,11.7,0.7,17.5c1.3,11,5.5,21.8,10.1,31.8c2.1,4.7,4.5,9.2,7.2,13.6c3,4.9,6.5,9.5,10.2,14
		c3.3,4,6.8,7.7,10.6,11.2c4.1,3.9,8.9,7.1,13.6,10.2c5.2,3.4,10.7,6,16,9.2c0.2,2,0.1,4.1-0.1,6.2c-0.8,6.8-2.2,13.5-2.5,20.4
		c-0.6,11.9,1.8,23.8,5.9,34.9c2,5.4,4.5,10.6,7.4,15.6c3.1,5.5,7,10.6,11.2,15.4c7.8,9,17.5,16.3,28,21.8
		c10.5,5.5,21.9,9.3,33.5,11.4c11.9,2.1,23.9,2.2,35.8,0.5c11.6-1.6,23.9-4.4,33.2-11.8c3.4-2.7,6.5-5.7,9.6-8.8
		c0.7-0.7,1.3-1.4,1.9-2.2c2.3-2.7,2.9-6.3,1-9.4c-2.1-3.5-7.1-4.9-10.6-2.6c-4.2,2.8-7.6,6.7-11.4,10c-2.1,1.5-4.3,2.8-6.6,3.9
		c-5.5,2.2-11.2,3.6-17,4.6c-8.7,1.3-17.4,1.7-26.2,0.9c-9.1-1.1-17.9-3.3-26.5-6.5c-7.3-3-14.3-6.7-20.8-11.3
		c-5.6-4.3-10.6-9.2-15.1-14.7c-4.2-5.5-7.7-11.4-10.7-17.7c-2.8-6.5-4.9-13.3-6.1-20.3c-0.8-5.8-1-11.6-0.5-17.4
		c0.5-3.8,1-7.6,1.6-11.4c0.4-2.6,0.7-5.3,0.8-7.9c0.1-1.6,0-3.2-0.1-4.8c-0.1-1.1-0.3-2.1-0.5-3.2c-0.4-1.4-1-2.7-1.6-4
		c-0.7-1.5-2.1-3-3.4-4c-1.4-1.2-3-2.1-4.6-3c-1.8-1-3.6-2-5.5-3c-4.9-2.8-9.7-5.7-14.3-8.9c-6.1-4.7-11.4-10.3-16.2-16.3
		c-5.3-6.8-9.6-14.2-13.3-22c-3.5-7.9-6.6-16.2-8.2-24.8c-1.2-8.8-1-17.9-0.2-26.7c1.1-9.4,3.4-18.6,6.7-27.5
		c3.6-8.9,8.1-17.4,13.7-25.2c4.7-6.1,10.2-11.3,16.1-16.1c0.9-0.7,1.8-1.4,2.8-2.1c0.7-0.4,1.3-0.9,1.9-1.3
		c0.3-0.2,0.6-0.5,0.9-0.7c0.8-0.6,1.6-1.3,2.4-2c0.7-0.8,1.3-1.6,1.9-2.5c0.8-1.4,1.2-3.7,1.1-5.3c-0.1-2.3-1.1-4.1-2.5-5.7
		c-3.6-4.9-6.7-10.4-9.3-15.9c-2.4-5.8-3.9-11.8-5-18c-1.1-7.5-1.1-15-0.5-22.5c0.9-8.1,2.5-16,4-24c2-10.9,4.6-21.6,8.5-32
		c2.3-5.7,5-11.1,7.9-16.5c3.1-5.8,6.4-11.4,10.2-16.7c9.3-12.3,20.1-23.6,32.1-33.3c8.2-6.4,16.9-12.2,26.4-16.6
		c8-3.4,16.2-6,24.8-7.6c7.8-1.1,15.7-1.2,23.6-0.5c6,0.8,11.8,2.1,17.7,3.5c0.7,0.2,1.3,0.3,2,0.5c1,0.2,1.9,0.5,2.9,0.8
		c0.5,0.1,0.9,0.2,1.4,0.3c1.2,0.1,2.4,0.3,3.5,0.4c2.6-0.2,5.3-0.8,7.2-2.8c1.9-2,2.3-4.5,2.5-7.1c0.5-3.7,1.5-7.2,2.7-10.7
		c1.5-3.7,3.2-7.4,5.2-11c1.2-2.1,2.3-4.2,3.6-6.2c1.5-2.4,3-4.7,4.6-7.1c2.4-3.2,4.8-6.5,7.5-9.5c1.8-2,3.6-4.1,5.4-6.1
		c3.9-4.5,8.5-8.5,13.1-12.3c2.6-2.1,5.3-4,8-5.9c1.9-1.4,3.8-2.8,5.8-4c4.7-2.8,9.3-5.7,14.1-8.3c5.1-2.8,10.2-5.4,15.5-7.9
		c3.9-1.9,7.8-3.7,11.8-5.5c5.5-2.3,11-4.7,16.5-6.7c6.5-2.4,13.1-4.7,19.7-6.8c11.5-3.8,23.3-6.1,35.2-8.4c3.4-0.5,6.8-1,10.2-1.5
		c3.5-0.5,7-0.7,10.4-1c1.4-0.1,2.7-0.1,4.1-0.2c1.6,0,3.2-0.2,4.8-0.1c4.9,0.1,9.7,0.1,14.6,0.6c9.9,1.2,19.4,4.2,28.8,7.6
		c3.7,1.5,7.3,3,10.9,4.6c4,1.8,7.8,3.9,11.6,6c7.1,3.9,13.8,8.5,20.3,13.3c4.2,3.4,8.5,6.7,12.5,10.4c2.1,2,4.4,4,6.4,6.1
		c2.1,2.2,4,4.4,5.9,6.7c1.7,2.1,3.4,4.2,5,6.4c1.2,1.6,2.4,3.2,3.5,4.8c1.2,1.6,2.2,3.4,3.2,5.1c3.6,5.7,6.4,11.8,9.3,17.8
		c1.7,3.8,3.3,7.6,4.7,11.5c1.9,5.2,3.3,10.6,4.4,16c0.8,5.8,0.6,11.6,0.1,17.4c-0.4,3.6-0.9,7.1-1.6,10.7
		c-0.9,4.3-2.2,8.6-3.8,12.7c-1.6,4-3.4,8-5.5,11.8c-2.1,3.8-4.5,7.5-7.1,11c-0.1,0.1-0.2,0.3-0.3,0.4c-1.3,1.7-2.2,3.2-2.1,5.5
		c0,2,0.9,3.8,2.3,5.2c1.4,1.4,3.4,2.2,5.5,2.1c1.7,0,4.1-0.8,5.2-2.3c3.3-4.3,6.4-8.7,9.1-13.4c3-5.1,5.4-10.6,7.5-16.1
		c2-5.2,3.6-10.5,4.6-15.9c1.2-6.3,1.8-12.7,2.1-19c0.6-12.7-3.2-25.2-7.8-36.8c-3.2-8.1-7.1-16-11.3-23.6c-1.8-3.3-3.8-6.6-6-9.6
		c-2.7-3.8-5.5-7.4-8.4-11.1c-2.7-3.4-5.6-6.7-8.6-9.9c-1.5-1.6-3.3-3.1-4.9-4.6c-1.4-1.3-2.9-2.5-4.4-3.8
		c-6.8-5.9-14.1-11.2-21.5-16.3c-6.7-4.6-14-8.4-21.3-12c-3.8-1.9-7.7-3.4-11.6-5c-4.3-1.7-8.6-3.3-13-4.7c-4-1.3-8.1-2.3-12.2-3.3
		c-7.8-1.8-15.8-2.1-23.8-2.3c-0.9,0-1.8,0-2.6,0C676.1,540,669.1,540.4,662.2,541.4L662.2,541.4L662.2,541.4z M793.2,609.6
		c0.3,0.4,0.7,0.8,1,1.2C793.9,610.5,793.5,610.1,793.2,609.6L793.2,609.6L793.2,609.6z M528.3,611.4c-0.3,0.2-0.6,0.5-0.8,0.7
		C527.8,611.9,528,611.6,528.3,611.4L528.3,611.4L528.3,611.4z M469.1,675.6c0,0.3-0.1,0.6-0.1,0.9
		C469.1,676.2,469.1,675.9,469.1,675.6L469.1,675.6L469.1,675.6z M824.8,688.5c0,0.3-0.1,0.5-0.1,0.8
		C824.7,689.1,824.7,688.8,824.8,688.5L824.8,688.5L824.8,688.5z M819.7,712.3c-0.1,0.3-0.3,0.7-0.4,1
		C819.4,713,819.6,712.7,819.7,712.3L819.7,712.3L819.7,712.3z M280.3,969.9c0,0.4-0.1,0.8-0.1,1.1
		C280.2,970.7,280.3,970.3,280.3,969.9L280.3,969.9L280.3,969.9z M331.3,1087.7c0.1,0.1,0.2,0.1,0.3,0.2
		C331.5,1087.8,331.4,1087.7,331.3,1087.7L331.3,1087.7L331.3,1087.7z M332.3,1088.7c0.1,0.3,0.3,0.6,0.4,0.9
		C332.5,1089.2,332.4,1089,332.3,1088.7L332.3,1088.7L332.3,1088.7z M332.5,1088.7c0.1,0.1,0.2,0.3,0.3,0.4
		C332.7,1089,332.6,1088.9,332.5,1088.7L332.5,1088.7L332.5,1088.7z"/>
	<path style="fill:#161616;" d="M816.2,898.4c-0.5,0.4-1,0.8-1.4,1.2c-0.8,0.9-1.4,1.8-1.7,3c-1.8,3.7-3.9,7.2-6.2,10.5
		c-0.8,1-1.6,1.9-2.5,2.7c-2.1,1.5-4.3,2.7-6.5,3.7c-3.2,1.4-6.5,2.4-9.9,3c-2.4,0.3-4.8,0.4-7.2,0.3c-1.4-0.2-2.8-0.5-4.2-0.9
		c-1.1-0.5-2.1-1-3.1-1.7c-1.6-1.4-3.1-3-4.7-4.6c-2.5-2.7-7-2.4-9.5,0.2c-2.6,2.7-2.3,6.8,0.2,9.5c2.9,3,5.7,5.8,9.4,7.8
		c4,2.2,8.5,3,13,3.3c4.5,0.4,9.1-0.4,13.5-1.4c4.3-1,8.3-2.8,12.3-4.5c4.1-1.9,7.6-4.5,10.6-8c1.7-2,3.1-4.2,4.5-6.3
		c2-3,3.6-6.3,4.4-9.8c0.8-3.8-1.4-7.8-5.3-8.7c-0.6-0.1-1.1-0.2-1.7-0.2C818.7,897.3,817.4,897.7,816.2,898.4L816.2,898.4
		L816.2,898.4z M812.9,903.1c-0.1,0.3-0.2,0.5-0.3,0.8C812.7,903.6,812.8,903.4,812.9,903.1L812.9,903.1L812.9,903.1z M797.4,919.7
		c-0.2,0.1-0.4,0.2-0.6,0.3C796.9,919.9,797.2,919.8,797.4,919.7L797.4,919.7L797.4,919.7z"/>
	<path style="fill:#161616;" d="M572.8,1228.6c-1.9,7.5-4,15-6.7,22.3c-3.6,8.8-8,17.2-12.7,25.5c-1,1.8-1.9,3.6-3,5.3
		c-1.4,2.1-2.7,4.4-4.1,6.5c-1.6,2.1-3.1,4.2-4.7,6.3c-5.2,6.3-10.5,12.5-16,18.5c-1.2,1.3-2.4,2.6-3.5,4.1
		c-0.9,1.2-2.2,2.8-2.3,4.4c-0.1,1.2-0.3,2.3-0.3,3.5c0.2,3.1,1.7,6.1,3.2,8.7c1.2,2.2,2.8,4.2,4.3,6.2c1.4,1.9,2.9,3.9,4.5,5.7
		c1.7,1.9,3.3,3.8,5,5.8c10.8,12.4,23,23.4,34.6,35c12.1,12.1,23,25.2,33.9,38.3c10.5,12.5,21.2,25,32.2,37
		c4.3,4.7,8.8,9.3,13.2,13.9c4.3,4.5,8.6,9.1,13.3,13c2.6,2.2,5.9,5,9.4,5.6c2.9,0.5,5.3-0.2,7.7-1.8c1.7-1.1,3.1-2.6,4.4-4
		c1.2-1.3,2.2-2.7,3.3-4.1c4.1-5.2,7.9-10.6,11.9-16c9.5-12.6,19.3-25.2,27.7-38.6c1.9-3.1,3.7-6.2,5.2-9.6c1.7-3.8,3.4-7.8,3.4-12
		c0-3.9-1.5-7.9-2.8-11.5c-1.4-3.6-2.8-7.2-4-10.8c-7.6-21.7-13.1-44-16.9-66.7c-1-6.8-1.6-13.6-1.7-20.5
		c-0.1-6.5-0.2-13.1,0.2-19.6c0.8-6.3,2.1-12.6,3.1-18.9c0.6-3.6,1.1-7.3,1.5-11c0.1-1.2,0.1-2.4,0.2-3.6c0.1-1.1,0.3-2.3,0.1-3.3
		c0-1.4-0.4-2.7-1.1-3.9c-1.1-1.8-2.9-3.1-4.9-3.6c-4.2-1-8.5,1.6-9.5,5.8c-0.5,1.8-0.5,3.9-0.6,5.8c-0.1,1.3-0.1,2.5-0.2,3.8
		c-0.9,6.8-2.4,13.6-3.4,20.4c-0.7,4.3-1.1,8.7-1.3,13c-0.2,3.7-0.1,7.4,0,11c0,7.4,0.3,14.9,1.3,22.2c1.3,8.8,3,17.5,4.8,26.2
		c2.3,11.1,5,22.1,8.4,33c1.8,5.8,3.7,11.5,5.8,17.2c1.8,4.9,4,9.8,5.2,14.8c0,0.1,0,0.3,0,0.4c-0.2,0.7-0.4,1.5-0.7,2.2
		c-2.6,6.2-6.2,11.8-9.9,17.3c-4,6.1-8.4,11.9-12.7,17.8c0,0,0,0,0.1-0.1c-6,8-11.9,16-17.9,24c0,0,0.1-0.1,0.1-0.1
		c-1.7,2.3-3.4,4.8-5.4,7c-4.8-4-9.1-8.7-13.4-13.2c-6.1-6.2-12-12.6-17.9-19c-11.2-12.3-21.8-25.1-32.5-37.8
		c-4.8-5.7-9.6-11.6-14.7-17.1c-3-3.3-5.9-6.8-9.1-9.9c-3.3-3.4-6.7-6.7-10.1-10.1c-5.8-5.8-11.7-11.4-17.6-17.1
		c-5.8-5.8-11.3-11.8-16.6-18c-0.1-0.1-0.2-0.2-0.2-0.3c-2.4-3-4.7-6-6.5-9.3c3.8-4.7,8.1-9.1,11.9-13.8c2.7-3.3,5.3-6.7,7.8-10.2
		c1.2-1.6,2.3-3.2,3.5-4.8c1.3-1.8,2.3-3.7,3.5-5.6c2.1-3.3,3.9-6.7,5.7-10.1c3.7-6.7,7.1-13.6,10-20.6c3.7-9,6.2-18.3,8.6-27.7
		c1-3.8-1.5-7.7-5.3-8.6c-0.6-0.1-1.1-0.2-1.6-0.2C576.5,1223.1,573.6,1225.4,572.8,1228.6L572.8,1228.6L572.8,1228.6z
		 M541.4,1294.7c-0.1,0.1-0.2,0.2-0.3,0.4C541.2,1294.9,541.3,1294.8,541.4,1294.7L541.4,1294.7L541.4,1294.7z"/>
	<path style="fill:#161616;" d="M522,1317.4c-9.5,0.4-18.9,0.9-28.4,1.6c-3.8,0.3-7.7,0.5-11.5,0.9c-4.7,0.5-9.5,0.7-14.2,1.4
		c-4.9,0.7-9.8,1.3-14.7,2c-10.9,1.5-21.7,4.1-32.1,7.4c-6,1.9-11.8,4.4-17.5,7c-5.9,2.7-11.8,5.6-17.5,8.8
		c-10.6,6-20.5,13.4-28.8,22.2c-4,4.2-7.5,8.9-11,13.5c-3.5,4.7-7.2,9.4-10.2,14.5c-2.1,3.5-4.4,6.9-6.2,10.6
		c-1.9,3.9-4,7.7-5.7,11.6c-1.9,4.3-3.8,8.5-5.6,12.8c-3.7,9-7.1,18.1-10.3,27.2c-2.8,7.7-5.1,15.7-7.5,23.5c-0.2,0.7-0.4,1.3-0.6,2
		c-1.2,4.2,1.8,8.7,5.9,9.7c4.4,1.1,8.4-1.7,9.7-5.9c2.3-7.6,4.6-15.2,7.1-22.8c2.3-6.9,4.9-13.6,7.5-20.4
		c2.9-7.2,5.8-14.5,9.3-21.5c1.9-3.7,3.6-7.5,5.7-11c1.4-2.4,2.8-4.8,4.3-7.2c2.2-3.7,4.8-7.3,7.3-10.8c3.2-4.3,6.4-8.5,9.9-12.5
		c3.5-4.1,7.5-7.8,11.6-11.2c10-7.9,21.3-13.9,32.9-19.2c6.6-2.8,13.3-5.3,20.1-7.3c7.2-2.1,14.5-3.6,21.8-4.9
		c10.7-1.4,21.4-2.9,32.2-3.7c12.4-0.9,24.7-1.8,37.1-2.2c4.3-0.2,7.9-3.9,7.8-8.3c-0.1-4.2-3.7-7.8-8-7.8
		C522.2,1317.4,522.1,1317.4,522,1317.4L522,1317.4L522,1317.4z M454.9,1339c-0.3,0.1-0.7,0.1-1,0.2
		C454.3,1339.2,454.6,1339.1,454.9,1339L454.9,1339L454.9,1339z M357.3,1393.9c-0.1,0.2-0.2,0.3-0.4,0.5
		C357.1,1394.2,357.2,1394,357.3,1393.9L357.3,1393.9L357.3,1393.9z M356.9,1394.5c-0.3,0.4-0.5,0.7-0.8,1.1
		C356.4,1395.2,356.6,1394.8,356.9,1394.5L356.9,1394.5L356.9,1394.5z M330.8,1443.7c-0.1,0.2-0.2,0.5-0.3,0.7
		C330.6,1444.2,330.7,1443.9,330.8,1443.7L330.8,1443.7L330.8,1443.7z"/>
	<path style="fill:#161616;" d="M1000.6,33.4c-40,0-81,2.6-122,7.6C764.8,55,654.3,89.8,550.2,144.5c-47.9,25.1-95,55.5-140.1,90.1
		C366.7,268,325.2,306.1,286.8,348c-37.6,41-72.1,86.1-102.7,133.9c-29.9,46.8-56.3,97.8-78.5,151.5c-45,109-69.2,226-71.8,347.7
		c-1.3,59.3,3.2,120.1,13.3,180.7c4.7,28.2,11.1,57.7,19.1,87.7c7.1,26.6,15.7,53.9,26.5,83.4c39.2,107.4,97.7,207.1,174.2,296.4
		c71.8,84,157.6,154.8,254.9,210.6c48.3,27.7,100.2,51.5,154.3,70.9c53,19,109.8,33.5,169,43.3c50.7,8.3,102.7,12.6,154.7,12.6
		c68,0,136.3-7.2,203-21.3c52.1-11,105.1-27.3,157.4-48.2c47.7-19.1,95.1-42.8,140.9-70.6c43.5-26.4,85.9-57,126.1-91.2
		c38.7-32.9,76.1-70.5,111.2-111.8c35.4-41.7,68-87.6,96.6-136.5c28.3-48.3,52.8-100.3,72.7-154.6c2.4-6.6,4.7-13.1,6.9-19.7
		c0.8-2.3,1.6-4.7,2.4-7c17.7-52.6,30.9-108.8,39.5-167c8.8-60.3,11.8-122.9,8.9-186c-2.8-59.9-11.5-120.5-25.8-180.2
		c-13.5-56.3-32.9-112.8-57.7-168.2c-23.5-52.6-52.8-104.3-87-153.9c-32.5-47-69.8-91.7-110.8-133c-39.5-39.7-83.6-76.8-131.1-110.1
		c-45.5-32-95.5-60.7-148.7-85.4c-51.5-23.9-106.6-43.5-163.7-58.2c-57-14.7-117-24.2-178.3-28.3
		C1041.9,34.1,1021.2,33.4,1000.6,33.4L1000.6,33.4L1000.6,33.4z M677.9,105.4L677.9,105.4l0.6-0.2c-1.6,0.6-3.2,1.2-4.9,1.7
		c1.3-0.5,2.6-1,3.9-1.4l0,0l0,0C677.8,105.4,677.9,105.4,677.9,105.4L677.9,105.4L677.9,105.4z M925.4,180.7
		c22.1-1.7,44.6-2.6,66.8-2.6c0,0,0,0,0,0c14.6,0,29.4,0.4,44.1,1.1c35.7,1.8,72.5,6.1,109.4,12.9c35.7,6.8,71.3,16,105.8,27.3
		c33.7,11,67.7,24.8,101.2,41l-1.8-1c31.7,15.5,62.7,33,92.2,52.2c29.2,19,58.1,40.7,86.1,64.6c0,0,0,0,0,0l0.5,0.4l-0.5-0.5
		c0,0,0,0,0,0c0,0,0,0,0,0c0,0,0,0,0,0.1l-0.9-0.9c26.9,23.3,52.6,48.3,76.4,74.6c23.2,25.6,45.6,53.8,66.4,83.7
		c20.1,29.3,38.6,60,54.9,91.3c15.9,30.6,30.3,63.5,42.8,97.7l0.2,0.4l0.2,0.4c0,0,0,0,0,0c0,0,0,0.1,0,0.1l0-0.1l0,0
		c0,0,0-0.2,0-0.2c0,0,0-0.1,0-0.2l0.2,0.8c11.8,33.2,21.8,67.7,29.4,102.3c7.6,34.4,13,70.6,16.2,107.7l0,0.5c0,0,0,0,0,0
		c0,0,0,0,0,0l0-0.1l0,0c0,0,0-0.2,0-0.2c0,0,0,0,0-0.1c0,0.5,0,1,0.1,1.5l0-0.5c2.8,36.5,3.3,73.7,1.4,110.5
		c-1.8,35.9-6.2,72.8-13,109.6c-6.8,35.9-16.1,71.7-27.4,106.3c-11,33.4-24.7,67.3-40.8,100.7c-15.7,32.1-33.6,63.4-53.1,93.2
		c-18.9,28.8-40.5,57.4-64.2,85c-22.9,26.4-47.5,51.5-73.3,74.8c-7.2,6.5-14.6,12.9-22,19.1c-18.3,15.3-37.9,30.2-58.2,44.4
		c-29.2,20.2-60.1,38.8-91.6,55.2c-31.7,16.5-65.2,31.2-99.5,43.7c-33.1,11.9-67.3,21.8-101.6,29.5c-35,7.8-71.9,13.4-109.5,16.6
		l-0.7,0.1c-22.4,1.8-45.1,2.7-67.6,2.7c-13.7,0-27.7-0.3-41.5-1c-36.6-1.7-74.4-6.2-112.1-13.1c-36.1-6.9-72.1-16.2-106.9-27.7
		c-33.7-11.1-67.9-25-101.6-41.4l0.8,0.4c-30.9-15.3-61.3-32.5-90.2-51.4c-29-18.9-57.8-40.5-85.6-64.3
		c-26.4-22.8-51.6-47.4-75-73.1c-23.2-25.5-45.4-53.5-66.1-83.2c-20-29-38.4-59.6-54.7-90.8c-16.6-31.8-31.5-65.9-44.3-101.3
		l0.4,1.3c-12-33.8-22-68.7-29.7-103.7c-7.5-34.1-12.8-70-16-106.9l0-0.5c0,0,0-0.3-0.1-0.3l0,0l0,0c0,0-0.1-0.3-0.1-0.3
		c0,0,0,0,0,0c-2.7-36.4-3.2-73.5-1.4-110.4c1.8-36.1,6.3-73.4,13.2-110.7c7.1-36.9,16.7-73.6,28.6-109
		c10.6-31.7,23.8-64.1,39.2-96.1c15.5-31.8,33.3-63,52.8-92.7c18.8-28.8,40.4-57.4,64-85l-0.7,0.7l-0.7,0.8
		c22.9-26.5,47.7-51.9,73.7-75.5c25.4-23.1,53.4-45.4,83.3-66.3l0.5-0.4l-0.5,0.3c0,0,0.3-0.2,0.3-0.2c0,0,0,0,0,0c0,0,0,0,0,0
		c0,0,0.4-0.2,0.4-0.2c0,0,0.3-0.2,0.3-0.2c28.7-19.8,58.6-37.8,89.1-53.7c31.2-16.3,64.7-31,99.6-43.8
		c33.3-11.9,67.6-21.9,102-29.5c34.9-7.8,71.8-13.4,109.8-16.6l-0.5,0l0.6,0v0l0.4,0L925.4,180.7L925.4,180.7L925.4,180.7
		L925.4,180.7z M218,1540.1l-0.1-0.1l-0.1-0.3c0.5,0.7,0.9,1.4,1.4,2.1c-0.3-0.4-0.6-0.8-0.9-1.3c0,0,0,0,0,0l0,0
		c-0.1-0.1-0.1-0.1-0.2-0.2L218,1540.1L218,1540.1C218,1540.1,218,1540.1,218,1540.1L218,1540.1L218,1540.1L218,1540.1z M822.8,1934
		l-0.2,0l-0.3-0.1c1.3,0.3,2.7,0.5,4,0.8c-1-0.2-2-0.4-3-0.6c0,0,0,0,0,0l0,0c-0.1,0-0.2,0-0.3-0.1l0,0l0,0
		C822.9,1934,822.8,1934,822.8,1934L822.8,1934L822.8,1934L822.8,1934z"/>
	<path style="fill:#161616;" d="M1499.9,845.4c-15.1,1.1-30,3.8-44.6,7.9c-13.6,3.9-26.8,9.1-39.4,15.4c-1.1,0.6-2.3,1.2-3.4,1.8
		c-9.7,5.1-19,10.9-27.9,17.4c-10.8,7.9-20.9,16.6-30.1,26.3c-9.3,9.6-17.6,20.1-25,31.2c-7.3,10.9-13.6,22.5-18.9,34.6
		c-5.7,13.1-10.2,26.6-13.3,40.5c-3.2,14.3-5,28.9-5.4,43.5c-0.5,14.9,0.8,29.9,3.3,44.7c2.3,14.1,6.2,27.9,11.3,41.2
		c5,13.1,11.2,25.8,18.5,37.8c7.3,11.9,15.7,23,25,33.4c9.3,10.4,19.7,19.7,30.8,28.2c21.7,16.8,46.8,29.3,73.1,37
		c13.9,4.1,28.3,6.7,42.8,8c13.6,1.3,27.4,1.3,41.1,0c12.4-1.2,24.8-3.3,36.9-6.5c11.8-3.1,23.3-7.3,34.5-12.3
		c21.6-9.6,41.5-22.8,59.1-38.6c38.5-34.6,64.3-82.8,71.6-134.1c2.2-15.3,2.9-30.7,2-46.1c-0.9-14.9-3.2-29.7-7-44.1
		c-3.8-14.4-9.1-28.4-15.7-41.8c-6.3-13-14-25.3-22.8-36.8c-9.1-11.9-19.3-23-30.6-32.9c-11.5-10.1-24.1-19.1-37.4-26.7
		c-12.7-7.3-26.2-13.2-40.1-17.9c-14.3-4.8-29-7.9-43.9-9.8c-9-1.2-18.1-1.7-27.2-1.7C1511.4,844.7,1505.7,844.9,1499.9,845.4
		L1499.9,845.4L1499.9,845.4z M1488.8,1277.4c-18.2-2.6-36.1-7.5-53.1-14.5c-16.4-7-32-16.1-46.3-26.9c-14.2-11.1-27.1-23.9-38.2-38
		c-11.1-14.5-20.3-30.2-27.4-46.9c-7.1-17-11.9-34.9-14.5-53.2c-2.4-18.7-2.4-37.6,0-56.1c2.6-18.3,7.5-36.2,14.5-53.2
		c7.1-16.6,16.3-32.3,27.4-46.8c11-14,23.6-26.7,37.7-37.7c11.3-8.6,23.5-16.2,36.1-22.4c3.5-1.8,7.1-3.4,10.4-4.8
		c17-7.1,35-11.9,53.4-14.5c9.3-1.2,18.7-1.8,28.1-1.8c9.2,0,18.5,0.6,27.6,1.7c18.2,2.6,36,7.4,53,14.4
		c16.6,7.1,32.4,16.2,46.9,27.3l0.5,0.4c14.1,11.1,26.8,23.9,37.8,37.9c10.7,14.1,19.7,29.5,26.7,45.6c7.2,17.2,12.2,35.4,14.9,54.1
		c2.3,18.5,2.3,37.3,0,55.7c-2.6,18.2-7.4,36.1-14.4,53.1c-7.1,16.5-16.2,32.2-27.1,46.7c-11.3,14.5-24.3,27.5-38.6,38.6
		c-14.1,10.7-29.5,19.7-45.7,26.7c-17.1,7.2-35.3,12.1-53.9,14.8c-9.2,1.2-18.6,1.8-27.9,1.8
		C1507.5,1279.2,1498.1,1278.6,1488.8,1277.4L1488.8,1277.4L1488.8,1277.4z"/>
	<path style="fill:#161616;" d="M1585.8,910.6l-66.2,82.4c0,0-0.1,0.1-0.1,0.1l0,0c-3.5,4.4-7,8.8-10.6,13.1
		c0.2,0.1,0.4,0.3,0.6,0.4c0.6,0.5,1.2,0.9,1.8,1.3c1,0.7,1.9,1.5,2.9,2.2c1.1,0.8,2.2,1.7,3.3,2.5c1.1,0.9,2.3,1.7,3.4,2.6
		c1.3-1.8,2.8-3.5,4.1-5.2c1.1-1.3,2.2-2.6,3.3-3.9c0.4-0.5,0.8-1,1.3-1.5c20.9-26,41.7-52.1,62.6-78.2c19,15.3,38.1,30.5,57.1,45.7
		c-17.9,22.4-35.8,44.9-53.8,67.3c-0.2,1.2-0.8,2.4-1.7,3.4c-2.9,3.2-5.8,6.4-8.7,9.6c-0.8,1-1.6,2-2.4,3c-1.5,2.2-2.9,4.4-4.1,6.8
		c-0.3,0.7-0.5,1.5-0.7,2.2c0,0.5,0,1,0,1.4c2.2,1.2,4.3,2.8,6.2,4.3c1.1,0.8,2.1,1.6,3.2,2.5c3-3.7,6-7.4,9-11.1l-0.1-0.1l0.8-1
		l0.8-1l22.3-27.7c14.9-18.5,29.8-37,44.7-55.5l1.2-1.5c0.7-1.1,1-2.4,1-3.7c0-1.7-0.7-4-2.2-5.2l-30.5-24.5l-15.3-12.3l-22.9-18.4
		l-1.5-1.2c-1.2-0.7-2.5-1-3.8-1C1589.4,908.5,1587,909.1,1585.8,910.6L1585.8,910.6L1585.8,910.6z"/>
	<path style="fill:#161616;" d="M1453.9,1074.5C1453.9,1074.6,1453.9,1074.6,1453.9,1074.5l-2.6,3.4l-5.1,6.4
		c-22.7,28.2-45.4,56.5-68.4,85.1l-1,1.3c-0.7,1.2-1,2.5-1,3.9c0,1.8,0.7,4.2,2.3,5.5l34.7,27.8l34.1,27.4l1.6,1.2
		c1.2,0.7,2.5,1,3.9,1c1.8,0,4.2-0.7,5.5-2.3l12.6-15.7c19.1-23.8,38.2-47.6,57.3-71.4l3.7-4.5c3.3-4.2,6.7-8.3,10-12.5
		c-0.4-0.3-0.8-0.6-1.3-1c0.1,0.1,0.3,0.2,0.4,0.3c-0.3-0.3-0.7-0.5-1-0.8c0,0,0,0,0,0c-0.4-0.3-0.7-0.5-1.1-0.8
		c-0.1,0-0.1-0.1-0.2-0.2c0.1,0,0.1,0.1,0.2,0.2c-0.9-0.7-1.9-1.5-2.8-2.2c0.1,0.1,0.2,0.1,0.2,0.2c0,0-0.1,0-0.1-0.1c0,0,0,0,0,0
		c0,0,0,0,0,0c0,0,0,0,0,0c-2-1.5-4-2.9-6-4.5c-0.7,1-1.5,2-2.3,3c-1.5,1.9-3,3.8-4.5,5.6c-1.3,1.7-2.7,3.3-4.1,4.9
		c-0.7,0.8-1.4,1.6-2,2.4c-0.4,0.4-0.7,0.8-1.1,1.3c-0.9,1-1.9,1.8-3,2.6c-0.2,0.2-0.5,0.3-0.7,0.4c-20.4,25.4-40.8,50.8-61.1,76.2
		c-18.9-15.1-37.7-30.3-56.6-45.4c22.3-27.8,44.6-55.6,66.9-83.5c1-2.2,2.7-4.2,4-6.1c1-1.4,2.1-2.8,3.1-4.1
		c1.7-2.3,3.5-4.5,5.2-6.7c-0.5-0.5-1.1-1-1.6-1.4c-1.4-1.3-2.9-2.6-4.3-3.9c-1.4-1.3-2.8-2.5-4-3.9c-0.2-0.3-0.5-0.5-0.7-0.8
		C1460.1,1066.8,1457,1070.7,1453.9,1074.5L1453.9,1074.5L1453.9,1074.5z"/>
	<path style="fill:#161616;" d="M1535.7,1126.8c-0.3-0.2-0.5-0.4-0.8-0.6C1535.2,1126.4,1535.4,1126.6,1535.7,1126.8L1535.7,1126.8
		L1535.7,1126.8z"/>
	<path style="fill:#161616;" d="M1535.8,1126.9C1535.8,1126.9,1535.8,1126.9,1535.8,1126.9
		C1535.8,1126.9,1535.8,1126.9,1535.8,1126.9L1535.8,1126.9L1535.8,1126.9L1535.8,1126.9z"/>
	<path style="fill:#161616;" d="M1535.8,1126.9C1535.8,1126.9,1535.8,1126.9,1535.8,1126.9
		C1535.8,1126.9,1535.8,1126.9,1535.8,1126.9L1535.8,1126.9L1535.8,1126.9z"/>
	<path style="fill:#161616;" d="M1535.8,1126.9C1535.8,1126.9,1535.8,1126.9,1535.8,1126.9
		C1535.8,1126.9,1535.8,1126.9,1535.8,1126.9C1535.8,1126.9,1535.8,1126.9,1535.8,1126.9L1535.8,1126.9L1535.8,1126.9z"/>
	<path style="fill:#161616;" d="M1536,1127.1C1536,1127.1,1536,1127.1,1536,1127.1c-0.1,0-0.1-0.1-0.2-0.2
		C1535.9,1127,1535.9,1127,1536,1127.1L1536,1127.1L1536,1127.1z"/>
	<path style="fill:#161616;" d="M1423.8,917.8l-29.5,33.1l-29.5,33.1c-1.6,1.8-2.3,3.5-2.3,5.6c0,2.1,0.9,4.3,2.3,5.6
		c29.2,26,58.4,52,87.7,78.2c1.5,1.3,3,2.7,4.5,4c2.6,2.3,5.3,4.7,7.9,7c0.1-0.2,0.3-0.4,0.4-0.5c1-1.4,2.1-2.8,3.1-4.1
		c1.7-2.3,3.5-4.5,5.2-6.7c-0.5-0.5-1.1-1-1.6-1.4c-1.4-1.3-2.9-2.6-4.3-3.9c-1.4-1.3-2.8-2.5-4-3.9c-0.8-0.9-1.3-1.8-1.6-2.9
		c-0.3-0.3-0.7-0.7-1-1c-0.2-0.3-0.4-0.5-0.6-0.7c-26.3-23.4-52.6-46.8-78.9-70.2c16.1-18.1,32.3-36.2,48.4-54.3
		c29.6,26.3,59.1,52.7,88.7,79c0.7,0.5,1.4,1,2.1,1.6c1.3-1.8,2.8-3.5,4.2-5.2c1.1-1.3,2.2-2.6,3.3-3.9c0.8-1,1.7-2,2.6-2.9
		c-3.8-3.4-7.6-6.8-11.5-10.2c0,0,0,0-0.1,0l0,0l-39.1-34.8l-30.8-27.4l-14.6-13c-1.7-1.5-3.5-2.3-5.6-2.3
		C1427.3,915.5,1425.1,916.4,1423.8,917.8L1423.8,917.8L1423.8,917.8z"/>
	<path style="fill:#161616;" d="M1585,1052.8c-0.5,0.6-1,1.2-1.5,1.8c-1.8,2.4-3.5,4.9-4.7,7.6c-0.3,0.7-0.5,1.5-0.7,2.2
		c0,0.5,0,1,0,1.4c2.2,1.2,4.3,2.8,6.2,4.3c1.2,0.9,2.4,1.8,3.5,2.8c1.3,1.1,2.6,2.2,3.9,3.4c1.8,1.6,3.6,3.2,3.9,5.6
		c11.3,10.1,22.6,20.1,33.9,30.2c12.6,11.3,25.3,22.5,38,33.8c-16.2,18.2-32.4,36.3-48.6,54.5c-25.2-22.4-50.3-44.7-75.5-67.1
		c-0.9-0.9-1.9-1.7-2.8-2.6c-0.2-0.2-0.5-0.4-0.7-0.5c0.2,0.1,0.4,0.3,0.5,0.5c-0.4-0.3-0.8-0.6-1.2-0.9c0.1,0.1,0.1,0.1,0.2,0.2
		c-0.3-0.3-0.7-0.5-1-0.8c-0.1-0.1-0.2-0.1-0.3-0.2c0.1,0,0.1,0.1,0.2,0.1c-0.9-0.7-1.8-1.5-2.8-2.2c0.1,0.1,0.3,0.2,0.5,0.3
		c-0.1-0.1-0.2-0.2-0.3-0.3c0,0,0,0,0,0c0,0-0.1-0.1-0.2-0.1c-2-1.4-3.9-2.9-5.9-4.4c-0.7,1-1.5,2-2.3,3c-1.5,1.9-3,3.8-4.5,5.6
		c-0.8,1-1.6,1.9-2.4,2.9c3.6,3.2,7.3,6.3,10.9,9.4l0.1-0.1l0.5,0.4l1,0.9l37.2,33.2c10.5,9.3,20.9,18.7,31.4,28l12.4,11.1
		c1.7,1.5,3.5,2.3,5.5,2.3c2.1,0,4.3-0.9,5.5-2.3l29.5-33.2l29.4-33c1.5-1.7,2.3-3.5,2.3-5.5c0-2.1-0.9-4.3-2.3-5.5l-23.9-21.3
		l-50.7-45.1l-13.1-11.8l0,0c-3.6-3.2-7.1-6.3-10.7-9.5C1585.5,1052.3,1585.2,1052.5,1585,1052.8L1585,1052.8L1585,1052.8z"/>
	<path style="fill:#161616;" d="M1535.8,1126.9C1535.8,1126.9,1535.8,1126.9,1535.8,1126.9
		C1535.8,1126.9,1535.8,1126.9,1535.8,1126.9L1535.8,1126.9L1535.8,1126.9L1535.8,1126.9z"/>
	<path style="fill:#161616;" d="M1536.1,1127.2c0.1,0.1,0.2,0.1,0.3,0.2c-0.2-0.2-0.4-0.3-0.6-0.5
		C1535.9,1127,1536,1127.1,1536.1,1127.2L1536.1,1127.2L1536.1,1127.2z"/>
	<path style="fill:#161616;" d="M1651.6,972.5c-0.6,0.2-1.3,0.3-1.8,0.7c-0.6,0.4-1.2,0.8-1.7,1.3c-0.7,0.8-1.3,1.6-2,2.3
		c-1.6,1.9-3.2,3.8-4.9,5.7c-3.4,3.8-7.1,7.4-10.6,11.2c-3.7,4.1-7.3,8.4-10.8,12.7c-3.7,4.5-7.3,9.1-10.9,13.7
		c-3.2,4.2-6.5,8.4-9.8,12.6c-7.2,8.9-15.1,17.2-22.6,25.8c-0.8,0.9-1.3,1.9-1.4,3.1c0,1.2,0.4,2.3,1.3,3.2c1.6,1.6,4.8,1.9,6.3,0.1
		c3.9-4.5,7.9-8.9,11.9-13.3c3.5-3.7,6.9-7.5,10.2-11.4c6.9-8.3,13.6-16.5,20.6-24.7c5.6-6.6,11.2-13.1,17.3-19.2
		c2.9-2.9,5.8-5.8,8.6-8.7c1.3-1.4,2.5-2.8,3.7-4.3c0.6-0.8,1.4-1.6,1.9-2.5c1-1.8,1.3-4.3,0.1-6.1c-0.4-0.8-1-1.4-1.8-1.9
		c-0.7-0.4-1.7-0.7-2.6-0.7C1652.3,972.3,1651.9,972.4,1651.6,972.5L1651.6,972.5L1651.6,972.5z"/>
	<path style="fill:#161616;" d="M1577.4,1060.4c-1.4,1.4-1.5,3.9-0.1,5.3c3.6,3.5,7.4,7,11.2,10.4c1.4,1.3,2.9,2.5,4.4,3.8
		c0.9,0.8,1.8,1.5,2.7,2.3c0.9,0.8,1.9,1.6,2.9,2.3c0.6,0.4,1.4,0.6,2.1,0.6c3.8,3.3,7.7,6.4,11.8,9.3c0.9,0.6,2.2,0.4,3-0.4
		c0.9-0.9,1-2.5,0-3.5c-3.5-3.3-7.2-6.4-10.8-9.5c0-1-0.4-2.2-1.1-2.8c-0.3-0.2-0.6-0.5-0.8-0.7c0,0,0,0,0,0
		c-1.6-1.2-3.3-2.4-4.9-3.7c-2.4-1.9-4.7-3.9-7-5.8c-1.1-0.9-2.1-1.9-3.1-2.9c-1.6-1.5-3.3-3.1-4.9-4.6c-0.8-0.7-1.8-1.1-2.7-1.1
		C1579.1,1059.4,1578.2,1059.7,1577.4,1060.4L1577.4,1060.4L1577.4,1060.4z"/>
	<path style="fill:#404040;" d="M1517,860.6c-9.4,0-18.9,0.6-28.1,1.8c-18.4,2.6-36.4,7.5-53.4,14.5c-3.4,1.4-6.9,3.1-10.4,4.8
		c-12.6,6.2-24.8,13.8-36.1,22.4c-14,11-26.7,23.7-37.7,37.7c-11,14.4-20.2,30.2-27.4,46.8c-7.1,17-11.9,34.9-14.5,53.2
		c-2.4,18.6-2.4,37.4,0,56.1c2.6,18.3,7.5,36.2,14.5,53.2c7.1,16.6,16.3,32.4,27.4,46.8c11.1,14.2,24,27,38.2,38
		c14.3,10.9,29.8,19.9,46.3,26.9c17,7,34.9,11.9,53.1,14.5c9.3,1.2,18.8,1.8,28.1,1.8c9.3,0,18.7-0.6,27.9-1.8
		c18.6-2.6,36.7-7.6,53.9-14.8c16.2-7,31.6-16,45.7-26.7c14.4-11.2,27.3-24.2,38.6-38.6c10.9-14.5,20.1-30.2,27.1-46.7
		c7-17,11.8-34.8,14.4-53.1c2.3-18.4,2.3-37.1,0-55.7c-2.6-18.6-7.6-36.8-14.8-54.1c-7-16.2-16-31.5-26.7-45.6
		c-11-14-23.7-26.8-37.8-37.9l-0.5-0.4c-14.5-11-30.3-20.2-46.9-27.3c-17-7-34.8-11.8-53-14.4C1535.5,861.2,1526.2,860.6,1517,860.6
		L1517,860.6L1517,860.6z M1519.5,993C1519.5,993,1519.5,993,1519.5,993l66.3-82.4c1.2-1.5,3.6-2.2,5.3-2.2c1.3,0,2.6,0.3,3.8,1
		l1.5,1.2l22.9,18.4l15.3,12.3l30.5,24.5c1.5,1.2,2.2,3.5,2.2,5.2c0,1.4-0.4,2.6-1,3.7l-1.2,1.5c-14.9,18.5-29.8,37-44.7,55.5
		l-22.3,27.7l-0.8,1l-0.8,1l13.1,11.8l50.7,45.1l23.9,21.3c1.4,1.2,2.3,3.4,2.3,5.5c0,2-0.7,3.8-2.3,5.5l-29.4,33l-29.5,33.2
		c-1.2,1.4-3.4,2.3-5.5,2.3c-2,0-3.8-0.7-5.5-2.3l-12.4-11.1c-10.5-9.3-21-18.7-31.4-28l-37.2-33.2l-1-0.9l-0.5-0.4l-4,4.9
		c-19.1,23.8-38.2,47.6-57.3,71.4l-12.6,15.7c-1.2,1.5-3.7,2.3-5.5,2.3c-1.4,0-2.7-0.3-3.9-1l-1.6-1.2l-34.1-27.4l-34.7-27.8
		c-1.6-1.2-2.3-3.7-2.3-5.5c0-1.4,0.4-2.7,1.1-3.9l1-1.3c22.9-28.6,45.6-56.8,68.4-85.1l5.1-6.4l2.7-3.3
		c-29.7-26.6-59.4-53-89.1-79.4c-1.4-1.2-2.3-3.4-2.3-5.6c0-2,0.7-3.8,2.3-5.6l29.5-33.1l29.5-33.1c1.2-1.4,3.4-2.3,5.6-2.3
		c2,0,3.8,0.8,5.6,2.3l14.6,13l30.8,27.4L1519.5,993L1519.5,993L1519.5,993L1519.5,993z"/>
</g>
</svg>
