<?xml version="1.0" encoding="utf-8"?>
<!-- Generator: Adobe Illustrator 22.1.0, SVG Export Plug-In . SVG Version: 6.00 Build 0)  -->
<svg version="1.1" id="Layer_1" xmlns="http://www.w3.org/2000/svg" xmlns:xlink="http://www.w3.org/1999/xlink" x="0px" y="0px"
	 viewBox="0 0 2000 2000" style="enable-background:new 0 0 2000 2000;" xml:space="preserve">
<g>
	<path style="fill:#161616;" d="M1000.6,11.4c-40,0-81,2.6-122,7.6C764.8,33,654.3,67.8,550.2,122.5c-47.9,25.1-95,55.5-140.1,90.1
		C366.7,246,325.2,284.1,286.8,326c-37.6,41-72.1,86.1-102.7,133.9c-29.9,46.8-56.3,97.8-78.5,151.5c-45,109-69.2,226-71.8,347.7
		c-1.3,59.3,3.2,120.1,13.3,180.7c4.7,28.2,11.1,57.7,19.1,87.7c7.1,26.6,15.7,53.9,26.5,83.4c39.2,107.4,97.7,207.1,174.2,296.4
		c71.8,84,157.6,154.8,254.9,210.6c48.3,27.7,100.2,51.5,154.3,70.9c53,19,109.8,33.5,169,43.3c50.7,8.3,102.7,12.6,154.7,12.6
		c68,0,136.3-7.2,203-21.3c52.1-11,105.1-27.3,157.4-48.2c47.7-19.1,95.1-42.8,140.9-70.6c43.5-26.4,85.9-57,126.1-91.2
		c38.7-32.9,76.1-70.5,111.2-111.8c35.4-41.7,68-87.6,96.6-136.5c28.3-48.3,52.8-100.3,72.7-154.6c2.4-6.6,4.7-13.1,6.9-19.7
		c0.8-2.3,1.6-4.7,2.4-7c17.7-52.6,30.9-108.8,39.5-167c8.8-60.3,11.8-122.9,8.9-186c-2.8-59.9-11.5-120.5-25.8-180.2
		c-13.5-56.3-32.9-112.8-57.7-168.2c-23.5-52.6-52.8-104.3-87-153.9c-32.5-47-69.8-91.7-110.8-133c-39.5-39.7-83.6-76.8-131.1-110.1
		c-45.5-32-95.5-60.7-148.7-85.4c-51.5-23.9-106.6-43.5-163.7-58.2c-57-14.7-117-24.2-178.3-28.3
		C1041.9,12.1,1021.2,11.4,1000.6,11.4L1000.6,11.4L1000.6,11.4z M677.9,83.4L677.9,83.4l0.6-0.2c-1.6,0.6-3.2,1.2-4.9,1.7
		c1.3-0.5,2.6-1,3.9-1.4l0,0l0,0C677.8,83.4,677.9,83.4,677.9,83.4L677.9,83.4L677.9,83.4z M925.4,158.7c22.1-1.7,44.6-2.6,66.8-2.6
		c0,0,0,0,0,0c14.6,0,29.4,0.4,44.1,1.1c35.7,1.8,72.5,6.1,109.4,12.9c35.7,6.8,71.3,16,105.8,27.3c33.7,11,67.7,24.8,101.2,41
		l-1.8-1c31.7,15.5,62.7,33,92.2,52.2c29.2,19,58.1,40.7,86.1,64.6c0,0,0,0,0,0l0.5,0.4l-0.5-0.5c0,0,0,0,0,0c0,0,0,0,0,0
		c0,0,0,0,0,0.1l-0.9-0.9c26.9,23.3,52.6,48.3,76.4,74.6c23.2,25.6,45.6,53.8,66.4,83.7c20.1,29.3,38.6,60,54.9,91.3
		c15.9,30.6,30.3,63.5,42.8,97.7l0.2,0.4l0.2,0.4c0,0,0,0,0,0c0,0,0,0.1,0,0.1l0-0.1l0,0c0,0,0-0.2,0-0.2c0,0,0-0.1,0-0.2l0.2,0.8
		c11.8,33.2,21.8,67.7,29.4,102.3c7.6,34.4,13,70.6,16.2,107.7l0,0.5c0,0,0,0,0,0c0,0,0,0,0,0l0-0.1l0,0c0,0,0-0.2,0-0.2
		c0,0,0,0,0-0.1c0,0.5,0,1,0.1,1.5l0-0.5c2.8,36.5,3.3,73.7,1.4,110.5c-1.8,35.9-6.2,72.8-13,109.6c-6.8,35.9-16.1,71.7-27.4,106.3
		c-11,33.4-24.7,67.3-40.8,100.7c-15.7,32.1-33.6,63.4-53.1,93.2c-18.9,28.8-40.5,57.4-64.2,85c-22.9,26.4-47.5,51.5-73.3,74.8
		c-7.2,6.5-14.6,12.9-22,19.1c-18.3,15.3-37.8,30.2-58.2,44.4c-29.2,20.2-60.1,38.8-91.6,55.2c-31.7,16.5-65.2,31.2-99.5,43.7
		c-33.1,11.9-67.3,21.8-101.6,29.5c-35,7.8-71.9,13.4-109.5,16.6l-0.7,0.1c-22.4,1.8-45.1,2.7-67.6,2.7c-13.7,0-27.7-0.3-41.5-1
		c-36.6-1.7-74.4-6.2-112.1-13.1c-36.1-6.9-72.1-16.2-106.9-27.7c-33.7-11.1-67.9-25-101.6-41.4l0.8,0.4
		c-30.9-15.3-61.3-32.5-90.2-51.4c-29-18.9-57.8-40.5-85.6-64.3c-26.4-22.8-51.6-47.4-75-73.1c-23.2-25.5-45.4-53.5-66.1-83.2
		c-20-29-38.4-59.6-54.7-90.8c-16.6-31.8-31.5-65.9-44.3-101.3l0.4,1.3c-12-33.8-22-68.7-29.7-103.7c-7.5-34.1-12.8-70-16-106.9
		l0-0.5c0,0,0-0.3-0.1-0.3l0,0l0,0c0,0-0.1-0.3-0.1-0.3c0,0,0,0,0,0c-2.7-36.4-3.2-73.5-1.4-110.4c1.8-36.1,6.3-73.4,13.2-110.7
		c7.1-36.9,16.7-73.6,28.6-109c10.6-31.7,23.8-64.1,39.2-96.1c15.5-31.8,33.3-63,52.8-92.7c18.8-28.8,40.4-57.4,64-85l-0.7,0.7
		l-0.7,0.8c22.9-26.5,47.7-51.9,73.7-75.5c25.4-23.1,53.4-45.4,83.3-66.3l0.5-0.4l-0.5,0.3c0,0,0.3-0.2,0.3-0.2c0,0,0,0,0,0
		c0,0,0,0,0,0c0,0,0.4-0.2,0.4-0.2l0.3-0.2c28.7-19.8,58.6-37.8,89.1-53.7c31.2-16.3,64.7-31,99.6-43.8
		c33.3-11.9,67.6-21.9,102-29.5c34.9-7.8,71.8-13.4,109.8-16.6l-0.5,0l0.6,0v0l0.4,0L925.4,158.7L925.4,158.7L925.4,158.7
		L925.4,158.7z M218,1518.1l-0.1-0.1l-0.1-0.3c0.5,0.7,0.9,1.4,1.4,2.1c-0.3-0.4-0.6-0.8-0.9-1.3c0,0,0,0,0,0l0,0
		c-0.1-0.1-0.1-0.1-0.2-0.2L218,1518.1L218,1518.1C218,1518.1,218,1518.1,218,1518.1L218,1518.1L218,1518.1L218,1518.1z M822.8,1912
		l-0.2,0l-0.3-0.1c1.3,0.3,2.7,0.5,4,0.8c-1-0.2-2-0.4-3-0.6c0,0,0,0,0,0v0c-0.1,0-0.2,0-0.3-0.1l0,0l0,0
		C822.9,1912,822.8,1912,822.8,1912L822.8,1912L822.8,1912L822.8,1912z"/>
	<path style="fill:#161616;" d="M1499.9,823.4c-15.1,1.1-30,3.8-44.6,7.9c-13.6,3.9-26.8,9.1-39.4,15.4c-1.1,0.6-2.3,1.2-3.4,1.8
		c-9.7,5.1-19,10.9-27.9,17.4c-10.8,7.9-20.9,16.6-30.1,26.3c-9.3,9.6-17.6,20.1-25,31.2c-7.3,10.9-13.6,22.5-18.9,34.6
		c-5.7,13.1-10.2,26.6-13.3,40.5c-3.2,14.3-5,28.9-5.4,43.5c-0.5,14.9,0.8,29.9,3.3,44.7c2.3,14.1,6.2,27.9,11.3,41.2
		c5,13.1,11.2,25.8,18.5,37.8c7.3,11.9,15.7,23,25,33.4c9.3,10.4,19.7,19.7,30.8,28.2c21.7,16.8,46.8,29.3,73.1,37
		c13.9,4.1,28.3,6.7,42.8,8c13.6,1.3,27.4,1.3,41.1,0c12.4-1.2,24.8-3.3,36.9-6.5c11.8-3.1,23.3-7.3,34.5-12.3
		c21.6-9.6,41.5-22.8,59.1-38.6c38.5-34.6,64.3-82.8,71.6-134.1c2.2-15.3,2.9-30.7,2-46.1c-0.9-14.9-3.2-29.7-7-44.1
		c-3.8-14.4-9.1-28.4-15.7-41.8c-6.3-13-14-25.3-22.8-36.8c-9.1-11.9-19.3-23-30.6-32.9c-11.5-10.1-24.1-19.1-37.4-26.7
		c-12.7-7.3-26.2-13.2-40.1-17.9c-14.3-4.8-29-7.9-43.9-9.8c-9-1.2-18.1-1.7-27.2-1.7C1511.4,822.7,1505.7,822.9,1499.9,823.4
		L1499.9,823.4L1499.9,823.4z M1488.8,1255.4c-18.2-2.6-36.1-7.5-53.1-14.5c-16.4-7-32-16.1-46.3-26.9c-14.2-11.1-27.1-23.9-38.2-38
		c-11.1-14.5-20.3-30.2-27.4-46.9c-7.1-17-11.9-34.9-14.5-53.2c-2.4-18.7-2.4-37.6,0-56.1c2.6-18.3,7.5-36.2,14.5-53.2
		c7.1-16.6,16.3-32.3,27.4-46.8c11-14,23.6-26.7,37.7-37.7c11.3-8.6,23.5-16.2,36.1-22.4c3.5-1.8,7.1-3.4,10.4-4.8
		c17-7.1,35-11.9,53.4-14.5c9.3-1.2,18.7-1.8,28.1-1.8c9.2,0,18.5,0.6,27.6,1.7c18.2,2.6,36,7.4,53,14.4
		c16.6,7.1,32.4,16.2,46.9,27.3l0.5,0.4c14.1,11.1,26.8,23.9,37.8,37.9c10.7,14.1,19.7,29.5,26.7,45.6c7.2,17.2,12.2,35.4,14.9,54.1
		c2.3,18.5,2.3,37.3,0,55.7c-2.6,18.2-7.4,36.1-14.4,53.1c-7.1,16.5-16.2,32.2-27.1,46.7c-11.3,14.5-24.3,27.5-38.6,38.6
		c-14.1,10.7-29.5,19.7-45.7,26.7c-17.1,7.2-35.3,12.1-53.9,14.8c-9.2,1.2-18.6,1.8-27.9,1.8
		C1507.5,1257.2,1498.1,1256.6,1488.8,1255.4L1488.8,1255.4L1488.8,1255.4z"/>
	<path style="fill:#161616;" d="M1585.8,888.6l-66.2,82.4c0,0-0.1,0.1-0.1,0.1l0,0c-3.5,4.4-7,8.8-10.6,13.1
		c0.2,0.1,0.4,0.3,0.6,0.4c0.6,0.5,1.2,0.9,1.8,1.3c1,0.7,1.9,1.5,2.9,2.2c1.1,0.8,2.2,1.7,3.3,2.5c1.1,0.9,2.3,1.7,3.4,2.6
		c1.3-1.8,2.8-3.5,4.1-5.2c1.1-1.3,2.2-2.6,3.3-3.9c0.4-0.5,0.8-1,1.3-1.5c20.9-26,41.7-52.1,62.6-78.2c19,15.3,38.1,30.5,57.1,45.7
		c-17.9,22.4-35.8,44.9-53.8,67.3c-0.2,1.2-0.8,2.4-1.7,3.4c-2.9,3.2-5.8,6.4-8.7,9.6c-0.8,1-1.6,2-2.4,3c-1.5,2.2-2.9,4.4-4.1,6.8
		c-0.3,0.7-0.5,1.5-0.7,2.2c0,0.5,0,1,0,1.4c2.2,1.2,4.3,2.8,6.2,4.3c1.1,0.8,2.1,1.6,3.2,2.5c3-3.7,6-7.4,9-11.1l-0.1-0.1l0.8-1
		l0.8-1l22.3-27.7c14.9-18.5,29.8-37,44.7-55.5l1.2-1.5c0.7-1.1,1-2.4,1-3.7c0-1.7-0.7-4-2.2-5.2l-30.5-24.5l-15.3-12.3l-22.9-18.4
		l-1.5-1.2c-1.2-0.7-2.5-1-3.8-1C1589.4,886.4,1587,887.1,1585.8,888.6L1585.8,888.6L1585.8,888.6z"/>
	<path style="fill:#161616;" d="M1453.9,1052.5C1453.9,1052.6,1453.9,1052.6,1453.9,1052.5l-2.6,3.4l-5.1,6.4
		c-22.7,28.2-45.4,56.5-68.4,85.1l-1,1.3c-0.7,1.2-1,2.5-1,3.9c0,1.8,0.7,4.2,2.3,5.5l34.7,27.8l34.1,27.4l1.6,1.2
		c1.2,0.7,2.5,1,3.9,1c1.8,0,4.2-0.7,5.5-2.3l12.6-15.7c19.1-23.8,38.2-47.6,57.3-71.4l3.7-4.5c3.3-4.2,6.7-8.3,10-12.5
		c-0.4-0.3-0.8-0.6-1.3-1c0.1,0.1,0.3,0.2,0.4,0.3c-0.3-0.3-0.7-0.5-1-0.8c0,0,0,0,0,0c-0.4-0.3-0.7-0.5-1.1-0.8
		c-0.1,0-0.1-0.1-0.2-0.2c0.1,0,0.1,0.1,0.2,0.2c-0.9-0.7-1.9-1.5-2.8-2.2c0.1,0.1,0.2,0.1,0.2,0.2c0,0-0.1,0-0.1-0.1c0,0,0,0,0,0
		c0,0,0,0,0,0c0,0,0,0,0,0c-2-1.5-4-2.9-6-4.5c-0.7,1-1.5,2-2.3,3c-1.5,1.9-3,3.8-4.5,5.6c-1.3,1.7-2.7,3.3-4.1,4.9
		c-0.7,0.8-1.4,1.6-2,2.4c-0.4,0.4-0.7,0.8-1.1,1.3c-0.9,1-1.9,1.8-3,2.6c-0.2,0.2-0.5,0.3-0.7,0.4c-20.4,25.4-40.8,50.8-61.1,76.2
		c-18.9-15.1-37.7-30.3-56.6-45.4c22.3-27.8,44.6-55.6,66.9-83.5c1-2.2,2.7-4.2,4-6.1c1-1.4,2.1-2.8,3.1-4.1
		c1.7-2.3,3.5-4.5,5.2-6.7c-0.5-0.5-1.1-1-1.6-1.4c-1.4-1.3-2.9-2.6-4.3-3.9c-1.4-1.3-2.8-2.5-4-3.9c-0.2-0.3-0.5-0.5-0.7-0.8
		C1460.1,1044.8,1457,1048.7,1453.9,1052.5L1453.9,1052.5L1453.9,1052.5z"/>
	<path style="fill:#161616;" d="M1535.7,1104.8c-0.3-0.2-0.5-0.4-0.8-0.6C1535.2,1104.4,1535.4,1104.6,1535.7,1104.8L1535.7,1104.8
		L1535.7,1104.8z"/>
	<path style="fill:#161616;" d="M1535.8,1104.9C1535.8,1104.9,1535.8,1104.9,1535.8,1104.9
		C1535.8,1104.9,1535.8,1104.9,1535.8,1104.9L1535.8,1104.9L1535.8,1104.9L1535.8,1104.9z"/>
	<path style="fill:#161616;" d="M1535.8,1104.9C1535.8,1104.9,1535.8,1104.9,1535.8,1104.9
		C1535.8,1104.9,1535.8,1104.9,1535.8,1104.9L1535.8,1104.9L1535.8,1104.9z"/>
	<path style="fill:#161616;" d="M1535.8,1104.9C1535.8,1104.9,1535.8,1104.9,1535.8,1104.9
		C1535.8,1104.9,1535.8,1104.9,1535.8,1104.9L1535.8,1104.9L1535.8,1104.9L1535.8,1104.9z"/>
	<path style="fill:#161616;" d="M1536,1105.1C1536,1105.1,1536,1105.1,1536,1105.1c-0.1,0-0.1-0.1-0.2-0.2
		C1535.9,1105,1535.9,1105,1536,1105.1L1536,1105.1L1536,1105.1z"/>
	<path style="fill:#161616;" d="M1423.8,895.8l-29.5,33.1l-29.5,33.1c-1.6,1.8-2.3,3.5-2.3,5.6c0,2.1,0.9,4.3,2.3,5.6
		c29.2,26,58.4,52,87.7,78.2c1.5,1.3,3,2.7,4.5,4c2.6,2.3,5.3,4.7,7.9,7c0.1-0.2,0.3-0.4,0.4-0.5c1-1.4,2.1-2.8,3.1-4.1
		c1.7-2.3,3.5-4.5,5.2-6.7c-0.5-0.5-1.1-1-1.6-1.4c-1.4-1.3-2.9-2.6-4.3-3.9c-1.4-1.3-2.8-2.5-4-3.9c-0.8-0.9-1.3-1.8-1.6-2.9
		c-0.3-0.3-0.7-0.7-1-1c-0.2-0.3-0.4-0.5-0.6-0.7c-26.3-23.4-52.6-46.8-78.9-70.2c16.1-18.1,32.3-36.2,48.4-54.3
		c29.6,26.3,59.1,52.7,88.7,79c0.7,0.5,1.4,1,2.1,1.6c1.3-1.8,2.8-3.5,4.2-5.2c1.1-1.3,2.2-2.6,3.3-3.9c0.8-1,1.7-2,2.6-2.9
		c-3.8-3.4-7.6-6.8-11.5-10.2c0,0,0,0-0.1,0l0,0l-39.1-34.8l-30.8-27.4l-14.6-13c-1.7-1.5-3.5-2.3-5.6-2.3
		C1427.3,893.5,1425.1,894.4,1423.8,895.8L1423.8,895.8L1423.8,895.8z"/>
	<path style="fill:#161616;" d="M1585,1030.8c-0.5,0.6-1,1.2-1.5,1.8c-1.8,2.4-3.5,4.9-4.7,7.6c-0.3,0.7-0.5,1.5-0.7,2.2
		c0,0.5,0,1,0,1.4c2.2,1.2,4.3,2.8,6.2,4.3c1.2,0.9,2.4,1.8,3.5,2.8c1.3,1.1,2.6,2.2,3.9,3.4c1.8,1.6,3.6,3.2,3.9,5.6
		c11.3,10.1,22.6,20.1,33.9,30.2c12.6,11.3,25.3,22.5,38,33.8c-16.2,18.2-32.4,36.3-48.6,54.5c-25.2-22.4-50.3-44.7-75.5-67.1
		c-0.9-0.9-1.9-1.7-2.8-2.6c-0.2-0.2-0.5-0.4-0.7-0.5c0.2,0.1,0.4,0.3,0.5,0.5c-0.4-0.3-0.8-0.6-1.2-0.9c0.1,0.1,0.1,0.1,0.2,0.2
		c-0.3-0.3-0.7-0.5-1-0.8c-0.1-0.1-0.2-0.1-0.3-0.2c0.1,0,0.1,0.1,0.2,0.1c-0.9-0.7-1.8-1.5-2.8-2.2c0.1,0.1,0.3,0.2,0.5,0.3
		c-0.1-0.1-0.2-0.2-0.3-0.3c0,0,0,0,0,0c0,0-0.1-0.1-0.2-0.1c-2-1.4-3.9-2.9-5.9-4.4c-0.7,1-1.5,2-2.3,3c-1.5,1.9-3,3.8-4.5,5.6
		c-0.8,1-1.6,1.9-2.4,2.9c3.6,3.2,7.3,6.3,10.9,9.4l0.1-0.1l0.5,0.4l1,0.9l37.2,33.2c10.5,9.3,20.9,18.7,31.4,28l12.4,11.1
		c1.7,1.5,3.5,2.3,5.5,2.3c2.1,0,4.3-0.9,5.5-2.3l29.5-33.2l29.4-33c1.5-1.7,2.3-3.5,2.3-5.5c0-2.1-0.9-4.3-2.3-5.5l-23.9-21.3
		l-50.7-45.1l-13.1-11.8l0,0c-3.6-3.2-7.1-6.3-10.7-9.5C1585.5,1030.3,1585.2,1030.5,1585,1030.8L1585,1030.8L1585,1030.8z"/>
	<path style="fill:#161616;" d="M1535.8,1104.9C1535.8,1104.9,1535.8,1104.9,1535.8,1104.9
		C1535.8,1104.9,1535.8,1104.9,1535.8,1104.9L1535.8,1104.9L1535.8,1104.9L1535.8,1104.9z"/>
	<path style="fill:#161616;" d="M1536.1,1105.2c0.1,0.1,0.2,0.1,0.3,0.2c-0.2-0.2-0.4-0.3-0.6-0.5
		C1535.9,1105,1536,1105.1,1536.1,1105.2L1536.1,1105.2L1536.1,1105.2z"/>
	<path style="fill:#161616;" d="M1651.6,950.5c-0.6,0.2-1.3,0.3-1.8,0.7c-0.6,0.4-1.2,0.8-1.7,1.3c-0.7,0.8-1.3,1.6-2,2.3
		c-1.6,1.9-3.2,3.8-4.9,5.7c-3.4,3.8-7.1,7.4-10.6,11.2c-3.7,4.1-7.3,8.4-10.8,12.7c-3.7,4.5-7.3,9.1-10.9,13.7
		c-3.2,4.2-6.5,8.4-9.8,12.6c-7.2,8.9-15.1,17.2-22.6,25.8c-0.8,0.9-1.3,1.9-1.4,3.1c0,1.2,0.4,2.3,1.3,3.2c1.6,1.6,4.8,1.9,6.3,0.1
		c3.9-4.5,7.9-8.9,11.9-13.3c3.5-3.7,6.9-7.5,10.2-11.4c6.9-8.3,13.6-16.5,20.6-24.7c5.6-6.6,11.2-13.1,17.3-19.2
		c2.9-2.9,5.8-5.8,8.6-8.7c1.3-1.4,2.5-2.8,3.7-4.3c0.6-0.8,1.4-1.6,1.9-2.5c1-1.8,1.3-4.3,0.1-6.1c-0.4-0.8-1-1.4-1.8-1.9
		c-0.7-0.4-1.7-0.7-2.6-0.7C1652.3,950.3,1651.9,950.4,1651.6,950.5L1651.6,950.5L1651.6,950.5z"/>
	<path style="fill:#161616;" d="M1577.4,1038.4c-1.4,1.4-1.5,3.9-0.1,5.3c3.6,3.5,7.4,7,11.2,10.4c1.4,1.3,2.9,2.5,4.4,3.8
		c0.9,0.8,1.8,1.5,2.7,2.3c0.9,0.8,1.9,1.6,2.9,2.3c0.6,0.4,1.4,0.6,2.1,0.6c3.8,3.3,7.7,6.4,11.8,9.3c0.9,0.6,2.2,0.4,3-0.4
		c0.9-0.9,1-2.5,0-3.5c-3.5-3.3-7.2-6.4-10.8-9.5c0-1-0.4-2.2-1.1-2.8c-0.3-0.2-0.6-0.5-0.8-0.7c0,0,0,0,0,0
		c-1.6-1.2-3.3-2.4-4.9-3.7c-2.4-1.9-4.7-3.9-7-5.8c-1.1-0.9-2.1-1.9-3.1-2.9c-1.6-1.5-3.3-3.1-4.9-4.6c-0.8-0.7-1.8-1.1-2.7-1.1
		C1579.1,1037.4,1578.2,1037.7,1577.4,1038.4L1577.4,1038.4L1577.4,1038.4z"/>
	<path style="fill:#404040;" d="M1517,838.6c-9.4,0-18.9,0.6-28.1,1.8c-18.4,2.6-36.4,7.5-53.4,14.5c-3.4,1.4-6.9,3.1-10.4,4.8
		c-12.6,6.2-24.8,13.8-36.1,22.4c-14,11-26.7,23.7-37.7,37.7c-11,14.4-20.2,30.2-27.4,46.8c-7.1,17-11.9,34.9-14.5,53.2
		c-2.4,18.6-2.4,37.4,0,56.1c2.6,18.3,7.5,36.2,14.5,53.2c7.1,16.6,16.3,32.4,27.4,46.8c11.1,14.2,24,27,38.2,38
		c14.3,10.9,29.8,19.9,46.3,26.9c17,7,34.9,11.9,53.1,14.5c9.3,1.2,18.8,1.8,28.1,1.8c9.3,0,18.7-0.6,27.9-1.8
		c18.6-2.6,36.7-7.6,53.9-14.8c16.2-7,31.6-16,45.7-26.7c14.4-11.2,27.3-24.2,38.6-38.6c10.9-14.5,20.1-30.2,27.1-46.7
		c7-17,11.8-34.8,14.4-53.1c2.3-18.4,2.3-37.1,0-55.7c-2.6-18.6-7.6-36.8-14.8-54.1c-7-16.2-16-31.5-26.7-45.6
		c-11-14-23.7-26.8-37.8-37.9l-0.5-0.4c-14.5-11-30.3-20.2-46.9-27.3c-17-7-34.8-11.8-53-14.4C1535.5,839.2,1526.2,838.6,1517,838.6
		L1517,838.6L1517,838.6z M1519.5,971C1519.5,971,1519.5,971,1519.5,971l66.3-82.4c1.2-1.5,3.6-2.2,5.3-2.2c1.3,0,2.6,0.3,3.8,1
		l1.5,1.2l22.9,18.4l15.3,12.3l30.5,24.5c1.5,1.2,2.2,3.5,2.2,5.2c0,1.4-0.4,2.6-1,3.7l-1.2,1.5c-14.9,18.5-29.8,37-44.7,55.5
		l-22.3,27.7l-0.8,1l-0.8,1l13.1,11.8l50.7,45.1l23.9,21.3c1.4,1.2,2.3,3.4,2.3,5.5c0,2-0.7,3.8-2.3,5.5l-29.4,33l-29.5,33.2
		c-1.2,1.4-3.4,2.3-5.5,2.3c-2,0-3.8-0.7-5.5-2.3l-12.4-11.1c-10.5-9.3-21-18.7-31.4-28l-37.2-33.2l-1-0.9l-0.5-0.4l-4,4.9
		c-19.1,23.8-38.2,47.6-57.3,71.4l-12.6,15.7c-1.2,1.5-3.7,2.3-5.5,2.3c-1.4,0-2.7-0.4-3.9-1l-1.6-1.2l-34.1-27.4l-34.7-27.8
		c-1.6-1.2-2.3-3.7-2.3-5.5c0-1.4,0.4-2.7,1.1-3.9l1-1.3c22.9-28.6,45.6-56.8,68.4-85.1l5.1-6.4l2.7-3.3
		c-29.7-26.6-59.4-53-89.1-79.4c-1.4-1.2-2.3-3.4-2.3-5.6c0-2,0.7-3.8,2.3-5.6l29.5-33.1l29.5-33.1c1.2-1.4,3.4-2.3,5.6-2.3
		c2,0,3.8,0.8,5.6,2.3l14.6,13l30.8,27.4L1519.5,971L1519.5,971L1519.5,971L1519.5,971z"/>
	<path style="fill:#161616;" d="M441.4,586.9c-4.2,0-8.2,3.1-8.3,7.6c-2,142.8-4.1,285.6-6.1,428.3c-0.7,49.5-1.4,99.1-2.1,148.6
		c0,0.3,0,0.7,0,1c-0.1,6.3-0.2,12.7-0.3,19c-0.2,14-0.4,27.9-0.6,41.9c-0.4,28-0.8,55.9-1.2,83.8c0,0.1,0,0.1,0,0.2
		c0,4.2,3.1,8.2,7.6,8.2c83,1.2,166,2.4,249,3.5c1.8-3.4,4-6.5,6.7-9.5c2.3-2.1,4.8-4.2,7.3-6.3c-7.5-0.1-15-0.2-22.4-0.3
		c-77.3-1.1-154.6-2.2-232-3.3c0.4-25.2,0.7-50.3,1.1-75.5c0-3.2,0.1-6.3,0.1-9.5c0.1-9.3,0.3-18.6,0.4-27.8c0-1.5,0-3,0.1-4.6
		c0-2.2,0.1-4.4,0.1-6.5c1.4-98.1,2.8-196.2,4.2-294.3c1.4-96.1,2.7-192.3,4.1-288.4c142.8,2,285.7,4,428.5,6.1
		c144,2.1,288.1,4.1,432.2,6.1c76.5,1.1,153,2.2,229.6,3.3c-0.9,64.6-1.8,129.3-2.8,193.9c-0.1,4.4,3,8.2,7.6,8.4
		c4.2,0.2,8.4-3.2,8.4-7.6c1-67.4,1.9-134.8,2.9-202.2c0.1-4.2-3-8.4-7.6-8.4c-143.2-2-286.4-4.1-429.5-6.1
		c-144.1-2-288.1-4.1-432.2-6.2c-81.5-1.1-163-2.3-244.5-3.5C441.5,586.9,441.5,586.9,441.4,586.9L441.4,586.9L441.4,586.9z"/>
	<path style="fill:#161616;" d="M1530,1271.2c-0.2,10.3-0.3,20.6-0.4,30.9c-0.1,7.7-0.2,15.5-0.3,23.2
		c-80.6-1.2-161.2-2.3-241.7-3.4c2.6,1.3,5,2.9,7.4,4.8c0.7,0.5,1.4,1.2,2,1.8c1,0.7,1.9,1.4,2.8,2.2c1.5,1.8,3,3.5,4.5,5.3
		c0.5,0.7,0.9,1.4,1.3,2.2c36.2,0.5,72.3,1,108.5,1.5c40.9,0.6,81.8,1.2,122.7,1.7c4.2,0.1,8.4-3,8.4-7.6
		c0.3-20.6,0.6-41.2,0.9-61.7c0.1-4.4-3-8.2-7.5-8.4c-0.1,0-0.3,0-0.4,0C1533.9,1263.6,1530,1266.9,1530,1271.2L1530,1271.2
		L1530,1271.2z"/>
	<path style="fill:#161616;" d="M812.6,1186.4c-4.1,0.1-8.3,0.3-12.4,0.7c-3.3,0.4-6.6,1.8-9.5,3.2c-1.7,0.8-3.4,1.7-5,2.7
		c-3.1,2.1-6.1,4.3-9.1,6.6c-4.8,3.7-9.5,7.8-14.2,11.6c-4.8,3.9-9.7,7.8-14.4,11.8c-5.4,4.7-10.4,9.7-14.8,15.4
		c-1.5,1.9-1.6,4.6-0.7,6.9c-26.2,29.5-52.4,59-78.8,88.4c-4.3,4.7-8.6,9.4-12.9,14c-4.4,4.7-8.9,9.5-13.3,14.2
		c-2.3,2.4-4.5,4.9-6.8,7.3c-7,7.1-14,14.1-21,21.2c-6.1,6.1-12.4,12-18.6,17.9c-12.9,12.4-26,24.6-39,36.9
		c-6,5.7-12.1,11.5-18,17.3c-3.3,3.2-6.6,6.4-9.8,9.7c-1,1-2,2.1-3,3.2c-1,1.1-2,2.3-3,3.4c-1,1.2-1.6,2.8-2.1,4.2
		c-1.1,3-0.6,6.8,0.8,9.6c1.3,2.7,3.2,4.9,5.5,6.9c4.7,4.1,10,7.3,15.5,10.2c3.7,2,7.5,3.9,11.3,5.6c5.3,2.4,10.6,4.8,16,7.1
		c8.3,3.7,16.7,7.3,25.1,10.9c15.2,6.5,30.5,12.7,45.9,18.6c18.7,7.2,37.4,14.3,56.1,21.4c16,6.1,31.9,12.3,48,18.2
		c34.6,12.8,69.5,24.7,104.3,37c16,5.6,32,11.4,48.1,16.5c17.7,5.7,35.4,11.3,53.1,16.8c16.8,5.2,33.5,10.6,50.4,15.6
		c8.5,2.5,17,5,25.6,7.1c3.5,0.8,6.9,1.8,10.5,2.3c2.8,0.4,5.5,0.6,8.3,0.5c1.7-0.1,3.3-0.3,5-0.5c2.1-0.3,4.2-1.1,6.2-1.8
		c5.7-2.1,10.7-5.4,15.6-8.9c5.4-3.8,10.5-8,15.5-12.2c3.7-3.1,7.2-6.5,10.8-9.7c2.5-2.3,5-4.5,7.4-6.8c6.4-6.2,13.1-12.3,19.2-18.8
		c6.5-6.8,13.2-13.6,19.3-20.7c6.9-8.1,13.9-16.1,20.8-24.2c6.1-7,11.8-14.3,17.7-21.5c5.3-6.5,10.6-13,15.8-19.5
		c10.7-13.3,21.2-26.7,31.4-40.4c11.2-15.1,22.2-30.2,33.5-45.2c11.1-14.8,22.7-29.2,34.4-43.6c5.4-6.6,11-13,16.5-19.5
		c5.7-6.7,11.4-13.6,16.9-20.4c5.3-6.7,10.3-13.8,14.8-21c2.3-3.6,4.5-7.2,6.5-10.9c1.1-2.1,2.1-4.3,3-6.6c1-2.5,1.8-5.5,1.2-8.2
		c-0.3-1.4-0.8-2.7-1.6-3.9c-1.2-2-2.8-3.3-4.5-4.8c-0.9-0.7-2.1-1.3-3.1-1.8c-1.4-0.8-2.9-1.4-4.3-2.1c-2.6-1.2-5.4-2.1-8.2-3
		c-3.4-1.1-6.8-2.1-10.2-3c-4.3-1.2-8.6-2.4-12.9-3.5c-8.6-2.2-17.3-4.3-26-6.4c-17.6-4.2-35.3-8.2-53-12.2
		c-35.1-8.1-70.1-16.2-105.1-24.7c-35-8.5-70.1-16.9-104.9-26.2c-17.8-4.7-35.5-9.5-53.2-14.4c-18.4-5.2-36.8-10.4-55.1-15.6
		c-7.8-2.2-15.6-4.5-23.4-6.7c-8.9-2.5-17.7-5.1-26.6-7.3c-4.2-1-8.4-2.1-12.7-2.9c-4.7-0.9-9.4-1.8-14.2-2.2
		c-1.3-0.1-2.6-0.1-4-0.1C817,1186.3,814.8,1186.3,812.6,1186.4L812.6,1186.4L812.6,1186.4z M541.1,1498.6c-6-3-12.1-6.2-17.4-10.4
		c-0.4-0.4-0.8-0.8-1.3-1.2c2.8-3,5.8-5.9,8.7-8.8c3.5-3.5,7.1-6.9,10.6-10.3c6.6-6.4,13.3-12.7,20-19
		c12.5-11.8,25.1-23.6,37.5-35.6c6.3-6.1,12.6-12.3,18.8-18.5c5.7-5.8,11.5-11.5,17.1-17.5c7.6-8.2,15.3-16.4,23-24.6
		c5.1-5.5,10-11.1,15-16.7c2.2-2.5,4.4-4.9,6.6-7.4c1.8-3.2,3.9-6.2,6.4-9c2.3-2.1,4.7-4.2,7.2-6.3c18.8-21,37.5-42.1,56.2-63.3
		c1.5-1.7,2.5-3.2,2.7-5.5c0.1-1.1-0.1-2.2-0.5-3.2c1.6-1.5,3.2-3,4.7-4.4c3.8-3.4,7.8-6.6,11.7-9.8c7.7-6.3,15.3-12.7,23.2-18.7
		c2.9-1.9,5.9-3.7,9.2-5c1.4-0.4,2.8-0.6,4.2-0.8c4-0.2,7.9-0.3,11.9-0.4c5,0,9.8,0.5,14.7,1.3c16.8,3.3,33.3,8.3,49.7,13
		c17.9,5.1,35.8,10.2,53.7,15.3c33.5,9.5,67,18.7,100.8,27.1c36.3,9,72.7,17.9,109.1,26.6c16.6,4,33.3,7.9,50,11.7
		c17.9,4.1,35.9,8.1,53.8,12.3c11,2.6,22,5.2,33,7.9c5.2,1.3,10.5,2.6,15.7,4c9.1,2.5,18.4,4.6,27,8.5c0.5,0.3,1.1,0.6,1.6,0.9
		c-0.3,0.9-0.7,1.7-1.1,2.6c-3.9,7.3-8.6,14.2-13.3,21.1c-1.5,2.2-3.1,4.4-4.8,6.6c-2,4.6-5.3,8.7-9.3,11.7
		c-0.6,0.7-1.1,1.4-1.7,2.1c-5.6,6.7-11.3,13.4-16.9,20c-6.5,7.7-12.9,15.5-19.2,23.3c-10.6,13-20.8,26.2-30.7,39.7
		c-5.1,7-10.3,14-15.4,20.9c-5.5,7.4-10.9,14.9-16.6,22.3c-6.1,7.8-12.1,15.7-18.2,23.5c-5.8,7.6-12,14.9-18,22.4
		c-10.8,13.4-21.8,26.7-33.1,39.7c-3.5,4.1-7.1,8.3-10.7,12.4c-5.2,5.5-10.4,11.1-15.7,16.6c-4.4,4.6-8.9,9-13.5,13.4
		c-4.7,4.6-9.4,9.1-14.3,13.5c-8.7,7.8-17.3,15.6-26.9,22.3c-3.3,2.2-6.7,4.2-10.4,5.7c-1.8,0.5-3.5,0.9-5.3,1.1
		c-2.4,0-4.7-0.1-7.1-0.5c-8.6-1.7-17.1-4.1-25.5-6.6c-8.3-2.5-16.7-5-25-7.6c-17.3-5.4-34.7-10.7-52-16.2
		c-18.1-5.7-36.2-11.6-54.2-17.6c-17.4-5.9-34.6-12.1-51.9-18.2c-32.2-11.4-64.6-22.3-96.5-34.5c-19-7.3-38-14.6-57-21.8
		c-7.3-2.8-14.5-5.5-21.7-8.3c-7.6-2.9-15.3-5.8-22.9-8.9c-13-5.3-26-10.6-38.9-16.2c-5.2-2.3-10.5-4.5-15.7-6.8
		c-6.9-3.1-13.9-6-20.8-9.3C541.3,1498.7,541.2,1498.7,541.1,1498.6C541.1,1498.7,541.1,1498.7,541.1,1498.6
		C541.1,1498.7,541.1,1498.7,541.1,1498.6C541.1,1498.6,541.1,1498.6,541.1,1498.6L541.1,1498.6L541.1,1498.6z M522.4,1487
		c0.1-0.1,0.1-0.1,0.2-0.2C522.5,1486.9,522.5,1486.9,522.4,1487L522.4,1487L522.4,1487L522.4,1487z M522.3,1487.2
		C522.3,1487.2,522.3,1487.2,522.3,1487.2C522.3,1487.2,522.3,1487.2,522.3,1487.2L522.3,1487.2L522.3,1487.2L522.3,1487.2z
		 M522.3,1487.2L522.3,1487.2c0,0.1,0.1,0.1,0.1,0.2C522.4,1487.3,522.3,1487.3,522.3,1487.2L522.3,1487.2L522.3,1487.2z"/>
	<path style="fill:#161616;" d="M826.5,1240.2c-2.9,1-5.6,2.4-8.3,3.8c-2,1-3.9,2.1-5.8,3.2c-2.4,1.4-3.4,4.6-2.5,7.2
		c0.3,0.9,0.8,1.8,1.5,2.5c-1.8,1.7-3.5,3.3-5.3,5c-2.5,2.5-4.9,5.1-7.2,7.7c-2.3,2.6-4.6,5.2-6.8,8c-9.5,11.9-18.1,24.6-25.9,37.7
		c-1.8,3-3.5,6.1-5.1,9.3c-1.8,3.5-3.1,7.3-4.3,11c-0.5,1.5-0.8,3.1-1,4.7c-0.1,0.8-0.2,1.7-0.3,2.5c-0.1,1.3-0.2,2.4-0.2,3.7
		c0,1.5,0.4,2.9,0.7,4.3c0.4,2,1.5,3.9,2.4,5.6c0.9,1.7,2.3,3.1,3.5,4.6c1.3,1.5,3.2,2.6,4.9,3.6c2.2,1.3,4.7,2.1,7.2,2.6
		c3.9,0.8,7.9,0.4,11.8-0.4c2.2-0.4,4.5-0.8,6.6-1.5c3.6-1.2,7.1-2.7,10.5-4.2c7.3-3.3,14.1-7.8,20.5-12.6
		c6.1-4.5,11.8-9.6,17.3-14.9c5.6-5.4,10.4-11.3,14.8-17.7c8.6-12.5,16.4-25.9,19.9-40.8c0.4-1.7,0.4-3.5,0.5-5.3
		c0.1-2.1-0.1-4.1-0.4-6.2c-0.6-4.2-2.3-8.1-5-11.4c-2.7-3.3-5.9-5.7-9.5-8c-3.5-2.2-7.6-3.5-11.6-4.5c-3.7-1-7.7-1.2-11.6-1.4
		c-0.4,0-0.9,0-1.3,0C833.5,1238.4,830,1239.1,826.5,1240.2L826.5,1240.2L826.5,1240.2z M836.7,1253c4.2,0.5,8.3,1.2,12.4,2.5
		c1.9,0.8,3.7,1.6,5.5,2.7c1.4,1.1,2.8,2.2,4.1,3.5c0.5,0.7,1,1.4,1.4,2.1c0.2,0.5,0.4,1.1,0.5,1.7c0.2,1.8,0.3,3.6,0.3,5.4
		c-0.4,3-1.3,5.9-2.3,8.8c-4,10.3-9.6,19.7-15.8,28.8c-2.8,3.8-5.7,7.4-8.8,11c-3.3,3.7-7,7-10.6,10.3c-3.8,3.2-7.5,6.3-11.6,9.1
		c-4.5,3.1-9.1,5.9-13.9,8.4c-2.2,1-4.4,1.9-6.6,2.8c-2.1,0.8-4.3,1.4-6.4,1.9c-2.2,0.4-4.3,0.7-6.6,0.7c-0.9-0.1-1.7-0.3-2.5-0.5
		c-0.7-0.3-1.3-0.7-2-1.1c-0.4-0.3-0.7-0.6-1-0.9c-0.5-0.6-0.9-1.3-1.3-2c-0.2-0.5-0.4-1-0.6-1.6c-0.1-0.9-0.1-1.8-0.1-2.8
		c0.4-2.7,1-5.2,1.8-7.8c2.8-7.3,6.6-14.1,10.6-20.8c4.1-6.9,8.3-13.6,12.8-20.2c5.1-7.1,10.5-14,16.5-20.3
		c7.1-7.6,14.9-14.4,22.6-21.4c0.1-0.1,0.2-0.2,0.4-0.4C835.8,1253,836.3,1253,836.7,1253L836.7,1253L836.7,1253z"/>
	<path style="fill:#161616;" d="M801.8,1284.4c-1.1,2.2-0.3,5.2,2,6.3c4.3,2,8.6,4,12.8,6.2c2,1,4.1,2.1,6.1,3.1
		c0.9,0.5,1.9,0.9,2.8,1.4c5.8,3.5,11.7,6.9,17.3,10.7c1.1,0.8,2.1,1.5,3.1,2.3c1.2,0.9,2.2,2,3.2,3.2c0.6,0.5,1.3,0.9,2,1
		c1.1,0.2,2.3,0,3.3-0.6c1.9-1.3,2.7-4.1,1.3-6c-1.3-1.7-2.6-3.3-4.2-4.7c-1.7-1.5-3.7-3-5.7-4.2c-1.8-1.1-3.5-2.3-5.2-3.4
		c-3.1-2-6.3-3.8-9.5-5.8c-2.8-1.7-5.8-3-8.7-4.5c-2-1-4-2-6-3c-2.8-1.4-5.6-2.6-8.4-3.9c-0.7-0.3-1.4-0.5-2.1-0.5
		C804.2,1282,802.6,1282.8,801.8,1284.4L801.8,1284.4L801.8,1284.4z M843.4,1312.5c0.1,0.1,0.2,0.2,0.4,0.2
		C843.6,1312.6,843.5,1312.5,843.4,1312.5L843.4,1312.5L843.4,1312.5z"/>
	<path style="fill:#161616;" d="M961.2,1287.5c-2.9,0.3-5.7,1-8.5,1.7c-0.1,0-0.2,0.1-0.3,0.1c-2.5-0.8-5.4-0.2-7.2,1.8
		c-10.5,12.5-21.1,24.9-31.3,37.6c-5.1,6.4-9.7,13.1-14.2,20c-4,6.1-7.6,12.4-10.6,19c-2,4.3-4,8.9-4.7,13.6
		c-0.3,2.1-0.4,4.3-0.1,6.5c0.4,2.7,1.3,4.8,2.6,7.3c1.1,2.1,2.8,3.9,4.5,5.5c1.9,1.9,4.4,3.2,6.8,4.4c9.4,4.4,20.4,2.9,30,0.1
		c4.6-1.4,9-3.6,13.3-5.8c2.8-1.4,5.4-3.2,8.1-5c5.2-3.5,9.7-7.8,14-12.3c2.8-2.9,5.1-6.2,7.5-9.4c5-6.6,9.3-13.6,13.7-20.6
		c0.9-1.5,1.7-3.1,2.6-4.6c0.9-1.5,1.8-3.1,2.5-4.7c3.3-6.8,6.5-13.6,8.4-21c0.7-2.5,0.8-5.2,0.8-7.8c0.1-2.8-0.5-5.7-1.4-8.3
		c-0.4-1.3-1.2-2.5-1.8-3.8c-0.8-1.5-2-3-3.2-4.2c-2-2.2-4.5-3.8-7-5.4c-2.5-1.5-5.4-2.3-8.1-3.2c-2.6-0.8-5.3-1.3-8-1.5
		c-1.3-0.1-2.5-0.2-3.8-0.2C964.4,1287.2,962.8,1287.3,961.2,1287.5L961.2,1287.5L961.2,1287.5z M955,1301c3.2-0.3,6.3-0.5,9.5-0.4
		c3.2,0.3,6.2,1.1,9.2,2c2,0.8,4,1.7,5.8,2.8c0.9,0.7,1.8,1.4,2.6,2.3c0.3,0.5,0.7,1,1,1.5c0.3,0.6,0.5,1.3,0.7,2
		c0.2,1.3,0.2,2.5,0.2,3.8c-0.3,2.1-0.7,4.1-1.4,6.1c-5.3,14.2-13.6,27-22.1,39.5c-1.9,2.6-3.9,5.3-6,7.7c-2.9,3.4-5.9,6.6-9.2,9.5
		c-4.2,3.4-8.8,6.4-13.6,8.8c-4.3,2-8.6,3.6-13.2,4.7c-3,0.5-5.9,0.8-9,0.7c-1.2-0.2-2.4-0.4-3.6-0.7c-1.2-0.5-2.4-1.1-3.5-1.8
		c-0.5-0.4-1-0.9-1.5-1.4c-0.4-0.5-0.7-1-1.1-1.6c-0.1-0.3-0.2-0.6-0.3-1c-0.1-0.6-0.1-1.2-0.1-1.8c0.3-1.6,0.7-3.2,1.2-4.8
		c4.8-12.7,12.1-24.3,19.6-35.5c10.7-14.7,22.6-28.5,34.3-42.3c0,0,0,0,0,0C954.7,1301.1,954.8,1301.1,955,1301L955,1301L955,1301z
		 M900.3,1379.6c-0.1,0.3-0.2,0.7-0.4,1C900,1380.3,900.2,1379.9,900.3,1379.6L900.3,1379.6L900.3,1379.6z M901.1,1388.6
		c0.1,0.1,0.2,0.2,0.4,0.2C901.4,1388.8,901.2,1388.7,901.1,1388.6L901.1,1388.6L901.1,1388.6z"/>
	<path style="fill:#161616;" d="M927.3,1332.1c-1.4,2.7-0.3,6,2.4,7.4c8.1,4.4,16.4,8.6,24.1,13.8c2.9,2.1,5.7,4.4,8.2,7.1
		c0.4,0.5,0.8,1,1.2,1.5c0.9,1.1,1.9,2,3.3,2.3c1.4,0.3,2.8,0,3.9-0.7c2.3-1.5,3.1-4.9,1.5-7.2c-2-3-4.3-5.7-7-8.1
		c-2.9-2.6-6.3-4.8-9.6-6.9c-3.2-2-6.5-3.8-9.8-5.6c-3.6-2-7.2-3.9-10.8-5.9c-0.8-0.4-1.6-0.6-2.5-0.6
		C930.2,1329.1,928.2,1330.2,927.3,1332.1L927.3,1332.1L927.3,1332.1z"/>
	<path style="fill:#161616;" d="M1084.8,1324.2c-2.7,0.9-5.2,2.4-7.7,3.7c-1.9,1-3.7,2-5.5,3.1c-2.4,1.4-3.4,4.7-2.5,7.3
		c0.5,1.5,1.5,2.7,2.9,3.5c-0.4,0.5-0.9,1.1-1.3,1.6c-4.4,5.3-9.1,10.4-13.7,15.6c-5,5.8-10.3,11.5-14.7,17.8
		c-4.2,6.1-8,12.4-11.2,19.1c-2.6,5.3-4.5,11.1-5,17.1c-0.2,2.9-0.1,5.6,0.5,8.5c0.6,2.5,1.6,4.7,2.9,6.8c0.8,1.2,1.9,2.3,2.8,3.4
		c0.7,0.9,1.6,1.6,2.4,2.4c2.1,1.9,4.6,3.4,7.3,4.4c4.6,1.8,9.6,2,14.5,1.4c5-0.6,10.2-2.1,14.7-4.2c3.8-1.8,7.7-3.6,11.3-5.8
		c7.8-4.8,15-10.8,20.8-17.9c2.4-2.9,4.6-5.8,6.8-8.8c2.6-3.5,4.9-7.2,7.2-10.9c3-4.7,5.4-9.8,7.9-14.8c1.2-2.4,2.2-4.8,3.1-7.3
		c1.3-3.3,2.4-6.8,3.2-10.2c1.7-7.2,1.4-15.2-1.6-22c-1.7-3.9-4.5-6.8-7.9-9.3c-3.8-2.7-7.9-4.5-12.5-5.6c-3.7-0.9-7.8-1-11.6-1.1
		c-0.2,0-0.3,0-0.5,0C1093,1321.8,1088.8,1322.7,1084.8,1324.2L1084.8,1324.2L1084.8,1324.2z M1097.9,1336.6
		c3.2,0.3,6.4,0.8,9.6,1.7c1.6,0.7,3.2,1.5,4.6,2.4c1,0.8,1.9,1.5,2.7,2.4c0.1,0.1,0.2,0.3,0.3,0.5c0.5,1.2,0.9,2.5,1.2,3.7
		c0.2,1.8,0.3,3.5,0.2,5.3c-0.5,3.8-1.5,7.3-2.7,10.9c-4.1,10.5-9.8,20.3-16,29.7c-4.7,6.3-9.6,12.4-15.5,17.7
		c-5.1,4.1-10.7,7.3-16.6,10.2c-3.3,1.4-6.6,2.6-10.1,3.4c-2,0.3-3.9,0.5-5.9,0.4c-0.8-0.1-1.5-0.2-2.2-0.4
		c-0.9-0.4-1.7-0.8-2.6-1.3c-1-0.9-2-1.8-2.9-2.7c-0.4-0.5-0.7-1-1.1-1.5c-0.2-0.6-0.4-1.2-0.6-1.9c-0.1-1.3-0.2-2.5-0.2-3.8
		c0.4-3,1.1-5.8,2-8.7c3.3-8.3,7.6-16.2,12.6-23.6c6.1-8.2,12.7-16.1,19.3-24c5.5-6.5,10.8-13.2,16.2-19.8c0.2,0,0.4-0.1,0.6-0.1
		C1093.3,1336.5,1095.6,1336.4,1097.9,1336.6L1097.9,1336.6L1097.9,1336.6z M1115.6,1344.3c0.1,0.1,0.1,0.2,0.2,0.4
		C1115.7,1344.5,1115.6,1344.4,1115.6,1344.3L1115.6,1344.3L1115.6,1344.3z"/>
	<path style="fill:#161616;" d="M1066.2,1367.7c-1.4,2.7-0.3,5.9,2.3,7.3c5.7,3.1,11.4,6.3,16.7,9.9c4.2,3.1,8.2,6.4,11.7,10.3
		c1.1,1.3,2,2.7,2.8,4.2c0.3,0.7,0.5,1.4,0.8,2.1c1,2.9,4.1,4.5,7,3.5c3-1,4.4-4.1,3.5-7c-0.3-0.8-0.5-1.7-0.8-2.5
		c-0.3-1-0.9-1.9-1.4-2.8c-1-2-2.6-3.7-4-5.3c-2.6-3.1-5.9-5.7-9-8.2c-6.9-5.4-14.7-9.7-22.4-13.9c-0.8-0.4-1.6-0.6-2.4-0.6
		C1069.1,1364.7,1067.1,1365.9,1066.2,1367.7L1066.2,1367.7L1066.2,1367.7z"/>
	<path style="fill:#161616;" d="M714.7,1394.2c-4.5,0-8.9,1.4-13.1,2.7c-3.3,1-5.2,4.6-4.5,7.9c-3,2.2-5.8,4.5-8.7,6.9
		c-7.5,6.4-14.4,13.3-21.1,20.5c-6.6,7.2-12.7,14.8-17.9,23.1c-2.6,4.2-4.6,8.6-6.2,13.2c-1.6,4.6-2.2,9.9-1.5,14.7
		c0.4,2.7,1.2,5.1,2.4,7.6c1.1,2.2,2.6,4,4.2,5.8c1.5,1.8,3.5,3.2,5.5,4.4c2.3,1.5,4.8,2.6,7.4,3.5c4.7,1.5,9.6,1.9,14.6,1.5
		c2.6-0.2,5.3-0.8,7.8-1.5c2.7-0.7,5.3-1.7,7.9-2.7c4.4-1.8,8.7-4.1,12.6-6.8c4.2-2.9,8.1-6.4,11.8-10c7.3-7.1,13.6-15.3,19-23.8
		c4.6-7.2,8.1-15,10.9-23.1c1.3-3.6,2.4-7.2,2.8-11.1c0.6-4.9,0.3-9.6-1.2-14.3c-1.2-4-3.8-7.6-6.9-10.4c-3.5-3.1-7.8-4.9-12.3-6.2
		c-4.3-1.3-8.7-1.9-13.2-1.9C714.8,1394.2,714.8,1394.2,714.7,1394.2L714.7,1394.2L714.7,1394.2z M711.1,1409
		c1.2-0.2,2.5-0.2,3.7-0.1c3.4,0.4,6.7,1.3,10,2.3c1.5,0.6,2.9,1.3,4.2,2.1c0.7,0.6,1.4,1.1,2,1.8c0.3,0.5,0.6,0.9,0.9,1.4
		c0.4,0.9,0.7,1.9,1,2.8c0.2,1.6,0.3,3.2,0.3,4.8c-0.4,3.4-1.3,6.6-2.4,9.8c-3.2,8.7-7.3,16.9-12.6,24.6
		c-5.4,7.5-11.5,14.6-18.5,20.8c-3.6,3-7.5,5.6-11.7,7.8c-3.8,1.7-7.6,3.1-11.7,4.1c-2.2,0.3-4.4,0.5-6.7,0.4
		c-1.9-0.2-3.7-0.6-5.5-1.1c-1.5-0.6-2.9-1.3-4.2-2.2c-1.1-0.9-2.1-1.8-3.1-2.8c-0.4-0.6-0.8-1.2-1.2-1.8c-0.4-1.1-0.8-2.1-1.1-3.2
		c-0.2-1.4-0.3-2.9-0.2-4.3c0.3-2.7,0.9-5.3,1.8-7.9c2.2-5.6,5.1-10.7,8.5-15.7c4.4-6.2,9.4-12.1,14.5-17.7
		c5.3-5.7,10.9-11.2,16.8-16.3c3.4-2.9,7-5.6,10.7-8.2c0.5-0.4,1-0.7,1.6-1C709.2,1409.3,710.1,1409.1,711.1,1409L711.1,1409
		L711.1,1409z"/>
	<path style="fill:#161616;" d="M682.7,1434.2c-1.4,0.1-2.7,0.7-3.6,1.7c-1.8,2-1.9,5.7,0.4,7.4c3.9,3,7.9,6,11.7,9
		c3.3,2.6,6.6,5.3,9.9,7.9c1.8,1.5,3.5,3,5.2,4.6c3.3,3.1,6.6,6.2,9.6,9.6c1.4,1.7,2.6,3.5,3.8,5.5c1.5,2.5,5,3.1,7.4,1.5
		c1.2-0.8,2-2,2.3-3.4c0.3-1.5,0-2.7-0.8-4c-1-1.8-2-3.5-3.3-5.1c-1.5-1.9-3.2-3.7-4.9-5.5c-1.4-1.5-2.9-2.8-4.4-4.2
		c-2.2-2-4.3-4.2-6.6-6c-7.6-6-15.1-12-22.8-17.9c-1.1-0.8-2.2-1.4-3.5-1.4C683,1434.2,682.8,1434.2,682.7,1434.2L682.7,1434.2
		L682.7,1434.2z"/>
	<path style="fill:#161616;" d="M866.7,1435.6c-2.4-1.2-5.3-0.5-7.3,1.4c-0.1,0.1-0.1,0.1-0.2,0.2c-1.7,0.5-3,1.9-3.6,3.5
		c-6.8,6.6-13.6,13.2-20.3,19.9c-5.5,5.4-10.5,11.2-15.2,17.2c-3.8,4.9-7.2,10.1-10.6,15.3c-2,3.1-3.8,6.4-5.7,9.6
		c-4,7-7.6,14.4-9.3,22.3c-1,4.8-0.7,10.2,1.4,14.6c0.6,1.3,1.2,2.4,2,3.5c0.8,1.1,1.8,2.1,2.7,3.1c2.1,2.3,5.2,3.8,8.1,4.7
		c4.9,1.5,10.1,1.6,15.2,0.9c5.8-0.8,11.4-2.5,16.8-4.8c12.9-5.5,24-14.3,32.9-25.1c8.8-10.7,15.6-23.5,19.3-36.9
		c1.9-6.8,2.6-14,2.7-21.1c0-3.5-0.4-7-1.1-10.4c-0.7-3.5-2-6.7-3.8-9.8c-0.9-1.5-2.2-2.9-3.5-4.1c-1.2-1.2-2.7-2.1-4.2-3
		c-1.5-0.9-3.3-1.3-5-1.7c-1.8-0.3-3.6-0.3-5.4-0.4c-0.1,0-0.2,0-0.4,0C870.4,1434.8,868.5,1435.2,866.7,1435.6L866.7,1435.6
		L866.7,1435.6z M872.1,1448.5c1.1,0.2,2.2,0.4,3.2,0.6c0.1,0.1,0.2,0.1,0.3,0.2c0.5,0.4,1,0.9,1.5,1.3c0.4,0.5,0.7,1,1,1.6
		c0.6,1.4,1,2.9,1.4,4.4c0.7,4.2,0.7,8.3,0.5,12.6c-0.5,5.8-1.7,11.5-3.5,17c-2.8,7.5-6.5,14.6-11,21.3c-4,5.6-8.5,10.7-13.7,15.3
		c-4.6,3.7-9.4,7-14.7,9.6c-4.1,1.9-8.4,3.5-12.9,4.5c-2.7,0.5-5.4,0.7-8.1,0.7c-1.3-0.2-2.5-0.4-3.8-0.7c-0.4-0.2-0.8-0.4-1.2-0.6
		c-0.5-0.4-1-0.9-1.5-1.4c-0.3-0.5-0.7-1-1-1.5c-0.2-0.5-0.4-1-0.5-1.5c-0.1-1.1-0.2-2.2-0.1-3.3c0.4-2.5,1-5,1.8-7.4
		c1.4-3.7,3-7.4,4.9-10.9c1.5-2.7,2.9-5.4,4.3-8c0.9-1.6,2-3.2,3-4.8c1.3-2.1,2.5-4.2,3.9-6.2c5-7,10.5-13.6,16.3-19.9
		c2-2.2,4.2-4.2,6.3-6.3c5.5-5.5,11.1-10.9,16.7-16.3C867.5,1448.5,869.8,1448.4,872.1,1448.5L872.1,1448.5L872.1,1448.5z
		 M809.7,1521.4c-0.1,0.4-0.3,0.8-0.5,1.3C809.4,1522.2,809.6,1521.8,809.7,1521.4L809.7,1521.4L809.7,1521.4z M851.2,1523.2
		c-0.1,0.1-0.2,0.2-0.4,0.3C850.9,1523.5,851.1,1523.3,851.2,1523.2L851.2,1523.2L851.2,1523.2z"/>
	<path style="fill:#161616;" d="M832,1478c-1.4,0.5-2.6,1.5-3.2,2.8c-1.3,2.6-0.4,6.4,2.4,7.6c4.5,1.9,9,3.9,13.5,6.1
		c4.5,2.2,8.7,4.7,12.8,7.5c4.6,3.3,9.2,6.8,13,11c1,1.3,1.9,2.7,2.8,4.2c1.7,2.8,5.7,3.5,8.4,1.8c1.3-0.9,2.3-2.3,2.6-3.8
		c0.4-1.7,0-3.1-0.9-4.6c-0.5-0.9-1-1.8-1.5-2.6c-0.6-0.9-1.5-1.9-2.2-2.7c-1.6-1.8-3.4-3.4-5.3-5c-3.8-3.1-7.9-5.9-12-8.7
		c-8.1-5.4-17.1-9.4-26-13.2c-0.9-0.4-1.8-0.6-2.7-0.6C833.1,1477.8,832.6,1477.8,832,1478L832,1478L832,1478z M856.9,1501.6
		c0.2,0.1,0.4,0.3,0.5,0.4C857.2,1501.9,857,1501.7,856.9,1501.6L856.9,1501.6L856.9,1501.6z"/>
	<path style="fill:#161616;" d="M1016.9,1480.3c-2.8,0.2-5.5,1-8.1,1.9c-2.9,1.1-4.8,3.8-4.6,6.8c-5.1,3.6-10,7.4-14.8,11.4
		c-8.6,7.2-17,14.7-24.3,23.2c-3.4,4-6.5,8.3-9.3,12.7c-1.4,2.3-2.8,4.6-3.9,7c-1.3,2.8-2.3,5.8-3.1,8.8c-2.8,9.9-2.4,21.3,3.8,29.9
		c3.1,4.3,7.4,7.9,12.1,10.2c5.5,2.7,12.1,2.9,17.9,2c5.5-0.8,10.6-2.5,15.6-4.8c5.5-2.5,10.6-5.5,15.4-9.4
		c4.4-3.6,8.6-7.5,12.5-11.7c4-4.3,7.6-8.8,11-13.7c6.5-9.4,11.2-19.7,14.9-30.4c2-5.8,3.4-12.2,3.1-18.4c-0.1-2.9-0.9-5.9-2.2-8.5
		c-1.6-3.3-3.6-6.2-6.6-8.5c-5.3-4.1-11.9-6.5-18.5-7.9c-1.8-0.4-3.6-0.6-5.4-0.7c-0.9-0.4-1.8-0.6-2.8-0.6
		C1018.6,1479.8,1017.7,1479.9,1016.9,1480.3L1016.9,1480.3L1016.9,1480.3z M1018.4,1494.9c3.4,0.5,6.8,1.3,10.1,2.4
		c2.5,1,4.8,2.1,7.1,3.5c0.5,0.4,1,0.9,1.5,1.3c0.3,0.5,0.7,1,1,1.5c0.3,0.7,0.5,1.4,0.7,2.1c0.1,1,0.2,2,0.2,3
		c-0.5,4.4-1.6,8.6-2.9,12.8c-1.7,4.6-3.6,9-5.7,13.4c-2.2,4.3-4.7,8.5-7.4,12.5c-5.1,7.1-11.2,13.6-17.8,19.4
		c-3.7,3-7.6,5.6-11.8,7.8c-3.8,1.7-7.6,3.1-11.6,4.1c-2.3,0.4-4.5,0.6-6.8,0.5c-1-0.1-2.1-0.3-3.1-0.6c-1-0.4-1.9-0.9-2.8-1.4
		c-1.4-1.1-2.7-2.3-3.9-3.5c-0.7-0.9-1.3-1.8-1.8-2.8c-0.5-1.2-0.9-2.4-1.2-3.6c-0.3-2-0.4-3.9-0.3-5.9c0.4-3.5,1.1-6.9,2.2-10.2
		c1.8-4.5,4.2-8.7,6.9-12.7c7.8-10.9,17.6-20.2,27.8-28.8C1005.1,1504.4,1011.7,1499.6,1018.4,1494.9L1018.4,1494.9L1018.4,1494.9z
		 M998.5,1509.8c-0.3,0.2-0.6,0.5-0.9,0.7C997.9,1510.3,998.2,1510.1,998.5,1509.8L998.5,1509.8L998.5,1509.8z"/>
	<path style="fill:#161616;" d="M995.8,1525.8c-1.5,0.5-2.7,1.5-3.4,2.9c-0.7,1.4-0.9,3.1-0.4,4.6c0.5,1.6,1.6,2.5,2.9,3.4
		c2,1.3,3.9,2.6,5.9,3.9c5.7,4,11.1,8.4,15.8,13.6c0.8,1,1.6,2.1,2.3,3.3c0,0.1,0.1,0.3,0.1,0.4c0,0,0,0,0,0c0.3,1.6,0.7,2.9,1.9,4
		c1.2,1.1,2.8,1.6,4.4,1.5c3.3-0.2,5.8-3.1,5.6-6.3c-0.1-1.9-0.5-3.6-1.2-5.3c-0.7-1.7-1.7-3.1-2.9-4.5c-2.4-2.8-5-5.3-7.8-7.7
		c-5.8-5-12.1-9.3-18.6-13.5c-0.7-0.5-1.7-0.7-2.6-0.7C997.1,1525.5,996.4,1525.6,995.8,1525.8L995.8,1525.8L995.8,1525.8z
		 M1000.9,1540.7c0.3,0.2,0.5,0.3,0.8,0.5C1001.4,1541.1,1001.1,1540.9,1000.9,1540.7L1000.9,1540.7L1000.9,1540.7z M1015.8,1553.4
		c0.2,0.2,0.3,0.4,0.5,0.6C1016.1,1553.7,1016,1553.6,1015.8,1553.4L1015.8,1553.4L1015.8,1553.4z M1018.5,1556.7
		c0,0.1,0.1,0.2,0.1,0.2C1018.6,1556.9,1018.5,1556.8,1018.5,1556.7L1018.5,1556.7L1018.5,1556.7z M1019.1,1558.3
		c0,0.1,0,0.2,0.1,0.3C1019.1,1558.5,1019.1,1558.4,1019.1,1558.3L1019.1,1558.3L1019.1,1558.3z"/>
	<path style="fill:#161616;" d="M1315.4,1324.5c-8.7,11.3-17.1,22.8-25.3,34.4c-4,5.7-7.9,11.4-12,17.1c-4.5,6.2-9.1,12.4-13.6,18.6
		c-1.7,2.3-3.5,4.4-5.2,6.6c-2.9,3.7-5.8,7.4-8.7,11.1c-4.3,5.4-8.8,10.6-13.2,15.9c-8.5,10.1-17.4,19.9-26.3,29.6
		c-9.3,10.1-18.7,20-28.2,29.9c-9.9,10.2-19.9,20.4-29.8,30.7c-5.1,5.4-10.3,10.7-15.3,16.2c-5,5.5-10,11.1-14.9,16.8
		c-8.7,10.1-17.3,20.2-26.2,30.2c-4.6,5.1-9.2,10.3-13.8,15.4c-4.6,5.2-9.1,10.5-13.8,15.6c-9.4,10.3-19.3,20.3-28.6,30.7
		c-2.3,2.6-4.5,5.3-6.8,7.9c-2.3,2.8-4.6,5.6-6.7,8.6c-0.6,0.8-1.2,1.6-1.7,2.5c0,0,0,0,0.1,0c-0.9,1.8-1.2,3.8-0.5,5.9
		c1.1,3.3,4.3,5.3,7.7,5.2c2.9-0.1,5-1.7,6.9-3.9c0.5-0.5,0.9-1.1,1.3-1.7c1.1-1.4,2.1-2.7,3.2-4.1c2.1-2.7,4.3-5.3,6.6-7.9
		c4.6-5.3,9.3-10.4,14.1-15.5c4.7-5.1,9.5-10.1,14.1-15.3c4.5-5,8.8-10.2,13.2-15.2c9.2-10.6,18.4-21.1,27.4-31.8
		c8.7-10.4,17.2-21,26.2-31.2c4.9-5.6,9.9-11.1,14.9-16.5c4.9-5.3,9.8-10.5,14.8-15.8c9.6-10.2,19.2-20.5,28.8-30.9
		c9-9.8,17.9-19.6,26.5-29.7c4.4-5.2,9-10.3,13.2-15.6c3.1-3.8,6.2-7.6,9.2-11.5c1.5-1.9,3.1-3.7,4.5-5.7
		c4.1-5.4,8.2-10.8,12.2-16.2c2.8-3.7,5.5-7.6,8.2-11.4c6.8-9.6,13.5-19.3,20.2-29c-0.1,0.1-0.1,0.2-0.2,0.2
		c3.5-5.1,7-10.1,10.6-15.1c4.6-6.2,9.1-12.5,13.9-18.6c1.6-2.1,1.7-4.9-0.3-6.8c-0.9-0.8-2.1-1.2-3.4-1.2
		C1317.6,1323,1316.3,1323.5,1315.4,1324.5L1315.4,1324.5L1315.4,1324.5z M1298,1364.8c-0.2,0.2-0.3,0.5-0.5,0.7
		C1297.7,1365.3,1297.8,1365,1298,1364.8L1298,1364.8L1298,1364.8z"/>
	<path style="fill:#161616;" d="M713.8,693.1c-9.6,0.1-19.3,0.1-28.9,0.5c-15.7,0.6-31.4,1.2-47.2,1.7c-7.9,0.3-15.8,0.9-23.7,1.5
		c-16.4,1.2-32.9,2.5-49.4,3.7c-4.1,0.3-8.2,0.5-12.3,1c-9.6,1.1-19.1,2.3-28.7,3.4c-11.2,1.3-22.5,2.6-33.7,4
		c-12.1,1.4-24.3,3.1-36.4,4.7c-1.9,0.3-3.9,2-4.8,3.6c-1.1,1.8-1.4,4.1-0.9,6.2c0.5,2,1.8,3.8,3.6,4.8c2,1.2,3.9,1.2,6.1,0.9
		c8.1-1.1,16.3-2.2,24.4-3.3c24.2-2.8,48.4-5.7,72.5-8.6c3-0.4,6.2-0.5,9.2-0.7c7.8-0.6,15.6-1.2,23.4-1.8c14-1.1,28-2.1,42-3.2
		c2.6-0.2,5.1-0.3,7.7-0.3c7.9-0.3,15.9-0.6,23.8-0.9c10.4-0.4,20.8-1,31.3-1.1c24-0.3,48.1-0.7,72.1-0.7c14.7,0,29.3,0.1,44,0.1
		c11.4,0,22.7,0.3,34.1,0.5c9.9,0.2,19.8,0.3,29.8,0.7c12.3,0.4,24.7,0.6,37,1.2c14.4,0.7,28.9,1.4,43.3,2.1c11.3,0.6,22.6,1.3,34,2
		c10.2,0.6,20.3,1.3,30.5,1.9c11.8,0.8,23.6,1.4,35.4,2.4c14.2,1.1,28.4,2.2,42.6,3.3c11.7,0.9,23.4,2.2,35.2,3.2
		c11.2,1,22.5,2.4,33.7,3.5c5.5,0.6,10.9,1.3,16.3,2c5.5,0.7,10.9,1.3,16.4,2c9.7,1.3,19.5,2.7,29.2,4c10.5,1.7,21.1,3.2,31.7,5
		c13,2.2,25.9,4.4,38.8,6.8c23.4,4.3,46.6,9.4,69.7,14.9c21.8,5.2,43.4,11.3,64.9,17.3c11.3,3.2,22.7,6.3,34,9.7
		c11.1,3.4,22.2,6.7,32.9,11.1c1.1,0.4,2.2,0.9,3.3,1.4c7.3,3.3,14.5,6.8,21,11.6c2.1,1.8,4.1,3.8,6,5.8c2.3,2.4,4.2,5.1,6.7,7.2
		c1,1,2.1,1.7,3.4,2.1c1.9,0.5,4,0.3,5.8-0.7c3.7-2.1,4.8-6.7,2.9-10.4c-1.4-2.7-3.5-4.9-5.4-7.1c-1.7-2-3.5-3.8-5.3-5.6
		c-3.9-3.9-8.5-7.1-13.3-9.9c-4.6-2.7-9.5-4.9-14.3-7c-5.4-2.4-10.8-4.6-16.4-6.5c-22-7.4-44.4-13.6-66.8-19.8
		c-23-6.4-46.1-12.4-69.3-17.9c-23.2-5.5-46.7-9.9-70.1-14.3c-10-1.9-20.1-3.5-30.1-5.1c-12.4-1.9-24.7-3.9-37.1-5.6
		c-12.4-1.7-24.8-3.4-37.2-4.9c-12.2-1.5-24.4-2.9-36.6-4.2c-23.1-2.5-46.3-4.5-69.5-6.3c-24.3-1.9-48.6-3.5-73-5.1
		c-24-1.6-48-2.9-72-4.1c-10.4-0.5-20.9-1-31.3-1.4c-12.5-0.4-25.1-1-37.6-1.2c-23.2-0.4-46.5-0.8-69.7-0.9c-14.7,0-29.3-0.1-44-0.1
		c-0.6,0-1.1,0-1.7,0C735.1,692.6,724.4,692.9,713.8,693.1L713.8,693.1L713.8,693.1z M484,725.7c-0.3,0-0.6,0.1-0.8,0.1
		C483.4,725.7,483.7,725.7,484,725.7L484,725.7L484,725.7z M1499.9,803.6c0.2,0.1,0.5,0.2,0.7,0.3
		C1500.4,803.9,1500.2,803.7,1499.9,803.6L1499.9,803.6L1499.9,803.6z"/>
	<path d="M484.8,832.5c-1.7,1.6-3,3-4,5.2c-0.7,1.4-1.3,3.2-1.6,4.8c-0.2,1-0.5,2.1-0.7,3.1c-0.5,2.4-1.1,4.8-1.6,7.2
		c-1.2,5.3-2.4,10.5-3.5,15.8c-2.4,11-4.3,22.1-6.1,33.2c-1.7,10.9-3.1,21.8-4.5,32.8c-1.4,10.2-2.8,20.4-4.2,30.6
		c-0.7,4.8-1.4,9.7-2,14.5c-0.4,2.6,0.1,8.8,4.3,7.6c1.4-0.6,2.4-1.5,3.3-2.7c1.8-2.4,2.7-5.4,3.1-8.3c2.7-18.8,5.3-37.5,7.8-56.3
		c1.9-14.2,4-28.4,6.7-42.5c1.1-5.2,2.2-10.4,3.4-15.6c3,18.8,5,37.8,7,56.8c1.1,10.4,2.3,20.8,3.5,31.1c1.1,9.9,2.1,19.9,3.9,29.7
		c0.5,2.8,0.9,5.8,2.8,8.1c2,2.4,4.8-0.1,6.1-1.8c1.1-1.6,1.9-3.3,2.4-5.2c0.7-2.4,1.2-5.5,0.2-7.9c-0.1-0.2-0.2-0.5-0.3-0.7
		c-1.6-9.3-2.6-18.6-3.7-28c-1.2-10.5-2.4-20.9-3.5-31.4c-2.3-21.4-4.7-42.9-8.1-64.2c-0.4-2.5-0.9-5-1.4-7.6
		c-0.6-3.1-1.8-6.2-4.2-8.4c-0.7-0.6-1.5-1-2.3-1C486.4,831.4,485.6,831.8,484.8,832.5L484.8,832.5L484.8,832.5z M510.3,971
		c0,0.2,0.1,0.4,0.1,0.7C510.3,971.4,510.3,971.2,510.3,971L510.3,971L510.3,971z"/>
	<path d="M503.1,925.3c-4.1,0.8-8.3,1.2-12.4,1.8c-5.5,0.8-10.9,1.5-16.4,2.3c-1.4,0.6-2.5,1.5-3.3,2.7c-1.8,2.4-2.8,5.5-3.1,8.4
		c-0.2,1.7-0.1,3.4,0.4,5.1c0.8,2,1.8,2.8,3.9,2.6c5.2-0.7,10.3-1.4,15.5-2.2c4.5-0.6,9-1.2,13.4-2.5c1.3-0.6,2.4-1.4,3.2-2.6
		c1.7-2.3,2.7-5.3,3-8.1c0.3-2.6,0-7.5-3.4-7.5C503.6,925.2,503.3,925.2,503.1,925.3L503.1,925.3L503.1,925.3z"/>
	<path d="M548.1,831.1c-1.2,0.2-2.2,0.5-3.3,1c-6.7,3-10.5,9.5-13.7,15.7c-3.7,7.2-6.5,14.9-9.1,22.5c-3.4,10.2-6,20.9-7.3,31.6
		c-1.3,10.9-2.4,21.8-1.6,32.8c0.8,11.5,2.2,22.9,4.9,34.1c1.3,5.3,4.4,10.6,8.7,14c2.4,1.9,5,2.6,8,2.9c1.5,0.1,3.1,0,4.6-0.2
		c2.2-0.1,4-0.9,5.9-1.8c4.7-2.3,8.6-5.7,12.4-9.2c2.4-2.2,4.8-4.4,7.2-6.7c3.2-3.1,5-8.1,4.6-12.5c0-1.4-0.5-2.8-1.3-3.9
		c-1.3-1.4-3.2-1.1-4.5,0.1c-2,1.8-4,3.6-6.1,5.4c-2.9,2.5-5.6,5-8.8,7c-1,0.5-2,1-3,1.4c-1.5,0.7-3.1,0.9-4.7,1
		c-2.4-0.1-4.6-0.4-6.7-1.5c-1.9-1.6-3.5-3.6-4.8-5.8c-1.4-3.1-2-6.5-2.7-9.8c-1.9-11.3-2.9-22.7-3-34.1c0.5-7.8,1.5-15.5,2.7-23.2
		c1.7-7.5,3.7-14.8,6.1-22.2c2-5.1,4.1-10.2,6.7-15c0.5-0.7,1-1.4,1.5-2.1c0.6-0.5,1.2-0.9,1.9-1.4c0.9-0.4,1.7-0.7,2.7-0.9
		c0.4,0,0.7,0.1,1.1,0.2c0.3,0.3,0.5,0.6,0.7,1c2.3,4.9,3.3,10.5,4.6,15.8c0.9,4.9,1.6,9.7,2,14.6c0,1.5,0.5,2.9,1.4,4.1
		c1.5,1.5,3.2,1,4.7-0.1c1.3-1.2,2.3-2.6,3-4.2c1.3-2.7,2-5.9,1.8-8.9c-0.4-5.6-1.3-11-2.3-16.6c-0.5-2.9-1.3-5.8-1.9-8.7
		c-0.9-3.8-2-7.7-3.8-11.1c-1.2-2.4-2.3-4.1-4.9-5.2c-0.4-0.2-1.1-0.2-1.7-0.2C549.3,831,548.5,831,548.1,831.1L548.1,831.1
		L548.1,831.1z"/>
	<path d="M589.5,851.5c-1.3,0.5-2.3,1.4-3.1,2.6c-1.6,2.1-2.8,5.2-2.9,7.9c-0.6,10.8-1.3,21.7-2.1,32.5c-0.8,10.1-1.9,20.3-2.8,30.4
		c-0.9,9.6-1.7,19.2-2.1,28.9c-0.1,3-0.2,5.9-0.1,8.9c0,2.8,0.6,5.6,1.2,8.3c0.5,2.3,1.7,4.3,2.8,6.4c1.4,2.5,3.5,4,5.9,5.5
		c2.3,1.4,5.2,1.5,7.8,1.5c2.6,0.1,5.3-0.1,7.9-0.6c2.9-0.6,5.4-2.2,7.9-3.6c1.3-1.1,2.2-2.5,2.9-4c0.8-1.8,1.4-3.8,1.6-5.8
		c0.2-1.7,0.1-3.3-0.4-5c-0.5-1.4-1.9-3.3-3.8-2.5c-3.1,1.4-6.3,2.3-9.6,2.5c-3.3,0-6.4-0.2-9.3-1.7c-1.2-1-2.1-2.1-2.9-3.4
		c-0.5-1.2-0.9-2.4-1.2-3.6c-0.3-2.4-0.3-4.9-0.3-7.3c0.5-14.2,1.8-28.3,3.1-42.4c1.5-16.1,2.5-32.2,3.4-48.4
		c0.1-2.2,0.1-7.3-3.1-7.3C590.2,851.4,589.9,851.4,589.5,851.5L589.5,851.5L589.5,851.5z"/>
	<path d="M615.6,896.7c-9.6,2.8-19.8,3.4-29.7,4.2c-1.3,0.5-2.3,1.4-3,2.5c-1.6,2.2-2.6,5-2.8,7.7c-0.2,1.6-0.1,3.2,0.3,4.7
		c0.3,0.5,0.6,1,0.8,1.6c0.8,0.8,1.7,1.1,2.8,0.8c5.9-0.4,11.8-0.9,17.6-1.6c2.6-0.3,5.2-0.7,7.7-1.2c1.1-0.2,2.2-0.5,3.2-0.9
		c3.4-1.3,6-4,7.2-7.4c1.1-2.9,2.3-6.4,1.1-9.5c-0.3-1.1-0.9-1.8-2-2.2c-0.2-0.1-0.4-0.1-0.6-0.1
		C617.3,895.3,616.4,895.9,615.6,896.7L615.6,896.7L615.6,896.7z"/>
	<path d="M607,848.4c-5.6,0.5-11.3,0.9-16.9,1.2c-1.4,0.6-2.5,1.5-3.3,2.8c-1.8,2.4-2.8,5.5-3.1,8.4c-0.2,1.8-0.1,3.5,0.4,5.2
		c0.3,0.6,0.6,1.1,0.9,1.7c0.8,0.9,1.8,1.2,3,0.8c10.6-0.6,21.2-1.9,31.8-2.5c1.3-0.6,2.4-1.5,3.2-2.7c1.1-1.6,1.9-3.3,2.4-5.2
		c0.5-1.9,0.8-3.8,0.6-5.7c-0.1-1.3-0.7-4.7-2.7-4.9c-1.1-0.1-2.2-0.1-3.2-0.1C615.8,847.6,611.4,848,607,848.4L607,848.4L607,848.4
		z"/>
	<path d="M667.1,847.5c-2.8,0.2-5.5,0.6-8.3,1c-6,0.8-11.9,1.9-17.9,3c-1.4,0.6-2.5,1.5-3.3,2.8c-1.8,2.4-2.8,5.6-3.2,8.5
		c-0.3,3,0,8.6,4.4,7.8c11-1.9,21.9-3.8,33-4.8c0.1,0,0.3,0,0.4,0c1.2,0.2,2.2-0.1,3.1-1c2-1.5,3.1-4.3,3.8-6.6
		c0.8-2.8,1.7-8.6-1.9-10c-1.8-0.7-3.8-0.9-5.7-0.9C670.1,847.3,668.6,847.4,667.1,847.5L667.1,847.5L667.1,847.5z"/>
	<path d="M655.9,854.3c-1.1,0.5-2,1.2-2.7,2.2c-1.5,1.9-2.2,4.5-2.5,6.8c-2.3,19.1-3.4,38.2-4.6,57.4c-0.6,9.8-1.2,19.6-1.9,29.3
		c-0.6,8.8-1.7,17.4-2.9,26.1c-0.2,1.6-0.2,3.2-0.1,4.7c0.2,1.7,0.6,2.7,1.5,4.1c0.7,0.8,1.6,1.1,2.7,0.8c1.2-0.5,2.2-1.3,2.9-2.5
		c1.9-2.5,3-6.1,2.9-9.3c1.1-8.8,2-17.6,2.5-26.5c0.5-9.5,0.9-19,1.4-28.6c0.9-18.6,1.8-37.2,3.9-55.7c0.1-0.9,0.2-1.8,0.3-2.7
		c0.2-2,0-6.4-2.7-6.4C656.4,854.2,656.1,854.2,655.9,854.3L655.9,854.3L655.9,854.3z"/>
	<path d="M702.7,844c-1.3,1.2-2.3,2.5-3,4.2c-2,5-3.1,10.3-4.4,15.6c-1.1,4.7-2.3,9.5-3.4,14.2c-2.2,9.5-4.2,19.1-6.1,28.6
		c-3.8,18.9-7.4,37.9-13.8,56.1c-2,5-4.1,9.9-6.4,14.7c-0.8,1.8-1.4,3.7-1.6,5.6c-0.2,1.9-0.3,4.8,1.2,6.4c2.8,3,6.2-1.8,7.2-4
		c4.5-9.8,8.8-19.8,11.8-30.2c1.5-5.1,2.8-10.2,4.1-15.4c1.3-5.3,2.4-10.7,3.5-16c2-9.6,3.9-19.3,6.1-29c1.7-7.6,3.4-15.2,5.3-22.7
		c0.3,1.5,0.6,3,1,4.6c2.7,17.2,3.3,34.6,4.6,51.9c0.6,8.5,1.4,17,2.2,25.5c0.4,4.2,0.8,8.3,1.3,12.5c0.4,3.8,0.9,7.7,1.5,11.5
		c-0.1,1.3,0.1,2.5,0.5,3.8c0.3,1.2,1,2,2.2,2.5c0.1,0,0.2,0,0.2,0c4,0.6,6.2-4.9,7.2-7.9c1.3-4,0.8-7.9,0.2-11.9
		c-0.3-2.5-0.6-5-0.9-7.5c-0.5-4.9-1-9.8-1.5-14.7c-1-10.3-1.8-20.5-2.5-30.8c-0.7-10.4-1.3-20.8-2.3-31.2c-0.5-5.3-1.3-10.7-2.3-16
		c-0.5-2.6-1.1-5.1-1.7-7.7c-0.5-1.9-0.9-3.8-1.5-5.6c-0.4-1.4-0.9-2.7-1.4-4.1c-0.5-0.9-1-1.8-1.5-2.7c-0.8-0.5-1.6-1-2.4-1.5
		c-0.2,0-0.5-0.1-0.7-0.1C704.3,842.9,703.5,843.3,702.7,844L702.7,844L702.7,844z"/>
	<path d="M714.5,933.6c-2.3,0.1-4.5,0.2-6.8,0.5c-1.8,0.3-3.6,0.6-5.4,0.9c-4.2,0.7-8.3,1.3-12.5,1.9c-1.4,0.6-2.5,1.5-3.3,2.8
		c-1.8,2.4-2.8,5.6-3.2,8.5c-0.2,1.8-0.1,3.5,0.4,5.2c0.7,2,1.8,2.9,4,2.6c7.7-1.1,15.7-2,23.2-4.3c3.1-1,4.8-5,5.6-7.8
		c0.5-1.8,0.8-3.7,0.6-5.7C717,937.3,716.4,933.6,714.5,933.6C714.5,933.6,714.5,933.6,714.5,933.6L714.5,933.6L714.5,933.6z"/>
	<path d="M754.4,838.6c-1.4,0.6-2.5,1.5-3.3,2.8c-1.8,2.4-2.9,5.6-3.1,8.5c-0.2,2.1-0.2,4.1-0.2,6.2c-0.4,8.2-1,16.4-1.6,24.6
		c-0.6,9.2-1.2,18.4-2,27.6c-0.9,9.7-1.5,19.5-2.7,29.2c-1.7,13.9-3.3,27.7-5.2,41.5c-0.4,2.7,0.1,8.9,4.4,7.8
		c1.4-0.6,2.5-1.5,3.3-2.8c1.8-2.5,2.8-5.5,3.1-8.5c1.9-13.8,3.5-27.7,5.2-41.5c1.2-9.9,1.9-19.9,2.7-29.9c0-0.2,0-0.4,0.1-0.6
		c1,4.4,2.1,8.7,3.2,13c0.9,3.3,1.7,6.5,2.6,9.7c0.5,1.7,1,3.4,1.5,5.2c0.3,1.1,0.7,2.1,1.1,3.2c0.3,1,0.8,1.7,1.6,2.3
		c0.7,0.5,1.4,0.9,2.1,1.4c1.3,0.2,2.4-0.1,3.4-1.1c1-0.9,1.9-1.8,2.7-2.8c1.3-1.5,2.2-3.2,3.1-4.9c1-1.8,1.5-4,2.2-6
		c0.5-1.7,1-3.4,1.4-5.1c1-3.8,1.7-7.6,2.4-11.3c1-4.9,2-9.8,3-14.7c0.8-4.1,1.7-8.2,2.5-12.3c2.4,16.2,3.2,32.6,4.4,48.9
		c0.6,8,1.5,15.9,2.4,23.8c0.4,3.7,1,7.4,1.5,11.1c0.6,4.4,1,9.1,2.6,13.2c0.3,1.2,1.1,2.1,2.2,2.5c1.2,0.2,2.3-0.1,3.2-1
		c1.3-1.2,2.2-2.5,2.9-4.1c1.2-2.4,2.2-5.8,1.7-8.6c-2.9-16.9-4.7-33.9-6-51c-0.7-8.7-1.2-17.4-2-26c-0.4-4.2-0.9-8.4-1.4-12.7
		c-0.4-3.2-0.8-6.3-1.3-9.5c-0.5-3-1.1-6-1.7-9c-0.6-3-1.6-5.8-3.9-7.9c-1.4-1.3-3.3-1.3-4.8,0.1c-2,2.1-3.7,4-4.8,6.8
		c-0.9,2.3-1.4,4.5-2,7c-0.6,2.6-1.1,5.2-1.7,7.8c-1,4.6-1.9,9.1-2.9,13.7c-1,4.7-1.9,9.3-2.8,14c-0.9,4.4-1.7,8.7-2.7,13.1
		c-0.4-1.5-0.8-2.9-1.2-4.4c-1-3.7-2-7.5-2.9-11.3c-1.8-7.2-3.3-14.5-4.8-21.8c-1.5-8.7-3-17.4-3.4-26.2c0.1-1.8,0.1-3.6,0.1-5.4
		c0-2.2-1.2-5.1-3.6-5.1C754.9,838.5,754.7,838.6,754.4,838.6L754.4,838.6L754.4,838.6z"/>
	<path d="M828,870.4c-2.4,3.3-3.5,7.3-3.7,11.3c-0.3,4.3-0.1,8.7,0.1,13c0.1,3.9,0.3,7.7,0.3,11.6c0.2,5.8,0.4,11.6,0.4,17.4
		c0.1,10.8,0.1,21.6,0,32.3c-0.1,4-0.3,7.9-0.5,11.9c-0.2,2.5,0,8.7,4.2,7.5c1.3-0.6,2.4-1.5,3.2-2.7c1.7-2.2,2.9-5.4,3-8.2
		c0.8-12.7,0.4-25.5,0.3-38.1c-0.2-15.1-0.8-30.1-1.1-45.2c0.7-2.2,1-4.6,0.9-6.6c0-0.7-0.1-1.4-0.2-2.1c-0.1-1.6-0.6-4-2.5-4.5
		c-0.2-0.1-0.5-0.1-0.7-0.1C830.2,867.8,828.9,869.3,828,870.4L828,870.4L828,870.4z"/>
	<path d="M897.7,847.5c-3.4,2.7-4.7,8.1-4.5,12.2c0,0.2,0,0.4,0,0.6c-0.4,10-0.9,20-1.2,30c-0.3,11.3-0.5,22.5-0.8,33.8
		c-0.1,4.6-0.2,9.2-0.5,13.7c-0.1,2.1-0.3,4.2-0.4,6.3c-1.2-3.9-2.4-7.8-3.5-11.7c-2.6-8.8-5.1-17.7-7.8-26.6
		c-2.7-8.8-5.5-17.5-8.3-26.2c-2.8-8.7-5.5-17.5-8.9-26c-0.7-1.8-1.9-3.1-4-2.6c-0.1,0-0.3,0.1-0.4,0.1c-1.4,0.6-2.5,1.5-3.3,2.8
		c-1.1,1.7-2,3.5-2.5,5.4c-0.3,1.4-0.6,2.7-0.8,4.1c0,0.6,0,1.3-0.1,1.9c-3.3,33.6-8.9,66.9-13.2,100.4c-0.3,2.7,0.1,8.9,4.3,7.8
		c1.4-0.6,2.5-1.5,3.3-2.8c1.8-2.4,2.8-5.5,3.1-8.5c2.3-18,5-35.9,7.5-53.8c1-7.1,1.9-14.2,2.8-21.3c0.7,2.1,1.3,4.2,2,6.3
		c2.9,9,5.8,18,8.6,27.1c2.6,8.6,5,17.2,7.6,25.9c1.3,4.5,2.6,8.9,4,13.3c1.6,5,3,10.4,6,14.7c1.3,1.9,3.4,0.7,4.8-0.1
		c2.4-1.5,3.7-3.9,5-6.4c1.6-3.1,2.1-6.9,2.7-10.2c0.7-4.2,1.4-8.3,1.6-12.5c0.3-4.2,0.6-8.3,0.8-12.5c0.3-8.9,0.5-17.9,0.7-26.8
		c0-0.3,0-0.5,0-0.8c0,0.1,0,0.2,0,0.3c0-0.4,0-0.8,0-1.2c0,0.2,0,0.4,0,0.5c0.2-8.3,0.4-16.5,0.7-24.8c0.1-4.5,0.3-9.1,0.5-13.6
		c0.1-2.8,0.2-5.6,0.3-8.5c0-3.1,0-6-0.9-9c-0.5-1.7-1.6-2.5-2.8-2.5C899.4,846.6,898.5,846.9,897.7,847.5L897.7,847.5L897.7,847.5z
		 M902.5,905.3c0-0.1,0-0.3,0-0.4C902.5,905,902.5,905.1,902.5,905.3L902.5,905.3L902.5,905.3z"/>
	<path d="M832.7,832.4c-2.1,1.7-3.4,4.7-4.2,7.2c-0.6,2-0.8,3.9-0.7,6c0.1,1.2,0.7,5,2.8,5c1.3,0.2,2.4-0.1,3.4-1.1
		c2.1-1.7,3.4-4.7,4.2-7.2c0.6-2,0.8-3.9,0.7-6c-0.1-1.2-0.7-5-2.8-5c-0.2,0-0.5-0.1-0.7-0.1C834.3,831.2,833.4,831.6,832.7,832.4
		L832.7,832.4L832.7,832.4z"/>
	<path d="M937.1,839.4c-3,0.3-5.5,2.2-7.7,4c-2.1,1.7-4,3.9-5.8,6c-1.1,1-2,2.2-2.6,3.6c-1.1,2.3-1.8,5.2-1.5,7.8
		c0,1.3,0.4,2.5,1.2,3.6c0.6,0.6,1.2,0.9,1.9,0.9c-1,3.4-1.9,6.7-2.8,10.1c-1.3,5.3-2.4,10.7-3.4,16.1c-0.9,4.7-1.7,9.3-2.4,14.1
		c-0.3,2-0.7,4-0.9,6c-0.2,2.9-0.5,5.7-0.7,8.6c-0.4,5.1-0.4,10.3-0.4,15.5c-0.1,5,0.3,9.8,1.2,14.7c1.2,6.8,3.1,13.4,6.4,19.5
		c2.5,4.7,5.9,10,11.3,11.7c2.4,0.7,5.3,0.1,7.5-0.5c1.3-0.4,2.4-1,3.5-1.7c1.8-1,3.4-2.1,4.9-3.3c2.4-2,4.5-4.6,6.4-7
		c1.9-2.4,3.6-5,5.2-7.6c1.8-3.1,3.5-6.2,5.1-9.4c1.8-3.8,3.3-7.8,4.7-11.7c1.9-5.3,3.3-10.8,4.4-16.4c1.3-6.4,2.2-12.7,2.7-19.2
		c0.9-12.6,0.2-25.4-3.2-37.6c-1.5-5.3-3.7-10.4-6.4-15.2c-2.9-5-8.1-8.4-13.4-10.6c-3.5-1.4-7.3-2-11.1-2
		C940,839.1,938.6,839.2,937.1,839.4L937.1,839.4L937.1,839.4z M923.7,849.3C923.7,849.3,923.7,849.3,923.7,849.3
		C923.7,849.3,923.7,849.3,923.7,849.3C923.7,849.3,923.7,849.3,923.7,849.3L923.7,849.3L923.7,849.3z M934.2,857.9
		c6.2,0.2,12.2,1.6,17.6,4.7c2.7,2,4.7,4.3,6.4,7.2c2.5,5.1,4.3,10.5,5.5,16.1c1,6.1,1.4,12.2,1.4,18.4c-0.3,6.2-0.9,12.4-2,18.5
		c-1.1,5-2.4,9.9-4,14.7c-1.6,4.1-3.5,8.1-5.6,11.9c-1.8,3-3.9,5.9-6.1,8.6c-1.3,1.3-2.7,2.5-4.2,3.5c-1.7,0.9-3.5,1.5-5.4,1.8
		c-1.2-0.1-2.3-0.3-3.5-0.9c-2.9-2.3-5.1-5.2-6.9-8.4c-2.4-4.9-4-9.9-5.2-15.2c-1.1-6.5-1-13-1.1-19.6c0.2-3.2,0.4-6.3,0.6-9.5
		c0.2-3.2,0.8-6.3,1.2-9.5c0.8-5.8,1.8-11.5,2.9-17.3c0.6-2.8,1.2-5.7,2-8.5c1-3.7,2-7.3,3.1-11c0.4-1.4,0.6-2.9,0.5-4.3
		c0-0.1,0-0.2,0-0.4c0,0,0,0,0,0C932.2,858.3,933.1,858,934.2,857.9L934.2,857.9L934.2,857.9z"/>
	<path d="M1019.5,838.3c-2.8,0.1-5,0.9-7.4,2.5c-3.7,2.4-6.1,5.9-7.8,9.9c-0.4-0.1-0.9-0.1-1.5,0c-1.3,0.5-2.3,1.4-3,2.5
		c-1.6,2.2-2.6,5.1-2.9,7.8c-1,11.6-1.6,23.3-2.2,34.9c-0.5,8.7-0.5,17.4-0.7,26.1c0,2.7-0.1,5.5-0.1,8.2c-0.3,4.7-0.6,9.5-0.8,14.2
		c-0.2,5.2-0.5,10.4-0.5,15.6c0,2.9-0.1,5.8-0.1,8.8c0,1.4,0,2.7,0,4.1c0,3.6,0.6,6.9,1.3,10.4c0.5,2.8,3.6,3.4,5.5,1.6
		c2.2-2.1,3.7-4.5,4.5-7.4c0.7-2.5,0.8-4.9,0.8-7.4c0.2-5.9,0.2-11.7,0.1-17.6c-0.1-5.5-0.6-11-0.7-16.5c0.3-5.1,0.6-10.3,0.9-15.4
		c1.3-0.3,2.5-0.7,3.8-1.1c5.5-1.8,10.6-4.4,15.6-7.5c5.6-3.5,10.5-7.9,14.5-13.2c2-2.7,3.6-5.9,4.9-9c1.9-5,3-10,3-15.4
		c0.1-6.7-1.8-13.2-5-19c-1.5-2.7-3.2-5.3-5.2-7.7c-2.3-2.8-5.2-4.9-8.3-6.7c-2.5-1.5-5.3-2.5-8.2-2.5
		C1019.7,838.3,1019.6,838.3,1019.5,838.3L1019.5,838.3L1019.5,838.3z M1015.4,856.8c2.9,0.2,5.6,1.5,8.1,3c4,3,7.1,6.9,9.6,11.2
		c1.1,2.3,2,4.6,2.6,7.1c0.2,1.1,0.3,2.2,0.3,3.3c0,0.3-0.1,0.6-0.1,0.9c0,0.1-0.1,0.2-0.1,0.4c-0.2,0.5-0.5,1.1-0.7,1.6
		c-0.6,0.9-1.3,1.8-2,2.7c-3.2,3.3-6.8,5.9-10.7,8.4c-5.1,2.8-10.5,4.9-16,6.7c1.1-13.9,2.3-27.7,4.7-41.5c0.2-0.8,0.4-1.5,0.6-2.3
		c0.3-0.2,0.6-0.4,0.9-0.6C1013.4,857.3,1014.3,857,1015.4,856.8L1015.4,856.8L1015.4,856.8z M1012.2,857.4
		c-0.2,0.2-0.4,0.4-0.6,0.6c0,0,0,0,0,0C1011.8,857.8,1012,857.6,1012.2,857.4L1012.2,857.4L1012.2,857.4z"/>
	<path d="M1064.3,847.2c-0.9,0.4-1.6,1-2.2,1.8c-1.1,1.5-2,3.7-2.1,5.6c-1,16.8-1.1,33.6-2,50.4c-1,17-2,34-3.4,50.9
		c-0.2,1.9-0.3,3.8-0.5,5.7c-0.3,3.7-0.8,7.6,0.4,11.2c0.3,1,0.9,1.7,1.8,2.1c1,0.2,1.9-0.1,2.6-0.8c2.3-1.8,3.4-5.3,3.7-8.1
		c1-7.2,1-14.6,1.2-21.9c0.2-6.3,0.4-12.7,0.7-19c0.5-14.7,1.2-29.3,1.5-44c0,0.6,0,1.3,0,1.9c0.1-5.2,0.2-10.4,0.3-15.7
		c0,0.6,0,1.2,0,1.9c0.1-5.6,0.4-11.3,0.8-16.9c0.1-1.6,0-5.2-2.2-5.2C1064.7,847.1,1064.5,847.1,1064.3,847.2L1064.3,847.2
		L1064.3,847.2z"/>
	<path d="M1102.3,845.2c-1.3,1.2-2.3,2.6-3,4.2c-1.3,2.8-1.9,5.9-1.8,8.9c0.6,14.5,1,29.1,1.4,43.6c0.3,8.8,0.1,17.7,0.1,26.5
		c-0.1,6.2-0.3,12.5-0.5,18.7c-0.2,5.2-0.5,10.4-0.6,15.6c-1.7,3.5-2.4,7.9-0.3,11.4c0.3,0.8,0.7,1.4,1.4,1.8
		c0.4,0.3,0.9,0.6,1.3,0.9c1.2,0.2,2.3-0.1,3.2-1c2.1-1.6,3.2-4.4,3.9-6.8c1.6-5.1,1.4-10.6,1.6-15.9c0.2-4.6,0.3-9.2,0.4-13.8
		c0.3-8.6,0.5-17.2,0.5-25.8c0-8.5,0-16.9-0.2-25.4c-0.4-13-0.8-25.9-1.3-38.9c0-1.5-0.5-2.9-1.4-4.1c-0.7-0.7-1.4-1-2.1-1
		C1104.1,844.1,1103.2,844.5,1102.3,845.2L1102.3,845.2L1102.3,845.2z"/>
	<path d="M1112.5,899.1c-7.9,0.9-15.8,1.4-23.7,2.1c-9.5,0.8-19,1.7-28.5,2.6c-1.4,0.6-2.5,1.5-3.3,2.8c-1.8,2.4-2.8,5.5-3.1,8.4
		c-0.2,1.8-0.1,3.5,0.4,5.1c0.3,0.6,0.6,1.2,0.9,1.7c0.8,0.9,1.8,1.2,3,0.9c9.5-0.9,19-1.6,28.5-2.7c8-1,16.1-1.8,23.9-3.9
		c1.2-0.5,2.2-1.3,3-2.5c1.6-2.1,2.5-5,2.8-7.6c0.2-1.6,0.1-3.1-0.3-4.7c-0.3-0.5-0.5-1-0.8-1.5c-0.5-0.6-1.2-0.9-1.9-0.9
		C1113.1,899,1112.8,899,1112.5,899.1L1112.5,899.1L1112.5,899.1z"/>
	<path d="M1137.4,840.2c-0.4,0.1-0.9,0.1-1.3,0.2c-1,0.5-2,1.1-2.8,1.8c-0.9,1-1.8,1.9-2.6,2.9c-0.6,0.8-1.2,1.7-1.8,2.6
		c-2,3.1-3.4,6.4-4.6,9.9c-2.5,7.3-3,15-3.3,22.7c-0.1,4.4-0.3,8.8-0.3,13.3c-0.1,7.5-0.2,15-0.2,22.5c-0.3,12.6-0.9,25.2-1.2,37.9
		c-0.1,4.1-0.3,8.1-0.3,12.2c0,4.7-0.8,10.7,3,14.1c3.2,2.9,8.1,2.5,12.1,2.3c2.7-0.1,5.4-0.4,8.1-0.8c2.5-0.3,5-0.7,7.4-1.2
		c4.2-0.8,7.9-3,11.4-5.5c1.3-1.1,2.2-2.5,2.9-4c0.9-1.8,1.4-3.8,1.6-5.8c0.2-1.7,0.1-3.3-0.4-5c-0.5-1.3-2-3.5-3.8-2.5
		c-2.3,1.3-4.6,2.3-7.1,3.1c-2.2,0.7-4.6,1-7,1.3c-3.6,0.5-7.1,1-10.7,1.2c-2.3,0-4.5-0.1-6.6-0.9c-0.1-1.7,0-3.3,0-5
		c0.3-11.6,0.7-23.3,1.1-34.9c0.4-13,0.5-26.1,0.6-39.1c0.1-6.5,0.1-13.1,1.1-19.5c0.2-0.8,0.4-1.5,0.6-2.2c0.3-0.6,0.5-1.2,0.8-1.8
		c0.2-0.2,0.3-0.4,0.5-0.7c0.1,0,0.2,0,0.3,0c4.9,0.1,9.9,1.3,14.6,2.5c5.9,1.5,11.4,3.6,17.1,5.8c1.3,0.2,2.4-0.1,3.4-1
		c2.1-1.7,3.4-4.7,4.1-7.2c0.9-3,1.8-9.4-2.1-10.9c-3.6-1.5-7.3-2.9-11-4.2c-3-1-6.3-1.7-9.4-2.4c-3.1-0.7-6.2-1.3-9.4-1.6
		c-0.6-0.1-1.3-0.1-1.9-0.1C1139.4,840.1,1138.4,840.2,1137.4,840.2L1137.4,840.2L1137.4,840.2z M1131.6,884.8c0,0.4,0,0.7,0,1.1
		C1131.6,885.5,1131.6,885.1,1131.6,884.8L1131.6,884.8L1131.6,884.8z M1120.5,914.1c0,0.4,0,0.8,0,1.2
		C1120.5,914.9,1120.5,914.5,1120.5,914.1L1120.5,914.1L1120.5,914.1z M1129.9,963.3c0.1,0.2,0.2,0.4,0.3,0.6
		C1130.1,963.7,1130,963.5,1129.9,963.3C1129.9,963.3,1129.9,963.3,1129.9,963.3L1129.9,963.3L1129.9,963.3z M1137.8,963.4
		c-0.2,0-0.4,0-0.5,0C1137.5,963.4,1137.6,963.4,1137.8,963.4L1137.8,963.4L1137.8,963.4z"/>
	<path d="M1153.3,910.7c-8.7,1.3-17.3,2.9-25.9,4.5c-1,0.4-1.8,1.1-2.4,2c-1.3,1.7-2.1,4-2.3,6.2c-0.2,2.1,0,6.3,3.2,5.7
		c8.7-1.7,17.4-3.5,26-5.5c4-1,6.7-12.9,1.9-12.9C1153.6,910.7,1153.4,910.7,1153.3,910.7L1153.3,910.7L1153.3,910.7z"/>
	<path d="M1230.6,839.4c-1.1,1.6-1.9,3.3-2.4,5.2c-0.7,2.3-0.8,4.4-0.4,6.7c0,0,0,0,0,0c0,0,0,0,0-0.1c0,0,0,0.1,0,0.1
		c-0.2,3.1-0.5,6.2-0.7,9.4c-0.2,4.6-0.3,9.1-0.3,13.7c-0.1,8,0.2,16,0.4,24c0.5,15.1,1.4,30.2,1.6,45.3c-1.2-3.4-2.3-6.9-3.4-10.3
		c-2.9-9.1-5.7-18.1-8.3-27.2c-5-17.1-9.1-34.4-12.8-51.8c0.1,0.5,0.2,1,0.3,1.4c-0.3-1.5-0.6-3-0.9-4.4c-0.5-2.9-0.8-6-1.8-8.8
		c-0.3-1.3-1.1-2.2-2.3-2.7c-1.3-0.2-2.4,0.1-3.4,1c-3.1,2.4-4.1,6.7-4.8,10.3c-0.8,4.4-1.3,8.8-2,13.2c-0.6,4.3-1.3,8.6-1.9,12.9
		c-1.5,10.3-3,20.7-4.5,31.1c-2.8,19.4-5,38.8-7.9,58.2c-0.4,2.7,0.1,9,4.4,7.8c1.4-0.6,2.5-1.5,3.3-2.8c1.8-2.5,2.7-5.5,3.1-8.5
		c2.8-19.1,5-38.3,7.8-57.4c1.1-7.9,2.3-15.7,3.4-23.6c0.7,2.8,1.3,5.7,2,8.5c2.3,10.2,5.1,20.3,8.1,30.3c3,10.4,6.2,20.8,9.7,31.1
		c1.6,4.8,3.2,9.5,5,14.2c0.4,1.2,0.9,2.3,1.4,3.5c0.8,2,1.8,4.5,4,5.4c2.7,1,5.4-1.5,6.9-3.5c2.9-3.9,4.2-9.3,4.8-14
		c1.1-8,0.9-16.1,0.7-24.1c-0.1-3.9-0.2-7.8-0.3-11.7c-0.2-7.3-0.5-14.5-0.8-21.8c-0.5-12.8-0.9-25.7-0.8-38.5
		c0.1-2.9,0.2-5.8,0.4-8.8c0.3-4.3,1.5-9.4-0.6-13.4c-0.3-1.2-1.1-2.1-2.2-2.5c-0.2-0.1-0.5-0.1-0.7-0.1
		C1232.9,836.6,1231.5,838.2,1230.6,839.4L1230.6,839.4L1230.6,839.4z"/>
	<path d="M451.2,712.7c-3.3,0.9-6.2,2.6-9.2,4.3c-2.4,1.4-4.8,2.9-7.3,4.4c-0.9,0.8-1.2,1.9-0.8,3c0.6,2.3,3.4,3.8,5.3,4.7
		c1.9,0.9,4,1.4,6.1,1.6c2.6,0.2,4.7-0.1,6.9-1.4c4.6-2.8,9.2-5.6,13.9-8.2c0.9-0.8,1.1-1.8,0.8-2.9c-0.6-1.3-1.5-2.3-2.7-3.1
		c-2.6-1.9-6-2.9-9.3-2.9C453.7,712.2,452.4,712.4,451.2,712.7L451.2,712.7L451.2,712.7z"/>
	<path style="fill:#161616;" d="M850.1,1013.4c-38.3,1-76.5,3.4-114.7,6c-18.9,1.3-37.8,2.5-56.7,4c-18.6,1.5-37.2,3.8-55.6,6.8
		c-18.1,3-36.3,6.1-54.2,10.2c-5,1.1-10,2.1-14.9,3.4c-5.1,1.4-10.3,2.7-15.4,4.1c-8.9,2.4-17.7,5.1-26.5,7.8
		c-25.8,8-51.3,16.8-76.9,25.6c-2,0.7-3.7,1.8-4.8,3.7c-1.1,1.9-1.4,4.1-0.8,6.2c1.1,4,5.7,7,9.8,5.6c37.6-13,75.3-26,113.8-36.2
		c15.2-4,30.6-7.1,46.1-10c7.8-1.4,15.5-2.9,23.3-4.2c7.6-1.2,15.2-2.4,22.8-3.5c9.7-1.1,19.5-2.2,29.2-3.2
		c9.1-0.9,18.3-1.4,27.4-2.1c18.5-1.3,37-2.6,55.5-3.8c18.6-1.2,37.1-2.3,55.7-3.1c18.4-0.8,36.8-1.6,55.2-1.6
		c38.9,0.1,77.9,0.6,116.8,1c36.5,0.4,73.1,1.2,109.6,2.5c37.5,1.4,75.1,3.3,112.4,7c25.7,2.6,51.3,5.8,76.9,9c-0.2,0-0.3,0-0.5-0.1
		c3.7,0.5,7.4,1,11.1,1.5c2.2,0.3,4.1,0.4,6.1-0.8c1.8-1.1,3.2-2.8,3.7-4.9c0.5-2,0.3-4.3-0.8-6.1c-1-1.7-2.9-3.4-4.9-3.7
		c-18.9-2.7-37.9-4.8-56.8-7.1c-17.9-2.2-35.9-4.2-53.9-5.6c-38.2-3-76.4-4.8-114.7-6c-37.7-1.2-75.4-1.7-113.2-2.1
		c-18.3-0.2-36.7-0.4-55-0.5c-11.6-0.1-23.1-0.3-34.7-0.3C863.9,1013.2,857,1013.3,850.1,1013.4L850.1,1013.4L850.1,1013.4z
		 M647.5,1042.7c-0.6,0.1-1.2,0.2-1.8,0.3C646.3,1042.9,646.9,1042.8,647.5,1042.7L647.5,1042.7L647.5,1042.7z"/>
	<path style="fill:#161616;" d="M531.6,1231c0,0.8,0.7,1.5,1.5,1.5c0.8,0,1.5-0.7,1.5-1.5c0-0.8-0.7-1.5-1.5-1.5
		C532.3,1229.5,531.6,1230.2,531.6,1231L531.6,1231L531.6,1231z"/>
	<path style="fill:#161616;" d="M534.3,1142.5c-5.3,0.9-10.2,2.5-15,4.8c-3.8,1.8-7.2,4.3-10.5,6.8c-3.2,2.4-6.1,5.3-8.6,8.4
		c-3,3.6-5.3,7.6-7,12c-1.7,4.3-2.2,9.1-2.2,13.7c0,4,0.8,8,1.8,11.8c0.6,2.1,1.5,4.2,2.4,6.2c0.9,2.1,2.1,4.1,3.3,6
		c2.3,3.6,4.9,7.2,8.2,9.9c1.7,1.4,3.5,2.6,5.5,3.5c1.6,0.8,3.3,1.4,5,2c0.2,1.5,1.1,2.9,2.5,3.6c2,1,3.9,2,5.9,3
		c1.9,1,3.8,1.8,5.7,2.6c2.6,1,5.3,1.3,8.1,1.7c3.4,0.4,6.9,0.3,10.3,0c2.8-0.2,5.5-0.4,8.2-0.7c4.8-0.6,9.1-2.2,13.5-4.1
		c4.7-2.1,8.9-5.4,12.8-8.7c1.7-1.4,3.3-2.8,4.9-4.3c1.8-1.7,3.2-3.9,4.6-5.9c1.3-2,2.4-4.1,3.5-6.2c1.4-2.7,2.6-5.5,3.4-8.5
		c0.7-2.6,1-5.3,1.2-8c0.2-2.3,0.1-4.5-0.1-6.8c-0.5-5.2-1.7-10.5-3.8-15.3c-1.9-4.3-5.2-8-8.3-11.4c-3.5-3.7-7.8-6.8-12.1-9.5
		c-4.1-2.6-8.6-4.5-13.3-5.9c-4.9-1.4-10-1.8-15.1-2c-0.6,0-1.2,0-1.8,0C542.8,1141.2,538.5,1141.8,534.3,1142.5L534.3,1142.5
		L534.3,1142.5z M555.3,1157.1c3.2,0.5,6.4,1.4,9.5,2.5c3.7,1.7,7.2,3.9,10.4,6.3c2.7,2.2,5.1,4.7,7.3,7.3c0.8,1.2,1.6,2.4,2.3,3.7
		c1.2,3,2,6.2,2.5,9.4c0.3,2.8,0.3,5.6,0,8.5c-0.3,2-0.8,3.9-1.5,5.8c-1.6,3.7-3.4,7.3-5.7,10.6c-2.7,3.1-5.9,5.9-9.2,8.5
		c-2.7,2-5.6,3.6-8.6,5c-2.8,1.1-5.6,1.8-8.6,2.3c-5.3,0.7-10.6,1.2-15.9,0.7c-1.5-0.3-3-0.7-4.4-1.2c-1.9-0.8-3.8-1.8-5.6-2.7
		c0.4-1.3,0.4-2.6,0-3.9c-0.4-1.6-1.7-3.5-3.2-4.2c-2.4-1.1-4.7-2.2-6.8-3.6c-0.8-0.7-1.5-1.5-2.3-2.3c-2.5-3.5-4.7-7.2-6.5-11.2
		c-0.8-2.3-1.4-4.6-1.8-7c-0.3-2.5-0.3-5-0.1-7.5c0.3-1.6,0.7-3.2,1.3-4.8c0.9-2,2-3.9,3.3-5.7c2.5-3,5.2-5.6,8.2-8
		c2.8-2,5.7-3.7,8.8-5.2c3.9-1.5,8-2.4,12.1-3.1C545.6,1156.6,550.5,1156.6,555.3,1157.1L555.3,1157.1L555.3,1157.1z M556.1,1157.2
		c0.2,0,0.4,0,0.6,0.1C556.5,1157.2,556.3,1157.2,556.1,1157.2L556.1,1157.2L556.1,1157.2z M507.9,1180c-0.1,0.2-0.1,0.3-0.2,0.5
		C507.7,1180.4,507.8,1180.2,507.9,1180L507.9,1180L507.9,1180z M570.6,1219.8c-0.3,0.2-0.5,0.4-0.8,0.6
		C570.1,1220.2,570.4,1220,570.6,1219.8L570.6,1219.8L570.6,1219.8z"/>
	<path style="fill:#161616;" d="M536.1,1155.4c-1.7,0.5-3.2,1.6-4.1,3.1c-1,1.7-1,3.4-0.7,5.3c0.1,0.8,0.3,1.6,0.4,2.3
		c0.5,4.7,0.6,9.5,0.8,14.3c0.1,5.4,0.4,10.7,0.6,16.1c0.3,5.9,0.5,11.8,1.3,17.6c0.9,6.1,2,12.1,3.3,18.1c0.7,3.4,4.7,5.3,7.8,4.5
		c1.6-0.4,3-1.5,3.8-2.9c0.9-1.6,1-3.2,0.6-4.9c-1.1-5.6-2.2-11.2-3-16.9c-0.7-8.8-1-17.6-1.2-26.4c-0.1-3.8,0-7.7-0.1-11.5
		c0-2.1,0-4.1-0.1-6.2c-0.1-2.5-0.2-5.3-1-7.7c-1-3-3.6-5-6.6-5C537.3,1155.2,536.7,1155.3,536.1,1155.4L536.1,1155.4L536.1,1155.4z
		"/>
	<path style="fill:#161616;" d="M490.8,1186.4c-0.7,2.8,1,6,3.8,6.6c4.5,1,9,1.9,13.5,2.8c3.2,0.6,6.5,1,9.7,1.4
		c6.9,0.9,13.8,1.4,20.7,1.7c6.7,0.3,13.3,0.3,20,0.2c6.2,0,12.4-0.1,18.6-0.2c5-0.1,10.1,0,15-1.4c2.7-0.8,4.6-3.2,4.6-6.1
		c0-3.5-2.9-6.1-6.3-6.2c-2.7-0.1-5.3-0.1-8,0.2c-2.9,0.3-5.8,0.6-8.7,0.8c-5.5,0.5-11.1,0.9-16.6,1.1c-5.5,0.2-11,0.5-16.5,0.4
		c-2.9-0.1-5.9,0-8.8-0.2c-3.2-0.2-6.5-0.4-9.7-0.7c-3.2-0.4-6.5-0.8-9.7-1.2c-1.9-0.3-3.9-0.8-5.8-1.1c-3.1-0.6-6.1-1.2-9.2-1.9
		c-0.4-0.1-0.9-0.1-1.3-0.1C493.7,1182.4,491.5,1183.9,490.8,1186.4L490.8,1186.4L490.8,1186.4z"/>
	<path style="fill:#161616;" d="M853.8,1049.6c-36.9,0.1-73.8,2-110.7,3.5c-9.6,0.4-19.2,0.8-28.9,1.2c-5.4,0.2-10.8,0.5-16.3,0.7
		c-4.8,0.2-9.7,0.7-14.5,1c-8.9,0.6-17.8,1.7-26.7,2.8c-5.5,0.6-11,1.6-16.5,2.5c-3.8,0.6-7.5,1.2-11.3,1.8
		c-19.4,3.5-38.7,7.5-58,11.8c-18,4.1-35.6,9.8-53.3,15.3c-6.7,2.1-13.4,4.3-20,6.5c-6.1,2-12.3,4-18.3,6.4
		c-7.3,2.8-14.5,5.7-21.7,8.7c-7,2.9-13.9,6-20.9,9c-1.3,0.6-2.3,2.1-2.6,3.4c-0.4,1.4-0.2,3,0.6,4.3c0.7,1.3,2,2.2,3.4,2.6
		c1.6,0.4,2.9,0.1,4.3-0.6c5.9-2.6,11.9-5.1,17.8-7.6c8.2-3.2,16.3-6.6,24.6-9.3c9.1-3,18.2-5.9,27.3-8.6
		c18.1-5.3,36.2-10.7,54.5-15.1c15.4-3.7,31.1-6.6,46.6-9.6c7.8-1.5,15.6-2.8,23.4-4.2c6.7-1.2,13.4-2,20.1-2.9c0,0-0.1,0-0.1,0
		c8.9-0.9,17.8-2,26.7-2.6c4.8-0.3,9.7-0.7,14.5-0.9c5.4-0.2,10.9-0.4,16.3-0.6c18.7-0.8,37.4-1.4,56.1-2.1
		c18.7-0.7,37.4-1.4,56.1-1.8c18.6-0.4,37.2-0.3,55.8-0.2c19.2,0.1,38.3,0.5,57.4,1.1c18.5,0.5,37,1.5,55.5,2.3
		c37.2,1.7,74.3,4.2,111.5,6.6c20.2,1.3,40.5,2.6,60.7,3.9c18,1.2,36,2.3,53.9,3.8c15.4,1.3,30.8,2.8,46.1,4.7
		c5.2,0.7,10.4,1.4,15.6,2.2c2.7,0.4,5.4,0.8,8.1,1.3c3.5,0.6,7,1.3,10.6,1.4c3.5,0.1,6.6-2.5,7.5-5.8c0.5-2,0.3-4.1-0.8-5.9
		c-0.9-1.6-2.8-3.4-4.8-3.6c-2.2-0.3-4.4-0.8-6.7-1.2c-2.1-0.3-4.2-0.7-6.4-1c-3.9-0.6-7.8-1.2-11.7-1.8
		c-10.1-1.4-20.2-2.6-30.3-3.7c-18.5-2-37.1-3.3-55.7-4.6c-37.8-2.5-75.5-4.8-113.3-7.4c-37.8-2.6-75.6-4.4-113.4-6
		c-33.3-1.5-66.6-2-99.9-2C862.2,1049.6,858,1049.6,853.8,1049.6L853.8,1049.6L853.8,1049.6z M658.8,1073.3c-0.3,0-0.5,0.1-0.8,0.1
		C658.2,1073.4,658.5,1073.4,658.8,1073.3L658.8,1073.3L658.8,1073.3z M461.6,1122.7c-0.2,0.1-0.5,0.2-0.7,0.3
		C461.1,1122.9,461.4,1122.8,461.6,1122.7L461.6,1122.7L461.6,1122.7z"/>
	<path style="fill:#161616;" d="M1810.6,1061.2c-3,0.1-6.1,0.3-9.1,0.5c-6.3,0.4-12.5,1.1-18.8,1.8c-14.6,1.7-29.1,4.1-43.7,6.6
		c-2,0.3-3.8,2-4.8,3.7c-1.1,1.9-1.4,4.1-0.8,6.2c0.5,2,1.9,3.7,3.7,4.8c2,1.2,4,1.2,6.2,0.8c9.7-1.7,19.3-3.3,29-4.8
		c7.7-1,15.5-2,23.3-2.7c3.8-0.3,7.7-0.6,11.6-0.8c4.7-0.2,9.8,0.1,14.3-1.5c3-1.1,5.3-3.5,5.3-6.9c0-3.3-2.2-6-5.3-6.9
		c-2.5-0.8-5-1-7.5-1C1812.8,1061.1,1811.7,1061.2,1810.6,1061.2L1810.6,1061.2L1810.6,1061.2z"/>
	<path style="fill:#161616;" d="M432.9,1091.2c-5.8,0.6-11.6,1.8-17.4,2.7c-4.8,0.8-9.6,1.6-14.4,2.2c-6.1,0.8-12.1,1.5-18.2,2.3
		c-6,0.8-12.1,1.7-18.1,2.6c-23.7,3.1-47.4,5.9-71.1,9.1c0.4-0.1,0.9-0.1,1.3-0.2c-8.1,1.1-16.1,2.3-24.2,3.5
		c-8.2,1.3-16.4,2.5-24.5,3.9c-8.5,1.5-17.1,2.8-25.6,4.5c-10.2,2.1-20.5,4.2-30.7,6.2c-7.4,1.5-14.8,3-22.2,4.6
		c-4.1,0.8-6.4,5.6-5.4,9.4c1.2,4.2,5.4,6.2,9.5,5.4c12.7-2.6,25.4-5.3,38.2-7.8c7.3-1.5,14.7-3,22-4.3c8.4-1.5,16.8-3.1,25.2-4.3
		c8.7-1.3,17.4-2.7,26.1-3.9c4.1-0.6,8.2-1.2,12.3-1.7c15.5-2,31-4,46.6-5.8c15.2-1.8,30.4-3.8,45.5-5.9c-0.7,0.1-1.4,0.2-2.1,0.3
		c8.5-1.1,17-2,25.5-3.3c4-0.6,7.9-1.3,11.9-1.9c1.8-0.3,3.7-0.6,5.5-1c2.2-0.4,4.2-1.1,6.3-1.9c1.3-0.4,2.4-1,3.3-1.9
		c1.4-1.4,2.2-3.3,2.2-5.3c0-2-0.8-3.9-2.2-5.3c-1.2-1.2-3.1-2.2-4.9-2.2C433.2,1091.1,433.1,1091.1,432.9,1091.2L432.9,1091.2
		L432.9,1091.2z M292.9,1110.2c0.3,0,0.5-0.1,0.8-0.1C293.5,1110.2,293.2,1110.2,292.9,1110.2L292.9,1110.2L292.9,1110.2z"/>
</g>
</svg>
