<?xml version="1.0" encoding="utf-8"?>
<!-- Generator: Adobe Illustrator 22.1.0, SVG Export Plug-In . SVG Version: 6.00 Build 0)  -->
<svg version="1.1" id="Layer_1" xmlns="http://www.w3.org/2000/svg" xmlns:xlink="http://www.w3.org/1999/xlink" x="0px" y="0px"
	 viewBox="0 0 2000 2000" style="enable-background:new 0 0 2000 2000;" xml:space="preserve">
<path style="fill:#161616;" d="M1009,646.2c-1.3,0.5-2.5,1.6-3.3,2.8c-0.7,1-1.4,3.2-1.4,4.4c0,0.4,0,0.7,0.1,1.1
	c-0.4,0.7-0.9,1.4-1.4,2.1c-2.6,2.8-5.6,5.3-8.7,7.6c-10.9,7.4-22.9,12.7-35.2,17.4c-11,4-22.2,7.3-33.5,10.2
	c-4.2,1.1-8.5,1.9-12.8,2.9c-4.9,1.1-9.8,2.2-14.7,3.3c-3.2,0.7-6.4,1.1-9.6,1.7c-8.1,1.4-16.2,2.8-24.4,4
	c-8.3,1.2-16.5,2.4-24.8,3.4c-17.9,2.3-35.7,4.8-53.5,7.3c-9,1.3-18,2.9-27,4.4c-3,0.5-6.1,1.2-9.1,1.8c-5.6,1.1-11.2,2.2-16.7,3.4
	c-2.8,0.6-5.5,1.3-8.3,2c-5.3,1.3-10.7,2.6-16,4c-9.5,2.4-18.8,5.7-28,9.1c-7.8,2.9-15.5,6.1-23,9.8c-5.1,2.6-10.2,5.2-15.4,7.8
	c-5.6,2.8-11.1,5.8-16.5,9c-10.5,6.2-20.5,13.2-30.2,20.5c-9.7,7.4-19,15.4-27.7,24c-8.4,8.2-15.6,17.7-22.1,27.4
	c-2.8,4.2-5.3,8.4-8,12.7c-0.9,1.4-1.6,3-2.5,4.4c-1,1.9-2.2,3.7-3.1,5.6c-2.1,4.2-4.3,8.4-6.2,12.7c-3.6,7.8-7.1,15.5-9.9,23.6
	c-2.8,7.8-5.4,15.8-7.2,23.9c-2.1,9.4-4,18.8-5.5,28.2c-0.6,3.5-1,7.1-1.4,10.6c-1.6-1.2-3.3-2.2-5.1-3.1c-2.3-1.2-4.7-2.2-7.1-3.1
	c-2.4-0.9-5.1-1.2-7.6-1.5c-2.4-0.2-4.9,0.1-7.3,0.4c-2,0.3-3.9,0.9-5.8,1.5c-4,1.4-7.7,3.3-11,5.8c-3.6,2.7-6.6,6-9.2,9.7
	c-2.6,3.6-4.5,7.8-6.1,11.9c-1.8,4.5-2.8,9.3-3.7,14c-0.8,4.3-1.3,8.5-1.5,12.8c-0.2,4.7,0.2,9.4,0.7,14.1c0.5,4.5,1.6,8.9,3,13.3
	c1.4,4.5,3.2,9,5.7,13.1c2,3.3,4.5,6.2,7.4,8.7c1.8,1.5,3.6,2.9,5.5,4.2c1.9,1.2,4.1,2.2,6.2,3.2c3.9,1.8,8.2,2.7,12.5,3.3
	c2.3,0.3,4.5,0.2,6.8,0.1c0.1,0.2,0.2,0.4,0.3,0.6c1.4,4.6,2.2,9.5,3,14.3c0.8,4.6,1.6,9.2,2.4,13.8c1.5,8.5,3.5,16.9,5.5,25.4
	c2,8.3,4.7,16.3,7.4,24.4c1.4,4.2,3,8.2,4.7,12.3c0.8,1.9,1.5,3.8,2.2,5.7c0.7,1.7,1.6,3.3,2.3,5c1.1,2.4,2.3,4.9,3.4,7.3
	c1.7,3.6,3.7,7.2,5.7,10.7c5.9,10.2,12.8,19.8,20.5,28.8c5.3,6.2,11.1,12.1,17.1,17.7c3.8,3.6,7.6,7.3,11.6,10.7
	c3.6,3,7.2,6.1,10.8,9.1c3.1,2.6,6.4,5,9.6,7.5c3.3,2.5,6.7,4.8,10.1,7.2c3.4,2.3,6.9,4.4,10.4,6.5c15.3,9.2,31.5,16.8,47.8,24.1
	c14.6,6.5,29.4,12.5,44.4,17.9c8.1,2.9,16.1,5.9,24.4,8.1c4,1.1,7.9,2.2,12,3.1c4.7,1,9.4,2.1,14.1,2.9c8.4,1.4,16.7,3,25.2,3.8
	c8.6,0.9,17.3,1.9,25.9,2.4c8.1,0.5,16.3,1.2,24.5,1.3c8.2,0.1,16.4,0,24.6-0.6c9.3-0.7,18.5-1.3,27.7-2.5c4.7-0.6,9.3-1.3,14-1.9
	c4.2-0.6,8.4-1.4,12.6-2.1c4.3-0.7,8.6-1.8,12.8-2.7c3.9-0.8,7.7-2,11.6-3c7.8-2.1,15.4-4.6,23-7.3c8-2.9,16.1-5.8,23.9-9.2
	c4.7-2.1,9.4-4.2,14.1-6.3c4.4-2,8.7-4.3,12.9-6.6c5.7-3.1,11.3-6.6,16.5-10.4c3.8-2.8,7.7-5.7,11.5-8.5c3.1-2.3,6.1-4.9,9-7.4
	c6.1-5.1,11.9-10.6,17.2-16.4c2.8-3,5.7-6,8.4-9.1c3.1-3.6,6.3-7.1,9.2-10.8c2.7-3.5,5.6-6.9,8.2-10.5c2.8-3.8,5.5-7.6,8.3-11.4
	c2.7-3.7,5.1-7.6,7.6-11.4c2.2-3.4,4.3-6.9,6.5-10.3c4.4-7.1,8.6-14.5,12.7-21.8c8.1-14.3,15.4-29,22.9-43.7
	c6.7-13.2,13.8-26.3,19.3-40c2.6-6.6,5.1-13.3,7.2-20.2c1.1-3.4,2.1-6.8,3.1-10.3c1-3.4,1.6-7.1,2.8-10.4c0.3-0.2,0.7-0.3,1-0.4
	c2.2-0.7,4.3-1.5,6.5-2.2c5.3-1.8,10.2-4.4,14.8-7.8c4.4-3.2,8.1-7,11.4-11.3c3.7-4.8,6.5-10.3,8.9-15.8c2.4-5.6,3.6-11.6,4.6-17.6
	c0.9-5.9,1.2-12,0.9-18c-0.3-5.8-1.4-11.5-3.3-17c-0.9-2.5-1.9-5-3.1-7.3c-1.4-2.7-3.3-5.3-5.2-7.7c-2.7-3.4-5.9-6.3-8.8-9.5
	c-3.1-3.5-6.1-7-9.2-10.6c-5.5-6.5-10.9-13-16.4-19.5c-10.9-13-21.6-26.2-32.4-39.3c-10.1-12.3-20.4-24.3-30.5-36.6
	c-4.3-5.2-8.5-10.4-12.8-15.6c-3.1-3.8-6.1-7.7-9-11.6c-6.3-8.1-12.3-16.4-18.4-24.7c-4.2-6.1-8.5-12.1-12.2-18.5
	c-2.8-4.7-5.6-9.4-8.4-14c-1.8-3.1-3.4-6.3-5.1-9.5c-1.8-3.5-3.8-6.9-5.5-10.4c-2.2-4.6-4.4-9.2-6.7-13.7c-3.6-7.4-6.7-15-9.9-22.5
	c-2.2-5.3-4.3-10.6-6.3-16c-1.1-3.3-2.4-6.6-3.2-10c0.2-1.6,0.1-2.9-0.1-4.6c-0.2-1.9-1.8-3.8-3.3-4.8c-1.3-0.8-2.6-1.2-4-1.2
	C1011.5,645.4,1010.2,645.7,1009,646.2L1009,646.2L1009,646.2z M713.1,744.5c5.6-1.4,11.2-2.8,16.7-4.1c8.3-2.1,16.8-3.6,25.2-5.3
	c8.1-1.6,16.2-2.9,24.3-4.2c8-1.3,15.9-2.4,23.9-3.6c16.1-2.3,32.3-4.3,48.4-6.6c8.3-1.2,16.7-2.2,25-3.6c5.8-1,11.5-2,17.3-3
	c2.8-0.5,5.6-0.9,8.3-1.5c6.7-1.5,13.4-3,20.1-4.4c9.7-2.1,19.2-4.8,28.7-7.8c14.5-4.7,29-10.1,42.4-17.7c5.6-3.2,11-6.8,15.9-11
	c0.9,2.5,1.8,5,2.8,7.4c3.1,7.9,6.4,15.7,9.8,23.4c1.6,3.5,3.1,7.1,4.8,10.6c2,4.1,3.9,8.4,6.1,12.5c2.2,4.2,4.5,8.4,6.7,12.7
	c1.5,2.8,2.9,5.6,4.5,8.3c2.9,4.8,5.8,9.7,8.7,14.5c1.7,2.9,3.7,5.7,5.6,8.5c2.5,3.7,4.9,7.5,7.6,11.1c3,4.1,6,8.3,9,12.4
	c10.1,13.8,21,27.1,31.8,40.4c10.2,12.5,20.7,24.7,30.9,37.2c10.7,13.1,21.4,26.1,32.3,39.1c5.5,6.6,11,13.2,16.6,19.8
	c2.8,3.3,5.6,6.5,8.4,9.8c3.2,3.6,6.7,6.9,9.6,10.6c1.5,2.4,2.8,4.9,3.8,7.5c1.3,3.8,2.2,7.7,2.6,11.7c0.4,6.8-0.1,13.6-1.2,20.3
	c-1,4.7-2.5,9.3-4.4,13.7c-2,3.9-4.3,7.6-7,11.1c-2.3,2.6-4.9,4.9-7.7,7c-2.9,1.9-6,3.5-9.3,4.8c-3.4,1.1-6.9,2.2-10.2,3.6
	c-3.4,1.5-5.7,4.5-7.1,7.9c-0.8,1.8-1.2,3.7-1.7,5.7c-1.3,5.2-2.8,10.3-4.4,15.4c-1.7,5.4-3.6,10.7-5.5,16
	c-1.9,5.1-4.1,10.1-6.4,15.1c-6.9,14.2-14.1,28.3-21.3,42.3c-4,7.8-8.2,15.6-12.4,23.4c-4,7.5-8.4,14.8-12.7,22.1
	c-5,8.5-10.5,16.7-16,24.9c-2.7,4.1-5.7,7.9-8.6,11.9c-2.7,3.8-5.7,7.4-8.6,11c-3.4,3.9-6.7,7.9-10.2,11.7c-2.4,2.6-4.8,5.2-7.2,7.7
	c-2.2,2.3-4.6,4.4-6.8,6.6c-1.7,1.6-3.4,3.3-5.2,4.8c-3,2.5-6,5-9,7.5c-1.9,1.6-3.9,2.9-5.8,4.3c-2.5,1.8-4.9,3.6-7.4,5.4
	c-8.2,5.5-16.8,10.4-25.7,14.7c-3.7,1.8-7.6,3.4-11.4,5.1c-6.3,2.8-12.8,5.3-19.2,7.9c-3.4,1.2-6.7,2.4-10.1,3.6
	c-4,1.4-8.1,2.6-12.2,3.9c-3.7,1.2-7.6,2.1-11.4,3.1c-3.4,0.9-6.8,1.7-10.3,2.5c-7.6,1.6-15.3,3.1-23.1,4.1
	c-4.2,0.6-8.3,1.2-12.5,1.7c-4.3,0.5-8.6,0.9-12.9,1.4c-4,0.3-7.9,0.6-11.9,0.9c-4.3,0.3-8.6,0.3-12.8,0.5c-3.8,0.1-7.7,0-11.5-0.1
	c-3.7,0-7.4-0.3-11-0.5c-8.4-0.5-16.9-1-25.3-1.8c-4.3-0.5-8.7-0.8-13-1.4c-4.2-0.6-8.5-1-12.6-1.7c-3.9-0.7-7.7-1.3-11.6-2
	c-4.4-0.9-8.8-1.9-13.2-2.8c-4.1-0.9-8.1-2.2-12.2-3.3c-3.8-1.1-7.6-2.5-11.4-3.7c-4.2-1.4-8.4-3-12.5-4.5
	c-15.3-5.5-30.4-11.8-45.3-18.5c-2.7-1.2-5.3-2.4-8-3.6c-6.1-3-12.1-5.9-18.1-9c-3.3-1.7-6.7-3.4-9.9-5.3c-3.9-2.3-7.8-4.7-11.7-7
	c-3-1.8-5.8-3.8-8.6-5.8c-2.8-2-5.5-4-8.2-6.1c-6-4.6-11.7-9.5-17.5-14.4c0.5,0.4,1,0.8,1.5,1.3c-4.1-3.9-8.3-7.7-12.4-11.6
	c-4.2-3.9-8.1-8.1-12-12.4c-4.7-5.2-9.1-10.7-13.2-16.5c-4.8-7-9.1-14.3-13-21.8c-1.6-3.2-3-6.5-4.5-9.7c-2.5-5.3-4.6-10.8-6.7-16.3
	c-1.2-3.6-2.4-7.2-3.6-10.7c-1.1-3.4-2-6.8-3-10.2c-1.9-6.8-3.5-13.7-5-20.6c-1.6-7.7-2.9-15.4-4.2-23.1c-0.6-3.7-1.3-7.4-2.1-11
	c-0.5-2.3-1.2-4.5-2-6.7c-0.5-1.3-1-2.4-1.7-3.6c-0.9-1.6-2-2.7-3.4-3.9c-2-1.7-4.5-2.4-7.1-2.5c-1,0-2.1,0.1-3.2,0.2
	c-1.9,0.1-3.7,0-5.6-0.3c-2.7-0.6-5.3-1.4-7.8-2.5c-2.1-1.1-4-2.3-5.9-3.8c-1.5-1.4-2.9-2.9-4.1-4.5c-1.6-2.5-2.8-5.1-3.9-7.9
	c-1.8-5.3-3.1-10.8-3.7-16.4c-0.4-6.3-0.1-12.5,0.9-18.8c1.1-5.3,2.5-10.5,4.7-15.5c1.3-2.6,2.8-5,4.6-7.3c1.4-1.5,3-3,4.6-4.3
	c1.7-1.1,3.5-2,5.4-2.8c1.8-0.6,3.6-1,5.5-1.3c1.5-0.1,2.9,0,4.3,0.2c2,0.5,4,1.3,5.9,2.1c2.1,1.1,4.1,2.4,6.1,3.9
	c1.4,1.3,2.7,2.7,3.9,4.3c1,1.5,2,3,2.9,4.5c2.1,3.6,6.5,5.3,10.4,3.3c0.5-0.3,1-0.6,1.5-1c0.2-0.1,0.5-0.2,0.7-0.3
	c3.4-1.8,5.2-6.5,3.1-10c-0.4-0.6-0.7-1.2-1-1.8c0-0.1,0-0.2-0.1-0.2c0-2.7,0.3-5.5,0.6-8.3c0.3-2.6,0.5-5.3,0.9-7.9
	c0.8-5.7,1.7-11.3,2.7-17c-0.1,0.7-0.2,1.4-0.4,2c1.1-5.4,2.2-10.8,3.4-16.1c1.2-5.7,3-11.2,4.7-16.7c3.1-10.1,7.5-19.8,11.9-29.4
	c1.6-3.2,3.2-6.5,4.8-9.7c1.6-3.3,3.6-6.5,5.4-9.8c1.8-3.3,4-6.5,6-9.7c4.3-7,9.2-13.6,14.4-19.9c6.5-7.6,13.9-14.2,21.5-20.8
	c7.5-6.5,15.3-12.6,23.4-18.3c8.7-6.1,17.8-11.6,27.1-16.7c3.4-1.9,6.9-3.6,10.4-5.3c4.3-2.2,8.7-4.4,13-6.6
	c2.5-1.3,5.1-2.3,7.7-3.5c5-2.2,10.1-4.2,15.2-6.1C697,749.1,705,746.5,713.1,744.5L713.1,744.5L713.1,744.5z M516.6,972.8
	c0.1,0.2,0.1,0.3,0.2,0.5C516.7,973.2,516.7,973,516.6,972.8L516.6,972.8L516.6,972.8z M453.7,998.7c-0.1,0.3-0.1,0.7-0.2,1
	C453.6,999.4,453.6,999,453.7,998.7L453.7,998.7L453.7,998.7z M1147,1087.9c-0.3,0.5-0.5,1.1-0.8,1.6
	C1146.4,1089,1146.7,1088.5,1147,1087.9L1147,1087.9L1147,1087.9z M654.4,1279.3c0.3,0.1,0.5,0.3,0.8,0.4
	C654.9,1279.6,654.6,1279.5,654.4,1279.3L654.4,1279.3L654.4,1279.3z M867.7,1321.4c-0.3,0-0.5,0-0.8,0.1
	C867.2,1321.4,867.5,1321.4,867.7,1321.4L867.7,1321.4L867.7,1321.4z"/>
<path style="fill:#161616;" d="M821.1,485.3c-6.9,0.6-13.8,1.4-20.6,2.3c-2.9,0.4-5.8,0.8-8.7,1.3c-12,2.2-23.9,4.4-35.9,6.5
	c-2.3,0.4-4.4,0.9-6.7,1.5c-6.2,1.6-12.4,3.3-18.6,4.9c-5.5,1.4-11,2.9-16.5,4.4c-2.8,0.8-5.6,1.7-8.4,2.6
	c-9.7,3.1-19.4,5.9-28.9,9.6c-6.1,2.4-12.2,4.8-18.3,7.2c-3,1.2-5.9,2.5-8.8,3.9c-6,2.8-12,5.5-18,8.3c-2.7,1.2-5.3,2.6-7.9,4
	c-6,3.2-12,6.4-18,9.7c-6.5,3.5-12.8,7.3-19,11.3c-11.6,7.4-22.8,15.6-33.5,24.3c-5.2,4.3-10.1,8.7-15,13.3
	c-3.4,3.2-6.9,6.5-10.1,9.9c-4,4.4-8,8.7-12.1,13.1c-3,3.2-6.1,6.3-8.8,9.7c-3.6,4.4-7.1,8.9-10.7,13.3c-2.3,2.8-4.7,5.6-6.8,8.6
	c-5.8,8.2-11.8,16.2-17.3,24.6c-1.8,2.8-3.7,5.6-5.5,8.4c-0.8,1.3-1.7,2.5-2.5,3.8c-2.9,5-5.9,10.1-8.8,15.1
	c-1.9,3.3-3.6,6.8-5.3,10.3c-2.4,4.7-4.8,9.5-7.2,14.2c-2.3,4.6-4.3,9.3-6.4,14c-1.9,4.1-3.9,8.1-5.6,12.3
	c-3.4,8.5-7.1,17-10.3,25.7c-2.1,5.9-4.2,11.9-6.4,17.8c-1.3,3.7-2.4,7.6-3.6,11.4c-1.3,4.2-2.8,8.5-3.9,12.8
	c-1.6,5.9-3.1,11.7-4.7,17.6c-0.9,3.6-1.8,7.2-2.7,10.8c-1.1,4.6-2.3,9.2-3.2,13.9c-1.1,5.5-2.2,11-3.3,16.5
	c-1,5.3-1.8,10.6-2.6,15.9c-1.4,8.9-2.4,17.9-3.2,26.9c-0.5,5.6-0.9,11.3-1.6,16.9c-3,1.7-6.3,2.8-9.4,4.2c-3.8,1.7-7.2,4-10.6,6.4
	c-7,4.9-12.4,11.7-16.8,18.8c-4.5,7.3-8.2,15.1-10.5,23.4c-1.2,4.4-1.9,8.9-2.6,13.4c-0.7,4.8-1.1,9.6-1.4,14.5
	c-0.4,8.7,0.4,17.5,1.9,26.1c0.7,4.3,1.9,8.5,3.1,12.7c1.3,4.4,3.1,8.5,5.7,12.3c4.7,6.9,10.9,12.7,17.8,17.4
	c2.1,1.4,4.3,2.5,6.6,3.6c-0.4,0.7-0.8,1.4-1.1,2.2c-1.8,3.5-3.1,7.1-4.2,10.8c-2.2,7.6-2.8,15.6-2.3,23.4c0.2,3.8,0.7,7.6,1.6,11.4
	c0.8,3.7,2.3,7.4,3.8,10.9c3.2,7.4,8.1,14.1,13.2,20.2c4.7,5.6,10.1,10.6,15.8,15.2c6,4.9,12.6,8.6,19.6,11.9
	c6.9,3.2,14.1,5.7,21.6,6.9c2.8,0.4,5.6,0.6,8.4,0.8c1.6,0.1,3.3,0.1,4.9,0.1c0.3,1.1,0.6,2.2,0.9,3.3c0.7,2.6,1.7,5.1,2.6,7.6
	c1.6,4.3,4,8.2,6.7,11.8c2.7,3.6,6.2,6.6,9.6,9.5c3.8,3.2,8.1,5.7,12.6,7.9c8.6,4.2,17.8,6.7,27.3,7.5c4.5,0.4,9.2,0.2,13.7-0.3
	c1.7-0.2,3.5-0.3,5.3-0.6c3.5-0.6,7-1.3,10.5-2.3c3.6-1.1,7.1-2.4,10.5-4.1c3.4-1.7,6.6-3.6,9.7-5.8c1.1-0.8,2.3-1.7,3.3-2.6
	c1.8-1.6,3.3-3.3,4.8-5.1c0.8-1.2,1.2-2.4,1.2-3.8c0.1-2-0.6-4-2-5.5c-1.4-1.5-3.3-2.4-5.3-2.5c-1.9-0.1-4.2,0.6-5.5,2
	c-1.9,2.1-4,4-6.3,5.7c-1.9,1.2-3.8,2.4-5.8,3.4c-2.2,1.1-4.5,2.1-6.9,3c-2.5,0.8-5,1.5-7.5,2c-2.8,0.5-5.6,0.9-8.4,1.2
	c-5.4,0.3-10.8,0.1-16.2-0.7c-5.2-1.1-10.2-2.7-15-4.8c-4.2-2.1-8.2-4.7-11.9-7.7c-2.4-2.2-4.7-4.6-6.7-7.2c-1.6-2.5-3-5.2-4.1-8
	c-0.6-1.7-1.1-3.4-1.6-5.2c-0.6-2-1-4-1.9-5.9c-0.7-1.8-1.7-3.2-2.9-4.7c-1.4-1.6-3.7-2.5-5.8-2.9c-1.2-0.3-2.4-0.5-3.7-0.4
	c-0.6,0.1-1.2,0.1-1.9,0.1c-1,0-1.9-0.1-2.9-0.1c-2.9-0.1-5.8-0.3-8.6-0.7c-6.5-1.4-12.6-3.8-18.7-6.5c-6.1-3-11.7-6.8-17-11.2
	c-6.1-5.4-11.6-11.4-16.4-17.9c-2.7-4.1-5.1-8.4-6.9-13c-1.3-3.8-2.1-7.6-2.6-11.6c-0.3-5.3-0.1-10.5,0.7-15.8c0.8-4,2-7.9,3.7-11.7
	c1.3-2.6,2.8-5.1,4.6-7.5c0.8-1,1.4-2.4,1.7-3.6c0.4-1.7,0.3-2.9,0.1-4.6c-0.3-2.7-2.8-4.7-5.1-5.6c-0.6-0.2-1.3-0.4-1.9-0.5
	c-1.2-0.4-2.4-0.8-3.6-1.3c-0.6-0.3-1.2-0.6-1.9-0.9c-3.1-1.5-5.9-3.6-8.6-5.7c-3.2-2.8-6-5.8-8.6-9.2c-1.3-2-2.4-4.1-3.3-6.3
	c-2.5-7.5-4-15.2-4.8-23.1c-0.8-10.5,0-21,1.7-31.4c1.2-6.1,3.1-11.9,5.7-17.6c2.8-5.4,5.9-10.7,9.7-15.4c2.7-3.1,5.8-5.8,9.1-8.2
	c2.7-1.8,5.5-3.3,8.5-4.7c1.7-0.8,3.5-1.4,5.3-2.2c1.9-0.8,3.7-1.9,5.4-3.2c3.3-2.4,5.1-6.1,5.5-10.1c0.2-1.5,0.3-3,0.5-4.5
	c0.5-5.8,1-11.5,1.6-17.2c0.7-6.5,1.5-13.1,2.3-19.6c0.7-5.4,1.7-10.9,2.6-16.3c0.9-4.8,1.9-9.6,2.8-14.4c0.8-4.3,1.9-8.5,2.9-12.7
	c2.3-9.9,5-19.8,7.6-29.7c1-3.9,2.3-7.6,3.5-11.4c1.3-4.2,2.5-8.6,4-12.7c3.2-8.9,6.2-18,9.8-26.8c2.7-6.7,5.2-13.5,8.2-20
	c3.2-7.1,6.4-14.2,9.7-21.2c2.2-4.3,4.4-8.5,6.5-12.8c1.8-3.5,3.5-7.2,5.5-10.6c3-5.1,5.9-10.2,8.9-15.3c2.4-4.1,5.1-7.9,7.7-11.8
	c5.6-8.5,11.6-16.7,17.5-24.9c2-2.9,4.4-5.6,6.6-8.3c3.5-4.4,7.1-8.8,10.6-13.2c6-6.6,12.1-13.1,18.1-19.7
	c5.4-5.8,11.2-11.2,17.1-16.5c8.9-8,18.3-15.4,28.1-22.3c4.1-2.8,8.2-5.6,12.4-8.3c4.1-2.6,8.3-5.4,12.6-7.7
	c3.5-1.9,7.1-3.8,10.6-5.7c6.9-3.7,13.7-7.7,20.8-11c5.1-2.3,10.2-4.7,15.3-7c2.9-1.3,5.8-2.8,8.7-4c7.8-3.1,15.7-6.2,23.5-9.2
	c9.5-3.1,19.1-6.1,28.7-9.2c2.9-0.9,5.9-1.6,8.9-2.4c6.7-1.8,13.5-3.6,20.2-5.3c3.8-1,7.6-2,11.4-3c1-0.3,2.1-0.4,3.1-0.6
	c2.8-0.5,5.7-1,8.5-1.6c12-2.2,24-4.7,36.1-6.3c7.1-0.9,14.2-1.7,21.3-2.4c14.5-1.2,29-1.6,43.5-1.2c7.3,0.2,14.5,0.8,21.8,1.4
	c2.9,0.3,5.9,0.6,8.8,1c6.5,0.9,13,1.8,19.5,2.8c5,0.7,10.1,1.4,15.1,2.2c17.1,3.2,34,7.2,50.6,12.5c17.3,5.5,34.2,12.3,50.6,20
	c24.9,12,48.3,26.7,69.5,44.5c8.9,7.6,17.2,15.8,25.1,24.5c8.1,9,15.4,18.6,22.4,28.4c8,11.6,15.6,23.6,22.2,36
	c6.6,12.3,12.2,25.1,17,38.1c4.9,13.4,8.9,27.1,12,41c1.2,5.1,2.3,10.1,3.5,15.2c0.5,2.1,1,4.1,1.4,6.2c1.4,8.5,2.8,17,4.3,25.5
	c0.5,2.8,0.6,5.7,0.9,8.5c0.4,3.6,0.7,7.1,1.1,10.7c0.3,6.9,0.6,13.9,0.9,20.8c0.2,4.6,0.1,9.3,0.1,13.9c-0.1,5.1-0.3,10.2-0.6,15.3
	c-0.7,10.4-2.1,20.8-4,31c-2.2,11.7-5.4,23.2-8.7,34.7c-1.1,3.8,0.8,8,4.7,9.2c3.7,1.2,8.1-0.9,9.3-4.7c3.8-13.1,7.3-26.4,9.7-39.8
	c2.5-13.7,4-27.6,4.4-41.6c0.3-8.3,0.1-16.6-0.2-24.9c-0.2-5.3-0.2-10.6-0.7-15.8c-0.6-5.8-1.2-11.6-1.7-17.5
	c-0.3-3.6-1-7.1-1.6-10.7c-1-6-2-12-3-18c-0.6-3.6-1.6-7.2-2.4-10.7c-1.3-5.8-2.6-11.6-4-17.4c-0.9-4.1-2.1-8.2-3.3-12.2
	c-2-7-4.3-14-6.7-20.9c-4.7-13.2-10.2-26-16.5-38.5c-6.3-12.5-13.7-24.4-21.4-36c-7.8-11.7-16.2-22.9-25.4-33.6
	c-9-10.4-18.9-20-29.4-28.9c-20.8-17.6-43.9-32.3-68.4-44.3c-25.1-12.4-51.5-22.3-78.6-29.2c-6.5-1.7-13.1-3.1-19.7-4.4
	c-5.2-1.1-10.4-2.2-15.7-3c-5.3-0.8-10.7-1.5-16-2.3c-5.6-0.8-11.1-1.6-16.6-2.4c-4.1-0.6-8.3-0.9-12.4-1.2
	c-7.3-0.6-14.6-1-21.9-1.1c-2.1,0-4.3-0.1-6.4-0.1C845.6,483.4,833.3,484.2,821.1,485.3L821.1,485.3L821.1,485.3z M932.2,506.1
	c0.5,0.1,1,0.2,1.5,0.3C933.2,506.3,932.7,506.2,932.2,506.1L932.2,506.1L932.2,506.1z M582.7,583.9c-0.3,0.2-0.6,0.4-0.9,0.7
	C582.1,584.3,582.4,584.1,582.7,583.9L582.7,583.9L582.7,583.9z M1191.4,711c0.1,0.3,0.2,0.6,0.3,0.9
	C1191.6,711.6,1191.5,711.3,1191.4,711L1191.4,711L1191.4,711z M385.9,943.2c0,0.2-0.1,0.5-0.1,0.7
	C385.9,943.7,385.9,943.4,385.9,943.2L385.9,943.2L385.9,943.2z M385.6,944.2c-0.2,0.1-0.3,0.2-0.5,0.3
	C385.2,944.5,385.4,944.4,385.6,944.2L385.6,944.2L385.6,944.2z M385.5,945c-0.1,0.2-0.2,0.4-0.3,0.6
	C385.3,945.4,385.4,945.2,385.5,945L385.5,945L385.5,945z M367.2,1077.4c0.2,0.1,0.3,0.3,0.5,0.4
	C367.6,1077.7,367.4,1077.6,367.2,1077.4L367.2,1077.4L367.2,1077.4z"/>
<path style="fill:#161616;" d="M708.2,957.9c-4,2-7,5.9-9.3,9.6c-2.3,3.7-3.5,7.9-4.2,12.2c-0.7,4.1-0.6,8.5,0.8,12.5
	c1.5,4.2,4,7.7,7.4,10.6c1.5,1.2,3.2,2.4,5,3c1.1,0.5,2.2,0.7,3.3,0.8c1.3,0.1,2.6-0.1,4-0.2c2.2-0.2,4.8-1.7,6.4-3.1
	c1.5-1.3,2.8-2.9,3.8-4.7c2.3-4.2,3.2-8.7,3.9-13.4c0.3-2.2,0.5-4.4,0.4-6.6c-0.1-2.4-0.4-4.9-1.4-7.1c-1.1-2.3-2.6-3.9-4.6-5.3
	c-0.6-0.4-1.2-0.7-1.9-0.9c0-0.1,0-0.2-0.1-0.2c-0.8-2.6-2.3-5.1-4.7-6.7c-1.4-0.9-3.1-1.3-4.8-1.3
	C710.8,957,709.4,957.3,708.2,957.9L708.2,957.9L708.2,957.9z"/>
<path style="fill:#161616;" d="M851.2,975.6c-0.3,4-0.6,8.2,0.5,12.2c1.2,4.4,3.8,8.4,7,11.6c4.1,4.1,9,6.8,13.5,10.3
	c1.1,1.1,2.2,2.2,3.2,3.4c0.5,0.8,0.9,1.5,1.2,2.3c0,0.1,0.1,0.3,0.1,0.4c0,0.1,0,0.1,0,0.2c0,0,0,0,0,0c-0.2,0.4-0.5,0.8-0.7,1.1
	c-0.4,0.4-0.8,0.7-1.1,1c-0.7,0.4-1.5,0.8-2.3,1.1c-2.8,0.8-5.6,1.4-8.4,1.8c-3.3,0.5-5.8,3.9-5.9,7c-0.1,2,0.6,4,2,5.4
	c1.2,1.3,3.4,2.6,5.2,2.5c5.3-0.4,10.3-1.3,15.2-3.5c3.4-1.5,5.9-4.1,8.2-6.9c2.2-2.8,3.3-6.6,3.2-10.1c-0.2-8-5.9-14.3-11.8-19.1
	c-2.9-2.3-6.1-4.1-8.9-6.3c-1.1-1-2.2-2.1-3.2-3.3c-0.5-0.9-1-1.8-1.5-2.7c-0.1-0.5-0.2-0.9-0.3-1.4c0-2.2,0.1-4.3,0.2-6.5
	c0.3-4.2-3.2-7.9-7.3-8.1c-0.1,0-0.2,0-0.4,0C854.8,968.3,851.5,971.6,851.2,975.6L851.2,975.6L851.2,975.6z M876.5,1016.7
	c-0.1,0.2-0.2,0.4-0.3,0.5C876.3,1017.1,876.4,1016.9,876.5,1016.7L876.5,1016.7L876.5,1016.7z"/>
<path style="fill:#161616;" d="M997,961.2c-1.7,0.9-2.9,2.5-4,4c-2,2.6-3.3,5.7-4.3,8.8c-0.6,1.9-1,4-1.3,6c-0.3,2-0.5,4-0.5,6
	c0,3.7,1.4,7.6,3.5,10.6c0.4,0.7,0.9,1.4,1.5,2c0.8,1,2.3,1.9,3.5,2.3c0.8,0.3,1.6,0.5,2.5,0.6c1,0.2,2.5,0.2,3.4-0.1
	c1.8-0.6,3.5-1.2,5-2.5c1.4-1.2,2.5-2.6,3.4-4.2c2-3.4,3-7.2,3.6-11.1c0.6-3.6,1.1-7.3,0.3-11c-0.5-2.2-1.9-4.3-3.7-5.5
	c-0.5-0.4-1.1-0.6-1.6-0.9c-0.2-0.9-0.4-1.8-0.9-2.6c-1.2-2.1-3.2-3.1-5.5-3.4c-0.3,0-0.7-0.1-1-0.1
	C999.6,960.1,998.3,960.5,997,961.2L997,961.2L997,961.2z"/>
<path style="fill:#161616;" d="M937.1,1142.4c-0.1,0-0.2,0-0.3,0c-2.1,0.2-3.9,0.5-5.5,2c-0.4,0.4-0.8,0.8-1.1,1.3
	c-0.3,0.2-0.5,0.4-0.8,0.6c-5.4,3.8-11.1,7.3-16.8,10.7c-2.9,1.7-5.9,3.4-8.9,5c-3.3,1.6-6.6,3.1-10,4.5c-3.1,1.1-6.3,2-9.5,2.8
	c-3.3,0.8-6.8,1.2-10.2,1.6c-11.8,0.7-23.7-0.6-35.4-2.4c-2.8-0.6-5.6-1.2-8.3-1.9c-2.6-0.7-5.1-1.7-7.6-2.7
	c-2.4-1.2-4.7-2.5-6.9-3.9c-2.2-1.5-4.4-3.1-6.5-4.8c-3.6-3.1-7.1-6.3-10.8-9.2c-1.5-1.2-4-1.5-5.9-1.1c-2,0.4-3.7,1.7-4.8,3.3
	c-1.1,1.7-1.5,3.9-1.1,5.9c0.5,2.1,1.7,3.5,3.3,4.8c1,0.8,2,1.7,3.1,2.5c3.1,2.7,6.2,5.5,9.4,8.1c3,2.5,6.3,4.5,9.7,6.4
	c7.9,4.5,16.8,6.8,25.6,8.2c8.3,1.3,16.7,2.2,25.1,2.5c8.4,0.3,17-0.3,25.2-2.3c10.6-2.6,20.4-7.1,29.9-12.5c4.2-2.4,8.2-5,12.3-7.6
	c1.9-1.2,3.9-2.5,5.8-3.8c2.7-1.9,7.1-4.2,7.9-7.7c0.5-2.1,0.5-4-0.5-6c-1.1-2.1-3.6-4.1-6.1-4.1
	C937.3,1142.4,937.2,1142.4,937.1,1142.4L937.1,1142.4L937.1,1142.4z"/>
<path style="fill:#161616;" d="M947.2,1312.5c-2,0.5-4.1,1.6-5.2,3.5c-1,1.8-1.4,3-1.7,5.1c-0.2,1.7-0.4,3.3-0.5,5
	c-0.3,3.1-0.5,6.2-0.7,9.4c-0.2,3.4-0.4,6.8-0.5,10.2c0,4.3,0.4,8.6,0.7,12.9c0.3,3.9,1,7.7,1.9,11.5c0.5,2.2,1.3,4.4,1.9,6.7
	c0.5,1.5,1,3,1.5,4.5c0.7,2,1.4,4,2.2,6c1.5,3.7,3,7.3,4.7,10.9c1.6,3.4,3.3,6.7,5,10c6.4,12.4,14.4,23.8,22.2,35.3
	c3.8,5.5,7.4,11.2,10.9,16.8c3.9,6.3,7.5,12.9,10.3,19.7c0.6,1.7,1.1,3.5,1.3,5.3c0,0.7,0,1.4-0.1,2.1c-0.1,0.3-0.2,0.6-0.3,0.9
	c-0.5,0.9-1.1,1.8-1.8,2.6c-3.6,3.9-7.8,7.4-11.9,10.7c-3.4,2.7-6.9,5.3-10.4,7.9c-4,2.8-8,5.5-12.1,8c-4.7,3-9.4,5.7-14.2,8.4
	c-2,1.1-4.1,2.2-6.1,3.2c-2.2,1.1-4.3,2.4-6.5,3.4c-6.7,3-13.3,6-20.1,8.6c-6.5,2.3-13,4.1-19.7,5.5c-6.8,1.4-13.8,2.2-20.7,2.9
	c-11.2,0.9-22.3,0.8-33.4-0.1c-3.8-0.3-7.6-0.6-11.3-0.9c-5.3-0.4-10.5-1.3-15.7-2.2c-21-3.9-41.5-10.5-60.9-19.6
	c-7.4-3.6-14.7-7.6-21.6-12.1c-7.1-4.5-13.8-9.6-20.3-14.9c-3.4-3.1-6.9-6.1-10.3-9.2c-1.1-1-2.2-2.2-3.3-3.3
	c-2.1-2.1-4.1-4.2-6.2-6.3c-2.9-2.9-5.5-6.1-8.2-9.2c-1.6-1.7-3-3.7-4.5-5.5c-2.1-2.5-4.1-5.1-6-7.7c-2.7-3.9-5.1-7.9-7-12.3
	c-0.3-1.1-0.6-2.2-0.8-3.3c0-0.1,0-0.1,0-0.2c1.9-1.7,4-3.2,5.9-4.8c2.1-1.7,4.1-3.6,6-5.5c4.2-4.2,8.2-8.5,12-13.1
	c5.2-6.4,9.3-13.5,13.4-20.7c3.9-7,7.6-14.1,11.1-21.4c3.6-7.6,7-15.2,9.7-23.2c2.2-6.4,3.4-13.2,4.4-19.9c0.3-1.9,0.6-3.8,0.8-5.7
	c0.1-0.5,0.1-0.9,0.2-1.4c0.5-0.4,0.9-0.8,1.3-1.4c0.7-1.1,1.2-3,0.8-4.3c-0.4-1-0.7-2-1.2-3c-0.6-1.3-1.9-2.3-3.2-2.7
	c-2-0.7-3.9,0-5.5,1.2c-3.2,2.4-3.1,6.8-3.7,10.4c-0.4,2.1-0.7,4.2-1.1,6.2c-0.6,2.9-1.1,5.7-1.7,8.6c-0.8,3.6-2,7-3.3,10.5
	c-2.4,6.6-5.5,13-8.5,19.3c-3.3,6.7-6.9,13.2-10.6,19.6c-3.8,6.6-7.9,13-12.7,18.9c-6.3,7.2-13.3,13.7-21.1,19.3
	c-0.6,0.5-1.3,0.9-2,1.4c-1.7,1.2-3.1,2.7-4,4.6c-1.3,2.5-1.7,5.2-1.5,8c0.1,1.5,0.3,2.8,0.6,4.2c0.4,1.8,1.2,3.6,1.9,5.3
	c1.7,4.4,4.4,8.5,7.1,12.4c2,3,4.1,5.9,6.4,8.6c2.3,2.8,4.5,5.7,6.9,8.4c2.5,2.8,4.8,5.6,7.4,8.2c2.9,3,5.9,6,8.8,8.9
	c0.9,0.9,1.9,1.7,2.8,2.5c2,1.8,4.1,3.7,6.1,5.5c13.5,12.1,28.8,22.3,45,30.4c19.1,9.5,39.3,16.6,60.2,21c5.4,1.1,10.8,2.1,16.2,2.9
	c3,0.5,6.1,0.9,9.2,1.2c4.8,0.4,9.7,0.8,14.6,1.2c7,0.6,14.1,0.7,21.2,0.5c11-0.3,22.1-1.6,32.9-3.6c10.4-1.9,20.4-5.3,30.2-9.2
	c4.3-1.7,8.5-3.7,12.7-5.6c3.1-1.4,6-3,9-4.6c3-1.6,5.9-3.1,8.8-4.8c6.4-3.7,12.7-7.4,18.7-11.6c3.6-2.5,7.1-4.9,10.6-7.5
	c3.1-2.3,6.1-4.7,9.1-7.1c3.1-2.5,6.1-5.2,9-8c1.9-1.9,3.6-3.9,5-6.1c1.6-2.4,2.5-5.2,3-8.1c0.9-5.3-0.5-10.6-2.5-15.6
	c-2.9-7.6-7-14.8-11.3-21.7c-3.8-6.1-7.7-12.1-11.8-18c-1.9-2.8-3.9-5.7-5.8-8.5c-2.1-3.3-4.4-6.5-6.4-9.8c-2-3.4-4-6.7-6-10.1
	c-1.7-2.8-3.1-5.8-4.6-8.6c-2.9-5.6-5.4-11.4-7.8-17.3c-1.2-3.5-2.4-6.9-3.4-10.4c-1.6-5.6-2.4-11.2-2.9-16.9
	c-0.2-5.9,0-11.7,0.4-17.6c0.2-2.7,0.4-5.4,0.6-8.1c0.1-1.4,0.3-2.7,0.4-4.1c0.2-1.9,0.1-3.8-0.5-5.4c-0.2-1.5-1.6-3.1-2.8-3.9
	c-1.1-0.7-2.4-1.1-3.6-1.1C948.1,1312.3,947.6,1312.4,947.2,1312.5L947.2,1312.5L947.2,1312.5z M722.3,1324.1c0,0.1,0.1,0.2,0.1,0.3
	c0,0,0,0,0,0C722.4,1324.3,722.3,1324.2,722.3,1324.1L722.3,1324.1L722.3,1324.1z M705.7,1371.4c-0.2,0.3-0.3,0.6-0.5,1
	C705.3,1372,705.5,1371.7,705.7,1371.4L705.7,1371.4L705.7,1371.4z M668.4,1441.8c-0.1,0.3-0.3,0.5-0.4,0.8
	C668.1,1442.3,668.3,1442,668.4,1441.8L668.4,1441.8L668.4,1441.8z M754.9,1526.4c0.2,0.1,0.3,0.2,0.5,0.2
	C755.2,1526.5,755.1,1526.5,754.9,1526.4L754.9,1526.4L754.9,1526.4z"/>
<path style="fill:#161616;" d="M635.5,1439.8c-5.6,0.7-11.2,1.7-16.7,2.8c-3.9,0.8-7.8,1.5-11.6,2.4c-9.5,2.2-19,4.5-28.6,6.7
	c-7.8,1.8-15.4,4.2-23.1,6.3c-7.8,2.2-15.5,4.8-23.3,7.3c-8.3,2.7-16.3,6.1-24.5,9.2c-7.5,2.9-14.8,6.4-22.1,9.7
	c-2.4,1.1-4.8,2.1-7.1,3.3c-4.7,2.5-9.5,5-14.2,7.4c-2.5,1.3-5,2.6-7.4,4c-4.6,2.8-9.3,5.6-13.9,8.4c-2.8,1.7-5.5,3.7-8.2,5.6
	c-4.3,3.1-8.7,6.2-13,9.3c-2.4,1.7-4.6,3.6-6.8,5.5c-3.9,3.2-7.9,6.5-11.8,9.7c-2.5,2-4.8,4.4-7.2,6.5c-3.3,3-6.5,6-9.8,9
	c-3,2.7-5.7,5.7-8.5,8.5c-2.4,2.4-5,4.8-7.3,7.3c-5.5,5.9-11.1,11.6-16.5,17.6c-3.2,3.6-6.4,7.2-9.6,10.8c-3,3.4-5.9,6.9-8.8,10.4
	c-10.6,12.5-20.5,25.4-30.2,38.6c-9.5,12.8-18.5,26.1-27.5,39.2c-8.7,12.7-16.8,26-23.9,39.7c-0.8,1.6-1.6,3.1-2.4,4.7
	c-0.6,1.3-1.3,2.6-1.9,3.9c-1.1,2.3-1.5,5-0.7,7.4c0.8,2.4,2.2,4.4,4.7,5.2c1.2,0.4,2.5,0.5,3.8,0.2c1.6-0.4,3.6-1.5,4.4-3.1
	c1-2.1,2.1-4.1,3.1-6.2c-0.3,0.6-0.6,1.2-0.9,1.8c14.3-29,33.3-55.3,52-81.5c5.8-8.1,11.8-16.2,18-23.9c3.5-4.3,6.8-8.8,10.4-13
	c3.4-4,6.9-8.1,10.3-12.1c4.9-5.5,9.7-11.1,14.8-16.5c5.8-6.1,11.6-12.3,17.6-18.2c3.2-3.2,6.3-6.3,9.5-9.5c2.8-2.8,5.9-5.4,8.8-8.1
	c2.6-2.4,5.1-5,7.9-7.2c3.7-3,7.4-6.1,11.1-9.1c3.4-2.8,6.7-5.5,10.3-8.1c4.6-3.3,9.2-6.6,13.7-9.8c3.5-2.1,7-4.2,10.5-6.4
	c2.7-1.6,5.3-3.4,8.1-4.8c4.4-2.3,8.9-4.7,13.4-7c2.6-1.3,5.1-2.8,7.8-4c4.4-2,8.8-3.9,13.2-5.9c3.3-1.5,6.7-3.2,10.1-4.5
	c7.2-2.8,14.5-5.6,21.8-8.4c3.5-1.1,6.9-2.2,10.4-3.4c3.4-1.1,6.8-2.3,10.3-3.3c8.5-2.4,16.9-4.7,25.4-7.1c2.3-0.6,4.6-1.1,6.9-1.7
	c5.4-1.3,10.9-2.6,16.3-3.8c13.9-3.2,27.8-6.3,42-7.7c3.5-0.3,7-0.4,10.5-0.3c2.8,0.1,5.6,0.5,8.4,1c0.8,0.2,1.6,0.4,2.5,0.6
	c2.1,0.5,4,0.5,6-0.5c1.8-0.9,3.1-2.5,3.7-4.4c1.2-3.8-0.9-8.7-4.9-9.7c-5.3-1.3-10.8-2.2-16.3-2.3c-0.6,0-1.3,0-1.9,0
	C646.6,1438.5,641,1439.2,635.5,1439.8L635.5,1439.8L635.5,1439.8z"/>
<path style="fill:#161616;" d="M997.9,1466.4c-0.1,1.6,0.5,3.3,1.6,4.5c1.2,1.3,2.6,1.8,4.3,2c5.1,0.7,10.1,1.5,15.1,2.3
	c7.3,1.4,14.6,2.9,21.9,4.6c7.6,1.7,15.1,3.6,22.6,5.5c14.4,3.6,28.6,7.6,42.8,12c3.8,1.2,7.6,2.3,11.5,3.6c4,1.2,7.9,2.8,11.9,4.1
	c7.3,2.5,14.5,5.4,21.8,8.2c3.2,1.2,6.4,2.6,9.6,4c2.9,1.2,5.8,2.3,8.6,3.6c7.4,3.2,14.7,6.4,22,9.8c2.8,1.3,5.5,2.5,8.3,3.8
	c0,0,0.1,0,0.1,0.1c0.9,0.4,1.9,0.9,2.8,1.3c-0.4-0.2-0.7-0.3-1.1-0.5c4,1.9,8,3.8,12,5.7c0.5,0.2,1,0.5,1.5,0.7
	c6.2,3.1,12.5,6.3,18.7,9.6c4.1,2.3,8.3,4.5,12.4,6.8c3.3,1.8,6.4,3.8,9.6,5.7c2.6,1.6,5.3,3.1,7.8,4.8c4,2.6,8,5.3,12,7.9
	c2.9,1.9,5.7,4.1,8.5,6.2c2.5,1.9,5,3.7,7.5,5.6c3.5,2.9,7,5.7,10.5,8.6c10.9,9.7,21.6,19.6,31.7,30.1c11,11.4,21.8,22.8,32.4,34.6
	c9.8,10.9,19,22.4,28.3,33.7c4.6,5.7,9.2,11.4,13.6,17.2c4,5.3,7.7,10.7,11.7,16c0.3,0.5,0.7,0.9,1,1.3c2.6,3.3,7.9,3.2,10.8,0.5
	c1.5-1.4,2.4-3.3,2.5-5.3c0.1-2.2-0.8-3.8-2-5.5c-8-11.3-16.3-22.3-25.1-33.1c-9.4-11.5-18.7-23.2-28.7-34.3
	c-10.6-11.7-21.5-23.2-32.6-34.6c-4.8-5-9.7-9.8-14.8-14.6c-2.6-2.5-5.1-5-7.8-7.3c-3.5-3.1-7-6.2-10.5-9.3c-3.1-2.8-6.5-5.4-9.7-8
	c-2.4-1.9-4.7-3.9-7.2-5.7c-3.8-2.7-7.5-5.5-11.3-8.2c-3-2.2-6.1-4-9.2-6.1c-2.6-1.7-5.1-3.4-7.7-4.9c-4.2-2.5-8.3-4.9-12.5-7.4
	c-3-1.8-6.2-3.4-9.3-5c-2.8-1.5-5.5-3-8.4-4.5c-7.6-3.8-15.1-7.6-22.8-11.2c-2.4-1.1-4.7-2.2-7.1-3.3c-0.5-0.3-1.1-0.6-1.7-0.8
	c-0.1,0-0.2-0.1-0.3-0.1c-4.5-2.1-9.1-4.1-13.6-6.1c-6.4-2.9-12.9-5.6-19.4-8.3c-6.5-2.7-13.1-5.3-19.7-7.8
	c-4.4-1.6-8.8-3.3-13.3-4.9c-3.4-1.3-6.9-2.3-10.3-3.4c-7.6-2.6-15.4-4.8-23.1-7.1c-13.6-4-27.4-7.5-41.2-10.8
	c-9.7-2.3-19.3-4.5-29-6.6c-4.7-1-9.4-1.8-14.1-2.7c-5.8-1.1-11.7-1.9-17.5-2.7c-0.2,0-0.4,0-0.7,0
	C1000.6,1460.5,998,1463.5,997.9,1466.4L997.9,1466.4L997.9,1466.4z M1199,1533.7c0.3,0.1,0.5,0.2,0.8,0.4c0,0,0,0,0,0
	C1199.5,1534,1199.3,1533.9,1199,1533.7L1199,1533.7L1199,1533.7z M1214.8,1541.3c0.1,0,0.2,0.1,0.2,0.1c0,0,0,0,0,0
	C1215,1541.4,1214.9,1541.4,1214.8,1541.3L1214.8,1541.3L1214.8,1541.3z M1215.2,1541.5c0.2,0.1,0.4,0.2,0.6,0.3
	C1215.6,1541.7,1215.4,1541.6,1215.2,1541.5L1215.2,1541.5L1215.2,1541.5z M1201.7,1535.1c-0.2-0.1-0.4-0.2-0.6-0.3
	C1201.3,1534.9,1201.5,1535,1201.7,1535.1L1201.7,1535.1L1201.7,1535.1z"/>
<path style="fill:#161616;" d="M1499.5,1498.2c-1.6,1.5-2.2,3.2-2.5,5.3c-1.9,11.6-3.2,23.4-4.6,35.1c-1.1,9.7-2.6,19.3-4.1,28.9
	c-1.4,7.3-2.8,14.6-4.7,21.8c-2.1,8-4.2,16.1-6.8,24c-5.1,16-10.5,31.9-16.5,47.5c-2.9,7.5-6.1,14.8-9.5,22.1
	c-4.5,9.2-9.4,18.1-14.7,26.9c-2.7,4.4-5.5,8.7-8.4,13.1c-2.1,3.1-4.2,6.2-6.5,9.1c-2.7,1-4.8,3.6-4.9,6.6c-0.1,2.9,0.9,5.9,3.5,7.5
	c2.7,1.6,5.6,2,8.4,0.4c2.6-1.4,4.4-4.1,6.2-6.5c2.2-2.9,4.3-5.9,6.3-8.9c4.4-6.5,8.6-13.1,12.4-20c8.3-14.6,15.7-29.8,21.7-45.5
	c6-15.6,11.4-31.5,16.5-47.5c2.5-7.9,4.7-15.9,6.7-24c2-7.7,3.4-15.5,4.9-23.3c4.3-22,5.6-44.5,9.2-66.6c0.3-1.9-0.8-4.2-2-5.6
	c-1.4-1.5-3.3-2.4-5.3-2.5c-0.1,0-0.3,0-0.4,0C1502.7,1496.2,1500.9,1496.9,1499.5,1498.2L1499.5,1498.2L1499.5,1498.2z"/>
<path style="fill:#161616;" d="M1619.7,1493c-15.9,0.5-31.9,1-47.8,1.6c-6.7,0.3-13.4,0.7-20.1,1.1c-8.4,0.5-16.7,1-25,1.7
	c0.2,0,0.4,0,0.6,0c-6.7,0.6-13.3,1.2-20,1.9c-1.9,0.2-3.7,1.8-4.7,3.3c-1.1,1.7-1.5,3.8-1,5.8c0.4,1.9,1.6,3.6,3.3,4.7
	c1.9,1.2,3.7,1.3,5.8,1c2.8-0.3,5.7-0.7,8.5-0.9c3.6-0.3,7.3-0.6,10.9-0.9c-0.7,0.1-1.4,0.1-2,0.2c16.5-1.1,33-2.2,49.5-2.9
	c17.3-0.7,34.6-1.2,51.8-1.6c9.1-0.3,18.3-0.5,27.4-0.6c5-0.1,10-0.1,15-0.1c3.5,0,7,0,10.5,0.2c0.2,1.2,0.4,2.4,0.6,3.6
	c0.6,8.1,0.3,16.2,0.4,24.3c0.1,8.1,0.7,16.1,0.9,24.2c0.2,8.3-0.1,16.5-0.2,24.8c-0.1,8,0,16,0,24c0.1,16.8,1.2,33.6,1.9,50.4
	c0.4,8.2,0.7,16.5,1,24.7c0.2,7.9,0.3,15.9,0.6,23.9c0.2,5.2,0.4,10.4,0.2,15.5c-0.5,0.7-0.9,1.5-1.2,2.3c-0.6,1.9-0.5,4.1,0.5,5.9
	c1.9,3.6,6.7,5.3,10.3,3.2c1.5-0.9,2.6-1.7,3.6-3.1c0.9-1.1,1.4-2.3,1.7-3.7c0.4-1.5,0.4-3,0.5-4.5c0-2.1,0.1-4.1,0-6.2
	c0-3.7-0.3-7.4-0.4-11.1c-0.2-8.4-0.3-16.7-0.6-25.1c-0.5-16.1-1.3-32.2-2.1-48.3c-0.4-8.1-0.7-16.2-0.7-24.4c0-8.7-0.1-17.4,0-26.1
	c0-7.8,0.5-15.5,0.1-23.3c-0.4-8.5-0.8-17.1-0.9-25.6c-0.2-9.7,0.5-19.6-1.3-29.1c-0.5-2.6-1.6-5.5-3.3-7.6c-2-2.3-4.6-3.6-7.6-3.9
	c-2-0.2-4.1-0.3-6.1-0.3c-4.1-0.1-8.1-0.1-12.2-0.1c-0.7,0-1.4,0-2.2,0C1650.6,1492,1635.1,1492.6,1619.7,1493L1619.7,1493
	L1619.7,1493z"/>
<path style="fill:#161616;" d="M1499.2,1078.5c-7.9,1-15.8,2.2-23.7,3.7c-3.7,0.7-7.3,1.4-11,2.4c-4.4,1.2-8.9,2.3-13.2,4.1
	c-6.6,2.7-13,6-18,11.3c-1.9,2-3.8,4.1-5.2,6.5c-1.9,3.2-3.5,7.1-2.5,10.9c0.9,3.2,3.4,5.6,6.8,5.7c3,0.2,6.6-1.9,7.3-5
	c0.2-0.8,0.5-1.7,0.9-2.5c0.6-1.1,1.3-2.1,2-3.1c1.6-1.8,3.3-3.5,5.3-4.9c3.1-2,6.3-3.5,9.7-4.9c7.7-2.6,15.6-4.5,23.7-5.9
	c8.3-1.4,16.6-2.7,25.1-3.6c4.9-0.3,9.7-0.3,14.6-0.3c5.1,0.1,10.1,0.6,15.2,1.1c5.1,0.4,10.1,1,15.2,1.7c4.8,0.6,9.5,1.5,14.2,2.3
	c12.9,2.5,25.5,6.4,37.5,11.9c3.3,1.7,6.6,3.5,9.9,5.3c3.6,2,7.1,4.2,10.7,6.4c3.2,1.9,6.1,4.2,9.2,6.3c2.5,1.8,4.9,3.8,7.2,5.8
	c4.2,3.8,8.3,7.7,12,12.1c2.1,2.5,4.3,4.8,6.2,7.5c1.6,2.3,3.3,4.6,4.9,6.9c0.9,1.4,1.8,2.9,2.7,4.3c0.9,1.6,2,3.1,2.9,4.7
	c1,1.9,2,3.9,3.1,5.8c0.8,1.5,1.7,3.1,2.4,4.7c1.6,3.6,3.3,7.3,4.9,10.9c0.7,1.6,1.2,3.3,1.8,4.9c0.5,1.3,0.9,2.5,1.4,3.8
	c1.2,3.9,2.5,7.8,3.5,11.8c1.2,4.9,2.4,9.8,3.3,14.8c1,5,1.7,10,2.5,15.1c0.6,4,0.9,8,1.3,11.9c0.5,7.4,1.1,14.9,1,22.4
	c-0.1,8.2-0.3,16.5-0.7,24.7c-0.9,16.5-2.2,32.9-3.3,49.3c-1.2,16.8-2.2,33.5-2.7,50.3c-0.5,16.1,0.2,32.2,0,48.3
	c-0.1,13.4-0.7,27-3,40.2c-0.5,2.2-1.1,4.3-1.9,6.4c-1.4,3.8,1,8.2,4.8,9.5c4,1.3,8-1,9.5-4.8c2.5-6.6,3.1-13.7,4-20.6
	c0.5-3.7,0.7-7.5,1-11.2c0.5-7.8,0.8-15.7,0.8-23.6c0-8.8-0.1-17.6-0.2-26.4c0-8.1,0.2-16.1,0.4-24.2c0.9-32.1,4.8-64.1,6.1-96.2
	c0.3-8.3,0.7-16.7,0.5-25c-0.3-8.9-0.8-17.7-1.7-26.6c-0.4-4.2-1-8.4-1.6-12.6c-0.6-4.2-1.4-8.3-2.2-12.5c-0.8-4.1-1.8-8.1-2.8-12.1
	c-0.9-3.9-2.2-7.7-3.4-11.6c-1.3-4.3-3.1-8.5-4.6-12.7c-0.5-1.3-1.1-2.5-1.6-3.7c-1.1-2.5-2.2-4.9-3.3-7.3c-0.6-1.3-1.3-2.5-2-3.8
	c-1.2-2.3-2.4-4.6-3.7-7c-0.8-1.4-1.7-2.8-2.6-4.2c-1.4-2.3-2.8-4.7-4.4-6.8c-2.2-3.1-4.3-6.3-6.7-9.2c-2.8-3.4-5.6-6.8-8.7-10
	c-1.2-1.3-2.3-2.6-3.6-3.8c-1.8-1.7-3.7-3.4-5.5-5.1c-1.7-1.6-3.5-2.9-5.3-4.4c-1.4-1.1-2.7-2.3-4.2-3.3c-3.3-2.3-6.5-4.7-9.9-6.8
	c-3.8-2.3-7.6-4.7-11.5-6.8c-3.9-2.1-7.7-4.2-11.7-6.1c-3.7-1.8-7.5-3.3-11.4-4.8c-15.7-5.8-32.3-9-48.8-11
	c-10.5-1.3-21.1-2.3-31.7-2.3C1510.6,1077.4,1504.9,1077.7,1499.2,1078.5L1499.2,1078.5L1499.2,1078.5z"/>
<path style="fill:#161616;" d="M1461.7,1116.5c-6,0.2-11.9,0.5-17.9,1.1c-5,0.5-9.8,1.4-14.8,2.3c-6.3,1.2-12.5,3.2-18.3,6
	c-3,1.5-5.8,3.5-8.6,5.4c-2.8,2-5.2,4.3-7.5,6.8c-2.2,2.4-4.3,4.9-6.2,7.5c-1,1.3-1.8,2.7-2.6,4.1c-0.9,1.7-1.7,3.4-1.9,5.4
	c-0.2,1.8,0,3.6,0.4,5.3c0.8,3.1,3.4,5.5,6.7,5.6c1.9,0.1,3.8-0.6,5.2-1.9c1.3-1.2,2.4-3.2,2.3-5c0-0.4,0-0.7,0-1.1
	c1.3-2.3,3-4.4,4.6-6.5c0.2-0.2,0.4-0.5,0.6-0.7c2.7-3.1,5.6-5.8,8.9-8.3c3.1-2,6.2-3.6,9.6-5c8.8-3,18.2-4.3,27.4-5.3
	c15.8-0.8,31.6-0.9,47.4-0.7c7.2,0.1,14.4,0.5,21.6,1.1c7.9,0.7,15.7,1.2,23.5,2.5c2.7,0.4,5.4,0.9,8.2,1.4
	c3.7,0.8,7.5,1.6,11.2,2.4c3.8,0.8,7.6,2,11.4,3c3.3,0.9,6.4,1.9,9.6,3c6.2,2,12.2,4.1,18.1,6.8c7.4,3.7,14.3,8.2,20.7,13.5
	c4.8,4.2,9,8.8,12.7,13.9c2.6,4,4.8,8.1,6.9,12.4c1.2,2.5,2.4,4.9,3.5,7.5c2.5,5.9,4.9,11.9,7.3,17.9c0.6,1.6,2.4,2.8,4,3.3
	c1.7,0.6,3.7,0.4,5.3-0.4c1.6-0.8,2.8-2.3,3.3-4c0.6-1.9,0.3-3.5-0.4-5.3c-3.1-7.9-6.1-15.9-9.6-23.5c-0.9-2-1.9-4.1-2.9-6.1
	c-2.5-5.1-5.6-9.8-9-14.4c-6.4-8.5-14.8-15.5-23.7-21.3c-4.5-3-9.2-5.5-14.1-7.8c-3.8-1.8-7.8-3.4-11.9-4.8
	c-4.4-1.4-8.8-2.8-13.1-4.3c-1.5-0.5-3-0.8-4.5-1.2c-2.6-0.7-5.2-1.4-7.8-2.1c-3.9-1-7.8-1.7-11.7-2.6c-8.2-1.8-16.5-2.8-24.7-3.9
	c-3.9-0.5-7.9-0.7-11.8-1c-3.5-0.3-7.1-0.5-10.7-0.7c-9.1-0.4-18.3-0.6-27.4-0.6C1474.7,1116.2,1468.2,1116.3,1461.7,1116.5
	L1461.7,1116.5L1461.7,1116.5z M1404.8,1149.7c-0.1,0.1-0.2,0.3-0.4,0.4C1404.6,1150,1404.7,1149.8,1404.8,1149.7L1404.8,1149.7
	L1404.8,1149.7z M1403.2,1151.6c-0.4,0.5-0.8,1-1.2,1.5C1402.3,1152.6,1402.7,1152.1,1403.2,1151.6L1403.2,1151.6L1403.2,1151.6z"/>
<path style="fill:#161616;" d="M1608.9,1256.9c0,0.7,0.6,1.5,1.4,1.5c0.8,0,1.4-0.5,1.5-1.4c0-0.7-0.6-1.5-1.4-1.5
	C1609.6,1255.6,1609,1256.1,1608.9,1256.9L1608.9,1256.9L1608.9,1256.9z"/>
<path style="fill:#161616;" d="M1483,1144.9c-8.6,0.1-17.1,0.8-25.6,1.6c-16.7,1.6-33.3,3.9-49.8,7.1c-3.9,0.8-7.7,1.8-11.4,3
	c-3.8,1.2-7.5,2.4-11,4.4c-5,2.8-9.3,6.6-12.9,11c-1.5,1.9-2.9,3.7-4.1,5.8c-1.5,2.4-2.8,5.4-3,8.2c-0.2,3.1,0.5,5.8,1.9,8.5
	c1.3,2.8,3.9,5,6.3,6.9c2.1,1.6,4.8,2.6,7.2,3.7c2.3,1,4.9,1.7,7.3,2.4c4,1.1,8,1.8,12.1,2.5c8.2,1.4,16.4,2.7,24.6,3.8
	c8.4,1.2,16.8,2.3,25.1,3.6c2.6,0.4,5.2,0.9,7.8,1.3c5.2,1,10.4,1.9,15.5,3c3.1,0.7,6.2,1.3,9.3,2c3.9,0.9,7.8,1.8,11.4,3.4
	c0.8,0.4,1.6,0.9,2.3,1.5c1.4,1.4,2.5,2.9,3.7,4.4c3.3,5,5.6,10.5,7.7,16c0.8,2.2,1.7,4.4,2.4,6.7c1,3.3,2,6.5,2.9,9.8
	c0.9,2.9,1.4,5.8,2.1,8.7c0.6,2.6,1.1,5.1,1.7,7.7c2.2,11.4,3.4,23,4.5,34.5c0.7,9.2,1,18.4,0.9,27.7c-0.1,8.9-0.6,17.7-1.9,26.5
	c-0.6,2.9-1.3,5.9-2.2,8.7c-1,3.2-2.3,6.3-3.6,9.4c-1.6,3.2-3.4,6.2-5.6,9c-0.8,0.9-1.7,1.9-2.6,2.8c-0.8,0.8-1.6,1.4-2.4,2
	c-1.9,1.2-3.8,2.3-5.8,3.1c-4,1.3-8.2,1.9-12.3,2.4c-3.4,0.2-6.7,0.5-10.1,0.6c-3.8,0.1-7.7,0.1-11.5,0.2c-4.5,0.1-9,0.2-13.6,0.4
	c-2.2,0.1-4.3,0.4-6.4,0.6c-2,0.2-3.9,0.3-5.9,0.6c-4.5,0.6-8.9,1.3-13.3,2.2c-3.9,0.8-7.8,1.8-11.7,2.8c-3.7,0.9-7.4,2.2-11,3.5
	c-2.5,0.9-5.1,1.7-7.5,2.7c-2.3,0.9-4.5,1.9-6.8,2.8c-3.4,1.4-6.7,2.9-9.9,4.7c-3.7,2-7.4,4-10.9,6.4c-2.2,1.5-4.4,3-6.4,4.6
	c-3.2,2.5-5.8,5.5-7.9,9c-0.9,1.6-1.7,3.3-2.2,5.1c-0.7,2.7-0.8,5.4-0.4,8.1c0.8,5.3,3.9,10.3,7.8,13.8c7.4,6.5,17.7,8.4,27.2,9.3
	c4.3,0.4,8.5,0.8,12.8,1.1c8.7,0.4,17.3,0.3,26,0.1c8.1-0.2,16.1-0.9,24.2-1.6c6.8-0.6,13.6-1.6,20.4-2.3c3.8-0.3,7.7-0.6,11.5-0.1
	c1.3,0.3,2.5,0.7,3.7,1.2c1,0.6,2,1.2,2.9,1.9c1.1,1.1,2.1,2.2,3,3.4c1.7,2.7,2.9,5.5,4,8.4c0.7,1.9,1.5,3.9,1.9,5.9
	c0,2,0.7,4,2,5.4c2.1,2.3,6.3,3.5,9.1,1.6c1.6-1.1,3.5-2.4,3.9-4.5c0.2-0.9,0.3-1.7,0.5-2.6c0-1.1-0.2-2.2-0.4-3.2
	c-0.2-1.1-0.7-2.2-1-3.3c-1-3.2-2.2-6.3-3.4-9.4c-2.8-6.7-7.7-12.9-14-16.5c-3.5-2-7.2-2.9-11.1-3.6c-3-0.5-6.1-0.3-9,0
	c-6.1,0.4-12.1,1.1-18.2,1.9c-5,0.6-10,1.1-15,1.5c-19.6,1.2-39.6,2-59-1.3c-3-0.6-5.8-1.5-8.6-2.7c-0.9-0.5-1.7-1-2.5-1.6
	c-0.7-0.7-1.4-1.4-2-2.2c-0.3-0.6-0.7-1.2-1-1.8c-0.1-0.4-0.2-0.8-0.3-1.2c0-0.5,0-1,0.1-1.5c0.1-0.2,0.1-0.5,0.2-0.7
	c0.6-1.1,1.3-2.2,2.1-3.2c1.4-1.4,3-2.6,4.6-3.9c2-1.4,4.1-2.7,6.2-4c2.5-1.5,5.1-2.9,7.6-4.3c2.4-1.3,4.9-2.3,7.3-3.5
	c2.6-1.2,5.3-2.2,8-3.3c3.6-1.3,7.1-2.5,10.7-3.6c4.5-1.4,9-2.5,13.5-3.6c4-1,8.1-1.6,12.1-2.1c3.8-0.5,7.7-0.9,11.5-1.3
	c8.1-0.4,16.1-0.4,24.2-0.6c8.4-0.1,17-0.7,25.2-2.6c12.3-2.8,22.3-11.9,27.9-22.9c2.1-4.1,4.2-8.3,5.5-12.7c1.2-3.8,2.2-7.7,3-11.6
	c1.8-8.6,2.1-17.5,2.3-26.2c0.2-8.2,0-16.4-0.4-24.6c-0.4-8.8-1.5-17.6-2.4-26.4c-0.5-4.2-1.1-8.3-1.7-12.4
	c-0.2-1.6-0.6-3.1-0.9-4.6c-0.4-2.1-0.7-4.2-1.2-6.3c-1.9-8-3.8-16-6.6-23.8c-2.9-8.2-5.7-16.6-10.5-23.9c-3-4.6-6.4-9-11.2-11.8
	c-3.7-2.1-7.8-3.3-11.8-4.3c-7.7-2-15.4-3.5-23.2-5c-9.2-1.7-18.4-3.2-27.7-4.6c-6.2-0.9-12.5-1.7-18.7-2.6c-7-1-14-2.1-20.9-3.3
	c-5.3-1.1-10.7-2.3-15.7-4.5c-1-0.5-1.9-1.1-2.8-1.7c-0.3-0.3-0.6-0.6-0.9-1c0,0,0-0.1,0-0.1c0.1-0.2,0.2-0.5,0.3-0.7
	c1.1-1.9,2.4-3.7,3.7-5.5c1.8-1.9,3.6-3.7,5.7-5.2c1.9-1.2,3.8-2.2,5.9-3.1c11.4-3.9,23.4-5.7,35.3-7.5c11.1-1.7,22.2-2.9,33.3-4
	c3.8-0.2,7.7-0.5,11.5-0.7c3.4-0.2,6.9-0.2,10.4-0.2c1.6,0,3.2,0,4.8-0.1c1.7,0,3.4,0.2,5.1,0.3c6.6,0.4,13.1,0.9,19.6,2
	c7.4,1.5,14.8,3.5,21.7,6.6c6.6,3.3,12.7,7.3,18.4,12c5.5,4.9,10,10.5,14.2,16.5c3.1,4.5,6,9.2,8.6,14c1.4,2.7,3.1,5.4,4.4,8.2
	c1.5,3.1,3,6.3,4.5,9.4c2.3,4.8,4.3,9.7,6.5,14.5c2.8,6.1,5.8,12.1,8.9,18.1c1.9,3.7,6.7,5.2,10.4,3.3c3.7-2,5.2-6.7,3.3-10.4
	c-4-7.6-7.7-15.3-11.2-23.2c-3.4-7.6-6.8-15.3-10.7-22.6c-1.9-3.6-3.8-7.2-6-10.7c-1.4-2.2-2.7-4.3-4.1-6.5c-2.5-4-5.5-7.8-8.4-11.6
	c-7.2-9-16.4-16.2-26.4-21.8c-10.6-6.1-22.3-9.3-34.3-11.3c-6.8-1.2-13.8-1.5-20.7-1.9c-1.7-0.1-3.3-0.1-5-0.1
	C1487.7,1144.8,1485.4,1144.9,1483,1144.9L1483,1144.9L1483,1144.9z M1514.5,1162.1c0.4,0.1,0.8,0.2,1.2,0.2
	C1515.3,1162.3,1514.9,1162.2,1514.5,1162.1L1514.5,1162.1L1514.5,1162.1z M1380.6,1187.6c0.1,0.2,0.1,0.4,0.2,0.5
	C1380.7,1188,1380.7,1187.8,1380.6,1187.6L1380.6,1187.6L1380.6,1187.6z"/>
<path style="fill:#161616;" d="M1275.1,1188.6c-1.1,1-2.2,2.8-2.1,4.5c0.5,8.7,0.9,17.3,0.7,26c-0.1,3.6-0.2,7.1-0.5,10.7
	c-0.1,1.6-0.3,3.3-0.3,4.9c-0.1,2.5,0.2,5.3,2.1,7.2c2.1,2.1,4.5,3.3,7.4,3.9c7.1,1.6,14.5,1.2,21.8,1.1c3.5,0,7.1-0.1,10.6-0.1
	c7.6-0.1,15.1-0.3,22.7-0.4c15.4-0.3,30.9-0.6,46.3-0.6c15.4,0,30.8,0,46.2,0.5c9.5,0.3,18.9,0.8,28.4,0.7c2.8,0,5.6-0.1,8.4-0.5
	c1.5-0.2,3.8-1.1,4.9-2.3c0.7-0.7,1.4-1.5,2.1-2.3c0.5-0.8,0.9-1.7,1.3-2.6c0.9-2,1.4-4.1,1.8-6.3c0.5-2.8,1-5.6,1.1-8.5
	c0-0.9,0.1-1.9,0-2.8c-0.1-2.3-0.4-4-1.4-6.2c-1.5-2.9-4.9-4.4-8.1-3.7c-3.3,0.8-5.3,3.5-5.7,6.8c-0.2,1.6-0.2,3.3-0.2,4.9
	c0,1.8-0.2,3.6-0.5,5.4c-0.2,0.9-0.4,1.8-0.7,2.7c-6.2,0.3-12.5,0-18.7-0.2c-7.2-0.2-14.5-0.5-21.7-0.7c-16-0.3-32-0.3-48-0.1
	c-12.6,0.1-25.2,0.4-37.8,0.7c-7.5,0.2-15,0.3-22.5,0.5c-3.1,0.1-6.3,0.1-9.4,0.1c-5.4,0.1-10.9,0.3-16.3-0.3
	c-0.2-5.4-0.2-10.9-0.3-16.3c-0.1-7.2-0.6-14.4-1.1-21.6c-0.1-1.8-0.4-3.3-1.7-4.7c-1.2-1.3-2.8-2-4.5-2.1c-0.1,0-0.2,0-0.3,0
	C1277.9,1186.9,1276.3,1187.5,1275.1,1188.6L1275.1,1188.6L1275.1,1188.6z"/>
<path style="fill:#161616;" d="M1369.7,1172.7c-1.3,0.1-2.6,0.2-3.9,0.4c-1.8,0.2-3.6,0.4-5.4,0.5c0.7-0.1,1.4-0.1,2-0.2
	c-1.4,0.1-2.8,0.2-4.2,0.4c0.7-0.1,1.4-0.1,2-0.2c-5.7,0.5-11.5,0.9-17.2,1.4c0.7-0.1,1.3-0.1,2-0.2c-22.1,1.9-44.2,4.1-66.3,6.5
	c-1.8,0.2-3.6,1.7-4.6,3.2c-1.1,1.7-1.4,3.7-1,5.6c0.4,1.9,1.6,3.5,3.2,4.6c1.8,1.2,3.6,1.2,5.6,1c11.7-1.3,23.5-2.4,35.2-3.6
	c-0.7,0.1-1.3,0.1-2,0.2c3.5-0.3,7-0.6,10.6-0.9c-0.1,0-0.2,0-0.3,0c-0.1,0-0.2,0-0.2,0c0,0,0.1,0,0.1,0c0,0-0.1,0-0.1,0
	c7.9-0.7,15.9-1.3,23.8-1.9c3.9-0.3,7.9-0.5,11.8-0.8c2.3-0.2,4.7-0.4,7-0.6c1.9-0.2,3.8-0.3,5.6-0.9c3.1-1,5.4-3.3,5.6-6.7
	c0.1-3.1-1.9-6.3-5-7.2c-1.2-0.4-2.5-0.6-3.8-0.6C1370.1,1172.7,1369.9,1172.7,1369.7,1172.7L1369.7,1172.7L1369.7,1172.7z
	 M1325.4,1191.4c0,0,0.1,0,0.1,0c0.2,0,0.4,0,0.6,0C1325.9,1191.4,1325.6,1191.4,1325.4,1191.4L1325.4,1191.4L1325.4,1191.4z"/>
<path style="fill:#161616;" d="M1283.9,1233c-3.9,0.9-7,5.2-5.8,9.2c1.2,4,2.2,8.1,2.9,12.2c0.7,3.9,1.1,7.8,1.6,11.7
	c1,8,2.1,16,3.1,24c1.9,16.2,3.9,32.3,5.3,48.6c0.4,4.9,0.9,9.8,1.3,14.6c0.3,3.1,0.5,6.1,0.8,9.2c0,0.2,0,0.4,0.1,0.6
	c0,0.1,0,0.2,0,0.3c0,0.6,0,1.2,0.2,1.8c0.1,0.6,0.1,1.3,0.2,1.9c0,0.1,0,0.3,0,0.4c0,0,0,0,0,0c0,0.1,0,0.3,0,0.4c0,0,0,0.1,0,0.1
	c0,0.6,0,1.2,0.2,1.8c0,0,0,0,0,0.1c0.1,0.6,0.1,1.2,0.2,1.9c0.2,2.4,0.4,4.9,0.6,7.3c0.7,8.2,1.3,16.5,2.2,24.7
	c0.8,8,2.2,16,3.3,23.9c1,7,1.8,14,3.8,20.8c1,3.4,2.3,7,4.2,10c1.3,2,2.4,3.3,4.2,4.8c1.5,1.2,3.2,2,4.9,2.8c6.6,2.9,13.9,4,21,4.6
	c6.1,0.5,12.3,0.9,18.4,0.9c3.4,0,6.5-1.9,7.6-5.2c1.2-3.7-0.9-8.5-4.8-9.5c-2.3-0.6-4.7-0.7-7.1-0.8c-2.5-0.1-4.9-0.3-7.3-0.4
	c-4.4-0.2-8.9-0.5-13.2-1.2c-3-0.6-5.9-1.4-8.8-2.6c-0.4-0.2-0.9-0.5-1.3-0.8c-0.1-0.1-0.1-0.2-0.2-0.2c-0.7-1.2-1.3-2.5-1.9-3.8
	c-2.7-8.1-3.5-16.7-4.7-25.2c-0.7-4.9-1.5-9.8-2.2-14.8c-0.7-4.9-1.1-9.9-1.5-14.8c0.1,0.7,0.1,1.4,0.2,2
	c-0.7-8.6-1.5-17.3-2.2-25.9c0-0.1,0-0.2,0-0.3c0-0.6,0-1.2-0.2-1.8c0-0.2,0-0.4-0.1-0.6c-0.1-0.7-0.1-1.4-0.2-2c0-0.1,0-0.1,0-0.2
	c0-0.7,0-1.3-0.2-1.9c0,0,0,0,0,0c-0.2-2-0.4-4.1-0.5-6.1c-0.3-3.9-0.7-7.9-1-11.8c-0.7-8.2-1.4-16.5-2.3-24.7
	c-0.7-6.6-1.6-13.2-2.4-19.8c-0.8-6.7-1.5-13.4-2.4-20.1c-0.8-6.7-1.7-13.3-2.6-19.9c-0.4-3.3-0.8-6.7-1.4-10
	c-0.7-3.4-1.6-6.8-2.5-10.2c-1-3.5-3.9-6-7.5-6C1285.1,1232.8,1284.5,1232.9,1283.9,1233L1283.9,1233L1283.9,1233z"/>
<path style="fill:#161616;" d="M1462.8,1247.1c-0.8,8.3-1.3,16.6-1.1,24.9c0.2,8.1,0.7,16.1,0.9,24.2c0.6,16,0.6,32.1-1,48
	c-1.2,12.3-3,24.6-4.2,37c-0.6,5.7-0.9,11.5-1.2,17.2c-0.1,2.6-0.3,5.3-0.3,7.9c0,2.5-0.2,5.7,1.1,7.8c1.4,2.3,3.6,3.9,6.4,4.1
	c3.5,0.2,6.4-2,7.6-5.2c0.5-1.4,0.4-2.6,0.3-3.9c-0.1-1.4,0-2.9,0-4.3c0.1-3.7,0.3-7.3,0.5-11c0.4-7.5,1.2-15,2.1-22.5
	c0.9-7.8,1.9-15.7,2.8-23.5c0.9-8,1.3-16.1,1.5-24.2c0.3-12.4-0.1-24.8-0.7-37.3c-0.3-6.4-0.5-12.7-0.5-19.1
	c0-6.4,0.5-12.9,1.2-19.3c0.4-4.2-3.3-7.9-7.3-8.1c-0.1,0-0.2,0-0.4,0C1466.3,1239.7,1463.2,1243,1462.8,1247.1L1462.8,1247.1
	L1462.8,1247.1z"/>
<path style="fill:#161616;" d="M1488.6,423c-12.3,0.7-24.6,1.9-36.7,4.1c-11.7,2.1-23.1,5.3-34.5,8.8c-11.4,3.4-22.6,7.4-33.6,12.1
	c-10.8,4.6-21.2,10-31.2,16.1c-20.4,12.3-38.7,27.8-54.3,45.8c-7.9,9.1-15.1,18.8-21.5,29c-6.3,10.1-11.8,20.7-16.7,31.6
	c-10.2,22.1-17,45.6-21.3,69.5c-1,5.8-1.9,11.5-2.7,17.3c-0.4,2.9-0.7,5.9-1,8.8c-0.3,2.9-0.6,5.9-0.8,8.9
	c-0.2,4.6-0.3,9.1-0.5,13.7c-0.1,3.5-0.5,7-0.3,10.4c0.2,5.1,0.3,10.3,0.5,15.4c0.1,1.9,0.1,3.7,0.2,5.6c0,0.2,0,0.5,0,0.7
	c0,0.5,0,0.9,0.1,1.4c0,0.5,0.1,0.9,0.2,1.4c0,0,0,0,0,0.1c0,0.5,0,1,0.1,1.5c0,0,0,0.1,0,0.1c0,0.1,0,0.3,0,0.4
	c0,0.5,0.1,1.1,0.2,1.6c0.1,1.4,0.1,2.9,0.4,4.3c0,0.4,0.1,0.7,0.1,1.1c0,0,0,0,0,0c0,0,0,0,0,0c0,0.1,0,0.2,0,0.3
	c0.1,1.3,0.1,2.7,0.3,4.1c0,0.6,0,1.1,0.2,1.7c0,0,0,0.1,0,0.1c0,0.6,0,1.1,0.1,1.7c0,0.5,0.1,1,0.2,1.4c0-0.2,0-0.4-0.1-0.7
	c0,0,0,0,0,0c0,0.2,0,0.4,0.1,0.6c0,0,0,0.1,0,0.1c0.4,4.2,1.1,8.5,1.6,12.7c0.5,3.3,0.9,6.7,1.5,10c0.7,4.1,1.3,8.3,2.1,12.4
	c0.5,2.4,1,4.8,1.5,7.3c0.3,1.7,0.6,3.4,1.1,5.1c1.1,4.2,2.2,8.5,3.4,12.7c0.5,1.8,1.1,3.5,1.7,5.3c0.8,2.4,1.5,4.8,2.3,7.1
	c1.3,4.1,3,8.1,4.5,12.1c0.8,2.1,1.8,4.1,2.7,6.1c0.8,1.7,1.6,3.3,2.4,5c1.1,2.2,2.3,4.3,3.5,6.4c1.6,2.6,3.2,5,4.9,7.5
	c2.8,4,6,7.7,9.3,11.3c3.2,3.5,6.8,6.8,10.5,9.9c0.7,0.6,1.4,1.2,2.1,1.8c-3.4,17.5-7.2,35-11.4,52.3c-4.3,17.8-8.7,35.5-13,53.3
	c-3.8,15.7-6.9,31.6-9,47.7c-0.4,3-0.9,6-1,9c-0.1,2.9,0.6,6.1,2.7,8.2c0.9,0.9,1.9,1.8,3,2.5c1.9,1,3.8,1.4,5.9,1.3
	c1.6-0.1,2.8-0.3,4.3-0.8c1.4-0.4,2.7-1,4-1.5c2.4-1,4.5-2.4,6.6-3.9c2.3-1.6,4.7-3.3,6.9-5.1c2.5-2,4.8-4.2,7.2-6.3
	c3.5-3.1,6.9-6.5,10.3-9.7c2.5-2.4,5-4.8,7.5-7.3c12.1-11.8,23.9-23.9,35.6-36.1c5.8-6.1,11.6-12.2,17.4-18.3
	c5.4-5.7,10.6-11.6,16.1-17.2c0.3-0.3,0.6-0.5,0.9-0.8c2-0.5,4.1-0.9,6.2-1.1c4.5-0.2,8.8,0.2,13.2,0.9c15.4,3.2,30.4,7.8,45.8,10.8
	c16.7,3.3,33.6,5.9,50.5,7.4c4.4,0.4,8.8,0.8,13.2,1.1c4.4,0.3,8.7,0.3,13.1,0.3c1.8,0,3.5-0.2,5.3-0.2c2.3-0.1,4.6-0.2,6.9-0.5
	c4.1-0.5,8.3-0.9,12.4-1.6c4.5-0.8,8.8-1.7,13.3-2.6c4.1-0.9,8.2-2.1,12.3-3.2c3.8-1,7.6-2.3,11.4-3.5c1.7-0.5,3.3-1.2,5-1.8
	c2.5-0.9,5-1.7,7.4-2.7c7.2-3.1,14.5-6.1,21.4-9.9c3.7-2.1,7.4-4.1,10.9-6.4c3.7-2.4,7.4-4.7,11-7.3c4.2-3.1,8.5-6.1,12.6-9.3
	c9.1-7.3,17.7-15.1,25.9-23.4c8.5-8.6,16.2-18,23.4-27.7c4.2-5.6,8.2-11.4,11.8-17.4c2.9-4.6,5.7-9.3,8.6-13.9
	c1.6-2.6,3-5.4,4.4-8.1c2.3-4.4,4.6-8.7,7-13.1c1.9-3.6,3.4-7.3,5.1-11c1.9-4.1,3.7-8.2,5.6-12.3c0.4-1,0.8-2,1.2-3
	c1-2.8,2.1-5.5,3.1-8.3c1-2.6,2-5.2,2.9-7.8c0.5-1.2,1-2.3,1.4-3.6c1.3-4.2,2.6-8.4,4-12.6c0.8-2.6,1.6-5.2,2.4-7.8
	c0.4-1.2,0.8-2.3,1.1-3.5c1-4.2,2-8.5,3-12.7c1-4.2,2-8.5,3.1-12.7c1.3-5.4,2.1-11,3-16.6c1-6.3,1.8-12.6,2.4-18.9
	c2.3-24.1,0-48.5-6.6-71.8c-6.4-22.8-16.9-44.4-30.2-63.9c-6.7-9.8-14.1-19.1-22.1-27.9c-8.1-8.9-17-17.1-26.2-24.9
	c-18.1-15.4-38.3-28.3-59.7-38.6c-11-5.3-22.2-9.9-33.7-13.9c-11.6-3.9-23.4-6.9-35.4-9.2c-12.1-2.3-24.2-4.2-36.5-5.2
	c-5.7-0.5-11.4-0.7-17.1-0.7C1501.9,422.3,1495.2,422.6,1488.6,423L1488.6,423L1488.6,423z M1517.8,437.9c13.1,0.5,26,2.4,38.9,4.7
	c-0.3,0-0.5-0.1-0.8-0.1c0.3,0.1,0.6,0.1,0.9,0.2c0.4,0.1,0.8,0.1,1.2,0.2c-0.3-0.1-0.7-0.1-1-0.2c11.7,2.2,23.2,5.1,34.5,8.8
	c10.8,3.5,21.4,7.8,31.6,12.7c21.5,10.4,41.5,23.4,59.8,38.7c15.8,13.6,30.2,28.9,42.3,45.9c10.3,15,18.7,31,25.2,48
	c5.5,15.2,9.1,31,10.7,47.1c0.8,9.7,0.8,19.4,0.1,29.1c-0.7,10.3-2.2,20.4-4,30.5c0.1-0.7,0.2-1.4,0.4-2c-2,10.6-4.7,21-7.2,31.4
	c-0.7,2.8-1.7,5.6-2.5,8.3c-1.6,5.2-3.3,10.4-4.9,15.6c-0.9,2.8-2,5.6-3.1,8.4c-1.9,4.9-3.7,9.8-5.6,14.7c-1.1,3.1-2.7,6-4,9
	c-1.8,3.9-3.6,7.9-5.3,11.8c-4.1,7.7-7.9,15.5-12.5,22.9c-3.1,5.1-6.2,10.1-9.4,15.2c-2.5,4-5.3,7.9-8.1,11.8
	c-3.9,5.4-8,10.6-12.3,15.7c-10.6,12.3-22.4,23.4-35,33.7c-5,4.1-10.3,7.7-15.5,11.5c-2.9,1.8-5.8,3.7-8.7,5.5
	c-3,1.9-6.3,3.6-9.4,5.3c-3.2,1.8-6.5,3.3-9.8,4.9c-1.6,0.8-3.2,1.4-4.8,2.1c-1.8,0.8-3.6,1.5-5.3,2.3c-4,1.4-7.9,2.9-11.9,4.1
	c-2.5,0.8-5,1.7-7.6,2.3c-3.1,0.8-6.2,1.7-9.3,2.5c-4.6,1.2-9.3,2.2-14.1,3c-2.4,0.4-4.8,0.9-7.2,1.2c-2.5,0.3-5,0.6-7.4,0.8
	c-5.8,0.3-11.7,0.7-17.6,0.3c-6.6-0.4-13.2-0.9-19.8-1.6c-13.1-1.4-26.1-3.2-39.1-5.5c-7.9-1.6-15.7-3.3-23.4-5.2
	c-7.5-1.9-15.1-4.1-22.7-5.7c-5.1-1-10.2-2.1-15.3-2.5c-5.2-0.5-10.6,0.1-15.6,1.2c-2.7,0.6-5.2,1.6-7.4,3.3
	c-1.4,1.2-2.6,2.5-3.9,3.8c-5.3,5.7-10.7,11.4-16,17.1c-11,11.8-22.2,23.4-33.6,34.8c-6.5,6.6-13.1,13.1-19.7,19.6
	c-6.7,6.5-13.4,13-20.4,19.1c-2.1,1.8-4.2,3.4-6.4,5c-0.9,0.6-1.8,1.2-2.8,1.7c0.1-0.7,0.2-1.4,0.3-2c0.3-2,0.5-3.9,0.8-5.9
	c0.5-3.7,1.1-7.4,1.7-11.1c0.7-3.5,1.3-7.1,2-10.6c0.8-4.5,2-8.9,3-13.3c1.9-8.4,4.1-16.8,6.1-25.2c1.8-7.2,3.5-14.4,5.3-21.6
	c1.7-7.1,3.6-14.3,5.2-21.4c2.7-12.3,5.4-24.6,7.9-37c0.6,0,1.2,0,1.8-0.2c1.9-0.4,3.6-1.6,4.6-3.2c1.1-1.7,1.5-3.7,1-5.7
	c-0.5-2-1.6-3.3-3.2-4.6c-0.1,0-0.1-0.1-0.2-0.1c-2.9-2.5-6-4.7-9-7.1c-3.6-3.2-7.2-6.4-10.4-10c-2.1-2.3-4.1-4.5-6.1-6.9
	c-1.6-2-3.1-4.1-4.5-6.2c0.4,0.5,0.8,1.1,1.1,1.6c-2.8-4.7-5.6-9.4-7.9-14.4c-1.1-2.5-2.3-5-3.3-7.6c-1-2.6-1.9-5.1-2.9-7.7
	c-1.7-5.4-3.5-10.7-5-16.2c-0.8-3-1.8-6-2.4-9.1c-0.8-3.7-1.5-7.5-2.3-11.2c-2.4-11.5-3.8-23.1-5.3-34.8c0-0.6-0.1-1.2-0.2-1.7
	c0,0,0,0,0,0c0-0.6,0-1.2-0.2-1.9c0-0.1,0-0.2,0-0.3c0,0,0,0,0,0c0-0.4,0-0.8-0.1-1.2c0-0.8-0.1-1.6-0.2-2.5c0-0.5-0.1-0.9-0.2-1.3
	c0-0.2,0-0.4-0.1-0.6c0-0.6,0-1.2-0.2-1.8c0-0.3,0-0.6-0.1-0.8c0,0,0,0,0,0c0,0,0-0.1,0-0.1c0-0.2,0-0.4-0.1-0.7c0,0,0,0,0,0
	c0-0.6,0-1.3-0.1-1.9c0-0.2,0-0.4,0-0.6c0-0.4,0-0.8-0.1-1.2c0,0,0,0,0,0c0-0.2,0-0.4,0-0.6c0-0.4,0-0.8-0.1-1.2c0-0.3,0-0.7-0.1-1
	c0-0.2,0-0.4-0.1-0.6c0-1.1,0-2.1-0.1-3.2c-0.1-3.6-0.2-7.1-0.3-10.7c-0.1-3.7-0.2-7.3,0-11c0.2-6.2,0.5-12.3,0.7-18.5
	c0.2-4.7,0.7-9.3,1.2-14c0.8-7.2,1.9-14.4,3.2-21.5c2.2-11.6,5-23.1,8.6-34.4c3.8-12.1,8.5-23.8,13.9-35.3c8.5-17.5,18.8-34,31.3-49
	c12.2-14.2,25.9-26.7,41.2-37.5c16.8-11.5,35-20.7,54-27.8c12.1-4.4,24.4-8.1,36.9-11.3c12.7-3.2,25.6-5.2,38.7-6.4
	C1491.7,438,1504.8,437.4,1517.8,437.9L1517.8,437.9L1517.8,437.9z M1623.6,464.4c0.4,0.2,0.8,0.4,1.2,0.5
	C1624.4,464.8,1624,464.6,1623.6,464.4L1623.6,464.4L1623.6,464.4z M1309,520.8c-0.3,0.3-0.6,0.7-0.9,1
	C1308.4,521.5,1308.7,521.2,1309,520.8L1309,520.8L1309,520.8z M1750.4,597.1c0.2,0.5,0.3,0.9,0.5,1.4
	C1750.7,598,1750.6,597.6,1750.4,597.1L1750.4,597.1L1750.4,597.1z M1254.2,640.9c-0.1,0.6-0.2,1.2-0.3,1.8
	C1253.9,642.1,1254,641.5,1254.2,640.9L1254.2,640.9L1254.2,640.9z M1250.3,730.2c0,0.1,0,0.1,0,0.2
	C1250.3,730.3,1250.3,730.3,1250.3,730.2C1250.3,730.2,1250.3,730.2,1250.3,730.2L1250.3,730.2L1250.3,730.2z M1595.7,931
	c-0.2,0.1-0.4,0.1-0.5,0.2C1595.3,931.2,1595.5,931.1,1595.7,931L1595.7,931L1595.7,931z M1386.1,941.6c-0.2,0.1-0.3,0.1-0.5,0.2
	C1385.7,941.7,1385.9,941.6,1386.1,941.6L1386.1,941.6L1386.1,941.6z M1384.5,942.3c-0.1,0.1-0.2,0.1-0.3,0.2
	C1384.3,942.5,1384.4,942.4,1384.5,942.3L1384.5,942.3L1384.5,942.3z M1275.5,1012.8c-0.1,0.4-0.2,0.8-0.2,1.2
	C1275.3,1013.6,1275.4,1013.2,1275.5,1012.8L1275.5,1012.8L1275.5,1012.8z M1275.2,1029.7c-0.2,0.2-0.4,0.3-0.7,0.5
	C1274.7,1030,1275,1029.9,1275.2,1029.7L1275.2,1029.7L1275.2,1029.7z M1236.1,742.4c0-0.2,0-0.3,0-0.5c0,0,0,0,0,0
	C1236,742.1,1236.1,742.3,1236.1,742.4L1236.1,742.4L1236.1,742.4z M1557,442.7c-0.1,0-0.1,0-0.2,0c0,0-0.1,0-0.1,0
	C1556.8,442.7,1556.9,442.7,1557,442.7L1557,442.7L1557,442.7z"/>
<path style="fill:#161616;" d="M1644.1,594.2c-7.4,0.1-14.7,0.3-22.1,0.5c-16.9,0.5-33.9,1.2-50.8,1.7c-8.2,0.3-16.4,0.4-24.6,0.5
	c-8.4,0.1-16.7-0.2-25.1-0.4c-6.7-0.2-13.3-0.4-20-0.6c-3-0.1-6.1-0.2-9.1-0.2c-1.7,0-3.4-0.1-5.1-0.1c-0.8,0-1.6,0-2.5,0
	c-2.7,0.1-4.8,0.7-7.2,1.9c-2.9,1.5-4.5,5-3.8,8.1c0.2,0.7,0.4,1.4,0.8,2c-0.4,0.8-0.6,1.8-0.7,2.7c-0.5,8.7-1,17.4-1.6,26
	c-0.2,2.3-0.3,4.6,0.1,6.8c0.5,3.1,2,5.7,4.6,7.5c2.2,1.6,4.7,2.6,7.3,3.2c3.3,0.7,6.7,1.1,10.1,1.4c5.4,0.4,10.8,0.3,16.2,0.4
	c16.5,0.3,32.9,0.3,49.4,0.4c16.3,0.1,32.6,0,48.9-0.4c16.4-0.4,32.8-1.5,49.2-2.6c3.7-0.3,7.5-0.5,11.2-0.8
	c2.5-0.2,5.1-0.4,7.6-0.6c1.9-0.2,4.1-0.5,5.7-1.4c1-0.6,2-1.3,2.9-2c1.5-1.3,2.3-3.1,3-4.9c0.1-0.7,0.2-1.4,0.4-2
	c0.2-0.9,0.3-1.8,0.2-2.7c0-1.4-0.1-2.9-0.2-4.3c-0.1-1.5-0.2-3.1-0.3-4.6c-0.2-2.3-0.3-4.5-0.5-6.8c-0.3-4.4-0.7-8.8-1.1-13.2
	c-0.2-2.2-0.9-4.2-1.9-6.2c-1.2-2.5-4-4.4-6.4-5.6c-5.6-2.8-12.1-3.4-18.3-3.7c-1.8-0.1-3.6-0.1-5.5-0.1
	C1651.4,594,1647.7,594.1,1644.1,594.2L1644.1,594.2L1644.1,594.2z M1556.2,612.3c7.9-0.1,15.9-0.5,23.8-0.8
	c13.8-0.5,27.5-1,41.3-1.4c6.8-0.2,13.5-0.3,20.3-0.5c2.9-0.1,5.7-0.1,8.6-0.1c5.9-0.1,11.8-0.1,17.6,0.8c1.3,0.3,2.5,0.6,3.7,1.1
	c0.1,0.1,0.2,0.1,0.3,0.2c0.5,2.3,0.6,4.8,0.8,7.1c-0.1-0.7-0.1-1.4-0.2-2.1c0.2,2.8,0.5,5.7,0.7,8.6c0.1,1.6,0.3,3.3,0.4,4.9
	c0.2,2.2,0.4,4.4,0.4,6.6c-0.9,0.1-1.8,0.1-2.6,0.2c0.7-0.1,1.4-0.1,2-0.2c-16.7,1.3-33.4,2.2-50.1,3.1c-15.7,0.8-31.5,0.9-47.3,0.9
	c-14.2,0-28.4-0.1-42.6-0.2c-6.4-0.1-12.7-0.1-19.1-0.2c-3.2,0-6.4-0.1-9.7-0.2c-5.3-0.1-10.6-0.2-15.9-1.1
	c-0.3-0.1-0.6-0.2-0.9-0.2c0.1-1.9,0.2-3.7,0.4-5.6c0.2-2.3,0.3-4.6,0.5-7c0.3-5.1,0.6-10.1,0.9-15.2c1.8,0,3.6,0.1,5.5,0.1
	c3.8,0.1,7.7,0.2,11.5,0.3c8,0.3,15.9,0.5,23.9,0.7c4.7,0.1,9.4,0.1,14.1,0.1C1548.3,612.3,1552.2,612.3,1556.2,612.3L1556.2,612.3
	L1556.2,612.3z"/>
<path style="fill:#161616;" d="M1680.5,641.9c0,1.9-0.2,3.9-0.3,5.8c-0.1,1.8-0.2,3.6-0.4,5.4c-0.3,3.7-0.6,7.5-1,11.2
	c-0.7,7.6-1.6,15.3-1.9,22.9c-0.8,16.8-0.9,33.6-1.3,50.4c-0.3,11-0.9,21.9-1.6,32.9c-0.3,5.7-0.7,11.4-1.1,17.1
	c-0.2,2.8-0.5,5.5-0.8,8.3c-0.5,5-1,10-1.8,15c-0.7,3.4-1.5,6.8-2.8,10c-0.5,0.8-1,1.7-1.5,2.4c0,0,0,0-0.1,0
	c-0.3,0.1-0.7,0.2-1,0.2c-7.2,0.3-14.5,0.5-21.7,1c-8.1,0.6-16.1,1.3-24.1,2c-16.3,1.3-32.6,1.6-48.9,1.2c-15.8-0.3-31.5-1.2-47.3-2
	c-16.5-0.8-33-1.8-49.4-2.8c-6.6-0.4-13.3-0.9-19.8-1.8c0-0.1,0.1-0.1,0.1-0.2c0.8-2,1.5-4,2.3-6.1c1.4-3.8,2.7-7.6,4-11.4
	c2.5-7.3,4.8-14.6,6.9-22c2.3-8.1,4.5-16.2,6.7-24.3c2-7.6,4.2-15.1,6.2-22.6c1.6-6,3.1-12.1,4.6-18.2c0.7-3,1.2-6.2,1.9-9.2
	c0.6-3.2,1.1-6.3,1.6-9.5c2.4-15.7,4.2-31.6,6-47.4c0.5-4.2-3.4-7.9-7.3-8.1c-2-0.1-4,0.6-5.5,2c-1.6,1.4-2.3,3.3-2.5,5.3
	c-1.3,11.1-2.6,22.2-4,33.4c-0.8,6.5-1.8,12.9-2.8,19.3c-0.6,3.1-1.1,6.3-1.9,9.4c-1,4.2-2,8.3-3.1,12.4c-2,7.6-4.1,15.1-6.2,22.6
	c-4.2,15.4-8.2,31-13.2,46.2c-2.5,7.6-5.1,15.3-8,22.8c-0.7,1.9-1.5,3.7-2.2,5.6c-1.3,3.2-0.9,6.8,1.3,9.6c2.1,2.6,5,3.9,8.1,4.7
	c3.4,0.9,7,1.2,10.4,1.6c2,0.3,4.1,0.4,6.2,0.6c7.8,0.7,15.6,1.1,23.4,1.6c7.5,0.4,14.9,0.9,22.4,1.3c17.4,0.9,34.8,1.7,52.2,2.5
	c16,0.7,32,0.3,47.9-0.5c15.5-0.8,31-2.7,46.5-3.3c1.8-0.1,3.6-0.1,5.5-0.2c3.2-0.1,6.5,0,9.5-1.1c2.5-0.9,4.6-2,6.5-3.9
	c1.7-1.7,3-3.8,4.1-6c2.8-5.7,3.9-11.8,4.9-18c1-6.5,1.5-13.1,2.2-19.7c0.4-4.1,0.6-8.2,0.9-12.3c1.2-16.2,1.8-32.5,2.2-48.8
	c0.4-16,0.5-31.9,1.6-47.9c0.5-6.7,1.2-13.3,1.8-20c0.3-3.2,0.6-6.4,0.8-9.6c0.1-1.5,0.2-3,0.3-4.5c0.1-0.9,0.1-1.7,0.1-2.6
	c-0.1-2.8-1-5-2.7-7.2c-1.3-1.6-3.1-2.3-5-2.3C1684.3,635.1,1680.4,637.8,1680.5,641.9L1680.5,641.9L1680.5,641.9z"/>
<path style="fill:#161616;" d="M1534.4,684.2c-3.6,1.9-5.4,6.8-3.3,10.4c5.7,9.6,11.5,19.3,17.3,28.9c3.6,6,7.3,12.1,11.2,17.9
	c4.8,7.2,9.8,14.3,15.3,21c4.9,6,10,11.8,15.3,17.4c1.3,1.3,2.6,2.6,4.1,3.8c0.5,0.4,0.9,0.7,1.4,1.1c0.8,0.6,1.7,1.1,2.7,1.5
	c1.5,0.5,2.6,0.3,4.1,0.2c3-0.4,5.3-3.6,5.4-6.5c0-0.6,0-1.2-0.2-1.9c0,0,0,0,0,0c-0.2-2-1.8-3.8-3-5.3c-0.7-0.8-1.4-1.5-2.1-2.2
	c-1.4-1.4-2.7-2.8-4-4.2c-2.7-2.9-5.2-5.8-7.8-8.8c-2.7-3.1-5.2-6.3-7.8-9.5c-2.1-2.6-4-5.4-6-8.1c-2.1-3.2-4.3-6.3-6.3-9.5
	c-2.7-4.3-5.3-8.6-8-12.9c-6.1-9.9-12-20-18-30c-1.5-2.5-4.1-4.1-6.9-4.1C1536.8,683.4,1535.6,683.6,1534.4,684.2L1534.4,684.2
	L1534.4,684.2z M1595.2,775.8C1595.3,775.8,1595.3,775.8,1595.2,775.8c0,0.2-0.1,0.3-0.2,0.5C1595.1,776.1,1595.2,776,1595.2,775.8
	L1595.2,775.8L1595.2,775.8z"/>
<path style="fill:#161616;" d="M1604.7,685.7c-2.6,2.6-5.4,5.1-7.9,7.8c-1.5,1.6-3,3.3-4.5,4.9c-3.8,4.1-7.5,8.2-11.3,12.2
	c-2.4,2.6-4.6,5.4-6.8,8.2c-2.8,3.5-5.7,7.1-8.5,10.6c-2.9,3.6-5.5,7.4-8.2,11.2c-2.3,3.2-4.6,6.4-6.9,9.7
	c-4.5,6.3-8.9,12.6-13.5,18.8c-3.6,4.9-7.3,9.8-10.6,14.9c-2.2,3.5-1.3,8.3,2.2,10.6c3.6,2.3,8.2,1.1,10.6-2.3
	c8.1-11.3,16.2-22.6,24.3-33.9c4.8-6.7,9.6-13.4,14.5-20c1.8-2.5,3.8-4.8,5.7-7.2c2.3-2.9,4.5-5.7,6.8-8.6c3.3-3.6,6.6-7.2,10-10.8
	c1.9-2.1,3.8-4.2,5.8-6.3c2.8-3,5.7-5.7,8.6-8.6c3-2.9,3.4-7.7,0.5-10.9c-1.5-1.6-3.7-2.5-5.8-2.5
	C1607.9,683.7,1606,684.4,1604.7,685.7L1604.7,685.7L1604.7,685.7z"/>
<path style="fill:#161616;" d="M1358.3,629c-4.5,0.3-9,1.9-13,3.9c-4.2,2.1-7.9,5.3-11,8.8c-3,3.3-5.7,7-7.9,10.9
	c-2.6,4.6-4.6,9.6-6.3,14.6c-2.2,6.5-3.4,13.3-4.7,20.1c-0.5,3.1-1,6.3-1.1,9.4c-0.1,1.6,0,3.3-0.1,5c0,2.8,0,5.6,0.1,8.5
	c0.1,6.1,0.8,12.2,1.3,18.3c-0.1-0.6-0.1-1.2-0.2-1.9c0.1,1.5,0.1,3.1,0.4,4.5c0,0.2,0,0.4,0.1,0.6c0.6,7,1.3,14,1.9,21.1
	c0.7,7.1,1.3,14.3,2.2,21.4c0.9,6.8,2.2,13.7,4.3,20.2c1.1,3.7,2.5,7.3,4.1,10.8c1.7,3.7,4.1,7.1,6.8,10.1c2.4,2.7,5.5,5,8.6,6.9
	c1.8,1.1,3.8,2,5.8,2.8c1.1,0.4,2.2,0.7,3.3,1c2.8,0.8,5.4,0.7,8.3,0.4c0.9-0.1,1.9-0.5,2.8-0.7c1.4-0.4,2.7-1,4-1.6
	c2.3-1,4.3-2.8,6.2-4.4c4-3.3,7.7-7.4,10.6-11.7c1.5-2.2,2.6-4.8,3.8-7.2c1-2,1.8-4.1,2.7-6.2c0.9-2.3,1.9-4.5,2.6-6.8
	c1-3.1,1.6-6.3,2.2-9.5c1.2-7.2,2.2-14.4,2.9-21.6c0.3-3.3,0.6-6.7,0.6-10c0-4.2-0.4-8.3-1-12.5c-0.3-1.8-0.6-3.6-0.9-5.4
	c0.1,0,0.1-0.1,0.2-0.1c0.7-0.8,1.3-1.5,1.9-2.3c0.3-0.6,0.6-1.2,0.9-1.8c0.5-1,0.8-2,0.8-3.1c0.4-2.5,0.1-5-0.1-7.5
	c-0.2-1.7-0.4-3.4-0.7-5.1c-1.4-7.3-3-14.6-4.9-21.8c-1.8-6.9-3.6-13.7-5.6-20.5c-0.9-3.2-2-6.4-3.1-9.5c-1.7-4.9-3.5-9.8-6-14.4
	c-2.2-4-5.3-7.3-8.9-10.2c-1.6-1.2-3.7-2-5.6-2.6c-2-0.7-4.2-0.9-6.4-0.9C1359.4,629,1358.9,629,1358.3,629L1358.3,629L1358.3,629z
	 M1360.6,642.3c0.7,0.2,1.4,0.4,2,0.6c0.4,0.2,0.7,0.4,1.1,0.7c1,1,1.9,2.1,2.8,3.2c1.5,2.3,2.6,4.8,3.6,7.4
	c3.4,9.8,6.3,19.9,8.8,30c1.3,5.4,2.7,10.8,3.9,16.3c0.7,3,1.4,5.9,1.9,8.9c-2.5,1-4.8,3.5-4.6,6.3c0,0.6,0.1,1.2,0.1,1.8
	c-6.3,0.2-12.6,0.2-18.9,0.1c-9.7-0.1-19.4-0.5-29.1-0.8c-1.4-0.1-2.8,0.3-4,0.9c-0.1-1.4-0.3-2.8-0.4-4.1
	c-0.3-3.9-0.6-7.8-0.7-11.7c-0.1-3.9-0.1-7.7,0.4-11.5c0.3-2.8,0.8-5.6,1.3-8.4c1.4-7,3.5-13.8,6.4-20.3c1-1.9,2-3.8,3.2-5.6
	c1.2-1.7,2.5-3.3,3.8-4.9c1.6-1.8,3.4-3.5,5.4-5c1.6-1,3.3-1.9,5.1-2.7c1.6-0.5,3.2-1,4.9-1.3
	C1358.7,642.1,1359.7,642.1,1360.6,642.3L1360.6,642.3L1360.6,642.3z M1332.6,755.3c-0.9-7.8-1.7-15.6-2.6-23.5
	c0.6,0.2,1.1,0.3,1.7,0.3c9.1,0.3,18.2,0.7,27.3,0.8c7.3,0.1,14.6,0.3,21.9-0.1c0.6,0,1.1-0.1,1.7-0.1c0.5,2.9,1,5.8,1.3,8.8
	c0.2,5.6-0.1,11.2-0.7,16.8c-0.7,6.2-1.5,12.3-2.5,18.4c-0.7,3.3-1.5,6.6-2.8,9.8c-1.1,2.9-2.3,5.7-3.6,8.5
	c-0.8,1.6-1.6,3.2-2.5,4.7c-0.7,1.1-1.5,2.1-2.3,3.1c-2.3,2.5-4.7,4.9-7.4,7c-0.8,0.5-1.6,0.9-2.4,1.2c-0.5,0.1-0.9,0.3-1.4,0.4
	c-0.4,0-0.9,0-1.3-0.1c-1.2-0.4-2.4-0.8-3.6-1.2c-1.8-1-3.5-2-5.1-3.3c-1.5-1.4-2.9-2.9-4.2-4.6c-1.7-2.7-3-5.5-4.2-8.5
	C1335.6,781.3,1333.9,768.3,1332.6,755.3L1332.6,755.3L1332.6,755.3z M1315.4,687.5c0-0.1,0-0.1,0-0.2c0.1-0.5,0.2-1,0.3-1.5
	C1315.6,686.3,1315.5,686.9,1315.4,687.5L1315.4,687.5L1315.4,687.5z"/>
<path style="fill:#161616;" d="M1366.3,1278.9c-3.3,0.8-6.6,2-9.5,3.8c-2.9,1.8-5.3,4.3-7.6,6.8c-1.2,1.2-1.8,2.7-2,4.3
	c-2.2,3.3-4.3,6.6-6.1,10c-2.5,4.7-4.6,9.7-6.5,14.7c-3.8,10-5.7,20.6-4.6,31.2c1,9.6,3.9,19.3,9.3,27.4c5.7,8.5,13.7,15,23,19.1
	c10,4.4,21.1,5.9,31.9,4.7c5.2-0.6,10.2-1.7,15.1-3.6c2.4-0.9,4.8-2,7.1-3.2c2.6-1.3,5-3,7.3-4.6c8.4-5.9,15.5-13.9,19.7-23.4
	c4.4-9.9,6.4-21.1,4.6-31.9c-1-6.5-3.2-12.6-5.9-18.6c-2.6-5.8-6.5-11.2-10.8-16c-3.4-3.8-7.5-6.9-11.6-9.8
	c-2.1-1.5-4.3-2.8-6.5-4.1c-8.2-4.8-17.5-7.7-26.9-8.9c-1.4-0.2-2.9-0.3-4.4-0.3C1376.5,1276.6,1371.2,1277.7,1366.3,1278.9
	L1366.3,1278.9L1366.3,1278.9z M1386.1,1292.3c4.4,0.8,8.8,2,13,3.7c5.4,2.4,10.5,5.4,15.2,9c2.9,2.4,5.6,5,8,7.9
	c2.6,3.6,4.9,7.3,6.7,11.4c1.7,4.3,3,8.8,3.8,13.3c0.3,3.3,0.3,6.6-0.1,9.9c-0.6,4-1.7,7.8-3.2,11.6c-1.3,2.9-2.9,5.7-4.8,8.3
	c-2.6,3.1-5.5,6-8.6,8.6c-3.5,2.6-7.2,4.8-11.1,6.6c-3.8,1.5-7.7,2.6-11.7,3.2c-4.6,0.5-9.1,0.4-13.7-0.1c-3.8-0.6-7.5-1.6-11.1-2.9
	c-3.3-1.5-6.4-3.2-9.3-5.3c-2.5-2.1-4.8-4.4-6.9-6.9c-2-2.8-3.7-5.7-5.1-8.8c-1.8-4.6-3-9.4-3.8-14.4c-0.5-4.8-0.4-9.5,0.1-14.2
	c1-6.5,3-12.7,5.5-18.8c1.2-2.7,2.4-5.3,3.9-7.8c0.9-1.6,1.9-3.2,2.9-4.8c1.3-0.3,2.5-1,3.6-2c1-0.9,2-1.8,3-2.6
	c1-0.7,2.1-1.4,3.3-2c3.7-1.3,7.5-2.2,11.4-2.8C1380.2,1292.1,1383.1,1292,1386.1,1292.3L1386.1,1292.3L1386.1,1292.3z
	 M1429.3,1324.8c0.1,0.2,0.2,0.4,0.3,0.6C1429.4,1325.1,1429.4,1324.9,1429.3,1324.8L1429.3,1324.8L1429.3,1324.8z"/>
<path style="fill:#161616;" d="M569,161.3c-107.5,0-214.9,0-322.4,0c-4.2,0-7.7,3.5-7.7,7.7c0,210.4,0,420.7,0,631.1
	c0,209.2,0,418.4,0,627.6c0,108.6,0,217.3,0,325.9c0,4.2,3.5,7.7,7.7,7.7c209.5,0,418.9,0,628.5,0c63.7,0,127.4,0,191.1,0
	c22.1,0,44.2-0.1,66.3-0.2c122.6,0,245.3,0,367.9,0c110.3,0,220.5,0,330.8,0c4.1,0,7.6-3.4,7.6-7.6c0-209.4,0-418.7,0-628.1
	c0-209.3,0-418.6,0-627.9c0-109.5,0-219.1,0-328.6c0-4.2-3.5-7.7-7.7-7.7c-210.5,0-421,0-631.4,0C989.5,161.3,779.2,161.3,569,161.3
	L569,161.3L569,161.3z M878.7,176.6c210.2,0,420.3,0,630.5,0c104.8,0,209.6,0,314.4,0c0,207.5,0,415.1,0,622.6
	c0,208.8,0.1,417.6,0.1,626.3c0,106.8,0,213.6,0,320.4c-207.7,0-415.2,0-622.9,0.1c-24.9,0-49.9,0-74.8,0c-7.4,0-14.7-0.1-22.1-0.1
	c-26.1-0.2-52.3-0.1-78.4-0.1c-26.1,0-52.3,0-78.4,0c-103.9,0-207.9,0-311.8,0c-127,0-253.9,0-380.9,0c0-206.4,0-412.8,0-619.1
	c0-209.9,0-419.8,0-629.6c0-106.8,0-213.6,0-320.5C462.4,176.6,670.5,176.6,878.7,176.6L878.7,176.6L878.7,176.6z"/>
</svg>
