<?xml version="1.0" encoding="utf-8"?>
<!-- Generator: Adobe Illustrator 22.1.0, SVG Export Plug-In . SVG Version: 6.00 Build 0)  -->
<svg version="1.1" id="Layer_1" xmlns="http://www.w3.org/2000/svg" xmlns:xlink="http://www.w3.org/1999/xlink" x="0px" y="0px"
	 viewBox="0 0 2000 2000" style="enable-background:new 0 0 2000 2000;" xml:space="preserve">
<g>
	<path style="fill:#161616;" d="M956.3,34.4c-40,1.8-80.8,6.3-121.5,13.2C721.7,66.7,612.9,106.6,511.4,166
		c-46.7,27.3-92.4,59.8-135.9,96.5c-41.8,35.3-81.5,75.3-118,118.9c-35.7,42.7-68.1,89.3-96.5,138.5c-27.7,48.1-51.8,100.3-71.5,155
		c-40,111-58.8,229-55.8,350.6c1.4,59.3,8.7,119.9,21.6,179.9c6,27.9,13.8,57.1,23.1,86.7c8.3,26.3,18.2,53.1,30.3,82.1
		c44,105.4,107.1,202.4,187.6,288.1c75.6,80.6,164.5,147.4,264.2,198.7c49.5,25.4,102.5,46.9,157.4,63.7
		c53.8,16.5,111.3,28.5,170.8,35.5c51,6,103.2,7.8,155.1,5.4c67.9-3.1,135.8-13.4,201.8-30.6c51.5-13.4,103.7-32,155.1-55.3
		c46.8-21.2,93.1-47.1,137.5-77c42.3-28.3,83.2-60.9,121.8-96.9c37.1-34.6,72.8-73.9,106-116.7c33.5-43.2,63.9-90.6,90.3-140.8
		c26.1-49.5,48.1-102.6,65.5-157.8c2.1-6.7,4.1-13.3,6-20c0.7-2.4,1.4-4.8,2.1-7.1c15.2-53.4,25.9-110.1,31.8-168.6
		c6.1-60.7,6.2-123.3,0.3-186.2c-5.5-59.7-17-119.9-34-178.9c-16.1-55.6-38-111.2-65.3-165.4c-25.9-51.4-57.5-101.8-94-149.7
		c-34.6-45.5-73.9-88.4-116.8-127.8c-41.3-37.9-87-72.9-136-104c-46.9-29.8-98.2-56.2-152.5-78.5c-52.6-21.5-108.5-38.6-166.2-50.6
		c-57.6-12.1-118-18.8-179.4-20.1C997.6,33.2,976.8,33.4,956.3,34.4L956.3,34.4L956.3,34.4z M637.2,121.1L637.2,121.1l0.6-0.2
		c-1.6,0.6-3.2,1.3-4.8,2c1.3-0.5,2.6-1.1,3.9-1.6l0,0l0,0C637.1,121.1,637.2,121.1,637.2,121.1L637.2,121.1L637.2,121.1z
		 M887.9,185c22-2.7,44.4-4.6,66.6-5.7c0,0,0,0,0,0c14.6-0.7,29.4-1,44.1-0.9c35.8,0.2,72.7,2.8,109.9,7.9
		c36,5.2,71.9,12.7,106.9,22.4c34.1,9.5,68.8,21.7,102.9,36.3l-1.8-0.9c32.3,14,64.1,30.1,94.5,48c30,17.6,60,38,89,60.6
		c0,0,0,0,0,0l0.5,0.4l-0.5-0.5c0,0,0,0,0,0c0,0,0,0,0,0c0,0,0,0,0,0.1l-1-0.9c28,22,54.8,45.9,79.8,71c24.4,24.5,48,51.6,70.2,80.5
		c21.5,28.3,41.3,58.2,59,88.7c17.3,29.8,33.2,62,47.3,95.7l0.2,0.4l0.2,0.4c0,0,0,0,0,0c0,0,0,0.1,0,0.1l0-0.1l0,0
		c0,0-0.1-0.2,0-0.2c0,0,0-0.1,0-0.2l0.3,0.8c13.3,32.6,24.8,66.7,34.1,100.9c9.1,34,16.2,69.9,21.1,106.8l0.1,0.5c0,0,0,0,0,0
		c0,0,0,0,0,0l0-0.1l0,0c0,0,0-0.2,0-0.2c0,0,0,0,0-0.1c0,0.5,0.1,1,0.1,1.5l0-0.5c4.4,36.3,6.6,73.4,6.5,110.3
		c-0.2,35.9-2.9,73-7.9,110.1c-5.2,36.2-12.8,72.3-22.5,107.4c-9.4,33.9-21.6,68.4-36.2,102.5c-14.2,32.8-30.6,64.9-48.8,95.6
		c-17.6,29.7-37.8,59.2-60.2,87.9c-21.6,27.4-45.1,53.6-69.8,78.1c-6.9,6.8-14,13.6-21.1,20.1c-17.6,16.1-36.4,31.9-56.1,47
		c-28.3,21.5-58.2,41.5-89,59.3c-31,17.9-63.7,34.2-97.4,48.3c-32.5,13.4-66.2,24.9-100.2,34.1c-34.6,9.4-71.2,16.7-108.6,21.6
		l-0.7,0.1c-22.3,2.8-44.9,4.7-67.4,5.8c-13.7,0.6-27.7,0.9-41.5,0.9c-36.7-0.1-74.6-2.7-112.6-8c-36.4-5.2-72.7-12.9-108.1-22.7
		c-34.2-9.6-69-21.9-103.4-36.7l0.8,0.4c-31.6-13.8-62.7-29.7-92.5-47.2c-29.8-17.6-59.6-37.8-88.5-60.3
		c-27.4-21.5-53.7-45-78.2-69.6c-24.3-24.4-47.8-51.4-69.9-80.1c-21.3-28.1-41.1-57.7-58.8-88.2c-18-31-34.4-64.3-48.9-99.2l0.5,1.3
		c-13.5-33.2-25.1-67.6-34.4-102.2c-9-33.7-16-69.4-20.9-106l-0.1-0.5c0,0-0.1-0.3-0.1-0.3l0,0l0,0c0,0-0.1-0.2-0.1-0.2c0,0,0,0,0,0
		c-4.4-36.2-6.6-73.3-6.4-110.2c0.2-36.2,2.9-73.6,8.1-111.2c5.4-37.2,13.3-74.3,23.5-110.2c9.1-32.2,20.8-65.1,34.7-97.8
		c14.1-32.5,30.4-64.5,48.5-95.1c17.5-29.6,37.7-59.2,60-87.9l-0.7,0.7l-0.6,0.8c21.7-27.5,45.2-54.1,70.1-78.8
		c24.3-24.2,51.3-47.8,80.1-70l0.5-0.4l-0.5,0.3c0,0,0.3-0.2,0.3-0.2c0,0,0,0,0,0c0,0,0,0,0,0c0,0,0.3-0.2,0.4-0.2
		c0,0,0.3-0.2,0.3-0.2c27.8-21.1,56.8-40.4,86.6-57.7c30.4-17.7,63.2-34,97.5-48.3c32.7-13.4,66.5-25,100.6-34.2
		c34.5-9.4,71.1-16.7,108.9-21.7l-0.5,0l0.6,0l0,0l0.4,0L887.9,185L887.9,185L887.9,185L887.9,185z M243.5,1575.4l-0.1-0.1l-0.1-0.3
		c0.5,0.7,1,1.3,1.5,2c-0.3-0.4-0.6-0.8-0.9-1.2c0,0,0,0,0,0l0,0c-0.1-0.1-0.1-0.1-0.2-0.2L243.5,1575.4L243.5,1575.4
		C243.5,1575.4,243.5,1575.3,243.5,1575.4L243.5,1575.4L243.5,1575.4L243.5,1575.4z M865.8,1941.1l-0.2,0l-0.3-0.1
		c1.3,0.2,2.7,0.4,4,0.6c-1-0.1-2-0.3-3-0.4c0,0,0,0,0,0l0,0c-0.1,0-0.2,0-0.3,0l0,0l0,0C865.8,1941.1,865.8,1941.1,865.8,1941.1
		L865.8,1941.1L865.8,1941.1L865.8,1941.1z"/>
	<path style="fill:#161616;" d="M1492.3,822.6c-15,1.8-29.8,5.1-44.2,9.9c-13.4,4.5-26.4,10.3-38.7,17.2c-1.1,0.6-2.2,1.3-3.3,1.9
		c-9.5,5.5-18.5,11.8-27,18.6c-10.4,8.4-20.1,17.6-28.9,27.6c-8.8,10-16.7,20.9-23.6,32.3c-6.8,11.2-12.6,23.1-17.3,35.4
		c-5.1,13.3-9,27-11.5,41c-2.5,14.4-3.6,29.1-3.4,43.7c0.2,15,2.2,29.8,5.3,44.5c3,13.9,7.4,27.5,13.1,40.6
		c5.6,12.9,12.3,25.3,20.2,36.9c7.8,11.5,16.8,22.3,26.5,32.2c9.8,10,20.6,18.8,32,26.8c22.5,15.8,48.1,27.1,74.7,33.6
		c14.1,3.5,28.6,5.4,43.1,6.1c13.7,0.7,27.4,0,41-1.9c12.4-1.7,24.6-4.4,36.5-8.1c11.7-3.7,23-8.4,33.9-13.8
		c21.1-10.5,40.4-24.7,57.2-41.3c36.8-36.4,60.4-85.7,65.4-137.2c1.5-15.4,1.5-30.8-0.1-46.1c-1.5-14.8-4.6-29.5-9-43.7
		c-4.4-14.2-10.4-28-17.6-41.1c-6.9-12.7-15.2-24.6-24.4-35.7c-9.7-11.5-20.3-22.1-32.1-31.5c-12-9.6-24.9-18-38.6-25
		c-13-6.7-26.8-12-40.8-16c-14.5-4.2-29.3-6.6-44.3-7.8c-9-0.7-18.1-0.9-27.2-0.5C1503.7,821.4,1498,821.9,1492.3,822.6
		L1492.3,822.6L1492.3,822.6z M1500.9,1254.9c-18.4-1.8-36.5-5.8-53.8-12.1c-16.7-6.2-32.7-14.6-47.5-24.8
		c-14.7-10.5-28.2-22.7-39.9-36.2c-11.7-14-21.7-29.3-29.5-45.6c-7.8-16.5-13.5-34.2-17-52.5c-3.2-18.6-4.1-37.4-2.6-56.1
		c1.8-18.5,5.9-36.6,12.1-53.9c6.3-16.9,14.8-33.1,25.2-48c10.3-14.4,22.4-27.7,35.9-39.4c10.9-9.1,22.7-17.2,35.1-24.1
		c3.7-2.1,7.2-3.8,10.2-5.3c16.7-7.8,34.5-13.6,52.8-17c9.3-1.6,18.7-2.6,28-3.1c9.2-0.4,18.5-0.3,27.7,0.5
		c18.3,1.7,36.3,5.7,53.6,12c16.9,6.3,33.1,14.7,48.2,25.1l0.5,0.4c14.6,10.5,27.9,22.6,39.5,36.1c11.4,13.6,21.1,28.6,28.8,44.4
		c8,16.8,13.8,34.8,17.3,53.4c3.2,18.4,4,37.1,2.6,55.6c-1.8,18.4-5.8,36.5-12,53.7c-6.3,16.8-14.7,32.9-25,47.9
		c-10.6,15-23,28.5-36.8,40.4c-13.6,11.3-28.6,21-44.4,28.8c-16.8,8-34.7,13.8-53.2,17.3c-9.3,1.6-18.6,2.6-27.8,3
		C1519.7,1255.8,1510.3,1255.6,1500.9,1254.9L1500.9,1254.9L1500.9,1254.9z"/>
	<path style="fill:#161616;" d="M1384.6,1152.7l-0.4,0.6c-0.5,0.9-0.7,1.9-0.9,3c0,0.3,0,0.6,0,0.9c0.1,1.7,0.9,4.1,2.5,5.3l0.9,0.7
		l-0.9-0.7l3.1,2.3l1,0.8l0.8,0.6l-0.2-0.4c-2.1-4-3.7-8-4.9-11.9c-0.2-0.6-0.4-1.2-0.6-1.7L1384.6,1152.7L1384.6,1152.7
		L1384.6,1152.7z"/>
	<path style="fill:#161616;" d="M1452.4,1211.1l4.6,3.4l1.6,1.1c1.2,0.6,2.5,0.9,3.9,0.8c1.7-0.1,4.2-0.9,5.3-2.4l1.8-2.4l0.5-0.7
		c-6.5-0.4-12.5-1.2-18.1-2.3c-1.4-0.3-2.8-0.5-4.1-0.8L1452.4,1211.1L1452.4,1211.1L1452.4,1211.1z"/>
	<path style="fill:#161616;" d="M1688.3,1118c-0.5,1.9-1,3.5-1.6,5.3l3.4-4.2c1.4-1.7,2.1-3.5,2-5.5c0-0.2,0-0.3,0-0.5
		c0,0.1,0,0.1,0,0.2c-0.1-1.3-0.6-2.7-1.4-4c-0.1-0.1-0.1-0.2-0.2-0.3C1689.8,1111.9,1689.1,1114.9,1688.3,1118L1688.3,1118
		L1688.3,1118z"/>
	<path style="fill:#161616;" d="M1643,1170.7c-3,2.5-6.4,5-10.6,7.8c-3.7,2.5-7.7,4.7-11.8,6.6c-0.3,0.1-0.6,0.3-0.9,0.4l3.7,3
		c1.7,1.4,3.5,2.1,5.5,2c2.1-0.1,4.2-1.1,5.3-2.5l9.1-11.1l7.4-9.1C1648,1168.9,1645.4,1169.9,1643,1170.7L1643,1170.7L1643,1170.7z
		"/>
	<path style="fill:#404040;" d="M1482,840c-18.3,3.4-36,9.1-52.8,17c-3,1.5-6.5,3.2-10.2,5.3c-12.4,6.8-24.2,14.9-35.1,24.1
		c-13.5,11.7-25.6,24.9-35.9,39.4c-10.4,15-18.8,31.1-25.2,48c-6.3,17.3-10.3,35.4-12.1,53.9c-1.5,18.7-0.6,37.5,2.6,56.1
		c3.5,18.3,9.2,36,17,52.5c7.9,16.3,17.8,31.6,29.5,45.6c11.7,13.6,25.1,25.8,39.9,36.3c14.9,10.2,30.8,18.6,47.5,24.8
		c17.3,6.3,35.4,10.3,53.8,12.1c9.3,0.7,18.8,0.9,28.2,0.5c9.2-0.4,18.5-1.4,27.8-3c18.4-3.5,36.3-9.3,53.2-17.2
		c15.8-7.7,30.8-17.4,44.4-28.8c13.8-11.8,26.2-25.4,36.8-40.4c10.3-15,18.7-31.1,25-47.9c6.2-17.2,10.2-35.3,12-53.7
		c1.4-18.5,0.6-37.3-2.6-55.6c-3.5-18.6-9.3-36.5-17.3-53.4c-7.7-15.8-17.4-30.8-28.8-44.4c-11.6-13.5-24.9-25.7-39.5-36.1l-0.5-0.4
		c-15.1-10.4-31.3-18.8-48.2-25.1c-17.3-6.2-35.4-10.2-53.6-12c-9.2-0.7-18.5-0.9-27.7-0.5C1500.7,837.3,1491.3,838.4,1482,840
		L1482,840L1482,840z M1486.4,1046.7c-0.2-5.5-0.4-11-0.7-16.5c-0.6-11.8-1.4-23.7-2.4-36.9l-0.7-9.5c-0.8-12-1.9-24-2.9-36.2
		l-0.2-4l-0.2-3.9l0-0.9c-0.2-3.7-0.5-7.5-0.2-11.3c1-1.1,1.5-2.6,1.5-4.1l1.5-0.2l2.4-0.3l2.4-0.4c4.4-0.6,9.1-1.1,14.8-1.7
		c3.4-0.2,6.8-0.5,10.3-0.6c10-0.5,17.7-0.2,25.1,0.9c0,0,0.4,0.1,0.4,0.2c0.6,2.9,0.8,5.9,1.1,8.8l0,0l0.1,0.4
		c1,11.9,1.7,24,2.4,35.7l0.2,2.5l0.3,4.8c0.9,15.3,1.7,30.3,2.2,45.7l0.1,2.4c0.1,4.5,0.3,8.9,0.3,13.4l0,2
		c0,8.1,0.1,16.5-1.2,24.7c-0.3,1.7-0.7,3-1.2,4.3c-1.2,0.2-2.4,0.3-3.6,0.4l-1.4,0.2c-0.9,0.1-1.9,0.1-3,0.2
		c-5.1,0.3-10.1,0.6-15.2,0.9l-7.7,0.4c-7,0.4-14,1.2-20.8,2l-0.6,0.1l-1.5,0.1C1487,1062.5,1486.7,1054.4,1486.4,1046.7
		L1486.4,1046.7L1486.4,1046.7z M1688.3,1118c0.8-3,1.5-6.1,2.1-9c0.9,1.4,1.5,2.9,1.6,4.4c0-0.1,0-0.1,0-0.2c0,0.2,0,0.3,0,0.5
		c0.1,2-0.5,3.8-2,5.5l-3.4,4.2C1687.3,1121.5,1687.8,1119.9,1688.3,1118L1688.3,1118L1688.3,1118z M1517.8,1185.1
		c-1.4-0.3-2.8-0.7-4.1-1.1c-1.4-0.5-2.8-1-4.2-1.6c-2.9-1.5-5.8-3.4-8.6-5.5c-1.5-1.5-2.8-3-4-4.5c-1.5-2.5-2.5-5.1-3.4-7.6
		c-0.7-2-1.1-4.2-1.5-6.5c-0.1-1.9,0-3.8,0.3-5.8c1.1-4.9,3-9.4,4.8-13.2c1.8-3.6,3.9-7,6.4-10.1c1-1.1,2.2-2.1,3.5-3.1
		c1.8-1.1,3.6-2.1,5.5-2.8c1.1-0.4,2.3-0.7,3.5-1s2.4-0.8,3.4-1.7c0,0,0.4-0.1,0.4-0.1c1-0.2,1.9-0.4,2.8-0.6l0.5,0.1
		c5.4,1.3,9.7,2.7,13.6,4.5c1.9,1,3.6,2.2,5.3,3.5c2.2,2.1,4.3,4.5,6.2,7.1c1.8,2.8,3.4,5.7,4.7,8.9c0.9,2.7,1.5,5.2,1.9,7.9
		c0.1,1.9-0.1,3.7-0.3,5.6c-0.7,2.8-1.6,5.7-3,8.8c-1.4,2.6-3.1,5.2-5.3,7.8c-2.7,3-5.4,5.5-8.1,7.5c-1.7,1-3.6,1.9-6,2.9
		c-2.1,0.7-3.8,1.1-5.4,1.3C1523.8,1185.8,1521,1185.6,1517.8,1185.1L1517.8,1185.1L1517.8,1185.1z M1385.9,1162.5
		c-1.6-1.1-2.4-3.5-2.5-5.3c0-0.3,0-0.6,0-0.9c0.1-1.1,0.4-2.1,0.9-3l0.4-0.6l0.5-0.6c1.2,4.5,3.1,9,5.5,13.6l0.3,0.5l-1.9-1.5
		L1385.9,1162.5l0.9,0.7L1385.9,1162.5L1385.9,1162.5L1385.9,1162.5z M1623.5,1188.4l-3.7-3c4.4-1.9,8.6-4.3,12.7-7
		c4.2-2.8,7.5-5.3,10.6-7.8c2.5-0.8,5.1-1.8,7.8-3l-16.6,20.2c-1.1,1.4-3.2,2.4-5.3,2.5C1627,1190.5,1625.2,1189.9,1623.5,1188.4
		L1623.5,1188.4L1623.5,1188.4z M1458.6,1215.6l-1.6-1.1l-4.6-3.4l-4.6-3.4c6.6,1.7,14.2,2.7,22.4,3.3l-2.3,3.1
		c-1.1,1.6-3.5,2.4-5.3,2.4C1461.2,1216.5,1459.9,1216.2,1458.6,1215.6L1458.6,1215.6L1458.6,1215.6z"/>
	<path style="fill:#404040;" d="M1659,1146c-4.4,0.7-7.1,4.4-9.4,7.8c-0.3,0.5-0.7,1-1,1.4c-1.9,1.6-3.9,3.1-5.9,4.7
		c-3.7,2.9-7.4,5.8-11.2,8.5c-7.2,4.9-14.6,9.3-22.4,13.2c-1.7,0.8-3.4,1.7-5.2,2.5c-1.1-0.1-2.3-0.2-3.5-0.3
		c-1.8-0.2-3.6-0.3-5.4-0.4c-2.8-0.1-5.6-0.1-8.4-0.1c-4.1,0-7.8,2.9-8,7.2c-0.1,1.3,0.2,2.4,0.7,3.5c-12.6,4.3-25.4,7.8-38.5,10.1
		c-0.7-3.6-2.9-6.8-5.3-9.4c-3-3.2-6.9-5.2-10.8-7c-1.9-0.9-3.8-1.6-5.7-2.2c-0.4-0.1-0.8-0.1-1.2-0.2c-1.4-0.3-2.8-0.7-4.1-1.1
		c-0.3-0.1-0.7-0.2-1-0.3c-0.1,0-0.1,0-0.2,0c-4.4-0.9-8.9-1.6-13.3-1.9c-3.9-0.3-7.8-0.3-11.7-0.2c-5.4-1.1-10.8-2.1-16.1-3.2
		c-1.9-0.4-3.9-0.8-5.8-1.2c-2.9-0.6-5.7-1.3-8.6-1.5c-0.9-0.1-1.8-0.1-2.7,0c-0.8,0.1-1.8,0.3-2.4,0.7c-0.7,0.4-1.4,0.9-2,1.4
		c-0.6,0.5-1.2,1.3-1.7,2c-1.1,1.3-1.7,3.1-2.2,4.7c-0.7,2.1-0.8,4.5-0.9,6.7c0,1,0,2,0.1,3c-0.6,0.7-1,1.9-1.1,2.8
		c-0.2,1.3-0.4,2.1-0.3,3.4c0.1,1.2,0.2,2.3,0.5,3.5c0.3,1.1,0.7,2.1,1.2,3.2c0.4,1,1.2,1.8,1.8,2.7c0.4,0.6,1,1.1,1.6,1.6
		c1.7,1.6,3.5,2.8,5.5,3.9c3.4,1.8,7.1,3.4,10.8,4.6c0.5,0.2,1.1,0.3,1.6,0.5c3.1,1.4,6.2,2.6,9.4,3.7c4.1,1.3,8,2.7,12.2,3.5
		c2.1,0.4,4,0.3,6.2,0.1c2.6-0.2,4.8-1.8,6.4-3.8c0.1-0.1,0.2-0.2,0.2-0.3c1.7-0.1,3.5-0.2,5.2-0.3c2.4-0.2,4.7-0.4,7.1-0.6
		c4.6-0.1,9.3-0.3,13.9-0.7c9.1-0.8,18.1-2.5,27.1-4.4c8.8-1.9,17.4-4.3,25.9-7.2c8.8-2.9,17.6-6.1,26.1-9.8
		c0.6,0.1,1.2,0.1,1.9,0.2c1.3,0.1,2.5,0.3,3.8,0.4c1.9,0.2,4,0.3,5.9-0.1c1.8-0.3,3.5-1,5.3-1.7c5.7-2.1,10.8-5.8,15.5-9.6
		c5.3-4.2,9.9-9.1,14.2-14.2c2.2-2.6,4.2-5.2,6.2-7.9c0.3-0.4,0.7-0.9,1-1.3c2.7-2.5,4.9-5.3,7.2-8.1c0.8-1.2,1.2-2.5,1.3-4
		c0.1-1.4-0.2-2.8-0.9-4.1c-0.6-1.2-1.5-2.2-2.7-3c-1.5-1-3.1-1.3-4.8-1.2C1659.8,1145.9,1659.4,1145.9,1659,1146L1659,1146
		L1659,1146z M1456,1182.3c-0.1,0.1-0.3,0.2-0.4,0.3C1455.7,1182.5,1455.9,1182.4,1456,1182.3L1456,1182.3L1456,1182.3z
		 M1453.4,1187.1c0.2-1,0.5-1.9,0.9-2.8c0.3-0.5,0.6-0.9,0.9-1.3c0,0,0.1-0.1,0.2-0.1c0.1,0,0.2-0.1,0.3-0.1c1.7-0.1,3.3,0.1,5,0.4
		c0.1,0,0.2,0,0.3,0.1c0.2,0,0.3,0,0.5,0.1c-0.2,0-0.3-0.1-0.5-0.1c1.3,0.2,2.5,0.5,3.8,0.7c-0.3,0.1-0.6,0.1-0.9,0.2
		c-1.1,0.2-2.1,0.7-3.2,1.1c-1.3,0.5-2.6,1.9-3.4,3c-0.2,0.2-0.4,0.5-0.5,0.7c-0.9,0-1.9,0.1-2.7,0.2c-0.2,0-0.5,0.1-0.7,0.1
		C1453.2,1188.5,1453.3,1187.8,1453.4,1187.1L1453.4,1187.1L1453.4,1187.1z M1471.6,1185.1c0.1,0,0.3,0,0.4,0.1c0,0,0.1,0,0.1,0
		C1472,1185.2,1471.8,1185.1,1471.6,1185.1L1471.6,1185.1L1471.6,1185.1z M1496.8,1205.8c-1.2-1.1-2.4-2.1-3.6-3.1
		c-2.8-2.4-6.4-4-9.7-5.5c3.6-0.2,7.1-0.2,10.7-0.2c4.6,0.1,9.1,0.6,13.6,1.3c1.9,0.4,3.9,0.8,5.8,1.4c2.2,0.6,4.3,1.5,6.3,2.4
		c1.3,0.7,2.6,1.5,3.9,2.4c0.3,0.3,0.6,0.6,0.8,0.9c-1.5,0.4-2.9,0.8-4.4,1.1c-0.3,0-0.6,0-1,0
		C1511.7,1206.9,1504.2,1206.7,1496.8,1205.8L1496.8,1205.8L1496.8,1205.8z M1518.9,1201.6c0.1,0.1,0.3,0.1,0.4,0.2
		C1519.2,1201.8,1519,1201.7,1518.9,1201.6L1518.9,1201.6L1518.9,1201.6z"/>
	<path style="fill:#161616;" d="M1509.9,904.5c-8,0.5-16,1.1-24,2.1c-3.7,0.5-7.3,1-11,1.6c-1.5,0.2-3,0.5-4.4,0.7
		c-1.5,0.3-2.8,0.6-4.2,1.2c-3,1.3-5.4,4.6-5.2,8c-0.1,1,0,1.9,0.4,2.8c0.4,1.2,0.9,2.5,1.5,3.7c0.8,1.8,2.4,3.1,4.2,3.7
		c-0.1,2.2-0.1,4.4,0,6.7c0,2.2,0.1,4.4,0.2,6.6c0.1,3.5,0.2,6.9,0.4,10.3c0.5,8.3,1,16.7,1.5,25c0.9,14.5,1.6,29,2.2,43.5
		c0.5,11.9,0.8,23.7,1,35.6c0.1,6,0.2,11.9,0.3,17.9c0,1.6-0.1,3.3,0.2,4.9c0.1,0.9,0.4,1.7,0.8,2.5c0.5,1,2,2.8,3.1,3.3
		c0.8,0.4,1.6,0.8,2.4,1.2c1.3,0.4,2.8,0.5,4.1,0.5c2.2-0.1,4.3-0.3,6.4-0.6c3.2-0.4,6.5-0.7,9.7-1.1c6.7-0.5,13.3-0.9,20-1.2
		c8.4-0.4,16.7-0.9,25-1.7c2.9-0.3,5.5-1.7,7.7-3.6c2-1.8,3.3-4.4,4.3-6.9c0.9-2.3,1.4-4.9,1.8-7.4c0.5-2.8,0.8-5.6,1-8.5
		c0.5-5.8,0.4-11.6,0.4-17.4c0-7.7-0.3-15.4-0.5-23c-0.5-14.3-1.4-28.6-2.2-43c-0.8-14.4-1.7-28.8-2.9-43.2c0,0,0,0,0,0
		c0-0.3,0-0.5-0.1-0.8c0,0,0-0.1,0-0.1c0,0,0,0.1,0,0.1c0-0.1,0-0.2,0-0.2c0,0,0,0,0,0c0,0,0,0,0,0c0-0.1,0-0.1,0-0.2
		c0,0,0-0.1,0-0.1c0,0,0,0,0,0c0,0,0,0,0,0c0-0.1,0-0.2,0-0.3c0,0,0,0,0,0c0,0,0,0,0,0c0,0,0-0.1,0-0.1c0,0,0,0,0,0.1
		c0-0.3,0-0.5-0.1-0.8c0,0.2,0,0.3,0,0.5c0,0.1,0,0.2,0,0.3c0,0.1,0,0.3,0,0.5c-0.2-2.2-0.4-4.4-0.6-6.6c-0.4-3.6-1.3-7.6-3.8-10.3
		c-1.9-2.1-4-3.3-6.6-4.3c-0.8-0.3-1.8-0.4-2.7-0.6c-1.1-0.2-2.3-0.5-3.4-0.6c-1.9-0.2-3.8-0.4-5.8-0.6c-3.8-0.3-7.6-0.3-11.4-0.3
		c-2.6,0-5.3,0-7.9,0.2C1511.2,904.4,1510.5,904.5,1509.9,904.5L1509.9,904.5L1509.9,904.5z M1486.4,1046.7
		c-0.2-5.5-0.4-11-0.7-16.5c-0.6-11.8-1.4-23.7-2.4-36.9l-0.7-9.5c-0.8-12-1.9-24-2.9-36.2l-0.2-4l-0.2-3.9l0-0.9
		c-0.2-3.7-0.5-7.5-0.2-11.3c1-1.1,1.5-2.6,1.5-4.1l1.5-0.2l2.4-0.3l2.4-0.4c4.4-0.6,9.1-1.1,14.8-1.7c3.4-0.2,6.8-0.5,10.3-0.6
		c10-0.5,17.7-0.2,25.1,0.9c0,0,0.4,0.1,0.4,0.2c0.6,2.9,0.8,5.9,1.1,8.8l0,0l0.1,0.4c1,11.9,1.7,24,2.4,35.7l0.2,2.5l0.3,4.8
		c0.9,15.3,1.7,30.3,2.2,45.7l0.1,2.4c0.1,4.5,0.3,8.9,0.3,13.4l0,2c0,8.1,0.1,16.5-1.2,24.7c-0.3,1.7-0.7,3-1.2,4.3
		c-1.2,0.2-2.4,0.3-3.6,0.4l-1.4,0.2c-0.9,0.1-1.9,0.1-3,0.2c-5.1,0.3-10.1,0.6-15.2,0.9l-7.7,0.4c-7,0.4-14,1.2-20.8,2l-0.6,0.1
		l-1.4,0.1c0,0,0,0,0,0v0l-0.1,0C1487,1062.5,1486.7,1054.4,1486.4,1046.7L1486.4,1046.7L1486.4,1046.7z"/>
	<path style="fill:#161616;" d="M1214.4,916.7c-0.6,0.6-1,1.4-1.1,2.3c0,0.9,0.3,1.7,0.8,2.4c0.5,0.6,1.5,1.1,2.3,1.1
		c0.9,0,1.7-0.2,2.4-0.8c0.6-0.6,1-1.4,1.1-2.3c0-0.9-0.3-1.7-0.8-2.4c-0.5-0.6-1.5-1.1-2.3-1.1
		C1215.9,915.9,1215.1,916,1214.4,916.7L1214.4,916.7L1214.4,916.7z"/>
	<path style="fill:#161616;" d="M1219.5,909.3c-0.6,0.6-1,1.4-1.1,2.3c0,0.9,0.3,1.7,0.8,2.4c0.5,0.6,1.5,1.1,2.3,1.1
		c0.9,0,1.7-0.2,2.4-0.8c0.6-0.6,1-1.4,1.1-2.3c0-0.9-0.3-1.7-0.8-2.4c-0.5-0.6-1.5-1.1-2.3-1.1
		C1220.9,908.5,1220.2,908.6,1219.5,909.3L1219.5,909.3L1219.5,909.3z"/>
	<path style="fill:#161616;" d="M1520.3,1104.5c-1.3,0.1-2.6,0.7-3.8,1.1c-0.8,0.3-1.5,0.6-2.2,0.9c-0.6,0-1.2,0.1-1.8,0.2
		c-5.5,1.3-10.6,3.5-15.2,6.8c-5.1,3.6-8.7,8.7-11.9,14c-1.5,2.6-2.8,5.3-4,8c-1,2.3-2,4.6-2.8,6.9c-2.1,5.9-3,12.3-2.2,18.6
		c0.3,2.5,0.8,4.9,1.6,7.3c0.5,1.5,1.1,3,1.6,4.5c1.2,3.2,2.6,6.1,4.5,8.9c4.1,5.8,9.9,10.6,16.2,13.8c3.9,2,7.8,3.7,12.1,4.7
		c4.3,1,8.6,1.6,13,1.5c6.2-0.1,12.2-2,17.8-4.8c4-2,7.4-4.9,10.6-8c4.2-4,8.1-8.7,10.9-13.9c4.3-7.9,6.7-17,5.7-26
		c-1.2-9.7-5.5-18.5-11.4-26.2c-2.5-3.2-5.3-6-8.5-8.6c-3.6-3-8.2-5-12.5-6.7c-2.9-1.1-5.9-1.9-8.9-2.6c-1.7-0.4-3.5-0.7-5.3-0.9
		C1522.6,1104.3,1521.4,1104.4,1520.3,1104.5L1520.3,1104.5L1520.3,1104.5z M1517.8,1185.1c-1.4-0.3-2.8-0.7-4.1-1.1
		c-1.4-0.5-2.8-1-4.2-1.6c-2.9-1.5-5.8-3.4-8.6-5.5c-1.5-1.5-2.8-3-4-4.5c-1.5-2.5-2.5-5.1-3.4-7.6c-0.7-2-1.1-4.2-1.5-6.5
		c-0.1-1.9,0-3.8,0.3-5.8c1.1-4.9,3-9.4,4.8-13.2c1.8-3.6,3.9-7,6.4-10.1c1-1.1,2.2-2.1,3.5-3.1c1.8-1.1,3.6-2.1,5.5-2.8
		c1.1-0.4,2.3-0.7,3.5-1s2.4-0.8,3.4-1.7c0,0,0.4-0.1,0.4-0.1c1-0.2,1.9-0.4,2.8-0.6l0.5,0.1c5.4,1.3,9.7,2.7,13.6,4.5
		c1.9,1,3.6,2.2,5.3,3.5c2.2,2.1,4.3,4.5,6.2,7.1c1.8,2.8,3.4,5.7,4.7,8.9c0.9,2.7,1.5,5.2,1.9,7.9c0.1,1.9-0.1,3.7-0.3,5.6
		c-0.7,2.8-1.6,5.7-3,8.8c-1.4,2.6-3.1,5.2-5.3,7.8c-2.7,3-5.4,5.5-8.1,7.5c-1.7,1-3.6,1.9-6,2.9c-2.1,0.7-3.8,1.1-5.4,1.3
		C1523.8,1185.8,1521,1185.6,1517.8,1185.1L1517.8,1185.1L1517.8,1185.1z M1523.7,1120c0.2,0,0.3,0,0.5,0.1
		C1524,1120.1,1523.9,1120,1523.7,1120L1523.7,1120L1523.7,1120z M1496,1170.9c0.1,0.2,0.3,0.3,0.4,0.5
		C1496.2,1171.2,1496.1,1171.1,1496,1170.9L1496,1170.9L1496,1170.9z"/>
	<path style="fill:#F8F8F5;" d="M1522.5,1119.8C1522.5,1119.8,1522.5,1119.8,1522.5,1119.8c-0.9,0.1-1.8,0.3-2.8,0.6
		c0,0-0.4,0.1-0.4,0.1c-1,0.9-2.2,1.4-3.4,1.7c-1.2,0.3-2.3,0.6-3.5,1c-1.9,0.8-3.7,1.7-5.5,2.8c-1.3,1-2.5,2-3.5,3.1
		c-2.5,3.1-4.6,6.5-6.4,10.1c-1.8,3.8-3.7,8.4-4.8,13.2c-0.3,2-0.4,3.9-0.3,5.8c0.3,2.3,0.8,4.5,1.5,6.5c0.9,2.5,2,5.1,3.4,7.6
		c1.2,1.6,2.5,3,4,4.5c2.8,2.1,5.7,4,8.6,5.5c1.4,0.6,2.8,1.2,4.2,1.6c1.4,0.4,2.7,0.8,4.1,1.1c3.2,0.5,6,0.7,8.8,0.6
		c1.6-0.3,3.3-0.7,5.4-1.3c2.4-0.9,4.3-1.8,6-2.9c2.7-2,5.4-4.5,8.1-7.5c2.2-2.7,3.9-5.3,5.3-7.8c1.3-3.1,2.3-5.9,3-8.8
		c0.3-1.9,0.4-3.7,0.3-5.6c-0.4-2.6-1-5.2-1.9-7.9c-1.3-3.2-2.8-6.1-4.7-8.9c-1.9-2.6-4-5-6.2-7.1c-1.7-1.3-3.4-2.4-5.3-3.5
		c-3.9-1.7-8.2-3.2-13.6-4.5L1522.5,1119.8C1522.5,1119.8,1522.5,1119.8,1522.5,1119.8L1522.5,1119.8L1522.5,1119.8z"/>
	<path style="fill:#F8F8F5;" d="M1511.8,920.3c-3.4,0.2-6.9,0.4-10.3,0.6c-5.7,0.5-10.4,1.1-14.8,1.7l-2.4,0.4l-2.4,0.4l-1.5,0.2
		c0,1.5-0.5,2.9-1.5,4.1c-0.3,3.8,0,7.6,0.2,11.3l0,0.9l0.2,3.9l0.2,4c1,12.2,2,24.2,2.9,36.2l0.7,9.5c1,13.2,1.8,25,2.4,36.9
		c0.3,5.5,0.5,11,0.7,16.5c0.3,7.7,0.6,15.8,1.1,23.8l1.5-0.1l0.6-0.1c6.8-0.8,13.9-1.6,20.8-2l7.7-0.4c5.1-0.3,10.2-0.5,15.2-0.9
		c1.1-0.1,2.1-0.2,3-0.2l1.4-0.2c1.2-0.1,2.4-0.2,3.6-0.4c0.5-1.2,0.9-2.6,1.2-4.3c1.3-8.2,1.3-16.6,1.2-24.7l0-2
		c0-4.5-0.2-8.9-0.3-13.4l-0.1-2.4c-0.5-15.4-1.3-30.4-2.2-45.7l-0.3-4.8l-0.2-2.5c-0.7-11.7-1.4-23.9-2.4-35.7l-0.1-0.4l0,0
		c-0.2-2.9-0.4-5.9-1.1-8.8c0,0-0.4-0.2-0.4-0.2C1529.5,920.1,1521.8,919.8,1511.8,920.3L1511.8,920.3L1511.8,920.3z"/>
	<path style="fill:#161616;" d="M851.6,535.5c-34.7,2.1-69.5,4.2-104.2,6c-33.7,1.8-67.4,3.6-101.1,5.8c-16.1,1-32.2,2.3-48.4,3.3
		c-8.1,0.5-16.1,0.9-24.2,1.5c-8.3,0.6-16.5,1.2-24.7,2.5c-4.1,0.6-7.9,2.5-10.3,5.8c-2.8,3.8-3.1,9-0.5,13c0.2,0.3,0.4,0.6,0.6,0.8
		c-0.1,0.5-0.2,1-0.2,1.6c-0.5,9.4-1,18.8-1.4,28.1c-0.1,1.3-0.1,2.6-0.1,3.9c0,2.5,0,5.5,0.9,7.9c0.2,0.6,0.5,1.2,0.7,1.8
		c0.6,0.8,1.1,1.6,1.8,2.4c0.8,1,2.1,1.8,3.2,2.5c0.9,0.6,1.9,1.1,2.9,1.5c1.8,0.9,3.6,1.6,5.5,2.2c5.5,1.8,11.5,2.4,17.2,3
		c2.2,0.2,4.4,0.4,6.6,0.5c8.9,0.5,17.8,1,26.7,1.4c8.6,0.3,17.1,0.5,25.7,0.6c34.2,0.4,68.3-0.2,102.5-1.1
		c16.6-0.4,33.3-0.9,49.9-1.4c9.4-0.3,18.9-0.4,28.3-0.6c8.1-0.2,16.2-0.3,24.3-0.4c33.3-0.5,66.6-1.4,99.8-3
		c16.3-0.8,32.7-1.7,49-2.5c16.8-0.8,33.6-2,50.4-3.3c16.9-1.3,33.8-2.4,50.7-3.4c8.2-0.5,16.4-1.1,24.5-1.7
		c1.9-0.2,3.8-0.3,5.8-0.5c3.2-0.3,6.6-0.6,9.7-1.3c1.4-0.3,2.7-1,4-1.5c1.3-0.5,2.3-1.5,3.5-2.4c2.3-1.7,3.6-4.5,4.5-7.1
		c0.9-2.5,1.1-5.3,1.3-7.9c0.1-1.4,0.1-2.9,0.2-4.4c0.2-8.6,0.3-17.2,0.8-25.8c0.1-1.8,0.3-3.5,0.4-5.3c0.4-3.9,0.9-7.9,0-11.8
		c-0.4-1.5-1.2-3-2.1-4.2c-0.9-1.3-1.8-2.3-3-3.4c-1.2-1-2.2-1.8-3.6-2.5c-1.3-0.7-2.7-1.3-4-1.9c-2.3-1-4.9-1.6-7.4-2.1
		c-3.5-0.8-7-1.3-10.6-1.8c-5.7-0.8-11.3-1.1-17-1.5c-3.4-0.2-6.9-0.5-10.3-0.6c-4.8-0.2-9.5-0.3-14.3-0.4c-4.7-0.2-9.5,0-14.2,0
		c-16.7,0-33.4,0.6-50.1,1.2c-2.3,0.1-4.6,0.2-6.9,0.2c-6.5,5.8-13.3,11.4-20.2,16.7c29.5-1.1,59.1-2.2,88.7-2.2
		c6.7,0,13.5,0.3,20.2,0.5c3.7,0.1,7.5,0.5,11.2,0.8c5.2,0.4,10.4,0.8,15.6,1.6c3.6,0.7,7.2,1.4,10.6,2.8c0.7,0.3,1.3,0.7,1.9,1.1
		c0,0,0,0,0.1,0.1c0,3.8-0.6,7.6-0.9,11.4c-0.3,3.4-0.4,6.8-0.5,10.2c-0.1,3.4-0.2,6.9-0.2,10.3c-0.1,4-0.1,8-0.5,12
		c-0.1,0.6-0.3,1.3-0.5,1.9c-2,0.6-4.2,0.8-6.3,1c-16,1.5-32.1,2.3-48.1,3.3c-16.7,1.1-33.4,2.4-50.2,3.6c-16.7,1.3-33.4,2-50.2,2.8
		c-17.2,0.8-34.4,1.8-51.7,2.6c-33.6,1.5-67.2,1.9-100.8,2.4c-34,0.6-68,1.8-102,2.7c-16.1,0.4-32.1,0.6-48.2,0.7
		c-16.7,0.1-33.4,0.3-50.1-0.3c-6.8-0.2-13.6-0.3-20.3-0.7c-9.7-0.5-19.6-0.8-29.2-2.1c-3.1-0.5-6.1-1.2-9-2.4
		c-0.4-0.2-0.9-0.4-1.3-0.7c-0.3-5.6,0.2-11.1,0.4-16.7c0.2-5.6,0.5-11.3,0.8-17c0.1-1.6-0.4-3.1-1.3-4.4c0.1-0.5,0.2-1.1,0.3-1.6
		c2.4-0.5,4.8-0.7,7.2-1c15.3-1.5,30.7-2.1,46.1-3.1c16-1,32-2.3,48.1-3.3c35.1-2.2,70.2-4.1,105.3-5.9c33.7-1.8,67.4-3.9,101.1-5.9
		c7.7-0.5,15.5-0.9,23.2-1.3c-1.2-2.7-2.3-5.4-3.4-8.1c-1.1-2.5-2.1-5-3.2-7.5C868.3,534.5,860,535,851.6,535.5L851.6,535.5
		L851.6,535.5z M552.3,567.7c0,0.1,0,0.2-0.1,0.2C552.2,567.8,552.3,567.7,552.3,567.7L552.3,567.7L552.3,567.7z M1120.8,549.9
		c0.3,0.2,0.5,0.4,0.7,0.6C1121.3,550.3,1121.1,550.1,1120.8,549.9L1120.8,549.9L1120.8,549.9z M1121.4,550c0.2,0.3,0.5,0.6,0.7,0.9
		C1121.9,550.6,1121.6,550.3,1121.4,550L1121.4,550L1121.4,550z M552,610.1L552,610.1C552,610.1,552,610.1,552,610.1
		C552,610.1,552,610.1,552,610.1L552,610.1L552,610.1z M562.8,613c0.5,0.1,1,0.2,1.5,0.2C563.7,613.2,563.2,613.1,562.8,613
		L562.8,613L562.8,613z M1120,596.1c-0.1,0.1-0.1,0.2-0.2,0.3C1119.9,596.3,1120,596.2,1120,596.1L1120,596.1L1120,596.1z
		 M1119.1,597.1c-0.3,0.1-0.6,0.3-0.9,0.4C1118.5,597.3,1118.8,597.2,1119.1,597.1L1119.1,597.1L1119.1,597.1z M1119.2,597.2
		c-0.2,0.2-0.5,0.3-0.7,0.5C1118.7,597.5,1119,597.4,1119.2,597.2L1119.2,597.2L1119.2,597.2z M1119.3,597.4
		c-0.1,0.2-0.3,0.3-0.4,0.5C1119,597.8,1119.1,597.6,1119.3,597.4L1119.3,597.4L1119.3,597.4z"/>
	<path style="fill:#161616;" d="M477,390.5c-4,0.2-7.7,3.2-7.9,7.3c0,0.1,0,0.3,0,0.4c1.1,96.6,2.3,193.2,3.5,289.8
		c1,87.5,2.1,175,3.1,262.5c2.2,181.8,4.3,363.7,6.5,545.5c0.1,9.3,0.2,18.6,0.3,27.9c1,81.6,1.9,163.2,2.9,244.8c0,0.1,0,0.1,0,0.2
		c0.1,4.2,3.3,8.1,7.8,8c69.1-0.8,138.2-1.6,207.3-2.5c33.2-0.4,66.3-0.8,99.5-1.2c17.3-0.2,34.5-0.4,51.7-0.6
		c2.3,0,4.6-0.1,6.9-0.1c52-0.6,104-1.2,156.1-1.8c59.3-0.7,118.5-1.4,177.8-2.1c4.2,0,8.3-3.3,8.2-7.8
		c-2.2-180.7-4.3-361.4-6.4-542.2c-2.2-182.2-4.3-364.5-6.5-546.7c-1.1-93.8-2.2-187.7-3.3-281.5c0-0.1,0-0.1,0-0.2
		c-0.1-4.2-3.3-8.1-7.8-8c-39.2,0.5-78.5,0.9-117.7,1.4c-3.4,2.3-6.7,4.6-10,7c-4.2,3-8.4,6.1-12.5,9.2c44-0.5,88-1,132.1-1.6
		c2.1,178.6,4.2,357.1,6.3,535.7c0.7,59.9,1.4,119.8,2.1,179.7c0.5,42.4,1,84.9,1.5,127.3c0.9,79.3,1.9,158.5,2.8,237.8
		c0.9,78.8,1.9,157.6,2.8,236.4c0.1,12.5,0.3,25.1,0.4,37.6c-162.7,1.9-325.3,3.9-488,5.8c-51.1,0.6-102.3,1.2-153.5,1.8
		c-13.9,0.2-27.9,0.3-41.8,0.5c-1.7-139.3-3.3-278.7-5-418c-0.3-25.2-0.6-50.3-0.9-75.5c-0.4-35-0.8-70-1.3-105.1
		c-1.7-145.1-3.4-290.3-5.2-435.4c-1.3-106.8-2.5-213.7-3.8-320.5c43-0.5,86-1,129-1.5c107.2-1.3,214.3-2.5,321.4-3.8
		c0.6-0.6,1.1-1.3,1.7-1.9c1.8-2,3.8-3.8,5.8-5.5c2.8-2.5,5.6-4.8,8.5-7.1c0.7-0.6,1.5-1.2,2.3-1.7c-91.1,1.1-182.1,2.2-273.2,3.3
		c-16.2,0.2-32.4,0.4-48.6,0.6c-9.9,0.1-19.8,0.2-29.7,0.4c-41.7,0.5-83.4,1-125.1,1.5C477.2,390.5,477.1,390.5,477,390.5L477,390.5
		L477,390.5z"/>
	<path style="fill:#161616;" d="M1086.8,604.1c-1.4,1.3-2.6,3.5-2.5,5.5c0.2,2.6,0.5,5.3,0.8,7.9c0.7,6.7,1.3,13.4,1.6,20.2
		c0.4,8.2,0.8,16.5,1.1,24.7c0.4,7.5,0.8,15,1.2,22.5c0.2,4.5,0.4,8.9,0.5,13.3c0.1,2.5,0.2,4.9,0.2,7.3c0,5.7-0.4,11.2-1.2,16.8
		c-0.9,5.2-2,10.4-3.9,15.3c-0.7,1.3-1.4,2.5-2.2,3.6c-0.4,0.5-0.9,0.9-1.4,1.3c0,0,0,0-0.1,0c-0.7,0.2-1.5,0.3-2.2,0.4
		c-4.1,0.3-8.2,0.1-12.4,0.1c-4.1,0-8.3,0-12.4,0.1c-8.3,0.1-16.7,0.6-25,1.2c-17,1.2-33.8,3.1-50.8,4.4
		c-34.7,2.7-69.4,3.9-104.1,5.6c-17.4,0.8-34.8,1.8-52.3,2.7c-16.8,0.9-33.7,1.1-50.5,1.7c-18.2,0.6-36.4,1.3-54.6,2.2
		c-8.9,0.4-17.8,0.7-26.7,1.1c-8.5,0.3-17,0.3-25.6,0.4c-4.8,0.1-9.5-0.2-14.3-0.3c-4.4-0.1-8.7-0.2-13-0.4
		c-5.1-0.2-10.3-0.4-15.4-0.8c-7-0.5-14.1-0.9-21-1.9c-1.6-0.3-3.1-0.6-4.7-1c-1.6-16.2-2.4-32.4-4-48.6c-0.9-9-1.8-18-2.5-27.1
		c-0.6-7.8-0.7-15.6-0.6-23.3c0.1-8.2,0.2-16.4,0.3-24.6c0.1-4.4-3.3-8.1-7.8-8.2c-4.3-0.1-8.2,3.4-8.2,7.8
		c-0.2,10.7-0.3,21.4-0.3,32.1c0,8.2,0.5,16.4,1.3,24.6c0.9,9.2,1.8,18.3,2.6,27.5c0.7,8.1,1.3,16.2,1.9,24.2
		c0.3,4.4,0.7,8.8,1.1,13.1c0.1,1,0.2,1.9,0.3,2.9c0.2,2.1,0.3,4.3,1,6.4c1,3.1,3.1,5.4,6,7c3.1,1.7,6.6,2.3,10,2.9
		c10.8,1.8,21.8,2.4,32.8,2.9c9.7,0.5,19.3,0.8,29,1c8.8,0.2,17.5,0,26.3-0.1c5.8-0.1,11.7-0.3,17.5-0.6c2.7-0.1,5.4-0.2,8.1-0.4
		c4.1-0.2,8.2-0.3,12.4-0.5c3.7-0.2,7.3-0.4,11-0.5c17.4-0.7,34.8-1.3,52.2-1.8c17.5-0.5,35.1-1.2,52.6-2.1
		c16.7-0.9,33.3-1.7,50-2.5c34.8-1.6,69.7-3.1,104.4-6.3c17.4-1.6,34.8-3.3,52.3-4.1c7.9-0.3,15.9-0.3,23.8-0.2
		c6.7,0,14.3,0.6,20.2-3.1c4.7-3,8.1-8.1,10.2-13.2c2.4-6.1,3.6-12.7,4.7-19.2c1-5.8,1.3-11.7,1.4-17.6c0-2.7-0.1-5.4-0.2-8.1
		c-0.1-4.5-0.3-9-0.5-13.4c-0.4-8.3-0.9-16.7-1.3-25c-0.4-8.2-0.7-16.3-1.2-24.5c-0.2-3.9-0.6-7.9-0.9-11.9
		c-0.4-4.5-0.8-9.1-1.5-13.5c-0.1-0.5-0.2-1-0.2-1.6c-0.5-3.4-4.1-5.9-7.4-6c-0.2,0-0.4,0-0.6,0
		C1090,602.1,1088.2,602.8,1086.8,604.1L1086.8,604.1L1086.8,604.1z M1085.2,736.3c-0.1,0.2-0.2,0.3-0.2,0.5
		C1085,736.6,1085.1,736.4,1085.2,736.3L1085.2,736.3L1085.2,736.3z M1083.2,740.2c-0.1,0.1-0.1,0.2-0.2,0.2
		C1083.1,740.3,1083.2,740.3,1083.2,740.2L1083.2,740.2L1083.2,740.2z"/>
	<path style="fill:#161616;" d="M554.4,1176.7c-0.2,1.1-0.4,2.2-0.4,3.3c0.1,1,0.3,1.9,0.5,2.9c0.2,0.8,0.3,1.6,0.5,2.4
		c0.3,1.4,0.6,2.7,1,4.1c0.6,2.5,1.2,5.1,1.9,7.6c1.4,5.5,2.8,10.9,4.2,16.4c1.6,6,3.2,12.1,4.9,18.1c1.6,5.7,3.2,11.4,4.4,17.1
		c0.1,0.5,0.2,1.1,0.2,1.6c-2.1-1.3-4.1-2.6-6.1-4c-5.6-4-11-8.1-16.3-12.4c-2.6-2.1-5.3-4.3-7.9-6.4c-1.6-1.3-3.3-2.6-4.9-4
		c-2.8-2.2-5.6-4.4-8.8-5.9c-2.4-1-5-1.1-7.2,0.3c-2.2,1.4-3.3,3.8-3.3,6.3c0,2.2,0.8,4,2,5.8c0.4,0.6,0.7,1.3,1.1,2
		c0.6,1.1,1.3,2.2,1.9,3.4c1.5,2.6,2.9,5.2,4.3,7.8c2.9,5.4,5.6,10.9,8.3,16.4c-0.2-0.5-0.5-1-0.7-1.5c6.6,13.8,13,27.7,19.5,41.6
		c7.4,15.7,15.4,31.2,23.3,46.6c1.5,2.8,5.6,3.3,8.1,1.7c1.3-0.8,2.2-2.1,2.5-3.6c0.4-1.7,0-3-0.8-4.5c-4.3-8.4-8.6-16.8-12.9-25.2
		c-2.6-5.2-5.1-10.4-7.6-15.6c-6-13-11.9-26.1-17.6-39.2c-1.7-3.8-3.4-7.6-5.1-11.4c5.4,4.4,10.9,8.7,16.7,12.6
		c2.8,1.9,5.7,3.8,8.7,5.4c0.7,0.4,1.3,0.7,2,1c1.3,0.6,2.7,1.1,4.1,1.5c1.8,0.5,3.5-0.1,5.2-0.4c1.6-0.3,2.8-1.7,3.9-2.7
		c0.8-0.8,1.5-2.1,1.9-3.1c1.1-2.8,1.4-5.5,1.6-8.5c0.2-2.1,0-4.1-0.3-6.2c-0.3-2.3-0.8-4.6-1.3-6.9c-0.5-2.1-1-4.1-1.5-6.2
		c-0.8-3.3-1.8-6.6-2.7-10c-1.7-6.3-3.5-12.7-5.1-19.1c4.4,6.2,8.7,12.4,12.9,18.7c8.2,12.2,16.6,24.2,24.8,36.3
		c4.7,7,9.3,14,14.1,20.8c2.3,3.3,4.7,6.5,7.1,9.8c2.3,3,4.6,6.1,6.5,9.3c1.8,3,5.8,4.3,9.1,3.2c2-0.6,3.6-2,4.5-3.8
		c0.9-1.7,1.3-4.3,0.5-6.1c-0.9-2-1.8-3.9-3-5.6c-1-1.4-2-2.8-3-4.1c-2.1-2.8-4.2-5.6-6.3-8.4c-4.3-5.9-8.4-12.1-12.5-18.2
		c-8.1-12.1-16.3-24-24.5-36c-5.6-8.1-11-16.3-16.7-24.4c-2.7-3.9-5.6-7.7-8.5-11.4c-1.4-1.9-3-3.7-4.5-5.6
		c-1.3-1.6-2.7-3.3-4.2-4.8c-1.2-1.3-2.7-2.3-4.2-3.3c-0.5-0.4-1-0.7-1.6-0.9c-0.7-0.2-1.3-0.5-1.9-0.7c-1.1-0.1-2.2-0.2-3.4-0.3
		c-0.2,0-0.3,0-0.5,0C558.1,1170.6,555,1173.6,554.4,1176.7L554.4,1176.7L554.4,1176.7z M565.4,1297.9c0.1,0.1,0.1,0.2,0.2,0.4
		C565.5,1298.2,565.5,1298,565.4,1297.9L565.4,1297.9L565.4,1297.9z"/>
	<path style="fill:#161616;" d="M601.8,1162.6c-3.2,2.1-3.8,6.1-2,9.3c4.2,7.2,8.3,14.5,13,21.5c4.5,6.7,9,13.5,13.5,20.2
		c8.7,13.1,16.6,26.7,25,40c3.4,5.4,6.7,10.8,10.2,16.1c2,2.9,4.1,5.6,6.4,8.3c0.4,0.5,0.9,1,1.4,1.5c1.5,1.5,3.3,2.4,5.2,3.1
		c3.5,1.3,7.2,0.3,10.5-1c3.4-1.3,6.6-3.2,9.8-5c2.8-1.6,5.5-3.3,8.1-5c2.6-1.7,5.1-3.5,7.6-5.3c3.1-2.3,6.2-4.6,8.4-7.7
		c0.9-1,1.5-2.1,1.8-3.4c0.4-1.9,0.1-4-1-5.7c-2.1-3.2-7-4.6-10.3-2.2c-9.2,6.8-18.4,13.5-28.5,18.9c-0.7,0.3-1.3,0.6-2,0.8
		c-0.4-0.4-0.8-0.9-1.2-1.3c-4.4-5.4-8.1-11.3-12-17c-4.4-6.6-8.6-13.2-12.9-19.9c-4.3-6.8-8.7-13.6-13.3-20.2
		c-4.3-6.3-8.7-12.5-13-18.8c-2.4-3.6-4.9-7.2-7.2-10.9c-2.8-4.7-5.6-9.5-8.4-14.2c-1.2-2.1-3.6-3.1-5.9-3
		C603.9,1161.6,602.8,1161.9,601.8,1162.6L601.8,1162.6L601.8,1162.6z M678,1267.2c0,0,0.1,0,0.1,0c0,0,0,0,0,0
		C678,1267.2,678,1267.2,678,1267.2L678,1267.2L678,1267.2z"/>
	<path style="fill:#161616;" d="M667,1178.9c-2.6,1.4-4.8,3.2-7.1,5c-2.3,1.9-4.6,3.9-6.9,5.8c-5.1,4.4-10.2,8.7-15.3,13.2
		c-1.4,1.2-2,3.6-1.9,5.3c0.1,2,1,3.8,2.4,5.1c1.4,1.3,3.4,2,5.3,1.9c2.1-0.1,3.6-1.1,5.1-2.4c3-2.6,6-5.2,9-7.8
		c2.8-2.3,5.6-4.7,8.4-7c3.3-2.8,7-5.3,9.8-8.6c2.1-2.4,2.5-5.9,0.7-8.5c-1-1.5-2.6-2.6-4.3-3c-0.6-0.1-1.2-0.2-1.8-0.2
		C669.3,1177.9,668.2,1178.3,667,1178.9L667,1178.9L667,1178.9z M657.4,1205.4c-0.1,0.1-0.3,0.3-0.4,0.4
		C657.1,1205.6,657.2,1205.5,657.4,1205.4L657.4,1205.4L657.4,1205.4z"/>
	<path style="fill:#161616;" d="M633.8,1136.2c-1.5,0.5-3,1-4.4,1.7c-1,0.5-1.9,1.1-2.8,1.7c-1,0.6-2,1.3-2.9,2
		c-2.2,1.7-4.4,3.4-6.5,5.1c-4.4,3.6-8.6,7.4-12.6,11.5c-1,1-0.8,2.7,0.2,3.6c1.1,1,2.6,0.8,3.6-0.2c2.4-2.4,4.9-4.7,7.5-7
		c2.4-2,4.8-3.9,7.3-5.7c1.4-1,2.8-1.9,4.2-2.8c1.8-1.1,3.6-2.3,5.5-3.3c0.9-0.4,1.9-0.8,2.9-1.1c1.5-0.5,2.4-2.1,1.9-3.7
		c-0.4-1.3-1.6-2.1-2.9-2C634.3,1136,634.1,1136.1,633.8,1136.2L633.8,1136.2L633.8,1136.2z M633.2,1142.6c-0.1,0-0.2,0.1-0.2,0.1
		C633.1,1142.7,633.1,1142.6,633.2,1142.6L633.2,1142.6L633.2,1142.6z M615.5,1154.8c-0.1,0.1-0.1,0.1-0.2,0.2
		C615.4,1154.9,615.4,1154.8,615.5,1154.8L615.5,1154.8L615.5,1154.8z"/>
	<path style="fill:#161616;" d="M695.5,1102.8c-5.7,0.5-11.7,1.3-16.8,3.9c-2.1,1.1-3.9,2.5-5.6,4.1c-2,1.9-3.5,5.6-3.2,8.3
		c0.1,1.4,0.3,2.8,0.8,4.1c-1.4,2.5-1.7,5.7,0.1,8c5.5,7,10.8,14.1,15.9,21.3c0.6,0.9,1.2,1.7,1.8,2.6c7.1,12.3,14.2,24.6,21.4,36.7
		c4.3,7.2,8.7,14.5,13.1,21.6c2.5,4.1,5,8.1,7.6,12.2c1,1.6,2.2,3.2,3.3,4.7c1.3,1.7,2.6,3.4,4.1,5c2.2,2.5,6,3.9,9.1,2.5
		c1.3-0.4,2.4-1.2,3.4-2.2c1.3-1.4,1.8-3,2-4.8c0.2,0,0.4-0.1,0.6-0.1c3.8-0.8,6.1-4.1,8.1-7.1c1.1-1.6,2.1-3.4,3.1-5.1
		c2-3.5,3.9-7.1,5.8-10.6c2.9-5.5,5.3-11.1,7-17.1c0.7-2.6,0.9-5.3,1.1-8c0.2-2.8,0.2-5.5,0.1-8.3c-0.3-6.2-1.7-12.5-3.8-18.5
		c-2-5.8-5.1-11.4-8.4-16.5c-2.2-3.4-4.7-6.6-7.3-9.7s-5.3-6.1-8.3-8.8c-4.2-3.8-9-7.1-13.9-9.9c-5.1-3-10.9-4.9-16.5-6.6
		c-5.9-1.8-12.1-2.4-18.3-2.1c-0.7,0-1.3,0.1-2,0.1C698.5,1102.5,697,1102.6,695.5,1102.8L695.5,1102.8L695.5,1102.8z M699.8,1118.5
		c2.8-0.1,5.6-0.3,8.4-0.1c4.6,0.6,9,1.8,13.3,3.3c4.5,1.8,8.7,4,12.7,6.7c4.1,3,7.7,6.3,11.1,10c2.3,2.8,4.5,5.6,6.6,8.5
		c2.3,3.1,4.2,6.6,5.9,10c1.8,4.2,3.2,8.4,4.1,12.9c0.7,4.3,0.9,8.6,0.6,12.9c-0.4,2.8-1,5.4-1.9,8.1c-2.1,5.3-4.8,10.4-7.5,15.4
		c-2,3.7-4.1,7.4-6.4,11c-0.2-0.3-0.3-0.5-0.5-0.8c-2.2-3.5-4.4-6.9-6.6-10.4c-4.3-6.7-8.6-13.3-12.9-19.9
		c-4.4-6.9-8.8-13.9-13.3-20.9c-2.4-3.7-4.7-7.4-7.1-11.1c-2.9-5.1-5.9-10.2-8.8-15.4c-3.5-6.1-7.1-12.1-10.4-18.3
		c1.3-0.5,2.7-0.8,4.1-1.1C694,1118.9,696.9,1118.7,699.8,1118.5L699.8,1118.5L699.8,1118.5z M684.6,1121.9
		c-0.1,0.1-0.1,0.2-0.2,0.3C684.4,1122.1,684.5,1122,684.6,1121.9L684.6,1121.9L684.6,1121.9z"/>
	<path style="fill:#161616;" d="M631.1,1129.9c-2.9,0.7-5.3,2.4-7.7,4.1c-1.8,1.4-3.6,2.8-5.4,4.2c-2.4,2-4.9,4.1-7.2,6.2
		c-2.4,2.2-4.7,4.6-6.7,7.3c-2.1,2.9-3.8,5.9-5.1,9.1c-0.8,2-1.2,4-0.5,6.1c0.6,2,2,3.6,3.8,4.6c1.9,1,4.1,1.2,6.1,0.5
		c1.8-0.6,3.8-2,4.5-3.9c1-2.3,2.1-4.5,3.4-6.6c2.7-3.5,5.9-6.4,9.2-9.3c2-1.6,4-3.2,6-4.7c2.5-1.9,5-3.6,7.2-5.8
		c2.4-2.3,2.4-6.3,0.7-9c-0.7-1.1-1.6-1.9-2.8-2.5c-1.2-0.6-2.4-0.8-3.7-0.8C632.5,1129.6,631.8,1129.8,631.1,1129.9L631.1,1129.9
		L631.1,1129.9z"/>
	<path style="fill:#161616;" d="M771,1028.8c-2.9,0.6-5.5,1.7-8.1,3.1c-2.5,1.4-4.2,3.7-5.7,6c-0.8,1.1-1.3,2.7-1.7,4
		c-0.4,1.1-0.6,2.1-0.7,3.3c-0.4,3.4-0.4,6.9-0.2,10.4c-0.2,0.1-0.3,0.2-0.5,0.3c-3.2,2.1-3.7,6-2,9.2c1.5,2.6,2.9,5.3,4.4,7.9
		c0.4,2.5,0.9,4.9,1.5,7.4c1.3,5.8,3.3,11.3,5.7,16.7c4.6,10.7,10,21,16.3,30.8c2.2,3.4,4.7,6.6,7.1,9.8
		c7.4,10.1,14.8,20.2,22.1,30.4c2.4,3.3,6.7,4.4,10.2,2.2c1.6-1,2.8-2.7,3.2-4.6c0.4-1.8,0.2-4.2-1-5.7c-0.9-1.5-1.8-2.9-2.8-4.3
		c-0.1-0.1-0.2-0.3-0.2-0.4c-0.9-1.6-1.9-3.2-2.8-4.8c-2-3.4-3.9-6.8-5.8-10.1c-3.8-6.6-7.5-13.3-11.4-19.9
		c-0.1-0.1-0.1-0.2-0.2-0.3c5.3,1.7,10.7,3,16,4.5c6,1.8,12.1,3.5,18.1,5.2c10.3,3,20.7,5.9,30.8,9.6c3,1.2,6,2.6,9.1,3.6
		c1.3,0.3,2.7,0.2,4-0.2c1.9-0.6,3.4-1.9,4.4-3.7c0.9-1.8,1.1-3.9,0.5-5.9c-0.7-2-2-3.2-3.7-4.4c-3-2-6.1-3.3-9.5-4.5
		c-3.3-1.2-6.6-2.3-9.9-3.3c-6.3-2-12.7-3.9-19.1-5.7c-6.3-1.8-12.7-3.6-19-5.4c-1.9-0.5-3.8-1.1-5.6-1.6c0.2-0.2,0.4-0.5,0.6-0.7
		c3.9-4.5,6.6-9.6,8.2-15.3c0.8-2.7,0.9-5.6,1.1-8.5c0.1-2.6-0.1-5.2-0.5-7.8c-0.4-2.9-1.1-5.7-1.9-8.5c-0.9-3.2-2.4-6.1-3.8-9.1
		c-2.4-5-5.9-9.4-9.5-13.6c-4.1-4.8-8.9-9-14.3-12.2c-4.7-2.8-10.1-4.3-15.5-4.7c-1.2-0.1-2.3-0.1-3.4-0.1
		C774,1028.4,772.5,1028.5,771,1028.8L771,1028.8L771,1028.8z M778.3,1044c1.7,0.3,3.3,0.7,4.9,1.2c1.9,0.8,3.7,1.8,5.5,2.9
		c3.5,2.6,6.5,5.7,9.4,8.9c2.5,3.1,4.8,6.4,6.6,10c1.5,3.3,2.6,6.8,3.4,10.3c0.4,2.6,0.5,5.2,0.4,7.9c-0.2,1.7-0.6,3.4-1.1,5.1
		c-0.7,1.7-1.6,3.3-2.5,4.9c-2.1,2.8-4.5,5.3-7,7.7c-0.6,0.5-1.2,0.8-1.9,1.2c-1.2,0.7-2.2,1.7-3.2,2.8c-0.5,0.5-0.9,1.1-1.2,1.7
		c-6.1-10.6-12-21.2-18-31.9c-0.4-0.6-0.7-1.3-1.1-1.9c-0.3-1.2-0.5-2.3-0.7-3.5c-1.3-7.8-2-15.7-1.7-23.6c0.1-0.4,0.2-0.8,0.3-1.2
		c0.1-0.3,0.3-0.6,0.5-0.9c0.3-0.2,0.6-0.4,0.8-0.5c0.9-0.4,1.8-0.6,2.7-0.9C775.8,1044,777,1044,778.3,1044L778.3,1044L778.3,1044z
		"/>
	<path style="fill:#161616;" d="M815.4,1028.7c-3.4,2.2-4.7,7.2-2.3,10.6c12.2,16.8,24.3,33.6,35.9,50.7c4.6,6.7,9.1,13.4,13.6,20.1
		c1.1,1.6,2.2,3.2,3.3,4.7c2.8,4,6.1,8.1,10.7,10c2.9,1.1,5.9,1.3,9,1c1.5-0.2,2.9-0.4,4.3-0.8c1.2-0.3,2.7-1.1,3.8-1.7
		c3.9-2,7.3-4.7,10.6-7.6c2.6-2.2,5-4.5,7.3-6.9c1-1,2-2.2,2.9-3.3c1-1.2,1.8-2.4,2.7-3.7c1.3-1.9,2-4,2.8-6.1
		c0.3-1.3,0.2-2.6-0.2-3.9c-0.6-1.8-1.9-3.3-3.5-4.2c-3.6-1.9-7.9-0.4-9.8,3c-0.2,0.4-0.4,0.8-0.7,1.2c-2.2,2.8-4.9,5.3-7.4,7.7
		c-1.8,1.8-3.7,3.5-5.6,5.1c-2.2,1.8-4.5,3.4-6.9,4.8c-0.4,0.2-0.8,0.3-1.2,0.4c-0.8,0.1-1.6,0.2-2.4,0.2c-0.1,0-0.2-0.1-0.3-0.1
		c-0.6-0.5-1.1-1-1.6-1.6c-4.4-5.5-8.2-11.5-12.2-17.3c-4.3-6.3-8.6-12.5-12.8-18.8c-3.7-5.3-7.5-10.6-11.2-15.9
		c-6.1-8.6-12.3-17.1-18.4-25.6c-1.7-2.3-4.3-3.6-6.9-3.5C817.9,1027.5,816.6,1027.9,815.4,1028.7L815.4,1028.7L815.4,1028.7z"/>
	<path style="fill:#161616;" d="M880.4,1030.4c-0.8,0.5-1.5,1-2.1,1.6c-3.1,2.5-6.1,5.3-9.1,7.9c-3.2,2.8-6.4,5.6-9.6,8.5
		c-7.1,6.3-14.2,12.5-21.3,18.8c-1.4,1.3-2.1,3.7-2,5.5c0.1,2,1,3.9,2.5,5.3c1.5,1.4,3.5,2.1,5.5,2c2.2-0.1,3.7-1.1,5.3-2.5
		c7.4-6.5,14.8-13.1,22.3-19.6c3.3-2.9,6.5-5.7,9.8-8.6c1.2-1.1,2.5-2.2,3.7-3.3c2.9-2.6,6.4-5.5,5.9-9.9c-0.3-2.5-1.4-4.7-3.8-5.9
		c-1.1-0.6-2.3-0.8-3.5-0.8C882.7,1029.3,881.5,1029.7,880.4,1030.4L880.4,1030.4L880.4,1030.4z"/>
	<path style="fill:#161616;" d="M845.3,993.2c-5.5,3.7-10.4,8.3-15.3,12.7c-5.7,5.1-11.4,10.2-17.1,15.4c-1.5,1.4-2.2,3.8-2.1,5.8
		c0.1,2.1,1.1,4.1,2.6,5.5c1.6,1.4,3.7,2.2,5.8,2.1c2.3-0.1,3.9-1.1,5.5-2.6c7.7-6.9,15.4-13.8,23.1-20.7c2-1.7,4.1-3.3,6.2-4.8
		c3.6-2.4,4.8-7.4,2.4-11.1c-1.6-2.4-4.4-3.8-7.2-3.6C847.8,992,846.5,992.4,845.3,993.2L845.3,993.2L845.3,993.2z M847.4,1011.7
		c-0.3,0.3-0.7,0.6-1,0.8C846.7,1012.3,847,1012,847.4,1011.7L847.4,1011.7L847.4,1011.7z"/>
	<path style="fill:#161616;" d="M907.8,947.1c-4.5,1.1-8.2,4.3-11.9,7c-2.9,2.2-5.8,4.4-8.7,6.6c-6.1,4.8-12,10-18,14.9
		c-1.6,1.3-2.8,2.6-3.3,4.8c-0.5,2-0.1,4.2,1.1,5.9c1.1,1.7,2.8,2.9,4.8,3.3c1.8,0.4,4.4,0.2,5.9-1.1c5.8-4.9,11.6-9.8,17.6-14.5
		c2.9-2.3,5.8-4.5,8.8-6.6c3.3-2.5,6.7-5,10.2-7.3c2.7-1.8,4-5.3,3-8.4c-0.6-1.8-1.9-3.3-3.6-4.2c-1.2-0.6-2.4-0.8-3.6-0.8
		C909.2,946.9,908.5,947,907.8,947.1L907.8,947.1L907.8,947.1z"/>
	<path style="fill:#161616;" d="M889,968.2c0.2,4.5,2,9,3.7,13.1c1.7,4.2,3.9,8.4,6,12.4c1.8,3.3,3.6,6.5,5.4,9.8
		c3.2,5.8,6.6,11.6,9.9,17.3c3.2,5.6,6.6,11.2,9.9,16.8c3.4,5.7,7.2,11.3,11,16.8c2.8,4.1,5.7,8.3,8.6,12.3
		c3.3,4.6,6.6,9.4,10.3,13.7c0.9,0.8,2,1.4,3.2,1.7c1.8,0.4,3.8,0.1,5.3-0.9c1.5-1,2.6-2.5,3-4.3c0.4-1.7,0.1-3.9-0.9-5.3
		c-3.9-5.1-8.1-10-12-15c-4.2-5.4-8.3-10.8-12.2-16.4c-7.6-10.7-14.5-21.9-21.3-33.1c-5.3-8.8-10.6-17.5-15.2-26.7
		c-1.7-3.8-3.3-7.7-4.2-11.7c0-0.3,0-0.6,0-0.8c-0.1-2.9-2.7-5.2-5.5-5C891.1,962.9,888.9,965.4,889,968.2L889,968.2L889,968.2z"/>
	<path style="fill:#161616;" d="M960.5,919.8c-4,1.3-6,5.6-4.9,9.6c1.1,3.7,3.1,7.1,5.2,10.4c1.4,2.2,2.7,4.5,4.2,6.7
		c3.2,4.9,6.3,9.9,9.8,14.7c7.8,11,16,21.8,22.1,33.9c2.6,5.8,4.5,11.8,5.8,18c0.6,3.5,0.9,7,0.7,10.5c-0.2,1.4-0.5,2.8-0.9,4.2
		c0,0.1-0.1,0.1-0.1,0.2c-0.1,0.1-0.1,0.1-0.2,0.2c-0.1,0-0.1,0.1-0.2,0.1c-0.2,0.1-0.4,0.1-0.6,0.2c-0.1,0-0.3,0-0.4,0
		c-0.8-0.1-1.6-0.4-2.4-0.6c-2-0.9-3.8-2-5.5-3.2c-6.4-4.7-11.7-10.4-17-16.2c-5.3-6.5-10.4-13-15.4-19.8c-8-11-16-22-24-33
		c-2.5-3.5-7.3-4.8-11.1-2.4c-3.5,2.3-4.9,7.5-2.4,11.1c7.5,10.3,14.9,20.6,22.4,30.9c4.5,6.1,9,12.3,13.8,18.1
		c6.9,8.5,14.2,16.9,23.1,23.4c2.3,1.7,4.7,3.3,7.1,4.7c2.4,1.3,5.2,2.2,7.8,2.7c3,0.6,5.8,0.2,8.7-0.4c0.4-0.1,0.7-0.2,1.1-0.4
		c1-0.5,1.9-0.9,2.9-1.4c1.6-1,3.1-2.3,4.4-3.7c2.1-2.3,3.1-5.3,3.9-8.2c0.8-2.8,0.9-5.9,1-8.8c0.2-6.3-1.3-12.8-2.9-18.9
		c-2.9-11.2-8.6-21.4-14.8-31c-3.6-5.5-7.5-10.7-11.3-16c-3.7-5.2-7.2-10.5-10.7-15.8c-1.5-2.4-3.1-4.8-4.6-7.2
		c-2-3.1-4.2-6.3-5.8-9.6c-0.7-1.1-1.7-2-2.9-2.6c-1.2-0.6-2.6-0.9-3.9-0.9C961.8,919.5,961.1,919.6,960.5,919.8L960.5,919.8
		L960.5,919.8z M992,1024.2C992,1024.2,992,1024.2,992,1024.2C992,1024.2,992,1024.2,992,1024.2L992,1024.2L992,1024.2z
		 M1001.7,1028.7C1001.7,1028.7,1001.6,1028.7,1001.7,1028.7C1001.6,1028.7,1001.6,1028.7,1001.7,1028.7
		C1001.6,1028.7,1001.7,1028.7,1001.7,1028.7L1001.7,1028.7L1001.7,1028.7z M1001.9,1028.7
		C1001.9,1028.7,1001.9,1028.7,1001.9,1028.7C1001.9,1028.8,1001.9,1028.8,1001.9,1028.7C1001.9,1028.7,1001.9,1028.7,1001.9,1028.7
		L1001.9,1028.7L1001.9,1028.7z M1001.6,1028.8C1001.6,1028.8,1001.6,1028.8,1001.6,1028.8c-0.2,0.2-0.5,0.5-0.8,0.7
		C1001.1,1029.2,1001.3,1029,1001.6,1028.8L1001.6,1028.8L1001.6,1028.8z M1001.8,1028.8C1001.8,1028.8,1001.8,1028.8,1001.8,1028.8
		c-0.1,0.2-0.2,0.4-0.4,0.5C1001.6,1029.1,1001.7,1028.9,1001.8,1028.8L1001.8,1028.8L1001.8,1028.8z"/>
	<path style="fill:#161616;" d="M1002.2,876.8c-2.6,0.6-4.9,1.7-7.2,3c-1.2,0.7-2.5,1.8-3.4,2.7c-0.9,0.9-1.7,1.8-2.5,2.9
		c-0.9,1.2-1.7,2.5-2.5,3.8c-0.9,1.6-1.4,3.4-2,5.1c-1.8,5.3-1.1,10.8-0.1,16.2c0.2,1,0.4,2.1,0.7,3.1c-0.8,2-0.6,4.3,0.6,6.2
		c0.9,1.4,1.9,2.9,2.8,4.3c0.4,1,0.8,1.9,1.2,2.9c3.5,8,7.8,15.7,12.6,23c4.9,7.4,9.9,14.7,14.9,22c7.1,10.3,14.3,20.5,21.1,30.9
		c0.3,0.5,0.7,1.1,1,1.6c2.3,3.4,6.9,4.5,10.4,2.2c3.5-2.3,4.3-6.9,2.2-10.4c-3.2-5.3-6.7-10.3-10.2-15.4c-1.3-1.9-2.6-3.8-3.9-5.7
		c-3.6-5.6-7.3-11.2-10.9-16.8c-0.5-0.7-0.9-1.4-1.4-2.1c2.3,1,4.6,2,6.8,3c2.9,1.3,5.8,2.4,8.7,3.6c6.5,2.5,12.9,4.9,19.4,7.4
		c7,2.6,14.2,5,21.1,8.1c3.9,1.8,8.6,0.6,10.6-3.3c1-1.9,1.2-4.1,0.5-6.1c-0.7-2.1-2-3.3-3.8-4.5c-2.5-1.7-5.5-2.5-8.3-3.6
		c-2.4-0.9-4.8-1.8-7.2-2.7c-5.3-2-10.5-3.9-15.8-5.9c-5-1.9-10-3.9-15-5.9c-2.4-1-4.7-2-7-3c-3.5-1.6-7-3.1-10.3-5
		c0.4-0.8,0.9-1.5,1.2-2.3c1-2.1,1.8-4.2,2.7-6.4c3.8-9.6,6.9-20.1,4.4-30.5c-1.2-5.3-4.2-10.2-7.9-14.3c-3.9-4.3-9.3-7.7-15.1-8.4
		c-1.5-0.2-2.9-0.3-4.4-0.2C1005.2,876.3,1003.7,876.5,1002.2,876.8L1002.2,876.8L1002.2,876.8z M1008.4,891.9
		c0.5,0.1,1,0.2,1.4,0.3c0.8,0.4,1.6,0.8,2.4,1.3c0.9,0.7,1.7,1.4,2.4,2.2c1.1,1.4,2.1,2.9,2.9,4.5c0.4,1,0.7,2,1,3
		c0.2,2,0.3,4,0.2,5.9c-0.6,4.2-1.8,8.3-3.3,12.4c-1.2,3.2-2.5,6.3-4.1,9.3c-0.3,0.6-0.7,1.2-1,1.8c-0.8-1.2-1.5-2.3-2.3-3.5
		c-1-1.8-1.9-3.6-2.8-5.5c-2.5-5.4-4.5-11-5.7-16.8c-0.3-1.8-0.5-3.7-0.5-5.5c0.2-1.2,0.5-2.3,0.8-3.5c0.4-0.9,0.9-1.8,1.4-2.6
		c0.5-0.6,0.9-1.1,1.4-1.6c0.4-0.3,0.9-0.6,1.3-0.9c0.7-0.3,1.4-0.5,2.2-0.7C1007,892,1007.7,891.9,1008.4,891.9L1008.4,891.9
		L1008.4,891.9z M1003.2,893.2c-0.2,0.1-0.3,0.1-0.5,0.2C1002.9,893.3,1003.1,893.2,1003.2,893.2L1003.2,893.2L1003.2,893.2z
		 M1023,936c0,0.1,0.1,0.2,0.1,0.3C1023.1,936.2,1023,936.1,1023,936L1023,936L1023,936z"/>
	<path style="fill:#161616;" d="M1094.5,806.6c-2.8,3.1-2.5,8,0.5,10.8c0.1,0.1,0.3,0.2,0.4,0.4c0.4,0.6,0.7,1.2,1,1.8
		c5.6,12.3,12,24,18.5,35.8c3.3,6,6.6,12.1,9.9,18.1c2.7,4.9,5.2,9.9,7.7,14.9c3.1,6.8,6.4,13.6,8.8,20.8c-4-2.2-8-4.5-12.1-6.7
		c-7.5-4.1-15.2-7.9-22.8-11.9c-14.9-7.7-29.3-16.1-43.8-24.6c-3.5-2-6.9-4.5-11-5.3c-2.8-0.5-5.7,0.2-7.7,2.4
		c-0.7,0.8-1.2,1.6-1.6,2.6c-1.5,2.5-1.5,5.8,0.2,8.4c10.6,16.8,21.5,33.5,31.7,50.6c4.5,7.6,9.1,15.2,13.6,22.7
		c2,3.3,3.9,6.5,6,9.7c0.9,1.4,1.8,2.8,2.7,4.2c0.7,1.1,1.5,2.2,2.2,3.3c0.7,1,1.7,2.4,2.6,3.2c0.7,0.7,1.5,1.3,2.3,1.8
		c0.9,0.4,1.8,0.7,2.8,1c5,1.4,10.1-3.2,9.8-8.2c-0.2-2.6-0.7-5-1.6-7.5c-1.1-2.9-2.5-5.6-3.9-8.3c-1.3-2.6-2.7-5.2-4.1-7.7
		c-2.6-4.7-5.3-9.4-7.9-14.1c-3.7-6.6-7.9-12.9-11.9-19.3c-0.9-1.5-2-2.9-3-4.3c-1.7-2.4-3.3-4.8-5-7.2c-0.1-0.1-0.1-0.2-0.2-0.2
		c4.9,2.7,9.8,5.4,14.7,8c7.8,4.1,15.7,8.2,23.6,12.3c7.2,3.8,14.3,7.8,21.5,11.6c1.7,0.9,3.4,1.8,5.2,2.6c2.5,1.2,5.6,1.7,8.3,0.9
		c1.7-0.5,3.3-1.7,4.6-2.9c1.2-1.1,2.4-3,2.7-4.6c0.2-1.5,0.4-2.9,0.3-4.3c-0.1-1.2-0.4-2.5-0.6-3.6c-0.5-2.9-1.3-5.8-2.2-8.6
		c-1.2-3.8-2.6-7.6-4.3-11.2c-2.1-4.5-4-9.1-6.3-13.6c-2.1-4.1-4.2-8.2-6.3-12.3c-2.1-4.1-4.5-8.2-6.7-12.3
		c-1.8-3.3-3.6-6.5-5.4-9.8c-4.2-7.6-8.4-15.3-12.3-23c-1-1.9-1.9-3.9-2.9-5.9c-0.7-1.5-1.4-3-2.2-4.5c-0.9-1.7-1.8-3.1-3.1-4.5
		c-1.1-1.3-2.4-2.2-3.9-3.2c-1.2-0.6-2.5-0.9-3.9-0.9C1097.7,804.2,1095.8,805.1,1094.5,806.6L1094.5,806.6L1094.5,806.6z"/>
	<path style="fill:#161616;" d="M703.1,1529.4c-2.3,0.2-4.5,0.5-6.8,0.7c-3.8,0.4-7.6,1.1-11.3,1.8c-2.5,0.5-4.9,0.9-7.4,1.6
		c-2.3,0.6-4.5,1.6-6.6,2.6c-0.8,0.4-1.4,0.8-2.1,1.2c-1,0.7-2.4,2-2.9,3.1c-0.4,1-0.8,1.9-0.9,2.9c-0.1,0.8-0.2,1.5-0.1,2.3
		c0.1,0.8,0.3,1.6,0.5,2.4c0.2,1,0.5,2,0.8,3c0.2,0.8,0.3,1.6,0.5,2.4c0.5,2.7,0.9,5.4,1.2,8.1c0.2,1.4,0.4,2.9,0.6,4.3
		c0.3,1.9,0.6,3.7,1,5.5c0.5,2.3,1.4,5,3.2,6.6c0,0,0,0,0,0c-2.6,25.9-5.1,51.9-8.1,77.8c-1.3,10.8-2.6,21.7-3.9,32.5
		c-0.5,4.1-1,8.2-1.5,12.3c-0.1,0.8-0.2,1.6-0.2,2.4c0,0.2,0.1,0.5,0.1,0.8c0,1.1,0.4,2.1,1,3c0.9,1.7,2.3,3.2,4,4.2
		c2.9,1.6,6.3,2.2,9.6,2.7c4.1,0.6,8.2,0.9,12.4,1.3c3,0.3,6,0.5,9.1,0.8c-0.6-0.1-1.1-0.1-1.7-0.2c5.5,0.5,10.9,0.8,16.4,1.2
		c4.4,0.3,8.7,0.6,13.1,1c3.2,0.3,6.4,0.6,9.6,0.9c0,0-0.1,0-0.1,0c2.9,0.3,5.8,0.6,8.8,0.9c2.2,0.2,4.4,0.4,6.5,0.7
		c2.6,0.3,5.1,0.3,7.7-0.3c2.8-0.7,5.1-2.3,7-4.4c1.5-1.6,2.7-3.7,3.8-5.6c1.1-2,1.8-4.2,2.5-6.4c1.6-4.5,2.8-9.2,3.9-13.9
		c1-4.2,1.7-8.4,2.5-12.7c0.7-3.8,1.4-7.6,2.1-11.5c0.5-2.9,0.8-5.9,1.2-8.8c1-7,1.8-14,2.6-21.1c0.7-6.3,1.3-12.5,1.7-18.8
		c0.5-6.5,1-13.1,0.8-19.6c-0.1-2.9-0.3-5.7-1-8.6c0.7-0.3,1.3-0.8,2-1.4c0.8-0.7,1.5-1.3,2.3-2c1.5-1.4,2.6-3.2,3.6-4.9
		c0.9-1.6,1.5-3.5,2-5.2c0.5-2.3,0.3-4.7,0.1-7c-0.4-4.2-2-8-3.8-11.7c-1.8-3.8-4.8-7-7.9-9.8c-3.8-3.5-8.6-6.1-13.4-8.1
		c-3.2-1.3-6.5-2.4-9.9-3.4c-6-1.7-12.2-2.8-18.4-3.6c-6.8-0.9-13.6-1.7-20.5-1.9c-2.3-0.1-4.6-0.1-6.9-0.2c-1.5,0-3,0.1-4.5,0.1
		c-1,0-1.9,0-2.9,0.1C704,1529.3,703.6,1529.3,703.1,1529.4L703.1,1529.4L703.1,1529.4z M703.6,1540.4c1.2-0.1,2.5-0.1,3.7-0.2
		c0.4,0,0.9,0,1.3-0.1c1.1,0,2.2-0.1,3.2-0.1c3.2,0.1,6.4,0.1,9.5,0.3c3.2,0.3,6.3,0.5,9.5,0.8c5.3,0.6,10.5,1.3,15.8,2.1
		c5,0.8,9.9,2.2,14.8,3.7c3.6,1.4,7.2,3,10.4,5.1c1.9,1.4,3.6,3.1,5.2,4.8c1.1,1.3,2,2.8,2.8,4.3c0.8,1.9,1.5,3.8,2,5.8
		c0.2,1.4,0.2,2.8,0.2,4.2c-0.1,0.4-0.2,0.8-0.3,1.3c-0.3,0.7-0.7,1.3-1.1,2c-1.4,1.7-2.9,3.2-4.5,4.7c-1-0.7-2.1-1.4-3.2-2
		c-2.1-1.1-4.5-1.8-6.7-2.6c-2.2-0.7-4.4-1.1-6.7-1.6c-4.1-0.7-8.3-1.2-12.5-1.5c-7-0.5-14-1-21-1.4c-7.9-0.4-15.8-0.7-23.6-0.9
		c-3.8-0.1-7.6-0.2-11.4-0.2c-2.6,0-5.3,0-7.9-0.1c0.1-1.3,0.1-2.4-0.6-3.5c-0.6-0.9-1.5-1.6-2.5-1.9c-0.5-2.9-0.9-5.9-1.5-8.8
		c-0.3-1.7-0.7-3.3-1.1-4.9c-0.4-1.4-0.8-2.8-1.2-4.2c0,0,0.1,0,0.1-0.1c1.8-0.8,3.7-1.4,5.6-1.9c2.5-0.6,5.1-1.1,7.7-1.5
		C694.4,1541.3,699,1540.8,703.6,1540.4L703.6,1540.4L703.6,1540.4z M675.9,1545.6C675.9,1545.6,675.9,1545.6,675.9,1545.6
		C675.9,1545.6,675.9,1545.6,675.9,1545.6C675.9,1545.6,675.9,1545.6,675.9,1545.6C675.9,1545.6,675.9,1545.6,675.9,1545.6
		L675.9,1545.6L675.9,1545.6z M666.6,1551.9c0.1,0.3,0.1,0.7,0.2,1C666.7,1552.6,666.6,1552.2,666.6,1551.9L666.6,1551.9
		L666.6,1551.9z M680.7,1593.5c0.4-4.4,0.9-8.8,1.3-13.2c1.4,0.1,2.9,0.2,4.3,0.3c2.9,0.2,5.9,0.4,8.8,0.5
		c13.3,0.8,26.5,1.5,39.8,2.4c3.8,0.3,7.6,0.6,11.4,0.9c6.2,0.7,12.4,1.5,18.3,3.5c1.2,0.5,2.3,1,3.4,1.7c0.4,0.3,0.8,0.7,1.2,1.1
		c0,0,0.1,0.1,0.1,0.1c0.2,0.5,0.3,0.9,0.4,1.4c0.4,3.3,0.2,6.7,0,10c-0.1,2.4-0.3,4.7-0.5,7.1c-1.2,12.1-2.3,24.2-4,36.2
		c-0.9,6.6-1.7,13.1-2.9,19.6c-1.9,10.7-3.6,21.6-6.7,32c-0.4,1.3-0.8,2.6-1.2,3.9c-0.6,1.6-1.4,3-2.3,4.5c-0.2,0.3-0.4,0.5-0.7,0.8
		c-0.9,0.1-1.7,0.1-2.6,0.1c0.6,0.1,1.2,0.1,1.8,0.2c-23.1-2.1-46.4-3.1-69.5-4.9c-1.9-0.2-3.9-0.4-5.8-0.6
		c-1.5-0.2-3.1-0.4-4.6-0.8c0-2.6,0.3-5.3,0.5-7.9c0.1-2,0.3-4,0.4-6c0.3-3.7,0.6-7.5,0.9-11.2
		C675.4,1648,678.1,1620.7,680.7,1593.5L680.7,1593.5L680.7,1593.5z M769.6,1591.2c0,0.1,0.1,0.1,0.1,0.2c0,0,0,0,0,0
		C769.6,1591.4,769.6,1591.3,769.6,1591.2L769.6,1591.2L769.6,1591.2z M769.7,1591.4c0.1,0.1,0.1,0.3,0.2,0.4
		C769.8,1591.7,769.7,1591.6,769.7,1591.4C769.7,1591.4,769.7,1591.4,769.7,1591.4L769.7,1591.4L769.7,1591.4z M769.4,1608.4
		c0,0.2,0,0.3,0,0.5C769.4,1608.8,769.4,1608.6,769.4,1608.4L769.4,1608.4L769.4,1608.4z M669.1,1699.4c0.1,0.1,0.3,0.2,0.4,0.3
		C669.4,1699.6,669.2,1699.5,669.1,1699.4L669.1,1699.4L669.1,1699.4z M751.4,1706.5c-0.3,0.2-0.6,0.3-0.9,0.4
		C750.8,1706.8,751.1,1706.7,751.4,1706.5L751.4,1706.5L751.4,1706.5z M723,1717.5c0.1,0,0.2,0,0.3,0c0.2,0,0.3,0,0.5,0
		C723.6,1717.5,723.3,1717.5,723,1717.5L723,1717.5L723,1717.5z M733.2,1718.4c0.3,0,0.6,0.1,1,0.1
		C733.9,1718.4,733.6,1718.4,733.2,1718.4L733.2,1718.4L733.2,1718.4z"/>
	<path style="fill:#161616;" d="M814,1601c-9.2,0.8-18.3,1.6-27.5,2.6c-2.9,0.3-5.2,2.5-5.1,5.5c0.1,2.8,2.7,5.4,5.5,5.1
		c11.8-1.2,23.5-2.5,35.3-2.9c3.1-0.1,6.2-0.2,9.3-0.3c2-0.1,4.1,0.1,6.1,0.1c2.2,0.1,4.4,0,6.7,0.2c2.4,0.2,4.7,0.3,7.1,0.5
		c4,0.5,8.1,1.1,12,2.3c1.4,0.6,2.7,1.2,4,2c1.1,0.9,2.1,1.8,3.1,2.8c1.2,1.6,2.3,3.2,3.2,5c2.4,5.3,4.1,10.9,5.2,16.6
		c1.8,10.3,3.1,20.7,4.7,31.1c0.7,4.6,1.4,9.2,2.1,13.8c0.3,2.3,0.7,4.6,1,6.8c0,0,0,0.1,0,0.1c0,0.4,0.1,0.8,0.2,1.2
		c0.6,3.7,1.2,7.4,1.2,11.1c0,0.3-0.1,0.6-0.1,0.9c-0.8,0.6-1.6,1.1-2.5,1.6c-3,1.3-6.2,2.1-9.5,2.8c-10.2,1.7-20.6,2.4-30.9,3.1
		c-7.5,0.5-15,1-22.6,1.5c-6.5,0.4-12.9,1.2-19.3,2c-6.6,0.8-13.2,2.1-19.9,2.9c-3.2,0.4-6.3,0.8-9.5,0.9c-3.9,0.1-7.8-0.2-11.7-0.5
		c-0.8-0.1-1.6-0.2-2.3-0.4c-2.7-0.5-5.4,0.6-6.7,3.1c-1.5,2.8-0.5,6.9,2.6,8.2c2.5,1.1,5,2,7.7,2.4c3,0.4,6.1,0.9,9.2,0.5
		c3.1-0.4,6.2-1,9.4-1.5c7-1.1,13.9-2.1,20.9-2.8c13.9-1.5,27.9-1.9,41.9-2.5c8.2-0.3,16.5-0.8,24.7-1.6c8.7-0.9,17.8-2.1,25.4-6.6
		c1.6-1,3.2-2.3,4.5-3.6c1.7-1.8,2.7-4.3,3-6.7c0.4-2.4,0.3-4.7,0.1-7c-0.2-2.3-0.8-4.5-1.2-6.7c0,0,0,0.1,0,0.1
		c-0.2-0.9-0.3-1.9-0.5-2.8c0,0.1,0,0.2,0.1,0.3c0,0,0-0.1,0-0.1c0-0.1-0.1-0.3-0.1-0.4c-0.1-0.3-0.1-0.5-0.2-0.8
		c0,0.2,0.1,0.4,0.1,0.6c-0.1-0.4-0.1-0.7-0.2-1.1c0,0,0,0,0,0c-0.1-0.6-0.2-1.3-0.4-1.9c0,0.1,0,0.2,0,0.2c-0.5-2.8-1-5.7-1.6-8.5
		c0.1,0.6,0.2,1.2,0.3,1.8c-1.3-7.1-2.5-14.2-3.7-21.3c-1.5-8.9-2.8-17.8-4.9-26.6c-1-4.4-2.6-8.6-4.5-12.7c-1-2.1-2-4.1-3.2-6.1
		c-1.4-2.3-3.2-4.3-5.1-6.1c-3.3-3.2-7.4-4.9-11.7-6.3c-2-0.6-4.1-0.9-6.2-1.2c-2.4-0.4-4.9-0.7-7.4-0.8c-3.2-0.2-6.3-0.4-9.5-0.5
		c-2.2,0-4.3-0.1-6.5-0.1c-1.5,0-2.9-0.1-4.4-0.1c-3.9,0.1-7.8,0.2-11.7,0.4C818,1600.7,816,1600.8,814,1601L814,1601L814,1601z
		 M878.7,1639.5c0.1,0.3,0.1,0.6,0.1,0.9C878.8,1640.1,878.8,1639.8,878.7,1639.5L878.7,1639.5L878.7,1639.5z M888.9,1704.5
		c-0.1,0.1-0.2,0.2-0.2,0.3C888.8,1704.7,888.9,1704.6,888.9,1704.5L888.9,1704.5L888.9,1704.5z M877.5,1709.8
		c-0.2,0-0.4,0.1-0.5,0.1C877.1,1709.8,877.3,1709.8,877.5,1709.8L877.5,1709.8L877.5,1709.8z M900.6,1691.7c0,0.1,0,0.1,0,0.2
		c0-0.2-0.1-0.3-0.1-0.5C900.5,1691.5,900.5,1691.6,900.6,1691.7L900.6,1691.7L900.6,1691.7z M900.3,1690.2
		c-0.1-0.5-0.2-1.1-0.3-1.6C900.1,1689.1,900.2,1689.6,900.3,1690.2L900.3,1690.2L900.3,1690.2z"/>
	<path style="fill:#161616;" d="M755.4,1708.9c-1.3,0.4-2.1,1.9-1.7,3.3c0.7,2.1,1.5,4.1,2.4,6.1c0.3,0.6,0.6,1.1,1.2,1.4
		c0.6,0.3,1.3,0.4,1.9,0.2c1.2-0.4,2-1.8,1.6-3.1c-0.7-2.1-1.4-4.1-2.2-6.2c-0.4-1.1-1.4-1.8-2.6-1.8
		C755.9,1708.8,755.6,1708.8,755.4,1708.9L755.4,1708.9L755.4,1708.9z"/>
	<path style="fill:#161616;" d="M863.1,1566c-2.4,0.3-4.8,0.7-7.2,1.1c-6.6,1-13.2,2-19.8,3.1c-7.4,1.2-14.7,2.6-22,3.9
		c-2.7,0.5-5.3,1-8,1.5c0.5-0.1,0.9-0.2,1.4-0.3c-4.8,0.9-9.5,2.3-14.2,3.4c-2.9,0.7-5.8,1.5-8.7,2.2c-3.1,0.8-6.2,1.8-9.3,2.7
		c-2.7,0.8-4.1,3.9-3.3,6.5c0.9,2.7,3.8,4.1,6.5,3.3c2.9-0.9,5.7-1.8,8.6-2.5c2.7-0.7,5.5-1.3,8.2-2c3.2-0.8,6.4-1.6,9.6-2.4
		c1.3-0.3,2.5-0.7,3.8-1c7.4-1.3,14.8-2.6,22.1-3.9c5.1-0.8,10.2-1.6,15.4-2.2c3-0.4,5.9-0.8,8.9-1.2c4.1-0.5,8.3-1.1,12.4-1.2
		c0.1,0,0.2,0,0.3,0.1c1,1.3,1.7,2.7,2.5,4.1c2.1,4.8,3.9,9.8,5,15c0.1,0.7,0.1,1.3,0.2,2c-0.1,0.3-0.1,0.6-0.2,0.9
		c-0.1,0.1-0.1,0.3-0.2,0.4c-1.3,1.6-2.8,3-4.4,4.4c-0.5,0.4-0.9,0.8-1.4,1.2c-1.5,1.2-2.6,2.4-3,4.3c-0.4,1.8-0.1,3.8,1,5.4
		c2,3.1,6.6,4.3,9.7,2.1c1.7-1.2,3.4-2.4,5.1-3.8c1.9-1.6,3.5-3.2,4.9-5.3c1.6-2.5,2.5-5.4,2.6-8.3c0.3-5.4-2.2-10.7-4.1-15.6
		c-0.6-1.4-1.3-2.8-1.9-4.2c-1.9-4.2-4.2-8.4-7.7-11.4c-1.6-1.4-3.6-2.2-5.7-2.5c-0.9-0.1-1.8-0.1-2.7-0.1
		C865.8,1565.6,864.5,1565.8,863.1,1566L863.1,1566L863.1,1566z M870.3,1603.9c-0.3,0.3-0.6,0.5-0.9,0.8
		C869.7,1604.4,870,1604.1,870.3,1603.9L870.3,1603.9L870.3,1603.9z"/>
	<path style="fill:#161616;" d="M885.1,1597c-3.9,0.2-7,3.6-6.8,7.4c0.2,3.9,3.6,7,7.4,6.8c18.8-0.9,37.7-1.8,56.5-2.3
		c16.7-0.5,33.3-0.9,50-0.7c13.3,0.2,26.7,0.3,40,1.2c0.9,0.1,1.8,0.3,2.7,0.6c0,0,0,0,0.1,0c0,0,0.1,0.1,0.1,0.1
		c0.4,0.6,0.8,1.1,1.1,1.7c0.7,1.9,1.2,3.8,1.6,5.8c1.4,9.4,1.1,19,1.1,28.4c0,5.1,0,10.3,0,15.5c0,4.4,0,8.7,0.1,13.1
		c0,2.4,0.1,4.8,0.1,7.3c0.1,3.7,0.3,7.5,0.1,11.2c0,0.2-0.1,0.4-0.1,0.6c-0.2,0.5-0.5,0.9-0.7,1.4c-0.1,0.1-0.2,0.3-0.4,0.4
		c-1.1,0.8-2.3,1.5-3.5,2.2c-4.2,1.8-8.8,2.9-13.3,3.8c-8.9,1.5-18,2.4-27,3.2c-9,0.8-17.9,1.5-26.9,2.3
		c-15.9,1.3-31.8,2.4-47.6,3.8c-4.2,0.4-8.4,0.8-12.5,1.2c-3.5,0.3-7,0.6-10.5,1.1c-0.7-0.6-1.6-1-2.5-1.2c-3.4-0.8-7.7,1.5-8.2,5.1
		c-0.3,2.5-0.4,5,1.3,7.1c1,1.2,1.9,1.9,3.2,2.7c1.1,0.7,3.3,1,4.5,0.9c2.2-0.1,4.3-0.3,6.5-0.5c3.5-0.4,7.1-0.8,10.6-1.2
		c8.5-0.9,17.1-1.6,25.6-2.2c15.3-1.1,30.6-2,45.9-3.2c8.9-0.7,17.7-1.4,26.5-2.2c7.7-0.8,15.4-1.8,22.9-3.7
		c5.2-1.3,10.4-3.3,14.6-6.7c2.2-1.8,3.9-3.8,5.3-6.3c1.6-2.9,1.9-6,2.2-9.2c0.2-3.1,0-6.2-0.1-9.4c0-1.9-0.1-3.8-0.1-5.7
		c-0.1-4.4-0.1-8.9-0.2-13.3c-0.1-8.1,0-16.1-0.1-24.2c0-9.1-0.2-18.3-2-27.2c-0.6-2.7-1.5-5.3-2.7-7.9c-1.1-2.2-2.6-4.1-4.3-5.8
		c-3.7-3.8-9.6-4.4-14.7-4.6c-8.3-0.3-16.7-0.5-25-0.6c-14.9-0.2-29.9-0.3-44.9,0.2c-24.1,0.8-48.3,1.7-72.4,2.8
		C887.4,1596.9,886.3,1597,885.1,1597L885.1,1597L885.1,1597z M1035.8,1610.6c0.1,0.1,0.1,0.1,0.2,0.2
		C1035.9,1610.7,1035.9,1610.6,1035.8,1610.6L1035.8,1610.6L1035.8,1610.6z M1039.3,1692.2c0,0.1,0,0.3,0,0.4
		C1039.2,1692.5,1039.2,1692.4,1039.3,1692.2L1039.3,1692.2L1039.3,1692.2z"/>
	<path style="fill:#161616;" d="M943.4,1532c-14.3,1-28.8,1.6-42.7,5.1c-4.3,1.1-8.5,2.3-12.4,4.7c-2.1,1.3-3.9,3.1-5.3,5.1
		c-1.5,2.4-1.7,5.1-1.7,8c0,1.5,0.4,3,0.6,4.4c0.2,1,0.3,2.1,0.5,3.1c0.2,1.6,0.5,3.1,0.7,4.6c1.1,6.9,2.2,13.8,3,20.7
		c0.7,5,1.3,10.1,1.9,15.1c0.2,1.8,0.8,3.3,2.1,4.5c1.3,1.2,3,1.8,4.7,1.7c3.4-0.2,6.6-3.3,6.2-6.8c-1-8.3-2-16.6-3.2-24.9
		c-0.6-3.8-1.1-7.7-1.7-11.5c-0.2-1.6-0.5-3.1-0.7-4.7c-0.4-2.5-0.8-5-0.9-7.5c0.7-0.5,1.5-1,2.2-1.4c1.9-0.8,3.9-1.4,5.9-1.9
		c2.4-0.6,4.8-1.2,7.2-1.7c10.2-1.7,20.5-2.5,30.8-3.2c5.9-0.4,11.9-0.8,17.8-1.1c5.3-0.3,10.7-0.6,16-0.7
		c5.8-0.1,11.6-0.3,17.4-0.2c0.3,0.1,0.5,0.1,0.8,0.2c0,0.1,0.1,0.1,0.1,0.2c0.6,1.5,1,2.9,1.3,4.5c1.3,8.1,2,16.2,2.5,24.4
		c0.2,3.9,0.5,7.8,0.6,11.7c0.1,1.9,0.1,3.7,0.2,5.6c0.1,2.5,0.4,4.9,0.8,7.4c-0.1-0.6-0.2-1.2-0.3-1.7c0.1,0.5,0.1,0.9,0.2,1.4
		c0.3,2.8,2,5.2,4.9,5.9c2.7,0.6,5.8-0.7,7-3.2c0.9-1.9,1.2-3.5,1.2-5.5c0-0.8,0-1.7-0.1-2.5c-0.2-1.9-0.4-3.8-0.6-5.7
		c-0.4-3.5-0.7-7.1-1-10.6c-0.6-6.9-1.3-13.7-2.2-20.6c-0.2-1.9-0.5-3.8-0.8-5.6c-0.7-4.5-1.4-9.6-4.4-13.3c-1.4-1.7-3-3-5.1-3.8
		c-1.1-0.4-2.1-0.8-3.3-0.9c-1.2-0.2-2.4-0.2-3.6-0.3c-1.7-0.1-3.4-0.1-5.1-0.2c-7.2-0.1-14.5,0-21.7,0.2c-2.1,0-4.2,0.1-6.3,0.2
		C952.8,1531.3,948.1,1531.6,943.4,1532L943.4,1532L943.4,1532z M993.2,1543.8c0.2,0.1,0.4,0.3,0.6,0.4
		C993.6,1544.1,993.4,1543.9,993.2,1543.8L993.2,1543.8L993.2,1543.8z M993.2,1543.9c0.2,0.2,0.3,0.3,0.4,0.5
		C993.5,1544.3,993.4,1544.1,993.2,1543.9L993.2,1543.9L993.2,1543.9z M993.2,1544.2c0.1,0.2,0.2,0.4,0.3,0.6
		C993.4,1544.6,993.3,1544.4,993.2,1544.2L993.2,1544.2L993.2,1544.2z M895,1552.2c-0.1,0.3-0.2,0.6-0.3,0.9
		C894.8,1552.8,894.9,1552.5,895,1552.2L895,1552.2L895,1552.2z M894.6,1553.7c0,0.1,0,0.2,0,0.3
		C894.6,1553.9,894.6,1553.8,894.6,1553.7L894.6,1553.7L894.6,1553.7z"/>
	<path style="fill:#161616;" d="M998.1,1496.9c-9.9,1-19.8,2.2-29.6,3.4c-19.5,2.3-39,4.5-58.6,6.6c-9.9,1-19.9,2-29.8,3.3
		c-2.5,0.3-5,0.7-7.5,1c-1.1,0.2-2.2,0.3-3.4,0.5c-0.6,0.1-1.1,0.2-1.7,0.3c-0.9,0.1-1.7,0.3-2.6,0.5c-1,0.2-2,0.8-2.9,1.3
		c-0.8,0.5-1.4,1.3-1.9,2c-0.5,0.7-0.7,1.3-1,2.1c-0.5,1.5-0.6,3.1-0.6,4.6c0.1,2.8,0.7,5.6,1.4,8.3c0.7,2.6,1.4,5.2,2.1,7.7
		c0.7,2.5,1.5,4.9,2.3,7.3c0.7,2,1.4,4,2.4,5.8c0.9,1.8,2.7,3,4.4,3.9c1.9,1,4,1.5,6.1,1.9c2.7,0.6,5.4,0.7,8.2,0.8
		c1.3,0.1,2.6,0.1,3.9,0.2c3.6,0.1,7.2,0,10.8,0c2.4,0,4.3-2.3,4.2-4.6c-0.1-1.2-0.6-2.3-1.4-3c-0.9-0.8-2-1.1-3.2-1.1
		c-3.8-0.2-7.7-0.5-11.5-0.7c-4.1-0.4-8.4-0.5-12.3-1.8c-0.4-0.2-0.8-0.4-1.3-0.6c-0.3-0.4-0.6-0.9-0.8-1.4
		c-1.3-2.7-2.4-5.6-3.3-8.5c-1.3-4-2.6-8-3.5-12c-0.2-1.2-0.3-2.4-0.3-3.6c0-0.2,0.1-0.4,0.1-0.5c0.4-0.1,0.8-0.2,1.2-0.3
		c9.8-1.6,19.6-2.4,29.5-3.4c9.3-0.9,18.5-1.7,27.7-2.7c10.6-1.1,21.2-2.3,31.8-3.4c9.7-1.1,19.4-2.2,29-3.4
		c2.9-0.3,5.9-0.6,8.8-0.9c5.5-0.6,10.9-1.3,16.4-0.9c2.7,0.3,5.5,0.7,8.1,1.5c0.9,0.4,1.8,0.8,2.7,1.4c0.4,0.3,0.8,0.7,1.1,1
		c0.2,0.4,0.5,0.7,0.7,1.1c1,2.5,1.5,5.2,2.3,7.8c0.6,1.8,1.2,3.6,1.9,5.3c0.7,1.6,1.4,3.1,2.2,4.7c0.1,0.2,0.2,0.4,0.3,0.6
		c-1.8,0.5-3.6,0.9-5.4,1.4c-2.4,0.6-4.7,1.2-7,1.8c-5.6,1.4-11.2,2.8-16.8,4.2c-2.4,0.6-3.6,3.4-2.9,5.6c0.8,2.4,3.3,3.4,5.6,2.9
		c6.5-1.6,13-3.3,19.6-4.9c2.9-0.7,5.8-1.5,8.7-2.2c1.2-0.3,2.5-0.6,3.7-1c0.8-0.3,1.6-0.4,2.3-0.9c1-0.6,1.8-1.4,2.4-2.4
		c0.4-0.8,0.7-1.9,0.6-2.7c-0.1-1.3-0.7-2.4-1.3-3.5c-1-1.6-2-3.2-2.8-4.9c-1.3-2.9-2.3-6-3.2-9.1c-0.3-1.1-0.6-2.3-1-3.4
		c-0.4-1.4-1-2.7-1.6-4.1c-0.8-1.6-2-2.9-3.3-4c-2.4-2-5.5-3.3-8.5-4c-1.5-0.4-3.1-0.6-4.6-0.8c-2.1-0.3-4.3-0.5-6.4-0.5
		c-1.2,0-2.3,0-3.5,0C1003.1,1496.4,1000.6,1496.7,998.1,1496.9L998.1,1496.9L998.1,1496.9z M867.5,1519.6c-0.1,0.1-0.2,0.2-0.2,0.3
		C867.3,1519.8,867.4,1519.7,867.5,1519.6L867.5,1519.6L867.5,1519.6z M1037.8,1522.4c0.1,0.2,0.2,0.3,0.2,0.5
		C1037.9,1522.7,1037.8,1522.5,1037.8,1522.4L1037.8,1522.4L1037.8,1522.4z M875,1546.7c0.2,0.1,0.3,0.2,0.5,0.4
		C875.3,1547,875.1,1546.9,875,1546.7L875,1546.7L875,1546.7z"/>
	<path style="fill:#161616;" d="M1004.5,1574.5c-1.1,1.2-1.7,2.8-1.6,4.4s0.8,3.2,2,4.3c1.3,1.2,2.7,1.5,4.4,1.6
		c9.8,0.8,19.6,1.2,29.4,1.7c3,0.2,6,0.1,9,0.2c5,0.1,9.9,0.2,14.9,0.3c15.1,0.3,30.3,0.4,45.4,0.6c12.9,0.2,25.9,0.3,38.8,0.3
		c6.4,0,12.7-0.1,19.1,0c3.2,0,6.4,0.1,9.6,0.2c1.7,0,3.5,0,5.2-0.1c2.3-0.1,4.7-0.8,7-1.3c2.9-0.6,4.9-4,4.7-6.8
		c-0.1-3.2-2.4-5.4-5.3-6.4c-4.3-1.4-8.8-1.2-13.3-1.1c-3.6,0-7.1,0.1-10.7,0.2c-7.3,0.3-14.6,0.7-21.9,1c-15,0.6-29.9,0.8-44.9,0.9
		c-13.3,0.1-26.5,0.2-39.8,0.1c-6.7-0.1-13.4,0-20.1-0.3c-9.3-0.5-18.5-0.9-27.8-1.6c-0.1,0-0.3,0-0.4,0
		C1007,1572.6,1005.4,1573.6,1004.5,1574.5L1004.5,1574.5L1004.5,1574.5z"/>
	<path style="fill:#161616;" d="M1042.7,1693.6c-0.7,3.2,1.3,6.4,4.5,7.1c8,1.7,16,3.7,24,5c7.3,1.2,14.6,2.4,21.9,3.4
		c14.4,2,28.9,3.1,43.3,5.4c7.1,1.1,14.2,2.5,21.3,3.8c3.9,0.7,7.7,1.4,11.6,2.1c4.4,0.8,8.8,1.5,13.3,1.5c3.1,0,5.9-2.5,6.6-5.5
		c0.9-3.9-1.6-7.5-5.3-8.5c-2.7-0.7-5.5-1-8.3-1.4c-2.4-0.3-4.8-0.6-7.1-0.9c-5.3-0.7-10.5-1.6-15.8-2.4c-5.5-0.8-10.9-1.6-16.4-2.3
		c-5.4-0.7-10.8-1.1-16.2-1.6c0.6,0.1,1.2,0.1,1.7,0.2c-0.8-0.1-1.7-0.1-2.5-0.2c0.2,0,0.3,0,0.5,0c-1-0.1-2-0.2-3-0.3
		c0.6,0.1,1.1,0.1,1.7,0.2c-1.2-0.1-2.3-0.2-3.5-0.3c0.6,0.1,1.1,0.1,1.7,0.2c-0.9-0.1-1.8-0.2-2.8-0.2c0.3,0,0.5,0,0.8,0.1
		c-2.3-0.2-4.6-0.4-7-0.6c-9.1-0.9-18.2-1.9-27.3-3.2c-10.3-1.4-20.5-3.8-30.7-6c-0.5-0.1-1-0.2-1.5-0.1
		C1045.7,1689.1,1043.3,1690.9,1042.7,1693.6L1042.7,1693.6L1042.7,1693.6z"/>
	<path style="fill:#161616;" d="M1300.8,646.6c-3,0.9-5.8,2.2-8.1,4.2c-2.6,2.1-4.5,4.8-5.7,7.9c-2,5.1-2.2,10.8-1.7,16.2
		c0.6,6.1,1.9,12.1,3.8,17.9c1.7,5.4,3.9,10.6,6.2,15.7c2.4,5.2,5.2,10.2,8.6,14.9c3.3,4.6,7.1,8.8,11.4,12.5
		c5,4.1,10.4,7.1,16.4,9.3c7.7,2.9,16,3.6,24.2,4.3c4.3,0.4,8.5,0.5,12.8,0.6c7.9,0.3,15.7-0.1,23.6-0.3c7.3-0.2,14.7-0.5,22-0.8
		c17-0.7,34-1.5,51-2.7c3.6-0.3,7.1-0.5,10.7-0.8c3.3-0.2,6.6-0.7,9.8-1.1c7.4-0.8,14.9-1.5,22.3-2.7c5-0.8,10-1.6,15.1-2.4
		c3.1-0.5,6.2-0.9,9.3-1.5c8.5-1.6,17-3.1,25.4-5c3.8-0.8,6.1-5,5.1-8.7c-1-3.9-4.9-5.9-8.7-5.1c-17.1,3.7-34.4,6.3-51.8,8.9
		c-8.4,0.8-16.8,1.8-25.2,2.7c-2.8,0.3-5.5,0.4-8.3,0.6c-5.4,0.3-10.8,0.7-16.2,1c-7,0.5-14.1,0.7-21.1,1
		c-8.3,0.3-16.6,0.5-24.9,0.8c-19.6,0.5-39.4,1.5-59-1.1c-4.6-0.8-9-1.9-13.3-3.6c-2.8-1.3-5.4-2.9-8-4.7c-3.2-2.7-6.1-5.6-8.7-8.9
		c-4.5-6.2-8-13-10.9-20c-2.6-6.8-4.8-13.7-5.8-21c-0.2-2.7-0.3-5.4,0-8.1c0.2-1,0.5-1.9,0.8-2.8c0.1-0.1,0.1-0.2,0.2-0.3
		c0.3-0.3,0.6-0.6,0.9-0.9c0.4-0.3,0.9-0.5,1.3-0.7c1.1-0.4,2.2-0.7,3.3-0.9c0.8,0,1.7,0,2.5,0.1c1.6,0.4,3.1,0.9,4.6,1.4
		c6.5,3.1,12.2,7.4,18,11.6c5.5,4.3,11.1,8.7,16.8,12.8c1.5,1.1,3.2,2,4.8,3c4,2.5,8.4,4.4,12.8,6c4.9,1.8,10,2.8,15.2,3.4
		c4.8,0.6,9.7,0.1,14.5-0.4c1.9-0.2,3.5-0.6,4.9-2c1.3-1.2,2-3,2-4.7c0.1-3.6-3-7-6.7-6.9c-4.1,0.1-8.2,0.1-12.3-0.5
		c-5.1-0.9-10.1-2.4-14.9-4.4c-6.1-2.9-11.6-6.6-17.1-10.7c0.3,0.2,0.6,0.5,0.9,0.7c-1.8-1.4-3.6-2.8-5.4-4.2
		c0.3,0.2,0.6,0.5,0.9,0.7c-0.2-0.1-0.4-0.3-0.5-0.4c0.1,0.1,0.2,0.1,0.3,0.2c-0.1-0.1-0.2-0.2-0.4-0.3c-0.4-0.3-0.8-0.6-1.2-1
		c0.3,0.2,0.5,0.4,0.8,0.6c-0.1-0.1-0.3-0.2-0.4-0.3c0,0-0.1-0.1-0.1-0.1c0,0,0.1,0,0.1,0.1c-9.6-7.6-19.3-15.7-31.2-19.5
		c-2.8-0.9-5.8-1.3-8.8-1.2C1305.2,645.5,1302.9,645.9,1300.8,646.6L1300.8,646.6L1300.8,646.6z M1306.3,694.6
		c0.1,0.2,0.2,0.5,0.3,0.7C1306.5,695.1,1306.4,694.9,1306.3,694.6L1306.3,694.6L1306.3,694.6z M1348.2,733.3c0.2,0,0.4,0.1,0.7,0.1
		C1348.7,733.4,1348.4,733.3,1348.2,733.3L1348.2,733.3L1348.2,733.3z M1348.3,666.8c0,0,0.1,0.1,0.1,0.1c-0.2-0.1-0.4-0.3-0.6-0.4
		C1348,666.5,1348.2,666.6,1348.3,666.8L1348.3,666.8L1348.3,666.8z M1347.5,666.1c0.2,0.2,0.4,0.3,0.6,0.5
		C1347.9,666.4,1347.7,666.2,1347.5,666.1C1347.5,666.1,1347.5,666.1,1347.5,666.1L1347.5,666.1L1347.5,666.1z"/>
	<path style="fill:#161616;" d="M1340.9,613.3c-3.2,0.2-6.1,0.9-9.1,2.2c-2.7,1.1-5,2.8-7.1,4.8c-1.9,1.8-3.5,4.2-4.7,6.5
		c-1.4,2.7-2.2,5.5-2.6,8.5c-0.7,5.5,1,10.9,3.1,15.9c1.9,4.6,4.3,8.8,7,13c2.3,3.7,7,5.2,10.9,3c3.7-2.1,5.3-7.2,3-10.9
		c-2.4-3.9-4.7-7.8-6.5-12c-0.7-1.9-1.2-3.8-1.6-5.8c0-0.6,0-1.1,0.1-1.6c0.2-0.7,0.4-1.4,0.6-2.1c0.4-0.7,0.8-1.5,1.3-2.2
		c0.6-0.6,1.2-1.2,1.8-1.8c0.5-0.3,1-0.6,1.5-0.8c0.8-0.2,1.6-0.4,2.4-0.6c2-0.1,4,0,6.1,0.2c8.3,1.6,16.1,5,23.8,8.3
		c5.1,2.2,10.2,4.4,15.4,6.4c2.7,1,5.4,2,8,3c1.2,0.4,2.5,0.8,3.7,1.2c1.3,0.4,2.5,0.9,3.8,1.2c2.6,0.7,5.2,1.4,7.9,1.9
		c3.9,0.7,7.8,1.2,11.8,1.5c3.1,0.2,6-2.2,6.8-5.1c1-3.4-1.1-7.9-4.8-8.6c-8.3-1.6-16.2-4.4-24.1-7.2c-6.8-2.4-13.4-5.2-20-8
		c-12-5.1-24.6-11.5-38-10.9C1341.2,613.3,1341.1,613.3,1340.9,613.3L1340.9,613.3L1340.9,613.3z"/>
	<path style="fill:#161616;" d="M1364.4,578c-2.5,1-4.7,2.1-6.8,3.7c-1.8,1.4-3.2,3.1-4.6,5c-1.3,1.6-2.1,3.8-2.7,5.8
		c-0.8,2.4-0.7,5.2-0.6,7.7c0.5,10.4,5.5,20,9.9,29.2c1.8,3.7,6.9,4.7,10.3,2.8c1.7-1,2.9-2.6,3.5-4.4c0.6-2.1,0.2-3.9-0.7-5.8
		c-1.7-3.6-3.5-7.3-5-11c-1.2-3.2-2.1-6.4-2.6-9.8c-0.1-1.5-0.1-2.9,0-4.4c0-0.1,0.1-0.2,0.1-0.3c0.2-0.5,0.5-0.9,0.8-1.4
		c0.4-0.4,0.8-0.8,1.2-1.2c0.7-0.4,1.4-0.8,2.1-1.2c2-0.7,3.9-1.1,5.9-1.4c6.3-0.6,12.6-0.2,18.9,0.6c7.9,1.4,15.8,3,23.6,4.7
		c4.3,0.9,8.6,1.8,13,2.6c5.2,0.9,10.5,1.4,15.7,1.6c3.2,0.1,6.2-2.2,7-5.2c0.5-1.8,0.3-3.9-0.7-5.5c-0.9-1.5-2.5-3-4.3-3.3
		c-7-1.3-14.1-2.6-21.1-4.1c-6.6-1.4-13.2-3-19.9-4.2c-4.9-0.9-9.8-1.8-14.7-2.4c-4.5-0.6-8.9-0.8-13.4-0.7c-0.4,0-0.8,0-1.2,0
		C1373.5,575.6,1368.8,576.3,1364.4,578L1364.4,578L1364.4,578z M1367,609.5c0.1,0.3,0.3,0.6,0.4,0.9
		C1367.3,610.2,1367.1,609.9,1367,609.5L1367,609.5L1367,609.5z"/>
	<path style="fill:#161616;" d="M1330.9,415c-1.5,0.3-2.9,0.9-4.3,1.5c-1.2,0.5-2.2,1.6-3.3,2.4c-1,0.7-1.8,1.6-2.7,2.5
		c-5.7,5.6-10.9,11.6-16.1,17.7c-10.8,12.8-20.1,26.7-29.2,40.8c-9,14-17,28.8-25.1,43.4c-7.8,14-16,27.9-23.5,42
		c-2,3.7-4.1,7.4-5.9,11.3c-2.2,4.6-4.2,9.2-6.1,13.9c-1.3,3.1-2.5,6.3-3.6,9.5c-0.9,2.7-1.6,5.6-2.1,8.4c-0.6,3-0.9,6-0.6,9.1
		c0.2,2.4,0.6,4.7,1.4,7c0.3,0.8,0.6,1.6,0.9,2.5c0.8,2.1,1.6,4.2,2.4,6.2c6,15.3,12.8,30.3,19.1,45.5c1.3,3.1,2.5,6.2,3.8,9.2
		c6.4,16,12.5,32.1,19.1,48c1.6,3.8,3.2,7.6,4.9,11.3c1,2.3,2.1,4.7,3.3,7c2.7,5.3,5.9,10.1,9.6,14.8c3.2,4.1,8,8.2,13.4,8.6
		c1.1,0.1,2.5,0,3.5-0.3c1.5-0.4,3.5-1.3,4.6-2.4c1.4-1.4,2.6-3.1,3.6-4.8c2-3.4,4-6.8,6.2-10.2c6.3-9.8,13.2-19.3,20.1-28.8
		c2.3-3.2,0.6-8-2.6-9.9c-1.6-1-3.6-1.3-5.5-0.8c-2,0.5-3.3,1.7-4.4,3.3c-4.9,6.8-9.9,13.6-14.7,20.6c-2.1,3.1-4.3,6.3-6.3,9.4
		c-1.5,2.3-2.9,4.6-4.4,6.8c-0.9-0.9-1.7-1.9-2.5-2.9c-5.4-7.5-9-15.8-12.7-24.2c-1.9-4.3-3.6-8.6-5.3-13
		c-5.6-14.3-11-28.7-16.8-42.8c-5.7-13.9-11.7-27.7-17.5-41.6c0.1,0.2,0.2,0.4,0.3,0.7c-0.1-0.3-0.2-0.6-0.3-0.9
		c-0.2-0.4-0.3-0.7-0.5-1.1c0.1,0.2,0.2,0.5,0.3,0.7c-1.1-2.7-2.2-5.4-3.3-8.2c-1.4-3.5-2.8-6.9-3.5-10.6c-0.1-1.3,0-2.6,0.1-3.9
		c1.4-7.7,4.4-14.9,7.4-22.1c1.5-3.2,2.9-6.4,4.5-9.5c2-3.8,4-7.7,6.1-11.5c4.1-7.2,8.1-14.4,12.2-21.7
		c8.3-14.7,16.3-29.6,24.8-44.1c9.3-15.9,19.4-31.3,30.4-46.1c3.8-4.9,7.8-9.6,11.8-14.3c2-2.3,4.2-4.6,6.3-6.9c1.9-2,3.8-4,5.9-5.9
		c1.2,0.6,2.2,1.3,3.3,2c5,4.1,9,9.2,12.9,14.2c2.5,3.4,5,6.7,7.4,10.1c2.4,3.3,4.6,6.8,6.9,10.1c4.4,6.5,8.6,13.2,13.1,19.7
		c9.3,13.8,18.7,27.6,28.7,40.9c5.5,7.4,11.2,14.6,16.7,21.9c-0.2-0.2-0.4-0.5-0.6-0.7c2.3,3,4.7,6.1,6.4,9.5
		c0.1,0.3,0.2,0.6,0.3,0.9c0,0.5,0,1-0.1,1.5c-0.4,1.6-0.9,3.1-1.5,4.7c-1.8,3.8-3.7,7.3-5.9,10.8c-3,0.3-5.6,2.3-6.5,5.2
		c-1.1,3.9,1.2,7.8,5,9c1.3,0.4,2.7,0.8,4,0.8c2,0,4.6-0.6,6.3-1.6c2.7-1.6,4.5-4.5,6.1-7.2c1.3-2.1,2.4-4.2,3.5-6.4
		c2.2-4.3,4.1-8.9,4.8-13.8c0.6-3.9-0.1-7.4-1.6-11c-0.8-1.7-1.8-3.3-2.8-4.9c-3-4.6-6.5-8.9-9.9-13.2c-3-3.9-6-7.7-8.9-11.6
		c-9.8-13.1-19.1-26.5-28.2-40c-4.7-7-9.4-14-14-21.1c-4.5-6.8-9.3-13.5-14.1-20.1c-5.3-7.2-10.7-14.5-17.8-20.1
		c-4.1-3.2-9.1-6.3-14.4-6C1332.3,414.7,1331.6,414.8,1330.9,415L1330.9,415L1330.9,415z M1335.5,430c-0.3,0.1-0.5,0.2-0.8,0.3
		C1335,430.2,1335.2,430.1,1335.5,430L1335.5,430L1335.5,430z M1350.3,447.6c0.3,0.3,0.5,0.7,0.8,1
		C1350.9,448.2,1350.6,447.9,1350.3,447.6L1350.3,447.6L1350.3,447.6z M1423.4,576.1c-0.3,0.1-0.5,0.3-0.8,0.3c0,0-0.1,0-0.1,0
		C1422.8,576.4,1423.1,576.2,1423.4,576.1L1423.4,576.1L1423.4,576.1z M1421.3,576.7c0,0,0.1,0,0.1,0c0,0,0,0,0,0c0,0,0,0,0,0
		C1421.3,576.7,1421.3,576.7,1421.3,576.7L1421.3,576.7L1421.3,576.7z M1264.8,718.7c0.2,0.4,0.4,0.9,0.5,1.3
		C1265.2,719.6,1265,719.1,1264.8,718.7L1264.8,718.7L1264.8,718.7z M1287.9,762.1C1287.9,762.1,1287.9,762.1,1287.9,762.1
		C1287.9,762.1,1287.9,762.1,1287.9,762.1C1287.9,762.1,1287.9,762.1,1287.9,762.1L1287.9,762.1L1287.9,762.1z M1231.2,635.9
		c0,0.1,0.1,0.1,0.1,0.2c-0.1-0.2-0.2-0.4-0.2-0.6C1231.1,635.6,1231.1,635.8,1231.2,635.9L1231.2,635.9L1231.2,635.9z
		 M1422.3,549.1c-0.2-0.3-0.5-0.6-0.7-0.9C1421.8,548.5,1422.1,548.8,1422.3,549.1L1422.3,549.1L1422.3,549.1z"/>
	<path style="fill:#161616;" d="M1375.5,397.2c-3.8,0.8-7.5,2.1-11.2,3.3c-3.3,1.1-6.7,2.2-10,3.4c-4.1,1.5-8.3,3.1-12.2,5
		c-3.7,1.8-7.4,4-10.1,7.1c-2.3,2.6-3,6.1-1.3,9.2c1,1.7,2.6,3,4.5,3.5c1.8,0.5,4.3,0.4,5.9-0.7c4-2.8,8.3-5,12.8-7.1
		c4.2-1.6,8.4-3.1,12.7-4.5c5.1-1.7,10.2-3.5,15.5-4.4c0.5,0,0.9,0,1.3,0c1.6,1.7,3,3.7,4.4,5.5c0-2.1,0.3-4,0.8-6.4
		c0.5-2.3,1.2-4,2.4-6.2c0.9-1.6,2-3.1,3.2-4.6c-0.7-0.7-1.5-1.4-2.4-2c-3-1.9-6.3-2.4-9.6-2.3
		C1380,396.3,1377.7,396.7,1375.5,397.2L1375.5,397.2L1375.5,397.2z"/>
	<path style="fill:#161616;" d="M1387.9,417.6C1387.9,417.6,1387.9,417.6,1387.9,417.6c-0.4-0.6-0.8-1.1-1.2-1.7
		C1387,416.5,1387.5,417.1,1387.9,417.6L1387.9,417.6L1387.9,417.6z"/>
	<path style="fill:#161616;" d="M1457.9,547.1c0,0.2,0,0.3,0,0.5c-1.5,0.8-3.2,1.5-4.8,2.2c-1.7,0.8-3.5,1.5-5.2,2.2
		c-2.3,0.9-4.6,1.8-6.9,2.7c-1.7,0.7-3,1.4-3.9,3c-0.9,1.5-1.1,3.2-0.7,4.9c0.4,1.6,1.5,3.1,3,3.9c1.3,0.8,3.4,1.3,4.9,0.7
		c4-1.6,8.1-3.2,12.1-4.7c1.7-0.7,3.4-1.3,5-1.9c1.7-0.6,3.4-1.3,5-2.1c1.3-0.7,2.4-1.8,3.2-3c1-1.5,1.7-3.1,2.1-4.8
		c0.8-3.3,0.4-6.7-0.5-10c-2.1,1-4.5,1.4-6.8,1.2c-0.3,0-0.6-0.1-0.9-0.1c-0.5,0-1.1,0-1.7,0c-2.1-0.2-4.1-0.8-6-1.8
		C1456.7,542.3,1457.4,544.6,1457.9,547.1L1457.9,547.1L1457.9,547.1z M1458.1,546.8c0,0.2-0.1,0.5-0.1,0.7
		C1458.1,547.2,1458.1,547,1458.1,546.8L1458.1,546.8L1458.1,546.8z"/>
	<path style="fill:#161616;" d="M1119.6,297.2c-0.8,0.1-1.6,0.1-2.4,0.1c-1.9,0.1-3.8,0.1-5.7,0.4c-4.1,0.5-8.1,1-12.2,1.6
		c-3.4,0.5-6.8,0.9-10.2,1.3c-9.5,1.2-18.8,3.2-28,5.7c-14.6,4.1-28.9,9.8-42.5,16.5c-4.3,2.1-8.6,4.2-12.9,6.3
		c-1.9,1-3.8,1.9-5.7,3c-4,2.3-7.9,4.6-11.9,6.8c-6.2,3.6-12.2,7.6-18,11.8c-8,5.7-15.4,12.1-22.5,18.9c-7.3,7.1-14.3,14.4-21,22.2
		c-4.1,4.8-8,9.8-11.5,15.1c-1.3,2-2.6,3.9-3.9,5.8c-0.7,1-1.5,2.1-2.1,3.2c-1.2,2-2.4,3.9-3.5,5.9c-0.9,1.5-1.8,2.9-2.6,4.5
		c-2.3,4.5-4.6,8.9-6.5,13.4c-1.6,3.8-3.1,7.5-4.5,11.4c-0.8,2.1-1.6,4.3-2.4,6.4c-0.2,0.7-0.5,1.4-0.7,2.2
		c-5.3-1.5-10.4-3.8-15.5-5.8c-2.7-1.1-5.4-2.2-8.2-3.1c-2-0.6-3.9-1.2-5.9-1.7c-1.6-0.5-3.2-0.7-4.8-1.1c-3.7-0.8-7.3-1.6-11-2.1
		c-0.8-0.1-1.7-0.2-2.5-0.3c-1.1-0.1-2-0.3-3.1-0.2c-2.1,0.1-3,0.3-4.9,1c-2.4,0.9-4.3,2.5-5.9,4.4c-1.9,2.4-2.8,5.2-3,8.2
		c-0.2,2.5,0.4,5.1,0.8,7.6c0.5,2.6,1.5,5.1,2.4,7.5c1.6,4.3,3.6,8.4,5.7,12.4c3.2,5.8,6.4,11.5,9.5,17.3c2,3.7,4,7.4,6,11.1
		c1.6,3,3,6.1,4.6,9.1c3.2,6.3,5.9,12.7,8.8,19.1c1.2,2.8,2.3,5.6,3.4,8.5c1.1,2.7,2.3,5.4,3.3,8.2c2.6,7.1,5.2,14.1,7.6,21.2
		c2.2,6.3,4.5,12.6,7,18.8c1.2,3,2.6,5.9,3.9,8.8c0.8,1.7,1.6,3.2,2.7,4.7c1.5,2.1,3.4,3.5,5.8,4.3c2.9,1,6.2,0.6,9-0.5
		c2.5-1,4.7-2.6,6.9-4.1c2.4-1.7,4.6-3.7,6.8-5.7c1.7-1.5,3.5-3,5.2-4.5c2.3-2,4.6-4,6.8-6c5.6-5,11.4-9.8,17.1-14.6
		c10.5-8.8,21.5-17,32.5-25.3c4.8-3.6,9.6-7,14.4-10.6c2.9-2.1,5.7-4.2,8.5-6.4c2.7-2.1,5.5-4.1,8-6.5c2.4-2.3,4.6-4.5,6.7-7.1
		c1.8-2.1,2.9-5.3,2.9-8.1c-0.1-3.2-1-6.1-2.8-8.8c-1.6-2.5-3.4-4.6-5.6-6.6c-2.2-2-4.4-3.8-6.8-5.6c-3.1-2.2-6.3-4.2-9.7-6
		c-3.8-2-7.6-4-11.6-5.6c-3.7-1.5-7.4-2.8-11-4.3c0-0.2,0-0.4,0.1-0.6c0.4-1.3,0.9-2.5,1.4-3.7c2.6-4.9,5.9-9.3,9.5-13.5
		c2.9-3.3,6-6.4,9.1-9.6c2-2,3.9-4,5.9-5.9c3.3-3,6.6-6,9.9-9c2.3-2,4.6-3.9,7-5.9c4.9-4.2,9.9-8.3,15.1-12.1
		c3.1-2.3,6.2-4.6,9.2-6.9c2.9-2.2,5.9-4.2,8.9-6.3c0.3-0.3,0.7-0.5,1-0.7c-0.2,0.1-0.3,0.2-0.5,0.3c2.7-1.8,5.3-3.5,7.9-5.3
		c2.9-1.9,5.8-3.6,8.8-5.4c5.8-3.6,11.8-6.7,17.8-9.8c5.9-3.1,12.1-5.6,18.2-8.1c6.2-2.5,12.4-4.8,18.6-7c1.1-0.4,2.2-0.8,3.3-1.2
		c2.8-0.9,5.6-1.8,8.4-2.7c3.2-1,6.5-1.8,9.8-2.7c6.2-1.7,12.5-3.2,18.8-4.5c6.7-1.4,13.4-2.9,20.1-4c6.6-1.1,13.2-2.1,19.8-2.7
		c3.7-0.4,7.5-0.7,11.2-1.1c2.5-0.2,5.1-0.4,7.6-0.5c8.6-0.2,17.3-0.3,25.9-0.1c8.3,0.2,16.6,0.3,24.7,1.8c1.8,0.4,3.5,0.9,5.2,1.4
		c1,0.3,2.1,0.7,3.2,1c1.8,0.5,3.6,0.7,5.4,0.9c3.1,0.4,6.1-1.6,7.4-4.3c1.3-1,1.9-2.7,1.7-4.4c-0.3-2.1-0.8-4.1-1.5-6.2
		c-0.7-2.1-2.1-4.1-3.3-5.8c-2.7-3.8-6.3-6.8-10.1-9.6c-3.5-2.5-7.3-4.6-11-6.7c-4.3-2.5-8.9-4.5-13.5-6.4
		c-11.3-4.7-23.1-7.7-35-10.7c-2.5-0.7-5.1-1.1-7.6-1.6c-4.7-0.8-9.3-1.7-14-2.5c-16.1-2.8-32.5-3.7-48.8-3.7
		c-4.8,0-9.6,0.2-14.3,0.4C1129.5,296.6,1124.6,296.9,1119.6,297.2L1119.6,297.2L1119.6,297.2z M962.8,376.1
		c7.3-6.8,15.2-12.9,23.4-18.5c5.3-3.5,10.7-6.7,16.2-9.9c3.3-1.9,6.5-3.8,9.9-5.5c5.3-2.7,10.6-5.3,15.8-8c3.6-1.8,7.3-3.4,10.9-5
		c5.8-2.5,11.7-4.9,17.8-7c11.6-3.9,23.6-6.7,35.7-8.5c6.4-0.9,12.7-1.9,19.1-2.8c3.9-0.6,7.8-0.8,11.7-1.1
		c5.1-0.4,10.3-0.7,15.4-1.1c9.7-0.3,19.3-0.5,29-0.1c4.9,0.2,9.8,0.5,14.8,1c3.7,0.3,7.5,0.6,11.2,1.2c6.9,1,13.8,2,20.6,3.1
		c4.7,1,9.4,2.1,14,3.1c5.1,1.1,10.1,2.5,15.1,4.1c6.4,2,12.7,4.5,18.7,7.4c5.7,2.9,11.3,6.1,16.2,10.1c0.6,0.6,1.1,1.1,1.7,1.7
		c-0.2-0.1-0.4-0.1-0.7-0.2c-3.7-1-7.5-1.8-11.3-2.3c-6.4-0.9-13-1-19.4-1.2c-14-0.3-28.1-0.2-42.1,1.1c-13.5,1.3-26.9,3-40.2,5.8
		c-13.7,2.9-27.3,6.1-40.7,10.3c-6.8,2.1-13.5,4.6-20.2,7.1c-3,1.1-6,2.2-9,3.4c-3.1,1.3-6.2,2.4-9.2,3.8c-6.2,2.8-12.3,5.6-18.2,9
		c-1.4,0.8-2.8,1.6-4.2,2.3c-0.9,0.6-1.8,1.2-2.7,1.8c-4.4,3-8.7,6-13,9.1c-4.8,3.5-9.7,7.1-14.4,10.7c-4.3,3.2-8.4,6.8-13.1,9.4
		c-1.3,0.9-2.8,1.6-4.3,2c-0.6,0.4-1.3,0.7-2,1c-5.3,4.3-10.6,8.6-15.8,13c-2.5,2.1-4.9,4.4-7.3,6.6c-2.1,1.9-4.2,3.7-6.1,5.7
		c-3.3,3.4-6.8,6.8-10,10.3c-4,4.4-7.9,8.8-11.3,13.7c-1.4,2-2.7,4.2-3.8,6.4c-1.6,3.1-3,6.2-3.6,9.7c-0.5,3.2-0.2,6.3,0.9,9.3
		c1.1,3,3.3,5.4,6.1,7c2.8,1.6,5.9,2.6,8.8,3.7c3.7,1.4,7.3,3,10.9,4.6c0.4,0.2,0.8,0.4,1.3,0.6c2.3,0,4.7,0.5,6.6,1.4
		c2.3,1.1,4.2,2.7,5.6,4.7c0.5,0.7,0.9,1.5,1.3,2.2c0.5,0.4,1,0.8,1.5,1.3c1.4,1.3,2.7,2.6,3.9,4.1c0,0,0,0,0.1,0.1
		c0,0-0.1,0.1-0.1,0.1c-1.6,1.7-3.2,3.2-5,4.7c-0.6,1.6-1.4,3.1-2.5,4.4c-11,10.1-22.9,19.3-34.9,28.2c-4.5,3.3-9,6.5-13.7,9.4
		c-1.3,1-2.5,2-3.8,2.9c-2.3,1.8-4.6,3.6-6.9,5.3c-0.8,0.6-1.7,1.4-2.6,1.9c-2,1.1-4,2-6,2.3c-2.2,1.9-4.3,3.7-6.5,5.6
		c-2.8,2.4-5.5,4.8-8.3,7.2c-1.9,1.7-3.9,3.4-5.8,5.1c-2.3,2-4.5,4-6.9,5.8c-0.4-0.8-0.8-1.7-1.2-2.5c-0.8-1.6-1.4-3.3-2.1-4.9
		c-1.2-2.6-2.2-5.3-3.2-8.1c-2.4-6.6-4.5-13.2-6.9-19.7c-2.3-6.2-4.5-12.3-7-18.4c-1.4-3.6-2.9-7.2-4.3-10.8
		c-1.3-3.3-2.9-6.5-4.4-9.8c-3.9-8.8-8.4-17.4-12.9-25.8c-2.2-4.2-4.5-8.3-6.8-12.5c-4-7.3-8.1-14.5-11-22.3
		c-0.5-1.6-0.8-3.1-1.1-4.7c1.1,0.2,2.3,0.4,3.4,0.5c1.6,0.2,3.2,0.6,4.8,0.8c2.5,0.5,4.9,1.1,7.3,1.8c1.7,0.5,3.3,1,5,1.5
		c1.7,0.5,3.5,1.3,5.2,1.9c3.1,1.2,6.2,2.5,9.3,3.7c4.5,1.8,8.9,3.4,13.7,4.2c1.1,0.2,2.1,0.2,3.2,0.2c0.4,0,0.8-0.1,1.2-0.1
		c1.4-0.2,2.6-0.6,3.9-1.1c1.3-0.5,2.9-2.1,3.7-3.2c0.6-0.9,1.1-1.9,1.6-3c0.5-1,0.7-2.1,1.1-3.2c0.2-0.7,0.5-1.5,0.7-2.2
		c0.4-1.3,0.9-2.6,1.3-3.9c1.2-3.3,2.4-6.6,3.7-9.8c1.1-2.8,2.3-5.6,3.5-8.4c0.6-1.5,1.4-2.9,2.2-4.4c0.4-0.9,0.9-1.8,1.3-2.6
		c2.6-4.4,5-8.7,7.8-13c1.7-2.6,3.4-5.1,5.2-7.7c0.2-1.6,0.6-3.1,1.2-4.7c1.4-3.8,4.3-7,7-9.9c1.8-2,3.8-3.8,5.8-5.5
		c2.8-2.5,5.6-4.8,8.5-7.1c0.7-0.6,1.4-1.1,2.1-1.6C956.7,381.9,959.7,379,962.8,376.1L962.8,376.1L962.8,376.1z M1057.8,322
		c-0.3,0.1-0.6,0.2-1,0.3C1057.1,322.2,1057.4,322.1,1057.8,322L1057.8,322L1057.8,322z M1056.5,322.4c-0.2,0.1-0.4,0.1-0.6,0.2
		C1056.1,322.6,1056.3,322.5,1056.5,322.4L1056.5,322.4L1056.5,322.4z M985.8,357.9c-0.2,0.2-0.4,0.3-0.7,0.4
		C985.3,358.2,985.5,358.1,985.8,357.9L985.8,357.9L985.8,357.9z M1123.9,371.4c-0.4,0.1-0.8,0.3-1.2,0.4
		C1123.1,371.6,1123.5,371.5,1123.9,371.4L1123.9,371.4L1123.9,371.4z M840.2,459.9c0,0.1-0.1,0.1-0.1,0.2
		C840.1,460,840.2,459.9,840.2,459.9L840.2,459.9L840.2,459.9z M840.2,460.3c-0.1,0-0.1,0.1-0.2,0.1
		C840,460.4,840.1,460.4,840.2,460.3L840.2,460.3L840.2,460.3z M984.7,463.2c-0.1,0.1-0.2,0.3-0.3,0.4
		C984.4,463.4,984.6,463.3,984.7,463.2L984.7,463.2L984.7,463.2z M972.4,481.2c0.1,0.2,0.1,0.3,0.2,0.5
		C972.5,481.6,972.4,481.4,972.4,481.2L972.4,481.2L972.4,481.2z M972.9,482.3L972.9,482.3c0.1,0.1,0.2,0.1,0.3,0.2
		C973,482.4,972.9,482.3,972.9,482.3L972.9,482.3L972.9,482.3z M1005,516.3c0,0.3-0.1,0.6-0.2,0.8
		C1004.8,516.9,1004.9,516.6,1005,516.3L1005,516.3L1005,516.3z M1004.2,517.8c0,0,0,0.1,0.1,0.1c0,0,0,0,0,0
		C1004.2,517.9,1004.2,517.8,1004.2,517.8L1004.2,517.8L1004.2,517.8z M897.7,602.7c0.3,0,0.6,0,0.8-0.1c0,0,0,0,0,0
		c-0.1,0-0.3,0-0.4,0C898,602.7,897.9,602.7,897.7,602.7L897.7,602.7L897.7,602.7z"/>
	<path style="fill:#161616;" d="M934.8,575c0.1-0.1,0.2-0.1,0.2-0.2C934.9,574.8,934.8,574.9,934.8,575L934.8,575L934.8,575z"/>
	<path style="fill:#161616;" d="M520.2,1553.3c-2.3,0.2-4.6,0.6-6.9,1.2c-1.5,0.4-2.9,0.8-4.3,1.4c-3.3,1.5-5.9,3.8-8.4,6.5
		c-1.8,2-3.3,4.5-4.7,6.8c-0.8,1.4-1.6,2.9-2.3,4.4c-1,2.2-2,4.3-2.9,6.5c-2.2,5.3-3.8,11-5,16.6c-0.7,3.2,1.2,6.6,4.1,8
		c3.5,1.6,8.4,0.2,9.9-3.6c3.4-8.6,6.2-17.6,10.9-25.6c1-1.4,2-2.7,3.1-3.9c0.5-0.4,1-0.8,1.6-1.1c0.7-0.3,1.4-0.5,2.2-0.7
		c4.3-0.7,8.6-0.8,13-0.7c16.4,0.9,32.6,3.3,48.7,6c8.4,1.4,16.8,2.9,25.2,4.4c7.4,1.3,14.9,2.6,22.3,4.1c9.8,1.9,19.6,3.8,29.2,6.6
		c3.1,1,6,2.2,8.8,3.8c0.5,0.4,1,0.7,1.4,1.1c0.2,0.5,0.4,1,0.5,1.5c1.5,7.1,2.3,14.4,3.4,21.5c0.6,4,1.5,8,2.5,11.9
		c0.5,2.1,1.1,4.2,1.7,6.2c0,0.1,0,0.1,0,0.2c-2,0-3.9-0.1-5.8-0.1c-4,0-8.1,0-12.1,0c-8.1,0-16.2,0-24.3-0.1
		c-16.7-0.2-33.3-0.8-50-1.2c-10.7-0.3-21.4-0.7-32.2-0.9c-16.3-0.2-32.6-0.4-48.9-0.5c-2,0-4.1,1.3-5.3,2.8
		c-1.4,1.6-2.1,3.8-1.8,5.9c0.2,2.1,1.2,4,2.8,5.3c1.8,1.5,3.7,1.8,5.9,1.8c19.8,0.1,39.6,0.2,59.4,0.7c17.7,0.5,35.3,1.1,53,1.5
		c14.5,0.4,29,0.4,43.5,0.4c6.9,0,13.9,0.1,20.9,0c1.3,0,2.5-0.1,3.8-0.3c3.5-0.5,6.6-2.5,8.1-5.8c1.9-4.1,0.3-8.6-1.1-12.6
		c-1-3.1-1.9-6.1-2.6-9.3c-1.6-7.6-2.6-15.2-3.7-22.9c-0.3-1.8-0.6-3.6-0.9-5.3c-0.8-4.1-1.7-8.2-4.5-11.4
		c-3.7-4.3-8.9-6.7-14.2-8.6c-5.9-2.1-12-3.7-18.1-5c-16.6-3.7-33.5-6.6-50.2-9.5c-8.5-1.5-17-2.9-25.5-4.3
		c-8.3-1.4-16.6-2.3-24.9-3.1c-4.1-0.4-8.2-0.7-12.4-0.9c-3.5-0.2-7-0.3-10.5-0.1C521.8,1553.1,521,1553.2,520.2,1553.3
		L520.2,1553.3L520.2,1553.3z M665.4,1594c0.2,0.2,0.3,0.4,0.5,0.5C665.7,1594.3,665.5,1594.2,665.4,1594L665.4,1594L665.4,1594z"/>
	<path style="fill:#161616;" d="M570.9,1484.9c-4,0.3-7.9,0.9-11.9,1.4c-8.6,1.1-17.4,2.6-24.8,7.4c-1.1,0.7-2.2,1.8-3.1,2.7
		c-0.7,0.8-1.3,1.5-1.9,2.4c-1.7,2.6-2.8,5.6-2.7,8.7c0.1,2.5,0.5,5,0.7,7.5c1.6,16.2,2.3,32.5,2,48.7c0,1.8,1.3,3.8,2.6,4.9
		c1.5,1.3,3.5,1.9,5.5,1.7c1.9-0.2,3.7-1.1,4.9-2.6c1.4-1.7,1.6-3.4,1.7-5.5c0.2-9.2,0.1-18.5-0.3-27.7c-0.2-4.7-0.4-9.4-0.7-14.1
		c-0.1-2.1-0.3-4.2-0.4-6.2c-0.2-2.2-0.4-4.5-0.6-6.7c0.1-0.2,0.3-0.3,0.4-0.5c0.6-0.5,1.3-0.9,2-1.3c2.2-1,4.4-1.7,6.8-2.3
		c5.6-1.2,11.4-1.8,17.1-2.5c4.1-0.5,8.2-0.7,12.2-1c8.2-0.6,16.3-0.9,24.5-1.3c4.7-0.2,9.5-0.2,14.2-0.3c3.6-0.1,7.3-0.1,10.9,0
		c8.6,0,17.1,0.2,25.7,0.4c0.4,0,0.8,0,1.2,0c7.2,0.3,14.4,0.8,21.6,1.6c3.3,0.4,6.5,0.8,9.8,1.3c3.6,0.5,7.3,1,10.8,1.7
		c0.3,0.4,0.6,0.9,0.9,1.3c0.9,2.1,1.6,4.3,2.2,6.5c0.8,3.7,1.4,7.5,2,11.2c0.5,4,1.1,8,1.4,12c0.2,3.4,3,6.2,6.3,6.8
		c3.9,0.7,8.4-2.1,8.8-6.2c0.3-2.8,0.3-5.6,0-8.4c-0.2-1.9-0.5-3.8-0.7-5.7c-0.7-4.7-1.6-9.4-2.7-14c-0.6-2.6-1.4-5.1-2.4-7.5
		c-0.6-1.4-1.4-2.8-2.2-4.1c-0.7-1.2-1.9-2.7-3-3.6c-1.2-1-2.5-1.8-3.9-2.6c-0.3-0.1-0.6-0.2-0.9-0.3c-0.9-0.4-1.9-0.6-2.9-0.8
		c-1.3-0.3-2.7-0.5-4-0.7c-4-0.6-8-1.1-12-1.6c-16.5-2.2-33.2-2.9-49.8-2.9c-9,0-17.9,0-26.9,0.2c-8.3,0.1-16.7,0.6-25,0.9
		c-0.1,0-0.2,0-0.3,0C579.8,1484,575.4,1484.5,570.9,1484.9L570.9,1484.9L570.9,1484.9z M550.4,1503.5c-0.3,0.1-0.6,0.1-0.9,0.2
		C549.8,1503.6,550.1,1503.6,550.4,1503.5L550.4,1503.5L550.4,1503.5z M542.2,1506c-0.1,0.3-0.2,0.6-0.3,0.8
		C542.1,1506.6,542.1,1506.3,542.2,1506L542.2,1506L542.2,1506z M698.4,1502.9c0.2,0.1,0.4,0.1,0.6,0.2
		C698.8,1503.1,698.6,1503,698.4,1502.9L698.4,1502.9L698.4,1502.9z M699.6,1503.4C699.6,1503.4,699.6,1503.4,699.6,1503.4
		c0.3,0.1,0.5,0.3,0.8,0.5C700.1,1503.7,699.9,1503.6,699.6,1503.4L699.6,1503.4L699.6,1503.4z"/>
	<path style="fill:#161616;" d="M1410.3,396.1c-3.6,0.4-6.9,1.3-10.3,2.5c-5.3,1.8-9.9,5.6-12.9,10.3c-3.6,5.7-3.5,13-1.2,19.1
		c3.1,8,9.2,14.5,15.8,19.8c7,5.7,14.2,11,21.1,16.8c7.6,6.9,15,14.3,20.8,22.7c1.3,2.2,2.5,4.3,3.5,6.6c0.7,1.5,1.3,3.1,1.8,4.8
		c1.9,6.7,3.2,13.6,4.4,20.5c1.1,6.5,2.4,12.9,3,19.4c0,1.3,0,2.5-0.1,3.8c-0.2,2.3-0.1,4.5,0.1,6.8c0.3,3.2,3.6,5.7,6.7,6
		c3.4,0.3,6.3-1.8,7.5-4.9c0.8-2.2,1.5-4.4,1.7-6.7c0.2-2.4,0.2-4.9-0.1-7.3c-0.3-3.6-0.8-7.3-1.5-10.9c-1.3-7.8-2.5-15.6-4.3-23.3
		c-1.1-4.5-2.3-8.9-4-13.3c-1.6-4.2-4-8.1-6.5-11.8c-4.4-6.7-10.1-12.4-15.7-18c-9-9-19.4-16.2-29.2-24.2c-3-2.8-5.8-5.6-8.2-8.9
		c-0.8-1.3-1.5-2.7-2.1-4.2c-0.2-0.8-0.3-1.6-0.5-2.4c0-0.2,0-0.5,0-0.7c0.2-0.5,0.3-1,0.5-1.5c0.2-0.3,0.4-0.6,0.7-1
		c0.4-0.4,0.9-0.8,1.4-1.2c1.3-0.7,2.7-1.4,4.1-1.9c2.6-0.7,5.2-1.1,7.9-1.3c3.9-0.1,7.7,0,11.6,0.6c5.4,1.3,10.5,3.4,15.5,5.7
		c4.3,2.3,8.6,4.8,12.5,7.7c4.2,3,8.1,6.3,12,9.6c5.5,5.2,10.9,10.5,16.3,15.8c5.6,5.6,11.4,11,17.1,16.7c3.1,3.1,6.2,6.1,9.2,9.2
		c3.3,3.6,6.6,7.1,10,10.7c2.4,2.6,4.7,5.4,6.9,8.1c3.7,4.5,7.4,8.9,11,13.5c2.6,3.3,7.9,3.5,11,0.8c3.3-2.9,3.5-7.7,0.8-11
		c-3.6-4.5-7.3-9-11-13.5c-2.3-2.7-4.5-5.5-6.9-8.1c-3.3-3.6-6.6-7.1-10-10.7c-2.9-3.2-6.1-6.2-9.1-9.3c-5.6-5.6-11.4-11.1-17-16.7
		c-6.1-6.1-12-12.4-18.5-18c-6.1-5.2-12.2-10.3-19.1-14.5c-4.1-2.4-8.2-4.6-12.5-6.6c-3.3-1.6-6.8-3-10.4-3.9
		c-3.5-0.9-7-1.8-10.7-1.9c-2-0.1-4-0.2-6-0.1c-1.3,0-2.6,0-3.9,0.1C1412.4,395.9,1411.4,396,1410.3,396.1L1410.3,396.1
		L1410.3,396.1z"/>
	<path style="fill:#161616;" d="M1541.9,498.8c-3,2.6-3.4,7.3-0.7,10.3c5.7,6.5,11.4,13.1,16.9,19.8c1.1,1.3,2.2,2.6,3.3,3.9
		c1.1,1.2,2.3,2.2,3.6,3.2c1,0.9,2.3,1.4,3.5,2c1.1,0.5,2.3,1,3.5,1.4c4.1,1.2,8.3,2.3,12.5,2.9c7.9,1,15.9,1.2,23.9,1.2
		c8,0,16.1,0.1,24.1,0.6c10.5,0.6,21,1.7,31.6,2.3c10.1,0.5,20.3,0.9,30.4,1c3.6,0,6.8-1.8,8-5.3c0.6-1.9,0.5-4.1-0.3-5.9
		c-0.8-1.7-2.6-3.7-4.6-4.1c-1.6-0.3-3.1-0.7-4.6-0.7c-0.8,0-1.6,0-2.4,0c-1.8,0-3.6-0.1-5.4-0.1c-3.9-0.1-7.7-0.2-11.6-0.4
		c-7.8-0.3-15.6-0.9-23.4-1.4c-8.1-0.6-16.2-1.2-24.3-1.4c-8.1-0.3-16.3-0.1-24.5-0.3c-6.1-0.1-12.2-0.4-18.3-1.4
		c-2.9-0.6-5.8-1.3-8.5-2.4c-0.6-0.4-1.2-0.8-1.8-1.3c-3.3-3.1-6.2-6.6-9.2-9.9c-3.8-4.3-7.6-8.6-11.3-12.9
		c-1.5-1.7-3.7-2.6-5.9-2.5C1544.7,497.1,1543.2,497.7,1541.9,498.8L1541.9,498.8L1541.9,498.8z"/>
	<path style="fill:#161616;" d="M1555.5,721.7c-1.1,3.4,0.7,6.7,3.9,8c14.3,5.6,29,9.8,43.4,15.3c14.3,5.5,28.3,11.7,42.2,18.2
		c28.4,13.2,57,25.9,85.6,38.7c12.4,5.5,24.9,10.5,37.4,15.8c5.8,2.5,11.6,5.1,17.3,7.8c3.2,1.5,6.4,3.1,9.5,4.6
		c1.5,0.7,2.9,1.4,4.4,2.1c0.6,0.3,1.2,0.6,1.9,0.9c1.7,0.7,3.4,1.1,5.2,1.5c1.3,0.1,2.6-0.1,3.8-0.7c1.8-0.9,3.2-2.4,3.9-4.4
		c1-3-0.1-7-2.9-8.7c-7.2-4.2-14.9-7.7-22.6-11.1c-7.1-3.2-14.2-6.3-21.4-9.3c-6.6-2.7-13.3-5.3-19.9-8.1
		c-7.8-3.3-15.6-6.7-23.4-10.1c-13.8-6-27.5-12-41.3-18.1c-14.2-6.3-28.3-12.8-42.6-19c-12.2-5.3-24.5-10.3-37.2-14.6
		c-6.5-2.2-13.1-4.3-19.8-6.2c-6.6-1.9-13.1-4-19.5-6.5c-0.7-0.3-1.5-0.4-2.3-0.4C1558.7,717.5,1556.4,719.3,1555.5,721.7
		L1555.5,721.7L1555.5,721.7z"/>
	<path style="fill:#161616;" d="M1348.1,742.6c-1.4,2.6-2.6,5.3-3.9,8c-1.2,2.5-2.5,4.9-3.8,7.3c-2.7,4.9-5.2,10-8.5,14.6
		c-1,1.2-2,2.2-3.2,3.2c0,0-0.1,0-0.1,0.1c-0.1,0-0.1,0-0.2,0.1c-1.6,0-3.3-0.1-4.9-0.4c-4.8-0.9-9.5-2.2-14.2-3.4
		c-5.7-1.5-11.1-4.2-16.5-6.5c-1.4-0.6-3.2-0.2-4.5,0.5c-1.4,0.7-2.4,2-2.8,3.5c-0.4,1.5-0.3,3.1,0.5,4.5c0.8,1.5,2,2.2,3.5,2.8
		c3.8,1.6,7.5,3.3,11.3,4.8c3.2,1.3,6.6,2.2,9.9,3.1c3.3,0.9,6.6,1.9,9.9,2.7c1.9,0.4,3.8,0.8,5.8,1c3.6,0.4,7.1-0.2,10.1-2.3
		c1.6-1.1,3.1-2.3,4.4-3.7c0.9-0.9,1.6-1.8,2.4-2.8c1.1-1.3,2.1-2.8,3.1-4.2c1.8-2.7,3.5-5.5,5.2-8.3c3.7-6,7.7-11.9,9.9-18.7
		c1-3.1-0.4-6.6-3.2-8.3c-1.2-0.8-2.7-1.1-4.2-1C1351.6,739.2,1349.2,740.4,1348.1,742.6L1348.1,742.6L1348.1,742.6z M1329.5,775.1
		c-0.1,0-0.1,0.1-0.2,0.1C1329.4,775.2,1329.4,775.2,1329.5,775.1L1329.5,775.1L1329.5,775.1z M1329.9,775.3
		c-0.3,0.1-0.6,0.2-0.8,0.3C1329.3,775.5,1329.6,775.4,1329.9,775.3L1329.9,775.3L1329.9,775.3z"/>
	<path style="fill:#161616;" d="M1343.6,415.7c-5,0.7-6.6,6-8.4,9.9c-1.1,2.5-2.3,4.9-3.5,7.3c-2.6,5.1-5.4,10.1-8.1,15.1
		c-5.7,10.8-11.3,21.6-16.5,32.7c-5.4,11.5-9.6,23.5-13.2,35.6c-3.3,11.4-6.1,22.9-8.9,34.4c-2.9,12-5.6,24-8,36.1
		c-1.2,6.3-2.5,12.6-3.6,18.9c-0.9,5.8-2,11.5-2.7,17.3c-0.4,3.6-0.8,7.2-1.3,10.9c-0.3,3-0.4,6-0.7,9c-0.2,2.6-0.5,5.1-0.5,7.7
		c0,3.8-0.1,7.6-0.1,11.4c0,3.1,0.2,6.1,0.4,9.2c0.1,2.7,0.3,5.4,0.5,8.1c0.5,6.3,1.1,12.7,2,19c1.2,8.2,2.5,16.4,3.9,24.6
		c0.6,3.6,1.3,7.3,2.1,10.9c1.4,6.3,3.2,12.5,6,18.4c1,2,3.7,2.7,5.6,1.7c2-1.1,2.6-3.5,1.7-5.6c-0.7-1.5-1.4-3-2-4.6
		c-2.8-7.9-4-16.5-5.3-24.8c-1.2-7.5-2.2-15.1-3.1-22.6c-0.3-3-0.6-6.1-0.9-9.1c-0.3-3-0.4-6.1-0.5-9.1c-0.2-2.7-0.2-5.4-0.3-8.1
		c-0.1-2.8-0.2-5.7-0.1-8.5c0.1-3.8,0.3-7.5,0.4-11.3c0.1-2.9,0.5-5.8,0.8-8.6c0.2-2.6,0.4-5.3,0.7-7.9c0.5-3.9,1.1-7.7,1.6-11.6
		c0.1-0.4,0.1-0.9,0.2-1.3c1-5.4,1.9-10.9,3.1-16.3c1.4-6.6,2.8-13.1,4.3-19.7c2.6-11.5,5.5-22.9,8.6-34.3
		c2.6-9.9,5.3-19.9,8.2-29.7c1.6-5.1,3.2-10.1,5-15.2c1.6-4.6,3.5-9,5.3-13.5c4.8-10.6,10-20.9,15.5-31.1
		c5.4-10.1,11.1-20,16.3-30.2c0.3-0.7,0.7-1.4,1-2c0.2-0.4,0.4-0.8,0.6-1.2c0.9-1.8,1.6-3.6,1.7-5.6c0.1-1.7-0.6-3.5-1.8-4.7
		c-1.4-1.5-3.2-2-5.1-1.9C1344.3,415.7,1344,415.7,1343.6,415.7L1343.6,415.7L1343.6,415.7z M1288.4,744c0.1,0.3,0.2,0.6,0.3,0.9
		C1288.6,744.6,1288.5,744.3,1288.4,744L1288.4,744L1288.4,744z"/>
	<path style="fill:#161616;" d="M1357.8,435.7c-2.5,4.5-5,9-7.2,13.7c-1,2.2-2,4.3-2.9,6.6c-0.9,2.3-1.8,4.6-2.6,7
		c-1.6,4.4-3,8.8-4.4,13.2c-1.4,4.3-2.7,8.7-4.1,13c-2.8,8.8-5.6,17.7-8,26.7c-2.3,8.8-4,17.7-5.6,26.6c-1.7,9.6-3,19.2-4.1,28.9
		c-1,9-1.5,18-1.3,27c0.1,6.2,0.4,12.3,1,18.4c0.3,2.7,0.8,5.4,1.3,8c0.6,3,1.4,6,2.8,8.8c0.9,1.9,3.2,2.9,5.3,2.4
		c0.9-0.2,1.6-0.6,2.2-1.2c0.8-0.8,1.6-2.1,1.5-3.3c-0.2-2.4-0.3-4.8-0.7-7.2c-0.3-1.8-0.8-3.6-1.2-5.5c-0.8-3.6-1.3-7.3-1.7-10.9
		c-0.3-4.5-0.6-8.9-0.7-13.4c-0.1-4.5-0.2-9,0.1-13.5c0.6-9.5,1.6-18.9,2.7-28.4c0.6-5.4,1.5-10.9,2.3-16.3
		c0.7-4.3,1.4-8.5,2.4-12.7c1.1-4.9,2.2-9.7,3.5-14.5c2.3-8.9,4.9-17.6,7.5-26.4c1.5-5.1,3.1-10.3,4.7-15.4c0.8-2.5,1.7-5,2.6-7.5
		c0.8-2.3,1.8-4.5,2.7-6.7c0.9-2.1,1.9-4.1,3-6.1c1.4-2.6,2.9-5.3,4.3-7.9c0.8-1.5,0.4-3.4-1-4.3c-0.5-0.3-1.1-0.5-1.8-0.4
		C1359.3,434.3,1358.3,434.8,1357.8,435.7L1357.8,435.7L1357.8,435.7z M1355.7,453.1c0,0.1-0.1,0.2-0.1,0.2
		C1355.6,453.3,1355.7,453.2,1355.7,453.1L1355.7,453.1L1355.7,453.1z M1328,606.9c0,0.3,0.1,0.5,0.1,0.8
		C1328.1,607.4,1328,607.2,1328,606.9L1328,606.9L1328,606.9z"/>
	<path style="fill:#161616;" d="M710.9,1606c-3.9,0.9-6.5,4.7-5.7,8.6c0.2,1.2,0.7,2.2,1.4,3c-4.1,5.8-7.9,11.9-10.2,18.7
		c-1.1,3.4-1.6,7.1-1.8,10.7c-0.1,1.8,0.1,3.5,0.2,5.3c0.2,2.3,0.9,4.4,1.7,6.6c0.6,1.5,1.6,2.8,2.5,4.1c0.9,1.4,2.3,2.6,3.6,3.6
		c3,2.3,6.5,3.8,10.2,4.5c3.6,0.7,7.1,0.9,10.7,0.3c4.3-0.7,8.1-3,11.6-5.4c2.7-1.9,4.9-4.6,6.9-7.2c2.4-3.1,4.1-6.8,5.3-10.4
		c1.2-3.4,1.7-7.1,2.2-10.6c0.5-3.7,0.2-7.6-0.7-11.2c-0.4-1.8-1.1-3.5-1.9-5.2c-0.7-1.7-1.9-3.2-2.9-4.6c-1.1-1.5-2.5-2.7-3.9-3.8
		c-1.8-1.5-3.6-2.6-5.7-3.6c-3.7-1.8-7.5-3.1-11.6-3.8c-1.7-0.3-3.3-0.4-5-0.5c-0.4,0-0.8,0-1.1,0C715,1605.2,713,1605.6,710.9,1606
		L710.9,1606L710.9,1606z M718.2,1625c1-1.4,1.3-3.1,1.1-4.7c0.2,0,0.4,0.1,0.6,0.1c2.7,0.7,5.3,1.6,7.8,2.8
		c1.1,0.6,2.2,1.4,3.3,2.2c0.6,0.6,1.2,1.3,1.8,2c0.4,0.7,0.7,1.4,1,2.2c0.4,1.3,0.6,2.5,0.8,3.8c0,2.4-0.3,4.8-0.7,7.1
		c-0.5,2.3-1.3,4.5-2.2,6.6c-1,1.8-2.1,3.4-3.4,4.9c-1,1-2.1,2-3.2,2.9c-1,0.6-2,1.1-3.1,1.6c-0.9,0.2-1.7,0.4-2.6,0.6
		c-1.2,0-2.4-0.1-3.7-0.3c-1.1-0.3-2.2-0.7-3.3-1.1c-0.5-0.3-1-0.6-1.4-1c-0.4-0.4-0.7-0.8-1.1-1.2c-0.2-0.4-0.4-0.8-0.6-1.2
		c-0.3-1-0.5-2-0.6-3.1c-0.1-2.2,0.1-4.5,0.4-6.7c0.6-2.4,1.5-4.7,2.5-6.9C713.4,1631.8,715.7,1628.4,718.2,1625L718.2,1625
		L718.2,1625z M711.3,1635.8c-0.1,0.3-0.3,0.5-0.4,0.8C711,1636.4,711.2,1636.1,711.3,1635.8L711.3,1635.8L711.3,1635.8z"/>
	<path style="fill:#161616;" d="M869.1,1648.3c-3.1,0.4-6.1,0.9-9.2,1.4c-5.9,0.9-11.7,1.9-17.6,3c-7.1,1.3-14.1,2.6-21.2,4
		c-5.6,1.1-11.3,2.2-16.9,3.5c-7.3,1.7-14.6,3.4-21.8,5.1c-3.3,0.8-5.6,4-4.9,7.4c0.7,3.3,4.1,5.6,7.4,4.8c13.6-3.2,27.3-6.4,41.1-9
		c12.6-2.4,25.2-4.6,37.9-6.7c6.1-1,12.3-1.6,18-4.1c2.2-1,3.3-3.7,2.9-5.9c-0.5-2.2-2.6-4.3-4.9-4.3c-1,0-2.1,0-3.1,0.1
		C874.2,1647.7,871.6,1648,869.1,1648.3L869.1,1648.3L869.1,1648.3z"/>
	<path style="fill:#161616;" d="M866.1,1625.6c-5.3,0.3-10.5,0.6-15.8,1c-11.4,0.9-22.8,2.3-34.2,3.6c-14.8,1.8-29.5,4.1-44.3,6.4
		c-2.5,0.4-4,3-3.5,5.4c0.5,2.5,2.9,3.9,5.4,3.5c7.6-1.2,15.1-2.4,22.7-3.4c3.7-0.5,7.3-1.1,11-1.6c1.5-0.2,3.1-0.5,4.6-0.7
		c6.1-0.7,12.2-1.4,18.3-2.1c4.6-0.5,9.2-0.8,13.8-1.3c6.2-0.4,12.4-0.7,18.6-0.9c6.8-0.2,13.5,0.2,20.2-0.8
		c2.2-0.3,3.8-2.4,3.9-4.5c0.2-2.7-1.9-5.1-4.6-5.2c-2.6-0.1-5.2-0.1-7.8,0C871.8,1625.3,869,1625.5,866.1,1625.6L866.1,1625.6
		L866.1,1625.6z"/>
	<path style="fill:#161616;" d="M888.7,1660.9c-0.2,2.9,2.2,6,5.3,6c9.5,0,19,0.1,28.6,0.3c7.7,0.2,15.4,0.3,23.2,0.5
		c1.8,0,3.6,0.2,5.4,0.3c4.6,0.3,9.1,0.5,13.7,0.8c5.9,0.3,11.9,0.8,17.8,1.2c10.1,0.8,20.1,1.7,30.2,2.6c5.3,0.5,10.6,1,15.9,1.3
		c6.1,0.4,12.2,0.9,18.2-0.1c2.4-0.4,4.3-2.7,4.4-5.1c0.2-3.1-2.2-5.5-5.2-5.9c-6.3-0.7-12.7-0.7-19-1.1c-6.4-0.4-12.8-0.9-19.2-1.4
		c-11.9-0.9-23.8-2-35.8-2.7c-10.2-0.6-20.3-1.3-30.5-1.5c-15.7-0.3-31.3-0.6-47-0.7c-0.1,0-0.2,0-0.3,0
		C891.4,1655.8,888.9,1657.8,888.7,1660.9L888.7,1660.9L888.7,1660.9z"/>
	<path style="fill:#161616;" d="M880.9,1629.2c-0.1,2.3,1.7,4.6,4.1,4.7c24.7,0.8,49.4,1.8,74.1,3.6c3,0.2,6,0.6,9,0.9
		c2.1,0.2,4.2,0.4,6.3,0.6c5.7,0.7,11.4,1.3,17.1,2c11.6,1.5,23.2,3,34.8,4.4c6.4,0.8,12.8,1.7,19.3,2.2c3.1,0.3,6-2.3,6.2-5.4
		c0.2-3.2-2.3-5.9-5.4-6.2c-6.1-0.6-12.3-1-18.4-1.5c-6.1-0.5-12.3-1.1-18.4-1.6c-11.3-1.1-22.7-2.3-34-3.5
		c-10.8-1.1-21.8-1.6-32.6-2.2c-6.1-0.4-12.2-0.6-18.2-0.8c-4.7-0.2-9.5-0.4-14.2-0.5c-8.3-0.3-16.6-0.6-24.9-0.8
		c-0.1,0-0.2,0-0.4,0C882.9,1625.2,881,1626.9,880.9,1629.2L880.9,1629.2L880.9,1629.2z"/>
	<path style="fill:#161616;" d="M1117.4,1586.4c0.1,3.3,0,6.5,0.2,9.8c0.1,2.9,0.3,5.8,0.5,8.7c0.3,6.2,0.6,12.4,0.9,18.7
		c0.7,16.6,0.8,33.5-2.3,49.9c-1,5-2.4,9.8-4.5,14.4c-0.4,0.6-0.7,1.2-1.1,1.8c-0.1,0-0.2,0-0.3,0c-4.2-1.1-8.3-2.6-12.2-4.5
		c-0.8-0.4-1.6-0.9-2.4-1.5c0-0.1-0.1-0.1-0.1-0.2c-0.3-1.4-0.5-2.7-0.7-4.1c-0.2-6.3,0-12.6,0.3-18.9c0.3-7.5,0.6-15,0.9-22.5
		c0.7-15.5,1.3-31.1,1.8-46.6c0.1-3.4-2.4-6.4-5.9-6.7c-3.3-0.2-6.6,2.5-6.7,5.9c-0.6,17.5-1.3,34.9-2.4,52.4
		c-0.5,7.6-1.1,15.1-1.7,22.7c-0.3,3.5-0.6,7-0.8,10.5c-0.3,4-0.5,8.2,0.6,12.1c0.7,2.5,2,4.8,3.9,6.6c2,2,4.3,3.2,6.8,4.5
		c2.5,1.2,5.1,2.3,7.7,3.1c3.3,1.1,6.6,2.1,10.1,2.6c1.1,0.2,2.9,0.1,4-0.1c1.3-0.3,2.5-0.7,3.7-1.2c1.2-0.5,2.3-1.4,3.4-2.2
		c1.3-1,2.4-2.5,3.3-3.8c1.4-2,2.3-4.4,3.3-6.6c0.9-2.2,1.6-4.4,2.3-6.7c1.5-5.5,2.6-11.1,3.4-16.7c1-7,1.3-14,1.6-21
		c0.3-7.4,0.1-14.8-0.3-22.2c-0.3-7.9-0.6-15.7-1-23.6c-0.3-5.2-0.4-10.4-1.8-15.5c-0.9-3.1-3.2-5.5-6.6-5.7c-0.2,0-0.5,0-0.7,0
		C1120.9,1579.9,1117.3,1582.8,1117.4,1586.4L1117.4,1586.4L1117.4,1586.4z M1095.5,1682.3c0.1,0.3,0.2,0.6,0.3,0.9
		C1095.7,1682.9,1095.6,1682.6,1095.5,1682.3L1095.5,1682.3L1095.5,1682.3z M1110.2,1690.4c-0.1,0.1-0.2,0.1-0.3,0.2
		C1110,1690.5,1110.1,1690.5,1110.2,1690.4L1110.2,1690.4L1110.2,1690.4z"/>
	<path style="fill:#161616;" d="M1056.4,1467.3c-2.6,0.2-5,1-7.5,1.9c-0.3,0.2-0.6,0.4-0.8,0.5c-1.2,0.6-2.2,1.5-3,2.6
		c-0.8,1.1-1.4,2.3-1.9,3.5c-0.9,2.2-0.3,4.8-0.2,7.1c0.1,1.1,0.2,2.2,0.3,3.4c0.4,4.1,0.7,8.2,1.1,12.2c1.4,14.8,2.7,29.6,3.8,44.4
		c0.2,4.2,0.5,8.5,0.5,12.7c0,5.4,0,10.8-0.2,16.2c-0.2,4.1,2.9,7.7,7.1,8c4,0.3,7.8-2.9,8-7.1c0.7-15.5-0.2-31-1.5-46.4
		c-1.2-14.5-2.6-29-3.7-43.5c0-0.1,0-0.2,0-0.2c0.6-0.1,1.1-0.1,1.7-0.2c9.6-0.5,19.3,0,28.9,0.4c7.9,0.3,15.9,0.7,23.8,1.3
		c7.3,0.5,14.7,1,22,1.6c7.5,0.6,15.2,0.9,22.6,2c0.4,0.1,0.7,0.2,1,0.3c0.3,0.3,0.5,0.6,0.8,0.9c0.6,1,1.1,2.1,1.5,3.2
		c2.4,7.6,3.1,15.6,3.9,23.5c0.6,9.2,1,18.5,1.2,27.7c0.1,4.8,0.1,9.5,0.3,14.3c0.2,5.5,0.5,11,1.4,16.4c0.6,3.4,3.7,5.9,7.1,6.2
		c4,0.3,8.2-3,8.2-7.2c0-2.8-0.2-5.6-0.4-8.4c0.1,0.7,0.1,1.4,0.2,2.1c-0.5-8.2-0.6-16.3-0.8-24.5c-0.2-8.2-0.6-16.5-1.1-24.7
		c-0.3-4.3-0.5-8.6-1.2-12.9c-1.2-7.9-2.2-16.2-6.2-23.3c-1.5-2.6-3.4-4.6-5.7-6.5c-2.2-1.7-5.3-2.5-8-2.9c-2.2-0.3-4.3-0.6-6.5-0.7
		c-4-0.3-8-0.6-12-0.9c-16.5-1.2-33-2.4-49.6-3.1c-9.9-0.4-19.8-0.8-29.8-0.3C1059.9,1467.1,1058.1,1467.2,1056.4,1467.3
		L1056.4,1467.3L1056.4,1467.3z M1058.1,1478c0,0.5,0.1,1.1,0.1,1.6c0,0,0,0,0,0C1058.2,1479,1058.1,1478.5,1058.1,1478L1058.1,1478
		L1058.1,1478z"/>
	<path style="fill:#161616;" d="M1054.3,1420.7c-4.7,0.4-9.4,0.9-14,1.9c-4.9,1-9.8,2.8-13.6,6c-1.8,1.5-3.3,3.6-3.8,5.9
		c-0.6,2.5-0.3,5,0.3,7.5c0.4,1.8,0.7,3.6,1.1,5.3c1.6,7.5,3.1,15.1,5.5,22.4c1.4,4.3,3.2,8.8,6.5,11.9c1.7,1.5,3.5,2.6,5.6,3.5
		c1,0.4,2.4,0.7,3.5,0.8c1.3,0.1,2.5,0.3,3.8,0.3c3.5,0.1,6.9,0.1,10.4,0.1c13.9,0.1,27.8,0.1,41.7-0.1c12.4-0.2,24.7-0.5,37.1-0.6
		c15.6-0.1,31.2,0,46.8,0.2c3.1,0,5.8-2.1,6-5.3c0.2-2.5-1.5-4.9-3.8-5.8c0.4-0.6,0.7-1.2,1.1-1.9c0.1-0.1,0.1-0.2,0.2-0.3
		c-0.1,0.3-0.3,0.6-0.5,0.9c0.2-0.4,0.4-0.9,0.7-1.3c0-0.1,0.1-0.2,0.1-0.3c0,0.1-0.1,0.1-0.1,0.2c0.8-1.8,1.6-3.5,2.1-5.5
		c0.7-2.4,0.8-4.9,0.9-7.3c0-2.4-0.1-4.8-0.3-7.2c-0.4-4.3-1-8.5-2-12.8c-0.5-2.3-1.3-4.6-2.2-6.7c-0.8-2-2.2-4-3.8-5.5
		c-1.7-1.6-3.6-2.8-5.8-3.6c-1.8-0.6-3.9-0.8-5.8-1c-3.2-0.4-6.5-0.4-9.8-0.5c-13.9-0.6-27.7-1.1-41.6-1.4
		c-14-0.3-27.9-0.8-41.9-0.7c-5.7,0-11.3,0.1-17,0.4C1059.3,1420.3,1056.8,1420.5,1054.3,1420.7L1054.3,1420.7L1054.3,1420.7z
		 M1098.2,1432.8c14.1,0.4,28.3,0.8,42.4,1.4c5.5,0.3,11,0.6,16.5,0.9c5.1,0.3,10.3,0.5,15.4,1.3c0.3,0.1,0.7,0.2,1,0.3
		c0.1,0.1,0.2,0.1,0.3,0.2c0.1,0.1,0.2,0.2,0.3,0.3c0.3,0.5,0.6,1.1,0.8,1.7c1.4,4.7,2.1,9.6,2.5,14.5c0,3.4,0.1,6.7-0.4,10.1
		c-0.4,1.6-1,3.1-1.6,4.7c-0.8,2-0.4,4.3,0.8,6.1c-7.1-0.1-14.2-0.1-21.3-0.2c-6.7-0.1-13.5,0.1-20.2,0.1
		c-13.9,0.1-27.8,0.6-41.7,0.7c-7.3,0.1-14.6,0-21.8,0c-3.9,0-7.9-0.1-11.8-0.2c-4-0.1-8.1-0.1-12.1-0.7c-0.4-0.1-0.8-0.3-1.2-0.4
		c-0.3-0.2-0.6-0.4-0.9-0.6c-0.2-0.2-0.4-0.4-0.5-0.6c-1.1-1.8-1.9-3.6-2.6-5.5c-1.6-4.9-2.7-9.9-3.9-14.9c-0.5-2.2-1-4.5-1.5-6.7
		c-0.6-2.4-1.2-4.9-1.7-7.4c0.3-0.2,0.5-0.4,0.8-0.6c1-0.6,2.1-1,3.2-1.4c5.1-1.6,10.5-2.2,15.8-2.6
		C1069.1,1432.1,1083.7,1432.4,1098.2,1432.8L1098.2,1432.8L1098.2,1432.8z M1039.9,1435.3c-0.1,0-0.3,0.1-0.4,0.1
		C1039.6,1435.4,1039.7,1435.3,1039.9,1435.3L1039.9,1435.3L1039.9,1435.3z M1035,1437.3c-0.1,0.1-0.2,0.2-0.3,0.3c0,0,0,0,0,0
		C1034.8,1437.6,1034.9,1437.4,1035,1437.3L1035,1437.3L1035,1437.3z M1034.7,1438.2c0,0.1,0,0.3,0,0.4
		C1034.7,1438.5,1034.7,1438.3,1034.7,1438.2L1034.7,1438.2L1034.7,1438.2z M1034.1,1438.7c-0.1,0.1-0.1,0.2-0.2,0.3
		C1033.9,1438.9,1034,1438.8,1034.1,1438.7L1034.1,1438.7L1034.1,1438.7z"/>
	<path style="fill:#161616;" d="M675,1686.2c-1.4,0.7-3.1,2.3-3.4,3.9c-0.3,1.5-0.8,2.9-1.4,4.3c-1.6,3-3.6,6-5.7,8.6
		c-0.3,0.3-0.5,0.5-0.8,0.8c-0.9,0.2-1.8,0.4-2.8,0.5c-7.3,0.3-14.6,0.2-21.9,0.3c-8.1,0.1-16.2,0.3-24.2,0.5
		c-18.2,0.4-36.4,1.6-54.6,2.6c-2.1,0.1-3.8,0.4-5.4,1.8c-1.5,1.3-2.4,3.1-2.5,5.1c-0.1,1.9,0.5,3.9,1.8,5.3
		c1.2,1.3,3.2,2.6,5.1,2.5c18.4-1,36.7-2.2,55.1-2.5c8.3-0.1,16.7-0.3,25-0.3c4.1,0,8.1,0.1,12.2,0.1c3.6,0.1,7.2,0.2,10.8,0
		c2.2-0.1,4.1-0.3,6.2-0.9c2.7-0.8,5-2.2,6.9-4.2c1.7-1.7,3.2-3.7,4.6-5.7c3.2-4.7,5.4-10.3,5.2-16c0.1-1.3-0.2-2.4-0.7-3.6
		c-0.8-1.6-2.2-2.9-3.9-3.4c-0.8-0.3-1.7-0.4-2.6-0.4C676.8,1685.5,675.9,1685.7,675,1686.2L675,1686.2L675,1686.2z"/>
</g>
</svg>
