<?xml version="1.0" encoding="utf-8"?>
<!-- Generator: Adobe Illustrator 22.1.0, SVG Export Plug-In . SVG Version: 6.00 Build 0)  -->
<svg version="1.1" id="Layer_1" xmlns="http://www.w3.org/2000/svg" xmlns:xlink="http://www.w3.org/1999/xlink" x="0px" y="0px"
	 viewBox="0 0 2000 2000" style="enable-background:new 0 0 2000 2000;" xml:space="preserve">
<g>
	<path style="fill:#161616;" d="M1033.5,234.2c-40.4,0.1-80.9,3.8-120.7,10.7c-37.8,6.5-75.1,16.2-111.3,28.8
		c-70.9,24.6-137.8,60.6-197.5,105.9c-30.5,23.1-59.1,48.6-85.5,76.2c-27.8,28.9-52.9,60.4-75.5,93.5
		c-46.5,68.2-80.6,144.7-101.1,224.6c-10.6,41.6-17.2,84.2-20.3,127c-3.3,45.8-1.9,91.8,3.6,137.4c5.3,43.8,14.7,87,28,129
		c12.9,41.1,29.9,80.9,50,118.9c39.1,74,91.8,140.9,153.9,196.9c30.8,27.8,64.2,52.9,99.3,75.1c36.4,23,75,42.3,115,58.4
		c68.5,27.6,141.4,43.8,215,49c4.4,0.3,8.7,0.6,13.1,0.8c7.4,0.4,14.8,0.7,22.2,0.8c83.5,1.9,167.2-11.2,246.3-38.1
		c38-12.9,75-29.3,110.3-48.4c33.5-18.2,65.5-39.2,95.7-62.5c30-23.2,58.1-48.7,84.2-76.2c26-27.6,49.8-57.3,71.2-88.6
		c45.1-66,78.7-139.8,99.5-217c10.7-39.9,17.7-80.8,21.5-122c1.4-15.7,2.3-31.5,2.7-47.3c0.5-23.2-0.1-46.4-1.8-69.6
		c-0.3-4.6-0.7-9.1-1.1-13.7c-3.8-41.7-11.5-83-22.5-123.4c-10.8-39.5-25.3-78-42.7-115c-35.1-74.9-83.8-143.3-142.2-201.7
		c-27.7-27.7-57.8-53-89.6-75.9c-0.4-0.3-0.8-0.6-1.2-0.9c0,0,0,0-0.1,0c-0.9-0.7-1.8-1.3-2.7-2c-0.7-0.5-1.3-0.9-2-1.4
		c-20.5-14.4-41.8-27.7-63.7-39.8c-0.1,0-0.2-0.1-0.3-0.1c-0.3-0.1-0.5-0.3-0.8-0.4c-0.4-0.2-0.8-0.4-1.2-0.7c0,0-0.1,0-0.1-0.1
		c-8.5-4.7-17.1-9.1-25.8-13.4c-5.2-2.6-10.5-5.2-15.8-7.6c-14.6-6.8-29.5-13.2-44.6-19c-10.5-4.1-21.2-7.9-31.9-11.5
		c-73.2-24.5-150.5-36.5-227.6-36.5C1034.4,234.2,1034,234.2,1033.5,234.2L1033.5,234.2L1033.5,234.2z M1129.4,255.6
		c31,4.2,61.7,10.4,91.9,18.6c29.8,8.1,59,18.3,87.5,30.2c-0.4-0.2-0.9-0.4-1.3-0.6c0.6,0.3,1.2,0.5,1.8,0.8c0,0,0,0,0,0
		c0,0,0,0,0,0c10,4.3,19.8,8.7,29.6,13.4c0,0,0.1,0,0.1,0.1c0.7,0.3,1.4,0.7,2.1,1c0.3,0.2,0.7,0.3,1,0.5c0.4,0.2,0.7,0.4,1.1,0.5
		c0.7,0.3,1.4,0.7,2,1c0,0,0.1,0,0.1,0c14.5,7.2,28.9,14.9,42.9,23c26.7,15.5,52.2,32.8,76.6,51.5c23.3,18.2,45.6,37.7,66.5,58.6
		c21.3,21.2,41.2,43.9,59.7,67.6c18.6,24.2,35.7,49.5,51.1,75.9c15.1,25.8,28.5,52.7,40.2,80.2c0,0,0,0,0-0.1
		c11.8,28.1,21.8,56.9,29.9,86.3c8.5,30.5,14.7,61.5,19,92.9c4,31,6.1,62.2,6.1,93.4c0,31.5-2.1,63-6.2,94.2
		c-4.3,31-10.6,61.7-18.8,92c-8.1,29.7-18.3,58.8-30.3,87.1c-12.1,28.3-26,55.8-41.6,82.3c-14.8,25.2-31.3,49.4-49.2,72.7
		c0,0,0,0,0,0c-18.2,23.4-37.8,45.7-58.7,66.7c-21.1,21.3-43.7,41.1-67.3,59.5c-23.4,18-47.8,34.6-73.2,49.7
		c-27.2,16.1-55.5,30.3-84.5,42.6c-28.2,11.7-57,21.7-86.4,29.8c-30.2,8.3-60.9,14.4-91.9,18.6c-30.9,4-61.9,6-93.1,6.1
		c-32,0-64.1-2.2-95.8-6.4c0.7,0.1,1.4,0.2,2,0.3c-30.6-4.2-60.8-10.3-90.5-18.4c-30.1-8.1-59.5-18.4-88.3-30.5
		c0.2,0.1,0.3,0.1,0.5,0.2c-27.6-11.7-54.3-25.1-80.2-40.2c-26.4-15.4-51.8-32.5-76.1-51.2c0.5,0.4,1,0.8,1.6,1.2
		c-24.1-18.6-47-38.7-68.6-60.2c-21.2-21.1-41-43.6-59.3-67.2c-18.2-23.7-35-48.4-50.1-74.1c-15.8-26.7-29.7-54.5-41.8-83.1
		c-11.5-27.5-21.2-55.6-29.2-84.3c-8.5-30.5-14.8-61.6-19.1-93c0.1,0.4,0.1,0.9,0.2,1.3c-4.2-31.7-6.3-63.6-6.4-95.6
		c-0.1-31.2,2.1-62.4,6.1-93.3c4.2-31,10.4-61.6,18.6-91.8c8-29.4,18-58.2,29.7-86.3c11.9-27.9,25.4-55.1,40.7-81.3
		c15.2-26.1,32.1-51.1,50.5-75c19.2-24.7,39.9-48.1,62.1-70.2c20.6-20.5,42.5-39.6,65.4-57.4c0,0-0.1,0.1-0.1,0.1
		c23.7-18.2,48.5-34.9,74.3-50.1c26.6-15.6,54.2-29.4,82.6-41.4c27.5-11.5,55.6-21.2,84.3-29.2c30.5-8.5,61.7-14.8,93-19.1
		c-0.7,0.1-1.4,0.2-2,0.3C1002.9,247.6,1066.6,247.5,1129.4,255.6L1129.4,255.6L1129.4,255.6z M1463.6,394.9c0.4,0.3,0.8,0.6,1.2,1
		C1464.5,395.6,1464,395.2,1463.6,394.9L1463.6,394.9L1463.6,394.9z M481.6,521.8c-0.3,0.4-0.6,0.7-0.9,1.1
		C481.1,522.5,481.3,522.2,481.6,521.8L481.6,521.8L481.6,521.8z M1591.6,522.8c0.2,0.2,0.3,0.4,0.5,0.6
		C1592,523.2,1591.8,523,1591.6,522.8L1591.6,522.8L1591.6,522.8z M390.3,677.6c-0.2,0.6-0.5,1.1-0.7,1.7
		C389.8,678.7,390,678.2,390.3,677.6L390.3,677.6L390.3,677.6z M389.7,1222.5c0.2,0.6,0.5,1.1,0.7,1.7
		C390.2,1223.6,389.9,1223,389.7,1222.5L389.7,1222.5L389.7,1222.5z M1309.3,1596.8c-0.5,0.2-1,0.4-1.5,0.6
		C1308.3,1597.2,1308.8,1597,1309.3,1596.8L1309.3,1596.8L1309.3,1596.8z M1309.3,304.7L1309.3,304.7c-0.2-0.1-0.3-0.1-0.5-0.2
		C1309,304.6,1309.2,304.6,1309.3,304.7L1309.3,304.7L1309.3,304.7z"/>
	<path style="fill:#161616;" d="M658.9,983.7c-5.6,5.4-8.8,12.5-11.3,19.8c-2.7,7.7-3.6,16.3-3.1,24.4c0.6,8,3.2,15.9,7.6,22.6
		c3.7,5.7,9,10,14.8,13.4c2.4,1.4,5,2.4,7.6,3.3c1.4,0.5,2.9,0.7,4.4,1c1.4,3.6,2.1,7.4,2.9,11.2c0.5,2.4,0.9,4.8,1.4,7.3
		c1,4.9,2.1,9.7,3.3,14.5c1.2,4.6,2.6,9.2,4.2,13.7c1.9,5.3,3.9,10.6,6.3,15.7c-0.3-0.6-0.6-1.2-0.9-1.8c0.6,1.3,1.2,2.7,1.9,4
		c0.2,0.5,0.5,1,0.7,1.5c0.2,0.5,0.4,1,0.7,1.5c0.2,0.5,0.5,1,0.7,1.5c3.7,7.7,8.3,15.1,13.1,22.2c4.5,6.6,9.4,13.2,14.6,19.3
		c6.1,7.2,12.4,14.3,18.9,21.2c2.5,2.7,5.1,5.3,7.8,7.8c3.1,2.9,6.3,6,9.6,8.6c26.2,20.8,54.9,38.2,86,50.5
		c12.4,4.9,25.2,8.3,38.3,11.1c4.1,0.9,8.3-1.7,9.2-5.8c0.9-4.1-1.7-8.4-5.8-9.2c-5.5-1.2-11.1-2.4-16.5-3.9
		c-5.3-1.5-10.5-3.1-15.7-4.9c-11.5-4.4-22.7-9.5-33.6-15.2c-11.5-6.1-22.6-13-33.4-20.3c-8.3-5.9-16.7-11.9-24.1-18.9
		c-3.9-3.6-7.7-7.2-11.4-11.1c-3.9-4.1-7.8-8.4-11.6-12.6c-2.7-3.2-5.4-6.4-8-9.6c-3.2-4-6.2-8.1-9.2-12.1
		c-2.7-3.6-5.1-7.5-7.5-11.3c-1.1-1.8-2.1-3.5-3.1-5.3c-1.1-2-2.3-4-3.4-6c-0.5-1-0.9-2.1-1.5-3.2c-0.2-0.5-0.5-1-0.7-1.5
		c-0.2-0.5-0.4-1-0.7-1.5c-0.3-0.6-0.6-1.2-0.9-1.8c0-0.1-0.1-0.1-0.1-0.2c0,0,0,0,0,0c-0.2-0.3-0.3-0.7-0.5-1
		c0.2,0.4,0.4,0.8,0.5,1.2c0.1,0.1,0.1,0.3,0.2,0.4c-1.1-2.7-2.3-5.5-3.4-8.2c-1.1-2.7-2-5.6-3-8.3c-1.9-5.4-3.3-11-4.7-16.5
		c-1.3-5.2-2.1-10.5-3.2-15.7c-1-5-1.8-10.1-4.3-14.6c-0.9-1.7-2-3.1-3.4-4.4c-1.6-1.5-3.7-2.3-5.8-2.8c-0.8-0.2-1.6-0.3-2.4-0.5
		c-0.9-0.2-1.8-0.4-2.7-0.7c-2.3-1-4.5-2.2-6.6-3.6c-1.7-1.3-3.3-2.7-4.8-4.3c-1.4-1.8-2.6-3.6-3.6-5.6c-1.2-2.7-2.1-5.5-2.7-8.4
		c-0.5-3.6-0.6-7.1-0.4-10.7c0.5-4.6,1.6-9.1,3.1-13.5c1.1-2.8,2.4-5.5,4.1-8.1c1.4-1.8,2.9-3.5,4.5-5c1.3-1,2.7-1.9,4.2-2.7
		c0.9-0.3,1.7-0.6,2.6-0.9c1.5-0.2,2.9-0.2,4.4-0.1c2.4,0.4,4.7,0.9,7,1.7c2.7,1.1,5.3,2.4,7.8,4c3.2,2.4,6,5.3,8.6,8.3
		c0.3,0.3,0.6,0.7,0.9,1c1.4,1.6,2.6,2.8,4.8,3.3c2,0.5,4.2,0.1,5.9-1.1c1.7-1.1,2.9-2.8,3.3-4.8c0.4-1.8,0.2-4.4-1.1-5.9
		c-2.2-2.6-4.5-5.2-6.9-7.7c-2.9-3-6.2-5.6-9.8-7.8c-3.2-2-6.8-3.3-10.3-4.5c-4-1.4-8.1-1.9-12.3-2.1c-0.2,0-0.5,0-0.7,0
		C671.8,973.7,664.5,978.1,658.9,983.7L658.9,983.7L658.9,983.7z M677.1,989.4c-0.2,0.1-0.4,0.2-0.6,0.3
		C676.7,989.6,676.9,989.5,677.1,989.4L677.1,989.4L677.1,989.4z M678.6,1067.9c0.1,0,0.1,0,0.2,0.1c0,0,0,0,0,0
		C678.7,1068,678.7,1067.9,678.6,1067.9L678.6,1067.9L678.6,1067.9z M679.7,1068.4C679.7,1068.4,679.7,1068.4,679.7,1068.4
		c0.2,0.1,0.3,0.2,0.5,0.3C680,1068.6,679.8,1068.5,679.7,1068.4L679.7,1068.4L679.7,1068.4z M701,1138.7c-0.2-0.5-0.5-1-0.7-1.5
		c-0.1-0.1-0.1-0.2-0.2-0.3C700.4,1137.5,700.7,1138.1,701,1138.7L701,1138.7L701,1138.7z M710.7,1123.5c0.1,0.2,0.2,0.4,0.3,0.7
		C710.9,1124,710.8,1123.7,710.7,1123.5c0,0,0-0.1-0.1-0.1C710.7,1123.4,710.7,1123.5,710.7,1123.5L710.7,1123.5L710.7,1123.5z"/>
	<path style="fill:#161616;" d="M1042.4,1230c-3.4,0.2-6.7,0.4-10,0.6c-6.5,0.5-13.1,0.9-19.6,1.7c-3.5,0.5-7,0.8-10.4,1.3
		c-4,0.6-8,1.2-12,1.9c-3.4,0.5-6.8,1.2-10.1,1.9c-2.9,0.5-5.8,1-8.6,1.7c-4.2,0.9-8.3,1.9-12.4,2.9c-3.1,0.7-6.1,1.6-9.1,2.4
		c-13.1,3.6-25.9,8-38.7,12.5c-6,2.1-11.9,4.4-17.8,6.7c-2.8,1.1-5.6,2.2-8.3,3.3c-3.3,1.4-6.8,2.6-10,4.2
		c-3.4,1.6-6.8,3.2-10.1,4.8c-3.6,1.7-6.9,3.7-10.4,5.6c-7.2,4-14,9.1-19.9,14.8c-4,3.9-7.3,8.4-10.4,13c-4,5.8-7.6,11.9-11.2,17.9
		c-3.2,5.4-6.3,11-9.3,16.6c-1.4,2.7-2.9,5.3-4.2,8.1c-1.7,3.7-3.5,7.4-5.2,11.1c-2.6,5.4-4.9,11-7.2,16.5c-1.9,4.5-3.9,9-5.6,13.6
		c-2.3,5.9-4.5,11.7-6.8,17.6c-1.6,4.3-3.1,8.6-4.5,12.9c-2.3,6.6-4.5,13.2-6.6,19.9c-0.5,1.6,0,3.6,0.9,5c0.9,1.4,2.4,2.5,4.1,2.8
		c1.7,0.4,3.5,0.1,5-0.9c1.5-1,2.3-2.4,2.8-4c3-9.6,6.4-19.1,9.6-28.6c4.6-11.9,9.1-23.8,14.4-35.4c3-6.7,6.1-13.4,9.2-20
		c1.2-2.5,2.5-5.1,3.8-7.6c1.7-3.2,3.3-6.4,5.1-9.5c5.2-9,10.5-17.9,16.2-26.6c1-1.5,2.1-2.9,3.1-4.3c2.9-3.8,6.1-7.3,9.6-10.4
		c4.6-3.8,9.7-7.3,14.9-10.2c2.6-1.4,5.3-2.9,7.9-4.3c2.9-1.3,5.8-2.7,8.7-4c3-1.4,6.1-2.5,9.2-3.8c5.5-2.3,11-4.4,16.6-6.5
		c13.1-4.8,26.2-9.4,39.5-13.4c7.4-2.2,14.9-4.4,22.4-6.1c3.8-0.9,7.6-1.8,11.4-2.6c3.9-0.7,7.8-1.5,11.7-2.2
		c5.7-0.9,11.3-1.8,17-2.5c6-0.8,12.1-1.4,18.1-1.9c6.1-0.6,12.2-0.9,18.3-1.3c6-0.4,12.1-0.5,18.2-0.1c3.7,0.4,7.3,1,10.8,2.2
		c0.8,0.3,1.6,0.7,2.3,1c-0.2,0.4-0.4,0.7-0.6,1c-0.4,0.5-0.9,1.1-1.4,1.6c-1.8,1.3-3.7,2.4-5.7,3.4c-6.5,3-13.5,4.7-20.4,6.2
		c-6.1,1.1-12.3,2.1-18.5,3c-6.1,0.9-12.2,1.7-18.3,2.7c-7.1,1.1-14.3,2.3-21.4,3.8c-3,0.6-6,1.2-9,2c-1.5,0.4-2.9,0.7-4.4,1.1
		c-2.5,0.7-5.2,1.2-7.3,2.9c-1.3,1.1-2.2,2.4-2.1,4.2c0,0.8,0.3,1.6,0.8,2.3c0.7,1.1,1.7,1.6,2.9,2c2.9,1,6,0.8,9,0.8
		c1.6,0,3.1-0.1,4.7-0.1c2.6-0.1,5.1-0.1,7.7-0.2c6-0.2,12.1-0.4,18.1-0.7c5.4-0.2,10.7-0.3,16.1-0.2c5.7,0.1,11.4,0.3,17.1,0.6
		c-0.4,0-0.8-0.1-1.3-0.1c3.9,0.3,7.9,0.6,11.8,1.1c4.6,0.6,9.3,1.2,13.9,2c4.5,0.8,9,1.7,13.6,2.7c1.8,0.4,3.5,0.9,5.3,1.3
		c3.4,0.9,6.8,1.8,10.1,3c5.3,2.1,10.2,4.8,15,7.8c-0.8,0.2-1.5,0.4-2.3,0.6c-9.2,1.6-18.5,2.4-27.8,2.9c-7.2,0.4-14.3,0.8-21.5,1.2
		c-13.3,0.7-26.5,1.3-39.8,2.4c-2.3,0.2-4.7,0.4-7,0.6c-1.1,0.1-2.2,0.2-3.3,0.3c-0.8,0.1-1.5,0.2-2.3,0.2c-0.8,0.1-1.6,0.2-2.4,0.4
		c-1,0.2-1.9,0.7-2.9,1.2c-4.4,2.6-3.1,10.1,2,10.9c4.6,0.8,9.3,1,14,1.3c2.3,0.2,4.7,0.4,7,0.6c5.2,0.5,10.4,1,15.6,1.6
		c2.6,0.3,5.2,0.5,7.8,0.9c3.7,0.6,7.4,1.2,11.1,1.9c2.2,0.4,4.4,0.8,6.5,1.3c2.7,0.6,5.4,1.1,8.1,1.8c3,0.8,6.1,1.6,9.1,2.5
		c2.6,0.7,5.1,1.6,7.7,2.5c2.9,1.1,5.8,2.2,8.7,3.4c2.9,1.2,5.7,2.5,8.4,4.1c-0.4,0.2-0.7,0.4-1.1,0.6c-1.4,0.6-2.8,1.2-4.3,1.7
		c-1.5,0.5-3.1,0.9-4.7,1.2c-13.2,2.3-26.6,3.3-40,3c-13.6-0.3-27.1-1.2-40.6-1.9c-2.5-0.1-5-0.3-7.5-0.3c-2.7-0.1-5.1,2.2-5.7,4.7
		c-0.7,3.3,1.4,6.5,4.6,7.3c4.5,1,9.3,1.3,13.9,1.9c3.3,0.4,6.5,0.8,9.8,1.1c6.7,0.8,13.5,1.6,20.2,2.5c6.5,0.8,13,1.8,19.5,2.8
		c6.3,1,12.7,1.9,18.8,3.8c0,0,0.1,0,0.1,0c2.9,1.1,5.8,2.4,8.4,4.1c1,0.8,1.8,1.6,2.7,2.5c0.3,0.4,0.6,0.8,0.9,1.2
		c0,0.1,0,0.1-0.1,0.2c-0.4,1-0.9,1.9-1.4,2.8c-0.7,0.9-1.4,1.6-2.2,2.4c-3.2,2.5-6.7,4.6-10.3,6.4c-7.3,3.3-15,5.5-22.7,7.4
		c-6.2,1.5-12.4,2.8-18.7,4c-17,3-34.1,5.6-51.4,4.5c-2.6-0.3-5.3-0.6-7.9-1.1c-3-0.6-6-1.3-9.1-1.8c-2.1-0.3-4.2-0.6-6.3-0.7
		c-3.2-0.2-6.2,0-9.3,1.1c-3.6,1.3-6.5,3.7-9.3,6.3c-1.4,1.2-2.6,2.5-3.9,3.8c-2.1,2.2-4.1,4.5-6.1,6.8c-2.3,2.7-4.5,5.4-6.7,8.2
		c-4.1,5.2-8.1,10.4-12,15.8c-3.9,5.3-7.6,10.8-11.1,16.4c-3.6,5.6-7,11.4-10.7,16.8c0.4-0.5,0.7-1.1,1.1-1.6c-0.7,1-1.4,2-2.1,2.9
		c0.4-0.5,0.7-1.1,1.1-1.6c-0.4,0.6-0.9,1.3-1.3,1.9c0-0.1,0.1-0.1,0.1-0.2c-0.1,0.2-0.2,0.4-0.4,0.5c-0.1,0.2-0.3,0.4-0.4,0.5
		c0.1-0.2,0.3-0.4,0.4-0.5c-0.1,0.2-0.3,0.4-0.4,0.6c-0.1,0.2-0.2,0.3-0.3,0.5c0.1-0.1,0.1-0.2,0.2-0.3c0,0,0,0.1-0.1,0.1
		c-0.2,0.2-0.3,0.5-0.5,0.7c0.2-0.2,0.3-0.5,0.5-0.7c-7.3,10.2-16.4,18.9-25.3,27.7c-2.3,2.2-4.5,4.5-6.8,6.7c-2.1,2-4.2,4-6.3,6.1
		c-4.4,4.5-8.5,9.3-12.7,14c-8.9,10.2-17.7,20.4-26.4,30.8c-8.3,10-16.1,20.3-24.4,30.4c-2.4,2.9-5,5.6-7,8.8c0,0,0,0,0,0
		c-2,2.4-2.4,5.7-0.7,8.4c0.7,1,1.5,1.8,2.6,2.4c0.6,0.2,1.1,0.4,1.7,0.6c1.2,0.3,2.5,0.2,3.7-0.2c4.5-0.9,7.4-5.2,10.2-8.5
		c2-2.4,3.9-4.8,5.9-7.2c4.1-5.1,8.2-10.3,12.3-15.5c8.3-10.4,17.1-20.5,25.8-30.6c4.4-5.1,8.7-10.2,13.2-15.2
		c2.2-2.5,4.5-5,6.8-7.4c2-2.1,4.1-4,6.2-6c4.4-4.3,8.8-8.7,13.2-13.1c4.6-4.6,9.2-9.2,13.3-14.3c6.4-7.8,12-16.3,17.2-24.9
		c4.8-7.8,9.7-15.5,14.9-23c4.1-5.7,8.2-11.3,12.5-16.8c4.2-5.5,8.5-11.1,13.7-15.8c0.8-0.6,1.5-1.2,2.4-1.7c0.5-0.2,1-0.3,1.4-0.5
		c0.7-0.1,1.4-0.1,2.1,0c5.8,0.8,11.4,2.5,17.1,3.6c6.5,1.2,13.2,1.7,19.9,1.5c13.9-0.2,27.5-2.3,41.2-4.8
		c6.2-1.1,12.4-2.4,18.5-3.9c7.6-1.9,15.2-3.9,22.5-7c4.2-1.8,8.3-3.9,12.1-6.3c2.1-1.3,4-2.8,5.8-4.4c0.9-0.7,1.7-1.5,2.5-2.3
		c1.1-1.1,2-2.6,2.8-3.9c1.2-1.8,1.9-3.9,2.6-5.9c0.4-1.2,0.5-2.5,0.6-3.8c0.1-1.2-0.1-2.6-0.5-3.7c-0.4-1.1-0.9-2.3-1.4-3.3
		c-0.6-1-1.3-1.8-2.1-2.8c-1.6-1.9-3.4-3.4-5.5-4.8c-3.3-2.2-7-3.7-10.7-5c3.7-0.6,7.4-1.2,10.9-2.4c2.2-0.8,4.3-1.8,6.4-2.8
		c1.9-0.9,3.8-2.1,5.3-3.6c0.8-0.8,1.5-1.6,2-2.5c0.6-1,0.9-2,1.2-3.1c0-0.3,0.1-0.6,0.1-0.9c0.3-1.2,0.2-2.3-0.2-3.5
		c-0.3-1.5-0.9-2.8-1.8-4c-2-2.8-5.2-4.7-8.2-6.1c-1.6-0.8-3.3-1.5-4.9-2.2c-3.2-1.4-6.6-2.6-9.9-3.8c-9.7-3.4-19.7-6.1-29.9-8.1
		c6.2-0.4,12.4-0.8,18.5-1.3c4.7-0.4,9.4-0.8,14.1-1.3c4.5-0.5,9.1-1.3,13.5-2.3c2.1-0.5,4.3-1.3,6.2-2.4c2.1-1.2,3.9-2.8,4.8-5.1
		c1-2.4,1.1-4.8-0.2-7.1c-1-1.8-2.7-3.1-4.4-4.2c-1.6-1-3.2-2.1-4.8-3c-2.2-1.2-4.5-2.4-6.8-3.6c-4.5-2.2-9.2-4-14-5.3
		c-2-0.6-4-1-5.9-1.5c-1.6-0.4-3.3-0.9-4.9-1.2c-3.3-0.6-6.5-1.4-9.8-1.9c-7-1.1-14-2.2-21.1-2.7c-3.4-0.3-6.9-0.5-10.3-0.8
		c-2.8-0.2-5.7-0.3-8.5-0.4c0.7-0.1,1.4-0.2,2-0.3c3.9-0.6,7.9-1.2,11.9-1.8c7.8-1.1,15.7-3,23.1-5.9c4.1-1.7,8.2-3.6,11.5-6.6
		c3.7-3.2,6.3-7.7,6.5-12.6c0.6-10.4-11.8-14.8-20-16.5c-5.6-1.1-11.4-1.2-17.2-1.3c-0.5,0-1.1,0-1.6,0
		C1047.3,1229.7,1044.9,1229.8,1042.4,1230L1042.4,1230L1042.4,1230z M1075.3,1248.6C1075.3,1248.6,1075.3,1248.6,1075.3,1248.6
		c0,0.2,0.1,0.3,0.1,0.5C1075.4,1248.9,1075.4,1248.7,1075.3,1248.6L1075.3,1248.6L1075.3,1248.6z M1075.6,1248.7
		C1075.6,1248.7,1075.6,1248.7,1075.6,1248.7c0.1,0.1,0.1,0.3,0.2,0.4C1075.7,1249,1075.6,1248.9,1075.6,1248.7L1075.6,1248.7
		L1075.6,1248.7z M972.3,1275.5c0.1,0.1,0.3,0.1,0.4,0.2c0,0,0,0,0,0C972.6,1275.7,972.4,1275.6,972.3,1275.5L972.3,1275.5
		L972.3,1275.5z M1114.2,1300.9c0,0.1,0,0.1-0.1,0.2c0,0,0,0,0,0C1114.1,1301,1114.1,1301,1114.2,1300.9L1114.2,1300.9
		L1114.2,1300.9z M1109.2,1343.4c0,0.1,0,0.2,0,0.3c0,0,0,0,0,0C1109.2,1343.6,1109.2,1343.5,1109.2,1343.4L1109.2,1343.4
		L1109.2,1343.4z M1096.4,1348.5c-0.2,0-0.4,0.1-0.6,0.1C1096,1348.6,1096.2,1348.5,1096.4,1348.5L1096.4,1348.5L1096.4,1348.5z
		 M1102.4,1380c0,0.2,0.1,0.3,0.1,0.5C1102.4,1380.4,1102.4,1380.2,1102.4,1380L1102.4,1380L1102.4,1380z M1102.5,1381.1
		C1102.5,1381.1,1102.5,1381.1,1102.5,1381.1C1102.5,1381.1,1102.5,1381.1,1102.5,1381.1c0,0.3,0,0.5-0.1,0.8
		C1102.4,1381.6,1102.5,1381.4,1102.5,1381.1L1102.5,1381.1L1102.5,1381.1z M1089.3,1392.3c-0.2,0.1-0.4,0.2-0.7,0.3
		C1088.8,1392.5,1089.1,1392.4,1089.3,1392.3L1089.3,1392.3L1089.3,1392.3z M901.3,1483.2C901.3,1483.1,901.3,1483.1,901.3,1483.2
		c0.1-0.1,0.1-0.1,0.1-0.1C901.4,1483.1,901.3,1483.1,901.3,1483.2L901.3,1483.2L901.3,1483.2z M901.4,1483
		C901.4,1483,901.4,1483,901.4,1483C901.4,1483,901.4,1483,901.4,1483C901.4,1483,901.4,1483,901.4,1483L901.4,1483L901.4,1483z
		 M901.4,1483C901.4,1483,901.4,1483,901.4,1483c0,0,0-0.1,0.1-0.1c0,0,0,0,0-0.1C901.5,1482.9,901.5,1482.9,901.4,1483L901.4,1483
		L901.4,1483z M901.5,1482.9c0.2-0.2,0.3-0.4,0.5-0.7c0.1-0.1,0.2-0.3,0.3-0.4C901.9,1482.2,901.7,1482.6,901.5,1482.9L901.5,1482.9
		L901.5,1482.9z"/>
	<path style="fill:#161616;" d="M759.7,1442.2c-11.1,12-22.2,24-33.9,35.4c-5.9,5.8-11.8,11.6-17.6,17.4
		c-5.5,5.5-10.8,11.2-16.1,16.9c-5.9,6.4-12.1,12.5-18.3,18.7c-6.2,6.2-12.1,12.6-18.2,18.9c-2.9,3-2.5,8.1,0.5,10.8
		c3.1,2.8,8,2.5,10.8-0.5c5.3-5.7,10.6-11.4,16-17c5.3-5.5,10.7-10.9,15.9-16.5c5.3-5.6,10.3-11.4,15.6-16.9
		c5.3-5.6,10.7-11,16.1-16.5c6.5-6.5,12.9-13.1,19.3-19.8c6.8-7.1,13.4-14.4,20.1-21.6c2.6-2.8,2.3-7.4-0.5-9.9
		c-1.3-1.2-3-1.8-4.7-1.8C763.1,1440,761.1,1440.8,759.7,1442.2L759.7,1442.2L759.7,1442.2z"/>
	<path style="fill:#161616;" d="M788.9,1227.2c-11.7,2-23.4,4.4-34.8,7.8c-11.5,3.5-22.6,8.4-33.4,13.7c-10.3,5.1-20,11.5-29.2,18.4
		c-4,3-7.8,6.4-11.7,9.6c-2.9,2.4-5.9,4.8-8.6,7.4c-3.4,3.3-6.9,6.7-10.3,10c-1.1,1.1-2.1,2.3-3.2,3.5c-1.9,2-3.7,4-5.6,6.1
		c-2.8,3-5.2,6.4-7.8,9.6c-2.4,3-4.5,6.1-6.7,9.2c-2.4,3.3-4.7,6.6-6.9,10.1c-2.2,3.3-4.4,6.6-6.4,10.1c-2.2,3.7-4.5,7.4-6.5,11.2
		c-3.8,7.3-7.8,14.6-11.2,22.2c-3.2,7.2-6.4,14.5-9.2,21.9c-5.4,14.4-10.3,28.9-14.6,43.7c-2,7-3.9,13.9-5.5,21
		c-0.7,3-1.3,6.1-1.8,9.2c-0.3,1.6-0.5,3.1-0.7,4.7c-0.2,1.2-0.3,2.4-0.3,3.6c0,1.7,0.8,3,1.5,4.4c0.5,1.1,2.3,2.5,3.3,3.1
		c0.9,0.5,2.1,0.8,3.1,1c3.3,0.5,6.5-0.7,8-3.7c1.2-2.3,1-5.2-0.3-7.3c0.3-1.7,0.5-3.4,0.8-5.2c0.5-2.8,1.1-5.5,1.7-8.3
		c1.3-5.5,2.8-11,4.4-16.5c3.4-11.9,7.2-23.7,11.3-35.5c2.4-6.4,4.9-12.8,7.5-19.2c2.7-6.7,5.9-13.1,9-19.6c3-6.1,6.3-12.1,9.7-18
		c1.6-2.8,3.2-5.6,5-8.4c2.2-3.4,4.3-6.7,6.5-10.1c2.7-3.7,5.3-7.4,7.9-11.2c1.3-1.8,2.8-3.6,4.2-5.3c1.6-2,3-4,4.7-5.9
		c1.9-2,3.7-4,5.6-6.1c1.3-1.4,2.5-2.9,3.9-4.2c3.8-3.7,7.7-7.4,11.5-11.1c4.3-3.6,8.7-7.2,13-10.8c4.6-3.9,9.6-7.3,14.6-10.6
		c6.4-4.3,13.1-8,20-11.3c8.9-4.2,18-7.8,27.3-10.8c8.7-2.8,17.7-4.7,26.7-6.4c1.3-0.2,2.7-0.5,4-0.7c2.1-0.4,3.8-0.9,5.3-2.5
		c1.4-1.5,2.1-3.5,2-5.6c-0.1-2-1-4-2.5-5.3c-1.2-1.1-3.1-2-4.8-2C789.3,1227.1,789.1,1227.2,788.9,1227.2L788.9,1227.2
		L788.9,1227.2z M787.3,1243c-0.5,0.1-1,0.2-1.6,0.3C786.2,1243.1,786.8,1243.1,787.3,1243L787.3,1243L787.3,1243z"/>
	<path style="fill:#161616;" d="M903.7,779.5c-1.2,0.3-2.6,0.7-3.7,1.4c-2.5,1.7-4.5,3.8-6.1,6.4c-1.6,2.6-2.6,5.4-3.6,8.3
		c-2,5.4-3.2,11.1-4.3,16.7c-1.1,5.5-1.9,11.1-3.7,16.4c-1.4,3.7-3.2,7.1-5,10.6c-1.1,2-2.4,3.9-3.6,5.8c-3.1,4.4-6.3,8.8-10,12.8
		c-4.3,4.6-8.8,8.8-13.4,13c-5.8,4.8-11.7,9.5-17.8,13.8c-6.8,4.8-13.7,9.5-20.7,14.2c-13.7,9.1-27.6,18.3-40.3,28.9
		c-6.8,5.8-13.6,11.6-20,17.9c-5.6,5.5-10.6,11.4-15.3,17.6c-4.8,6.4-9.3,13.1-13.2,20c-3.7,6.6-6.8,13.4-10.2,20.2
		c-1.9,3.8-0.5,8.4,3.3,10.4c3.7,1.9,8.5,0.5,10.4-3.3c2.9-5.8,5.6-11.7,8.6-17.4c2.9-5.5,6.2-10.7,9.7-15.7c4.4-6.1,9-11.8,14-17.3
		c5.3-5.7,11.1-10.9,16.9-16c6.3-5.2,12.7-10.3,19.3-15.1c6.5-4.8,13.3-9.3,20-13.8c6.5-4.4,13.1-8.7,19.5-13.2
		c6.9-4.8,13.8-9.6,20.3-15.1c5.9-4.9,11.8-9.8,17.1-15.4c2.4-2.6,4.9-5.1,7.1-7.9c2.4-3.1,4.7-6.2,7-9.4
		c6.3-8.8,11.2-19.1,13.3-29.7c1.7-8.2,2.9-16.5,5.6-24.4c0.7-1.8,1.4-3.5,2.3-5.1c0.2-0.2,0.4-0.5,0.6-0.7c0.2,0,0.4,0,0.6,0
		c3.3,0.6,6.4,1.8,9.6,2.8c1.9,0.6,3.8,1.2,5.7,1.8c3.9,1.3,7.7,2.5,11.6,3.8c7.8,2.6,15.7,5.3,23.5,8.1
		c16.9,6.1,33.8,12.2,50.7,18.2c15.8,5.6,31.7,10.7,47.7,15.8c8,2.6,16.2,4.8,24.2,7.2c3.6,1.1,7.3,1.9,10.9,2.8
		c4.5,1.2,9.1,2.4,13.6,3.6c3.6,0.9,7.4,1.6,11.1,2.3c4.6,1,9.2,1.9,13.8,2.9c3.6,0.8,7.3,1.2,11,1.8c4.8,0.8,9.5,1.6,14.3,2.3
		c3.5,0.6,7.1,0.8,10.6,1.1c5.1,0.5,10.1,1.1,15.2,1.6c4.4,0.5,8.7,0.6,13.1,0.9c6.6,0.3,13.1,0.3,19.7-0.1c6.5-0.3,12.8-1.2,19.3-2
		c2.9-0.4,5.7-0.8,8.5-1.3c2.2-0.4,4.4-0.8,6.6-1.2c3.1-0.6,6.2-1.1,9.4-1.1c0.4,0.3,0.7,0.7,1.1,1.1c4.7,6,8.3,12.9,11.6,19.8
		c2.1,4.7,4,9.5,5.9,14.3c2.1,5.2,3.6,10.7,5.3,16c1.5,4.8,2.8,9.7,4.1,14.5c1.3,4.9,2.3,9.8,3.3,14.8c0.9,5.6,1.8,11.1,2.4,16.7
		c0.3,2.6,0.6,5.2,0.7,7.8c0.2,3,0.5,5.9,0.5,8.9c0.1,6.5,0.1,12.9,0,19.4c-0.1,5.3-0.5,10.5-0.9,15.8c-0.6,5-1.1,10.1-2,15.1
		c-1.1,5.8-2,11.6-3.5,17.3c-0.8,3.2-1.6,6.4-2.4,9.6c-0.7,2.9-1.8,5.7-2.7,8.5c-1.5,4.5-3.2,9-4.8,13.5c-2,4.9-3.9,9.9-6.2,14.7
		c-1.7,3.5-3.3,7-5,10.4c-1.1,2.4-2.2,4.8-3.4,7.2c-3.3,6.1-6.6,12.3-9.8,18.4c-5.1,9.6-10.9,18.7-17,27.7c-5.7,8.1-11.7,16-18,23.6
		c-6.1,7.3-12.3,14.5-19.4,20.8c-7,5.8-14.5,11-22.1,15.9c-8.2,5.4-16.9,10-25.6,14.3c-5.4,2.4-10.9,4.9-16.3,7.4
		c-3.9,1.8-7.8,3.7-11.9,5.2c-7.1,2.6-14.2,5.3-21.3,7.9c-8,3-16,5.7-24,8.5c-4,1.4-6.2,5.7-4.9,9.7c1.3,4,5.8,6.3,9.7,4.9
		c6.1-2.1,12.3-4.1,18.3-6.4c5.4-2,10.8-4,16.2-6c4.1-1.5,8.2-3.1,12.4-4.6c2.8-1.1,5.6-2.5,8.3-3.7c12.3-5.5,24.6-10.9,36.3-17.4
		c10.5-5.8,20.4-12.9,30-20.1c9.4-7.2,17.3-16,24.9-25c7.8-9.3,15-19,21.8-28.9c3.2-4.7,6.3-9.4,9.3-14.3c1.7-2.8,3.4-5.6,5-8.4
		c2.5-4.8,5.1-9.5,7.6-14.3c1.5-2.9,3.2-5.7,4.6-8.7c2.3-4.8,4.6-9.6,6.9-14.5c1.5-3.2,2.9-6.5,4.3-9.8c3.3-8,6.5-16,9.2-24.2
		c1.2-3.9,2.6-7.7,3.6-11.7c1-4,2.2-7.9,2.9-12c0.9-4.6,1.7-9.2,2.6-13.8c0.3-1.8,0.5-3.6,0.7-5.4c0.3-2.7,0.7-5.3,1-8
		c0.6-4.7,0.7-9.6,1.1-14.3c0.3-4.1,0.3-8.2,0.3-12.3c0.2-8.2-0.3-16.4-0.9-24.6c-0.3-3.9-0.9-7.8-1.3-11.6c-0.2-2.1-0.7-4.2-1-6.2
		c-0.4-2.3-0.7-4.7-1.2-7.1c-0.8-4-1.6-8.1-2.6-12.1c-1.1-4.3-2.2-8.5-3.4-12.8c-2.3-7.8-4.7-15.7-7.7-23.3
		c-1.6-4.1-3.3-8.1-5.1-12.1c-1.8-4.2-4-8.2-6.2-12.2c-2.8-5.1-5.9-9.8-9.7-14.2c-1-1.2-2.2-2.1-3.5-3c-1.3-0.9-2.9-1.4-4.5-1.7
		c-1.9-0.5-4-0.4-5.9-0.4c-1.9,0.1-3.8,0.4-5.7,0.8c-3.3,0.6-6.6,1.2-9.9,1.8c-5.3,1-10.6,1.4-15.9,2.1c-13.2,1.7-26.5,1.3-39.8,0.4
		c-8.3-0.9-16.6-1.8-25-2.7c-3.9-0.4-7.8-1.2-11.6-1.9c-4.6-0.7-9.1-1.5-13.7-2.2c-3.7-0.6-7.4-1.6-11.1-2.3
		c-4.6-1-9.2-1.9-13.8-2.9c-3.7-0.8-7.3-1.9-10.9-2.8c-4.5-1.2-9.1-2.4-13.6-3.5c-3.7-1-7.4-2.2-11-3.3c-4.4-1.3-8.8-2.6-13.1-3.9
		c-4-1.2-7.9-2.5-11.8-3.8c-3.7-1.2-7.5-2.3-11.2-3.6c-16-5.4-32-10.9-48-16.7c-16.1-5.9-32.2-11.7-48.5-17.2
		c-8.5-2.9-17.1-5.7-25.6-8.4c-2.6-0.8-5.2-1.2-7.9-1.3c-0.1,0-0.3,0-0.4,0C906.2,778.9,904.8,779.2,903.7,779.5L903.7,779.5
		L903.7,779.5z M908.5,794.1c-0.2,0-0.3,0.1-0.5,0.1C908.2,794.2,908.3,794.1,908.5,794.1L908.5,794.1L908.5,794.1z M1257.5,865.5
		c0.2,0,0.4,0.1,0.6,0.2c0,0,0,0,0,0C1257.9,865.6,1257.7,865.5,1257.5,865.5L1257.5,865.5L1257.5,865.5z M1258.7,866
		C1258.7,866,1258.7,866,1258.7,866c0.2,0.1,0.3,0.2,0.4,0.3C1259,866.2,1258.9,866.1,1258.7,866L1258.7,866L1258.7,866z
		 M745.6,976.3c-0.2,0.3-0.3,0.5-0.5,0.8C745.3,976.8,745.5,976.5,745.6,976.3L745.6,976.3L745.6,976.3z M1276.8,1079.7
		c-0.1,0.3-0.2,0.6-0.3,0.9C1276.6,1080.3,1276.7,1080,1276.8,1079.7L1276.8,1079.7L1276.8,1079.7z"/>
	<path style="fill:#161616;" d="M1295.4,638.3c-5.2,0.7-10.3,1.5-15.4,2.2c-3.3,0.5-6.6,0.9-9.9,1.6c-4.4,1-8.8,2-13.2,3
		c-3,0.7-6.1,1.2-9,2.1c-3.9,1.1-7.7,2.2-11.5,3.3c-3.2,0.9-6.6,1.7-9.8,2.8c-9.5,3.2-18.9,6.3-28.1,10.3
		c-9.5,4.2-18.6,9.2-27.1,15.2c-4,2.9-7.9,6-11.6,9.2c-2.9,2.5-5.8,5-8.5,7.8c-1.6,1.6-3.1,3.1-4.7,4.7c-1,1-2.1,2-3.1,3.1
		c-1.3,1.5-2.7,3-4,4.6c-1,1.1-2.1,2.2-3,3.4c-4.7,6.1-9.3,12.1-13.3,18.7c-1.1,1.8-2.2,3.6-3.3,5.4c-1,1.7-1.9,3.5-2.8,5.3
		c-1.5,2.8-2.7,5.8-3.8,8.8c-1.4,3.8-2.9,7.6-4.1,11.5c-1.1,3.6-2.1,7.4-1.2,11.2c1.6,6.2,8.6,8.7,14.3,6.9
		c7.1-2.1,13.5-6.2,19.4-10.5c-0.2,0.3-0.4,0.7-0.5,1c-1.6,3-3.1,6-4.4,9.1c-0.7,1.7-1.4,3.4-2,5.1c-0.6,1.5-1.1,3-1.6,4.4
		c-0.3,1-0.6,2-0.8,3.1c-0.3,1.9,0,3.5,0.5,5.4c0.7,2.5,3,4.5,5.3,5.5c2.5,1,4.9,1.2,7.5,1.4c2.6,0.2,5.3-0.6,7.8-1.2
		c2.7-0.6,5.3-1.8,7.8-2.9c6.1-2.6,11.9-6,17.6-9.3c-1.5,2.2-3.1,4.5-4.3,6.9c-1.3,2.6-2.6,5.1-3.5,7.8c-0.7,2-1,4.1-0.7,6.2
		c0.2,1.4,0.6,3.2,1.5,4.3c1.2,1.5,2.2,2.6,3.9,3.7c3.1,2,6.7,2.3,10.3,2.1c3.7-0.3,7.3-1.4,10.7-2.7c4.3-1.6,8.4-3.4,12.6-5.4
		c-0.5,0.7-1,1.5-1.5,2.2c-1.7,2.6-3.3,5.3-4.5,8.3c-0.9,2.3-1.4,4.5-1.1,6.9c0.4,3.2,2.1,5.7,4.5,7.7c4.2,3.3,9.4,4.6,14.6,5.1
		c5.6,0.5,11.1-0.3,16.6-1.4c8.2-1.6,16.1-4.8,23.5-8.4c5.3-2.6,10.6-5,15.5-8.1c2.4-1.5,4.8-2.9,7.2-4.5c2.7-1.8,5.4-3.7,8.1-5.6
		c4.7-3.3,9.3-6.7,14-9.9c4.8-3.2,9.8-6.1,15-8.7c4-1.8,8.2-3.2,12.5-4.1c7.4-1.1,14.8-0.3,22.2,0.2c0.5,0.1,1,0.1,1.4,0.2
		c2,0.3,3.9,0.1,5.7-1c1.6-1.1,2.8-2.7,3.2-4.6c0.9-4-1.7-7.9-5.6-8.8c-4.5-1.1-9-1.4-13.7-1.6c-1.6-0.1-3.3-0.1-4.9-0.2
		c-5.3-0.2-10.5,0.6-15.7,1.9c-9.1,2.4-17.5,7.1-25.5,12c-5.8,3.7-11.3,7.9-16.9,12c-5.6,4.1-11.3,8-17.4,11.5
		c-2.1,1.2-4.2,2.5-6.4,3.6c-2.5,1.2-5,2.5-7.5,3.7c-6.7,3-13.6,5.5-20.8,6.9c-3.4,0.5-6.8,0.8-10.2,0.7c-1.5-0.2-3-0.5-4.4-0.9
		c-0.4-0.2-0.7-0.3-1-0.5c0,0,0,0,0,0c1.5-3.5,3.4-6.7,5.3-9.9c1.4-2.5,3-4.9,4.6-7.2c3-4.1,6.2-8.1,9.7-11.7c1.9-2,3.8-3.9,5.7-5.8
		c0.2-0.2,0.4-0.4,0.6-0.6c0.2-0.2,0.5-0.4,0.7-0.5c1.8-1.3,3.5-2.7,5.3-4c4.4-3.5,8.9-7,13.1-10.7c1.1-0.9,2-1.7,2.8-2.9
		c0.8-1.2,1.4-2.7,1.1-4.2c-0.1-1.1-0.4-2.1-1-3.1c-0.6-0.9-1.4-1.6-2.3-2.1c-1.9-1-4.4-0.9-6.2,0.3c-2.4,1.7-4.8,3.5-7.1,5.4
		c-1.3,1-2.6,1.9-3.8,2.9c-3.6,2.7-7.3,5.3-10.9,8c-3.5,2.5-6.9,4.9-10.5,7.3c-1.8,1.2-3.7,2.5-5.5,3.7c-4.7,3.1-9.8,5.7-14.9,8.2
		c-2.8,1.3-5.6,2.5-8.5,3.6c-2.7,1.1-5.3,2.1-8.1,2.8c-0.4,0.1-0.8,0.1-1.2,0.1c2.7-6.3,6.5-12,10.4-17.7c1.9-2.5,3.7-5,5.8-7.4
		c1.3-1.6,2.7-3.1,4-4.6c1.1-1.3,2.1-2.6,3.3-3.8c2.6-2.7,5.2-5.3,7.7-8c0.5-0.5,1-1,1.6-1.6c4.9-3.6,9.8-7.4,14.5-11.2
		c1.8-1.4,3.5-2.9,5.1-4.5c2-2,2.1-5.4,0.6-7.7c-1.6-2.5-4.5-3.3-7.3-2.6c-1.6,0.4-2.8,1.3-4,2.3c-0.6,0.5-1.2,1-1.9,1.5
		c-4.2,3-8.4,5.9-12.6,8.8c-5.2,3.7-10.4,7.3-15.7,10.9c-6,4.1-12,8.1-18.1,12.1c-2.4,1.6-4.9,3-7.5,4.4c-4.5,2.6-9,5.2-13.6,7.5
		c-3.2,1.5-6.4,2.8-9.9,3.6c-0.1,0-0.2,0-0.3,0c0.6-2,1.2-4.1,1.9-6.1c1.8-4.3,3.6-8.5,6-12.6c1.2-2,2.3-4.1,3.6-6.1
		c1.5-2.3,3.1-4.6,4.6-6.9c2.1-2.8,4.2-5.6,6.4-8.4c2-2.6,4.4-5.1,6.6-7.5c0.8-0.9,1.6-1.7,2.4-2.6c2.4-2.1,4.9-4.2,7.3-6.3
		c2.3-2,4.9-4,6.8-6.3c1.7-2,2-4.8,0.6-7c-1.4-2.1-4.2-3.2-6.6-2.3c-3,1.1-5.2,3.5-7.6,5.5c-0.5,0.4-1,0.9-1.5,1.3
		c-2.3,1.8-4.7,3.5-7,5.3c-4.4,3.4-8.9,6.8-13.3,10.3c-5.1,3.9-10.2,7.8-15.3,11.7c-2.1,1.6-4.2,3-6.4,4.5
		c-3.8,2.7-7.7,5.1-11.8,7.3c0.3-0.9,0.6-1.8,0.9-2.7c0.6-1.9,1.3-3.8,2-5.7c1.9-4.5,3.8-9,6.2-13.2c1.3-2.2,2.5-4.5,3.9-6.6
		c1.4-2.2,2.9-4.4,4.3-6.6c1.8-2.4,3.6-4.9,5.4-7.3c0.7-0.9,1.4-1.7,2.1-2.6c1.4-1.6,2.8-3.3,4.1-4.9c1.9-2.3,4.1-4.4,6.2-6.6
		c4-4.2,8.2-8.2,12.7-12c4.3-3.6,8.8-7,13.5-10.1c5.3-3.5,11-6.6,16.7-9.4c4.3-2,8.6-3.9,13.1-5.5c3.7-1.3,7.4-2.7,11.1-4
		c4.9-1.8,9.9-3.2,14.9-4.7c4.7-1.4,9.4-2.8,14.2-3.9c6.2-1.5,12.4-2.9,18.6-4.3c7.3-1.2,14.7-2.4,22-3.3c1.5-0.2,2.8-0.6,3.9-1.8
		c1-1.1,1.5-2.5,1.4-4c-0.1-2.6-2.5-5.3-5.2-5.3C1295.8,638.3,1295.6,638.3,1295.4,638.3L1295.4,638.3L1295.4,638.3z M1171.6,695
		c-0.2,0.2-0.5,0.4-0.7,0.6C1171.1,695.4,1171.4,695.2,1171.6,695L1171.6,695L1171.6,695z M1117.7,765.3c0.1,0,0.1,0,0.2,0
		C1117.8,765.3,1117.7,765.3,1117.7,765.3L1117.7,765.3L1117.7,765.3z M1196.5,788.4c-0.1,0.2-0.3,0.4-0.4,0.6
		C1196.2,788.8,1196.3,788.6,1196.5,788.4L1196.5,788.4L1196.5,788.4z M1146.5,793c0,0.2,0.1,0.4,0.1,0.5
		C1146.5,793.4,1146.5,793.2,1146.5,793C1146.5,793,1146.5,793,1146.5,793L1146.5,793L1146.5,793z M1321,797.2
		c-0.2,0.1-0.4,0.2-0.6,0.3C1320.6,797.3,1320.8,797.2,1321,797.2L1321,797.2L1321,797.2z M1202.7,800.9c-0.2,0.1-0.4,0.2-0.6,0.3
		C1202.3,801.1,1202.5,801,1202.7,800.9L1202.7,800.9L1202.7,800.9z M1182.5,806.8c0.1,0,0.1,0.1,0.2,0.1
		C1182.6,806.9,1182.5,806.8,1182.5,806.8L1182.5,806.8L1182.5,806.8z M1184.6,809.4c0,0.1,0.1,0.2,0.1,0.3
		C1184.7,809.6,1184.6,809.5,1184.6,809.4C1184.6,809.4,1184.6,809.4,1184.6,809.4L1184.6,809.4L1184.6,809.4z M1226.1,811.3
		c-0.1,0.2-0.3,0.4-0.4,0.6C1225.8,811.7,1225.9,811.5,1226.1,811.3L1226.1,811.3L1226.1,811.3z M1216.2,829.3
		c0,0.3,0.1,0.5,0.1,0.8C1216.3,829.8,1216.2,829.6,1216.2,829.3L1216.2,829.3L1216.2,829.3z"/>
	<path style="fill:#161616;" d="M1249.8,611.8c-4.2,0.2-8.3,0.6-12.4,1.7c-5.4,1.4-10.5,3.7-15.1,6.9c-4.5,3.1-8.2,7.6-8.9,13.2
		c-0.4,2.9,0,5.8,1,8.5c0.9,2.7,2.4,5.1,4.2,7.4c1.4,1.9,3.2,3.5,4.9,5.1c2.5,2.3,5,4.3,8.1,5.8c0.8,0.4,1.7,0.8,2.5,1.1
		c2.8,1.1,6.1-0.1,7.8-2.5c2-2.9,1.4-7.4-1.7-9.4c-1.7-1.1-3.2-2.3-4.7-3.5c-2.3-2.1-4.4-4.3-6.3-6.8c-0.4-0.7-0.7-1.3-0.9-2
		c-0.1-0.3-0.1-0.7-0.2-1c0-0.2,0-0.3,0-0.5c0-0.1,0.1-0.3,0.2-0.4c0.2-0.4,0.5-0.8,0.8-1.2c0.7-0.7,1.5-1.2,2.3-1.8
		c2.9-1.7,6-3.2,9.2-4.3c3-0.8,6-1.4,9.1-1.6c1,0,2-0.1,3.1-0.1c3.3,0,6.5,0.1,9.8,0.4c3.1,0.2,6.1,0.7,9.1,1.2c7.6,1.9,15,4.5,22,8
		c1.1,0.6,2.1,1.3,3.1,2.1c0.6,0.6,1.3,1.3,1.9,1.9c1.3,1.3,2.7,2.3,4.7,2.4c1.8,0.2,3.6-0.4,5-1.6c2.7-2.3,3.5-7,0.8-9.7
		c-2.2-2.2-4.4-4.4-7.1-6.2c-2-1.4-4.4-2.4-6.6-3.4c-3.4-1.6-6.9-3.1-10.4-4.4c-7.5-2.8-15.4-4.4-23.4-5c-2.5-0.2-5-0.3-7.5-0.3
		C1252.7,611.7,1251.3,611.7,1249.8,611.8L1249.8,611.8L1249.8,611.8z M1228,636.8c0,0.1,0,0.3,0,0.4
		C1228,637,1228,636.9,1228,636.8L1228,636.8L1228,636.8z"/>
	<path style="fill:#161616;" d="M1295.5,633.7c-0.3,3.3,2.3,6.7,5.7,6.8c2.9,0.1,5.9,0.1,8.8,0.5c2.8,0.7,5.6,1.7,8.3,2.7
		c1.9,0.7,3.8,1.4,5.7,2.2c3.4,1.5,6.8,2.9,10.1,4.6c-0.2-0.1-0.5-0.2-0.7-0.4c0.3,0.1,0.6,0.3,0.9,0.4c0.2,0.1,0.5,0.2,0.7,0.4
		c-0.1-0.1-0.2-0.1-0.3-0.2c2.1,1.1,4.1,2.1,6.2,3.2c-0.5-0.3-1.1-0.5-1.6-0.8c0.7,0.4,1.4,0.7,2.1,1.1c-0.5-0.3-1.1-0.5-1.6-0.8
		c8.1,4.3,16,8.8,23.6,13.8c3.6,2.4,7.3,4.8,10.7,7.4c1.8,1.4,3.8,2.8,5.5,4.3c1.8,1.5,3.5,3.1,5.3,4.6c5.2,5,10.3,10,15.3,15.3
		c5.4,5.9,10.6,11.9,15.8,18c5,5.8,9.8,11.8,14.5,17.8c2.4,3,4.5,6.2,6.8,9.4c2.1,3,4.1,6.1,6.1,9.2c0.6,0.8,1.1,1.7,1.7,2.5
		c4,6.4,7.9,12.8,11.8,19.2c2,3.3,3.9,6.6,5.8,9.9c1.6,2.8,3.3,5.7,4.8,8.6c3.4,6.6,7,13.2,10,20c3.2,7,6.4,14.1,8.9,21.3
		c2.9,8.2,5.4,16.5,8.4,24.7c1.2,3.1,5,4.8,8.1,4.3c2-0.3,3.8-1.5,4.9-3.1c1-1.4,1.7-3.8,1.2-5.5c-4.5-14.9-9.2-29.6-15.7-43.8
		c-3.3-7.3-6.9-14.5-10.6-21.7c-3.5-6.8-7.4-13.3-11.3-19.9c-3.9-6.6-8.1-13.1-12.1-19.7c-4.2-6.6-8.5-13.1-13-19.4
		c-9-12.6-19.3-24.2-29.5-35.7c-4.7-5.3-9.6-10.5-14.8-15.4c-3.2-3-6.4-6.1-9.8-8.9c-1.4-1.2-2.8-2.6-4.4-3.7
		c-1.8-1.4-3.6-2.7-5.5-4.1c-2.6-2-5.4-3.8-8.1-5.5c-3.6-2.3-7.1-4.5-10.7-6.6c-6.8-4-14-7.5-21.1-11c-5.1-2.4-10.3-4.8-15.7-6.7
		c-4.6-1.6-9.1-3.3-13.8-4.3c-3.4-0.7-7-0.5-10.5-0.6c-0.1,0-0.2,0-0.3,0C1298.8,628,1295.8,630.3,1295.5,633.7L1295.5,633.7
		L1295.5,633.7z M1334.7,650.8c-0.1-0.1-0.3-0.1-0.4-0.2c-0.1,0-0.1-0.1-0.2-0.1C1334.3,650.6,1334.5,650.7,1334.7,650.8
		L1334.7,650.8L1334.7,650.8z"/>
	<path style="fill:#161616;" d="M1333.9,780.8c-2,1.7-2.3,4.8-0.6,6.7c5.1,5.9,9.9,12.1,14.2,18.6c5,8.5,8.8,17.6,11.8,27
		c1.8,6.2,3.5,12.4,5,18.7c1.6,6.5,3.2,13.1,4.7,19.6c1.5,6.5,2.9,12.9,4.4,19.4c0.7,3.1,1.6,6.2,2.4,9.2c0.9,3.4,2,6.8,3.5,10
		c0.5,0.9,1.1,1.9,1.7,2.8c0.8,1.2,1.6,1.9,2.7,2.9c1.6,1.4,3.2,2.3,5.1,3.1c2.2,1,4.9,1.6,7.3,2c3.3,0.5,6.5,0.8,9.8,0.9
		c3.8,0.1,7.6-0.2,11.4-0.5c3.4-0.3,6.9-0.7,10.3-1.3c7-1.2,13.9-3.3,20.7-5.5c6.4-2.1,12.7-4.7,18.8-7.6c4-1.9,7.9-3.8,11.8-5.9
		c4.3-2.3,8.4-4.9,12.3-7.6c3.3-2.3,6.5-4.7,9.4-7.5c1.6-1.5,3.1-3.1,4.6-4.7c0.9,2.5,1.6,5,2.5,7.5c1.8,5.3,3.7,10.6,5.6,15.8
		c2,5.5,3.9,10.9,5.8,16.4c1.6,4.6,3,9.3,4.5,14c1,3.4,1.9,6.7,2.8,10.1c0.8,2.8,1.7,5.7,2.4,8.6c1.6,6.5,3.4,13.1,4.8,19.7
		c1.4,6.8,3,13.6,4.3,20.5c1.3,7.1,2.8,14.1,3.9,21.2c1.2,7.2,2.5,14.4,3.6,21.6c1.1,7.3,2.2,14.6,3.3,21.9c2.2,14.5,4,29,6,43.5
		c3.7,27.6,7.5,55.2,11.2,82.8c1.8,13.1,3.4,26.3,5.1,39.4c2,14.9,3.9,29.9,5.7,44.8c1.5,12.3,2.2,24.7,2.8,37.1
		c0.1,6,0.2,12,0.2,18c0,5.8-0.2,11.5-0.3,17.3c-0.1,6-0.1,12-0.1,18.1c0,3.2,0,6.4-0.2,9.7c-0.1,2.4-0.4,4.8-0.9,7.2
		c-0.4,1.4-0.8,2.7-1.2,4.1c-0.6,1.7-1.3,3.3-2,5c0-0.1,0.1-0.1,0.1-0.2c0.1-0.3,0.3-0.5,0.4-0.8c-0.1,0.2-0.2,0.4-0.3,0.6
		c0.2-0.3,0.3-0.7,0.5-1c0,0,0,0,0-0.1c-0.9,1.7-1.7,3.4-2.6,5c0.3-0.6,0.6-1.2,0.9-1.8c-1.5,3-3.5,5.8-5.3,8.6
		c-1.8,2.8-3.8,5.5-5.7,8.2c-4.4,6-9.1,11.7-13.8,17.4c-2.1,2.5-1.6,6.7,0.4,9c1.3,1.5,3.1,2.5,5.1,2.6c1.8,0.2,4.1-0.4,5.4-1.7
		c5.6-5.9,10.7-12,15.5-18.6c4.2-5.7,8.2-11.6,11.5-17.9c0.6-1.1,1.1-2.2,1.7-3.2c3.3-6.6,5.3-13.9,5.6-21.3
		c0.2-7,0.2-14.1,0.2-21.1c0-7.1,0.2-14.3,0.4-21.4c0.1-6.9,0-13.8-0.1-20.7c-0.2-7.5-0.7-15.1-1.3-22.6c-0.4-6.2-1-12.4-1.7-18.6
		c-1.8-15-3.7-29.9-5.7-44.9c-1.7-13-3.3-26-5.1-39c-1.9-13.7-3.8-27.4-5.6-41.1c-1.9-14-3.7-27.9-5.6-41.9
		c-1.9-14.4-3.8-28.9-5.9-43.3c-1.1-7.3-2.2-14.7-3.3-22c-1.1-7.3-2.4-14.5-3.6-21.7c-1.2-7.1-2.6-14.2-4-21.3
		c-1.3-6.8-2.9-13.7-4.3-20.5c-1.4-6.5-3.2-13-4.8-19.5c-0.8-3-1.7-6-2.5-9c-1.1-4-2.1-8-3.4-11.9c-2.1-6.8-4.3-13.6-6.6-20.3
		c-2.2-6.2-4.5-12.4-6.7-18.7c-2-5.7-4-11.5-6-17.3c-0.4-1.2-0.9-2.4-1.4-3.6c-0.3-0.7-0.6-1.4-0.9-2.2c-0.5-1.2-1.4-2.3-2.1-3.4
		c-0.6-0.9-2.9-2.6-3.9-2.8c-0.9-0.2-1.7-0.4-2.6-0.6c-1.2-0.1-3.6,0.2-4.6,0.9c-1,0.7-2.1,1.2-3.1,2c-0.8,0.7-1.6,1.7-2.4,2.5
		c-0.8,0.9-1.5,1.7-2.3,2.6c-2.4,2.6-4.9,5.3-7.6,7.5c-2.9,2.3-5.9,4.5-9,6.5c-12.5,7.7-26.1,13.6-40,18.2c-4.3,1.3-8.6,2.5-13,3.2
		c-5.1,0.9-10.3,1.5-15.5,1.8c-4.2,0.1-8.3,0-12.5-0.7c-1.4-0.3-2.7-0.7-4-1.3c-0.2-0.1-0.4-0.3-0.6-0.4c-0.1-0.1-0.1-0.1-0.2-0.2
		c-1.1-2.1-1.9-4.3-2.6-6.6c-3.7-12.3-6.3-24.9-9.7-37.2c-3.7-13.5-7.1-27.1-12.6-39.9c-1.5-3.5-3.4-6.9-5.2-10.3
		c-2-3.7-4.2-7.3-6.7-10.7c-2.5-3.2-5.2-6.1-8-9c-2.7-2.8-5.3-5.8-7.9-8.7c-1-1.1-2.3-1.7-3.7-1.7
		C1335.9,779.7,1334.8,780,1333.9,780.8L1333.9,780.8L1333.9,780.8z M1359.5,833.4c0,0.1,0.1,0.3,0.1,0.4
		C1359.6,833.7,1359.5,833.6,1359.5,833.4L1359.5,833.4L1359.5,833.4z M1587.3,1394.9c-0.1,0.3-0.3,0.5-0.4,0.8
		c0.3-0.6,0.6-1.2,0.9-1.8C1587.7,1394.3,1587.5,1394.6,1587.3,1394.9L1587.3,1394.9L1587.3,1394.9z M1589,1391.7
		c-0.1,0.3-0.3,0.5-0.4,0.8c0.3-0.6,0.6-1.2,0.9-1.8C1589.3,1391,1589.1,1391.3,1589,1391.7L1589,1391.7L1589,1391.7z
		 M1575.1,1385.2c-0.1,0.2-0.2,0.4-0.3,0.6c0.1-0.2,0.3-0.5,0.4-0.7C1575.2,1385.1,1575.2,1385.1,1575.1,1385.2L1575.1,1385.2
		L1575.1,1385.2z"/>
	<path style="fill:#161616;" d="M1379.9,921.8c0,1.6,1.4,2.7,2.9,2.7s2.7-1.4,2.7-2.9c0-1.6-1.4-2.7-2.9-2.7
		S1379.8,920.3,1379.9,921.8L1379.9,921.8L1379.9,921.8z"/>
	<path style="fill:#161616;" d="M1388.7,905.6c-1.7,0.5-3.8,1.9-4.5,3.7c-1,2.5-2.1,5.1-2.6,7.8c-0.6,3-0.5,6.1-0.5,9.2
		c0.2,5,0.6,9.9,1.1,14.9c0.6,4.6,1.1,9.3,1.7,13.9c0.9,7.8,1.9,15.5,2.8,23.3c1.9,16.5,3.5,32.9,4.8,49.5c1.3,16,2.2,32.1,3,48.2
		c0.5,9.2,0.8,18.3,1.2,27.5c0.3,7.2,0.5,14.4,0.4,21.6c0,4.3,0,8.6-0.1,12.9c-0.2,4.7-0.3,9.5-0.5,14.2c-0.3,7.9-1,15.9-1.7,23.8
		c-0.6,5.2-1.2,10.4-1.9,15.6c-0.3,2.5-0.9,5-1.3,7.5c-0.6,3.4-1.5,6.8-2.7,10.1c-0.6,1.5-1.4,2.8-2.2,4.1c-0.9,1-1.8,1.9-2.7,2.8
		c-2.3,1.7-4.7,3.1-7.2,4.3c-7.2,3.1-14.8,5.2-22.4,7.1c-3.8,1-7.6,2-11.4,2.8c-8.9,2-17.7,3.9-26.6,5.8
		c-15.5,3.3-31.1,6.5-46.7,9.5c-5.4,1-10.7,1.9-16.1,2.9c-6.5,1-13.1,2.1-19.6,2.8c-6.9,0.8-13.9,1.4-20.8,1.9
		c-12.6,0.8-25.3,1.3-37.8,0.1c-5.2-0.6-10.1-1.8-15.1-3.3c-2.6-0.8-5.2-1.5-7.8-2c-2.1-0.4-4.2-0.7-6.4-0.9
		c-1.9-0.2-3.5-0.2-5.4,0.2c-0.5,0.1-1.1,0.2-1.6,0.5c-1.6,0.7-2.7,1.5-3.9,2.7c-2.3,2.3-2.6,6.2-0.9,8.9c2,3.2,5.8,4.1,9.1,2.8
		c0,0,0.1,0,0.1,0c4,0.5,7.9,1.2,11.9,2.4c3.6,1.1,7.3,2.3,11.1,3c8.1,1.4,16.4,1.8,24.7,1.9c16.2,0.1,32.4-1.2,48.5-3.4
		c17.1-2.3,34.1-5.5,51-8.9c15.2-3.1,30.5-6,45.6-9.4c4.4-1,8.9-2,13.3-3c4.3-1,8.6-2.2,12.9-3.3c4.1-1,8.2-2.3,12.2-3.7
		c5.7-2,11.3-4.4,16.3-7.7c4.4-2.9,7.8-6.7,10.4-11.2c1.3-2.2,2-4.7,2.9-7c0.6-1.6,1-3.3,1.3-4.9c3.9-16.9,5-34.2,6-51.4
		c2-33,0.1-66.1-1.7-99.1c-1.9-32.8-5.2-65.5-9.1-98.1c-0.5-4.1-1-8.1-1.5-12.2c-1-8.3-2.2-16.6-1.8-25c0.3-1.5,0.7-2.9,1.2-4.3
		c0,0,0-0.1,0-0.1c0.8-2,1.2-3.8,0.6-6c-0.6-1.9-1.9-3.5-3.7-4.5c-1.1-0.6-2.4-0.9-3.7-0.9C1390.2,905.3,1389.5,905.4,1388.7,905.6
		L1388.7,905.6L1388.7,905.6z M1385.3,1214c-0.1,0.1-0.2,0.2-0.3,0.4C1385.1,1214.3,1385.2,1214.2,1385.3,1214L1385.3,1214
		L1385.3,1214z M1251.6,1248.7c-0.3,0.1-0.7,0.1-1,0.2C1250.9,1248.8,1251.3,1248.8,1251.6,1248.7L1251.6,1248.7L1251.6,1248.7z"/>
	<path style="fill:#161616;" d="M1209.5,1258.9c-1.7,7-3.6,14-6.1,20.7c-1.9,4.8-4,9.6-6.3,14.2c-1.4,2.7-2.6,5.5-4.1,8.2
		c-3.1,5.4-6.1,10.8-9.7,15.9c-1.2,1.6-2.3,3.2-3.5,4.9c0.3-0.5,0.7-1,1.1-1.5c-1.2,1.6-2.3,3.2-3.5,4.8c-2.9,3.9-6,7.5-9.2,11.1
		c-3,3.4-6.3,6.4-9.7,9.4c-1.7,1.3-3.4,2.7-5.2,4c-2.6,1.8-5.3,3.6-8,5.4c-4.4,2.8-9,5.1-13.7,7.3c-5.2,2.3-10.5,4.3-15.9,6.2
		c-2.8,1-5.7,1.9-8.6,2.8c-1.2,0.4-2.5,0.8-3.8,1.1c-0.7,0.2-1.4,0.4-2.2,0.7c-1.9,0.6-3.1,1.7-4.6,2.9c-1.9,1.6-2.3,4.8-1.6,7.1
		c0.9,3.1,3.9,5.2,7.1,5.1c3.9-0.2,7.8-1.7,11.5-2.9c3.6-1.2,7.2-2.4,10.7-3.7c7.7-2.8,15.1-6.3,22.3-10.1
		c6.6-3.5,12.8-7.8,18.6-12.5c3.2-2.5,6.3-5.2,9.1-8.1c1.3-1.4,2.8-2.7,4-4.2c1.5-1.8,3.1-3.6,4.6-5.4c1.7-2.1,3.3-4.4,5-6.5
		c1.9-2.5,3.7-5.2,5.5-7.8c1.3-1.9,2.5-3.8,3.8-5.7c1.4-2.2,2.9-4.4,4.2-6.8c1.3-2.5,2.8-4.9,4-7.4c1.4-3,2.8-5.9,4.3-8.9
		c2.2-4.7,4.2-9.5,6.1-14.3c2.8-7.4,4.9-15.1,6.8-22.8c0.8-3.6-1.4-7.3-5-8.1c-0.5-0.1-1-0.2-1.5-0.2
		C1213.1,1253.7,1210.3,1255.8,1209.5,1258.9L1209.5,1258.9L1209.5,1258.9z M1183,1318.4c-0.1,0.1-0.2,0.3-0.3,0.4
		C1182.8,1318.7,1182.9,1318.5,1183,1318.4L1183,1318.4L1183,1318.4z M1178.3,1325c-0.5,0.6-0.9,1.2-1.3,1.9
		c0.2-0.3,0.4-0.6,0.7-0.9C1177.8,1325.6,1178,1325.3,1178.3,1325L1178.3,1325L1178.3,1325z"/>
	<path style="fill:#161616;" d="M1085.9,1260.4c-2.7,0.1-5.3,0.6-7.9,1c-2.7,0.4-5.4,0.8-8.2,1.2c-6.7,1-13.5,1.8-20.2,2.7
		c-2,0.3-3.8,0.8-5.2,2.4c-1.4,1.4-2.1,3.4-2,5.4c0.1,2,0.9,3.9,2.4,5.2c1.3,1.2,3.5,2.3,5.4,2c6.8-0.9,13.5-1.7,20.2-2.6
		c2.7-0.4,5.4-0.7,8.2-1.1c2-0.3,4-0.6,6.1-1c1.9-0.4,3.7-1.3,5.4-2.1c2.8-1.4,3.8-5.3,3-8c-0.9-2.9-3.7-4.9-6.8-4.9
		C1086,1260.4,1086,1260.4,1085.9,1260.4L1085.9,1260.4L1085.9,1260.4z"/>
	<path style="fill:#161616;" d="M995.8,1044c-2,2-4.1,3.8-6.3,5.6c-1.2,0.9-2.4,1.9-3.5,2.8c-3.2,2.6-6.8,4.7-10.5,6.6
		c-2.6,1.1-5.3,2-8,2.6c-3.1,0.4-6.1,0.4-9.1,0.2c-3.9-0.5-7.7-1.5-11.4-2.8c-3.1-1.3-6-2.8-8.8-4.6c-2.5-1.6-4.9-3.3-7.3-5.1
		c0.1,0.1,0.2,0.1,0.3,0.2c-1-0.7-2-1.5-3-2.2c-1.7-1.3-3.3-2.2-5.5-2.1c-2,0.1-4,0.9-5.4,2.4c-1.4,1.5-2.2,3.5-2.1,5.5
		c0.1,1.8,0.9,4.2,2.4,5.4c4,2.9,8,5.8,12.1,8.6c4.3,3,8.8,5,13.7,6.8c5,1.9,10.2,2.7,15.6,3.2c5.4,0.5,10.9-0.2,16.1-1.6
		c4.6-1.3,9.1-3.6,13.2-6c2.9-1.7,5.6-3.8,8.2-6c3.6-2.9,7-5.9,10-9.5c2.6-3.1,2.7-7.5-0.3-10.4c-1.4-1.3-3.2-2-4.9-2
		C999.3,1041.7,997.3,1042.5,995.8,1044L995.8,1044L995.8,1044z"/>
	<path style="fill:#161616;" d="M1109.9,1072c-1.6,3.6-3.5,6.9-5.6,10.1c-1.1,1.4-2.3,2.7-3.6,3.9c-1.5,1.1-3,2-4.6,2.9
		c-2.1,0.8-4.2,1.5-6.3,2c-1.5,0.2-2.9,0.2-4.3,0.1c-2.3-0.3-4.4-0.8-6.6-1.5c-3.2-1.5-6.1-3.6-9-5.7c-1.4-1-3.6-1-5.2-0.5
		c-1.6,0.5-3.1,1.7-3.9,3.2c-0.8,1.6-1,3.4-0.5,5.1c0.6,1.8,1.7,2.9,3.2,3.9c2.1,1.5,4.2,2.9,6.3,4.3c2.1,1.3,4.4,2.2,6.7,3
		c1.1,0.4,2.1,0.7,3.2,1c4.1,1,8.3,1.4,12.5,0.8c3.1-0.5,6-1.2,8.9-2.3c5.3-2,10-5.5,13.7-9.8c2-2.2,3.6-4.8,5.2-7.3
		c1.5-2.5,2.6-5.3,3.5-8.1c1-3.1-0.9-6.6-3.6-8.1c-1-0.6-2.2-0.8-3.5-0.8C1113.7,1068.2,1111,1069.5,1109.9,1072L1109.9,1072
		L1109.9,1072z"/>
	<path style="fill:#161616;" d="M1209.6,1022.6c-1.9,0.6-3.1,1.8-4.2,3.4c-0.2,0.3-0.4,0.6-0.5,0.8c-0.9,1.2-1.8,2.4-2.8,3.5
		c-1,1.1-2,2-3.1,3c-2.1,1.7-4.4,3.1-6.8,4.3c-2,0.8-4,1.4-6.1,1.9c-1.6,0.2-3.1,0.2-4.7,0.1c-2.4-0.4-4.7-1-7-1.7
		c-2.6-1.1-4.9-2.4-7.2-4c-0.8-0.6-1.5-1.2-2.3-1.9c-3.2-2.8-7.9-2.8-10.9,0.4c-2.8,3-2.8,8.1,0.3,10.9c3.3,2.9,7,5.5,11,7.5
		c4.2,2.1,8.9,3.5,13.6,4.1c2.4,0.3,4.8,0.4,7.3,0.2c2.2-0.2,4.3-0.6,6.4-1.2c3.5-0.9,6.9-2.4,9.9-4.3c3.1-1.9,5.9-4.1,8.7-6.6
		c2-1.7,3.5-3.8,5-5.9c1.2-1.7,1.9-4,2.6-5.9c1.1-3-0.9-6.6-3.6-8c-1.1-0.6-2.2-0.9-3.4-0.9
		C1211.1,1022.3,1210.3,1022.4,1209.6,1022.6L1209.6,1022.6L1209.6,1022.6z"/>
	<path style="fill:#161616;" d="M1098.9,1140.2c-3.3,0.4-6.5,1-9.6,2.1c-5.9,2.1-10.9,6.1-15.1,10.6c-2.7,2.8-5,5.9-7.3,9.1
		c-1.5,2.1-2.9,4.2-4.1,6.4c-1.6,2.8-2.5,6-3.1,9.2c-0.4,2.4-0.5,4.8-0.2,7.2c0,1.3,0.4,2.5,1.1,3.6c1,1.6,2.6,2.8,4.5,3.2
		c3.6,0.9,8.1-1.4,8.8-5.4c0.5-3,0.8-6.1,1.7-9.1c0.9-2.1,2.1-4,3.4-5.9c3-4,6.1-7.9,9.9-11.2c1.4-1.1,2.9-2,4.4-2.8
		c1.6-0.6,3.3-1.1,5-1.5c5.3-0.7,10.6-0.8,16-0.4c9.3,1.1,18.3,3.5,27.3,5.8c4,1.1,8.2-1.7,9.2-5.6c1-4.1-1.6-8.2-5.6-9.2
		c-12.2-3.2-24.6-6.3-37.3-6.5c-0.3,0-0.6,0-0.9,0C1104.2,1139.7,1101.6,1139.9,1098.9,1140.2L1098.9,1140.2L1098.9,1140.2z
		 M1078.2,1172.2c-0.1,0.1-0.2,0.3-0.3,0.4C1078,1172.5,1078.1,1172.3,1078.2,1172.2L1078.2,1172.2L1078.2,1172.2z"/>
	<path style="fill:#161616;" d="M882.8,1099.6c-1.3,0.2-2.6,0.8-3.7,1.8c-1.9,1.8-3.8,3.5-5.7,5.2c-2,1.6-4,3.2-6,4.7
		c-2.6,2.1-5.4,4.2-7.7,6.6c-2.5,2.6-4.6,5.3-6.7,8.2c-1.4,2-2.5,4.2-3.3,6.5c-1.4,3.9-2.1,8.3-1.5,12.4c0.6,3.9,2.1,7.5,5.2,10
		c3.6,3,8.6,4.1,13.2,3.6c4.6-0.5,9-2.3,12.9-4.7c3.6-2.2,6.6-5.4,9-9c1-1.5,1.8-3.3,2.4-5c0.6-1.6,1.3-3.3,1.7-5
		c0.7-2.9,1.1-5.7,1.2-8.7c0.2-3.9-0.6-7.7-1.4-11.4c-0.4-1.7-0.8-3.3-1.1-5c-0.2-2-0.2-3.9-0.1-5.8c0.1-2.4-1.9-4.5-4.1-5.1
		c-0.4-0.1-0.8-0.1-1.2-0.1C884.8,1098.8,883.7,1099.1,882.8,1099.6L882.8,1099.6L882.8,1099.6z M880,1116.1c0.4-0.3,0.8-0.7,1.2-1
		c0.5,2,1,3.9,1.4,5.9c0.2,2,0.3,4,0.2,6c-0.3,2.5-1,5-1.8,7.3c-0.7,1.7-1.5,3.3-2.5,4.8c-0.8,0.9-1.6,1.8-2.5,2.6
		c-1.5,1.1-3,2.1-4.7,3c-1.6,0.7-3.3,1.2-5,1.5c-0.7,0.1-1.4,0.1-2.1,0.1c-0.6-0.1-1.2-0.3-1.8-0.4c-0.3-0.2-0.7-0.3-1-0.5
		c0,0-0.1-0.1-0.1-0.1c-0.1-0.2-0.3-0.4-0.4-0.7c-0.2-0.5-0.3-0.9-0.4-1.4c-0.1-1-0.1-2.1,0-3.1c0.3-1.6,0.6-3.1,1.1-4.6
		c0.8-1.7,1.8-3.3,2.8-4.8c1.2-1.6,2.5-3.1,3.8-4.6c1.5-1.7,3.2-3.1,5-4.6C875.5,1119.7,877.8,1117.9,880,1116.1L880,1116.1
		L880,1116.1z M880.9,1134.7c0,0.1-0.1,0.2-0.1,0.3C880.8,1134.9,880.9,1134.8,880.9,1134.7L880.9,1134.7L880.9,1134.7z
		 M879.2,1138.3c-0.1,0.1-0.2,0.2-0.3,0.4C879,1138.5,879.1,1138.4,879.2,1138.3L879.2,1138.3L879.2,1138.3z"/>
	<path style="fill:#161616;" d="M935.5,566.2c-7.2,0.3-14.5,0.7-21.6,1.4c-15.9,1.5-31.7,3.8-47.4,6.6c-15.7,2.8-31.5,5.7-46.6,10.9
		c-7.8,2.7-15.6,5.6-22.8,9.6c-3.3,1.8-6.3,3.7-9.1,6.2c-2,1.7-3.5,3.5-4.9,5.7c-1.3,2.1-2,4.9-2.4,7.4c-0.8,5.7,0.4,11.2,3,16.2
		c1.2,2.2,2.6,4.2,4.1,6.1c-2.3,0-4.7,0-7,0.2c-3.9,0.2-7.8,0.6-11.6,1.4c-2.4,0.5-4.7,1-7.1,1.6c-1.8,0.5-3.6,1.1-5.4,1.7
		c-1.7,0.5-3.3,1.3-4.9,1.9c-4.2,1.7-8.2,3.9-11.7,6.8c-4.2,3.5-7.5,7.9-9.3,13.1c-1.9,5.4-1.1,11.1,0.9,16.3c2,5.3,5.6,9.8,9,14.2
		c0,0.1,0.1,0.1,0.1,0.2c-1,0-1.9,0-2.9,0.1c-5.1,0.2-10.3,0.5-15.4,1.4c-6.2,1-12.4,2.9-18.2,5.3c-2.2,0.9-4.4,1.8-6.6,2.9
		c-1.8,0.9-3.7,1.7-5.5,2.7c-3.5,2-7,4-10.4,6.3c-3.4,2.2-6.7,4.5-9.9,6.9c-6.5,4.6-12.4,9.9-17.9,15.7c-5.7,6-11.3,12-16.3,18.5
		c-5,6.6-9.3,13.7-13.3,20.9c-3.7,6.7-7.5,13.5-10.3,20.6c-1.8,4.6-3.4,9.2-5,13.9c-1.2,3.6-2.1,7.4-3.2,11.1
		c-2.1,7.6-4.1,15.2-6,22.8c-2,8-3.7,16-5.4,24.1c-0.7,3.3-1.3,6.6-1.8,9.9c-0.6,3.8-1.3,7.6-1.7,11.4c-0.4,4.8-0.9,9.5-1.3,14.2
		c-0.4,4.3-0.4,8.6-0.6,13c-0.6,16,0.2,31.9,1.3,47.9c1.1,15.9,2.9,31.8,4.8,47.6c0.9,7.7,2.1,15.3,3.3,22.9
		c1.4,8.4,3.2,16.7,5.1,24.9c1.8,7.5,3.8,14.8,6.4,22c2.5,7.2,5.4,14.3,8.7,21.2c2.1,4.4,4.2,8.7,6.4,12.9c1.7,3.3,3.7,6.5,5.8,9.6
		c3.3,5,6.8,9.8,10.8,14.2c3.1,3.4,6.6,6.5,10.1,9.5c12.4,10.4,26.5,18.2,40.9,25.4c5.8,2.9,11.7,5.4,17.7,7.8
		c3.3,1.3,6.7,2.4,10.1,3.6c3.2,1,6.4,1.8,9.6,2.9c0.1,0.1,0.3,0.1,0.4,0.1c0.1,0,0.2,0.1,0.3,0.1c-0.1,0-0.1,0-0.2-0.1
		c1.6,0.5,3.1,0.7,4.8,0.1c1.9-0.6,3.4-2,4.3-3.7c1.9-3.6,0.5-8.4-3.3-10.2c-3.3-1.6-6.9-2.5-10.4-3.6c-2.1-0.7-4.2-1.4-6.4-2.1
		c-16.5-6.1-32.3-14.4-47.1-23.8c-7.7-5.4-15.1-11.3-21.4-18.3c-3.5-4.3-6.4-8.8-9.4-13.4c-2.4-3.7-4.4-7.7-6.4-11.6
		c-2.2-4.7-4.4-9.3-6.3-14.1c-2.3-5.6-4.6-11.2-6.3-17.1c-1.7-5.8-3.3-11.6-4.7-17.5c-1.3-5.5-2.5-11.1-3.6-16.6
		c-1.3-8.1-2.5-16.2-3.6-24.3c-1-7.4-1.8-14.8-2.6-22.1c-1.7-16.2-2.9-32.5-3.6-48.8c-0.3-6.4-0.3-12.8-0.3-19.2
		c0-5.6,0.3-11.2,0.5-16.8c0.4-3.9,0.7-7.9,1.1-11.8c0.3-3.5,0.9-6.9,1.4-10.4c0.5-3.4,1-6.8,1.7-10.2c0.9-4.2,1.6-8.5,2.6-12.7
		c2-8.2,3.9-16.4,6.1-24.6c0.8-3.2,1.7-6.3,2.5-9.5c1.1-4.1,2.1-8.2,3.4-12.3c0.8-2.4,1.6-4.9,2.4-7.3c1.3-3.4,2.7-6.9,4.3-10.2
		c1.9-3.9,3.9-7.7,5.9-11.5c3.6-6.9,7.8-13.5,12.1-20c1.7-2.2,3.4-4.5,5.2-6.6c2.1-2.4,4.2-4.8,6.4-7.2c3.9-4.4,8.1-8.4,12.3-12.5
		c4.7-3.9,9.5-7.7,14.6-11c3.2-2.1,6.4-4.3,9.8-6.2c1.4-0.8,2.7-1.7,4.1-2.4c1.3-0.6,2.6-1.3,3.9-1.9c6.1-2.6,12.3-4.9,18.7-6.4
		c7-1.2,14.1-1.4,21.1-1.6c2.6-0.1,5.2-0.1,7.8-0.3c0.9-0.1,1.9-0.2,2.8-0.5c1.6-0.5,2.7-1.1,4-2.3c1.9-1.7,2.8-4.2,2.7-6.8
		c-0.2-3.5-3.1-6.1-5.3-8.5c-0.9-1-1.7-2-2.6-2.9c-3.1-3.8-6.3-7.7-8.6-12c-0.6-1.4-1-2.7-1.4-4.2c-0.1-0.8-0.1-1.5-0.1-2.3
		c0.1-0.5,0.2-1.1,0.4-1.6c0.5-1.1,1.1-2.1,1.7-3.1c1-1.3,2-2.4,3.2-3.5c1.7-1.3,3.6-2.5,5.5-3.5c2.4-1.1,4.9-2.1,7.4-2.9
		c2.6-0.8,5.1-1.5,7.7-2.2c2.6-0.5,5.1-0.8,7.7-1.2c3-0.4,6.1-0.3,9-0.4c2.8-0.1,5.6,0,8.4,0.1c1.6,0,3.2,0.1,4.8,0.1
		c1.1,0,2.2,0,3.2,0c0.6,0,1.3-0.1,1.9-0.2c0.6-0.1,1.2-0.2,1.8-0.3c0.7-0.3,1.4-0.7,2.1-1c2.2-1.1,3.2-4,3.2-6.3
		c-0.1-4.7-4.4-7-7.5-9.7c-1.8-1.6-3.5-3.2-5.2-5c-1.2-1.5-2.3-3.2-3.2-4.9c-0.4-1-0.8-2-1.1-3.1c-0.1-1.1-0.2-2.1-0.2-3.2
		c0.1-0.8,0.3-1.6,0.5-2.4c0.2-0.3,0.3-0.7,0.5-1c0.6-0.7,1.2-1.3,1.9-1.9c3.3-2.5,6.8-4.4,10.5-6.3c3.7-1.6,7.3-3.1,11-4.5
		c4.2-1.7,8.6-2.9,12.9-4.2c7.7-2.3,15.6-3.9,23.5-5.5c14.9-2.8,29.9-5.4,45-7.1c15.8-1.8,31.7-2.8,47.6-3.1
		c8.3-0.2,16.6-0.4,24.9-0.1c4.2,0.1,8.4,0.2,12.6,0.4c4.3,0.3,8.7,0.5,13,0.8c4.2,0.4,8.3,0.8,12.5,1.3c3.9,0.4,7.7,1.1,11.6,1.7
		c3.8,0.6,7.6,1.5,11.4,2.2c3.4,0.7,6.8,1.5,10.2,2.3c7.6,1.8,15.2,3.6,22.8,5.7c8.2,2.2,16.3,4.6,24.5,7
		c11.7,3.6,23.2,7.6,34.8,11.6c7,2.5,14.1,5,21,7.8c7.8,3.2,15.5,6.5,23.1,9.9c6.6,3,13.2,6.4,19.5,10c7,4,14,8.2,20.7,12.7
		c0.1,0,0.1,0.1,0.2,0.1c3.7,2.6,7.2,5.3,10.7,8.1c2.9,2.3,7.1,2.4,9.7-0.5c2.4-2.6,2.4-7.3-0.5-9.7c-6.4-5.2-13.1-10.1-20-14.6
		c-6.8-4.4-13.7-8.4-20.8-12.3c-6.9-3.8-14.1-7.1-21.3-10.4c-7-3.2-14.2-6.1-21.4-8.9c-15-5.8-30.1-11.1-45.4-16.1
		c-15-4.8-30.1-9.3-45.4-13c-8.1-2-16.2-3.9-24.3-5.5c-3.9-0.8-7.9-1.5-11.9-2.1c-3.7-0.6-7.5-1-11.2-1.4c-4.1-0.4-8.2-0.8-12.3-1.1
		c-4.1-0.3-8.3-0.6-12.4-0.8c-8.1-0.3-16.1-0.5-24.2-0.5c-0.6,0-1.1,0-1.7,0C950.9,565.5,943.2,565.9,935.5,566.2L935.5,566.2
		L935.5,566.2z M1211.9,654.7c0.1,0.1,0.2,0.2,0.4,0.3C1212.1,654.9,1212,654.8,1211.9,654.7L1211.9,654.7L1211.9,654.7z
		 M614.5,1033.9c0,0.2,0.1,0.4,0.1,0.7C614.6,1034.4,614.5,1034.2,614.5,1033.9L614.5,1033.9L614.5,1033.9z"/>
	<path style="fill:#161616;" d="M1308.2,791.7c-3,1-5.2,4.7-3.9,7.7c2.4,5.6,4.8,11.3,7,17c2.1,5.6,4,11.2,5.8,16.8
		c3.5,10.9,6.3,22.1,8.6,33.4c1.3,7.1,2.5,14.3,2.9,21.6c0.5,7.7,0.5,15.3,0.1,22.9c-0.9,9.5-2.5,18.8-4.4,28.1
		c-1.9,9.2-4.2,18.3-7.3,27.2c-2.3,6.3-4.8,12.6-7.5,18.7c-2.9,6.8-5.7,13.6-9,20.2c-1.9,3.8-0.5,8.4,3.3,10.4
		c3.7,1.9,8.5,0.5,10.4-3.3c3-6.2,5.6-12.6,8.3-18.9c2.7-6.3,5.2-12.6,7.6-19.1c2.6-7,4.8-14.1,6.5-21.3c1.7-7.3,3.1-14.7,4.4-22.2
		c1.3-7.8,2-15.6,2.4-23.4c0.3-7,0.2-14.2-0.6-21.2c-0.9-7.8-2-15.7-3.8-23.3c-1.7-7.3-3.6-14.5-5.8-21.7
		c-2.2-7.5-4.6-14.9-7.5-22.1c-3.2-8-6.7-15.8-10-23.7c-0.6-1.5-1.5-2.7-3-3.5c-0.9-0.4-1.8-0.7-2.8-0.7
		C1309.5,791.4,1308.9,791.5,1308.2,791.7L1308.2,791.7L1308.2,791.7z"/>
	<path style="fill:#161616;" d="M1313.4,1508.5c-0.3,16.2-0.3,32.4,0.5,48.6c0.4,7.8,0.8,15.5,1.4,23.3c0.3,4.4,0.7,8.7,1.1,13.1
		c0.2,1.7,0.4,3.5,0.5,5.2c0.1,0.7,0.1,1.4,0.2,2.1c0.3,2.2,1.3,4.2,2.9,5.8c1.8,1.8,4.2,2.6,6.7,2c2.2-0.5,4.5-2.4,5-4.7
		c0.3-1.2,0.5-2.4,0.6-3.6c0.1-0.9-0.2-2.7-0.3-3.4c-0.1-1-0.2-1.9-0.3-2.9c-0.2-1.7-0.4-3.5-0.5-5.2c-1.1-12.2-1.9-24.4-2.3-36.6
		c-0.5-14.4-0.5-28.8-0.2-43.1c0.1-4.2-3.1-7.8-7.4-8c-0.1,0-0.2,0-0.3,0C1317.1,1501.1,1313.5,1504.4,1313.4,1508.5L1313.4,1508.5
		L1313.4,1508.5z"/>
	<path style="fill:#161616;" d="M1558.1,1405.5c-2,0.5-3.2,1.6-4.4,3.2c0,0.1-0.1,0.1-0.1,0.2c-3.9,4.6-8.4,8.5-13.2,12.1
		c-6.3,4.2-13,7.9-19.6,11.7c-6.8,3.8-13.6,7.5-20.5,11c-13.7,7-27.9,12.9-42.2,18.4c-7.7,2.7-15.4,5.3-23.1,7.7
		c-7.4,2.3-14.9,4.3-22.4,6.3c-15.3,4.1-30.8,7.9-46.2,11.4c-13.7,3.1-27.4,6.1-41,9.5c-4.1,1-6.7,5.1-5.7,9.3c1,4,5.2,6.8,9.3,5.7
		c16-4,32.1-7.3,48.1-11.2c16.3-3.9,32.5-7.9,48.7-12.3c15.7-4.3,31.2-9.3,46.3-15.4c15-6,29.7-12.7,44-20.2
		c8.7-4.5,17.2-9.5,25.6-14.4c9.4-5.6,19.1-12.4,24.6-22.1c1.9-3.4,1.2-7.8-2.2-10c-1.2-0.7-2.5-1.1-3.9-1.1
		C1559.2,1405.3,1558.7,1405.3,1558.1,1405.5L1558.1,1405.5L1558.1,1405.5z M1554.2,1408c-0.2,0.2-0.4,0.5-0.6,0.7
		C1553.8,1408.4,1554,1408.2,1554.2,1408L1554.2,1408L1554.2,1408z M1553.4,1409c-0.1,0.2-0.3,0.3-0.4,0.5
		C1553.2,1409.3,1553.3,1409.1,1553.4,1409L1553.4,1409L1553.4,1409z"/>
</g>
</svg>
