<?xml version="1.0" encoding="utf-8"?>
<!-- Generator: Adobe Illustrator 22.1.0, SVG Export Plug-In . SVG Version: 6.00 Build 0)  -->
<svg version="1.1" id="Layer_1" xmlns="http://www.w3.org/2000/svg" xmlns:xlink="http://www.w3.org/1999/xlink" x="0px" y="0px"
	 viewBox="0 0 2000 2000" style="enable-background:new 0 0 2000 2000;" xml:space="preserve">
<g>
	<path style="fill:#161616;" d="M1022.2,781.6c-0.6,0.4-1.2,0.7-1.8,1.1c-1.1,0.9-1.9,2-2.4,3.3c-0.7,1.4-1,2.9-1,4.5
		c-0.1,3.8,1.5,7.4,2.7,11c0.4,1.3,0.8,2.5,1.3,3.8c-1.5,0.6-3,1.1-4.6,1.6c-5.1,1.4-10.3,2.4-15.5,3.1c-6.2,0.9-12.4,1.7-18.7,2.2
		c-6.5,0.6-13,1-19.5,1.5c-8.5,0.5-17,1-25.5,1.5c-16.8,0.9-33.6,1.8-50.3,3.1c-9,0.7-17.9,1.4-26.9,2.4c-8.8,0.9-17.6,2-26.4,3.1
		c-8.1,1.1-16.1,2.8-24.2,4.4c-1.8,0.4-3.6,0.9-5.4,1.3c-1.9,0.5-3.8,0.9-5.6,1.4c-4.8,1.3-9.6,2.7-14.3,4.1
		c-3.6,1.1-7.2,2.3-10.7,3.8c-4.2,1.7-8.3,3.6-12.4,5.5c-8,3.7-15.5,8.6-22.9,13.3c-14.1,9-27.2,19.6-39.7,30.7
		c-6.3,5.6-12.1,11.9-17.6,18.3c-2.5,3-5,5.9-7.4,9c-2.7,3.4-5.5,6.8-8.1,10.3c-2.8,3.9-5.6,7.7-8.4,11.6c-2.5,3.5-4.7,7.2-7,10.8
		c-2.1,3.3-4,6.7-5.9,10.1c-2.1,3.6-4.1,7.3-6,11c-1.9,3.7-3.8,7.4-5.6,11.2c-1.9,4-3.9,8.1-5.6,12.2c-3.1,7.6-6.3,15.1-8.8,22.8
		c-1.3,3.9-2.6,7.8-3.8,11.8c-1.3,4.4-2.5,8.8-3.6,13.3c-0.8,3.2-1.6,6.5-2.3,9.8c-0.4-0.4-0.8-0.8-1.3-1.2c-3.3-3.2-6.9-5.7-11-7.7
		c-2.1-1-4.3-1.6-6.6-2.1c-2.6-0.7-5.3-1-8-1.1c-2.2-0.1-4.4,0-6.5,0.6c-2.5,0.7-4.5,1.6-6.7,3c-4.3,2.7-7.7,6.8-10.4,11
		c-5.6,8.6-8.7,18.5-11,28.4c-2.2,9.3-2.7,19.1-1.7,28.6c0.5,4.7,1.7,9.4,3.3,13.9c0.8,2.2,2.1,4.4,3.4,6.3c1.4,2.1,2.9,4.1,4.7,6
		c6.8,7.4,15.7,12.2,25.2,15.1c3.3,1,6.6,1.7,10,2.3c0.8,0.2,1.7,0.3,2.5,0.5c2.3,0.4,4.6,0.4,6.9,0.6c0.8,1.7,1.4,3.4,2,5.1
		c2,7.8,4,15.6,6.2,23.2c1.3,4.4,2.5,8.7,3.9,13.1c1.3,4,2.4,8,3.9,11.8c1.6,4.4,3.3,8.8,4.9,13.3c0.5,1.4,1.2,2.8,1.8,4.1
		c1.3,2.9,2.5,5.8,3.8,8.8c3.4,7.9,7.3,15.6,11,23.3c4.3,9,9.6,17.6,15.1,25.9c6.6,10.1,14.1,19.6,22.3,28.5
		c16.5,18.1,36.1,33,57.6,44.6c10.5,5.7,21.6,10.2,32.9,14.2c8.7,3.1,17.5,5.8,26.5,7.8c5.4,1.2,10.8,2.5,16.2,3.7
		c3.2,0.7,6.4,1.3,9.6,1.8c4.1,0.7,8.3,1.6,12.5,2.2c5,0.6,10.1,1.3,15.1,1.9c3.3,0.4,6.6,0.7,10,1c4,0.3,8.1,0.8,12.2,0.9
		c5.2,0.1,10.4,0.4,15.6,0.2c4.1-0.2,8.3-0.3,12.4-0.5c5.8-0.2,11.5-1.1,17.2-2.2c3.4-0.6,6.7-1.4,10-2.3c4.5-1.2,9.1-2.3,13.6-3.9
		c4-1.4,8-2.6,11.9-4.3c3.9-1.7,7.9-3.3,11.7-5.2c8.4-4.2,16.8-8.5,25.2-12.8c15.1-7.9,29.8-16.4,44.4-25.1c3.3-2,6.6-4.1,9.8-6.2
		c3.5-2.3,7.1-4.4,10.6-6.8c4.2-2.9,8.4-5.8,12.6-8.6c3.1-2.1,6-4.4,8.9-6.7c2.9-2.2,5.8-4.3,8.5-6.7c3.9-3.4,7.8-6.8,11.6-10.1
		c0.8-0.7,1.5-1.5,2.3-2.2c2.2-2.2,4.4-4.4,6.5-6.6c5.1-5.1,10-10.4,14.7-15.9c5.9-7,11.5-14.5,16.4-22.3c2.8-4.5,5.6-9,8.4-13.4
		c2.3-3.6,4.1-7.5,6.1-11.3c1.6-3,3.3-6.1,4.8-9.2c2.3-5,4.6-10.1,7-15.1c1.3-2.9,2.5-5.9,3.7-8.9c1.7-4.2,3.4-8.3,5.1-12.5
		c0.5-1.2,0.9-2.5,1.3-3.8c1-2.9,2-5.8,3-8.7c1.9-5.5,3.7-11,5.4-16.6c3.4-11.8,5.9-23.9,7.4-36.2c1.5-11.9,1.5-24-0.3-35.8
		c-0.8-5.5-2.1-10.8-3.6-16.1c-1.7-6.1-3.7-12-6.1-17.8c-3.1-7.4-7.1-14.4-11.2-21.2c-2.4-4-4.8-8-7.3-11.9
		c-4.3-6.7-8.8-13.4-13.4-19.9c-5.3-7.6-10.7-15.1-16.1-22.6c-4.3-6-8.7-12.1-12.9-18.2c-4.9-7.3-9.9-14.5-14.6-21.9
		c-5-7.7-9.9-15.5-14.7-23.3c-0.8-1.3-1.5-2.5-2.3-3.8c-3.8-6.4-7.8-12.8-11.4-19.4c-4.3-7.7-8.6-15.4-12.6-23.3
		c-1.9-3.8-4-7.5-5.7-11.3c-2-4.6-4.1-9.2-6.2-13.9c-1.9-4.3-3.6-8.7-5.3-13.2c1.3-1.2,2.5-2.5,3.4-4c0.8-1.2,1.3-2.4,1.8-3.7
		c0.6-1.9,0.7-3.2,0.6-5.2c-0.2-3.6-2-6.4-3.9-9.4c-2.9-4.5-7.3-8.9-12.8-9.6c-0.7-0.1-1.4-0.2-2.1-0.2
		C1025.6,780.4,1023.7,780.7,1022.2,781.6L1022.2,781.6L1022.2,781.6z M816.5,843.1c7.9-1.6,15.9-3,23.9-4
		c9.5-1.2,18.9-2.3,28.4-3.2c8.4-0.9,16.8-1.4,25.2-2.1c8.7-0.7,17.4-1.1,26-1.7c8.4-0.5,16.9-0.9,25.3-1.4c8.2-0.4,16.5-1,24.7-1.5
		c9.2-0.6,18.4-1.4,27.6-2.6c9.7-1.3,19.5-2.8,28.7-6.3c1.3,3.4,2.6,6.7,4,10.1c1.8,4.4,3.9,8.7,5.8,13c1.4,3.1,2.9,6.1,4.5,9.2
		c1.9,3.8,3.7,7.6,5.7,11.3c3.9,7.1,7.6,14.2,11.7,21.2c4.8,8.1,9.6,16.1,14.5,24.1c4.8,7.8,9.7,15.6,14.7,23.3
		c4.5,7.1,9.3,14,14.1,20.9c7,10.3,14.5,20.1,21.6,30.3c4,5.7,8,11.3,11.8,17c3.7,5.4,7.3,10.9,10.8,16.4c1.9,3.2,3.7,6.4,5.6,9.5
		c5.4,9.1,9.7,18.8,12.8,28.9c2.9,10,4.8,20.1,5.3,30.5c0.1,14.6-2.2,29.2-5.5,43.3c-2.8,10.8-6.5,21.3-10.1,31.9
		c-2.4,7-5.3,13.8-8.1,20.6c-2.8,6.9-6.1,13.6-9.2,20.3c-1.1,2.5-2.5,4.8-3.7,7.3c-1.6,3.1-3.3,6.1-4.9,9.2c-3,4.9-6.1,9.7-9.1,14.6
		c-3,4.7-6.3,9.3-9.7,13.7c-4.4,5.9-9.3,11.6-14.3,17c-2.5,2.5-5,5-7.5,7.5c-2.1,2.1-4.2,4.3-6.5,6.3c-3.6,3.2-7.3,6.4-11,9.6
		c-2.5,2.1-5.1,4-7.7,6c-2.6,2-5.1,4.1-7.8,5.9c-4.1,2.8-8.2,5.6-12.3,8.5c-5.6,3.9-11.5,7.5-17.3,11.2c-6.8,4.1-13.6,8.1-20.5,12
		c-7.8,4.4-15.6,8.6-23.4,12.9c-7.4,4-14.9,7.8-22.5,11.5c-3.6,1.8-7.2,3.5-10.9,5.1c-2.2,1-4.3,1.9-6.4,2.8
		c-1.7,0.7-3.4,1.2-5.1,1.8c-2.1,0.7-4.3,1.5-6.4,2.2c-2.6,0.7-5.3,1.4-7.9,2.1c-4.9,1.3-9.9,2.4-14.9,3.2
		c-7.8,1.3-15.8,1.6-23.7,1.8c-4-0.1-8-0.1-12-0.2c-3.4-0.1-6.8-0.4-10.1-0.7c-3.2-0.3-6.5-0.4-9.7-0.8c-5.1-0.6-10.1-1.3-15.2-1.9
		c-7.4-0.9-14.8-2.4-22.1-3.7c-3.2-0.5-6.3-1.4-9.4-2.1c-3.5-0.8-7-1.6-10.5-2.4c-19.3-5.3-38.2-12-55.9-21.6
		c-15.1-8.5-29.2-18.9-41.8-30.9c-13.1-12.8-24.4-27.2-34-42.7c-3.2-5.3-6.3-10.7-9-16.3c-1.8-3.7-3.5-7.3-5.3-11
		c-1.1-2.4-2.4-4.7-3.4-7.1c-1.4-3.3-2.9-6.7-4.3-10c-1.2-2.7-2.5-5.4-3.5-8.1c-1.3-3.5-2.6-7-3.9-10.6c-2.1-5.5-3.8-11.1-5.6-16.7
		c-2.2-7.4-4.2-14.9-6.2-22.4c-0.6-2.4-1.3-4.7-1.9-7.1c-0.4-1.5-0.8-2.9-1.3-4.3c-0.4-1.2-0.8-2.4-1.2-3.6
		c-0.3-0.8-0.7-1.6-1.1-2.3c-0.6-1-1.1-1.9-1.7-2.9c-0.9-1.1-1.9-2.1-3-3.1c-1-0.9-2.3-1.4-3.4-2c-0.4-0.1-0.9-0.2-1.3-0.3
		c-1.1-0.4-2.3-0.6-3.4-0.7c-1.8-0.2-3.6-0.2-5.4-0.4c-2.8-0.3-5.6-1-8.4-1.6c-4-1.1-7.9-2.5-11.5-4.4c-2.7-1.6-5.2-3.3-7.6-5.3
		c-1.9-1.9-3.6-4-5.2-6.3c-0.9-1.6-1.6-3.3-2.2-5c-1.2-4.4-1.8-8.9-2-13.5c0-7.1,0.9-14.2,2.6-21.1c1.7-6.1,3.7-12,6.7-17.7
		c1.5-2.4,3.1-4.7,5-6.9c0.9-0.8,1.7-1.5,2.7-2.2c0.5-0.3,1.1-0.5,1.6-0.8c0.4-0.1,0.9-0.2,1.3-0.2c2.3,0.1,4.5,0.3,6.8,0.7
		c1.6,0.5,3.2,1.1,4.7,1.8c2.2,1.4,4.2,2.9,6.1,4.6c3.4,3.4,6.4,7.1,9.2,11.1c0.1,0.3,0.2,0.6,0.3,0.8c0.6,1.6,1.7,3.1,3.1,4.2
		c0.1,0.1,0.2,0.3,0.3,0.4c1,1.7,2,3.1,4,3.8c1.8,0.7,3.9,0.7,5.7-0.1c1.8-0.8,3.1-2.2,3.8-4c0.2-0.4,0.3-0.9,0.4-1.3
		c0.4-0.2,0.8-0.5,1.3-0.7c1-0.6,2.1-1.1,3.1-1.7c1.8-1,3.3-2.2,4-4.2c0.8-1.9,0.7-4.1-0.1-6c-1.6-3.5-6-5.6-9.7-4.1
		c0.7-4.6,1.8-9.2,2.8-13.8c1.5-5.8,3.1-11.6,5-17.3c1-2.9,1.9-5.9,2.9-8.8c1.2-3.3,2.3-6.7,3.6-9.9c1.4-3.5,2.9-7,4.3-10.4
		c1.4-3.3,3-6.5,4.5-9.7c2.7-5.8,5.6-11.5,8.4-17.2c3-5.3,5.9-10.5,9.2-15.6c1.9-3,3.8-6.1,5.8-9c2.5-3.4,4.9-6.9,7.4-10.3
		c1.7-2.3,3.5-4.5,5.2-6.8c2-2.6,4-5.3,6.1-7.8c2.8-3.3,5.5-6.6,8.3-9.8c2-2.4,4.3-4.5,6.4-6.8c-0.5,0.5-0.9,1-1.4,1.5
		c2.1-2,4.1-4,6.2-5.9c2.1-2,4.4-3.9,6.6-5.9c3.9-3.5,8.1-6.7,12.2-9.9c4.2-3.3,8.4-6.5,12.8-9.5c4.5-3.1,9.1-6.2,13.7-9.2
		c2.9-1.7,5.8-3.4,8.8-5c3.9-2,7.8-3.9,11.7-5.8c6.2-2.9,12.8-5,19.3-7C800.8,846.8,808.6,844.7,816.5,843.1L816.5,843.1
		L816.5,843.1z M1163.6,1053.9c0.1,0.4,0.2,0.8,0.4,1.2C1163.8,1054.7,1163.7,1054.3,1163.6,1053.9L1163.6,1053.9L1163.6,1053.9z
		 M577.7,1054.1c-0.1,0-0.1,0-0.2,0.1C577.5,1054.2,577.6,1054.2,577.7,1054.1L577.7,1054.1L577.7,1054.1z M560.2,1100.9
		c0,0.3,0,0.7,0,1C560.3,1101.6,560.2,1101.3,560.2,1100.9L560.2,1100.9L560.2,1100.9z M600.2,1154.4c0.3,0,0.6,0.1,0.8,0.2
		c0,0,0,0,0,0C600.7,1154.5,600.5,1154.4,600.2,1154.4L600.2,1154.4L600.2,1154.4z M601.9,1154.9c0.1,0.1,0.3,0.2,0.4,0.2
		C602.2,1155.1,602,1155,601.9,1154.9L601.9,1154.9L601.9,1154.9z M601.6,1154.9c0.2,0.1,0.3,0.3,0.4,0.4
		C601.9,1155.2,601.7,1155,601.6,1154.9L601.6,1154.9L601.6,1154.9z M736.9,1340.3c0.2,0.1,0.4,0.2,0.6,0.3
		C737.3,1340.5,737.1,1340.4,736.9,1340.3L736.9,1340.3L736.9,1340.3z"/>
	<path style="fill:#161616;" d="M846.4,648.5c-11.4,1.1-22.7,3.1-33.9,5.2c-11.2,2.1-22.3,4.6-33.3,7.7c-11,3.1-21.8,6.8-32.6,10.8
		c-3.7,1.3-7.3,2.9-10.8,4.3c-5.1,2.1-10.2,4.1-15.3,6.2c-5.4,2.2-10.7,4.7-16,7.3c-10.2,5-20.1,10.8-29.5,17
		c-9.2,6-17.8,12.9-26.1,20.1c-3.9,3.4-7.7,7-11.5,10.6c-3.6,3.5-7.3,7-10.6,10.8c-2.6,2.9-5.3,5.9-7.9,8.8
		c-3.4,3.8-6.8,7.5-10.1,11.3c-5,5.6-9.6,11.6-14,17.6c-3.1,4.2-6.1,8.6-9,13c-2.7,4.1-5.4,8.2-7.9,12.4c-2,3.5-4.1,7.1-6.2,10.6
		c-3.9,6.7-7.8,13.5-11.5,20.3c-3.6,6.6-7.3,13.2-10.7,19.9c-2.4,4.8-4.9,9.6-7.3,14.4c-1.1,2.2-2.3,4.4-3.3,6.6
		c-2.2,4.7-4.3,9.4-6.5,14.2c-1.1,2.5-2.3,4.9-3.3,7.4c-1.8,4.7-3.6,9.3-5.4,14c-1,2.7-2.2,5.3-3,8c-1.4,4.5-2.7,8.9-4.1,13.4
		c-1.2,4-2.7,8-3.6,12.1c-2,8.6-3.9,17.1-5.8,25.7c-0.5,2.1-0.8,4.1-1.2,6.2c-0.9,5.3-1.8,10.7-2.7,16c-0.5,2.8-1.1,5.7-1.4,8.6
		c-0.5,4.2-1,8.4-1.5,12.6c-0.5,4.4-1.1,8.8-1.6,13.2c-0.3,2.8-0.4,5.8-0.6,8.6c-0.5,7.4-1.2,14.9-1.3,22.3c0,5.4-0.1,10.8-0.1,16.2
		c0,3.9-0.2,7.8,0,11.7c0.3,8.6,0.6,17.2,1,25.8c0.3,7.6,1.1,15.3,1.8,22.9c0.6,7.7,1.7,15.4,2.6,23.1c0.9,7.4,2,14.7,3.1,22
		c2.2,15.2,4.9,30.3,7.1,45.4c0.5,3.6,1.1,7.3,1.5,11c0.1,1,0.3,2,0.4,3c0.1,1,0.2,2,0.4,3c0.3,1.3,0.8,2.8,1.3,4
		c1.1,2.5,3.3,4.5,5.5,5.9c2.5,1.5,5.2,2.8,7.8,3.9c5,2,10.2,3.5,15.3,5.1c3.5,1.1,7.1,2.1,10.7,3.1c6.9,2,13.9,3.8,20.9,5.6
		c3,0.8,5.9,1.5,8.9,2.2c3.5,0.8,7,1.8,10.6,2.5c12.8,2.6,25.6,5.5,38.7,4c3.3-0.4,6.6-0.6,9.8-1.3c1.7-0.4,3.4-0.8,5.1-1.2
		c1.3-0.4,2.7-0.8,4-1.3c1.8-0.7,3.4-1.8,4.9-3.1c2.5-2.2,3.5-5.7,2.1-8.8c-0.5-1.2-1.3-2.2-2.4-2.9c-1.4-1.1-3.8-1.9-5.6-1.4
		c-1.8,0.5-3.7,1.1-5.5,1.6c-6.1,1.6-12.4,2.5-18.7,2.8c-10.2,0-20.2-2.2-30.2-4.2c-4.8-1-9.6-2.3-14.4-3.4c-7.7-2-15.4-4-23-6.2
		c-3.8-1.1-7.7-2.2-11.5-3.4c-6.4-2-12.8-3.9-18.7-6.9c0,0-0.1,0-0.1-0.1c-0.3-2.1-0.5-4.2-0.7-6.3c-0.2-1.9-0.5-3.8-0.8-5.6
		c-0.5-3.6-1-7.2-1.6-10.8c-1.2-7.5-2.4-15-3.6-22.4c-2.5-16.1-4.8-32.2-6.8-48.4c-0.5-4.2-1.1-8.5-1.4-12.7
		c-0.5-6.7-1.1-13.4-1.6-20.1c-0.3-4.1-0.4-8.3-0.5-12.4c-0.2-5-0.4-9.9-0.6-14.9c0.1-8.6,0.1-17.3,0.2-26c0.1-7.5,0.8-15,1.3-22.5
		c0.2-2.7,0.2-5.5,0.6-8.2c0.6-4.5,1.1-9.1,1.7-13.7c0.5-4,1-8.1,1.5-12.1c0.4-3,1-6.1,1.5-9.1c1.2-7.2,2.2-14.4,3.8-21.6
		c1.8-8,3.6-16,5.4-24c2.3-7.7,4.7-15.5,7.1-23.2c0.9-2.9,2.1-5.6,3.2-8.4c1.8-4.6,3.5-9.1,5.3-13.7c1-2.6,2.3-5.1,3.4-7.7
		c2.1-4.6,4.2-9.3,6.3-13.9c1-2.3,2.3-4.6,3.4-6.8c2.4-4.8,4.8-9.5,7.2-14.3c4.3-8.5,9.1-16.9,13.6-25.3c3.2-5.6,6.4-11.2,9.7-16.7
		c5.8-10.1,12.1-19.9,18.9-29.3c2.3-3.2,4.7-6.3,7.1-9.3c2.1-2.7,4.3-5.6,6.6-8.2c1.9-2.1,3.8-4.2,5.6-6.3
		c4.4-4.9,8.9-9.9,13.3-14.8c7.8-8.1,15.9-15.8,24.5-23.1c8.7-7.4,18-14.1,27.6-20.2c5.2-3.2,10.6-6.2,16-9
		c5.1-2.7,10.3-5.3,15.6-7.6c4.3-1.8,8.5-3.5,12.8-5.3c4.7-2,9.5-3.9,14.2-5.9c3.9-1.6,7.9-3,11.9-4.4c5.9-2.1,11.9-4.1,18-6
		c13.8-4.1,27.8-7.1,41.9-9.7c14.1-2.6,28.3-4.6,42.6-5.1c17.7-0.3,35.4,1,52.7,5.1c7.9,2,15.7,4.6,23.3,7.7c7.9,3.2,15.4,7,23,10.9
		c4.7,2.6,9.4,5.3,14.1,7.9c4.2,2.3,8.2,5,12.3,7.6c4.5,2.8,8.8,6.1,13,9.2c4.1,3,8.2,6.3,11.9,9.7c2.2,2.2,4.1,4.6,5.8,7.2
		c0.8,1.5,1.5,3,2.1,4.6c0.2,0.7,0.4,1.5,0.6,2.2c0.4,1.6,1,3,2.4,4c1.3,1,3,1.4,4.7,1.1c3.1-0.5,6-3.8,5.1-7.1
		c-0.6-2.2-1.2-4.4-1.9-6.6c-0.8-2.4-2.2-4.5-3.6-6.7c-2.4-3.9-5.5-7.5-9-10.5c-3.1-2.8-6.3-5.4-9.6-8.1c-5.8-4.7-12.1-9-18.4-13.1
		c-2.8-1.8-5.5-3.5-8.3-5.2c-4.5-2.5-8.9-5.1-13.3-7.6c-7.6-4.3-15.4-8.3-23.4-11.7c-5-2.2-10.1-4.2-15.2-5.9
		c-5.7-1.9-11.5-3.4-17.4-4.8c-11.1-2.6-22.5-3.8-33.9-4.4c-4.2-0.2-8.5-0.3-12.8-0.3C861.1,647.5,853.7,647.9,846.4,648.5
		L846.4,648.5L846.4,648.5z M961.7,685.1c0.4,0.2,0.7,0.4,1.1,0.6C962.4,685.5,962.1,685.3,961.7,685.1L961.7,685.1L961.7,685.1z
		 M529.6,1245.6c0.1,0.3,0.2,0.5,0.2,0.8C529.7,1246.1,529.7,1245.9,529.6,1245.6L529.6,1245.6L529.6,1245.6z M529.3,1245.9
		c0.1,0.2,0.2,0.3,0.3,0.5C529.5,1246.2,529.4,1246,529.3,1245.9L529.3,1245.9L529.3,1245.9z M530.1,1247c0.2,0.2,0.3,0.3,0.5,0.5
		C530.4,1247.3,530.2,1247.1,530.1,1247C530.1,1247,530.1,1247,530.1,1247L530.1,1247L530.1,1247z"/>
	<path style="fill:#161616;" d="M1028.3,716.2c-1.9,0.8-3.4,2.4-4.1,4.3c-0.8,2-0.7,4.2,0.1,6.1c0.8,1.7,2.4,3.6,4.3,4.1
		c6.9,2,13.8,3.9,20.7,5.9c6.2,1.8,12.3,3.7,18.4,5.7c2.4,0.8,4.8,1.7,7.3,2.6c2.7,1,5.4,1.8,8,2.9c3.6,1.5,7.2,3.1,10.8,4.6
		c5.2,2.3,10.4,4.8,15.4,7.6c5.8,3.3,11.5,6.7,16.9,10.6c3.6,2.6,7.3,5.3,10.9,7.9c2.3,1.7,4.5,3.7,6.7,5.5
		c3.9,3.3,7.8,6.6,11.5,10.1c9.7,9.6,18.3,20,25.5,31.5c5.6,9.4,10.3,19.3,14.4,29.5c1.8,4.3,3.3,8.8,4.9,13.2
		c2.4,6.6,4.4,13.4,6.5,20.1c1.6,6.5,3.4,13,4.6,19.7c0.8,4.7,1.7,9.4,2.5,14.1c0.5,3,0.8,6,1.2,9c0.4,3.3,0.9,6.6,1.2,9.9
		c0.4,4.5,0.8,9,1.3,13.5c0.6,6.5,0.8,12.9,1.2,19.4c0.1,5.3,0.3,10.6,0.1,15.8c-0.3,6.4-0.4,12.8-1,19.1c-0.3,3.6-0.7,7.3-1,10.9
		c-0.3,3.2-1,6.5-1.5,9.7c-0.9,5.8-2.2,11.6-3.4,17.4c0.1-0.5,0.2-0.9,0.4-1.4c-1,4.2-2.1,8.4-3.1,12.7c-1.7,6.6-3.6,13.2-5.5,19.8
		c-1.8,6.5-3.8,13-5.7,19.5c-3.8,12.6-8.9,24.7-15.2,36.3c-2.6,4.6-5.4,9.1-8.2,13.6c-1.2,1.9-1.8,3.8-1.5,6c0.3,2,1.5,3.9,3.1,5.1
		c3.3,2.5,8.8,2,11.2-1.7c4.8-7.5,9.3-15.1,13.3-23c1.8-3.4,3.3-6.9,4.8-10.4c1.7-3.9,3.3-7.9,4.7-11.9c2.8-8.6,5.4-17.2,7.9-25.9
		c2.4-8.3,4.7-16.6,6.8-25c1-4,2-7.9,2.9-11.9c-0.2,0.7-0.3,1.4-0.5,2.1c2.3-9.2,3.8-18.6,5.2-28c0.7-4.3,0.9-8.6,1.3-12.9
		c0.4-4,0.5-8.1,0.7-12.1c0.2-3.9,0.3-7.7,0.3-11.6c0-4.8,0.1-9.7-0.2-14.6c-0.3-5.2-0.6-10.3-0.8-15.5c-0.2-4.1-0.7-8.2-1.1-12.2
		c-0.3-3.6-0.7-7.2-1.2-10.8c-0.5-4.3-0.9-8.6-1.6-12.8c-0.9-5.3-1.9-10.5-2.8-15.7c-0.7-3.9-1.8-7.8-2.8-11.7
		c-1-4.1-2-8.1-3.3-12.1c-1.5-4.7-2.9-9.4-4.4-14.1c-0.5-1.6-1.2-3.2-1.7-4.8c-1.1-3-2.2-6-3.3-9c-3-8.1-6.5-16.1-10.5-23.8
		c-5.5-10.8-12.2-21-19.9-30.4c-3.6-4.4-7.5-8.6-11.5-12.7c-3.3-3.3-6.7-6.7-10.3-9.7c-3.8-3.2-7.7-6.5-11.5-9.7
		c-1-0.9-2.2-1.6-3.3-2.4c-2.6-1.8-5.1-3.7-7.7-5.6c-7.5-5.4-15.5-10.2-23.7-14.5c-6.3-3.3-12.7-6.1-19.3-8.9
		c-7.5-3.2-15.1-6-22.9-8.4c-5.9-1.9-11.8-3.7-17.7-5.4c-6.2-1.8-12.3-3.5-18.5-5.3c-1.1-0.3-2.1-0.5-3.2-0.5
		C1030.3,715.6,1029.3,715.8,1028.3,716.2L1028.3,716.2L1028.3,716.2z M1153.8,792.9c0.4,0.4,0.8,0.8,1.2,1.2
		C1154.6,793.8,1154.2,793.3,1153.8,792.9L1153.8,792.9L1153.8,792.9z M1180.8,826c0.3,0.5,0.6,0.9,0.9,1.4
		C1181.4,826.9,1181.1,826.5,1180.8,826L1180.8,826L1180.8,826z"/>
	<path style="fill:#161616;" d="M472.8,441.4c-4.9,2-9.5,4.5-14,7.4c-4.5,2.9-8.5,6.5-12.1,10.5c-3.6,4-6.2,8.8-8.3,13.7
		c-2.2,5.1-3.7,10.6-4.8,16.1c-1.5,7.4-1.9,14.9-2.1,22.4c-0.3,7.7,0.5,15.5,1.1,23.2c1.3,14.9,5.4,29.5,10,43.7
		c0.4,1.4,0.9,2.8,1.4,4.1c1,2.7,3,4.4,5.4,5.7c0.8,0.6,1.7,1,2.7,1.1c0.3,0,0.6,0.1,1,0.1c1.3,2.6,4.1,4.4,7.1,3.9
		c5.2-0.9,10.4-1.9,15.5-3.3c4.4-1.3,8.7-2.7,13-4.3c2.2-0.8,4.4-1.7,6.5-2.6c2.6-1.2,5.2-2.8,6.4-5.5c1.5-3.4,0.5-7-0.5-10.4
		c-0.8-2.8-2-5.4-3.1-8.1c-1.3-3.2-2.6-6.4-3.5-9.8c-1.8-7.4-3-14.9-3-22.5c0.1-3.4,0.5-6.8,1.3-10.2c0.3-1,0.7-2,1.2-2.9
		c0.3-0.5,0.6-0.9,1-1.3c0.6-0.5,1.3-1,2-1.4c0.9-0.4,1.8-0.8,2.8-1.1c0.2,0,0.4,0,0.6-0.1c0.7,0.1,1.5,0.2,2.2,0.3
		c1,0.4,2,0.8,3,1.3c2.3,1.4,4.3,2.9,6.3,4.7c2.4,2.6,4.4,5.4,6.2,8.4c2.6,4.7,4.8,9.5,6.3,14.6c0.8,3.6,1.2,7.3,1.3,11
		c-0.2,4.8-1,9.4-2.2,14.1c-2.1,6.7-5.1,13.1-8.1,19.4c-2.5,5.3-5.3,10.9-5.7,16.8c-0.7,9.7,5.2,18.1,10.9,25.4
		c2.6,3.3,5.3,6.7,7.9,10c2.2,2.7,4.3,5.4,6.5,8.1c1.2,1.5,2.3,3,3.5,4.4c1.3,1.5,2.5,2.7,4.2,3.7c2.5,1.4,5.5,1.4,8.3,1.1
		c2.7-0.3,5.3-1.2,7.8-2.1c2-0.7,3.9-1.5,5.7-2.5c1.8-0.9,3.6-1.9,5.5-2.8c2-1,4-2.3,6-3.5c1.4-0.8,2.7-1.6,4.1-2.5
		c2.7-1.7,5.4-3.5,8.1-5.3c1.2-0.8,2.4-1.6,3.5-2.5c1.5-1,2.9-2.1,4.2-3.4c1.8-1.8,2.8-4.6,2.5-7.1c-0.3-4.1-2.4-7.9-4.4-11.4
		c-1.1-1.8-2.1-3.7-3.2-5.5c-1.3-2.3-2.7-4.6-4-6.9c0,0,0,0.1,0.1,0.1c-2.4-4.5-4.7-9-6.8-13.6c-1.9-4-3.8-8-5.4-12.1c0,0,0,0,0,0
		c0.3-2.8,0.9-5.4,1.6-8.1c1-3.4,2-6.8,3-10.2c3-10.1,3.8-20.5,3.5-31c-0.3-11.1-3-22.2-6.8-32.6c-1.7-4.7-3.8-9.3-6.2-13.7
		c-2.7-4.9-5.9-9.4-9.4-13.8c-3.1-3.9-6.7-7.5-10.4-10.9c-3.9-3.6-8.3-6.5-13-9c-9.3-5.1-20.2-7.1-30.7-7.4c-0.8,0-1.6,0-2.4,0
		C493.2,435.4,482.6,437.5,472.8,441.4L472.8,441.4L472.8,441.4z M504.8,451.1c5.4,0.2,10.7,0.8,15.9,2.1c3.8,1.2,7.5,2.7,11,4.7
		c4,2.5,7.7,5.5,11.2,8.8c5,5.1,9.4,10.8,13,16.9c4.1,7.5,7.1,15.6,9.3,23.9c1.7,7.4,2.6,14.8,2.6,22.3c-0.2,6.3-0.9,12.5-2.3,18.7
		c-0.6,2.6-1.3,5.1-2,7.7c-1.1,4.4-2.4,8.9-2.7,13.5c-0.2,3.3,0.3,6.6,2.5,9.2c0.5,0.6,1,1.3,1.5,2c2.8,5.2,5.2,10.7,8,16
		c3.6,6.7,7.4,13.1,11.2,19.7c0.8,1.5,1.6,3,2.2,4.6c-0.9,0.6-1.8,1.2-2.7,1.8c-0.8,0.5-1.6,1.1-2.4,1.6c-1.8,1.2-3.5,2.3-5.3,3.4
		c-3.6,2.3-7.2,4.4-10.9,6.6c-4.3,2.2-8.6,4.4-13.3,5.7c-0.9,0.2-1.7,0.3-2.6,0.3c-1.5-2-2.9-4-4.4-6c-1.8-2.3-3.6-4.5-5.4-6.8
		c-4.8-6-10-11.9-14-18.4c-0.8-1.5-1.4-3-1.9-4.5c-0.1-0.8-0.2-1.6-0.3-2.4c0.1-0.9,0.2-1.7,0.4-2.6c1.6-4.5,4.1-8.7,6.3-12.9
		c1.3-2.5,2.6-4.9,3.8-7.4c2.5-5.1,4.2-10.5,5.6-16c1.3-5.2,1.7-10.6,1.6-16c0-5.7-1.3-11.2-3-16.6c-1.6-4.9-4.1-9.5-6.6-14
		c-1.3-2.3-2.7-4.5-4.3-6.6c-1.8-2.5-4-4.7-6.3-6.7c-1.8-1.7-3.9-3-6-4.3c-2.2-1.3-4.4-2.6-6.9-3.4c-2.6-0.9-5.3-1.3-8.1-1.2
		c-3.1,0.2-6,1.2-8.8,2.6c-2.5,1.3-4.8,2.9-6.7,4.9c-1.7,1.8-2.9,3.9-4,6.1c-1.1,2.1-1.6,4.7-2.2,7c-0.7,2.9-1,5.9-1.1,8.9
		c-0.3,5.5,0.1,10.9,0.8,16.4c0.8,5.7,2,11.3,3.7,16.8c1.3,4.2,3.2,8.2,4.9,12.3c0.1,0.3,0.2,0.6,0.4,0.9c-5.8,2.7-11.9,4.8-18,6.5
		c-3.2,0.7-6.4,1.4-9.6,1.9c-0.1-0.5-0.2-1-0.4-1.7c-0.3-1.1-0.8-2.1-1.2-3.2c-0.8-2-1.5-4-2.2-6c-1.5-4.3-2.8-8.6-4-12.9
		c-1.6-6.9-2.9-13.8-3.7-20.9c-0.7-6.9-1-13.8-1.1-20.7c0.4-8.9,1.2-17.8,3.5-26.5c1.3-4.4,3-8.7,5.3-12.8c1.5-2.4,3.3-4.6,5.2-6.6
		c3.2-3,6.8-5.6,10.6-7.9c5-2.7,10.3-4.9,15.9-6.5C492.5,452,498.7,451.2,504.8,451.1L504.8,451.1L504.8,451.1z M517.3,523.3
		c0.1,0.2,0.2,0.4,0.4,0.6C517.5,523.8,517.4,523.5,517.3,523.3L517.3,523.3L517.3,523.3z M523.1,564.6c0,0.2-0.1,0.3-0.1,0.5
		C523,565,523,564.8,523.1,564.6L523.1,564.6L523.1,564.6z M574.6,571c0,0.1,0,0.3,0,0.4C574.6,571.2,574.6,571.1,574.6,571
		L574.6,571L574.6,571z M574.7,572.9c0,0.1,0.1,0.2,0.1,0.4C574.8,573.1,574.8,573,574.7,572.9L574.7,572.9L574.7,572.9z
		 M548.5,640.4c0.1,0.1,0.2,0.2,0.2,0.2c0,0,0,0,0,0C548.6,640.6,548.5,640.5,548.5,640.4L548.5,640.4L548.5,640.4z M549.2,640.7
		c0.2,0,0.5,0,0.7,0c-0.1,0-0.2,0-0.3,0C549.4,640.7,549.3,640.7,549.2,640.7L549.2,640.7L549.2,640.7z"/>
	<path style="fill:#161616;" d="M594.1,655.3c-2.3,0.5-4.7,1.1-6.9,1.9c-1.5,0.5-3.2,1.5-4.5,2.3c-1.4,0.8-2.6,1.8-3.8,2.9
		c-1.5,1.4-3,2.9-4.3,4.5c-1.5,1.7-2.6,3.8-3.7,5.8c-0.9,1.8-1.6,3.8-2.2,5.8c-0.4,1.3-0.7,2.5-1,3.8c-0.3,1.4-0.4,2.9-0.4,4.4
		c-0.4,0.8-0.6,1.6-0.8,2.4c-0.3,2-0.5,4-0.7,5.9c-0.1,1.5-0.3,3.1-0.2,4.6c0.1,2.3,0.5,4.4,1.2,6.6c0.5,1.9,1.7,3.8,2.7,5.4
		c0.8,1.2,1.6,2.4,2.5,3.5c1.4,1.6,2.8,3.1,4.3,4.5c3,2.7,6.9,4.6,10.7,5.8c1.2,0.4,2.4,0.7,3.6,1c2.1,0.6,4.5,0.6,6.7,0.6
		c1.8,0,3.6-0.1,5.4-0.4c3.5-0.5,7-1.4,10.3-2.6c2-0.7,3.9-1.8,5.7-2.9c2.2-1.3,4.1-2.7,6-4.4c3.8-3.5,6.6-8.1,8.3-13
		c0.9-2.6,1.7-5.2,2-7.9c0.3-2.2,0.4-4.3,0.4-6.4c0,0.7,0,1.4,0,2.1c0-0.5,0-0.9,0-1.4c0,0.1,0,0.1,0,0.2c0-0.1,0-0.2,0-0.3
		c0-0.6,0-1.2,0-1.8c0,0.4,0,0.9,0,1.3c0-5.6-1-10.9-3.3-16c-0.6-1.4-1.4-2.8-2.1-4.1c-0.6-1.1-1.3-2.2-1.9-3.3
		c-1.1-1.8-2.7-3.3-4.3-4.6c-1.6-1.3-3.4-2.3-5.2-3.3c-1.1-0.6-2.3-1.2-3.5-1.6c-3.5-1.3-7.2-2-10.9-2.3c-0.8,0-1.6-0.1-2.4-0.1
		C599.4,654.5,596.7,654.8,594.1,655.3L594.1,655.3L594.1,655.3z M602.6,670.5c1.9,0.2,3.7,0.4,5.6,0.8c1.5,0.5,2.9,1.1,4.3,1.9
		c0.7,0.5,1.4,1,2,1.5c0.5,0.6,0.9,1.2,1.3,1.8c1.3,2.4,2.4,4.9,3.2,7.4c0.3,2,0.5,4,0.6,6c0,2.2-0.3,4.4-0.8,6.6
		c-0.6,1.9-1.4,3.7-2.4,5.5c-0.6,1-1.3,1.9-2.1,2.8c-1.3,1.2-2.7,2.2-4.2,3.1c-1.8,0.9-3.6,1.6-5.5,2.2c-2.8,0.6-5.5,1-8.3,1.1
		c-1.2-0.1-2.4-0.3-3.6-0.6c-1.5-0.5-3-1.1-4.5-1.8c-0.9-0.6-1.7-1.3-2.5-2c-1.2-1.3-2.2-2.6-3.2-4c-0.4-0.7-0.7-1.4-0.9-2.2
		c-0.1-0.6-0.1-1.2-0.2-1.8c0.2-2.5,0.5-4.9,0.8-7.3c0.1-0.9,0.1-1.8-0.1-2.7c0.1-0.4,0.1-0.8,0.2-1.3c0.9-3,1.9-6.1,3.3-8.9
		c0.8-1.2,1.7-2.2,2.6-3.3c1-0.9,2-1.8,3.1-2.5c1.1-0.5,2.2-1,3.4-1.3C597.4,671,600,670.6,602.6,670.5L602.6,670.5L602.6,670.5z
		 M582.7,686.5c-0.1,0.2-0.1,0.5-0.2,0.7C582.6,686.9,582.7,686.7,582.7,686.5L582.7,686.5L582.7,686.5z M619.7,688.7
		c0,0.4,0,0.7,0,1.1c0,0.3,0,0.7,0,1c0-0.2,0-0.4,0-0.7c0,0.1,0,0.3,0,0.4c0-0.2,0-0.4,0-0.6c0,0,0,0,0,0c0-0.3,0-0.5,0-0.8
		c0,0.1,0,0.2,0,0.3C619.6,689.2,619.7,689,619.7,688.7L619.7,688.7L619.7,688.7z M619.6,690.1c0-0.1,0-0.2,0-0.3c0-0.1,0-0.2,0-0.3
		C619.6,689.7,619.6,689.9,619.6,690.1L619.6,690.1L619.6,690.1z"/>
	<path style="fill:#161616;" d="M680,338.4c-6.2,0.4-12.4,1.4-18.4,2.8c-5.5,1.3-10.8,2.9-15.9,5.3c-5.3,2.4-10.2,5.7-14.5,9.5
		c-8.8,7.9-14.4,18.9-17.5,30.2c-2.1,8-4,16-5.5,24.2c-1.5,8.3-1.7,16.6-1.4,25c0.1,3.2,0.6,6.6,1.2,9.7c0.8,4.1,1.7,8.2,2.9,12.2
		c0.9,3.1,2,6.1,3.3,9c0.9,2,2.1,3.8,3.3,5.7c1.2,2,2.6,3.7,4.5,5c2.2,1.5,5,2,7.4,1c1.2,0.6,2.5,0.9,3.9,0.7c2.5-0.3,5-0.6,7.4-1.2
		c2.9-0.7,5.7-1.5,8.5-2.5c4.3-1.4,8.7-3.3,12.6-5.5c1.4-0.8,2.9-1.6,4.3-2.5c1-0.7,2.1-1.4,2.9-2.5c1.3-1.7,2.1-3.3,2.6-5.3
		c1.3-5.1-0.8-10.5-2.1-15.4c-1.3-5.1-3.4-10-4.9-15c-0.8-3.4-1.1-6.9-1.2-10.5c0.2-3.6,0.6-7.1,1.4-10.5c0.6-2.2,1.3-4.3,2.3-6.3
		c0.9-1.4,2-2.7,3.1-3.9c1-0.9,2-1.6,3.1-2.3c1-0.6,2.1-1,3.2-1.5c0.4-0.1,0.8-0.1,1.2-0.1c1.2,0.1,2.4,0.3,3.5,0.5
		c1.3,0.5,2.5,1,3.7,1.7c2.3,1.5,4.4,3.2,6.5,5.1c2.3,2.5,4.2,5.3,6,8.1c1.2,2.2,2.3,4.4,3.2,6.8c0.9,2.3,1.7,4.7,2.3,7.1
		c1,4.3,1.2,8.6,1.4,13.1c-0.1,3.8-0.6,7.6-1.5,11.3c-1.6,5-3.8,9.5-6.3,14.1c-1.9,3.1-3.9,6.1-6,9c-2.4,3.2-5,6.3-7.7,9.3
		c-2.3,2.6-4.6,5.2-6.5,8.2c-0.5,0.8-1,1.6-1.4,2.5c-0.5,0.8-1,2.7-1.1,3.4c-0.1,2.2-0.1,4.4,0.3,6.6c0.4,2.5,1,4.9,1.8,7.3
		c1.2,3.9,2.7,7.7,4.1,11.4c1.3,3.4,2.7,6.9,4.1,10.3c3.1,7.3,6.6,14.4,10.1,21.6c2.3,4.6,4.5,9.4,7.4,13.7c1.4,2.1,4,4.2,6.6,4.4
		c0.8,0.1,1.7,0.1,2.5,0.1c1-0.2,1.9-0.5,2.9-0.8c1-0.5,2.1-1,3-1.6c0.7-0.4,1.3-0.8,2-1.3c2.1-1.4,4.2-2.8,6.4-4.1
		c4.2-2.3,8.5-4.5,12.9-6.2c2.2-0.9,4.5-1.7,6.7-2.6c1.9-0.7,3.5-1.4,5.2-2.5c1.5-1,2.4-2.8,3.1-4.4c1-2.2,1.3-4.8,1.1-7.2
		c-0.4-6.9-2.3-13.6-3.9-20.3c-1.5-6-3-12-4.5-17.9c-0.9-3.3-1.8-6.5-2.8-9.8c-0.9-2.8-1.9-5.6-2.9-8.4c0-0.1,0-0.3-0.1-0.4
		c0.1-1,0.3-1.9,0.5-2.9c1.5-4.3,3.4-8.5,5.3-12.7c1.6-3.7,3-7.5,4.3-11.4c1.4-3.9,2.4-8,3.4-12c0.9-3.9,1.8-7.8,2.5-11.7
		c2-11.7,3.2-24,0.8-35.8c-2.3-11.2-7.5-21.7-14.6-30.5c-7.4-9-16.7-16.4-27.3-21.3c-5-2.3-10.7-3.6-16.1-4.5
		c-3.4-0.5-6.9-0.7-10.3-0.7C685.5,338.1,682.7,338.2,680,338.4L680,338.4L680,338.4z M689,353.9c4.8,0.2,9.4,0.7,14.1,1.9
		c3.7,1.2,7.2,2.7,10.6,4.6c4.4,2.7,8.4,5.9,12.1,9.5c3.5,3.6,6.7,7.5,9.3,11.8c2.5,4.6,4.4,9.5,5.8,14.5c1,4.3,1.4,8.7,1.4,13.1
		c-0.2,5.5-0.7,11.1-1.6,16.5c-0.9,5.6-2.1,11.1-3.4,16.6c-0.6,2.1-1.2,4.2-1.9,6.3c-1.2,3.4-2.4,6.7-3.8,10
		c-1.2,2.8-2.4,5.5-3.6,8.3c-1.1,2.6-2.1,5.3-2.8,8c-0.6,2.3-0.9,4.5-0.9,7c0,1.9,0.5,3.8,1.2,5.5c2,5.5,4,11,5.7,16.7
		c1.6,5.5,3,11.1,4.4,16.7c-0.1-0.3-0.1-0.5-0.2-0.8c0.7,2.6,1.3,5.3,2,7.9c-0.2-0.7-0.3-1.3-0.5-2c0.9,4.1,1.9,8.1,2.3,12.3
		c-1.8,0.6-3.5,1.2-5.2,1.8c-2.7,1-5.3,2.2-7.8,3.5c-3.1,1.6-6.3,3.2-9.3,5c-1.5,0.9-3,1.8-4.4,2.7c-3.7-7-7.1-14.2-10.4-21.4
		c-2.1-4.6-4-9.2-5.8-13.9c-2-5-3.9-10.1-5.5-15.2c-0.3-1.5-0.6-3-0.8-4.5c1.7-2.5,3.7-4.7,5.7-7c2.6-3,5.2-6.1,7.7-9.4
		c5.4-7.1,10-15,13.3-23.3c2-5.3,3.2-10.7,3.6-16.3c0.4-4.4,0.1-8.9-0.3-13.4c-0.3-3.7-1.3-7.3-2.2-10.9c-0.5-1.8-1-3.5-1.7-5.2
		c-1.8-4.3-3.8-8.4-6.2-12.3c-1.2-2-2.5-3.8-3.9-5.6c-2.2-2.7-4.8-5-7.4-7.3c-2.5-2.1-5.5-3.8-8.4-5.3c-3.4-1.8-7.5-2.6-11.3-2.7
		c-1.7,0-3.3,0-5,0.3c-1.9,0.4-3.5,1-5.3,1.8c-3.7,1.8-7.1,4.1-9.9,7c-2.2,2.3-4.2,4.8-5.6,7.6c-1.2,2.3-1.9,4.8-2.7,7.2
		c-0.8,2.7-1.5,5.4-1.9,8.2c-0.6,3.9-0.6,7.9-0.5,11.8c0.2,5.8,1.7,11.3,3.5,16.8c0.8,2.5,1.8,5,2.7,7.6c0.8,2.3,1.4,4.6,2.1,6.9
		c0.2,0.8,0.3,1.5,0.4,2.3c-0.9,0.6-1.8,1.2-2.7,1.7c-2.5,1.3-5.1,2.6-7.7,3.7c-2.7,1.2-5.6,2.1-8.4,3c-2,0.4-4,0.8-6.1,1
		c-0.3-0.5-0.6-1-0.9-1.5c-0.5-0.8-1-1.6-1.5-2.4c-1.9-3.6-3.1-7.6-4.2-11.5c-0.8-3.4-1.4-6.8-2-10.3c-0.5-3.5-0.6-7-0.8-10.6
		c0.1-3.1,0.3-6.1,0.5-9.2c0.3-3.5,1-6.9,1.6-10.3c1.2-6.4,2.8-12.8,4.4-19.1c1.5-4.6,3.2-8.9,5.5-13c1.8-2.8,3.8-5.4,6.1-7.8
		c2.6-2.4,5.4-4.5,8.4-6.3c4.5-2.4,9.3-4.2,14.3-5.5C671.6,355,680.3,353.9,689,353.9L689,353.9L689,353.9z M742.2,409.9
		c0,0.2,0,0.4,0,0.5C742.2,410.3,742.2,410.1,742.2,409.9L742.2,409.9L742.2,409.9z M704.4,434.2c0,0.2,0,0.5,0,0.7
		C704.4,434.7,704.4,434.5,704.4,434.2L704.4,434.2L704.4,434.2z M656.7,455c0,0.1,0,0.1,0,0.2c0,0,0,0,0,0
		C656.7,455.1,656.7,455,656.7,455L656.7,455L656.7,455z M739.4,538.1c0,0.1,0,0.2,0,0.3c0,0,0,0,0,0
		C739.4,538.3,739.4,538.2,739.4,538.1L739.4,538.1L739.4,538.1z M735.9,522.2c-0.1-0.4-0.2-0.8-0.3-1.2
		C735.7,521.4,735.8,521.8,735.9,522.2L735.9,522.2L735.9,522.2z M746.2,501.9c-0.1-0.6-0.3-1.1-0.4-1.7
		C745.9,500.8,746.1,501.3,746.2,501.9L746.2,501.9L746.2,501.9z M745.8,500.1c0,0.1,0,0.1,0,0.2c0-0.1-0.1-0.2-0.1-0.3
		C745.7,500,745.7,500,745.8,500.1L745.8,500.1L745.8,500.1z"/>
	<path style="fill:#161616;" d="M735.6,572.3c-1.3,0.2-2.5,0.5-3.8,0.8c-1.3,0.3-2.6,0.6-3.9,1.1c-2.1,0.9-3.7,2.5-5.2,4.2
		c-1.3,1.4-1.7,3.4-1.5,5.3c-0.9,0.4-1.7,1.1-2.5,1.9c-2.6,2.9-4.7,6-5.9,9.7c-1,3.3-1.5,6.7-1.9,10.1c-0.5,4.5-0.5,9.2,1.4,13.4
		c1.3,2.8,3,5.4,5,7.8c2,2.5,4.4,4.9,7,6.8c5.5,4,12,7.2,18.7,8.3c4.2,0.7,8.3,0.3,12.4-0.6c1.5-0.3,2.9-0.7,4.3-1.1
		c1.9-0.6,3.8-1.7,5.5-2.8c2.1-1.3,4-2.8,5.8-4.5c2-2,3.7-4,5.3-6.3c1.6-2.4,3-5,4.2-7.7c2.6-6,2.9-12.8,1.3-19.1
		c-0.5-2-1-3.9-1.8-5.8c-1.3-3.1-3.7-6-6.1-8.4c-5.3-5.5-12-9.7-19.3-12c-3.9-1.2-8-1.8-12.1-1.8C740.4,571.6,738,571.8,735.6,572.3
		L735.6,572.3L735.6,572.3z M743.6,587.5c2,0.1,3.9,0.4,5.9,0.9c2.4,0.8,4.7,1.8,6.9,3c2.2,1.4,4.2,2.9,6,4.6
		c1.1,1.2,2.2,2.5,3.1,3.9c0.4,0.9,0.7,1.8,1,2.7c0.3,1.5,0.6,3.1,0.7,4.6c-0.1,1.2-0.3,2.5-0.5,3.7c-0.6,1.8-1.4,3.4-2.3,5.1
		c-1.3,2-2.6,3.8-4.2,5.5c-1.2,1-2.4,1.8-3.6,2.7c-1,0.5-2,0.9-3,1.3c-2,0.4-4,0.8-6.1,0.9c-1.3-0.1-2.5-0.3-3.7-0.6
		c-2.8-0.9-5.4-2.1-8-3.5c-1.8-1.2-3.5-2.5-5.1-4c-1.6-1.7-3-3.5-4.3-5.5c-0.3-0.7-0.6-1.4-0.9-2.2c-0.2-1.2-0.3-2.5-0.3-3.7
		c0.1-2.7,0.3-5.4,0.9-8.1c0.2-0.6,0.5-1.2,0.8-1.8c0.8-1.1,1.6-2.2,2.6-3.2c1-1.1,1.4-2.4,1.4-3.8c0.8-0.2,1.6-0.6,2.3-1.1
		c0,0,0.1,0,0.1-0.1C736.6,588,740.2,587.6,743.6,587.5L743.6,587.5L743.6,587.5z M771.5,632.6C771.4,632.6,771.4,632.6,771.5,632.6
		C771.4,632.6,771.4,632.6,771.5,632.6L771.5,632.6L771.5,632.6z M771.4,632.6c-0.1,0.1-0.1,0.1-0.2,0.2c0,0-0.1,0.1-0.1,0.1
		C771.2,632.8,771.3,632.7,771.4,632.6c-0.4,0.4-0.7,0.7-1.1,1.1c0.5-0.5,1-1,1.5-1.5C771.7,632.3,771.6,632.4,771.4,632.6
		c0.4-0.4,0.8-0.8,1.1-1.1C772.2,631.8,771.8,632.2,771.4,632.6L771.4,632.6L771.4,632.6z"/>
	<path style="fill:#161616;" d="M829,299.6c-4.5,2.6-8.3,6.1-11.9,9.8c-3.5,3.5-6.3,7.5-8.9,11.7c-5,8.2-8.9,17-12.2,26
		c-2.7,7.3-4.3,14.9-5.4,22.5c-0.5,3.5-0.6,7.1-0.8,10.6c-0.1,1.6-0.1,3.1-0.2,4.7c-0.1,2.2-0.4,4.2,0.2,6.3c0.2,1.1,0.7,2,1.3,2.9
		c0.9,1.1,2,2,3.4,2.4c0.8,0.4,1.6,0.7,2.5,1c3.7,1,7.4,2,11.2,2.9c4.3,1,8.7,1.2,13.1,1.2c2.9,0,6.1,0,8.7-1.3
		c2.5-1.3,4.3-3.1,5.6-5.5c1.3-2.4,1.8-5.2,2.1-7.9c0.3-2.5,0.2-5.1,0.2-7.7c0-1.4,0-2.9,0-4.4c0.3-5.2,0.8-10.5,2-15.6
		c0.8-2.2,1.7-4.3,2.8-6.3c1.2-2,2.6-3.9,4.2-5.7c0.9-0.8,1.9-1.7,2.9-2.4c0.5-0.2,0.9-0.4,1.4-0.6c0.4-0.1,0.8-0.1,1.3-0.1
		c1,0.1,1.9,0.3,2.8,0.5c1.9,0.6,3.6,1.4,5.4,2.3c2.6,1.6,5.2,3.3,7.5,5.3c1.6,1.8,3,3.7,4.3,5.8c0.2,0.3,0.3,0.6,0.5,0.9
		c1.3,2.2,2.2,4.6,2.9,7.1c0.2,1,0.4,2,0.6,3c0.7,3.2,0.9,6.5,0.9,9.7c-0.1,2.6-0.3,5.2-0.6,7.8c-0.3,2.5-0.9,4.9-1.5,7.4
		c-1.5,4.3-3.4,8.5-5.5,12.5c-1.5,2.4-3.1,4.6-4.9,6.8c-1.2,1.4-2.6,2.8-3.9,4.1c-2.5,2.4-5,4.7-7.7,6.8c-2.9,2.2-6,4.1-9,6
		c-2.8,1.7-5.7,3.4-8.5,5.2c-0.6,0.4-1.1,0.8-1.6,1.2c-0.8,0.7-1.5,1.4-2.1,2.3c-1,1.4-1.4,2.7-1.8,4.3c-0.9,3.9-0.9,7.8-1,11.8
		c-0.1,7.4,0.5,14.8,1.3,22.2c0.7,7,1.8,13.9,3.1,20.9c0.6,3.4,1.2,6.9,1.8,10.3c0.4,2,0.8,4,1.5,5.9c2.1,5,7.9,6.6,12.9,6.7
		c7.9,0.3,15.7-0.8,23.5-1.6c3.8-0.4,7.6-0.8,11.3-1.3c1.7-0.2,3.3-0.5,4.9-0.8c1.3-0.3,2.5-0.6,3.8-1c2.8-0.8,5-3.2,5.9-5.9
		c1.4-4,0.6-8.5,0.1-12.6c-0.3-2-0.5-4-0.8-6.1c-0.6-4.1-1.1-8.1-1.4-12.2c-0.4-5.1-0.5-10.1-0.7-15.2c-0.1-3.2-0.3-6.5-0.4-9.7
		c0.1-0.1,0.2-0.3,0.3-0.4c2.5-2.4,5.1-4.7,7.6-7.1c3.3-3.1,6.5-6.3,9.6-9.5c5.5-5.5,10.1-11.7,14-18.4c2.6-4.6,4.1-9.6,5.4-14.7
		c1.5-5.8,2.3-11.8,2.5-17.7c0.3-5.5,0.1-11-0.5-16.5c-0.7-6.1-2.3-12.1-4.3-17.8c-3.5-10.2-9.1-19.8-15.7-28.4
		c-3.2-4.1-6.7-8-10.5-11.6c-4.2-4-9.1-7.1-14-9.9c-4.7-2.7-9.8-4.6-14.9-6.2c-5.6-1.8-11.4-3.3-17.3-3.7c-1.2-0.1-2.4-0.1-3.6-0.1
		C845.6,292.8,836.7,295.1,829,299.6L829,299.6L829,299.6z M855.3,308.6c4.3,0.2,8.5,1.1,12.6,2.2c5.7,1.7,11.4,3.9,16.6,6.8
		c4.1,2.5,7.9,5.4,11.4,8.7c5.3,5.6,10,11.8,13.9,18.5c3.4,6.2,6.1,12.7,8.1,19.5c1.5,6.5,2.1,13.1,2.1,19.8
		c-0.2,6.9-1.2,13.6-3,20.3c-1,3.3-2.3,6.4-4,9.5c-5.5,9-13,16.5-20.4,23.9c0.5-0.5,0.9-0.9,1.4-1.4c-1.9,1.9-3.9,3.8-5.8,5.7
		c-2,2-4,3.9-5.4,6.4c-1.1,2-1.3,4.4-0.7,6.7c1,4.5,0.9,9.3,1,14c0.2,5.3,0.3,10.7,0.8,16c0.3,3,0.7,6,1,9c0.4,3.1,0.9,6.2,1.1,9.3
		c-1.7,0.2-3.4,0.3-5,0.4c-3.2,0.3-6.5,0.6-9.7,0.9c-6.4,0.6-12.7,1.4-19.1,1.6c-0.5,0-0.9,0-1.4-0.1c-0.1-0.8-0.2-1.5-0.3-2.3
		c-0.4-2.5-0.9-4.9-1.3-7.4c-0.9-4.8-1.8-9.6-2.5-14.4c-1.4-10.2-2.3-20.4-2.4-30.7c0.1-1.4,0.2-2.7,0.4-4c0.5-0.4,1.1-0.7,1.7-1.1
		c5.9-3.3,11.8-6.4,17.3-10.3c2.6-1.9,5-4.1,7.3-6.3c1.9-1.8,3.8-3.7,5.6-5.7c2.4-2.6,4.4-5.5,6.3-8.5c4.4-7.1,7.3-15.1,9.1-23.2
		c0.6-2.7,0.7-5.4,1-8.2c0.3-4.2,0.3-8.5-0.1-12.7c-0.2-2.6-0.8-5.2-1.4-7.8c-0.5-2.2-1.1-4.4-1.9-6.5c-0.8-2.1-1.9-4.1-3-6.1
		c0.2,0.3,0.3,0.6,0.5,0.9c-0.4-0.7-0.8-1.4-1.2-2.1c-1.3-2.2-2.6-4.3-4.2-6.3c-2.1-2.6-4.7-4.9-7.5-6.7c-3.1-2-6.3-4-9.7-5.6
		c-3.3-1.6-7.2-2.6-10.9-2.7c-3.6-0.2-7,0.5-10.3,2c-2,0.9-3.6,2.2-5.3,3.6c-2.1,1.8-4,3.8-5.6,6c-1.5,1.9-2.6,4.1-3.8,6.2
		c-1.7,3-3,6.2-3.8,9.6c-0.9,3.5-1.4,7.1-1.8,10.7c-0.6,5.8-0.4,11.6-0.3,17.4c0,1.2-0.1,2.3-0.3,3.5c-2.1,0.3-4.1,0.4-6.2,0.4
		c-2.8-0.2-5.5-0.5-8.3-1c-1.2-0.2-2.4-0.5-3.5-0.8c0-0.3,0-0.6,0-0.8c0-1.6-0.1-3.1-0.1-4.7c0.1-3.7,0.4-7.3,0.9-11
		c0.5-3.7,1.3-7.2,2.2-10.8c1.4-4.1,2.7-8.3,4.5-12.2c2.4-5.3,4.9-10.5,7.8-15.6c2.6-4.2,5.5-8,9-11.6c2.5-2.3,5-4.5,7.9-6.3
		c2.7-1.4,5.6-2.5,8.6-3.4C848.6,309.1,851.9,308.7,855.3,308.6L855.3,308.6L855.3,308.6z M887.2,352.2c0.2,0.3,0.3,0.5,0.4,0.8
		C887.5,352.7,887.4,352.4,887.2,352.2L887.2,352.2L887.2,352.2z M871.5,356.3c0.2,0.4,0.5,0.9,0.7,1.3
		C872,357.2,871.7,356.8,871.5,356.3L871.5,356.3L871.5,356.3z M822.7,387.4C822.7,387.4,822.7,387.4,822.7,387.4L822.7,387.4
		C822.7,387.4,822.7,387.4,822.7,387.4L822.7,387.4L822.7,387.4z M822.4,388C822.4,388,822.4,388,822.4,388c-0.1,0-0.2,0.1-0.2,0.1
		C822.3,388.1,822.3,388.1,822.4,388L822.4,388L822.4,388z M822.1,388.5c-0.1,0.1-0.1,0.1-0.2,0.2C822,388.6,822,388.6,822.1,388.5
		L822.1,388.5L822.1,388.5z M916.9,404.9c-0.1,0.4-0.2,0.7-0.3,1C916.7,405.6,916.8,405.2,916.9,404.9L916.9,404.9L916.9,404.9z
		 M886.5,350.9c-0.2-0.3-0.3-0.6-0.5-0.9C886.2,350.3,886.4,350.6,886.5,350.9L886.5,350.9L886.5,350.9z M886,349.9
		c0,0,0,0.1,0.1,0.1c-0.2-0.3-0.4-0.6-0.5-0.9C885.6,349.4,885.8,349.6,886,349.9L886,349.9L886,349.9z"/>
	<path style="fill:#161616;" d="M1574.4,1373.1c-0.6,0.8-0.9,1.9-0.8,2.9c0.1,1.1,0.7,2.1,1.5,2.7c0.9,0.7,1.8,0.8,2.9,0.8
		c1,0,2.1-0.8,2.7-1.5c0.6-0.8,0.9-1.9,0.8-2.9c-0.1-1.1-0.7-2.1-1.5-2.7c-0.9-0.7-1.8-0.8-2.9-0.8
		C1576.1,1371.6,1575,1372.3,1574.4,1373.1L1574.4,1373.1L1574.4,1373.1z"/>
	<path style="fill:#161616;" d="M1576.3,1360.1c-0.6,0.8-0.9,1.9-0.8,2.9c0.1,1.1,0.7,2.1,1.5,2.7c0.9,0.7,1.8,0.8,2.9,0.8
		c1,0,2.1-0.8,2.7-1.5c0.6-0.8,0.9-1.9,0.8-2.9c-0.1-1.1-0.7-2.1-1.5-2.7c-0.9-0.7-1.8-0.8-2.9-0.8
		C1578,1358.6,1576.9,1359.3,1576.3,1360.1L1576.3,1360.1L1576.3,1360.1z"/>
	<path style="fill:#161616;" d="M874.7,551.7c-1.8,0.5-3.4,1.5-4.5,2.9c-0.8,0.1-1.6,0.4-2.4,0.9c-2.5,1.5-5.2,3-7.2,5.2
		c-2.1,2.1-3.7,4.5-5.2,7.1c-1.4,2.4-2.4,5-3.4,7.5c-1.1,2.7-1.9,5.5-2.4,8.4c-0.9,5.2-0.8,10.6,0.8,15.7c0.8,2.4,1.7,4.6,3.3,6.6
		c1.5,2.1,3.5,3.8,5.5,5.4c2,1.6,4.3,2.6,6.6,3.7c1.7,0.8,3.6,1.4,5.4,1.8c4.3,1,8.5,1.6,12.9,1.8c2.3,0.1,4.6-0.2,6.9-0.5
		c2.4-0.3,4.8-1.3,7-2.1c3.4-1.3,6.5-3.8,9-6.3c4.1-4.2,6.8-9.9,8.7-15.4c1.9-5.5,2.3-11.5,1.2-17.3c-0.3-1.6-1-3.2-1.6-4.8
		c-0.5-1.4-1.2-2.6-1.9-3.9c-1.5-2.6-3.4-5-5.7-7c-4.3-3.9-9.4-6.9-14.9-8.7c-2.8-0.9-5.7-1.3-8.6-1.7c-1-0.1-2.1-0.2-3.1-0.2
		C878.9,550.8,876.8,551.1,874.7,551.7L874.7,551.7L874.7,551.7z M878.8,566.6c2.2,0,4.4,0.3,6.6,0.7c2,0.5,3.8,1.1,5.6,1.9
		c1.9,1,3.6,2.2,5.3,3.5c0.9,0.9,1.7,1.8,2.5,2.8c0.8,1.3,1.4,2.7,2,4.1c0.2,0.9,0.4,1.8,0.5,2.6c0,1.5-0.1,3-0.3,4.6
		c-0.6,2.4-1.4,4.7-2.5,6.9c-0.9,1.7-1.9,3.2-3,4.7c-0.8,0.7-1.6,1.4-2.4,2.1c-0.9,0.5-1.8,0.9-2.7,1.3c-1.5,0.4-2.9,0.7-4.4,0.9
		c-3.1,0-6.2-0.3-9.3-0.8c-2.1-0.5-4-1.1-5.9-2c-1-0.6-2-1.2-2.9-1.9c-0.6-0.6-1.1-1.2-1.7-1.8c-0.2-0.4-0.4-0.8-0.6-1.2
		c-0.3-1.2-0.6-2.5-0.8-3.8c0-1.9,0.1-3.8,0.4-5.7c0.8-3.1,2-6.1,3.3-9c0.9-1.7,2-3.3,3.2-4.8c0.2-0.2,0.5-0.4,0.7-0.7
		c0.8-0.5,1.6-1,2.4-1.5c1.3-0.8,2.5-1.8,3.3-3C878.5,566.7,878.7,566.7,878.8,566.6L878.8,566.6L878.8,566.6z M891.8,569.6
		c0.2,0.1,0.3,0.1,0.5,0.2C892.1,569.7,892,569.6,891.8,569.6L891.8,569.6L891.8,569.6z M871.4,572.3c-0.1,0.1-0.2,0.2-0.2,0.3
		C871.3,572.5,871.4,572.4,871.4,572.3L871.4,572.3L871.4,572.3z"/>
	<path style="fill:#161616;" d="M1162.4,296.8c-5.1,0.8-10.1,2-15,3.5c-5.4,1.6-10.3,4.4-15,7.4c-4,2.5-7.5,5.4-10.9,8.7
		c-3.9,3.7-7.4,7.8-10.5,12.2c-3,4.3-5.5,9-7.5,13.8c-1.8,4.4-2.9,9.2-3.2,13.9c-0.2,0-0.5,0-0.7,0c-3.9,0.1-7.8,1.2-11.5,2.4
		c-3.9,1.2-7.4,3.5-10.7,5.8c-6.3,4.3-11.6,10-15.9,16.2c-2.5,3.7-4.7,7.5-6.6,11.5c-2,4.1-3.3,8.5-4.4,12.9c-2,7.8-1.9,16.1-0.9,24
		c0.5,4,1.5,8,2.7,11.8c1.6,5.4,3.9,10.6,6.8,15.4c-0.3,0.1-0.6,0.3-0.9,0.4c-1.1,0.5-2.2,1.2-3.2,1.9c-1.9,1.2-3.7,2.8-5.4,4.3
		c-2,1.8-3.9,3.9-5.8,5.9c-3.1,3.5-6,7.1-8.5,10.9c-3,4.3-5.3,9.1-7.2,14c-1.9,4.9-3.3,10.1-4.5,15.2c-0.4,1.8-0.8,3.6-1.3,5.4
		c-1.5,6.5-2.9,12.9-3.3,19.5c-0.3,5.1-0.3,10.2,0,15.3c0.3,5.5,2.2,10.6,4.3,15.6c4,9.5,10.3,17.7,18.5,24c2.1,1.6,4.4,3,6.7,4.2
		c2.1,1.2,4.3,2.2,6.6,3.1c4.9,1.9,10.1,2.9,15.3,3c2.6,0.1,5.2,0,7.7-0.2c2.5-0.2,4.9-0.7,7.4-1.4c2.6-0.7,5.1-1.7,7.5-2.8
		c0.1-0.1,0.2-0.1,0.4-0.2c-2.5,8.5-4.2,17.1-4.7,26c-0.6,10.8,1,21.3,5,31.4c1.9,4.8,4.5,9.3,7.4,13.6c3.1,4.6,6.9,8.6,11,12.4
		c3.7,3.5,8,6.2,12.4,8.7c4.4,2.5,9.2,4.3,14.1,5.7c5,1.3,10,2.2,15.2,2.5c5.9,0.3,11.7-0.2,17.5-1.3c10.6-2,20.5-6.3,29.4-12.4
		c0.1-0.1,0.2-0.1,0.2-0.2c0.3,4.3,1,8.4,2.1,12.6c1.3,4.7,2.9,9.2,5,13.7c2.2,4.7,4.8,9.1,7.7,13.5c5.3,8.1,12,15.3,19.4,21.5
		c3.6,3,7.5,5.7,11.4,8.2c4.3,2.7,8.8,5,13.6,6.9c4.4,1.7,8.9,2.8,13.5,3.8c4.9,1,9.8,1.5,14.8,1.5c5,0,10-0.3,14.9-1.3
		c5.2-0.9,10.3-2.6,15.2-4.5c4.2-1.6,8.2-3.8,12.1-5.9c3.4-1.8,6.6-3.9,9.8-5.9c2.1-1.3,4.1-2.6,6.2-3.9c0.4,0.5,0.7,0.9,1.1,1.4
		c1.7,2.1,3.6,4,5.5,5.9c3.7,3.6,7.6,6.8,11.9,9.8c8.6,6,18.2,10.5,28,14c21,7.4,43.4,10.4,65.6,9.1c10.8-0.7,21.5-3,31.6-6.7
		c9.7-3.6,18.9-9,27-15.4c16.2-12.8,27.6-30.7,35.1-49.7c3.7-9.4,6.2-19.3,8.2-29.2c2-9.7,3.3-19.5,3.4-29.5
		c0.1-4.9-0.1-9.8-0.7-14.7c-0.6-5.3-2-10.5-3.6-15.6c-1-2.9-2-5.8-3.2-8.6c1-0.7,2-1.4,3-2c2.7-1.8,5.3-3.8,7.8-5.8
		c3.9-3.2,7.4-6.8,10.8-10.4c3.6-3.9,6.8-8.2,9.7-12.7c6.1-9.4,10.3-19.7,13.1-30.4c2.7-10.6,3.7-21.4,2.6-32.4
		c-1-10.2-4.1-20.4-8.8-29.6c-2.3-4.4-4.9-8.6-7.9-12.6c-3.3-4.4-7.2-8.3-11.3-11.9c-7.4-6.7-16.3-11.8-25.5-15.7
		c-5-2.1-10.3-3.5-15.6-4.7c-1.9-0.4-3.7-0.8-5.6-1.1c0-1.4,0-2.9-0.1-4.3c-0.2-2.4-0.4-4.7-0.8-7.1c-0.8-5.7-2.5-11.4-4.4-16.8
		c-3.5-9.7-9-18.7-15.1-26.9c-6.1-8.2-13.3-15.7-20.9-22.5c-7.9-7-16.6-12.8-25.8-17.9c-9-5-18.6-8.8-28.4-11.7
		c-10.4-3.1-21-5.2-31.8-6.3c-21.8-2.1-43.9,1.2-64.3,9.2c-4.3,1.7-8.6,3.7-12.8,5.7c-3.5,1.6-6.9,3.5-10.6,4.8
		c-0.4,0.1-0.7,0.1-1.1,0.2c-0.6,0-1.1-0.1-1.7-0.2c-1.1-0.4-2.1-0.8-3.1-1.4c-1.5-1-3-2-4.5-3c-1.9-1.4-3.7-3-5.5-4.5
		c-4.3-3.4-8.5-6.9-12.9-10.1c-8.7-6.3-18-11.6-27.7-16.1c-9.5-4.4-19.5-7.8-29.6-10.5c-10.6-2.9-21.4-5.2-32.4-6.3
		c-4.6-0.5-9.3-0.7-13.9-0.7C1175,295.4,1168.7,295.9,1162.4,296.8L1162.4,296.8L1162.4,296.8z M1181.1,311.3c-0.2,0-0.4,0-0.6,0
		C1180.7,311.3,1180.9,311.3,1181.1,311.3L1181.1,311.3L1181.1,311.3z M1179.5,311.4c14.3,0,28.3,2.3,42.1,5.8
		c14.6,3.9,28.6,9.4,41.8,16.7c4.5,2.6,8.7,5.5,12.9,8.6c4.4,3.2,8.6,6.8,12.8,10.1c1.9,1.5,3.7,3,5.6,4.4c2.4,1.8,5,3.2,7.6,4.6
		c2.2,1.2,4.8,1.8,7.2,2.3c3.2,0.6,6.5,0.1,9.5-0.8c4.8-1.5,9.3-4,13.9-6.2c7.4-3.4,14.9-6.5,22.8-8.8c10.5-2.8,21.2-4.3,32-4.5
		c12.1,0.1,24.2,1.7,36,4.7c11.8,3.3,23.2,7.8,33.9,13.8c9.5,5.6,18.1,12.4,26,20c7.1,7.2,13.5,15.1,18.7,23.8
		c3.4,6,6.2,12.2,8.2,18.8c1.4,5.4,2.3,10.8,2.5,16.3c0,1.6-0.1,3.3,0,4.9c0.1,1.7,0.1,3.5,0.8,5.2c0.4,0.9,0.8,1.8,1.4,2.5
		c0.9,1.1,2,1.9,3.3,2.5c1.7,1,3.7,1.1,5.6,1.1c1.7,0,3.5,0.5,5.2,0.8c2,0.4,3.9,0.8,5.9,1.3c6.3,1.8,12.3,4.3,18.1,7.4
		c5.6,3.4,10.7,7.2,15.4,11.6c4,4.1,7.4,8.6,10.4,13.4c2.8,5,5,10.3,6.7,15.9c1.5,5.9,2.4,12,2.6,18.1c-0.1,7.2-1.1,14.3-2.8,21.2
		c-2.1,7.4-5,14.5-8.7,21.2c-3.7,6.2-8,11.8-13,17c-3.6,3.6-7.5,7-11.7,9.9c-2.7,1.8-5.4,3.6-7.9,5.6c-3.1,2.5-5.3,6.9-4.3,10.9
		c0.6,2.4,1.8,4.7,2.7,7c1.3,3.1,2.4,6.2,3.4,9.4c1.6,6.3,2.4,12.6,2.5,19.1c-0.1,14-2.4,27.9-5.9,41.5
		c-3.1,11.1-7.4,21.8-13.1,31.9c-4.1,7-9.1,13.4-14.7,19.3c-5.2,5.1-11,9.6-17.3,13.4c-6.2,3.5-12.8,6.3-19.6,8.4
		c-9.1,2.4-18.3,3.5-27.6,3.8c-13.5,0-27-1.6-40-4.9c-10.3-2.8-20.3-6.6-29.7-11.8c-6-3.6-11.7-7.7-16.7-12.6
		c-1.5-1.5-2.8-3.1-4.2-4.7c-1.7-2.1-3.3-4.3-5.5-6c-1.2-1-3.2-1.8-4.7-2c-1-0.2-2-0.3-3-0.1c-1,0.2-2,0.5-2.9,0.9
		c-1.1,0.4-2.4,1.5-3.5,2.1c-0.7,0.4-1.4,0.9-2.1,1.3c-4.1,2.7-8.3,5.3-12.5,7.8c-6.4,3.7-13.1,6.8-20.2,9c-5,1.3-10.2,2-15.4,2.2
		c-6-0.1-11.8-0.9-17.6-2.3c-5.3-1.5-10.4-3.6-15.2-6.2c-6.2-3.8-12.1-8.2-17.3-13.3c-5.1-5.3-9.7-11.1-13.5-17.4
		c-3.1-5.5-5.7-11.2-7.6-17.3c-0.5-2.1-1-4.2-1.3-6.3c-0.4-2.3-0.5-4.7-0.6-7.1c0-2.3,0.2-4.6,0.3-6.9c0-0.9,0.2-1.8,0.3-2.8
		c0.2-1.8-0.1-4.1-0.8-5.8c-1.2-2.8-4-5-7.1-5.3c-1.6-0.2-3.2,0.1-4.7,0.8c-1.5,0.7-2.5,1.8-3.6,2.9c-1.3,1.3-2.7,2.5-4.1,3.7
		c-3.2,2.9-6.5,5.4-10.1,7.6c-4.3,2.4-8.9,4.3-13.7,5.7c-5.2,1.3-10.4,2.1-15.8,2.3c-4.7-0.1-9.3-0.7-13.8-1.8
		c-4.5-1.3-8.8-3.1-12.9-5.3c-3.6-2.2-6.9-4.8-9.9-7.6c-3.4-3.5-6.3-7.3-8.9-11.5c-2.3-4.1-4.2-8.5-5.5-13
		c-1.1-4.5-1.7-9.1-1.9-13.8c0.1-7.7,1.2-15.3,3-22.8c1.1-3.9,2.4-7.8,3.6-11.7c0.4-1.4,0.9-2.7,1.3-4.1c0.6-1.9,1.3-3.8,1.8-5.7
		c0.3-1,0.5-2,0.8-3c0.4-1.4,0.1-2.9,0-4.3c-0.2-3.3-3.5-6.6-6.8-6.7c-0.9,0-1.9,0-2.8,0c-1.6,0.2-2.9,1-4.2,2
		c-0.7,0.5-1.3,1.2-1.9,1.9c-3.1,2.8-6.4,5.3-9.9,7.5c-2.9,1.5-5.8,2.8-8.9,3.8c-2.6,0.6-5.3,0.9-8.1,0.9c-3.1-0.1-6-0.4-9-1
		c-3.3-1-6.3-2.3-9.3-3.9c-2.9-1.8-5.5-3.8-8-6.1c-2.6-2.7-4.9-5.7-6.9-8.9c-2.1-3.9-3.9-7.9-5.3-12.1c-1-4-1.2-8.3-1.3-12.4
		c0-5,0.3-9.9,1-14.9c0.3-2,0.7-4,1.1-5.9c1-5.1,2-10.2,3.3-15.3c1.5-5.5,3.6-10.9,6.4-16c3.3-5.5,7.3-10.7,11.7-15.3
		c1.9-1.8,3.9-3.6,6.1-5c0.3-0.1,0.6-0.3,0.9-0.4c2.7,1.2,6-0.3,7.1-3c0.1-0.3,0.2-0.6,0.3-0.9c3.6-1.6,5.3-6,3.8-9.7
		c-0.1-0.1-0.1-0.2-0.2-0.4c-0.4-1.6-0.8-3.2-1.5-4.7c-0.7-1.5-1.5-2.9-2.2-4.3c-1.4-2.8-2.4-5.7-3.3-8.7
		c-1.2-5.1-2.1-10.2-2.2-15.4c0.1-4.2,0.6-8.3,1.6-12.4c1.3-4.4,3.1-8.6,5.4-12.6c2.5-4.1,5.2-8,8.5-11.5c2.8-2.6,5.7-5,8.9-7
		c1.8-1,3.7-1.8,5.7-2.5c2.3-0.6,4.7-0.9,7-1.1c0.5,0,1,0.1,1.4,0.1c0.1,0.2,0.2,0.3,0.4,0.5c1.8,2.2,4.6,3.4,7.5,3
		c2.9-0.4,5-2.3,6.3-4.9c1.4-3,0.8-6.1-1-8.5c-0.2-1.1-0.2-2.2-0.3-3.3c0.1-2.3,0.4-4.6,0.9-6.9c1.1-3.8,2.8-7.3,4.7-10.8
		c2.6-4.3,5.7-8.4,9.2-12c3.8-3.7,7.9-7,12.4-9.7c3.7-2,7.4-3.7,11.4-4.9C1163,312.6,1171.2,311.6,1179.5,311.4L1179.5,311.4
		L1179.5,311.4z M1422.4,348.1c0.2,0,0.3,0.1,0.5,0.1C1422.8,348.2,1422.6,348.2,1422.4,348.1L1422.4,348.1L1422.4,348.1z
		 M1458,362.6c0.3,0.2,0.6,0.3,0.8,0.5C1458.6,362.9,1458.3,362.7,1458,362.6L1458,362.6L1458,362.6z M1071.4,395.1
		c-0.1,0.2-0.2,0.3-0.3,0.5C1071.2,395.4,1071.3,395.2,1071.4,395.1L1071.4,395.1L1071.4,395.1z M1058.7,455.3
		c0.1,0.3,0.3,0.5,0.4,0.8c0,0,0,0,0,0C1059,455.8,1058.9,455.6,1058.7,455.3L1058.7,455.3L1058.7,455.3z M1063.5,466.3
		c0.2,0,0.4,0.1,0.6,0.2C1063.9,466.4,1063.7,466.4,1063.5,466.3L1063.5,466.3L1063.5,466.3z M1553.7,467.2c0.2,0.1,0.5,0.3,0.7,0.4
		C1554.1,467.5,1553.9,467.3,1553.7,467.2L1553.7,467.2L1553.7,467.2z M1038.5,501.6c0,0.2-0.1,0.3-0.1,0.5
		C1038.4,501.9,1038.4,501.7,1038.5,501.6L1038.5,501.6L1038.5,501.6z M1032.7,537.5c0,0.3,0,0.6,0,0.8
		C1032.7,538.1,1032.7,537.8,1032.7,537.5L1032.7,537.5L1032.7,537.5z M1554.3,613c-0.1,0.2-0.2,0.4-0.4,0.6
		C1554.1,613.4,1554.2,613.2,1554.3,613C1554.3,613,1554.3,613,1554.3,613L1554.3,613L1554.3,613z M1238.6,723.5
		c0.2,0.2,0.5,0.4,0.7,0.7C1239.1,724,1238.8,723.7,1238.6,723.5L1238.6,723.5L1238.6,723.5z M1515.5,738.9
		c-0.2,0.2-0.5,0.5-0.7,0.7C1515.1,739.3,1515.3,739.1,1515.5,738.9L1515.5,738.9L1515.5,738.9z M1288.8,746.4c-0.2,0-0.4,0-0.6,0
		C1288.5,746.4,1288.6,746.4,1288.8,746.4L1288.8,746.4L1288.8,746.4z M1410.4,760.4c0.4,0.1,0.9,0.2,1.3,0.4
		C1411.3,760.7,1410.8,760.6,1410.4,760.4L1410.4,760.4L1410.4,760.4z"/>
	<path style="fill:#161616;" d="M1195.7,470.1c-1.3,0.5-2.7,1.8-3.1,3.1c-0.7,2.6-1.3,5.2-1.8,7.8c-0.6,3.2-0.8,6.4-0.9,9.7
		c-0.1,3.6,0,7.1,0.1,10.7c0.1,4.4,0.4,8.9,0.6,13.4c0.4,8.7,0.7,17.4,1,26.1c0-0.1,0-0.3,0-0.4c0,1.5,0,3,0,4.5c0-0.1,0-0.2,0-0.3
		c0,2.7-0.1,5.4-0.1,8.2c-0.1,3.2-0.4,6.4-0.1,9.6c0.3,3.2,3.2,5.8,6.3,6.1c1.9,0.3,3.8-0.3,5.3-1.5c1.4-1.1,2.7-3,2.8-4.8
		c0.2-5.9-0.3-11.8-0.5-17.6c-0.2-5.9-0.8-11.8-1.2-17.7c-0.4-5.7-0.8-11.4-1.3-17.1c-0.4-5.8-1-11.6-1.1-17.4c0-5,0.5-9.8,1.7-14.6
		c0,0,0-0.1,0-0.1c0.5-1.6,0.7-3,0-4.5c-0.6-1.4-1.7-2.5-3.1-3.1c-0.7-0.3-1.5-0.4-2.2-0.4C1197.3,469.6,1196.5,469.8,1195.7,470.1
		L1195.7,470.1L1195.7,470.1z"/>
	<path style="fill:#161616;" d="M1367.4,429.3c-3,0.5-5.3,3.2-5.8,6.1c-0.2,1.3-0.3,2.5-0.4,3.8c-0.2,2-0.3,3.9-0.4,5.9
		c-0.3,5.3-0.4,10.7,0.1,16c0.3,2.7,0.6,5.4,1,8.1c0.1,0.5,0.1,0.9,0.2,1.4c-12-0.3-23.9-0.5-35.9-0.6c-16-0.2-32,0-48,0
		c-25.6,0.1-51.1,0-76.7,0.2c-0.7,0-1.4,0-2.1,0c-1.3,0.2-2.5,0.7-3.6,1.5c-1.6,1.3-2.7,3.1-2.9,5.1c-0.3,2,0.3,4.1,1.6,5.7
		c1.1,1.4,3.2,2.9,5.1,2.9c33.1-0.3,66.2-0.2,99.4-0.2c15.5,0,31.1,0.2,46.6,0.5c6.9,0.1,13.8,0.3,20.7,0.6c1.3,0.1,2.7,0.1,4,0.1
		c2.7,0,5.5-1.5,6.9-3.8c1-1.6,1.6-2.9,1.6-4.8c0-1.5-0.1-2.7-0.4-4.2c-0.2-0.9-0.4-1.9-0.7-2.8c-0.9-3.7-1.7-7.5-2.3-11.3
		c-0.8-5.2-1.2-10.5-1.3-15.7c7.6,4.6,14.6,10.1,21.7,15.5c5.6,4.3,11.2,8.7,16.9,12.9c12.4,9.2,25,18.1,37.5,27.3
		c4.1,3,8.3,6.1,12.3,9.2c3.8,2.9,7.8,5.8,11.3,9c-0.3,0.3-0.5,0.6-0.8,0.9c-5.6,5.1-11.8,9.6-17.9,14.1
		c-6.2,4.6-12.2,9.4-17.9,14.5c-5.2,4.6-10,9.6-15,14.4c-2.9,2.9-5.8,5.7-8.7,8.7c-0.7,0.7-1.3,1.3-1.9,2c-2-4.2-3.6-8.6-5.2-13.1
		c-0.4-1.2-0.8-2.4-1.5-3.5c-1.5-2-3.4-3-5.9-3.6c-2.9-0.7-5.9-0.6-8.9-0.4c-3.5,0.2-7.1,0.5-10.7,0.7c-7.3,0.5-14.7,0.8-22.1,1.1
		c-7.7,0.3-15.3,0.6-23,0.8c-6.8,0.1-13.7,0.3-20.5,0.3c-14.9,0-29.8,0-44.7-0.3c-7.7-0.2-15.3-0.5-23-0.5c-8.5,0-16.9,0.2-25.3,0.7
		c-3.3,0.2-6.6,0.5-9.9,0.8c-1.8,0.2-3.6,0.4-5.4,0.6c-0.8,0.1-1.5,0.2-2.3,0.3c-2.2,0.3-4,1.2-5.8,2.3c-2.1,1.4-3.1,4.4-2.7,6.8
		c0.2,1.3,0.7,2.4,1.5,3.4c1.1,1.3,3,2.8,4.8,2.8c2.3,0,4.5,0,6.7-0.3c1.8-0.3,3.7-0.6,5.5-0.8c3.6-0.5,7.2-0.9,10.9-1.3
		c7.5-0.7,15.1-1,22.6-1.1c7.3,0,14.7,0,22,0c23.5,0,47,0.1,70.4-0.8c9.5-0.3,19-0.8,28.5-1.2c8.7-0.4,17.3-1.2,26-1.6
		c0.4,0,0.8,0,1.3,0.1c0.8,2.1,1.5,4.3,2.2,6.5c1.1,3.1,2.3,6.2,3.6,9.2c1.5,3.3,3.4,6.6,6.8,8.3c2.2,1.1,4.8,1.2,7.1,0.3
		c1.4-0.6,2.7-1.5,3.9-2.5c2.4-2.1,4.7-4.4,7-6.6c10.6-10.3,20.9-20.9,32.6-29.9c6.3-4.8,12.7-9.5,18.9-14.4
		c1.5-1.2,2.9-2.4,4.4-3.7c3-2.5,6.2-5.8,8-9.5c2-4.4,0.4-9-2.3-12.6c-1.4-1.8-3.4-3.4-5.2-4.8c-11.5-9-23.5-17.4-35.5-25.7
		c-12.4-8.6-24.8-17.3-37-26.1c-6.2-4.5-12.4-9-18.8-13.3c-2.4-1.6-4.9-3.3-7.3-4.8c-4.1-2.6-8.9-5.6-13.9-5.6
		C1368.6,429.2,1368,429.2,1367.4,429.3L1367.4,429.3L1367.4,429.3z M1313.8,554.7c-0.4,0-0.9,0-1.3,0
		C1312.9,554.7,1313.3,554.7,1313.8,554.7L1313.8,554.7L1313.8,554.7z M1413.9,576.6c0.1,0.1,0.3,0.3,0.4,0.4
		C1414.2,576.8,1414.1,576.7,1413.9,576.6L1413.9,576.6L1413.9,576.6z"/>
	<path style="fill:#161616;" d="M1252.2,590.1c-3.7,3.1-6,7.5-7.7,11.9c-1.4,3.5-2.4,7.2-3.4,10.9c-1.9,6.9-3.7,14-5.9,20.8
		c-1.2,3.6-2.5,7.1-4.1,10.6c-1.5,3.1-3,6.1-4.6,9.1c-0.3,0.7-0.7,1.3-1,2c-1.1,2.2-1.2,4.4-0.5,6.7c0.6,2.1,2.1,3.7,3.7,5.2
		c2.1,1.9,4.4,3.5,6.8,5c3.3,2.1,6.6,4.1,10,6.1c6.1,3.7,12.1,7.4,18.2,11.1c3.4,2,6.8,4.1,10.3,5.8c2,0.9,4.4,1.4,6.6,1
		c2.3-0.4,3.8-2,5.2-3.8c1.3-1.7,2.3-3.7,3.1-5.6c0.8-1.8,1.4-3.9,1.8-5.9c0.4-1.7,0.8-3.5,1.1-5.2c0.5-2.8,0.9-5.6,1.5-8.4
		c3.9-0.8,7.9-1.2,11.8-1.4c3-0.2,6-0.3,9-0.3c14.6,0.1,29.1,0.4,43.7,0.2c7.2-0.1,14.4-0.4,21.6-0.6c6.4-0.2,12.8-0.5,19.2-1.1
		c2.6-0.3,5.1-0.7,7.3-2.2c2.4-1.7,3.3-4.2,3.7-7c0.4-2.4-0.5-4.9-1.2-7.1c-1.1-3.7-3.3-6.9-5.2-10.2c-1.7-3-3.3-6.1-4.9-9.2
		c-1.3-2.6-2.5-5.3-3.5-8c-0.2-0.7-0.4-1.4-0.5-2.1c-0.3-1.4-0.7-2.8-1.3-4.1c-0.5-1-1.1-1.9-1.8-2.7c-0.6-3.4-4.1-6.2-7.6-5.5
		c-9.8,2.1-19.6,3.8-29.4,5.6c-7.3,1.3-14.6,2.2-22,3.2c-6.9,1-13.9,1.7-20.9,2.5c-7.1,0.8-14.2,1.5-21.4,2.1
		c-4.9,0.4-9.9,0.9-14.8,1c-1.6-3.4-2.7-7-3.8-10.6c-1.1-3.5-2.2-7.1-3.4-10.6c-0.5-1.6-1.1-3.2-1.7-4.7c-0.4-0.9-0.9-1.9-1.5-2.7
		c-0.6-0.9-1.4-1.6-2.2-2.3c-1.2-1.1-2.8-1.5-4.4-1.5C1255.9,588.1,1253.6,588.9,1252.2,590.1L1252.2,590.1L1252.2,590.1z
		 M1260.7,601.2c-0.1,0-0.1,0.1-0.2,0.1C1260.6,601.3,1260.7,601.2,1260.7,601.2L1260.7,601.2L1260.7,601.2z M1242.3,650.9
		c1.2-2.4,2.2-4.7,3.2-7.2c0.8-2,1.5-4,2.1-6.1c1.5-4.3,2.7-8.8,3.9-13.2c1.2-4.3,2.3-8.8,3.8-13c0.8,3,1.7,6,2.7,9
		c0.6,1.9,1.3,3.8,2.1,5.5c0.8,2,1.9,4.2,3.4,5.8c0.8,0.8,1.4,1.5,2.3,2.1c1.5,1.1,2.9,1.5,4.7,2c1.9,0.5,4.2,0.1,6.2-0.1
		c1.7-0.1,3.3-0.3,5-0.5c14.2-1.5,28.2-3.5,42.4-5.4c9.8-1.3,19.6-2.8,29.4-4.2c4.5-0.7,8.9-1.7,13.4-2.5c4.4-0.8,8.8-1.6,13.1-2.5
		c0.2,0.8,0.5,1.6,0.7,2.3c0.4,1.3,0.9,2.6,1.4,3.8c0.9,2.4,2.1,4.7,3.3,7c2.6,5.1,5.4,10.1,8.2,15c-0.1-0.1-0.1-0.2-0.2-0.3
		c0.5,0.9,1,1.8,1.4,2.7c-0.7,0.1-1.4,0.1-2.2,0.2c-2.2,0.2-4.5,0.4-6.7,0.6c-5.1,0.3-10.2,0.6-15.3,0.8
		c-10.7,0.4-21.4,0.7-32.1,0.8c0.6,0,1.1,0,1.7,0c-5.6,0-11.3,0-16.9,0.1c-5.7,0-11.3,0.1-17,0.6c-3,0.3-6,0.6-9,0.9
		c-3.1,0.4-6.3,1-9.2,2c-0.8,0.4-1.5,0.8-2.2,1.3c-0.6,0.5-1.2,1.2-1.6,1.9c-0.8,1.4-1.2,2.5-1.6,4.1c-1.2,4.7-2,9.4-3.2,14.1
		c-0.6,1.8-1.2,3.6-2.1,5.3c-0.5-0.3-1-0.5-1.4-0.8c-0.5-0.3-1-0.6-1.5-0.9c-5.4-3.2-10.8-6.5-16.2-9.8c-3.2-1.9-6.3-3.8-9.5-5.8
		c-3.7-2.2-7.5-4.5-10.9-7.3C1239.4,656.5,1241,653.7,1242.3,650.9L1242.3,650.9L1242.3,650.9z M1398.9,650.2
		c-0.1,0.1-0.2,0.1-0.3,0.2C1398.7,650.3,1398.8,650.2,1398.9,650.2L1398.9,650.2L1398.9,650.2z M1279.8,684.6c-0.1,0-0.1,0-0.2,0
		C1279.6,684.6,1279.7,684.6,1279.8,684.6L1279.8,684.6L1279.8,684.6z"/>
	<path style="fill:#161616;" d="M1304.7,567.3c-0.5,3.7-1.1,7.4-1.3,11.1c-0.3,3.4-0.7,6.9-0.8,10.3c-0.1,3.8-0.3,7.5-0.3,11.3
		c0,3.4,0,6.9,0.1,10.3c0,1.5,0,3,0,4.5c0,1.3,0,2.7,0,4c0.1,0.3,0.1,0.5,0.2,0.8c0.2,1.2,0.6,2.3,1.4,3.3c0.8,1.2,1.9,2.2,3.3,2.7
		c3.5,1.2,7-0.1,8.6-3.5c1.2-2.7,0.9-5.7,0.5-8.5c-0.2-2-0.5-4-0.8-6c-0.5-3.9-0.7-7.7-1-11.6c0-2,0-4,0-6c0-2.3,0.3-4.7,0.4-7
		c0.3-4.8,0.8-9.5,1.5-14.2c0.5-3.2-2-6.2-5.1-6.6c-0.2,0-0.5,0-0.7,0C1307.7,562.1,1305.1,564.4,1304.7,567.3L1304.7,567.3
		L1304.7,567.3z"/>
	<path style="fill:#161616;" d="M1324.6,562c-0.6,9.5-1.2,19.1-1.9,28.6c-0.6,8.5-1.2,17.1-0.6,25.7c0.3,4.1,4.7,6.9,8.5,6.3
		c4.1-0.6,6.8-4.5,6.3-8.5c-0.4-3.6-0.6-7.3-0.7-10.9c0-13.2,0.8-26.4,1.6-39.5c0.2-3.6-2-7-5.8-7.5c-0.3,0-0.5,0-0.8,0
		C1328,556.1,1324.8,558.6,1324.6,562L1324.6,562L1324.6,562z M1336.2,602.1c0,0.3,0,0.6,0,0.9
		C1336.2,602.7,1336.2,602.4,1336.2,602.1L1336.2,602.1L1336.2,602.1z"/>
	<path style="fill:#161616;" d="M1308.9,661c-2.2,12.1-4.2,24.3-4.1,36.6c0,6.7,0.3,13.4,0.4,20.1c0.1,3,0.1,5.9,0.2,8.8
		c0,1.3,0.1,2.6,0.1,3.9c0.1,2.5,1.4,4.8,3.4,6.4c2.2,1.8,5.9,1.9,8.1,0c2.4-2.2,3.5-4.9,3-8.1c-0.2-1.5-0.4-2.9-0.5-4.4
		c-0.3-3.2-0.6-6.4-0.9-9.6c-0.6-7-1.1-14-1.3-21.1c0-5.2,0.3-10.3,0.8-15.4c0.6-5.2,1.4-10.5,2.3-15.6c0.6-3.1-2-6.2-5.1-6.5
		c-0.3,0-0.5,0-0.8,0C1311.7,655.8,1309.4,658.1,1308.9,661L1308.9,661L1308.9,661z"/>
	<path style="fill:#161616;" d="M1324.7,666.5c-0.4,10.3-1.2,20.6-0.7,30.9c0.4,8.8,1.3,17.5,1.4,26.3c0-0.2,0-0.4,0-0.6
		c0,2,0.1,3.9-0.1,5.9c-0.3,3,1.3,5.9,4.1,7.1c2.8,1.2,6.2,0.3,8-2.1c3.4-4.4,1.9-10.2,1.3-15.3c-0.4-3.6-1-7.2-1.5-10.8
		c-1.2-7.7-2.2-15.3-2.4-23.1c0.1-5.7,0.3-11.4,0.5-17c0.1-1.5-0.1-2.7-1.1-3.9c-0.9-1.1-2.1-1.8-3.5-2c-0.2,0-0.4,0-0.6,0
		C1327.5,661.9,1324.8,663.8,1324.7,666.5L1324.7,666.5L1324.7,666.5z"/>
	<path style="fill:#161616;" d="M1303.1,422.8c-2.9,3.1-2.3,7.4-2.1,11.4c0.1,1.9,0.2,3.8,0.3,5.6c0.2,3.5,0.5,6.9,0.8,10.4
		c0.7,7.8,1.4,15.6,2.3,23.5c0.4,3.5,4,6,7.4,5.5c3.6-0.5,5.9-3.8,5.5-7.4c-0.8-7.4-1.5-14.8-2.1-22.2c-0.5-5.9-0.9-11.8-1.2-17.6
		c0.5,0,1-0.1,1.5-0.1c2.8,0,5.6,0.2,8.4,0.4c2.4,0.2,4.9,0.4,7.3,0.7c0.4,2.3,0.5,4.6,0.6,6.9c0,3.8-0.1,7.7-0.3,11.5
		c-0.3,4.6-0.7,9.2-1.2,13.8c-0.4,3.9,2.3,7.5,6.2,8c1.9,0.2,3.8-0.3,5.3-1.4c1.4-1.1,2.7-3,2.7-4.8c0.1-7,0.2-14,0.1-21.1
		c0-3.9,0-7.8-0.5-11.7c-0.2-1.9-0.5-3.8-1-5.6c-0.6-2.5-1.7-4.4-3.7-6c-1.7-1.4-4.2-1.9-6.3-2.3c-3.5-0.7-7-0.9-10.5-1.1
		c-1.8-0.1-3.5-0.1-5.3-0.2c-0.7,0-1.3,0-2,0C1310.8,418.8,1306.2,419.4,1303.1,422.8L1303.1,422.8L1303.1,422.8z"/>
	<path style="fill:#161616;" d="M1313,724.3c-1.2,0.9-1.5,2-1.9,3.3c-0.1,0.5-0.3,1-0.4,1.6c0.1-0.3,0.1-0.6,0.2-0.9
		c-0.1,0.4-0.2,0.8-0.3,1.2c0,0,0,0.1,0,0.1c0,0,0-0.1,0-0.1c-0.4,1.5-0.8,2.9-1.2,4.4c-0.6,2.4-1.4,4.8-1.5,7.3
		c-0.1,2.1,0.8,4.1,2.9,4.9c1.2,0.5,2.5,0.5,3.6,0c1.2-0.5,1.9-1.4,2.5-2.5c1.3-2.3,1.7-5,2.3-7.5c0.6-2.4,1.2-4.8,1.8-7.2
		c0.3-1.2-0.3-2.8-1-3.7c-0.8-1-2-1.7-3.3-1.9c-0.2,0-0.4,0-0.6,0C1315,723.2,1313.9,723.6,1313,724.3L1313,724.3L1313,724.3z"/>
	<path style="fill:#161616;" d="M808.9,1032.2c-3.8,1.3-7,4.2-9.3,7.3c-2.1,2.8-3.6,6.2-4.5,9.5c-1.2,4.4-1.8,8.9-1.2,13.4
		c0.2,2.1,1,4.2,1.8,6.1c0.8,2,2,3.8,3.2,5.6c1.2,1.7,2.6,3.2,4.2,4.5c0.8,0.6,1.6,1,2.4,1.5c1,0.5,2.5,1.1,3.5,1.2
		c2.1,0,4.1,0.1,6.1-0.8c2.2-0.9,4.1-2.3,5.6-4.1c1.4-1.6,2.4-3.4,3.4-5.3c1-1.9,1.4-4.2,1.9-6.3c0.5-2.2,0.6-4.5,0.5-6.8
		c0-1.3-0.1-2.5-0.3-3.7c0.7-3.2,0.9-6.4,0.4-9.6c-0.3-1.9-1-3.9-1.8-5.7c-0.8-1.8-2-3.7-3.6-5c-2.2-1.8-5.1-2.6-7.9-2.6
		C811.8,1031.5,810.3,1031.8,808.9,1032.2L808.9,1032.2L808.9,1032.2z M809.7,1058.8C809.7,1058.8,809.7,1058.8,809.7,1058.8
		c-0.1,0-0.3,0.1-0.5,0.1C809.3,1058.9,809.5,1058.8,809.7,1058.8L809.7,1058.8L809.7,1058.8z M809.8,1058.9
		c-0.1,0.1-0.3,0.2-0.4,0.2C809.5,1059.1,809.7,1059,809.8,1058.9L809.8,1058.9L809.8,1058.9z"/>
	<path style="fill:#161616;" d="M802.2,963.7c-3.3,0.3-6.7,1.4-9.8,2.6c-2.8,1.1-5.7,2.9-7.9,5c-2.2,2-4.3,4.9-4.4,8
		c-0.1,1.6,0.2,2.9,1.2,4.2c0.9,1.2,2.3,2,3.8,2.2c2.9,0.4,6.2-1.8,6.4-5c0,0,0,0,0-0.1c0,0,0,0,0,0c0.2-0.3,0.4-0.5,0.6-0.8
		c0.7-0.6,1.4-1.1,2.1-1.6c1.6-0.8,3.2-1.5,4.9-2c1.8-0.4,3.5-0.7,5.3-0.9c0.9,0,1.7,0.2,2.6,0.3c2,0.6,3.9,1.4,5.8,2.5
		c3,1.7,6,3.5,8.5,5.8c0.3,0.3,0.5,0.7,0.7,1c0.9,1.5,3,2.4,4.6,2.6c1.8,0.2,3.7-0.3,5.1-1.4c3.1-2.4,3.5-6.7,1.2-9.8
		c-2.1-3-5.7-4.7-8.9-6.4c-1.1-0.6-2.1-1.1-3.2-1.7c-1.3-0.7-2.5-1.3-3.8-1.9c-1.7-0.8-3.5-1.4-5.3-1.9c-1.6-0.5-3.3-0.8-5-1
		c-0.5,0-1-0.1-1.5-0.1C804.4,963.5,803.3,963.6,802.2,963.7L802.2,963.7L802.2,963.7z"/>
	<path style="fill:#161616;" d="M906.6,1030.1c-0.5,3.4-0.6,7,0,10.4c0.7,4,2.3,7.6,4.6,10.8c0.9,1.3,2.1,2.5,3.3,3.7
		c1.3,1.4,2.7,2.7,4.1,3.9c2.7,2.3,5.4,4.3,8,6.7c1.7,1.8,3.3,3.7,4.7,5.8c0.7,1.4,1.3,2.8,1.8,4.3c0.4,1.6,0.7,3.2,0.8,4.9
		c-0.1,1.3-0.2,2.7-0.4,4c-0.1,0.4-0.3,0.8-0.5,1.2c-0.2,0.3-0.4,0.6-0.7,0.8c-0.4,0.3-0.8,0.6-1.2,0.9c-0.9,0.4-1.9,0.8-2.9,1.1
		c-1.6,0.4-3.3,0.8-5,1c-0.1,0-0.3-0.1-0.4-0.1c-3.2-0.6-6.6,1.6-7.8,4.5c-1.6,3.9,0.4,8,4,9.7c5.4,2.5,12.5,0.9,17.8-1.2
		c3.6-1.4,6.6-4.1,9-7.1c2.6-3.3,3.5-7.6,4-11.7c0.4-3.8-0.1-7.7-1.1-11.4c-1.1-4.3-2.7-8.1-5.3-11.7c-2.4-3.3-5.3-6.3-8.3-9
		c-2.6-2.4-5.6-4.5-8.3-6.9c-1.2-1.2-2.3-2.5-3.3-3.8c-0.4-0.7-0.7-1.5-0.9-2.2c-0.2-0.9-0.3-1.8-0.4-2.7c0-1.3,0.2-2.7,0.3-4
		c0.6-4.3-2.6-8.4-6.9-8.9c-0.3,0-0.7-0.1-1-0.1C910.6,1023.1,907.1,1026.1,906.6,1030.1L906.6,1030.1L906.6,1030.1z"/>
	<path style="fill:#161616;" d="M1015.8,1012.3c-0.9,0-2.5,0.7-3.4,1.1c-2.4,1.2-4.2,3-5.9,5c-1.6,1.9-2.8,4.3-3.8,6.6
		c-0.9,2.3-1.4,4.8-1.8,7.2c-0.4,2.3-0.4,4.7-0.3,7c0.1,1.9,0.3,3.6,0.7,5.5c0.3,1.2,0.6,2.3,1,3.5c0.4,1.4,1.3,2.6,2.1,3.8
		c1.9,2.9,6.2,3.7,9.2,2.4c0.1-0.1,0.3-0.1,0.4-0.2c0.1,0,0.1,0,0.2,0.1c0.9,0,1.8,0,2.7-0.1c0.9,0,2.3-0.6,3.1-1
		c1.4-0.8,2.7-1.7,3.7-3c0.9-1.3,1.7-2.6,2.4-4.1c1-2.1,1.5-4.5,2-6.8c0.4-2.1,0.5-4.2,0.5-6.3c0-2.4,0-4.8-0.3-7.1
		c-0.3-2.5-1.1-5-2.2-7.3c-0.5-1.7-1.5-3.3-2.9-4.4c-0.9-0.7-1.9-1.2-3-1.4c-0.8-0.4-1.7-0.4-2.5-0.4
		C1017.2,1012.2,1016.5,1012.3,1015.8,1012.3L1015.8,1012.3L1015.8,1012.3z"/>
	<path style="fill:#161616;" d="M1009.5,970.1c-1.9,0.1-3.8,0.7-5.5,1.2c-2,0.6-3.9,1.3-5.8,2.3c-2.1,1-4.3,2.4-5.8,4.2
		c-1.1,1.3-2,2.8-2.6,4.4c-1.5,3.6,0.3,8,3.9,9.5c3.7,1.5,7.9-0.3,9.5-3.9c0-0.1,0.1-0.3,0.2-0.4c0.1-0.1,0.2-0.1,0.3-0.2
		c1.4-0.7,2.9-1.3,4.4-1.9c1.3-0.3,2.7-0.5,4.1-0.6c0.9,0.1,1.9,0.2,2.8,0.3c1.5,0.5,3,1.2,4.5,1.9c0.1,0.1,0.2,0.3,0.3,0.4
		c2.5,3.1,7.1,3.7,10.3,1.3c1.5-1.2,2.5-3,2.8-4.9c0.3-2.1-0.4-3.7-1.5-5.4c-2.1-3.3-5.5-5.2-9.1-6.6c-3.2-1.2-6.4-1.7-9.8-1.7
		C1011.4,970,1010.5,970.1,1009.5,970.1L1009.5,970.1L1009.5,970.1z M1007.1,985.5c-0.2,0-0.3,0.1-0.5,0.1
		C1006.8,985.6,1007,985.5,1007.1,985.5L1007.1,985.5L1007.1,985.5z M1018.5,986.4c0.1,0.1,0.2,0.1,0.3,0.2
		C1018.8,986.5,1018.6,986.5,1018.5,986.4L1018.5,986.4L1018.5,986.4z M1003.8,986.4c-0.1,0.2-0.2,0.3-0.3,0.5
		C1003.6,986.7,1003.7,986.6,1003.8,986.4L1003.8,986.4L1003.8,986.4z M1004.4,986.6c-0.1,0.1-0.2,0.1-0.3,0.2
		C1004.2,986.7,1004.3,986.6,1004.4,986.6L1004.4,986.6L1004.4,986.6z M1020,987.5c0.1,0.1,0.1,0.1,0.2,0.2
		C1020.1,987.6,1020.1,987.6,1020,987.5L1020,987.5L1020,987.5z M1003.1,987.6c-0.1,0.1-0.2,0.3-0.2,0.4
		C1002.9,987.9,1003,987.7,1003.1,987.6L1003.1,987.6L1003.1,987.6z"/>
	<path style="fill:#161616;" d="M924.6,1200.1c-5.2,0.1-10,1.2-14.6,3.6c-3,1.5-5.8,3.5-8.6,5.4c-3.3,2.2-6.1,4.9-8.9,7.7
		c-1.4,1.4-2.8,2.8-4.1,4.3c-3,3.4-5.8,6.8-8.5,10.5c-3.3,4.6-6.1,9.6-8.5,14.8c-2.4,5.1-4.1,10.4-5.5,15.8c-0.8,3-1.1,6.2-1.5,9.3
		c-0.4,3,0.1,6.4,2,8.9c1.1,1.4,2.5,2.5,4,3.2c1.4,0.7,2.8,1,4.3,1.3c1.4,0.3,3.3,0.1,4.8,0.1c1.3,0,2.5-0.1,3.7-0.2
		c1.2-0.1,2.4-0.2,3.7-0.2c2-0.1,4-0.1,6-0.2c3.3,0.1,6.7,0.1,10,0.4c3.8,0.4,7.7,0.6,11.4,1.3c4.1,0.7,8.1,1.3,12.2,2.1
		c2.2,0.4,4.5,0.9,6.7,1.3c5.6,1,11.1,1.5,16.8,1.2c8.3-0.5,14.6-6.9,19.1-13.4c3.6-5.2,6.8-10.8,9.1-16.7c1.4-3.5,2.2-7.2,2.9-10.8
		c0.4-1.8,0.7-3.6,0.9-5.5c0.4-4.3,0.6-8.5,0-12.7c-0.2-1.3-0.7-2.5-1.4-3.5c-0.4-1.4-1-2.7-1.7-4c-1.6-2.8-3.6-5.1-6-7.2
		c-4.1-3.8-8.7-6.9-13.6-9.7c-5-2.9-10.5-4.6-16.2-5.9c-4.4-1-8.9-1.2-13.4-1.2C928,1200.1,926.3,1200.1,924.6,1200.1L924.6,1200.1
		L924.6,1200.1z M928.6,1215.9c4.7,0.1,9.3,0.5,13.9,1.6c3.7,1.1,7.2,2.7,10.7,4.5c3.4,2.1,6.5,4.4,9.4,7.1c0.7,0.8,1.4,1.6,2.1,2.4
		c0.3,0.7,0.6,1.5,0.9,2.2c0,0.1,0,0.2,0.1,0.3c0.2,1,0.5,1.8,0.9,2.6c-0.1,1.4-0.2,2.8-0.3,4.2c-0.3,3.5-0.9,7-1.8,10.4
		c-1.1,3.8-2.8,7.4-4.6,10.9c-2.1,3.4-4.2,6.9-6.9,9.9c-0.9,0.8-1.9,1.6-2.9,2.3c-0.1,0-0.2,0.1-0.3,0.1c-1.2,0.2-2.4,0.3-3.6,0.4
		c-7.1-0.2-13.9-2-20.9-3.2c-4.7-0.8-9.3-1.6-14-2.1c-2.3-0.3-4.7-0.6-7-0.7c-2.9-0.1-5.7-0.2-8.6-0.3c-2.5-0.1-5.1,0-7.6,0.1
		c-2.4,0.1-4.8,0.3-7.2,0.4c0.3-1.6,0.6-3.2,1-4.7c1.9-6.4,4.5-12.5,7.7-18.3c4.3-7,9.6-13.1,15.3-18.9c3.4-3.1,7.1-5.8,11-8.2
		c1.4-0.8,2.9-1.5,4.4-2.1C923,1216.1,925.8,1216,928.6,1215.9L928.6,1215.9L928.6,1215.9z M964.3,1252c-0.1,0.3-0.1,0.6-0.2,0.8
		C964.2,1252.6,964.2,1252.3,964.3,1252L964.3,1252L964.3,1252z"/>
	<path style="fill:#161616;" d="M1301.2,784.2c-1.8,0.4-3.4,1-5,1.9c-1.4,0.8-2.7,1.7-3.5,3c-3.1-1-6.8-0.1-8.6,2.7
		c-3.7,5.6-5.8,12-6.4,18.7c-0.6,6.4,0.8,13.1,5.4,17.8c9.9,10.1,27.1,12.3,39.2,5c2.8-1.7,4.9-3.8,7.2-6c2.3-2.3,3.6-5.5,4.4-8.6
		c1.7-6.9,0.1-14.2-2.9-20.5c-1.4-2.9-3.2-5.6-5.6-7.7c-2.4-2.1-5.2-3.8-8.2-5c-3.1-1.2-6.5-1.5-9.8-1.5c-0.6,0-1.1,0-1.7,0
		C1304.1,783.8,1302.7,783.9,1301.2,784.2L1301.2,784.2L1301.2,784.2z M1306,799.6c-0.1,0-0.2,0-0.4,0
		C1305.8,799.6,1305.9,799.6,1306,799.6L1306,799.6L1306,799.6z M1304.9,799.7c2,0.1,4,0.1,6,0.5c0.7,0.3,1.4,0.5,2.1,0.9
		c0.7,0.4,1.3,0.9,1.9,1.4c0.3,0.4,0.6,0.8,0.9,1.2c0.8,1.6,1.5,3.1,2.1,4.8c0.3,1.4,0.6,2.8,0.7,4.2c-0.1,0.9-0.2,1.8-0.3,2.7
		c-0.1,0.2-0.2,0.4-0.2,0.6c-0.4,0.6-0.9,1.1-1.3,1.7c-1,0.9-2,1.7-3,2.4c-0.8,0.4-1.6,0.7-2.5,1c-1.6,0.4-3.2,0.6-4.9,0.8
		c-1.7-0.1-3.4-0.3-5-0.6c-1.4-0.4-2.7-1-4.1-1.6c-0.9-0.6-1.7-1.2-2.6-1.9c-0.2-0.3-0.5-0.6-0.7-0.9c-0.2-0.4-0.3-0.8-0.5-1.2
		c-0.1-0.6-0.2-1.2-0.3-1.9c0.1-2.2,0.4-4.3,0.9-6.5c0.6-1.9,1.3-3.8,2.2-5.6c0.1-0.1,0.2-0.3,0.3-0.4c0.1-0.2,0.2-0.3,0.3-0.5
		c1.8,0.7,3.8,0.7,5.6-0.2c0.6-0.3,1.2-0.6,1.8-0.8C1304.4,799.7,1304.6,799.7,1304.9,799.7L1304.9,799.7L1304.9,799.7z
		 M1295.9,802.1c-0.2,0.3-0.3,0.6-0.5,0.9C1295.6,802.7,1295.8,802.4,1295.9,802.1L1295.9,802.1L1295.9,802.1z"/>
	<path style="fill:#161616;" d="M1269.9,855.1c-3.3,0.2-6.5,1.3-9.3,2.9c-1.8,1-3.3,2.1-4.1,4.1c-0.8,1.9-0.8,4.1,0,6
		c0.3,0.7,0.7,1.4,1.2,1.9c0,0,0,0-0.1,0c-2.1-0.3-4.2,0.3-5.9,1.6c-1.5,1.2-3,3.3-3,5.3c-0.2,5.8-0.7,11.8,0.3,17.6
		c1.2,6.5,5.4,11.9,11.3,14.8c5.7,2.8,12.1,2.4,18.1,0.8c2.7-0.8,5-2,7.4-3.4c2.9-1.8,5.3-4.1,7.6-6.7c4.3-4.7,6.8-10.9,7-17.2
		c0.1-2.9-0.2-5.8-0.9-8.6c-0.4-1.5-0.8-2.9-1.4-4.4c-0.7-1.8-1.8-3.5-2.9-5c-1.6-2.3-3.9-4.2-6.2-5.7c-3.1-2-6.4-3.1-10-3.8
		c-1.5-0.3-3-0.4-4.5-0.4C1273,854.9,1271.5,855,1269.9,855.1L1269.9,855.1L1269.9,855.1z M1271.6,870.8c-0.1,0-0.2,0-0.3,0
		C1271.4,870.8,1271.5,870.8,1271.6,870.8L1271.6,870.8L1271.6,870.8z M1272.5,870.8c1.9,0,3.8,0.2,5.6,0.6c0.7,0.2,1.3,0.5,1.9,0.8
		c0.6,0.4,1.2,0.9,1.8,1.4c0.5,0.6,1,1.2,1.5,1.9c0.3,0.7,0.5,1.3,0.8,2c0.3,1.4,0.5,2.7,0.6,4.1c-0.1,1.1-0.2,2.1-0.4,3.2
		c-0.3,0.8-0.6,1.5-0.9,2.2c-0.9,1.4-1.9,2.7-3,3.9c-1.1,1-2.2,1.8-3.4,2.7c-1.1,0.6-2.2,1-3.4,1.5c-1.2,0.2-2.3,0.4-3.5,0.5
		c-0.6,0-1.2-0.1-1.8-0.2c-0.3-0.1-0.7-0.3-1-0.4c-0.4-0.3-0.8-0.6-1.2-0.9c-0.3-0.3-0.5-0.6-0.8-1c-0.1-0.2-0.1-0.3-0.2-0.5
		c-0.4-1.9-0.5-3.7-0.6-5.7c0-2.6,0.1-5.3,0.2-7.9c0.1-2.2-0.2-4.1-1.6-5.9c-0.1-0.1-0.2-0.2-0.3-0.3c1.3,0.2,2.6,0,3.9-0.6
		c0.8-0.4,1.6-0.8,2.4-1.1C1270.2,871,1271.3,870.9,1272.5,870.8L1272.5,870.8L1272.5,870.8z"/>
	<path style="fill:#161616;" d="M1039.3,1325.1c-6.1,1-10.3,6-12.6,11.4c-1.2,2.7-1.7,5.7-2.3,8.5c-0.7,3.1-0.8,6.4-0.9,9.6
		c-0.3,9.9,1.1,19.8,3.1,29.4c3.4,16.5,7.6,32.9,9.5,49.7c0.7,6.3,1.3,12.6,2.2,18.9c0.6,4.2,4.6,7.2,8.8,6.6c2-0.3,3.8-1.4,5-3
		c1.4-1.8,1.6-3.7,1.5-5.8c-0.6-13-2.3-26-4.9-38.8c-1.3-6.5-2.8-12.9-4.1-19.4c-2.3-11.1-4.8-22.3-5.2-33.7c0.1-4.8,0.5-9.4,1.5-14
		c0.4-1.1,0.8-2.1,1.2-3.2c0.1-0.1,0.1-0.2,0.2-0.2c2.6,0.9,5.1,2,7.6,3.3c1,0.7,2,1.5,2.9,2.3c3.9,4.2,7,8.9,10,13.8
		c1.6,3.1,3.2,6.1,4.7,9.3c1.6,3.4,3.1,6.9,4.7,10.4c2.6,5.8,4.5,11.9,6.5,18c0.4,1.7,0.8,3.3,1.2,5c0.5,2,1.1,4,1.5,6
		c0.8,4.8,1.7,9.5,2.5,14.3c0.7,3.7,1.1,7.4,1.6,11.1c0.5,3.4,1,6.9,1.5,10.3c2.4,18.1,4.8,36.2,7.2,54.2c0.9,6.7,1.8,13.3,2.7,20
		c1.4,10.5,3.2,21,3.5,31.6c0,4.3-0.5,8.6-1.6,12.8c-0.5,1.8,0.4,4.1,1.5,5.5c1.2,1.5,3,2.6,4.9,2.8c2,0.2,3.9-0.3,5.5-1.5
		c1.7-1.3,2.3-2.9,2.8-4.9c3-11.7,1.1-23.9-0.2-35.8c-0.4-3.7-1-7.4-1.5-11.1c-1.1-8-2.2-16-3.2-23.9c-2.3-17.6-4.4-35.3-6.8-52.8
		c-1.1-8.2-2.1-16.4-3.5-24.5c-1.5-8.8-3.1-17.6-5.7-26.1c-0.8-2.4-1.5-4.8-2.3-7.3c-0.6-1.9-1.4-3.8-2.1-5.6
		c-1.5-3.8-3.1-7.6-4.7-11.3c-3.5-8.3-8-16.2-13.1-23.6c-1-1.5-2.2-2.9-3.3-4.3c-1-1.2-2-2.3-3.1-3.4c-1-1-2-2-3.1-2.9
		c-1.3-1.1-3-1.9-4.5-2.8c-1.8-1-3.8-1.8-5.7-2.6c-0.8-0.3-1.6-0.7-2.4-1c-2.1-0.8-4.2-1.3-6.4-1.3
		C1040.9,1324.9,1040.1,1325,1039.3,1325.1L1039.3,1325.1L1039.3,1325.1z M1043.6,1340.4c-0.3,0.1-0.6,0.2-0.8,0.2
		C1043,1340.5,1043.3,1340.4,1043.6,1340.4L1043.6,1340.4L1043.6,1340.4z M1041,1340.8c-0.2,0-0.4,0-0.6,0
		C1040.6,1340.8,1040.8,1340.8,1041,1340.8L1041,1340.8L1041,1340.8z M1041.9,1341.2c-0.1,0.1-0.2,0.2-0.4,0.4
		C1041.7,1341.5,1041.8,1341.4,1041.9,1341.2L1041.9,1341.2L1041.9,1341.2z"/>
	<path style="fill:#161616;" d="M1037,1440.4c-10.1,2.1-20.1,4.5-30.1,6.8c-3.4,0.8-6.8,1.7-10.1,2.6c-4.4,1.1-8.8,2.1-13.1,3.4
		c-7.4,2.2-14.9,4.3-22.2,6.8c-3.9,1.3-7.8,2.5-11.6,4c-3.7,1.4-7.4,2.7-11,4.4c-6.6,3.1-13,6.2-19.1,10.2c-4.1,2.7-7.9,6-11.4,9.5
		c-1.9,2-2.9,4.7-3.1,7.4c-0.2,3.5,1.3,7,3.7,9.5c1,1,1.9,1.9,3.1,2.7c1.1,0.8,2.4,1.4,3.6,2.1c2,1.1,4,2,6.2,2.8
		c2.7,1,5.4,1.7,8.2,2.2c-0.5,0.3-1,0.5-1.6,0.8c-4.5,2.3-8.8,5.1-12.4,8.6c-1,1-2,2.1-3,3.2c-0.9,1-1.9,2.6-2.4,3.8
		c-0.5,1.2-1.2,2.9-1.3,4.2c-0.1,2.2-0.1,4,0.6,6c1.8,5.2,6.4,8.4,11.5,10.1c4.7,1.6,9.7,1.9,14.7,1.8c-0.5,0.3-1,0.5-1.5,0.8
		c-4.3,2.3-8.4,5-12.2,8c-2,1.5-3.7,3.3-5.4,5.1c-0.8,0.9-1.4,1.8-2,2.8c-0.5,0.8-1,1.7-1.4,2.6c-0.3,1-0.5,1.9-0.7,2.9
		c-0.2,1.1,0,2.6,0.3,3.8c0.5,1.8,0.9,2.8,1.9,4.3c1.2,1.9,2.9,3.5,4.8,4.7c4.9,3.1,10.9,3.9,16.6,4.1c0.6,0,1.1,0,1.7,0
		c-4,3.3-7.4,7.1-9.5,12c-0.8,1.9-1.1,4-1.4,6c-0.2,2-0.1,4,0.3,6c0.9,4.8,3.6,9.2,7.1,12.5c1.7,1.5,3.5,2.8,5.5,3.9
		c2,1,4,1.7,6.1,2.2c4.9,1.2,10.1,0.9,15.1,0.3c5-0.6,9.9-2.1,14.8-3.5c6.3-1.9,12.5-4.3,18.7-6.7c5.8-2.2,11.5-4.3,17.4-6.1
		c3.3-0.8,6.6-1.5,10-1.7c1.5,0.1,3,0.2,4.5,0.6c1,0.3,2,0.7,2.9,1.2c0.6,0.4,1.1,0.8,1.7,1.2c0.7,0.9,1.4,1.8,2,2.8
		c0.8,1,1.9,1.8,3.1,2.4c1.9,0.8,4,0.8,5.9,0c3.7-1.6,5.8-6.3,4-10c-0.8-1.6-1.6-3.1-2.5-4.6c-0.9-1.5-2.4-2.7-3.7-3.8
		c-1.4-1.2-3.1-2-4.7-2.8c-2.1-1.1-4.6-1.6-7-2.2c-3.1-0.8-6.6-0.6-9.7-0.4c-2.2,0.2-4.3,0.6-6.4,1c-3,0.6-6,1.6-9,2.5
		c-2.7,0.8-5.3,1.8-7.9,2.8c-4.9,1.8-9.7,3.7-14.5,5.5c-4.4,1.7-8.9,3.2-13.5,4.6c-4.5,1.1-8.9,2-13.6,2.3c-1.8,0-3.5-0.2-5.3-0.5
		c-0.7-0.2-1.4-0.5-2-0.8c-0.8-0.5-1.6-1.1-2.3-1.7c-0.5-0.6-0.9-1.1-1.4-1.8c-0.3-0.6-0.6-1.2-0.8-1.9c-0.1-0.4-0.1-0.9-0.2-1.3
		c0.1-0.7,0.1-1.4,0.3-2.2c0.2-0.6,0.4-1.1,0.7-1.7c1-1.4,2-2.7,3.2-4c3.1-2.8,6.6-5,10.1-7.3c2.3-1.3,4.6-2.5,7-3.6
		c2.5-1.2,5.1-2.1,7.6-3.1c0.1,0,0.3-0.1,0.4-0.1c1.8-0.2,3.5-0.5,5.3-0.8c8.1-1.4,16.1-3.5,24-5.8c3.3-0.9,6.6-1.9,9.8-2.9
		c3.8-1.1,7.7-2.2,11.4-3.7c0.2-0.1,0.4-0.2,0.5-0.3c1.1-0.5,2-1.2,2.7-2.1c1.1-1.5,1.6-3.3,1.3-5.1c-0.5-3.7-4-6.2-7.7-5.8
		c-3.3,0.4-6.5,1.3-9.7,2.1c-3,0.8-6.1,1.5-9.1,2.2c-6,1.5-11.9,3-17.8,4.7c-0.1,0-0.2,0-0.3,0.1c-0.6,0.1-1.3,0.3-1.9,0.4
		c-6.3,1.3-12.7,2.1-19.1,2.8c-7.5,0.8-15.1,1.3-22.6,1.4c-3,0-6-0.3-9-0.9c-0.5-0.2-0.9-0.3-1.3-0.5c0.3-0.4,0.7-0.8,1.1-1.2
		c3.4-3.2,7.1-5.8,11-8.2c3.3-1.8,6.5-3.6,9.9-5.2c2.2-1,4.4-2.1,6.6-3.1c1.9-0.9,3.9-1.6,5.9-2.4c7.5-3,15.2-5.3,22.9-7.7
		c2.2-0.6,4.4-1.2,6.6-1.8c1.5-0.3,3-0.5,4.6-0.8c7.3-1.3,14.6-2.6,21.8-4.2c1.1-0.2,2.2-0.6,3.3-0.9c3.1-1,4.8-4.8,4.3-7.8
		c-0.6-4.1-4.3-6.5-8.3-6.2c-2.1,0.2-4.1,0.6-6.2,1c-3.6,0.5-7.1,1-10.6,1.6c-6.1,1-12.3,2.1-18.4,3c-6.4,1-12.9,2-19.3,2.9
		c-9.1,1.3-18.3,2.5-27.5,2.7c-3.1,0-6.3-0.3-9.3-0.9c-0.6-0.2-1.2-0.4-1.7-0.7c0.5-0.6,1-1.2,1.5-1.7c2.1-2,4.4-3.7,6.9-5.2
		c2.3-1.3,4.5-2.4,6.9-3.5c1.7-0.8,3.5-1.8,5.2-2.5c2.1-0.9,4.2-1.7,6.3-2.6c1.5-0.6,3.1-1.4,4.7-1.9c3.8-1.3,7.7-2.8,11.6-4
		c2.2-0.7,4.5-1.3,6.7-2c11.8-1.9,23.6-4.4,35.3-6.8c2.5-0.5,5-1,7.4-1.5c1.1-0.2,2.2-0.5,3.2-0.7c2.2-0.5,4.6-0.8,6.6-1.8
		c3-1.5,5-4.5,4.5-7.9c-0.6-4-4.4-6.9-8.5-6.3c-7.7,1.1-15.5,2.5-23.2,4.1c-4.3,0.9-8.6,1.8-12.8,2.8c-13.9,2.6-28,5-42.2,5.3
		c-5,0-10-0.3-14.9-1.4c-2.4-0.7-4.7-1.7-6.9-2.8c2.7-2.2,5.5-4.3,8.5-6.2c17.7-10.1,37.5-15.7,56.9-21.5c6.8-1.8,13.7-3.7,20.6-5.3
		c9.9-2.3,19.9-4.6,29.9-6.7c2.1-0.5,3.9-1.3,5.2-3.1c1.3-1.7,1.9-3.9,1.6-6c-0.5-3.7-3.9-6.9-7.7-6.9
		C1037.9,1440.2,1037.5,1440.3,1037,1440.4L1037,1440.4L1037,1440.4z M923.1,1535c0.2,0.2,0.3,0.3,0.5,0.5
		C923.4,1535.3,923.2,1535.1,923.1,1535L923.1,1535L923.1,1535z M925.3,1535.9c-0.1,0.2-0.2,0.3-0.3,0.5c0,0,0,0,0,0
		C925.1,1536.2,925.2,1536,925.3,1535.9L925.3,1535.9L925.3,1535.9z M924.8,1536.1c0,0,0,0.1,0,0.1c0,0,0,0,0,0
		C924.7,1536.2,924.8,1536.2,924.8,1536.1L924.8,1536.1L924.8,1536.1z M924.7,1537c0.1,0.1,0.1,0.2,0.2,0.3
		C924.8,1537.2,924.8,1537.1,924.7,1537C924.7,1537,924.7,1537,924.7,1537L924.7,1537L924.7,1537z M924.4,1537.8c0,0.2,0,0.4,0,0.6
		C924.4,1538.2,924.4,1538,924.4,1537.8L924.4,1537.8L924.4,1537.8z M941.7,1566.1c-0.2,0.2-0.5,0.3-0.8,0.5
		C941.2,1566.4,941.5,1566.3,941.7,1566.1L941.7,1566.1L941.7,1566.1z M927.1,1574.6c0.1,0.2,0.1,0.4,0.2,0.6
		C927.2,1575,927.1,1574.8,927.1,1574.6L927.1,1574.6L927.1,1574.6z M926.8,1574.7c0,0.1,0.1,0.2,0.1,0.2
		C926.9,1574.9,926.8,1574.8,926.8,1574.7L926.8,1574.7L926.8,1574.7z M986.4,1585.7c0,0-0.1,0-0.1,0
		C986.3,1585.7,986.3,1585.7,986.4,1585.7C986.3,1585.7,986.4,1585.7,986.4,1585.7L986.4,1585.7L986.4,1585.7z M945.7,1587.5
		c-0.3,0.2-0.7,0.4-1,0.6C945,1587.9,945.3,1587.7,945.7,1587.5L945.7,1587.5L945.7,1587.5z"/>
	<path style="fill:#161616;" d="M1004.1,1607c-3.1,1.3-4.5,5-3.3,8.1c1.4,3.3,2.8,6.7,4.3,10c1.7,3.6,3.7,7,5.9,10.3
		c2.2,3.2,4.8,6.1,7.6,8.8c4.4,4.3,9.8,7.3,15.1,10.3c2.6,1.5,5.4,2.7,8.3,3.5c1.8,0.5,3.4,0.8,5.2,0c1.6-0.7,2.9-2,3.6-3.6
		c1.5-3.5-0.3-7.3-3.6-8.8c-4.5-2.1-9.1-4.4-13.5-6.8c-3.1-1.9-6.1-4-8.7-6.5c-2.5-2.7-4.8-5.6-6.7-8.7c-2.4-4.2-4.3-8.6-6.1-13.1
		c-1-2.3-3.3-3.7-5.7-3.7C1005.7,1606.5,1004.9,1606.6,1004.1,1607L1004.1,1607L1004.1,1607z"/>
	<path style="fill:#161616;" d="M1106.6,1548.1c-2,0.3-3.8,1.4-5,3c-1.1,1.5-2,3.9-1.5,5.8c1.9,7.6,3.8,15.2,5.6,22.7
		c1.1,4.4,2.1,8.8,3,13.2c1.4,7.2,2.9,14.4,4.3,21.5c1,5.1,1.7,10.2,2.4,15.4c1,7.8,1.6,15.7,1.7,23.7c0,10.4-0.8,20.7-1.5,31.1
		c-0.4,6.4-1.1,12.7-2.1,18.9c-1.1,6.9-2.2,13.8-3.7,20.5c-1.6,6.9-3.3,13.8-5,20.7c0.2-0.7,0.4-1.4,0.5-2.1
		c-3.1,11.4-6.1,22.8-9.3,34.2c-1.5,5.3-2.9,10.7-4.6,16c-0.8,2.7-1.7,5.3-2.7,8c-0.7,1.9-1.5,3.8-2.3,5.6c-0.9,1.1-1.3,2.3-1.7,3.8
		c-0.4,1.8-0.1,3.6,0.5,5.3c1,2.5,3.5,4.3,6.2,4.7c2.8,0.3,5.4-0.8,7.1-3c1.8-2.2,2.8-4.9,3.8-7.5c0.8-1.9,1.5-3.7,2.1-5.6
		c1.4-3.9,2.5-7.9,3.6-11.8c2.2-7.6,4.2-15.2,6.3-22.8c2.3-8.6,4.7-17.2,6.9-25.9c2.2-8.4,4.1-16.9,5.8-25.4
		c1.5-7.9,2.8-15.8,3.5-23.7c0.8-9,1.5-18,1.8-27c0.5-12.3,0.2-24.6-1.2-36.9c-0.8-7-1.9-13.9-3.3-20.8c-1.1-5.7-2.3-11.4-3.4-17.1
		c-0.5-2.6-1-5.3-1.7-7.9c-2.4-9.9-4.8-19.9-7.3-29.8c-0.5-2-1.2-3.7-3-5c-1.4-1-3-1.6-4.7-1.6C1107.4,1548,1107,1548,1106.6,1548.1
		L1106.6,1548.1L1106.6,1548.1z"/>
	<path style="fill:#161616;" d="M1035.5,1651.4c-1.7,1.3-2.4,3-2.9,5.1c-2.8,11.8-5.4,23.7-8,35.6c-1.7,7.8-3.2,15.7-4.7,23.6
		c-3.1,16.3-6.1,32.5-9.9,48.7c-3.1,13.2-6.3,26.3-9.8,39.4c-0.6,2.2-1.2,4.4-1.8,6.6c-0.3,1.1-0.7,2.2-1,3.4
		c-0.2,0.6-0.3,1.2-0.5,1.8c-0.2,0.8-0.4,1.6-0.6,2.4c-0.1,1.4-0.2,2.7,0,4.1c0.4,3.3,3.2,6,6.5,6.4c3.3,0.4,6.6-1.5,7.9-4.6
		c1.9-4.4,3-9.2,4.2-13.8c-0.1,0.4-0.2,0.7-0.3,1.1c0.3-1.3,0.7-2.6,1-3.9c-0.2,0.7-0.4,1.4-0.5,2.1c2.2-8.4,4.2-16.9,6.3-25.3
		c1.8-7.6,3.7-15.2,5.3-22.8c3.8-17.8,7.1-35.6,10.4-53.5c1.2-6.2,2.5-12.4,3.9-18.5c2.2-10.2,4.5-20.4,6.9-30.6
		c0.5-1.9-0.4-4.2-1.5-5.7c-1.2-1.6-3.1-2.6-5.1-2.9c-0.3,0-0.6-0.1-0.9-0.1C1038.5,1649.8,1036.9,1650.3,1035.5,1651.4
		L1035.5,1651.4L1035.5,1651.4z M1014.9,1809.9c0.1-0.3,0.2-0.7,0.3-1C1015,1809.2,1015,1809.5,1014.9,1809.9L1014.9,1809.9
		L1014.9,1809.9z"/>
	<path style="fill:#161616;" d="M822.9,1377.7c-1.7,1.3-2.3,3-2.8,5c-0.5,2-1,3.9-1.5,5.9c-2.3,8.5-4.8,16.9-7.8,25.1
		c-2.9,7.8-6.3,15.5-10.4,22.8c-2.9,4.9-6.2,9.6-10.1,13.9c-1.7,1.9-3.5,3.8-5.3,5.6c-1.3,1.2-2.6,2.5-3.9,3.7
		c-1.5,1.4-3.1,2.8-4.3,4.5c-2.4,3.1-2.7,7.1-2.2,10.8c0.3,2.6,1.5,5.2,2.8,7.5c1.4,2.5,3,4.9,4.8,7.1c3.9,4.9,8.6,9.1,13.4,13.1
		c9.7,8.1,20.7,14.7,31.6,21.1c7.1,4.2,14.4,8.3,21.9,11.9c3.9,1.9,7.8,3.6,11.8,5.2c3.8,1.6,7.8,2.6,11.8,3.7
		c7.8,2.2,15.9,3.5,23.9,3.9c4.4,0.2,8.7,0.1,13.1,0c1.7,0,3.5-0.1,5.2-0.2c0.4,0,0.9-0.1,1.3-0.1c0.9-0.1,2.9-0.5,3.5-0.9
		c1.1-0.6,2.1-1.2,3.1-1.9c1-0.8,1.8-1.8,2.7-2.7c0.8-1,1.3-2.2,1.4-3.5c0.3-1.9-0.3-3.8-1.5-5.4c-1.2-1.5-2.9-2.5-4.8-2.8
		c-2-0.3-3.6,0.4-5.2,1.4c-3.3,0-6.5,0.2-9.8,0.2c-4.6,0-9.1-0.2-13.7-0.6c-4.9-0.4-9.8-1.6-14.5-2.7c-3.4-1-6.7-2-10.1-3.2
		c-3.3-1.1-6.5-2.6-9.7-4.1c-6.9-3.3-13.6-7-20.4-10.7c-13.7-8.1-27.4-16.4-38.9-27.5c-2.6-2.7-5-5.5-7-8.6
		c-0.5-0.9-0.9-1.8-1.3-2.8c0,0,0,0,0,0c0.1-0.1,0.2-0.3,0.4-0.4c2.9-2.9,5.8-5.8,8.7-8.8c4.5-4.7,8.4-9.9,11.9-15.4
		c12.1-19.3,18.4-41.6,23.9-63.5c0.5-1.8-0.4-4.1-1.5-5.5c-1.2-1.6-3-2.6-5-2.8c-0.3,0-0.6-0.1-0.9-0.1
		C825.9,1376.1,824.2,1376.6,822.9,1377.7L822.9,1377.7L822.9,1377.7z M790.3,1471c-0.1,0.3-0.1,0.5-0.2,0.8
		C790.1,1471.5,790.2,1471.2,790.3,1471L790.3,1471L790.3,1471z M790,1472.7c0,0.2,0,0.5,0,0.7C790,1473.2,790,1473,790,1472.7
		C790,1472.7,790,1472.7,790,1472.7L790,1472.7L790,1472.7z M790.3,1473.5c0,0.1,0.1,0.3,0.1,0.4
		C790.4,1473.8,790.4,1473.6,790.3,1473.5L790.3,1473.5L790.3,1473.5z M798.8,1484.5c0.2,0.2,0.3,0.3,0.5,0.5
		C799.1,1484.8,799,1484.6,798.8,1484.5L798.8,1484.5L798.8,1484.5z M916,1532.2c-0.2,0.1-0.3,0.2-0.5,0.3
		C915.7,1532.3,915.9,1532.3,916,1532.2L916,1532.2L916,1532.2z"/>
	<path style="fill:#161616;" d="M958.5,1362.9c-3.9,0.6-7.1,4.5-6.4,8.6c0.8,4.2,1.7,8.4,2.5,12.6c0.4,2,1.1,4,1.6,5.9
		c0.5,1.8,1,3.7,1.6,5.5c2.3,6.9,4.8,13.7,7.6,20.4c3,7,6,14,9.2,20.9c3.1,6.7,6.6,13.4,10.8,19.5c0.9,1.5,2,2.6,3.7,3.4
		c1.9,0.8,4.1,0.8,6,0c1.8-0.8,3.3-2.3,4.1-4.1c0.8-2,0.7-4,0-6c-0.9-2.6-2.7-5-4.2-7.4c-4.7-8.3-8.7-17-12.6-25.8
		c-1.9-4.3-3.9-8.6-5.6-13c-1.9-4.8-3.6-9.6-5.3-14.5c0.2,0.6,0.4,1.3,0.5,1.9c-0.8-3-1.8-6-2.5-9c-0.8-4.2-1.7-8.3-2.5-12.5
		c-0.7-3.7-3.7-6.5-7.5-6.5C959.2,1362.8,958.9,1362.9,958.5,1362.9L958.5,1362.9L958.5,1362.9z"/>
	<path style="fill:#161616;" d="M669.1,1445.2c-15.8,5.3-29.8,14.3-43.8,23.1c-3.2,2-6.2,4.3-9.3,6.5c-2,1.5-4,2.9-6,4.4
		c-3.8,2.8-7.4,5.8-10.9,8.9c-9.2,8.1-17.8,17.1-24.9,27.1c-4.7,6.6-8.6,13.8-12.4,20.9c-1,1.9-2,3.8-3.1,5.7
		c-0.9,1.7-1.6,3.6-2.4,5.4c-1.6,3.6-3.2,7.2-4.6,10.9c-3.3,8.6-6.6,17.2-9.7,25.8c-5.2,14.1-9.9,28.4-13.9,42.9
		c-2,7.6-3.7,15.2-5.3,22.9c-0.7,3.3-1.3,6.7-2,10.1c-0.3,1.6-0.7,3.3-1,4.9c-0.2,0.8-0.3,1.7-0.5,2.5c-0.3,1.3-0.1,2.7-0.1,4.1
		c0.2,1.3,0.7,2.5,1.5,3.6c1.2,1.6,3.1,2.6,5.1,2.9c1.4,0.2,2.7,0,4-0.5c2-0.8,3-2.3,4-4.1c1-1.8,1.3-3.8,1.8-5.7
		c0.3-1.6,0.7-3.2,1-4.8c0.6-3.2,1.3-6.5,1.9-9.7c1.4-6.9,3-13.8,4.6-20.6c2.1-7.4,4.2-14.7,6.7-22c2.6-7.7,5.2-15.4,8-23
		c3.3-8.8,6.6-17.6,10.1-26.4c1.5-3.9,3.4-7.7,5.1-11.6c1.7-3.9,4-7.6,6-11.3c0.3-0.5,0.6-1.1,0.9-1.6c3-5.1,6.2-10.2,9.8-15
		c3.5-4.6,7.3-8.9,11.4-13.1c5.9-5.9,12.2-11.6,18.9-16.4c3.7-2.7,7.5-5.4,11.2-8.1c5.3-3.8,11-7.2,16.5-10.6
		c10.3-5.9,21-11.2,32.4-14.7c6.3-1.7,12.7-2.8,19.2-2.9c12.3,0.2,24.2,3.3,36,6.1c3.3,0.9,6.5,1.9,9.8,2.8c2.8,0.8,5.6,1.5,8.4,2.4
		c8.7,2.9,17.5,5.7,26.2,8.8c4.1,1.5,8.7-0.1,10.5-4.3c1.6-3.9-0.2-9-4.3-10.4c-18.2-6.5-36.6-12.3-55.4-16.7
		c-8-1.9-16.1-3.5-24.3-4.3c-2.1-0.2-4.2-0.3-6.3-0.3C689.3,1439.6,679,1441.9,669.1,1445.2L669.1,1445.2L669.1,1445.2z M602,1507.2
		c-0.3,0.3-0.7,0.7-1,1C601.3,1507.8,601.7,1507.5,602,1507.2L602,1507.2L602,1507.2z"/>
	<path style="fill:#161616;" d="M1161.8,1428.9c-10.4,4.8-19.9,11.3-28.8,18.5c-3.3,2.6-6.3,5.5-9.4,8.3c-2.1,1.9-4.3,3.7-6.3,5.7
		c-7.5,7.4-15.1,14.7-22.4,22.2c-1.3,1.3-1.7,3.8-1.5,5.6c0.3,1.9,1.3,3.7,2.8,4.8c1.6,1.2,3.6,1.7,5.6,1.5c2.1-0.3,3.4-1.4,4.8-2.8
		c1.6-1.6,3.1-3.2,4.7-4.8c2.8-2.8,5.7-5.6,8.6-8.4c2.6-2.5,5.1-5.1,7.8-7.5c3.8-3.3,7.6-6.7,11.4-10c6-5.3,12.5-10,19.3-14.1
		c5.6-3.2,11.4-6,17.5-8c3.1-0.8,6.3-1.3,9.5-1.5c2.2,0.1,4.4,0.3,6.6,0.8c1.9,0.6,3.8,1.4,5.6,2.3c2.3,1.5,4.4,3.1,6.4,5
		c3,3.2,5.6,6.7,7.9,10.4c4,7.1,6.8,14.7,9.1,22.5c2.3,8.5,4,17.1,5.8,25.7c1.5,7.4,3,14.7,4.4,22.1c3.3,16.4,6.3,32.8,8.6,49.3
		c0.6,4.1,1.2,8.1,1.5,12.2c0.4,4.4,1,8.8,1.2,13.2c0.2,4.5,0.6,9.1,0.6,13.6c0,4.1,0.1,8.2,0.1,12.3c-0.3,16.5-1.1,32.9-1.8,49.4
		c-0.8,16.8-0.9,33.7-0.8,50.5c0.1,6.1,0.2,12.2,0.3,18.3c0,3.3-0.1,6.6-0.2,9.9c-0.1,1.8-0.2,3.5-0.3,5.2c-0.2,2.8,0.3,5.2,1.3,7.9
		c0.7,1.9,1.8,3.6,2.9,5.3c1.7,2.7,5.7,3.4,8.4,2.2c2.8-1.2,4.9-4.5,4.2-7.6c-0.4-1.8-0.8-3.7-1-5.6c1.1-13.2,0.5-26.5,0.3-39.7
		c0,0.4,0,0.8,0,1.2c0-0.5,0-0.9,0-1.4c0-0.3,0-0.5,0-0.8c0,0.2,0,0.4,0,0.6c-0.1-16.2,0.3-32.5,1-48.7c0.7-16.2,1.8-32.4,1.6-48.6
		c0-4.4,0.1-8.8-0.1-13.2c-0.2-4.6-0.4-9.3-0.7-13.9c-0.2-4.1-0.8-8.3-1.2-12.4c-0.4-3.8-0.9-7.6-1.5-11.4
		c-2.3-16.6-5.3-33-8.6-49.4c-1.5-7.4-2.9-14.7-4.4-22.1c-1.8-8.8-3.5-17.6-5.9-26.3c-1.6-5.8-3.4-11.4-5.6-17
		c-2.3-5.7-5.4-11.2-8.9-16.3c-3-4.4-6.8-8.4-10.8-11.8c-4.7-3.9-10.4-6.6-16.3-8.1c-2.9-0.7-5.9-1-8.9-1
		C1177.7,1422.8,1169.3,1425.4,1161.8,1428.9L1161.8,1428.9L1161.8,1428.9z M1111,1488c-0.2,0.2-0.4,0.4-0.6,0.6
		C1110.6,1488.4,1110.8,1488.2,1111,1488L1111,1488L1111,1488z M1240.8,1746.4c0,0.2,0,0.4,0,0.7
		C1240.8,1746.8,1240.8,1746.6,1240.8,1746.4L1240.8,1746.4L1240.8,1746.4z M1256.4,1723.3c0,0,0,0.1,0,0.1c0-0.1,0-0.2,0-0.3
		C1256.4,1723.2,1256.4,1723.3,1256.4,1723.3L1256.4,1723.3L1256.4,1723.3z"/>
	<path style="fill:#161616;" d="M1248.8,1760.7c-1.8,0.3-3.5,1.3-4.6,2.7c-1.3,1.6-1.5,3.4-1.4,5.3c0.3,5.4,0.5,10.8,0.8,16.2
		c0.1,2,0.2,4.1,0.3,6.2c0.1,2.4,0,4.8,0.5,7.1c0.3,1.8,1.4,3.5,2.7,4.5c1,0.8,2.1,1.2,3.4,1.4c1.2,0.2,2.4,0,3.6-0.5
		c3.2-0.9,4.7-4.4,4.9-7.5c0.1-1.8-0.1-3.5-0.2-5.3c-0.3-2.5-0.5-5.1-0.8-7.6c-0.5-5.5-0.9-10.9-1.1-16.4c-0.1-1.8-1.4-3.6-2.7-4.6
		c-1.2-1-2.8-1.5-4.3-1.5C1249.5,1760.7,1249.1,1760.7,1248.8,1760.7L1248.8,1760.7L1248.8,1760.7z"/>
	<path style="fill:#161616;" d="M1016.4,33.4c-40,0-81,2.6-122,7.6C780.6,55,670.1,89.8,566,144.5c-47.9,25.1-95,55.5-140.1,90.1
		C382.5,268,341,306.1,302.6,348c-37.6,41-72.1,86.1-102.7,133.9c-29.9,46.8-56.3,97.8-78.5,151.5c-45,109-69.2,226-71.8,347.7
		c-1.3,59.3,3.2,120.1,13.3,180.7c4.7,28.2,11.1,57.7,19.1,87.7c7.1,26.6,15.7,53.9,26.5,83.4c39.2,107.4,97.7,207.1,174.2,296.4
		c71.8,84,157.6,154.8,254.9,210.6c48.3,27.7,100.2,51.5,154.3,70.9c53,19,109.8,33.5,169,43.3c50.7,8.3,102.7,12.6,154.7,12.6
		c68,0,136.3-7.2,203-21.3c52.1-11,105.1-27.3,157.4-48.2c47.7-19.1,95.1-42.8,140.9-70.6c43.5-26.4,85.9-57,126.1-91.2
		c38.7-32.9,76.1-70.5,111.2-111.8c35.4-41.7,68-87.6,96.6-136.5c28.3-48.3,52.8-100.3,72.7-154.6c2.4-6.6,4.7-13.1,6.9-19.7
		c0.8-2.3,1.6-4.7,2.4-7c17.7-52.6,30.9-108.8,39.5-167c8.8-60.3,11.8-122.9,8.9-186c-2.8-59.9-11.5-120.5-25.8-180.2
		c-13.5-56.3-32.9-112.8-57.7-168.2c-23.5-52.6-52.8-104.3-87-153.9c-32.5-47-69.8-91.7-110.8-133c-39.5-39.7-83.6-76.8-131.1-110.1
		c-45.5-32-95.5-60.7-148.7-85.4c-51.5-23.9-106.6-43.5-163.7-58.2c-57-14.7-117-24.2-178.3-28.3C1057.7,34.1,1037,33.4,1016.4,33.4
		L1016.4,33.4L1016.4,33.4z M693.8,105.4L693.8,105.4l0.6-0.2c-1.6,0.6-3.2,1.2-4.9,1.7c1.3-0.5,2.6-1,3.9-1.4l0,0l0,0
		C693.6,105.4,693.7,105.4,693.8,105.4L693.8,105.4L693.8,105.4z M941.2,180.7c22.1-1.7,44.6-2.6,66.8-2.6c0,0,0,0,0,0
		c14.6,0,29.4,0.4,44.1,1.1c35.7,1.8,72.5,6.1,109.4,12.9c35.7,6.8,71.3,16,105.8,27.3c33.7,11,67.7,24.8,101.2,41l-1.8-1
		c31.7,15.5,62.7,33,92.2,52.2c29.2,19,58.1,40.7,86.1,64.6c0,0,0,0,0,0l0.5,0.4l-0.5-0.5c0,0,0,0,0,0c0,0,0,0,0,0c0,0,0,0,0,0.1
		l-0.9-0.9c26.9,23.3,52.6,48.3,76.4,74.6c23.2,25.6,45.6,53.8,66.4,83.7c20.1,29.3,38.6,60,54.9,91.3
		c15.9,30.6,30.3,63.5,42.8,97.7l0.2,0.4l0.2,0.4c0,0,0,0,0,0c0,0,0,0.1,0,0.1l0-0.1l0,0c0,0,0-0.2,0-0.2c0,0,0-0.1,0-0.2l0.2,0.8
		c11.8,33.2,21.8,67.7,29.4,102.3c7.6,34.4,13,70.6,16.2,107.7l0,0.5c0,0,0,0,0,0c0,0,0,0,0,0l0-0.1l0,0c0,0,0-0.2,0-0.2
		c0,0,0,0,0-0.1c0,0.5,0,1,0.1,1.5l0-0.5c2.8,36.5,3.3,73.7,1.4,110.5c-1.8,35.9-6.2,72.8-13,109.6c-6.8,35.9-16.1,71.7-27.4,106.3
		c-11,33.4-24.7,67.3-40.8,100.7c-15.7,32.1-33.6,63.4-53.1,93.2c-18.9,28.8-40.5,57.4-64.2,85c-22.9,26.4-47.5,51.5-73.3,74.8
		c-7.2,6.5-14.6,12.9-22,19.1c-18.3,15.3-37.9,30.2-58.2,44.4c-29.2,20.2-60.1,38.8-91.6,55.2c-31.7,16.5-65.2,31.2-99.5,43.7
		c-33.1,11.9-67.3,21.8-101.6,29.5c-35,7.8-71.9,13.4-109.5,16.6l-0.7,0.1c-22.4,1.8-45.1,2.7-67.6,2.7c-13.7,0-27.7-0.3-41.5-1
		c-36.6-1.7-74.4-6.2-112.1-13.1c-36.1-6.9-72.1-16.2-106.9-27.7c-33.7-11.1-67.9-25-101.6-41.4l0.8,0.4
		c-30.9-15.3-61.3-32.5-90.2-51.4c-29-18.9-57.8-40.5-85.6-64.3c-26.4-22.8-51.6-47.4-75-73.1c-23.2-25.5-45.4-53.5-66.1-83.2
		c-20-29-38.4-59.6-54.7-90.8c-16.6-31.8-31.5-65.9-44.3-101.3l0.4,1.3c-12-33.8-22-68.7-29.7-103.7c-7.5-34.1-12.8-70-16-106.9
		l0-0.5c0,0,0-0.3-0.1-0.3l0,0l0,0c0,0-0.1-0.3-0.1-0.3c0,0,0,0,0,0c-2.7-36.4-3.2-73.5-1.4-110.4c1.8-36.1,6.3-73.4,13.2-110.7
		c7.1-36.9,16.7-73.6,28.6-109c10.6-31.7,23.8-64.1,39.2-96.1c15.5-31.8,33.3-63,52.8-92.7c18.8-28.8,40.4-57.4,64-85l-0.7,0.7
		L382,467c22.9-26.5,47.7-51.9,73.7-75.5c25.4-23.1,53.4-45.4,83.3-66.3l0.5-0.4l-0.5,0.3c0,0,0.3-0.2,0.3-0.2c0,0,0,0,0,0
		c0,0,0,0,0,0c0,0,0.4-0.2,0.4-0.2c0,0,0.3-0.2,0.3-0.2c28.7-19.8,58.6-37.8,89.1-53.7c31.2-16.3,64.7-31,99.6-43.8
		c33.3-11.9,67.6-21.9,102-29.5c34.9-7.8,71.8-13.4,109.8-16.6l-0.5,0l0.6,0v0l0.4,0L941.2,180.7L941.2,180.7L941.2,180.7
		L941.2,180.7z M233.8,1540.1l-0.1-0.1l-0.1-0.3c0.5,0.7,0.9,1.4,1.4,2.1c-0.3-0.4-0.6-0.8-0.9-1.3c0,0,0,0,0,0l0,0
		c-0.1-0.1-0.1-0.1-0.2-0.2L233.8,1540.1L233.8,1540.1C233.8,1540.1,233.8,1540.1,233.8,1540.1L233.8,1540.1L233.8,1540.1
		L233.8,1540.1z M838.6,1934l-0.2,0l-0.3-0.1c1.3,0.3,2.7,0.5,4,0.8c-1-0.2-2-0.4-3-0.6c0,0,0,0,0,0l0,0c-0.1,0-0.2,0-0.3-0.1l0,0
		l0,0C838.7,1934,838.6,1934,838.6,1934L838.6,1934L838.6,1934L838.6,1934z"/>
	<path style="fill:#161616;" d="M1515.8,845.4c-15.1,1.1-30,3.8-44.6,7.9c-13.6,3.9-26.8,9.1-39.4,15.4c-1.1,0.6-2.3,1.2-3.4,1.8
		c-9.7,5.1-19,10.9-27.9,17.4c-10.8,7.9-20.9,16.6-30.1,26.3c-9.3,9.6-17.6,20.1-25,31.2c-7.3,10.9-13.6,22.5-18.9,34.6
		c-5.7,13.1-10.2,26.6-13.3,40.5c-3.2,14.3-5,28.9-5.4,43.5c-0.5,14.9,0.8,29.9,3.3,44.7c2.3,14.1,6.2,27.9,11.3,41.2
		c5,13.1,11.2,25.8,18.5,37.8c7.3,11.9,15.7,23,25,33.4c9.3,10.4,19.7,19.7,30.8,28.2c21.7,16.8,46.8,29.3,73.1,37
		c13.9,4.1,28.3,6.7,42.8,8c13.6,1.3,27.4,1.3,41.1,0c12.4-1.2,24.8-3.3,36.9-6.5c11.8-3.1,23.3-7.3,34.5-12.3
		c21.6-9.6,41.5-22.8,59.1-38.6c38.5-34.6,64.3-82.8,71.6-134.1c2.2-15.3,2.9-30.7,2-46.1c-0.9-14.9-3.2-29.7-7-44.1
		c-3.8-14.4-9.1-28.4-15.7-41.8c-6.3-13-14-25.3-22.8-36.8c-9.1-11.9-19.3-23-30.6-32.9c-11.5-10.1-24.1-19.1-37.4-26.7
		c-12.7-7.3-26.2-13.2-40.1-17.9c-14.3-4.8-29-7.9-43.9-9.8c-9-1.2-18.1-1.7-27.2-1.7C1527.2,844.7,1521.5,844.9,1515.8,845.4
		L1515.8,845.4L1515.8,845.4z M1504.6,1277.4c-18.2-2.6-36.1-7.5-53.1-14.5c-16.4-7-32-16.1-46.3-26.9c-14.2-11.1-27.1-23.9-38.2-38
		c-11.1-14.5-20.3-30.2-27.4-46.9c-7.1-17-11.9-34.9-14.5-53.2c-2.4-18.7-2.4-37.6,0-56.1c2.6-18.3,7.5-36.2,14.5-53.2
		c7.1-16.6,16.3-32.3,27.4-46.8c11-14,23.6-26.7,37.7-37.7c11.3-8.6,23.5-16.2,36.1-22.4c3.5-1.8,7.1-3.4,10.4-4.8
		c17-7.1,35-11.9,53.4-14.5c9.3-1.2,18.7-1.8,28.1-1.8c9.2,0,18.5,0.6,27.6,1.7c18.2,2.6,36,7.4,53,14.4
		c16.6,7.1,32.4,16.2,46.9,27.3l0.5,0.4c14.1,11.1,26.8,23.9,37.8,37.9c10.7,14.1,19.7,29.5,26.7,45.6c7.2,17.2,12.2,35.4,14.9,54.1
		c2.3,18.5,2.3,37.3,0,55.7c-2.6,18.2-7.4,36.1-14.4,53.1c-7.1,16.5-16.2,32.2-27.1,46.7c-11.3,14.5-24.3,27.5-38.6,38.6
		c-14.1,10.7-29.5,19.7-45.7,26.7c-17.1,7.2-35.3,12.1-53.9,14.8c-9.2,1.2-18.6,1.8-27.9,1.8
		C1523.3,1279.2,1513.9,1278.6,1504.6,1277.4L1504.6,1277.4L1504.6,1277.4z"/>
	<path style="fill:#161616;" d="M1601.6,910.6l-66.2,82.4c0,0-0.1,0.1-0.1,0.1l0,0c-3.5,4.4-7,8.8-10.6,13.1
		c0.2,0.1,0.4,0.3,0.6,0.4c0.6,0.5,1.2,0.9,1.8,1.3c1,0.7,1.9,1.5,2.9,2.2c1.1,0.8,2.2,1.7,3.3,2.5c1.1,0.9,2.3,1.7,3.4,2.6
		c1.3-1.8,2.8-3.5,4.1-5.2c1.1-1.3,2.2-2.6,3.3-3.9c0.4-0.5,0.8-1,1.3-1.5c20.9-26,41.7-52.1,62.6-78.2c19,15.3,38.1,30.5,57.1,45.7
		c-17.9,22.4-35.8,44.9-53.8,67.3c-0.2,1.2-0.8,2.4-1.7,3.4c-2.9,3.2-5.8,6.4-8.7,9.6c-0.8,1-1.6,2-2.4,3c-1.5,2.2-2.9,4.4-4.1,6.8
		c-0.3,0.7-0.5,1.5-0.7,2.2c0,0.5,0,1,0,1.4c2.2,1.2,4.3,2.8,6.2,4.3c1.1,0.8,2.1,1.6,3.2,2.5c3-3.7,6-7.4,9-11.1l-0.1-0.1l0.8-1
		l0.8-1l22.3-27.7c14.9-18.5,29.8-37,44.7-55.5l1.2-1.5c0.7-1.1,1-2.4,1-3.7c0-1.7-0.7-4-2.2-5.2l-30.5-24.5l-15.3-12.3l-22.9-18.4
		l-1.5-1.2c-1.2-0.7-2.5-1-3.8-1C1605.2,908.4,1602.8,909.1,1601.6,910.6L1601.6,910.6L1601.6,910.6z"/>
	<path style="fill:#161616;" d="M1469.7,1074.5C1469.7,1074.6,1469.7,1074.6,1469.7,1074.5l-2.6,3.4l-5.1,6.4
		c-22.7,28.2-45.4,56.5-68.4,85.1l-1,1.3c-0.7,1.2-1,2.5-1,3.9c0,1.8,0.7,4.2,2.3,5.5l34.7,27.8l34.1,27.4l1.6,1.2
		c1.2,0.7,2.5,1,3.9,1c1.8,0,4.2-0.7,5.5-2.3l12.6-15.7c19.1-23.8,38.2-47.6,57.3-71.4l3.7-4.5c3.3-4.2,6.7-8.3,10-12.5
		c-0.4-0.3-0.8-0.6-1.3-1c0.1,0.1,0.3,0.2,0.4,0.3c-0.3-0.3-0.7-0.5-1-0.8c0,0,0,0,0,0c-0.4-0.3-0.7-0.5-1.1-0.8
		c-0.1,0-0.1-0.1-0.2-0.2c0.1,0,0.1,0.1,0.2,0.2c-0.9-0.7-1.9-1.5-2.8-2.2c0.1,0.1,0.2,0.1,0.2,0.2c0,0-0.1,0-0.1-0.1c0,0,0,0,0,0
		c0,0,0,0,0,0c0,0,0,0,0,0c-2-1.5-4-2.9-6-4.5c-0.7,1-1.5,2-2.3,3c-1.5,1.9-3,3.8-4.5,5.6c-1.3,1.7-2.7,3.3-4.1,4.9
		c-0.7,0.8-1.4,1.6-2,2.4c-0.4,0.4-0.7,0.8-1.1,1.3c-0.9,1-1.9,1.8-3,2.6c-0.2,0.2-0.5,0.3-0.7,0.4c-20.4,25.4-40.8,50.8-61.1,76.2
		c-18.9-15.1-37.7-30.3-56.6-45.4c22.3-27.8,44.6-55.6,66.9-83.5c1-2.2,2.7-4.2,4-6.1c1-1.4,2.1-2.8,3.1-4.1
		c1.7-2.3,3.5-4.5,5.2-6.7c-0.5-0.5-1.1-1-1.6-1.4c-1.4-1.3-2.9-2.6-4.3-3.9c-1.4-1.3-2.8-2.5-4-3.9c-0.2-0.3-0.5-0.5-0.7-0.8
		C1475.9,1066.8,1472.8,1070.7,1469.7,1074.5L1469.7,1074.5L1469.7,1074.5z"/>
	<path style="fill:#161616;" d="M1551.5,1126.8c-0.3-0.2-0.5-0.4-0.8-0.6C1551,1126.4,1551.2,1126.6,1551.5,1126.8L1551.5,1126.8
		L1551.5,1126.8z"/>
	<path style="fill:#161616;" d="M1551.6,1126.9C1551.6,1126.9,1551.6,1126.9,1551.6,1126.9
		C1551.6,1126.9,1551.6,1126.9,1551.6,1126.9L1551.6,1126.9L1551.6,1126.9L1551.6,1126.9z"/>
	<path style="fill:#161616;" d="M1551.6,1126.9C1551.6,1126.9,1551.6,1126.9,1551.6,1126.9
		C1551.6,1126.9,1551.6,1126.9,1551.6,1126.9L1551.6,1126.9L1551.6,1126.9z"/>
	<path style="fill:#161616;" d="M1551.6,1126.9C1551.6,1126.9,1551.6,1126.9,1551.6,1126.9
		C1551.6,1126.9,1551.6,1126.9,1551.6,1126.9C1551.6,1126.9,1551.6,1126.9,1551.6,1126.9L1551.6,1126.9L1551.6,1126.9z"/>
	<path style="fill:#161616;" d="M1551.8,1127.1C1551.8,1127.1,1551.8,1127.1,1551.8,1127.1c-0.1,0-0.1-0.1-0.2-0.2
		C1551.7,1127,1551.7,1127,1551.8,1127.1L1551.8,1127.1L1551.8,1127.1z"/>
	<path style="fill:#161616;" d="M1439.6,917.8l-29.5,33.1l-29.5,33.1c-1.6,1.8-2.3,3.5-2.3,5.6c0,2.1,0.9,4.3,2.3,5.6
		c29.2,26,58.4,52,87.7,78.2c1.5,1.3,3,2.7,4.5,4c2.6,2.3,5.3,4.7,7.9,7c0.1-0.2,0.3-0.4,0.4-0.5c1-1.4,2.1-2.8,3.1-4.1
		c1.7-2.3,3.5-4.5,5.2-6.7c-0.5-0.5-1.1-1-1.6-1.4c-1.4-1.3-2.9-2.6-4.3-3.9c-1.4-1.3-2.8-2.5-4-3.9c-0.8-0.9-1.3-1.8-1.6-2.9
		c-0.3-0.3-0.7-0.7-1-1c-0.2-0.3-0.4-0.5-0.6-0.7c-26.3-23.4-52.6-46.8-78.9-70.2c16.1-18.1,32.3-36.2,48.4-54.3
		c29.6,26.3,59.1,52.7,88.7,79c0.7,0.5,1.4,1,2.1,1.6c1.3-1.8,2.8-3.5,4.2-5.2c1.1-1.3,2.2-2.6,3.3-3.9c0.8-1,1.7-2,2.6-2.9
		c-3.8-3.4-7.6-6.8-11.5-10.2c0,0,0,0-0.1,0l0,0l-39.1-34.8l-30.8-27.4l-14.6-13c-1.7-1.5-3.5-2.3-5.6-2.3
		C1443.1,915.5,1440.9,916.4,1439.6,917.8L1439.6,917.8L1439.6,917.8z"/>
	<path style="fill:#161616;" d="M1600.8,1052.8c-0.5,0.6-1,1.2-1.5,1.8c-1.8,2.4-3.5,4.9-4.7,7.6c-0.3,0.7-0.5,1.5-0.7,2.2
		c0,0.5,0,1,0,1.4c2.2,1.2,4.3,2.8,6.2,4.3c1.2,0.9,2.4,1.8,3.5,2.8c1.3,1.1,2.6,2.2,3.9,3.4c1.8,1.6,3.6,3.2,3.9,5.6
		c11.3,10.1,22.6,20.1,33.9,30.2c12.6,11.3,25.3,22.5,38,33.8c-16.2,18.2-32.4,36.3-48.6,54.5c-25.2-22.4-50.3-44.7-75.5-67.1
		c-0.9-0.9-1.9-1.7-2.8-2.6c-0.2-0.2-0.5-0.4-0.7-0.5c0.2,0.1,0.4,0.3,0.5,0.5c-0.4-0.3-0.8-0.6-1.2-0.9c0.1,0.1,0.1,0.1,0.2,0.2
		c-0.3-0.3-0.7-0.5-1-0.8c-0.1-0.1-0.2-0.1-0.3-0.2c0.1,0,0.1,0.1,0.2,0.1c-0.9-0.7-1.8-1.5-2.8-2.2c0.1,0.1,0.3,0.2,0.5,0.3
		c-0.1-0.1-0.2-0.2-0.3-0.3c0,0,0,0,0,0c0,0-0.1-0.1-0.2-0.1c-2-1.4-3.9-2.9-5.9-4.4c-0.7,1-1.5,2-2.3,3c-1.5,1.9-3,3.8-4.5,5.6
		c-0.8,1-1.6,1.9-2.4,2.9c3.6,3.2,7.3,6.3,10.9,9.4l0.1-0.1l0.5,0.4l1,0.9l37.2,33.2c10.5,9.3,20.9,18.7,31.4,28l12.4,11.1
		c1.7,1.5,3.5,2.3,5.5,2.3c2.1,0,4.3-0.9,5.5-2.3l29.5-33.2l29.4-33c1.5-1.7,2.3-3.5,2.3-5.5c0-2.1-0.9-4.3-2.3-5.5l-23.9-21.3
		l-50.7-45.1l-13.1-11.8l0,0c-3.6-3.2-7.1-6.3-10.7-9.5C1601.3,1052.3,1601,1052.5,1600.8,1052.8L1600.8,1052.8L1600.8,1052.8z"/>
	<path style="fill:#161616;" d="M1551.6,1126.9C1551.6,1126.9,1551.6,1126.9,1551.6,1126.9
		C1551.6,1126.9,1551.6,1126.9,1551.6,1126.9L1551.6,1126.9L1551.6,1126.9L1551.6,1126.9z"/>
	<path style="fill:#161616;" d="M1551.9,1127.2c0.1,0.1,0.2,0.1,0.3,0.2c-0.2-0.2-0.4-0.3-0.6-0.5
		C1551.7,1127,1551.8,1127.1,1551.9,1127.2L1551.9,1127.2L1551.9,1127.2z"/>
	<path style="fill:#161616;" d="M1667.4,972.5c-0.6,0.2-1.3,0.3-1.8,0.7c-0.6,0.4-1.2,0.8-1.7,1.3c-0.7,0.8-1.3,1.6-2,2.3
		c-1.6,1.9-3.2,3.8-4.9,5.7c-3.4,3.8-7.1,7.4-10.6,11.2c-3.7,4.1-7.3,8.4-10.8,12.7c-3.7,4.5-7.3,9.1-10.9,13.7
		c-3.2,4.2-6.5,8.4-9.8,12.6c-7.2,8.9-15.1,17.2-22.6,25.8c-0.8,0.9-1.3,1.9-1.4,3.1c0,1.2,0.4,2.3,1.3,3.2c1.6,1.6,4.8,1.9,6.3,0.1
		c3.9-4.5,7.9-8.9,11.9-13.3c3.5-3.7,6.9-7.5,10.2-11.4c6.9-8.3,13.6-16.5,20.6-24.7c5.6-6.6,11.2-13.1,17.3-19.2
		c2.9-2.9,5.8-5.8,8.6-8.7c1.3-1.4,2.5-2.8,3.7-4.3c0.6-0.8,1.4-1.6,1.9-2.5c1-1.8,1.3-4.3,0.1-6.1c-0.4-0.8-1-1.4-1.8-1.9
		c-0.7-0.4-1.7-0.7-2.6-0.7C1668.1,972.3,1667.7,972.4,1667.4,972.5L1667.4,972.5L1667.4,972.5z"/>
	<path style="fill:#161616;" d="M1593.2,1060.4c-1.4,1.4-1.5,3.9-0.1,5.3c3.6,3.5,7.4,7,11.2,10.4c1.4,1.3,2.9,2.5,4.4,3.8
		c0.9,0.8,1.8,1.5,2.7,2.3c0.9,0.8,1.9,1.6,2.9,2.3c0.6,0.4,1.4,0.6,2.1,0.6c3.8,3.3,7.7,6.4,11.8,9.3c0.9,0.6,2.2,0.4,3-0.4
		c0.9-0.9,1-2.5,0-3.5c-3.5-3.3-7.2-6.4-10.8-9.5c0-1-0.4-2.2-1.1-2.8c-0.3-0.2-0.6-0.5-0.8-0.7c0,0,0,0,0,0
		c-1.6-1.2-3.3-2.4-4.9-3.7c-2.4-1.9-4.7-3.9-7-5.8c-1.1-0.9-2.1-1.9-3.1-2.9c-1.6-1.5-3.3-3.1-4.9-4.6c-0.8-0.7-1.8-1.1-2.7-1.1
		C1594.9,1059.4,1594,1059.7,1593.2,1060.4L1593.2,1060.4L1593.2,1060.4z"/>
	<path style="fill:#404040;" d="M1532.8,860.6c-9.4,0-18.9,0.6-28.1,1.8c-18.4,2.6-36.4,7.5-53.4,14.5c-3.4,1.4-6.9,3.1-10.4,4.8
		c-12.6,6.2-24.8,13.8-36.1,22.4c-14,11-26.7,23.7-37.7,37.7c-11,14.4-20.2,30.2-27.4,46.8c-7.1,17-11.9,34.9-14.5,53.2
		c-2.4,18.6-2.4,37.4,0,56.1c2.6,18.3,7.5,36.2,14.5,53.2c7.1,16.6,16.3,32.4,27.4,46.8c11.1,14.2,24,27,38.2,38
		c14.3,10.9,29.8,19.9,46.3,26.9c17,7,34.9,11.9,53.1,14.5c9.3,1.2,18.8,1.8,28.1,1.8c9.3,0,18.7-0.6,27.9-1.8
		c18.6-2.6,36.7-7.6,53.9-14.8c16.2-7,31.6-16,45.7-26.7c14.4-11.2,27.3-24.2,38.6-38.6c10.9-14.5,20.1-30.2,27.1-46.7
		c7-17,11.8-34.8,14.4-53.1c2.3-18.4,2.3-37.1,0-55.7c-2.6-18.6-7.6-36.8-14.8-54.1c-7-16.2-16-31.5-26.7-45.6
		c-11-14-23.7-26.8-37.8-37.9l-0.5-0.4c-14.5-11-30.3-20.2-46.9-27.3c-17-7-34.8-11.8-53-14.4C1551.3,861.2,1542,860.6,1532.8,860.6
		L1532.8,860.6L1532.8,860.6z M1535.3,993C1535.3,993,1535.3,993,1535.3,993l66.3-82.4c1.2-1.5,3.6-2.2,5.3-2.2c1.3,0,2.6,0.3,3.8,1
		l1.5,1.2l22.9,18.4l15.3,12.3l30.5,24.5c1.5,1.2,2.2,3.5,2.2,5.2c0,1.4-0.4,2.6-1,3.7l-1.2,1.5c-14.9,18.5-29.8,37-44.7,55.5
		l-22.3,27.7l-0.8,1l-0.8,1l13.1,11.8l50.7,45.1l23.9,21.3c1.4,1.2,2.3,3.4,2.3,5.5c0,2-0.7,3.8-2.3,5.5l-29.4,33l-29.5,33.2
		c-1.2,1.4-3.4,2.3-5.5,2.3c-2,0-3.8-0.7-5.5-2.3l-12.4-11.1c-10.5-9.3-21-18.7-31.4-28l-37.2-33.2l-1-0.9l-0.5-0.4l-4,4.9
		c-19.1,23.8-38.2,47.6-57.3,71.4l-12.6,15.7c-1.2,1.5-3.7,2.3-5.5,2.3c-1.4,0-2.7-0.4-3.9-1l-1.6-1.2l-34.1-27.4l-34.7-27.8
		c-1.6-1.2-2.3-3.7-2.3-5.5c0-1.4,0.4-2.7,1.1-3.9l1-1.3c22.9-28.6,45.6-56.8,68.4-85.1l5.1-6.4l2.7-3.3
		c-29.7-26.6-59.4-53-89.1-79.4c-1.4-1.2-2.3-3.4-2.3-5.6c0-2,0.7-3.8,2.3-5.6l29.5-33.1l29.5-33.1c1.2-1.4,3.4-2.3,5.6-2.3
		c2,0,3.8,0.8,5.6,2.3l14.6,13l30.8,27.4L1535.3,993L1535.3,993L1535.3,993L1535.3,993z"/>
</g>
</svg>
