<?xml version="1.0" encoding="utf-8"?>
<!-- Generator: Adobe Illustrator 22.1.0, SVG Export Plug-In . SVG Version: 6.00 Build 0)  -->
<svg version="1.1" id="Layer_1" xmlns="http://www.w3.org/2000/svg" xmlns:xlink="http://www.w3.org/1999/xlink" x="0px" y="0px"
	 viewBox="0 0 2000 2000" style="enable-background:new 0 0 2000 2000;" xml:space="preserve">
<path style="fill:#161616;" d="M1017,427.4c-5.3,0.2-10.6,0.5-16,0.7c-3,0.1-6,0.5-9.1,0.7c-6.2,0.6-12.4,1.3-18.6,2.3
	c-14,2.1-27.7,5.8-41.5,9.2c-4.8,1.2-9.5,2.4-14.2,3.8c-11.7,3.5-23.3,7.5-34.6,12.1c-11.1,4.6-22.1,9.6-32.7,15.2
	c-5.1,2.6-10.1,5.4-15,8.4c-5.4,3.2-10.9,6.6-16.1,10.3c-7.2,5.2-14.5,10.4-21.7,15.6c-2.8,2-5.5,4.3-8.2,6.5
	c-4.7,3.9-9.3,7.9-13.8,12c-8.7,8.1-17,16.7-24.8,25.6c-8,9.1-15.5,18.7-22.4,28.7c-6.6,9.6-12.2,19.9-17.4,30.4
	c-5.4,10.9-10,22.1-13.6,33.8c-3.6,11.9-6,24.2-7.3,36.5c-1.4,12.4-1.6,24.8-1.1,37.3c0.4,12.2,1.8,24.4,4,36.4
	c2.3,12,6,23.5,10.6,34.7c1.9,4.8,4.1,9.5,6.1,14.2c1.4,3.2,2.9,6.3,4.4,9.4c2.6,5.3,5.3,10.6,8.2,15.8c2.9,5,6.1,9.8,9.5,14.5
	c2.1,2.8,4.3,5.6,6.7,8.1c-0.2,0.2-0.4,0.3-0.6,0.5c-5.2,5-8.3,11.9-10.4,18.6c-2.1,6.7-3.2,13.8-3.1,20.8
	c0.1,7.7,1.4,15.4,6.3,21.6c4,5,9.5,8.2,15.3,10.7c1.2,0.6,2.5,1.1,3.8,1.5c0.7,0.3,1.5,0.5,2.3,0.7c0.1,0.5,0.2,1,0.2,1.5
	c0.3,5.4,0,10.7,0,16.1c0,9.3,0.7,18.6,2.8,27.7c4.3,19,13.5,36.3,24.5,52.1c4.8,6.9,9.8,13.7,15.2,20.2c2.7,3.2,5.3,6.6,8.2,9.7
	c3.2,3.4,6.4,6.9,9.6,10.3c3.1,3.3,6.5,6.3,9.7,9.5c2.9,2.8,6,5.5,9.1,8.2c6.3,5.6,12.9,10.9,19.6,16c6.5,4.9,13.3,9.5,20.2,13.8
	c7.1,4.3,14.3,8.4,21.8,12.1c7.4,3.7,14.9,7.4,22.5,10.7c3.9,1.7,7.8,3.5,11.8,5c4.1,1.6,8.2,3.2,12.3,4.7c7.8,3,15.8,5.2,23.8,7.5
	c4,1.2,8.2,2,12.3,3c4.2,1.1,8.6,1.8,12.9,2.6c8.5,1.8,17.2,2.9,25.9,4.1c8,1.1,16.1,1.8,24.1,2.3c8,0.5,16,1,24,1
	c8.6,0,17.3-0.1,25.9-0.8c0.1,0,0.2,0,0.3,0c0.1,0,0.1,0,0.2,0c0.2,0,0.3,0,0.5,0c-0.2,0-0.3,0-0.4,0c1.4-0.1,2.8-0.1,4.1-0.4
	c0.5,0,1.1-0.1,1.6-0.2c0.7-0.1,1.5-0.1,2.2-0.2c0.7,0,1.3,0,2-0.2c0.9-0.1,1.9-0.2,2.8-0.2c-0.3,0-0.7,0.1-1,0.1
	c0.3,0,0.7-0.1,1-0.1c-0.1,0-0.2,0-0.3,0c6.1-0.5,12.3-1.3,18.4-2.3c3.8-0.6,7.5-1.3,11.3-2c3.1-0.5,6.3-1.4,9.4-2.1
	c6.4-1.5,12.7-3.2,19.1-5c2.3-0.6,4.6-1.4,6.9-2.1c3.4-1.1,6.9-2.1,10.2-3.3c0.2-0.1,0.4-0.1,0.6-0.2c0,0,0,0,0,0
	c0.1,0,0.2-0.1,0.4-0.1c-0.1,0-0.1,0.1-0.2,0.1c1.2-0.4,2.5-0.8,3.6-1.3c1.6-0.6,3.1-1.1,4.7-1.7c0.6-0.1,1.2-0.4,1.8-0.7
	c0.1,0,0.1,0,0.2-0.1c0.1-0.1,0.3-0.1,0.4-0.2c-0.1,0-0.2,0.1-0.3,0.1c7.1-2.7,14-5.6,20.7-9.1c5.7-2.9,11.3-5.9,16.7-9.2
	c7-4.3,13.6-9.3,20.1-14.3c6.5-5,13-10.1,19.1-15.6c6.2-5.5,12.4-11,18-17.1c4-4.3,7.8-8.6,11.6-13c1.7-2,3.5-4,5.1-6.1
	c1.8-2.2,3.6-4.4,5.3-6.7c1.8-2.5,3.6-5,5.3-7.5c1.7-2.4,3.1-4.9,4.6-7.4c1.1-1.8,2.1-3.7,3.1-5.5c1.4-2.7,2.9-5.3,4.3-8.1
	c-0.1,0.2-0.2,0.4-0.3,0.6c0.1-0.1,0.1-0.2,0.2-0.3c-0.1,0.3-0.2,0.5-0.4,0.8c0.1-0.3,0.3-0.6,0.4-0.9c0.7-1.3,1.4-2.7,2-4.1
	c0.1-0.1,0.1-0.3,0.2-0.4c0.1-0.3,0.3-0.5,0.4-0.8c0.3-0.6,0.6-1.3,0.8-1.9c0.5-0.9,0.9-1.9,1.3-2.8c-0.3,0.6-0.6,1.2-0.9,1.8
	c0.4-0.8,0.8-1.6,1.2-2.4c-0.2,0.4-0.4,0.7-0.5,1.1c1.8-3.9,3.4-7.8,5.1-11.8c1.5-3.4,2.8-6.9,4.1-10.4c3.1-8.2,6.1-16.4,9-24.7
	c5.4-15.4,9.6-31.1,12.3-47.2c0.5-2.8,0.6-5.7,0.8-8.5c1.5-0.4,3-0.8,4.5-1.2c2-0.6,4-1.2,5.9-1.9c3.9-1.3,7.6-2.6,11.1-4.7
	c5.3-3.1,9.5-7.5,13.1-12.4c3.4-4.6,5.9-10.1,7.7-15.5c0.9-2.9,1.4-5.9,1.9-8.9c0.5-3.3,0.3-6.5,0-9.9c-0.5-5.6-2.8-11.1-5.4-16
	c-0.8-1.5-1.6-2.9-2.5-4.3c3.3-4.5,6.2-9.4,9.1-14.2c4.2-7,8.1-14.4,11.2-22c0.8-1.9,1.6-3.7,2.2-5.6c0.7-2.2,1.5-4.5,2.2-6.7
	c0.7-2.1,1.1-4.4,1.7-6.6c0.6-2.2,0.9-4.5,1.3-6.8c0.3-1.7,0.8-3.5,0.9-5.2c0.3-2.6,0.6-5.3,0.8-7.9c0.2-1.5,0.2-3,0.2-4.5
	c0.1-2.1,0.3-4.3,0.2-6.4c-0.2-4.5-0.2-8.9-0.7-13.4c-0.4-4-0.7-8.1-1.4-12.1c-0.7-4-1.2-8-2.2-11.9c-1-4-1.8-8-3-11.9
	c-1.5-4.7-2.8-9.4-4.5-14c-1.6-4.4-3.3-8.8-4.9-13.2c-1.4-3.8-3.2-7.6-4.7-11.4c-1.4-3.4-3-6.7-4.5-10c-1.6-3.3-3.1-6.7-4.9-10
	c-2.2-4.1-4.5-8.2-6.7-12.3c-0.8-1.4-1.7-2.7-2.6-4c-1.6-2.5-3.3-5.1-4.9-7.6c-2.2-3.4-4.5-6.6-6.9-9.8c-2.2-3-4.3-6.1-6.7-9
	c-3.3-4-6.5-8-9.8-12c-2.4-3-5.1-5.7-7.6-8.6c-2.3-2.6-4.6-5.3-7-7.7c-5.8-5.9-11.4-12-17.5-17.5c-4-3.7-8-7.3-12-11
	c-2.9-2.6-6.1-5-9.1-7.5c-2.9-2.4-5.8-4.9-8.8-7.1c-3.9-2.9-7.8-5.8-11.6-8.7c-3.2-2.4-6.4-4.8-9.6-7.2c-3.3-2.4-6.8-4.6-10.1-6.8
	c-3.8-2.5-7.5-5.1-11.3-7.6c-0.8-0.5-1.6-0.9-2.4-1.4c-2.5-1.4-4.9-2.9-7.3-4.3c-3.6-2.2-7.3-4.3-10.9-6.5c-3.3-2-6.9-3.6-10.3-5.4
	c-4.7-2.5-9.5-5-14.3-7.5c-2.6-1.4-5.3-2.6-8-3.8c-5.4-2.5-10.8-5-16.2-7.4c-2.4-1.1-4.8-2.3-7.2-3.2c-5.1-1.9-10.2-3.8-15.3-5.7
	c-2.9-1.1-5.8-2.4-8.8-3.3c-5-1.5-10.1-3-15.1-4.6c-2.9-0.9-5.7-1.8-8.6-2.5c-5.3-1.2-10.6-2.4-15.9-3.6c-6-1.4-11.9-2.6-18-3.7
	c-12.3-2.2-24.6-3.6-37-4.3c-4.6-0.3-9.3-0.3-13.9-0.4c-4.8-0.1-9.6-0.2-14.4-0.3c-0.3,0-0.7,0-1,0
	C1023.1,426.9,1020,427.2,1017,427.4L1017,427.4L1017,427.4z M1015.6,442.8c4.5-0.2,9-0.5,13.6-0.4c7.2,0.2,14.4,0.3,21.5,0.5
	c13.6,0.3,27.2,2,40.5,4.4c10.4,1.9,20.6,4.4,30.9,6.8c3.2,0.7,6.3,1.9,9.4,2.8c4.7,1.4,9.5,2.9,14.2,4.3c3.3,1,6.5,2.4,9.8,3.6
	c4.8,1.8,9.7,3.6,14.5,5.4c2.7,1,5.3,2.4,7.9,3.6c5.3,2.5,10.7,4.9,16,7.3c0.8,0.4,1.6,0.7,2.4,1.1c8.1,4.3,16.2,8.5,24.3,12.8
	c2.5,1.3,4.8,2.8,7.2,4.2c4.6,2.7,9.2,5.4,13.7,8.1c2.5,1.5,5,3.3,7.4,4.9c4.5,3.1,9.1,6.1,13.6,9.2c2.2,1.5,4.3,3.1,6.4,4.7
	c4.6,3.4,9.2,6.9,13.8,10.3c5.8,4.4,11.4,9.1,17.1,13.6c2.9,2.7,5.9,5.4,8.8,8.1c2.3,2.2,4.7,4.2,7,6.5c5.8,5.9,11.7,11.6,17.2,17.7
	c3.4,3.9,6.9,7.7,10.4,11.5c2.5,2.8,4.7,5.7,7,8.6c2.1,2.6,4.3,5.2,6.3,7.9c2.5,3.4,5,6.9,7.5,10.3c1.8,2.8,3.6,5.6,5.3,8.3
	c1.4,2.1,2.8,4.2,4,6.5c2.1,3.8,4.2,7.6,6.3,11.5c1.2,2.2,2.3,4.5,3.4,6.8c1.4,3.1,3,6.1,4.4,9.2c1.5,3.5,3,7.1,4.5,10.7
	c2.1,5.1,4,10.4,6,15.6c1.3,4.2,2.7,8.5,4,12.7c0.5,1.5,0.8,3,1.2,4.5c0.6,2.6,1.3,5.3,2,7.9c0.3,1.3,0.5,2.7,0.7,4
	c0.5,2.7,0.9,5.3,1.4,8c0.3,1.7,0.4,3.4,0.6,5c0.2,1.7,0.4,3.5,0.6,5.3c0.1,3.2,0.3,6.4,0.4,9.6c0.1,3.3-0.2,6.6-0.3,9.8
	c-0.1,3.1-0.6,6.2-1,9.2c-0.3,2.9-1,5.9-1.6,8.8c0.1-0.7,0.2-1.4,0.4-2c-0.6,2.5-1.3,5-1.9,7.5c-0.6,2.4-1.5,4.7-2.3,7.1
	c-1.3,4-3.2,7.9-5,11.7c-2.7,5.3-5.6,10.5-8.7,15.6c-1.5,2.5-3.1,4.9-4.7,7.3c-2.1-1.9-4.3-3.7-6.4-5.5c-2.7-2.4-5.5-4.8-8.2-7.2
	c-6.6-5.6-13.1-11.2-19.9-16.6c-8.6-6.8-17.3-13.6-25.9-20.5c-9-7.2-17.9-14.5-26.8-21.8c-5.5-4.7-11-9.4-16.3-14.3
	c-3.8-3.5-7.5-6.9-11.3-10.4c-2.7-2.5-5.2-5.2-7.9-7.8c-2.9-2.9-5.9-5.6-8.7-8.6c-3-3.2-6-6.4-9-9.6c-2.6-2.8-5.5-5.6-8-8.6
	c-3-3.6-6-7.1-9-10.7c-2.4-2.9-4.9-5.8-7.2-8.8c-3.1-4-6.1-8.1-9.2-12.1c-4.1-6-8.2-12-12.1-18.1c-4.9-7.8-9.9-15.7-14.8-23.5
	c-4.3-6.9-8.7-13.7-13.2-20.5c-4.7-7.1-9.9-13.9-15-20.7c-1-1.3-2-2.5-3.1-3.8c-1.4-1.7-3.2-3.3-5.3-4.1c-0.9-0.4-1.9-0.6-2.9-0.7
	c-1.3-0.1-3.7,0.4-4.9,1.1c-0.8,0.6-1.7,1.1-2.5,1.7c-0.9,0.9-1.7,1.9-2.5,2.9c-1.2,1.6-2.1,3.3-3,5c-2.3,3.9-4.6,7.8-7.4,11.3
	c-3,3.3-6.3,6.2-9.8,8.9c-6.4,4.3-13.3,7.5-20.5,10.3c-9,3.3-18.4,6.1-27.7,8.1c-5.1,1.1-10.2,2.2-15.2,3.3
	c-7.6,1.6-15.2,2.8-22.8,4.2c-7.9,1.5-15.9,2.6-23.8,4.2c-8.5,1.7-17,3.4-25.6,5.1c-4.1,0.8-8.1,2-12.1,3.1c-4,1-8.1,2.1-12.1,3.1
	c-2.8,0.7-5.6,1.7-8.4,2.5c-2.8,0.9-5.6,1.8-8.3,2.8c-6,2.1-12,4.4-17.9,6.8c-11,4.5-21.7,9.7-32.1,15.5
	c-10.3,5.7-20.2,12.2-29.7,19.1c-9.1,6.7-17.5,14.3-25,22.7c-8.1,9-15.1,18.9-21.2,29.4c-3.8,6.5-7,13.2-10.2,20
	c-1.5,3.3-3.1,6.6-4.4,10c-1.4,3.8-3,7.5-4.2,11.4c-2.3,7.6-4.6,15.1-6.7,22.8c-4.2,15.1-8.2,30.4-14.7,44.7
	c-0.2,0.3-0.3,0.6-0.5,0.9c-4.2-3-9.1-5.2-14.2-5.5c-0.8,0-1.6,0-2.4,0c-4.1-3.9-7.7-8.2-11-12.8c-4-5.8-7.6-11.9-10.8-18.3
	c-2.1-4.2-4.1-8.3-6.2-12.5c-1.6-3.2-2.9-6.5-4.3-9.8c-2.2-5.1-4.4-10.2-6.4-15.3c-5.3-14.8-8.2-30.4-9.7-46
	c-1.6-20.3-1.2-40.8,2.3-60.9c3.1-16.3,8.3-32,15.3-47.1c4.7-9.7,9.8-19.3,15.5-28.4c6.2-9.7,13.2-18.9,20.6-27.7
	c7.6-8.9,15.6-17.4,24.1-25.5c4.4-4.2,9-8.3,13.7-12.2c3.6-3.1,7.3-6.2,11.2-9c6.9-5,13.9-10,20.8-14.9c11-7.3,22.4-13.9,34.2-19.8
	c12.1-6.1,24.5-11.6,37.2-16.4c5.6-2.1,11.3-3.9,17.1-5.7c3.5-1.1,7-2.2,10.6-3.1c5.5-1.4,11-2.8,16.4-4.2
	c5.1-1.3,10.1-2.6,15.2-3.7c12.4-2.7,25-4.6,37.6-5.8C1003,443.2,1009.3,443,1015.6,442.8L1015.6,442.8L1015.6,442.8z M1091.6,447.3
	c0.5,0.1,1,0.2,1.5,0.3C1092.6,447.5,1092.1,447.4,1091.6,447.3L1091.6,447.3L1091.6,447.3z M901,465.6c-0.4,0.1-0.8,0.3-1.1,0.4
	C900.2,465.9,900.6,465.8,901,465.6L901,465.6L901,465.6z M899.6,466.2c-0.2,0.1-0.3,0.1-0.5,0.2
	C899.3,466.3,899.4,466.2,899.6,466.2L899.6,466.2L899.6,466.2z M958.6,654.1c5.4-1.4,10.9-2.7,16.3-4.1c8.1-2,16.3-3.6,24.4-5.2
	c16.2-3.2,32.6-5.9,48.8-8.8c4.4-0.8,8.7-1.8,13-2.8c8.1-1.7,16.1-3.7,24.1-6.1c13.1-4,26.1-8.9,37.3-16.9c5.4-3.9,10-8.4,14-13.6
	c1.9-2.5,3.6-5.1,5.1-7.8c0.4-0.8,0.9-1.6,1.3-2.4c0.1,0.2,0.2,0.3,0.4,0.5c1.4,1.8,2.8,3.6,4.1,5.5c2.5,3.4,4.9,6.8,7.4,10.2
	c9.3,14,18.1,28.3,27.1,42.5c4.6,7.2,9.4,14.2,14.2,21.3c2.3,3.4,4.9,6.6,7.4,9.9c2.1,2.8,4.2,5.7,6.5,8.4
	c5.3,6.3,10.4,12.7,16,18.7c5.7,6.1,11.3,12.4,17.2,18.3c4,3.9,7.9,7.9,11.9,11.8c2.3,2.3,4.8,4.5,7.3,6.8
	c6.7,6.1,13.5,12.1,20.3,18c11.1,9.7,22.7,19,34.3,28.1c5.5,4.4,11,8.7,16.5,13c6,4.7,11.9,9.6,17.8,14.4c4.3,3.7,8.6,7.4,12.9,11.2
	c5.5,4.8,11.3,9.4,15.7,15.3c2,3.1,3.7,6.3,5.1,9.7c0.7,2.2,1.2,4.4,1.5,6.7c0,2.2-0.1,4.4-0.4,6.6c-0.7,3.3-1.8,6.5-3.2,9.7
	c-1.6,3.1-3.4,5.9-5.5,8.6c-1.5,1.6-3.2,3.1-4.9,4.5c-2.2,1.3-4.4,2.4-6.7,3.3c-2.2,0.7-4.5,1.5-6.7,2.2c-1.5,0.4-3.1,0.8-4.6,1.2
	c-3.6,1-8.2,2-10.4,5.4c-1,1.6-1.7,3.2-1.8,5.1c-0.1,0.9-0.1,1.7-0.1,2.6c0,1.2-0.1,2.4-0.2,3.6c-0.2,2.7-0.5,5.3-0.9,8
	c-2.8,14.5-6.9,28.6-11.7,42.5c-2.7,7.9-5.6,15.7-8.5,23.5c-1.3,3.5-2.7,6.9-4.1,10.3c-0.7,1.9-1.6,3.7-2.4,5.6
	c-0.7,1.6-1.3,3.3-2.1,5c0.3-0.6,0.6-1.2,0.9-1.8c-0.1,0.3-0.3,0.6-0.4,0.9c0.1-0.1,0.1-0.3,0.2-0.4c-0.6,1.2-1.2,2.5-1.8,3.7
	c-0.3,0.5-0.5,1.1-0.8,1.6c-0.3,0.5-0.6,1-0.7,1.6c-0.1,0.3-0.2,0.5-0.4,0.8c-0.3,0.6-0.6,1.3-0.9,2c0,0,0-0.1,0.1-0.1
	c-1.8,3.3-3.6,6.7-5.3,10c-1.7,3.1-3.7,6.1-5.6,9.2c-1.8,2.9-3.9,5.6-5.9,8.4c-2,2.8-4.2,5.4-6.3,8c-7.9,9.2-15.9,18.2-24.9,26.3
	c-11.5,10.3-23.3,20.1-35.9,29c-4.9,3.4-10.1,6.6-15.4,9.3c-3.5,1.8-6.9,3.6-10.4,5.4c-2,1.1-4.2,1.9-6.3,2.8
	c-2.7,1.2-5.4,2.5-8.1,3.5c-1.2,0.4-2.4,0.8-3.6,1.3c-1.6,0.6-3.1,1.1-4.7,1.7c-0.6,0.1-1.2,0.4-1.8,0.7c0,0,0,0,0,0
	c0.3-0.1,0.6-0.2,1-0.4c-0.3,0.1-0.7,0.2-1,0.4c0,0,0,0,0,0c0,0,0,0-0.1,0c-0.2,0.1-0.4,0.1-0.5,0.2c0.1,0,0.1,0,0.2-0.1
	c-0.6,0.2-1.3,0.5-1.9,0.7c0.2-0.1,0.3-0.1,0.5-0.2c-11.6,3.8-23.3,7.3-35.3,10c-3.1,0.7-6.1,1.4-9.2,2.1c-3.4,0.7-6.8,1.2-10.2,1.8
	c-5.8,1-11.6,1.6-17.4,2.3c-1.3,0.1-2.6,0.1-3.9,0.3c-0.6,0-1.1,0.1-1.7,0.2c-0.7,0.1-1.5,0.1-2.2,0.2c-0.7,0-1.3,0-2,0.2
	c-1,0.1-1.9,0.2-2.9,0.3c0,0-0.1,0-0.1,0c-4.2,0.3-8.4,0.3-12.6,0.5c-2.7,0.1-5.4,0.1-8.1,0.1c-1.2,0-2.4,0-3.6,0
	c-7.8,0-15.5-0.4-23.2-0.9c-7.6-0.5-15.3-1.1-22.9-2.1c-4-0.5-8-0.9-12-1.6c-4-0.7-8-1.3-12-2c-3.9-0.8-7.8-1.6-11.7-2.4
	c-3.8-0.8-7.6-1.9-11.4-2.8c-7.4-1.8-14.7-4.2-21.9-6.7c-6.9-2.3-13.6-5-20.3-7.8c-3.3-1.4-6.6-2.8-9.8-4.3
	c-3.6-1.7-7.2-3.4-10.9-5.1c-5.4-2.7-10.7-5.4-16-8.3c-2.4-1.3-4.9-2.7-7.3-4.1c-2.8-1.7-5.6-3.3-8.4-5.1c-3.2-2.2-6.5-4.4-9.7-6.5
	c-2.4-1.6-4.6-3.4-6.9-5.1c-4.9-3.6-9.5-7.5-14.2-11.3c-3.9-3.5-7.9-6.9-11.7-10.6c-2.8-2.7-5.6-5.5-8.4-8.2
	c-1.8-1.8-3.5-3.7-5.2-5.6c-1.8-2-3.8-3.9-5.5-5.9c-2.4-2.9-4.8-5.8-7.3-8.6c-3.6-4.4-7-8.9-10.5-13.4c-2.1-3.1-4.3-6.2-6.4-9.3
	c-3.1-4.5-5.8-9.4-8.4-14.3c-2.6-4.9-5-10-7-15.2c-3.1-8.6-5.3-17.5-6.2-26.6c-0.5-7.2-0.2-14.5-0.2-21.7c0-7.8-0.2-18-8.9-21.3
	c-1.6-0.6-3.3-0.9-4.9-1.5c-1.2-0.4-2.3-0.9-3.5-1.4c-2-1-4-2.2-5.8-3.5c-0.8-0.8-1.6-1.5-2.3-2.4c-0.5-0.8-1-1.7-1.4-2.6
	c-0.5-1.8-0.9-3.5-1.1-5.3c-0.3-4.5-0.1-8.9,0.6-13.3c0.9-4.4,2.2-8.8,4-12.9c0.9-1.7,1.9-3.4,3.1-5c0.8-0.9,1.7-1.7,2.6-2.4
	c0,0,0,0,0,0c2.4,1.6,5.1,2.8,7.8,3.9c2.6,1,5.6,1.5,8.4,1.7c1.1,1.1,2.1,2.3,3,3.5c1.3,2,2.6,4.1,3.9,6.1c1.1,1.7,2.4,3.1,4.4,3.7
	c1.9,0.6,4.1,0.5,5.9-0.5c3.5-1.8,5.4-6.8,3.2-10.3c-1.4-2.3-2.9-4.7-4.4-6.9c-0.4-0.6-0.9-1.2-1.3-1.8c0.4-0.4,0.7-0.9,1.1-1.3
	c1.2-1.6,2-3.7,2.8-5.5c0.9-2,1.8-4,2.7-6.1c1.6-3.8,2.8-7.7,4.2-11.6c2.6-7.7,4.7-15.5,6.8-23.3c2.3-8.2,4.7-16.4,7.1-24.6
	c1.6-5.2,3.6-10.2,5.5-15.3c0.9-2.3,2.1-4.5,3.1-6.8c1-2.2,2-4.4,3-6.6c6.4-12.6,13.9-24.6,22.9-35.5c4.4-5.1,9.1-9.9,14.1-14.4
	c5.4-4.9,11.3-9.4,17.3-13.6c19.8-13.6,41.4-24.5,63.9-32.9C943.1,658.7,950.8,656.1,958.6,654.1L958.6,654.1L958.6,654.1z
	 M707.2,667.2c-0.1,0.5-0.2,0.9-0.3,1.4C707,668.2,707.1,667.7,707.2,667.2L707.2,667.2L707.2,667.2z M1397.8,689.9
	c0.2,0.4,0.3,0.8,0.5,1.3C1398.1,690.7,1398,690.3,1397.8,689.9L1397.8,689.9L1397.8,689.9z M1350,812.7c0.3,0.3,0.6,0.5,0.9,0.8
	C1350.6,813.2,1350.3,813,1350,812.7L1350,812.7L1350,812.7z M770.9,846.2c-0.1,0.2-0.2,0.4-0.3,0.5
	C770.7,846.6,770.8,846.4,770.9,846.2L770.9,846.2L770.9,846.2z M1341.3,916.1c0,0.3-0.1,0.5-0.1,0.8
	C1341.2,916.7,1341.2,916.4,1341.3,916.1L1341.3,916.1L1341.3,916.1z M751.1,922.1c0.2,0.3,0.4,0.5,0.6,0.8
	C751.5,922.6,751.3,922.3,751.1,922.1L751.1,922.1L751.1,922.1z M1308.4,1012.3c-0.1,0.3-0.3,0.6-0.4,0.8c0,0,0-0.1,0.1-0.1
	c0.1-0.1,0.1-0.3,0.2-0.4C1308.3,1012.5,1308.4,1012.4,1308.4,1012.3L1308.4,1012.3L1308.4,1012.3z M1308.1,1012.9
	c-0.1,0.2-0.2,0.3-0.2,0.5C1308,1013.2,1308.1,1013,1308.1,1012.9L1308.1,1012.9L1308.1,1012.9z M1308,1013.2
	c-0.1,0.3-0.3,0.6-0.4,0.9c0.1-0.2,0.2-0.4,0.3-0.7C1307.9,1013.3,1308,1013.3,1308,1013.2L1308,1013.2L1308,1013.2z M1102.1,1144.9
	c-0.5,0.1-1,0.1-1.6,0.1c0,0,0,0,0,0c0,0,0,0-0.1,0c-0.1,0-0.2,0-0.3,0c0.1,0,0.2,0,0.2,0c0,0-0.1,0-0.1,0c0.5,0,1.1-0.1,1.6-0.1
	c-0.2,0-0.5,0-0.7,0.1C1101.5,1145,1101.8,1145,1102.1,1144.9L1102.1,1144.9L1102.1,1144.9z M1100.1,1145.1
	C1100,1145.1,1100,1145.1,1100.1,1145.1c-0.1,0-0.2,0-0.3,0C1099.9,1145.1,1100,1145.1,1100.1,1145.1L1100.1,1145.1L1100.1,1145.1z
	 M1090.3,1146C1090.3,1146,1090.2,1146,1090.3,1146c-0.2,0-0.5,0-0.7,0.1C1089.8,1146,1090,1146,1090.3,1146L1090.3,1146
	L1090.3,1146z M1088.7,1161.4c-0.2,0-0.3,0-0.5,0c-0.4,0-0.7,0.1-1.1,0.1C1087.7,1161.5,1088.2,1161.5,1088.7,1161.4
	C1088.8,1161.4,1088.7,1161.4,1088.7,1161.4L1088.7,1161.4L1088.7,1161.4z M1101.6,1160.3c0.3,0,0.5,0,0.8-0.1
	C1102.1,1160.3,1101.8,1160.3,1101.6,1160.3c0.3,0,0.6,0,0.9-0.1c0.3,0,0.6,0,0.8-0.1C1102.8,1160.2,1102.2,1160.3,1101.6,1160.3
	L1101.6,1160.3L1101.6,1160.3z M1100.3,1145.1c0,0,0.1,0,0.1,0c0.2,0,0.5,0,0.7-0.1C1100.9,1145,1100.6,1145.1,1100.3,1145.1
	L1100.3,1145.1L1100.3,1145.1z M1177.2,1143.3c-0.2,0.1-0.4,0.1-0.6,0.2c-0.3,0.1-0.6,0.2-0.9,0.3c0.6-0.2,1.1-0.4,1.7-0.6
	C1177.3,1143.3,1177.2,1143.3,1177.2,1143.3L1177.2,1143.3L1177.2,1143.3z M1173.7,1128.4c0.1,0,0.2-0.1,0.3-0.1c0,0,0,0,0.1,0
	c0,0,0,0,0,0C1174,1128.3,1173.8,1128.3,1173.7,1128.4L1173.7,1128.4L1173.7,1128.4z M1312,1004.9c0.2-0.5,0.4-0.9,0.7-1.4
	C1312.4,1004,1312.2,1004.4,1312,1004.9L1312,1004.9L1312,1004.9z"/>
<path style="fill:#161616;" d="M1090.9,319.5c-5.7,0-11.5,0.5-17.2,1.2c-5.9,0.7-11.6,2.2-17.2,3.9c-5.7,1.7-11.3,3.7-16.9,5.8
	c-5.3,2-10.4,4.5-15.1,7.7c-4.9,3.4-9.4,7.3-13.7,11.5c-4.3,4.1-8.2,8.7-11,14c-2.9,5.3-4.8,10.8-5.8,16.7
	c-1.1,6.2-1.5,12.5-1.6,18.8c-0.3,12.1,1.8,24.2,3.9,36.1c0.7,3.9,5,6.3,8.6,5.4c4-0.9,6.1-4.8,5.4-8.6c-1.2-7.3-2.5-14.7-3.2-22.1
	c-0.6-8.7-0.3-17.6,1-26.1c0.8-3.7,1.9-7.3,3.4-10.8c1.5-3,3.3-5.7,5.4-8.3c4.6-5.1,9.8-9.8,15.3-13.8c4.6-3.1,9.6-5.4,14.8-7.3
	c10.9-3.9,21.9-7.2,33.4-8.5c11.9-0.9,24-0.5,35.8,1.4c9,1.8,17.8,4.4,26.5,7.2c8.4,2.8,16.5,6.2,24.4,9.9
	c6.8,3.3,13.6,6.8,20.2,10.5c6.5,3.7,12.7,7.7,18.5,12.5c4.8,4.2,9.5,8.7,13.8,13.4c2.3,2.5,4.6,5,6.8,7.6c2.1,2.6,4.3,5,6.3,7.7
	c2,2.7,4,5.4,6,8.1c3.8,5.7,7.7,11.4,11.1,17.3c1.9,3.4,3.8,6.8,5.5,10.3c0.7,1.4,1.5,2.9,2.1,4.4c0.7,1.8,1.4,3.6,2.1,5.4
	c1.8,5.4,3.1,10.8,3.7,16.4c0-0.3-0.1-0.7-0.1-1c0.2,2.3,0.4,4.6,0.5,7c0.1,3.6-0.3,7-0.9,10.5c-1,4.5-2.7,8.8-4.6,13
	c-1.8,3.5-3.8,6.8-5.7,10.2c-1.6,2.9-1.6,6.4,0.7,9c1.3,1.4,3.2,2.3,5.1,2.4c1.8,0.1,4.1-0.5,5.3-1.9c1.5-1.8,3.1-3.5,4.3-5.6
	c1-1.6,1.8-3.2,2.7-4.8c2-3.8,3.7-7.8,5.2-11.8c1.3-3.5,1.9-7.2,2.5-10.9c0.6-4,0.8-7.9,0.6-11.9c-0.3-7.4-1.4-14.8-3.6-21.8
	c-1.5-4.9-3.4-9.8-5.7-14.4c-1.9-4-4-7.7-6.2-11.6c-0.8-1.5-1.8-2.9-2.7-4.4c-1-1.7-2-3.4-3-5c-2.5-3.7-4.8-7.4-7.5-11
	c-4.8-6.5-9.7-13-15.1-19c-4.7-5.2-9.3-10.2-14.5-14.9c-4.2-3.8-8.5-7.5-13.2-10.8c-4.9-3.5-10.2-6.4-15.5-9.4
	c-10.3-5.7-20.9-10.8-31.7-15.3c-10.7-4.4-21.8-7.8-33-10.5c-11.4-2.8-22.9-3.9-34.6-3.9C1091.9,319.5,1091.4,319.5,1090.9,319.5
	L1090.9,319.5L1090.9,319.5z M1007,410.4c0,0.2,0,0.4,0,0.5C1007,410.7,1007,410.5,1007,410.4L1007,410.4L1007,410.4z"/>
<path style="fill:#161616;" d="M899,843.3c-3,2.5-4.8,5.9-6.2,9.5c-0.6,1.4-0.9,2.9-1.2,4.3c-0.5,2.5-0.8,4.9-0.7,7.4
	c0.1,3.8,0.7,7.6,2.6,10.9c1.7,2.9,4.3,5.4,7.4,6.9c2.4,1.1,4.5,1.7,7.2,1.4c2.3-0.3,4.7-1.4,6.5-3c1.4-1.2,2.5-2.5,3.6-3.9
	c1.2-1.6,2-3.8,2.8-5.6c0.9-2.2,1.4-4.8,1.7-7.1c0.2-2,0.1-4-0.2-6c-0.1-0.9-0.5-1.8-1-2.6c-0.2-1.7-0.6-3.5-1.2-5.2
	c-1.4-4.5-4.3-8.5-9-9.8c-1.1-0.3-2.2-0.4-3.3-0.4C904.7,840.1,901.4,841.2,899,843.3L899,843.3L899,843.3z"/>
<path style="fill:#161616;" d="M1079.6,890c-2,0.4-3.4,1.6-4.5,3.2c-0.7,0.9-1.4,1.8-2.2,2.7c-1.4,1.4-2.8,2.7-4.3,3.9
	c-1.2,0.8-2.5,1.5-3.8,2c-1.2,0.3-2.3,0.5-3.5,0.7c-3.3,0.2-6.6,0-9.8-0.4c-2.4-0.5-4.7-1.3-6.9-2.2c-1.3-0.7-2.6-1.5-3.8-2.4
	c-1.4-1.3-2.8-2.6-4-4.1c-2.8-3.2-7.8-3.3-10.9-0.5c-3.2,2.9-3.3,7.7-0.5,10.9c2.1,2.5,4.6,4.6,7.1,6.7c2.5,2.1,5.7,3.4,8.7,4.7
	c5.8,2.4,12.4,3.1,18.6,2.9c3.1-0.1,6.1-0.4,9-1.3c3.5-1,6.4-2.8,9.3-4.8c4-2.8,6.9-6.5,9.3-10.7c2-3.5,1.3-7.9-2.2-10.2
	c-1.2-0.8-2.6-1.2-4-1.2C1080.7,889.8,1080.1,889.8,1079.6,890L1079.6,890L1079.6,890z"/>
<path style="fill:#161616;" d="M1205.4,840c-0.9,0.3-1.9,0.6-2.8,1c-0.9,0.5-1.7,1-2.5,1.6c-1.1,0.8-2,1.6-2.9,2.7
	c-2.6,3.1-5.3,6.3-5.7,10.5c-0.3,3.3,0.4,6.6,1.6,9.6c0.5,1.4,1.3,2.8,2.3,3.9c1.6,1.7,3.3,2.9,5.4,3.9c3.2,1.5,7.4,1.7,10.7,0.1
	c1.9-1,3.5-2.2,4.8-3.9c1.2-1.6,2-3.5,2.7-5.3c0.6-1.6,0.9-3.6,1.1-5.3c0.2-1.8,0.2-3.6-0.1-5.4c-0.3-1.9-1-3.6-2.1-5.1
	c-0.3-1.1-0.7-2.2-1.2-3.2c-0.8-1.6-2.3-2.9-3.8-3.8c-0.9-0.5-1.8-0.9-2.7-1.1c-0.8-0.3-2-0.4-3.1-0.4
	C1206.6,839.8,1205.9,839.9,1205.4,840L1205.4,840L1205.4,840z"/>
<path style="fill:#161616;" d="M1132.4,962.6c-6.5,1.4-13,2.8-19.6,4c-6,1.1-12,2.3-18,3.4c-3.5,0.7-7.1,0.9-10.7,1.4
	c-4.7,0.6-9.5,1.1-14.2,1.7c-7.2,0.5-14.4,1-21.6,1.2c-4.1,0.1-8.3,0.3-12.4,0.2c-4.4-0.1-8.8-0.1-13.2-0.2
	c-7.9-0.1-15.9-0.5-23.8-1c-4.2-0.3-8.4-0.6-12.6-1c-1.8-0.2-3.6-0.3-5.3-0.5c-0.5-0.1-1-0.1-1.5-0.2c-1.1-0.2-2.3,0.1-3.5,0.2
	c-1.1,0.2-2.1,0.7-3,1.3c-1.6,1.1-2.9,2.2-3.8,4c-0.9,1.8-1.2,2.9-1.5,4.8c-0.2,1.4-0.3,2.7-0.3,4.1c-0.1,2.4,0.1,4.7,0.3,7.1
	c0.2,2,0.3,3.9,0.6,5.9c0.7,4.2,1.4,8.4,2.2,12.6c0.8,3.8,1.8,7.6,3,11.3c1.9,5.5,4,10.9,6.7,16.1c5.4,10.2,13.3,18.9,22.5,25.8
	c4.3,3.3,9,5.7,13.9,8c5.3,2.5,10.8,4.3,16.5,5.5c5.7,1.1,11.5,1.5,17.4,1.6c6.1,0.1,12.3-0.7,18.3-2.1c5.5-1.3,10.8-3.4,16-5.6
	c5.3-2.3,10.2-5.4,14.9-8.7c6.4-4.5,11.7-10.1,16.9-15.8c10.6-11.6,18-25.8,22.6-40.7c1.9-6.1,2.9-12.3,3.8-18.6
	c0.4-2.7,0.6-5.4,0.9-8c0.3-3.3,0.3-6.5-0.5-9.8c-0.4-1.7-1.5-3.2-2.9-4.2c-1.4-2.2-3.9-3.6-6.6-3.6
	C1133.5,962.5,1133,962.5,1132.4,962.6L1132.4,962.6L1132.4,962.6z M1037.1,989.8c4.7-0.1,9.4-0.2,14.1-0.2
	c4.2-0.1,8.3-0.5,12.5-0.8c3.5-0.2,7-0.4,10.5-0.8c5.8-0.7,11.6-1.4,17.4-2.1c2.8-0.3,5.6-0.7,8.4-1.2c5.9-1.1,11.8-2.2,17.6-3.3
	c3.7-0.7,7.4-1.5,11.1-2.2c-0.1,1.2-0.2,2.4-0.4,3.6c-0.3,3.3-0.8,6.6-1.4,10c-0.9,3.9-1.8,7.8-3,11.6c-1.1,3.8-2.7,7.3-4.2,10.9
	c-1.1,2.1-2.2,4.2-3.4,6.3c-2.8,4.8-5.8,9.4-9.3,13.7c-1.6,1.8-3.3,3.6-4.9,5.4c-3.8,4.2-8.2,8-12.9,11.3
	c-5.1,3.4-10.6,6.1-16.4,8.3c-5.5,1.9-11,3.2-16.8,3.8c-6.3,0.4-12.7,0.1-18.9-0.9c-5.6-1.2-10.9-3.1-16.1-5.5
	c-4.7-2.4-9-5.2-13-8.5c-4-3.6-7.4-7.6-10.6-11.9c-3.4-5.1-6-10.6-8.2-16.4c-3.4-9.6-5.2-19.7-6.3-29.9c-0.1-1.3-0.1-2.5-0.1-3.8
	c0.5,0.1,1,0.1,1.4,0.2c1.8,0.2,3.7,0.3,5.6,0.5c3.9,0.3,7.7,0.6,11.6,0.8c8,0.4,15.9,0.8,23.9,0.9c3.2,0,6.3,0.1,9.5,0.1
	C1035.6,989.8,1036.3,989.8,1037.1,989.8L1037.1,989.8L1037.1,989.8z M979,986.9C979,986.9,979,986.9,979,986.9c0,0-0.1,0-0.2,0.1
	C978.9,987,979,987,979,986.9L979,986.9L979,986.9z M1072.2,1060.6c-0.2,0.1-0.4,0.2-0.6,0.2
	C1071.8,1060.8,1072,1060.7,1072.2,1060.6L1072.2,1060.6L1072.2,1060.6z"/>
<path style="fill:#161616;" d="M941,1139.1c-1.6,1.5-2.2,3.2-2.5,5.3c-0.9,7.2-1.8,14.5-3,21.7c-1.2,6.1-3.1,12-5.6,17.6
	c-3,6-6.6,11.7-10.8,16.9c-2.5,2.8-5.3,5.4-8.3,7.8c-1.8,1.2-3.7,2.3-5.1,3.8c-2,2.1-3.4,4.9-3.5,7.8c-0.2,3.5,0.9,6.4,2.2,9.6
	c1.1,2.6,2.7,5,4.3,7.3c1.5,2.2,3.2,4.2,5,6.1c4,4.4,8.8,8.2,13.6,11.7c9.4,6.8,20.1,11.8,30.8,16.1c7.8,3.1,15.8,5.7,24,7.7
	c2.7,0.7,5.5,1.3,8.2,2c1.5,0.3,2.9,0.8,4.4,1.1c4.8,0.9,9.6,1.8,14.4,2.6c7.8,1.4,15.6,2.6,23.4,3.4c4,0.4,7.9,0.9,11.9,1.2
	c2.7,0.2,5.4,0.4,8.1,0.6c1.4,0.1,2.9,0.3,4.4,0.3c5,0,10,0,15,0.1c3.4,0,6.7-0.3,10.1-0.4c4.7-0.3,9.4-0.4,14.1-0.8
	c4.8-0.5,9.7-0.9,14.5-1.4c7.4-0.7,14.8-1.7,22.1-3c3.9-0.7,7.7-1.3,11.6-2.1c4-0.9,8-1.6,11.9-2.7c5.9-1.6,11.7-3.1,17.4-5.1
	c5.4-1.8,10.7-4,15.8-6.7c2.5-1.3,5-2.8,7.3-4.5c2.4-1.9,4.4-4.1,6.3-6.5c3.3-4,4.6-9.5,4.3-14.6c-0.3-6.1-2.3-11.7-4.6-17.4
	c-1.6-3.9-3.3-7.7-5.1-11.5c-3.6-7.2-7.6-14.2-11-21.5c-1.3-2.7-2.5-5.4-3.6-8.2c-2.4-6.9-3.9-14.2-4.8-21.5c-0.1-1.5-0.1-3-0.1-4.6
	c0-1.8,0.3-3.6,0.3-5.4c0.1-3.3-1.9-6.3-5.1-7.3c-3.9-1.3-8,0.9-9.3,4.7c-2.3,6.8-1.2,14.2-0.2,21.1c1.4,9.6,4.6,18.9,8.7,27.7
	c2.8,6,5.9,11.8,9,17.6c3.1,5.9,5.9,12,8.3,18.2c0.9,2.6,1.6,5.3,2,8c0,0.9,0,1.7,0,2.6c-0.2,0.6-0.3,1.1-0.5,1.7
	c-0.4,0.7-0.9,1.4-1.4,2c-1,1-2,2-3.1,2.9c-4.9,3.1-10.1,5.5-15.6,7.6c-13.4,4.7-27.3,7.7-41.3,10.2c-6.4,1.1-12.9,1.9-19.3,2.8
	c-5.3,0.7-10.7,1.1-16.1,1.5c-6.7,0.4-13.4,0.7-20.2,1.1c-3.4,0.2-6.9,0-10.4,0c-0.7,0-1.3,0-2,0c-2.1,0-4.2,0-6.4-0.1
	c-4-0.3-7.9-0.6-11.9-0.8c-3.5-0.2-7-0.7-10.5-1.1c-6.4-0.7-12.8-1.7-19.2-2.6c0.1,0,0.1,0,0.2,0c-6.4-1.2-12.9-2.2-19.2-3.8
	c-4.6-1.1-9.3-2.2-13.9-3.5c-9.8-2.8-19.3-6.4-28.4-10.7c-8-3.9-15.6-8.5-22.5-14.1c-3.5-3.1-6.7-6.4-9.5-10.2
	c-1.1-1.8-2.1-3.5-2.9-5.4c2.7-1.9,5.3-3.8,7.6-6c7.3-7,13.1-15.4,17.6-24.5c2.5-5,4.5-10.2,6-15.6c1.2-4.6,2-9.4,2.7-14.2
	c0.8-5.6,1.5-11.1,2.2-16.7c0.5-4.2-3.4-7.9-7.3-8.1c-0.1,0-0.2,0-0.3,0C944.3,1137.1,942.4,1137.8,941,1139.1L941,1139.1
	L941,1139.1z M935.8,1164.7c-0.1,0.3-0.1,0.6-0.2,0.9C935.6,1165.4,935.7,1165,935.8,1164.7L935.8,1164.7L935.8,1164.7z
	 M917.2,1222.6c0,0.1,0,0.2-0.1,0.3C917.2,1222.8,917.2,1222.7,917.2,1222.6C917.2,1222.6,917.2,1222.6,917.2,1222.6L917.2,1222.6
	L917.2,1222.6z M916.2,1223.5c-0.1,0.1-0.1,0.1-0.2,0.2C916.1,1223.6,916.1,1223.5,916.2,1223.5L916.2,1223.5L916.2,1223.5z
	 M1190.3,1234.9c0.1,0.2,0.2,0.5,0.3,0.7C1190.4,1235.4,1190.4,1235.1,1190.3,1234.9L1190.3,1234.9L1190.3,1234.9z M1173,1258.4
	c-0.2,0.1-0.4,0.1-0.6,0.2C1172.6,1258.5,1172.8,1258.4,1173,1258.4L1173,1258.4L1173,1258.4z"/>
<path style="fill:#161616;" d="M545.5,944.7c-5.4,0.6-10.5,2.2-15.5,4.1c-10.1,3.8-18.8,10.2-26.9,17.2
	c-8.4,7.2-15.9,15.3-23.2,23.5c-1.3,1.5-2.3,3-2.4,5.1c-0.1,1.9,0.6,3.8,1.9,5.3c1.3,1.4,3.1,2.3,5.1,2.4c1.7,0.1,4-0.5,5.3-1.9
	c9.8-11.1,20.1-21.8,32.1-30.6c4.2-2.9,8.6-5.3,13.3-7.2c4.6-1.6,9.1-2.8,13.9-3.3c4.4-0.2,8.8,0.3,13.2,1c3.9,0.8,7.8,1.9,11.5,3.5
	c0.9,0.5,1.7,1,2.5,1.6c1.4,1.3,2.7,2.8,3.9,4.3c0.4,0.6,0.8,1.3,1.1,1.9c-0.1,0.2-0.2,0.3-0.3,0.5c-0.2,0.2-0.5,0.4-0.7,0.6
	c-1,0.6-2,1-3.1,1.5c-5.2,1.7-10.4,2.9-15.7,4.1c-4.5,1.1-8.9,2.2-13.4,3.4c-5.3,1.5-10.6,3.4-15.5,5.6c-4.8,2.2-9.3,5.3-13.4,8.6
	c-4.7,3.7-8.7,8-12.4,12.6c-3.4,4.3-6.2,9.1-8.8,13.9c-2.9,5.3-5.3,10.9-7,16.7c-2,6.8-2.8,13.9-3.6,20.9c-0.6,5.4-0.2,11,0.8,16.4
	c1,5.5,3,10.9,5.6,15.9c2.4,4.6,5.7,8.9,9.6,12.4c4.7,4.1,10,7.1,15.7,9.4c4.3,1.7,8.7,2.8,13.3,3.4c5.1,0.6,10.4,0.1,15.5-0.8
	c5.1-0.8,10.2-2.7,14.9-4.8c4.6-2,8.8-4.8,12.9-7.7c4.2-3,8.1-6.3,11.8-9.8c3.1-2.9,6.1-5.9,9.5-8.4c2.7-1.7,5.4-3.1,8.4-4.3
	c2.4-0.8,4.8-1.5,7.3-1.9c0.8,0,1.6,0,2.4,0.1c0.3,0.1,0.5,0.2,0.7,0.3c0.8,0.4,1.5,0.9,2.2,1.4c0.3,0.4,0.6,0.7,1,1.1
	c0.5,0.8,0.9,1.7,1.3,2.5c0.9,2.6,1.4,5.3,1.7,8.1c0.1,1.7,0,3.5-0.2,5.2c-0.6,2.8-1.6,5.3-2.8,7.9c-1.1,2.2-2.3,4.2-3.8,6.1
	c-1.7,1.9-3.6,3.6-5.7,5.2c-2.1,1.3-4.3,2.4-6.6,3.4c-7.3,2.5-15.1,3.6-22.7,4.7c-1.8,0.3-3.6,0.5-5.3,0.8c-1.7,0.2-3.3,0.5-5,0.8
	c-2.9,0.5-5.6,1.5-8.3,2.5c-10.9,4.1-17.2,15.1-20.6,25.6c-1.8,5.4-2.8,11.1-4,16.7c-0.5,2.3-0.7,4.6-1.1,6.8
	c-0.3,1.9-0.6,3.8-0.8,5.7c-0.4,4-0.8,7.9-1.1,11.9c-0.5,8.3-1,16.6-1.4,24.9c-0.8,16.8-0.9,33.6-1.1,50.3
	c-0.3,15.8-0.3,31.5-0.3,47.3c0,2.6,0,5.2,0,7.9c0,4.2-0.1,8.3,1,12.4c0.9,3.1,3.4,5.5,6.7,5.6c1.9,0.1,3.8-0.6,5.2-1.9
	c1.3-1.2,2.5-3.2,2.3-5c-0.2-2.5,0-5,0.1-7.6c0-1.9,0-3.9,0-5.8c0-4.3,0-8.6,0-12.9c0-8.2,0.1-16.3,0.1-24.5
	c0.1-16.4,0.5-32.7,0.8-49.1c0.2-10.1,0.6-20.2,1.2-30.3c0.4-5.7,0.8-11.4,1.3-17.1c0.5-5,1.2-10,1.9-15c1.6-7.4,3.1-14.7,6.1-21.6
	c1.1-2.2,2.4-4.2,3.9-6.1c0.8-0.9,1.6-1.7,2.5-2.4c1.3-0.8,2.8-1.5,4.2-2.1c4.9-1.6,10-2,15.1-2.7c7.2-1.1,14.4-2.2,21.4-4.3
	c5-1.5,9.8-3.7,14-6.8c4.2-3.1,7.9-6.9,10.9-11.3c1.4-2.1,2.4-4.4,3.5-6.7c1.1-2.4,2.1-4.8,2.8-7.3c1.6-5.7,1.5-11.5,0.6-17.2
	c-0.3-1.9-0.8-3.8-1.4-5.7c-0.8-2.4-1.7-4.7-3-6.8c-3-4.8-7.6-8.1-13-9.8c-2.1-0.6-4.4-0.7-6.6-0.6c-2.8,0.1-5.5,0.6-8.2,1.4
	c-5.1,1.4-10,3.5-14.4,6.4c-4.6,2.9-8.4,6.7-12.4,10.4c-3.7,3.4-7.5,6.8-11.6,9.7c-4.2,2.8-8.6,5.2-13.3,7.1
	c-3.7,1.3-7.5,2.2-11.5,2.7c-3.2,0.2-6.4,0.1-9.6-0.3c-3.5-0.8-7-2.1-10.3-3.6c-2.6-1.4-5-2.9-7.3-4.7c-1.6-1.5-3.1-3.1-4.4-4.9
	c-1.9-2.9-3.4-5.9-4.7-9.1c-1.2-3.6-1.9-7.3-2.4-11c-0.3-6,0.5-12.2,1.5-18.1c1.2-5.9,3-11.6,5.5-17.1c3.1-6.3,6.8-12.4,11.2-17.9
	c3.5-3.9,7.4-7.4,11.6-10.4c3.7-2.4,7.5-4.3,11.6-6c3.5-1.2,6.9-2.3,10.4-3.3c3.7-1,7.5-1.9,11.3-2.8c6.5-1.6,13-3.1,19.3-5.5
	c4.8-1.9,8.9-5.9,10.9-10.6c1.2-2.7,1.1-5.5,0.7-8.4c-0.2-1.4-1-2.8-1.6-4.1c-0.6-1.3-1.5-2.5-2.3-3.6c-3.3-4.7-7.5-8.5-12.7-10.9
	c-5.3-2.4-11-3.7-16.7-4.7c-2.8-0.5-5.6-0.8-8.5-1c-0.7,0-1.3-0.1-2-0.1C550.2,944.2,547.8,944.5,545.5,944.7L545.5,944.7
	L545.5,944.7z M521.3,970.1c-0.2,0.1-0.4,0.3-0.6,0.4C520.9,970.4,521.1,970.3,521.3,970.1L521.3,970.1L521.3,970.1z M581.7,970.3
	c0,0.3-0.1,0.5-0.1,0.7C581.6,970.8,581.6,970.5,581.7,970.3L581.7,970.3L581.7,970.3z M581.2,971.9c-0.1,0.1-0.1,0.2-0.2,0.4
	C581.1,972.1,581.2,972,581.2,971.9L581.2,971.9L581.2,971.9z M616.5,1080.5c0.1,0,0.2,0.1,0.3,0.1
	C616.7,1080.6,616.6,1080.6,616.5,1080.5L616.5,1080.5L616.5,1080.5z M561.3,1148.9c-0.1,0.1-0.2,0.2-0.3,0.3
	C561.1,1149.1,561.2,1149,561.3,1148.9L561.3,1148.9L561.3,1148.9z"/>
<path style="fill:#161616;" d="M457.2,823.6c-1,0.3-1.9,0.7-2.9,1.1c-2.9,1.8-5.2,4-7.6,6.4c-3.5,3.5-6.4,7.6-8.9,11.9
	c-5.2,9-8.2,19.1-10,29.3c-0.4,2.2-0.8,4.4-1.2,6.5c-0.3,1.8-0.8,3.6-1,5.4c-0.4,3.2-0.8,6.3-1.1,9.5c-0.6-1.9-1.2-3.8-1.9-5.7
	c-1.2-3.8-2.6-7.5-4.1-11.2c-2.2-5.6-4.4-11.1-7-16.5c-2.3-4.8-5.2-9.3-8.5-13.5c-1.5-1.9-3.1-3.6-5-5.2c-2.3-1.9-5.3-3.6-8.4-3.8
	c-3-0.2-5.4,0.6-7.8,2.3c-1.9,1.3-3,3.2-4.2,5.1c-2.5,4-4,8.6-5,13.1c-0.5,2.3-1.1,4.5-1.6,6.8c-0.5,2.1-0.8,4.3-1.1,6.5
	c-0.3,1.7-0.7,3.4-0.8,5.1c-0.2,2.3-0.4,4.6-0.6,6.9c-0.7,7.7-0.5,15.4-0.3,23.1c0.2,5.5,0.5,11,0.9,16.4c-0.1-0.2-0.2-0.4-0.3-0.6
	c-0.6-1.4-1.5-2.7-2.2-4c-1.2-2.2-2.4-4.4-3.6-6.6c-4.3-7.9-9.9-15.2-16.5-21.4c-1-0.9-2-1.7-3.1-2.5c-1-0.8-2.3-1.2-3.5-1.8
	c-1.2-0.6-2.7-0.6-4-0.9c-1.3-0.2-2.7,0.1-4,0.3c-2.6,0.5-4.6,2.7-6.1,4.8c-0.7,0.9-1.1,2.1-1.4,3.2c-0.5,1.5-0.6,3.1-0.7,4.6
	c-0.3,8.3,0.4,16.6,1.1,24.9c0.4,4.1,0.9,8.1,1.4,12.2c0.5,3.7,1.2,7.4,1.9,11.1c1.5,8.1,3.2,16.2,4.8,24.3
	c1.5,7.2,3.3,14.3,4.9,21.4c1,4.2,2.3,8.3,3.5,12.5c0.8,2.7,1.6,5.5,2.4,8.2c4.5,15.2,9.2,30.3,14.3,45.4c1.9,5.7,3.9,11.4,5.8,17.1
	c1.2,3.5,2.6,6.9,3.9,10.3c2.6,6.7,5.1,13.4,7.7,20.2c0.8,2.1,1.6,4.3,2.5,6.4c1.6,4.1,3.5,8.2,5.2,12.2c1.5,3.4,6,4.5,9.1,2.8
	c1.6-0.8,2.7-2.2,3.3-3.9c0.6-1.8,0.3-3.5-0.4-5.2c-2-4.7-4.1-9.3-5.9-14c-1.5-4-3.1-8-4.6-12c-2.5-6.5-5-13-7.5-19.5
	c-2.8-8.2-5.5-16.4-8.2-24.6c-2.3-7-4.4-14-6.6-21c-2.2-7-4.1-14-6.2-21c-1.2-4.2-2.3-8.3-3.4-12.5c-0.8-2.8-1.5-5.6-2.1-8.4
	c-1.3-5.8-2.8-11.6-4-17.4c-1.3-6.4-2.6-12.7-3.9-19.1c-1.1-5.3-2.1-10.6-2.8-16c-0.4-3-0.9-6.1-1.2-9.2c-0.3-2.7-0.5-5.5-0.8-8.2
	c-0.2-2.6-0.4-5.2-0.5-7.9c-0.1-2.4-0.2-4.9-0.2-7.4c3.4,3.2,6.4,6.6,9.1,10.3c2.7,4,5,8.1,7.2,12.4c1.5,2.7,3,5.4,4.3,8.3
	c1.4,3,3,6,4.2,9.1c1.3,3.3,2.6,6.6,3.9,9.9c1.4,3.9,2.7,7.8,3.9,11.7c1.5,5.2,3,10.3,4.4,15.5c2.5,9.1,4.5,18.3,6.9,27.4
	c1,3.9,4.7,6.5,8.8,5.5c1.9-0.4,3.5-1.6,4.5-3.2c1.1-1.7,1.3-3.6,1-5.6c-0.3-2-0.8-4-1.2-6c-0.4-1.9-0.8-3.9-1.2-5.8
	c-0.5-2.3-0.9-4.6-1.4-6.9c-1.2-6.2-2.4-12.4-3.5-18.6c-1.1-5.8-2-11.6-2.9-17.4c-0.8-5.3-1.3-10.8-1.9-16.1
	c-0.4-5.4-0.8-10.8-1.2-16.1c-0.4-5.1-0.5-10.3-0.7-15.5c-0.1-2.6,0-5.3,0.1-7.9c0-2.4,0.1-4.7,0.3-7.1c0.2-2.5,0.2-5,0.6-7.5
	c0.4-2.6,0.8-5.2,1.2-7.8c1.1-5.1,2.1-10.4,4.2-15.2c0.4-0.7,0.8-1.4,1.2-2c0.2,0.1,0.4,0.3,0.6,0.4c1.6,1.6,3,3.3,4.3,5.1
	c6.2,9.4,9.9,20,13.8,30.5c1.2,3.9,2.4,7.8,3.6,11.6c0.4,1.2,0.6,2.4,0.9,3.6c0.7,2.8,1.3,5.6,2,8.4c0.8,3.3,1.4,6.7,2,10.1
	c0.6,3.5,1.3,7,1.8,10.5c1.1,7.9,2.1,15.8,2.9,23.7c0.8,7.9,1.5,15.8,2.2,23.6c0.2,2.2,0.3,4.5,0.9,6.6c0.9,3.3,3.5,5.7,7,5.9
	c3.1,0.2,6.8-2,7.5-5.2c0.6-2.5,0.8-4.8,0.8-7.3c0-1.1-0.1-2.1-0.1-3.2c-0.1-2.7-0.3-5.4-0.4-8.2c-0.2-3.5-0.3-7-0.5-10.5
	c-0.4-8.5-0.6-16.9-0.7-25.4c-0.1-3.4,0.1-6.9,0.2-10.3c0.1-3.4,0.1-6.8,0.3-10.2c0.3-4.4,0.5-8.8,0.8-13.2c0.1-1.7,0.4-3.5,0.6-5.2
	c0.3-2.5,0.6-5.1,0.9-7.6c0.2-1.7,0.6-3.4,0.9-5.1c0.4-2,0.7-4.1,1.1-6.1c1.4-6.9,3.2-13.6,6.1-20c1.9-3.7,4-7.1,6.6-10.4
	c1.5-1.7,3.1-3.3,4.9-4.8c0.4,0.4,0.7,0.9,1.1,1.3c2.7,4.2,4.6,8.7,6.5,13.3c2.3,7,4.2,14.1,5.4,21.5c1.4,8.1,2.4,16.3,3.3,24.5
	c0.2,1.9,0.3,3.7,0.5,5.6c-0.1-0.7-0.1-1.4-0.2-2c1.3,15,1.3,30.1,1.4,45.1c0.1,14.3,0.6,28.5,1.4,42.7c0.2,3,0.3,6,0.2,9
	c-0.1,4.1,3,7.6,7.1,7.8c2,0.1,3.9-0.6,5.4-1.9c1.6-1.4,2.1-3.1,2.4-5.1c0.5-3.6,0.4-7,0.2-10.6c-0.2-3.5-0.5-7.1-0.6-10.6
	c-0.3-7.2-0.5-14.5-0.6-21.7c-0.3-14.8-0.2-29.6-0.9-44.4c-0.8-16-2.5-32-5.8-47.7c-1.6-7.8-4.1-15.2-7.1-22.5c-2-5-4.8-9.8-8.1-14
	c-0.8-1.1-2.1-2.1-3.1-2.9c-1.1-0.8-2.4-1.7-3.7-2.1c-1.5-0.4-2.9-0.7-4.4-0.8C459.3,823.3,458.3,823.4,457.2,823.6L457.2,823.6
	L457.2,823.6z M461.6,838.1c-0.1,0-0.2,0-0.3,0C461.4,838.1,461.5,838.1,461.6,838.1L461.6,838.1L461.6,838.1z M459.8,838.5
	C459.8,838.5,459.8,838.5,459.8,838.5c-0.1,0-0.2,0.1-0.3,0.1C459.6,838.6,459.7,838.5,459.8,838.5L459.8,838.5L459.8,838.5z
	 M388.9,851.2C388.9,851.2,388.9,851.2,388.9,851.2C388.9,851.2,388.9,851.2,388.9,851.2C388.9,851.2,388.9,851.2,388.9,851.2
	L388.9,851.2L388.9,851.2z M388.8,851.2C388.9,851.2,388.9,851.2,388.8,851.2c-0.1,0.1-0.1,0.1-0.2,0.2
	C388.7,851.3,388.8,851.3,388.8,851.2L388.8,851.2L388.8,851.2z M389.4,851.4c0.1,0,0.2,0.1,0.2,0.1
	C389.6,851.5,389.5,851.5,389.4,851.4C389.4,851.4,389.4,851.4,389.4,851.4L389.4,851.4L389.4,851.4z M345.9,909.4
	c0.2,0.3,0.4,0.6,0.6,0.9C346.3,910,346.1,909.7,345.9,909.4L345.9,909.4L345.9,909.4z"/>
<path style="fill:#161616;" d="M385.6,1113.7c-3.9,0.9-6.1,4.7-5.4,8.5c1.2,6.2,2.5,12.3,3.9,18.4c1.2,5.4,1.9,10.9,2.6,16.3
	c0.1,1.7,0.2,3.4,0.3,5.1c0.1,2.1,0.1,4.2,0.1,6.3c0,3.6-0.2,7.1-0.6,10.7c-0.9,8.5-2.1,16.9-3.3,25.3c-2.2,15.5-4.1,31.1-5.8,46.7
	c-1.8,15.9-3.5,31.8-5.7,47.7c-2.4,17.1-4.9,34.2-7.3,51.3c-2.3,15.9-4.3,31.7-6,47.6c-1.7,16-3,32-4.2,48c-0.6,8-1.4,16-2.1,24.1
	c-0.4,4.1-0.7,8.2-1,12.3c-0.1,1.8-0.2,3.5-0.3,5.3c-0.1,1.5-0.1,2.9,0.1,4.4c0.2,1.8,0.9,2.9,1.9,4.4c1.1,1.6,2.6,2.3,4.3,3
	c3,1.2,6.7-0.4,8.4-3c1.3-2,1.5-4.6,0.6-6.8c0.9-14.8,2.3-29.5,3.5-44.3c1.2-16,2.5-32,4.2-48c3.5-33.1,8.7-65.9,13.3-98.8
	c2.2-15.9,3.9-31.8,5.6-47.7c1.7-15.6,3.6-31.2,5.7-46.7c0.9-6.8,1.9-13.6,2.6-20.5c0.7-6.8,1.2-13.7,0.6-20.5
	c-0.3-4.1-0.6-8.1-1.2-12.1c-0.6-3.8-1.3-7.5-2-11.3c-1.3-6.8-3.1-13.4-4.4-20.2c-0.6-3.3-3.8-5.6-7-5.6
	C386.6,1113.5,386.1,1113.6,385.6,1113.7L385.6,1113.7L385.6,1113.7z"/>
<path style="fill:#161616;" d="M435.6,1399.2c-0.9,0.2-1.8,0.5-2.6,0.9c-1.5,0.8-2.4,2-3.5,3.3c-0.6,0.8-1.1,1.8-1.6,2.6
	c-0.4,0.8-0.8,1.5-1.2,2.3c-1,2-1.9,4.1-2.8,6.2c-0.9,2.3-1.7,4.8-2,7.3c-0.3,3,0.1,6,1.1,8.8c0.9,2.7,2.3,5,4.3,7
	c2,2.1,4.4,3.4,6.9,4.5c4.3,1.9,8.8,2.9,13.4,3.7c3.7,0.6,7.5,1.2,11.2,1.7c15.3,2,30.6,3.6,46,4.7c31.6,2.3,63.3,2.5,94.9,2.4
	c7.6,0,15.2-0.2,22.8-0.3c7.5-0.1,15.1-0.2,22.6-0.6c16.4-0.8,32.7-1.7,49.1-2.6c12.2-0.6,24.4-1.2,36.6-1.8
	c5.8-0.3,11.7-0.6,17.5-1c8.7-0.5,17.5-1.3,26.2,0c2.4,0.5,4.6,1.2,6.8,2.1c8,4.3,14.9,10.2,22.6,14.8c4.2,2.5,8.5,4.7,13,6.8
	c4.9,2.3,10,4.1,15.3,5c2.5,0.4,5.1,0.6,7.6,0.8c3.6,0.3,7.4,0.2,11,0.1c3.9-0.1,7.7-0.2,11.6-0.5c8.5-0.5,17-1.2,25.5-2
	c7.2-0.7,14.3-1.9,21.4-3.2c7.5-1.4,15-3.3,22.3-5.8c5.8-2.1,11.1-4.8,16-8.6c1.8-1.4,3.4-3.1,4.7-4.9c1.4-1.8,2.6-3.8,3.3-6
	c0.9-2.8,0.8-6-0.2-8.8c-1.1-3.2-2.9-5.9-5.3-8.3c-2.8-2.7-6.2-4.8-9.6-6.6c-3.8-2-7.7-3.9-11.7-5.6c-4-1.7-8.2-2.8-12.4-3.8
	c-1.1-0.3-2.2-0.5-3.2-0.8c-0.5-0.1-0.9-0.2-1.4-0.3c-0.3-0.1-0.6-0.1-0.9-0.2c-0.5-0.2-1.1-0.2-1.6-0.3c-0.3-0.1-0.7-0.1-1-0.2
	c-0.4-0.1-0.9-0.2-1.4-0.2c0.3,0.1,0.6,0.1,0.9,0.2c-0.3-0.1-0.6-0.1-0.9-0.2c0,0,0,0,0,0c0,0-0.1,0-0.1,0
	c-4.8-0.8-9.8-1.3-14.6-1.3c-3,0-5.9,0-8.9,0.2c-3.2,0.2-6.5,0.5-9.7,0.8c-4.9,0.5-9.8,1.3-14.8,2.1c-4.8,0.7-9.5,1.3-14.4,1.8
	c-6.1,0.3-12.1,0.2-18.1-0.7c-3.3-0.7-6.5-1.6-9.6-2.9c-1.7-0.9-3.2-1.9-4.7-3c-1.7-1.6-3.1-3.4-4.6-5.2c-0.6-0.7-1.3-1.3-2-1.9
	c-1.2-1-2.4-2.1-4-2.5c-1.5-0.4-3-0.7-4.6-0.8c-3.4-0.2-6.8-0.1-10.2-0.2c-7.3-0.1-14.6-0.2-21.9-0.2c-15.2-0.1-30.4-0.2-45.7,0.2
	c-16.6,0.5-33.3,0.9-49.9,1.4c-14.6,0.4-29.2,0.7-43.7,0.5c-15.1-0.2-30.2-0.6-45.3-0.7c-9.6-0.1-19.2-0.2-28.8-0.2
	c-7.6,0-15.1,0.1-22.7,0.2c-14.7,0.1-29.3,0-44-0.2c-5.3,0-10.6-0.1-15.9-0.4c-9.4-0.5-18.8-1-28.2-1.9c-0.2,0-0.4,0-0.5,0
	C438.4,1396.9,436.7,1397.8,435.6,1399.2L435.6,1399.2L435.6,1399.2z M443.1,1415.3c1.8-0.4,3.3-1.5,4.3-3c0.3-0.5,0.6-1,0.8-1.6
	c7.6,0.6,15.2,1,22.8,1.4c6.9,0.4,13.8,0.3,20.8,0.4c7.2,0.1,14.5,0.3,21.7,0.3c9.8,0,19.7,0,29.5,0c13.8,0,27.7,0.2,41.5,0.5
	c16.2,0.4,32.4,1,48.6,1.1c31.8,0.1,63.5-1.1,95.2-1.4c12-0.1,23.9,0,35.9,0.2c5.6,0.1,11.2,0.2,16.8,0.3c3,0.1,5.9,0.1,8.9,0.2
	c2,0.1,4,0,6,0.2c0.6,0.6,1.1,1.2,1.6,1.9c1.6,1.9,3.3,3.7,5.2,5.3c5.3,4.5,11.7,6.9,18.4,8.4c6.8,1.5,13.8,1.9,20.8,1.7
	c3.8-0.2,7.7-0.6,11.5-1c4.8-0.5,9.5-1.3,14.3-2c4.4-0.6,8.9-1.2,13.3-1.6c3.9-0.2,7.8-0.4,11.7-0.2c2,0.1,4.1,0.1,6.1,0.3
	c1.3,0.2,2.6,0.3,4,0.5c0.8,0.1,1.6,0.2,2.3,0.3c0.4,0.1,0.9,0.2,1.3,0.2c0.4,0.1,0.8,0.1,1.2,0.2c0.4,0.1,0.7,0.2,1.1,0.2
	c0,0,0.1,0,0.1,0c0.2,0.1,0.4,0.1,0.6,0.1c3.2,0.8,6.4,1.5,9.5,2.5c3.1,1,6.2,2.2,9.2,3.6c3.8,2,7.7,4,11.1,6.6
	c0.5,0.5,0.9,0.9,1.3,1.4c0.1,0.2,0.2,0.4,0.3,0.6c-0.3,0.4-0.6,0.9-0.9,1.3c-1.1,1.1-2.3,2.2-3.5,3.2c-2.8,1.8-5.7,3.2-8.7,4.5
	c-15.3,5.2-31.4,7.7-47.4,9.3c-7.4,0.6-14.8,1.1-22.2,1.5c-7.9,0.4-16.1,0.6-24-0.6c-4.3-1-8.4-2.6-12.5-4.5
	c-1.6-0.8-3.2-1.6-4.9-2.5c-1.8-0.9-3.5-2-5.3-3.1c-3.3-2-6.5-4.3-9.6-6.5c-1.5-1-3-2.1-4.5-3.1c-3.5-2.4-7.1-4.5-11-6.4
	c-4.7-2.2-10.1-3-15.2-3.5c-3.5-0.3-7-0.3-10.4-0.1c-15.7,0.8-31.4,1.7-47.1,2.5c-16.6,0.8-33.2,1.7-49.8,2.6
	c-15.5,0.8-31,1.3-46.5,1.6c-15.6,0.3-31.3,0.2-46.9,0.2c-14.7-0.1-29.4-0.4-44-1.1c-26.3-1.3-52.6-3.5-78.6-7.7
	c-2.8-0.6-5.5-1.4-8.1-2.5c-0.4-0.2-0.8-0.5-1.2-0.7c-0.3-0.3-0.6-0.6-0.8-0.9c0-0.1-0.1-0.2-0.1-0.3c-0.2-0.7-0.3-1.3-0.4-2
	c0-0.2,0-0.4,0-0.7c0.6-2.4,1.6-4.7,2.6-7c0.2-0.3,0.3-0.7,0.5-1c0.4,0.1,0.8,0.1,1.3,0.1C442.1,1415.5,442.6,1415.4,443.1,1415.3
	L443.1,1415.3L443.1,1415.3z M795.8,1413.6c0,0,0.1,0,0.1,0c0,0,0,0,0,0C795.9,1413.6,795.8,1413.6,795.8,1413.6L795.8,1413.6
	L795.8,1413.6z M940.6,1441.7c0.1,0.2,0.1,0.4,0.2,0.6C940.7,1442,940.7,1441.8,940.6,1441.7L940.6,1441.7L940.6,1441.7z
	 M941,1441.8c0,0.1,0,0.1,0,0.2C941,1441.9,941,1441.9,941,1441.8L941,1441.8L941,1441.8z M941,1443.2c0,0.4-0.1,0.7-0.2,1.1
	C940.8,1444,940.9,1443.6,941,1443.2L941,1443.2L941,1443.2z M907,1412c0,0,0.1,0,0.1,0c0,0,0,0,0,0c-0.4-0.1-0.8-0.1-1.2-0.2
	C906.3,1411.9,906.6,1411.9,907,1412L907,1412L907,1412z"/>
<path style="fill:#161616;" d="M495.2,1501.5c-6.4,10.5-13.2,20.9-20,31.2c-7,10.5-14,21.1-21.1,31.6c-6.9,10.2-13.9,20.3-20.8,30.4
	c-7,10.3-13.9,20.5-20.8,30.8c-6.8,10-13.8,20-21,29.7c-7.3,9.9-14.8,19.6-21.5,29.9c-3.4,5.1-6.7,10.2-9.4,15.7
	c-1.6,3.1-3.1,6.3-4.5,9.5c-1.2,2.6-2.3,5.5-1.7,8.5c0.6,2.5,2.3,5,4.6,6.2c1.6,0.8,2.6,1.1,4.4,1.4c1.5,0.2,3,0.1,4.5-0.1
	c4.2-0.5,8.2-1.8,12.2-3.2c2.1-0.7,4.2-1.5,6.3-2.3c2.9-1.1,5.9-2.2,8.8-3.5c5.3-2.2,10.6-4.4,15.9-6.8c5.6-2.6,11.3-5.1,16.8-7.7
	c5.8-2.7,11.5-5.5,17.2-8.2c12.2-5.6,24.4-11.2,36.7-16.7c22.2-10,44.6-19.7,67-29.4c11.4-4.9,22.8-9.8,34.2-14.7
	c10.9-4.7,21.6-9.8,32.3-14.9c5.3-2.5,10.5-5.1,15.8-7.7c6-2.9,11.9-5.8,17.9-8.6c10.7-5.1,21.4-9.9,32-15.2c1.3-0.6,2.6-1.3,3.9-2
	c2.2-1.2,4.2-2.8,5.1-5.2c0.4-1.3,0.5-3,0.2-4.4c-0.5-2.2-1.9-3.7-3.7-5c-2.8-2-6.8-1.5-9.2,0.8c-0.4,0.3-0.7,0.7-1,1.1
	c-1.7,0.9-3.4,1.7-5.1,2.5c-2.8,1.4-5.5,2.7-8.3,4c-5.3,2.5-10.6,5-15.8,7.4c-11.4,5.4-22.7,10.8-34,16.4c-5.5,2.7-11,5.3-16.5,8
	c-2.7,1.3-5.5,2.5-8.3,3.8c-2.3,1.1-4.7,2.2-7,3.2c-12.3,5.3-24.6,10.7-37,16c-22.2,9.5-44.3,19.2-66.2,29.1
	c-11.5,5.2-23.1,10.4-34.6,15.7c-10.8,5-21.6,10.2-32.4,15.2c-11.2,5.1-22.5,9.9-33.9,14.4c0.6-0.2,1.2-0.5,1.8-0.7
	c-2.3,0.8-4.7,1.7-7,2.4c0.5-1.3,1.1-2.5,1.7-3.8c1.3-2.6,2.7-5.2,4.2-7.7c1.6-2.8,3.3-5.5,5-8.2c3.1-5.1,6.6-9.9,10-14.9
	c6.8-9.8,13.6-19.7,20.1-29.7c13.7-21,26.9-42.3,40.3-63.4c6.7-10.5,13.2-21,19.8-31.6c6.5-10.5,13.1-21,19.6-31.5
	c2.9-4.7,5.8-9.3,8.7-14c1-1.6,0.6-3.8-1-4.8c-0.6-0.4-1.2-0.5-1.9-0.5C497,1499.9,495.9,1500.5,495.2,1501.5L495.2,1501.5
	L495.2,1501.5z"/>
<path style="fill:#161616;" d="M1300.6,1445.9c-2.4,0.2-4.7,0.5-7.1,0.9c-2.5,0.4-5,0.8-7.5,1.1c-8.1,1.2-16.2,2-24.3,2.7
	c-0.2,0-0.4,0-0.6,0.1c-7.3,0.4-14.7,0.8-22,0.9c-8.5,0.2-17.1,0.3-25.6,0.4c-16.9,0.2-33.8,0.3-50.7,0.6
	c-15.9,0.2-31.7,0.8-47.5,1.5c-16.1,0.7-32.2,1.9-48.3,2.9c-31.7,1.9-63.4,3.3-95.2,3c-15.2-0.2-30.4-0.8-45.6-1.4
	c-16.3-0.7-32.7-1.5-49.1-2.2c-16.4-0.7-32.9-1.2-49.3-1.6c-16.1-0.4-32.3,0-48.5,0.3c-7.7,0.2-15.3,0.4-23,0.6
	c-8,0.2-16,0.3-24.1,0.2c-7.5,0-15-0.3-22.4-0.6c-8-0.3-15.9-0.7-23.9-1.3c-11.3-0.8-22.5-2-33.8-2.8c-5.3-0.4-10.7-0.7-16.1-0.9
	c-2.6-0.1-5.1-0.3-7.7-0.4c-1.4-0.1-2.8-0.1-4.3-0.1c-2.1,0.1-3.7,0.5-5.6,1.4c-0.8,0.4-1.5,0.9-2.1,1.6c-1.2,0.5-2.3,1.4-3,2.6
	c-1.1,1.7-1.2,3.4-0.9,5.3c0.6,5.6,1.3,11.2,2,16.8c0.6,4.8,1.3,9.8,2.4,14.5c0.6,2.5,1.7,5,3.2,7c1.6,2,3.6,3.7,5.6,5.2
	c2.2,1.6,5.1,2.4,7.8,3.2c2.8,0.8,5.7,1.3,8.5,1.6c4.2,0.5,8.3,1,12.5,1.4c7.7,0.7,15.5,1,23.3,1.4c7.7,0.4,15.4,0.9,23.2,1.1
	c32.4,1.1,64.8,1.4,97.2,2.2c31.5,0.8,63,2,94.5,2.6c32.1,0.6,64.2,1.3,96.3,1.1c31.7-0.1,63.5-0.5,95.2-0.9
	c33.3-0.5,66.7-0.8,100-1.8c15.3-0.4,30.6-1,45.9-1.5c15.9-0.5,31.7-1.2,47.5-2.4c3.9-0.3,7.8-0.6,11.8-0.8c0.9-0.1,1.8-0.1,2.8-0.2
	c1.5-0.1,3.2,0,4.7-0.3c6.2-1.3,9.9-6.3,12.5-11.7c3.5-7.3,4.6-15.2,5.8-23.1c0.5-3.5,0.7-7.2,0.7-10.7c0-1.9-0.1-3.7-0.2-5.6
	c-0.1-1.8-0.3-3.6-0.6-5.3c-0.3-1.7-1-3.2-2.1-4.5c-0.6-0.9-1.3-1.6-2.2-2.2c-0.9-0.5-1.8-0.9-2.8-1.3c-0.3-0.1-0.7-0.2-1-0.2
	c-1-0.2-2-0.4-3.1-0.5c-0.3,0-0.6,0-0.9,0C1302.2,1445.7,1301.4,1445.8,1300.6,1445.9L1300.6,1445.9L1300.6,1445.9z M1001.9,1475.1
	c16-0.4,32-1.1,48-1.9c16.3-0.8,32.6-1.9,48.9-2.9c32.8-1.9,65.6-2.5,98.4-2.8c8-0.1,16-0.1,24-0.2c3.5,0,7-0.1,10.4-0.2
	c3.6-0.1,7.3,0,10.9-0.2c5-0.2,9.9-0.5,14.8-0.7c3.9-0.2,7.7-0.5,11.6-0.9c3.9-0.3,7.7-0.7,11.6-1.2c4.3-0.6,8.6-1.2,12.9-1.8
	c2.3-0.4,4.6-0.7,7-1c0.1,2.7,0.2,5.5-0.1,8.2c-0.2,1.9-0.2,3.8-0.5,5.7c-0.3,2-0.6,3.9-0.9,5.9c-0.8,4.1-1.9,8.1-3.6,12
	c-0.5,1-1.1,1.8-1.7,2.7c0,0,0,0,0,0c-7.4,0.5-14.8,1-22.2,1.5c-7.2,0.5-14.5,0.9-21.7,1.2c-16.2,0.6-32.4,1.1-48.6,1.7
	c-32.6,1.1-65.3,1.6-97.9,2c-32.3,0.4-64.6,0.8-96.8,1.1c-31.8,0.3-63.6-0.2-95.5-0.7c-16.1-0.3-32.1-0.6-48.2-1.1
	c-15.4-0.4-30.7-1-46.1-1.4c-32.6-0.9-65.2-1.4-97.8-2c-12.8-0.3-25.5-0.8-38.3-1.5c-6.3-0.3-12.6-0.6-19-0.9
	c-7.2-0.4-14.3-0.9-21.4-2c-2.1-0.4-4.1-1-6.1-1.7c-0.6-0.4-1.2-0.7-1.7-1.2c-0.3-0.3-0.6-0.6-1-1c-0.2-0.4-0.4-0.7-0.5-1.1
	c-1.4-4.5-2.1-9.4-2.7-14.1c-0.4-3.2-0.8-6.3-1.2-9.5c2.4,0.1,4.9,0.2,7.3,0.4c4.1,0.2,8.1,0.4,12.2,0.7c7.8,0.5,15.6,1.1,23.3,1.8
	c7.6,0.7,15.1,1.4,22.7,1.8c7.7,0.4,15.3,0.8,23,1c15.8,0.5,31.6,0.4,47.4-0.1c15.6-0.5,31.2-1,46.8-0.9c8.3,0,16.6,0.1,25,0.3
	c8.8,0.2,17.5,0.5,26.3,0.8c15.1,0.5,30.2,1.3,45.3,1.9c25.8,1.1,51.6,2.4,77.4,2.4C989.7,1475.3,995.8,1475.3,1001.9,1475.1
	L1001.9,1475.1L1001.9,1475.1z M1294.9,1495.4c-0.1,0-0.2,0.1-0.2,0.1C1294.7,1495.5,1294.8,1495.5,1294.9,1495.4L1294.9,1495.4
	L1294.9,1495.4z M1293,1496.3c-0.2,0.1-0.4,0.3-0.5,0.4C1292.6,1496.6,1292.8,1496.5,1293,1496.3L1293,1496.3L1293,1496.3z"/>
<path style="fill:#161616;" d="M1297.5,1490.7c-1.5,0.8-3.3,2.5-3.6,4.3c-0.6,3.2-1.1,6.4-1.7,9.6c-0.7,3.5-1.5,6.9-2.6,10.3
	c-1.3,3.7-2.7,7.4-4.2,11c-1.4,2.8-2.8,5.6-4.4,8.3c-2.2,3.7-4.5,7.3-6.9,10.9c-4.3,6.6-9.2,12.9-14.1,19.1c-2,2.3-3.9,4.6-6,6.8
	c-6,6.4-12.7,12.2-19.9,17.3c-4.8,3.3-9.7,6.3-14.8,9c-4.4,2.4-9,4.7-13.7,6.6c-4.4,1.8-8.7,3.6-13.1,5.4c-3.6,1.2-7.1,2.4-10.7,3.5
	c-4.1,1.4-8.4,2.4-12.6,3.6c-3.5,1-7,1.7-10.6,2.6c-3.3,0.8-6.6,1.7-9.9,2.3c-8.2,1.6-16.4,3.2-24.7,4.4c-4.6,0.7-9.2,1.3-13.8,2
	c-4.2,0.6-8.6,0.9-12.8,1.3c-1.4,0.1-2.8,0.3-4.2,0.4c-7,0.5-13.9,1.1-20.9,1.4c-8.1,0.3-16.2,0.8-24.3,1
	c-16.3,0.3-32.5,0.7-48.8,0.3c-33.3-0.8-66.5-2.6-99.7-5c-14.2-1-28.4-2.4-42.5-3.7c-7.2-0.7-14.3-1.7-21.4-2.6
	c-6-0.7-11.8-1.8-17.8-2.8c-5.4-1.1-10.8-2.1-16.1-3.4c-6-1.5-12.1-2.8-18-4.6c-6-1.8-12.1-3.4-17.9-5.5c-4-1.4-7.9-2.9-11.9-4.3
	c-5.3-1.9-10.4-4.2-15.4-6.5c0.1,0.1,0.3,0.1,0.4,0.2c-0.2-0.1-0.3-0.1-0.5-0.2c-0.4-0.2-0.9-0.4-1.3-0.6c0.4,0.2,0.8,0.4,1.3,0.6
	c-16.6-8.1-32.4-18.2-46.6-30c-7.5-6.6-14.2-13.9-20-22c-4-5.9-7.7-12-11.3-18.2c-3.9-6.6-7.7-13.3-11.4-20c-1.8-3.3-6-4.7-9.4-3
	c-3.3,1.7-4.8,6.1-3,9.4c4.6,8.3,9.3,16.6,14.1,24.8c6.6,11.2,13.6,22.1,22.6,31.5c7.8,8.1,16.8,15.1,26,21.6
	c9.5,6.7,19.6,12.7,30,17.9c7,3.5,14,6.6,21.3,9.3c4.2,1.6,8.5,3.1,12.7,4.7c1.4,0.5,2.8,0.9,4.2,1.3c2.9,0.9,5.7,1.7,8.6,2.6
	c3,0.9,6,1.7,9.1,2.5c4.1,1,8.3,2.3,12.4,3.1c4.6,1,9.2,2,13.8,3c3.9,0.8,7.9,1.4,11.9,2.1c3.3,0.6,6.5,1.2,9.8,1.6
	c8.1,1,16.1,2.1,24.2,2.9c16.5,1.6,33,3.1,49.5,4.2c16.9,1.2,33.8,2.2,50.7,3.1c15.5,0.8,31,1.2,46.6,1.5c7.3,0.2,14.6,0.1,21.8,0
	c8-0.2,16.1-0.2,24.1-0.5c8.1-0.3,16.3-0.5,24.5-1c8.9-0.6,17.8-1.2,26.6-2c4.1-0.4,8.2-0.7,12.3-1.2c4.8-0.7,9.6-1.4,14.3-2.1
	c8.2-1.2,16.3-2.9,24.4-4.4c3.4-0.6,6.8-1.6,10.2-2.4c3.5-0.8,6.9-1.6,10.3-2.5c4.1-1.2,8.3-2.2,12.3-3.5c2.1-0.7,4.2-1.4,6.3-2.1
	c2.3-0.8,4.7-1.5,7-2.4c4.2-1.7,8.3-3.4,12.4-5.1c7.7-3.1,15.1-7,22.2-11.2c9.8-5.8,18.9-12.7,27-20.6c2.4-2.3,4.6-4.7,6.8-7.2
	c1.8-2.1,3.8-4.2,5.5-6.4c8.6-11,16.8-22.2,23.5-34.4c3.4-6.2,6.3-12.9,8.3-19.6c1.1-3.4,1.9-6.8,2.5-10.3c0.4-2.2,0.8-4.4,1.1-6.5
	c0.1-0.6,0.2-1.2,0.3-1.8c0.1-1.5-0.1-3-0.2-4.4c-0.3-1.3-0.9-2.4-1.8-3.4c-1.3-1.5-3.2-2.3-5.1-2.4c-0.1,0-0.2,0-0.4,0
	C1299.7,1489.9,1298.5,1490.2,1297.5,1490.7L1297.5,1490.7L1297.5,1490.7z M738.4,1593.7C738.4,1593.7,738.4,1593.7,738.4,1593.7
	C738.4,1593.7,738.4,1593.7,738.4,1593.7C738.4,1593.7,738.4,1593.7,738.4,1593.7L738.4,1593.7L738.4,1593.7z"/>
<path style="fill:#161616;" d="M798.7,1401.7c-0.1,2.3,1.6,3.9,3.8,4.2c6.3,0.8,12.7,1.3,19.1,1.7c6.2,0.4,12.3,0.6,18.5,0.7
	c13.2,0.1,26.3,0.2,39.5,0.4c12.5,0.2,25,0.6,37.5,1.3c13,0.7,26,1.1,39.1,1.5c15.3,0.4,30.6,0.4,46,0.4c10.1,0,20.1,0,30.2,0.1
	c25,0.3,50,1.4,74.9,2.7c12.9,0.7,25.9,1.3,38.8,2.3c12.6,1,25.2,2.3,37.8,3.8c9.5,1.1,19,2.5,28.4,3.8c8.9,1.3,17.8,2.6,26.7,4.1
	c7.7,1.5,15.3,3.1,22.8,5.2c7.5,2.1,14.9,4.7,22,7.8c3,1.6,5.8,3.3,8.5,5.4c0.9,0.9,1.7,1.8,2.5,2.7c0.1,0.1,0.2,0.3,0.2,0.4
	c0,0.3,0.1,0.5,0.1,0.8c0.3,1.2,0.8,2.3,1.7,3.3c1.3,1.4,3.1,2.3,5,2.3c1.9,0.1,3.8-0.6,5.2-1.9c0.4-0.5,0.8-0.9,1.2-1.4
	c0.7-1.1,1.1-2.3,1.2-3.6c0.1-0.6,0.2-1.2,0.2-1.8c0-1.9-0.3-2.7-0.9-4.4c-0.6-1.6-1.6-3-2.6-4.4c-1.3-1.8-3-3.1-4.7-4.5
	c-2.4-2-5.1-3.6-7.8-5.1c-3-1.7-6.3-3-9.5-4.3c-2.8-1.1-5.6-2.1-8.4-3.1c-12.2-4.1-24.7-6.7-37.3-8.9c-6.1-1.1-12.1-1.9-18.2-2.7
	c-6-0.9-12-1.7-18-2.5c-12.3-1.6-24.7-3-37.1-4.2c-12.8-1.2-25.6-2.3-38.4-2.8c-12.2-0.5-24.5-1-36.7-1.5
	c-25.3-0.9-50.6-1.2-75.9-0.9c-13,0.2-26.1,0.4-39.1,0.6c-12.5,0.2-25,0.1-37.5-0.1c-13.2-0.2-26.3-0.4-39.5-0.6
	c-6.1-0.1-12.3-0.1-18.4,0c-6.2,0.1-12.5,0.4-18.7,0.5c-19.2,0.3-38.7,1.2-57.8-1.3c-0.1,0-0.3,0-0.4,0
	C800.5,1397.9,798.8,1399.8,798.7,1401.7L798.7,1401.7L798.7,1401.7z"/>
<path style="fill:#161616;" d="M803.3,1180c-11.9,0.3-23.9,1.1-35.6,3.1c-6.3,1.1-12.5,2.6-18.8,4.1c-1.7,0.4-3.4,0.8-5.1,1.2
	c-2,0.5-3.9,1.2-5.8,1.8c-4,1.2-8,2.5-11.9,4c-2.6,1-5.2,2-7.9,3c-1.4,0.5-2.8,1-4.2,1.6c-4.3,1.9-8.5,3.9-12.8,5.8
	c-3.6,1.6-7.1,3.6-10.7,5.4c-3.2,1.6-6.4,3.5-9.5,5.4c-3.8,2.3-7.5,4.7-11.1,7.2c-6.8,4.7-13.3,9.8-19.6,15.2
	c-2.7,2.4-5.3,4.9-7.8,7.5c-3.1,3.3-6.1,6.6-8.8,10.2c-2.4,3.2-4.7,6.4-6.9,9.8c-2.1,3.3-4.1,6.7-6,10.2c-4.1,7.4-8,14.8-11.7,22.3
	c-7.1,14.5-13.2,29.5-19.1,44.6c-3.3,8.3-6.5,16.7-9.6,25.2c-1.5,3.9-3,7.8-4.7,11.6c-0.9,2-1.8,3.9-2.7,5.9
	c-1.5,3.3-3.5,6.6-2.5,10.4c0.6,2.5,2.4,4.5,4.8,5.3c1.3,0.4,2.5,0.5,3.9,0.2c2-0.5,3.3-1.6,4.5-3.1c1-1.3,1.7-3,2.4-4.5
	c0.4-0.9,0.8-1.7,1.2-2.6c0.8-1.8,1.7-3.6,2.5-5.3c1.5-3.1,2.8-6.3,4.1-9.6c2.7-7.1,5.3-14.2,8.1-21.3c5.7-14.7,11.6-29.4,18.1-43.7
	c0.7-1.6,1.5-3.1,2.2-4.7c3.9-8,8-15.7,12.3-23.5c4.3-7.7,9.2-15,14.7-21.9c3.8-4.2,7.8-8.3,12-12.1c4.9-4.2,9.9-8.1,15.1-12
	c2-1.4,3.9-2.7,5.9-4c2.2-1.5,4.6-2.8,7-4.3c5.1-3.1,10.4-5.7,15.7-8.4c5.3-2.7,10.7-5,16.1-7.5c2.1-0.9,4.3-1.7,6.4-2.5
	c2.5-0.9,4.9-1.9,7.3-2.8c5.2-1.6,10.3-3.4,15.6-4.7c3.7-0.9,7.4-1.8,11.1-2.7c7.3-1.8,14.8-2.8,22.3-3.5c11.9-1,23.9-1.4,35.8-0.8
	c12.6,0.6,25.2,2.1,37.7,4.3c7.4,1.4,14.7,3.2,21.9,5.4c4.1,1.2,8.1,2.5,12.1,3.8c3.8,1.2,7.4,2.7,11.1,4.2c3.9,1.5,8.5-1.1,9.7-4.9
	c1.4-4.2-1-8.2-4.9-9.7c-5-1.9-10-3.8-15.1-5.5c-5.8-1.9-11.7-3.6-17.6-5.2c-11.8-3.1-23.8-4.8-35.9-6.2
	c-10.1-1.1-20.3-1.9-30.4-1.9C806.5,1179.9,804.9,1180,803.3,1180L803.3,1180L803.3,1180z"/>
<path style="fill:#161616;" d="M540.6,1328.2c-2.8,1.5-4,5.1-2.5,7.9c1.2,2.2,2.3,4.4,3.6,6.6c1.4,2.4,2.8,4.8,4.4,7.2
	c2.5,4,5.3,7.9,7.9,11.8c1,1.4,2,2.9,3,4.3c1.6,2.2,3.4,4.1,5.4,5.9c2.1,1.9,4.3,3.8,6.5,5.6c3.1,2.5,6.3,4.9,9.4,7.4
	c0,0,0.1,0.1,0.1,0.1c2.3,2.3,5.6,3.1,8.6,1.5c3.4-1.8,4.9-6.2,3-9.6c-1-1.8-2.2-3-3.9-4.2c-0.7-0.5-1.5-1-2.2-1.5
	c-1.6-1.1-3.2-2.1-4.8-3.1c-3.1-2.1-6.2-4.3-9.1-6.7c-3.2-2.9-5.7-6.4-8.3-9.9c-1.6-2.1-3.1-4.3-4.6-6.4c-1.4-2.1-2.8-4.2-4.1-6.4
	c-1.5-2.6-3-5.3-4.4-7.9c-1.1-2-3.1-3.1-5.3-3.1C542.4,1327.6,541.5,1327.8,540.6,1328.2L540.6,1328.2L540.6,1328.2z"/>
<path style="fill:#161616;" d="M1504.2,1288.5c-9,0.2-17.9,0.5-26.9,0.9c-8,0.4-16.1,0.9-24.1,1.7c-8.7,0.9-17.3,1.8-25.9,3.1
	c-4.3,0.7-8.6,1.4-12.9,2.2c-4,0.7-7.9,2-11.7,3.2c-2.5,0.8-4.9,1.7-6.9,3.4c-1.1,0.9-2.3,2.1-3,3.3c-0.8,1.3-1.5,2.7-2.1,4.2
	c-0.6,1.4-0.8,3.2-1.1,4.7c-0.2,1.5-0.4,2.9-0.5,4.4c-0.2,3.2-0.2,6.4-0.1,9.6c0.1,4.1,0.4,8.2,0.8,12.3c0.8,9.1,1.5,18.3,2.2,27.4
	c1.2,16.4,2,32.9,3,49.4c0.5,9,1.5,18,2.4,27c0.8,8.3,1.6,16.7,2.7,25c2.1,16.3,4.6,32.6,7.7,48.7c1.6,8.1,3.3,16.1,5,24.1
	c1.6,7.8,2.9,15.6,4.5,23.3c1.8,8.2,3.7,16.5,7.1,24.2c0.7,1.5,1.5,3,2.3,4.4c0.7,1.2,1.6,2.3,2.4,3.5c1.7,2.5,4.6,4.1,7.3,5.2
	c5.3,2.2,11.3,2.9,16.9,3.4c3.4,0.3,6.8,0.3,10.2,0.3c8.1,0.1,16.2-0.3,24.2-0.8c8.7-0.5,17.4-1.1,26.1-1.7
	c4.4-0.3,8.7-0.6,13.1-0.9c8.1-0.6,19.8,0.1,22.1-9.8c0.5-2.1,0.5-4-0.5-6c-0.9-1.8-2.5-3.1-4.4-3.7c-3.3-1.1-7.5,0.4-9.2,3.5
	c-0.3,0.1-0.7,0.1-1,0.1c-12.6,0.9-25.3,1.8-37.9,2.6c-6.7,0.4-13.4,0.8-20.1,1.1c-9.5,0.3-19.1,0.6-28.5-0.9
	c-1.9-0.4-3.7-0.9-5.5-1.5c-0.2-0.1-0.5-0.3-0.7-0.4c-0.2-0.2-0.4-0.4-0.6-0.7c-1.5-2.4-2.7-4.9-3.7-7.5c-2.4-7-4-14.3-5.4-21.5
	c-1.6-8.2-3.1-16.4-4.8-24.5c-1.6-7.9-3.3-15.9-4.8-23.8c-1.5-7.8-2.8-15.7-3.9-23.5c-1.3-8.6-2.5-17.2-3.5-25.8
	c-1-8.9-1.9-17.9-2.7-26.8c-0.7-8-1.3-15.9-1.8-23.9c-0.5-8-0.8-16-1.4-24.1c-1-16.3-2.5-32.6-3.6-48.8c4,0.6,8.1,1.1,12.1,1.5
	c5.7,0.5,11.5,1,17.2,1.5c6.9,0.6,13.7,1.4,20.6,1.5c11,0.2,22.1,0.3,33.1,0.5c7.9,0.1,15.8-0.2,23.7-0.3c16.4-0.3,32.7-1.3,49-2.9
	c17.1-1.6,34.3-3.1,51.2-5.9c8.3-1.3,16.4-3.1,24.2-6.2c2.1-0.8,4.2-1.7,6.2-3c2.4-1.6,4.3-3.7,5-6.6c0.4-1.8,0.4-3.2,0-4.9
	c-0.3-1.8-1.6-3.7-2.7-5.1c-3.6-4.4-8.9-6.7-14.1-8.5c-6-2.2-12.4-3.4-18.6-4.6c-6.5-1.2-13-2.1-19.6-2.9c-3.3-0.4-6.7-0.8-10-1.1
	c-8.5-0.6-17-1.4-25.6-1.7c-8.7-0.4-17.3-0.8-26-0.8c-3.7,0-7.3,0-11,0C1514.6,1288.4,1509.4,1288.4,1504.2,1288.5L1504.2,1288.5
	L1504.2,1288.5z M1480.8,1304.7c9-0.4,18-0.7,27.1-0.8c8.7-0.2,17.5,0,26.2,0c8.5,0.1,17,0.6,25.5,0.9c7.7,0.3,15.3,1.1,23,1.6
	c3,0.2,6.1,0.6,9.1,1c5,0.6,10.1,1.2,15.1,2.1c6.9,1.3,13.8,2.7,20.4,5.2c-1.7,0.6-3.4,1.1-5.1,1.5c-3.4,0.8-6.8,1.5-10.3,2.2
	c-5.9,1.1-12,2-18,2.6c-12.9,1.5-25.9,2.8-38.8,4c-7.9,0.6-15.8,1.2-23.6,1.6c-4.1,0.2-8.3,0.5-12.4,0.6c-4.8,0.1-9.6,0.2-14.3,0.3
	c-7.3,0.1-14.5,0.2-21.8,0.1c-10.3-0.1-20.5-0.3-30.8-0.4c-1.8,0-3.6-0.3-5.4-0.4c-5.1-0.4-10.1-0.9-15.2-1.3
	c-4.8-0.4-9.6-0.8-14.4-1.2c-4.2-0.4-8.3-1-12.4-1.6c0.1-1.8,0.2-3.6,0.5-5.4c0.2-0.7,0.4-1.3,0.6-2c0,0,0-0.1,0.1-0.1
	c0,0,0.1,0,0.1-0.1c0.1-0.1,0.3-0.1,0.4-0.2c3.9-1.3,7.7-2.3,11.7-3.3c4.5-1,9.1-1.6,13.7-2.3c8.5-1.3,17.1-2.2,25.6-3.1
	C1464.9,1305.6,1472.8,1305.1,1480.8,1304.7L1480.8,1304.7L1480.8,1304.7z M1406.7,1314.5c-0.1,0-0.2,0.1-0.3,0.1
	C1406.5,1314.6,1406.6,1314.6,1406.7,1314.5L1406.7,1314.5L1406.7,1314.5z M1405.2,1315.4c-0.3,0.3-0.5,0.6-0.8,0.9
	C1404.7,1316,1404.9,1315.7,1405.2,1315.4L1405.2,1315.4L1405.2,1315.4z M1404.9,1315.5c-0.1,0.1-0.2,0.1-0.3,0.2
	C1404.7,1315.6,1404.8,1315.5,1404.9,1315.5L1404.9,1315.5L1404.9,1315.5z"/>
<path style="fill:#161616;" d="M1677.5,1286.6c-3,0.1-5.5,0.9-8.2,2.1c-2.3,1.1-4.4,2.8-6.2,4.5c-2.3,2.1-4,4.8-5.4,7.6
	c-4.3,8.9-6.1,18.5-7.8,28.1c-1.5,8.3-2.9,16.6-4.2,24.9c-1.4,8.9-2.5,17.9-4.1,26.8c0,0.2-0.1,0.3-0.1,0.5c-1.3,0.4-2.7,0.6-4,0.8
	c-5,0.3-10,0.3-15.1,0.2c-5.8-0.1-11.6-0.1-17.4,0.4c-4.6,0.4-9.2,0.8-13.8,1.2c-4.1,0.4-8.3,1.1-12.4,1.7
	c-8.2,1.2-16.2,3.2-24.2,5.2c-7.9,2-15.7,4.7-23.4,7.3c-8,2.7-15.9,5.9-23.6,9.4c-1.7,0.8-3.4,1.7-5.2,2.6c-1.5,0.8-3,1.6-4.4,2.5
	c-2.5,1.5-5,3.3-7,5.5c-2.1,2.3-3.2,4.9-3.2,8.1c0,3.2,1.4,5.7,3.4,8.1c0.9,1.1,2.1,1.9,3.2,2.8c0.9,0.8,1.9,1.4,2.9,1.9
	c2.7,1.6,5.7,2.7,8.7,3.7c2.6,0.9,5.4,1.4,8.1,2c3,0.6,5.9,1.1,8.9,1.6c1.6,0.3,3.2,0.5,4.8,0.7c-0.2,0.1-0.5,0.1-0.7,0.2
	c-7.7,2.4-15.6,4.8-22.5,9.2c-4.7,3-8.8,6.7-11.9,11.3c-1.6,2.3-2,5.4-1.9,8.1c0.2,3.1,1,6.1,2.8,8.7c1.1,1.7,2.4,3.1,4.1,4.4
	c1.8,1.3,3.8,2.2,5.8,3.1c3.9,1.8,8.1,2.8,12.2,3.6c1.6,0.3,3.2,0.6,4.7,0.8c-0.8,0.3-1.6,0.7-2.4,1c-1.8,0.7-3.5,1.4-5.3,2.2
	c-3.8,1.8-7.5,3.7-11.1,6c-2.5,1.6-5,3.2-6.9,5.4c-1.5,1.7-2.4,3.3-3.2,5.5c-0.8,2.2-0.5,5,0.3,7.2c0.2,1,0.6,1.9,1.2,2.8
	c0.6,0.9,1.2,1.7,1.8,2.5c0.5,0.6,1,1.1,1.6,1.6c1.1,1,2.2,1.9,3.4,2.7c2,1.4,4.4,2.3,6.6,3.2c2.1,0.9,4.3,1.5,6.5,2.1
	c8.7,2.3,17.7,3.3,26.7,4.3c-4.6,2.1-9,4.7-13.2,7.5c-2.2,1.5-4.4,3.1-6.5,4.8c-2.3,2-4.4,4.3-6.3,6.7c-1.5,1.8-2.7,3.8-3.9,5.8
	c-1.5,2.6-2.9,5.4-3.2,8.4c-0.6,6.2,2.5,12.4,7.5,16c4.1,3,9,4.9,13.8,6.4c4.8,1.4,9.7,2.4,14.6,3.1c4,0.6,8,1.4,12.1,1.7
	c4.1,0.4,8.3,0.9,12.5,1c4.3,0.1,8.6,0.3,12.9,0c4.7-0.3,9.4-0.5,14-1.1c4.2-0.5,8.3-1,12.5-1.7c4.4-0.8,8.8-1.6,13.2-2.5
	c8.1-1.7,15.9-4,23.8-6.4c3.6-1.1,7.3-2.3,10.9-3.3c3.9-1.1,7.8-2.1,11.7-3.3c4.1-1.2,8.1-2.5,12.1-3.8c2.4-0.8,4.8-1.7,7.1-2.7
	c1-0.4,2-0.9,3-1.5c1.8-0.9,3.2-2.2,4.5-3.6c1.2,2.6,3.8,4.5,6.7,4.6c4.3,0.2,7.8-3.1,8.1-7.3c1.4-19.6,3-39.1,4.7-58.6
	c1.4-16.4,2.5-32.9,3-49.4c0.5-16.5,0-33,0.2-49.6c0.1-8.8,0.3-17.6,0.6-26.4c0.2-7.8,0.6-15.5,0.3-23.2c-0.2-4.7-0.4-9.4-0.9-14.1
	c-0.4-4.5-0.8-8.9-1.4-13.4c-0.4-3-0.8-6-1.4-9c-1.1-5.7-2.9-11.2-5-16.6c-1.9-4.9-4.7-9.3-8.1-13.2c-1.8-2.1-3.8-3.8-5.9-5.6
	c-2.5-2.1-5.6-3.4-8.6-4.6c-2.2-0.8-4.6-1.3-7-1.3C1678.1,1286.5,1677.8,1286.5,1677.5,1286.6L1677.5,1286.6L1677.5,1286.6z
	 M1677.9,1301.9c0.4,0,0.8,0,1.1,0c1,0.3,2,0.7,3,1.1c1.2,0.7,2.4,1.4,3.5,2.3c1.8,1.7,3.5,3.6,5,5.6c1.6,2.5,2.8,5.1,3.9,7.8
	c1.9,5.4,3.2,10.9,4.2,16.5c0.5,2.8,0.8,5.6,1.1,8.5c0.5,4.3,0.8,8.6,1.2,13c0-0.4-0.1-0.9-0.1-1.3c0.2,4,0.5,8,0.5,12
	c0,4,0,8-0.2,11.9c-0.3,8.4-0.6,16.9-0.7,25.3c-0.3,17.4-0.2,34.8-0.2,52.2c0,8.3-0.5,16.6-1,24.8c-0.5,9-1.2,17.9-1.9,26.8
	c-0.6,8.4-1.4,16.8-2.2,25.3c-0.7,8.2-1.3,16.5-2,24.7c-0.1,1.3-0.2,2.7-0.3,4c-0.2-0.2-0.5-0.4-0.8-0.6c-1.7-1.1-3.8-1.5-5.8-1
	c-2,0.4-3.4,1.6-4.6,3.1c0,0-0.1,0.1-0.1,0.1c-1.7,0.9-3.4,1.6-5.2,2.3c-6.7,2.3-13.5,4.3-20.3,6.2c-7.3,2-14.5,4.4-21.8,6.5
	c-4.2,1.2-8.5,2.4-12.7,3.5c-3.6,0.9-7.2,1.6-10.8,2.3c-2,0.4-4.1,0.7-6.1,1c-1.8,0.3-3.6,0.7-5.4,0.9c-3.7,0.5-7.5,0.9-11.2,1.4
	c-3.5,0.2-7,0.4-10.5,0.6c-2,0.1-4.2-0.1-6.2-0.1c-0.6,0-1.3,0-1.9,0c-1.2,0-2.4,0-3.6-0.1c-7.7-0.7-15.3-1.4-22.8-2.7
	c-5.6-1-11.2-2.3-16.4-4.6c-1.2-0.6-2.4-1.3-3.5-2.1c-0.2-0.2-0.4-0.4-0.6-0.6c-0.2-0.3-0.4-0.7-0.5-1c0,0,0,0,0,0c0,0,0-0.1,0-0.1
	c0-0.1,0.1-0.2,0.1-0.4c1.4-2.5,2.9-5,4.7-7.2c2.2-2.4,4.6-4.4,7.2-6.3c6.9-4.6,14.2-8.2,21.9-11.1c2.6-0.9,5.3-1.8,7.9-2.7
	c2.5-0.8,5.1-1.5,7.6-2.2c5.1-1.4,10.3-2.5,15.5-3.3c3.4-0.5,5.8-3.9,6-7.2c0.1-2-0.6-4-2-5.6c-1.2-1.3-3.4-2.6-5.3-2.5
	c-4.6,0.3-9.3,0.2-13.9,0.1c-4-0.1-8-0.2-12-0.5c-11.8-0.8-23.6-1.8-35.3-3.7c-4.9-1-9.8-2.1-14.4-4.1c-0.7-0.4-1.4-0.8-2.1-1.3
	c0,0,0,0,0.1,0c3.2-2.1,6.6-4,10.1-5.6c1.8-0.9,3.6-1.8,5.5-2.5c1.9-0.7,3.8-1.5,5.6-2.2c3.3-1,6.6-2.2,10-3c3.8-0.9,7.6-2,11.5-2.7
	c3.9-0.7,7.8-1.5,11.7-2c4.4-0.5,8.9-1.1,13.3-1.6c1.2-0.1,2.3-0.2,3.5-0.3c1.3,0,2.5,0,3.8,0c2.9,0,5.9,0,8.8,0c1.7,0,3.3,0,5,0
	c1,0,2.1,0,3.1,0c0.3,0,0.7,0,1.1,0c1.5,0,3,0,4.4-0.5c1.3-0.3,2.5-0.9,3.5-1.8c1.5-1.4,2.4-3.3,2.5-5.3c0.1-2-0.6-4-2-5.5
	c-1.5-1.6-3.2-2.2-5.3-2.5c-2.9-0.5-5.7-0.5-8.6-0.5c-0.6,0-1.1,0-1.7,0c-1.4,0-2.8,0-4.2,0.1c-3.3,0.2-6.6,0.5-9.9,0.7
	c-3.5,0-7,0-10.4-0.1c-16.5-0.3-33.1-0.9-49.4-3.7c-4-0.8-7.8-1.8-11.5-3.4c-0.6-0.3-1.1-0.7-1.7-1c-0.1-0.2-0.2-0.5-0.4-0.7
	c0-0.1,0-0.2-0.1-0.3c0.3-0.4,0.6-0.8,0.9-1.2c1.4-1.5,2.9-2.7,4.5-4c3.5-2.3,7.3-4,11.2-5.5c4.9-1.7,9.8-3.2,14.9-4.5
	c2.7-0.7,5.4-1.5,8.1-2.1c3-0.6,6-1.2,8.9-1.7c10-2,20.1-3.4,30.2-4.6c-0.7,0.1-1.4,0.1-2.1,0.2c3.1-0.3,6.2-0.6,9.4-0.8
	c1.4,0,2.9,0,4.3,0.1c1,0,2,0,3.1,0c0.8,0,1.6,0,2.5,0c1.9,0.1,3.7-0.3,5.5-1.1c3.1-1.5,4.7-5.3,3.9-8.5c-0.8-3.4-3.7-5.8-7.2-6
	c-3.9-0.2-7.7-0.1-11.6,0.2c-2.3,0-4.7-0.1-7-0.2c-6.5-0.3-13-0.6-19.4-0.9c-5.4-0.3-10.8-0.6-16.2-1.1c-10-0.9-20-1.6-29.9-3.4
	c-4.8-0.9-9.5-2-14-4c-0.2-0.1-0.3-0.2-0.5-0.3c2.5-1.6,5.2-3,7.9-4.3c2.3-1,4.5-2.1,6.8-3.1c4.7-1.9,9.3-3.7,14.1-5.4
	c6-2,12-4,18.1-5.8c5.4-1.6,10.9-3.1,16.4-4.2c3.6-0.7,7.3-1.5,10.9-2.2c3.3-0.7,6.7-1,10.1-1.4c5.9-0.8,11.9-1.3,17.8-1.8
	c-0.5,0-1,0.1-1.5,0.1c3.8-0.1,7.6-0.2,11.5-0.3c2.7-0.1,5.4,0,8.2,0c2.2,0,4.4,0.1,6.6,0.1c4.7-0.1,9.6-0.3,14-1.8
	c2.6-0.9,5-2.1,6.8-4.2c0.4-0.5,0.8-1,1.3-1.5c0.4-0.9,0.8-1.8,1.2-2.6c0.5-1.1,0.6-2.8,0.8-4c0.6-3.6,1.2-7.2,1.7-10.8
	c2.2-14.7,4.5-29.4,7.1-44c1.3-6.9,2.9-13.7,5.6-20.3c0.6-1.2,1.3-2.2,2.1-3.3c0.7-0.7,1.3-1.3,2-1.8c0.5-0.3,1.1-0.6,1.6-0.9
	C1677.2,1302.1,1677.5,1302,1677.9,1301.9L1677.9,1301.9L1677.9,1301.9z M1665.4,1328.9c0,0.2-0.1,0.5-0.1,0.7
	C1665.3,1329.3,1665.4,1329.1,1665.4,1328.9L1665.4,1328.9L1665.4,1328.9z M1506.6,1474c-0.1,0.2-0.2,0.4-0.3,0.6
	C1506.4,1474.4,1506.5,1474.2,1506.6,1474L1506.6,1474L1506.6,1474z M1506.1,1475.3c0,0.3-0.1,0.5-0.1,0.8
	C1506,1475.8,1506.1,1475.6,1506.1,1475.3C1506.1,1475.3,1506.1,1475.3,1506.1,1475.3L1506.1,1475.3L1506.1,1475.3z M1506.3,1475.7
	C1506.3,1475.7,1506.3,1475.7,1506.3,1475.7C1506.3,1475.7,1506.3,1475.7,1506.3,1475.7C1506.3,1475.7,1506.3,1475.7,1506.3,1475.7
	L1506.3,1475.7L1506.3,1475.7z M1506.3,1475.7C1506.3,1475.8,1506.3,1475.8,1506.3,1475.7c0,0.2,0,0.4,0,0.5
	C1506.3,1476.1,1506.3,1475.9,1506.3,1475.7L1506.3,1475.7L1506.3,1475.7z M1507.2,1476.5c0.2,0.2,0.4,0.3,0.5,0.5
	C1507.5,1476.8,1507.4,1476.7,1507.2,1476.5L1507.2,1476.5L1507.2,1476.5z M1506.5,1517.9c0,0.1,0,0.2,0,0.3
	C1506.5,1518.1,1506.5,1518,1506.5,1517.9L1506.5,1517.9L1506.5,1517.9z M1521.9,1575.8c0,0.3,0.1,0.6,0.1,0.9
	C1521.9,1576.5,1521.9,1576.1,1521.9,1575.8L1521.9,1575.8L1521.9,1575.8z M1522.7,1576c-0.1,0.1-0.1,0.2-0.2,0.4
	C1522.6,1576.2,1522.6,1576.1,1522.7,1576L1522.7,1576L1522.7,1576z M1541.6,1585.6c0.3,0,0.6,0.1,0.8,0.1
	C1542.2,1585.7,1541.9,1585.6,1541.6,1585.6L1541.6,1585.6L1541.6,1585.6z"/>
<path style="fill:#161616;" d="M1635.7,1319.5c-0.5,6.8-0.9,13.6-1.3,20.4c-0.3,4.3-0.5,8.6-0.6,12.9c-0.1,4.8-0.2,9.7-0.1,14.5
	c0,2.5,0.1,4.9,0.2,7.3c0.1,3,0.5,6.2,0.1,9.1c-0.5,3.1,2.1,6.2,4.9,7.1c1.8,0.6,3.8,0.4,5.5-0.5c1.7-0.9,2.8-2.3,3.5-4.1
	c0.8-2.1,1.2-4.3,1.1-6.5c0-1.1-0.1-2.2-0.2-3.4c-0.1-2.6-0.2-5.2-0.3-7.9c-0.2-5-0.1-9.9,0-14.9c0-4.2,0.3-8.5,0.5-12.7
	c0.4-6.9,0.8-13.9,1.3-20.8c0.3-4-3-7.4-6.9-7.6c-0.1,0-0.2,0-0.4,0C1639.1,1312.6,1635.9,1315.7,1635.7,1319.5L1635.7,1319.5
	L1635.7,1319.5z"/>
<path style="fill:#161616;" d="M1228.6,1209.1c-7.5,0.1-15,0.3-22.5,0.5c-2.1,0.1-3.9,0.5-5.6,2c-1.5,1.4-2.4,3.3-2.5,5.3
	c-0.2,3.9,3.1,8.2,7.3,8.1c9.1-0.3,18.3-0.5,27.4-0.6c2.3,0,4.5,0.2,6.8,0.3c4.8,0.3,9.7,0.5,14.5,0.8c6.7,0.4,13.3,1.5,19.9,2.3
	c5.6,0.7,11.1,1.8,16.6,2.8c9.6,2.2,19.2,4.4,28.4,7.9c5.1,1.9,10.1,3.9,15.1,5.9c4.7,1.9,9.3,4.1,14,6.3c6,2.9,12,6,17.8,9.4
	c6.1,3.6,11.9,7.6,17.5,12c5.1,4.5,9.9,9.3,14.7,14.2c5,5.2,9.9,10.6,16,14.5c2.8,1.8,6.5,1.5,9-0.7c2.9-2.7,3.3-7.5,0.5-10.5
	c-1.4-1.5-2.9-2.8-4.4-4.1c-5.4-4.7-10.1-10.2-15.2-15.3c-5.9-5.9-12.1-11.6-19-16.3c-6.7-4.6-13.5-8.7-20.7-12.4
	c-8-4.1-16.1-7.9-24.3-11.4c-15.1-6.5-30.9-11.9-47.1-14.8c-4.6-0.8-9.2-1.7-13.8-2.5c-3.8-0.7-7.7-1-11.6-1.5
	c-3.4-0.4-6.9-1.1-10.4-1.3c-5.2-0.3-10.4-0.6-15.6-0.8c-2.3-0.1-4.6-0.2-6.9-0.4c-0.5,0-1,0-1.5,0
	C1231.8,1208.9,1230.2,1209,1228.6,1209.1L1228.6,1209.1L1228.6,1209.1z"/>
<path style="fill:#161616;" d="M1408.6,1027.3c-1.4,0.1-2.9,0.3-4.3,0.6c-0.9,0.3-1.9,0.7-2.8,1.1c-1.1,0.5-2.9,2.2-3.5,3.2
	c-0.5,0.8-0.9,1.7-1.3,2.6c-0.3,1.1-0.4,2.2-0.4,3.3c0,0.6,0,1.1,0,1.7c0,1.4,0,2.7-0.1,4.1c-0.2,5.3-0.5,10.7-0.8,16
	c-0.3,5.5-0.5,11-1,16.5c-0.6,6.9-1.1,13.8-2.3,20.6c-0.4,2-0.9,4-1.7,5.9c-0.2,0.3-0.3,0.6-0.5,0.9c-1.2,0.2-2.4,0.4-3.6,0.5
	c-15.5,1.2-31,1.2-46.5,0.7c-16.1-0.5-32.2-1.3-48.3-2c-19.8-0.8-39.6-1.6-59.4-1.7c-4.2,0-7.9,3-8.1,7.3c-0.2,4.1,3.1,8,7.3,8.1
	c17.7,0.1,35.4,0.7,53.1,1.5c16.1,0.7,32.1,1.6,48.2,2.1c8.4,0.3,16.9,0.7,25.3,0.6c8.3-0.1,16.6-0.3,25-0.8
	c2.2-0.1,4.4-0.3,6.6-0.5c1.3-0.2,2.6-0.3,4-0.5c3.3-0.6,6-2.5,8.1-5.1c3.4-4.1,4.6-9.5,5.5-14.5c0.7-3.6,1.1-7.2,1.5-10.9
	c0.9-8,1.5-16,1.9-24.1c0.4-7.2,0.7-14.3,1-21.5c5.1-0.1,10.2,0.5,15.3,1.2c4.2,0.6,8.4,1.2,12.6,1.8c7.7,1.1,15.4,2.2,23.1,3.5
	c2.5,0.5,5.1,1,7.5,1.9c0.5,0.3,1,0.6,1.4,0.9c0.3,0.6,0.6,1.2,0.9,1.9c1,3.3,1.4,6.7,1.8,10.1c0.5,7.5,0.8,15,0.7,22.6
	c-0.1,8.6-0.2,17.1-0.4,25.7c-0.3,16.2,0.1,32.5,0.1,48.8c0,16.5-0.4,33.1-1.1,49.6c-0.8,16.5-1.8,32.9-2,49.4
	c-0.1,4.7,0,9.4,0,14.2c0.1,5.2-0.1,10.4,0.9,15.5c0.6,3.2,3.7,5.6,6.8,5.7c3.9,0.2,7.6-3,7.7-7c0-1.7,0.2-3.4,0.2-5.1
	c0-2-0.1-3.9-0.1-5.9c-0.1-3.7-0.1-7.4-0.1-11.1c0-7.9,0.2-15.8,0.6-23.8c0.8-16,1.7-31.9,2.1-47.9c0.2-8.3,0.5-16.6,0.5-24.8
	c0-8.8-0.1-17.5-0.2-26.3c-0.2-16.3,0.1-32.5,0.3-48.7c0.1-8.1,0.2-16.2-0.3-24.3c-0.5-8.6-0.7-17.5-4.6-25.3
	c-2.3-4.6-6.8-7.5-11.6-9.2c-1.9-0.6-4-1-5.9-1.4c-8.3-1.7-16.7-2.8-25-4c-7.8-1.1-15.7-2.3-23.6-3.1c-1.7-0.2-3.4-0.3-5-0.3
	C1412.4,1027,1410.5,1027.1,1408.6,1027.3L1408.6,1027.3L1408.6,1027.3z M1472,1052.2c0.1,0.2,0.3,0.4,0.4,0.5
	C1472.2,1052.6,1472.1,1052.4,1472,1052.2L1472,1052.2L1472,1052.2z"/>
<path style="fill:#161616;" d="M831.8,1080.7c-1.3,18-2.7,36-3.7,54.1c-0.5,7.9-0.9,15.7-1.3,23.6c-0.4,7.8-1,15.5-1.6,23.3
	c-0.2,3.3,2,6.4,5.1,7.4c3.7,1.2,8.2-0.9,9.3-4.7c1.3-4.2,1.6-8.5,1.9-12.9c0.3-3.9,0.5-7.8,0.7-11.6c0.4-7.9,0.8-15.7,1.3-23.6
	c1-18.3,2.4-36.5,3.7-54.7c0.3-4.2-3.2-7.9-7.3-8.1c-0.1,0-0.2,0-0.4,0C835.4,1073.4,832.1,1076.7,831.8,1080.7L831.8,1080.7
	L831.8,1080.7z"/>
<path style="fill:#161616;" d="M586.8,977.1c-3,0.6-5.3,3.5-5.4,6.5c-0.2,3.6,2.8,7.4,6.7,7.3c1.1,0,2,0,3.1,0.1
	c0.1,0,0.2,0.1,0.3,0.1c0.9,0.5,1.7,1.1,2.6,1.7c1.1,1,2.1,2.2,3,3.4c1.5,2.4,2.6,5,3.7,7.6c1.1,3,2,6.1,2.8,9.2
	c0.9,3.5,1.4,7,1.9,10.6c0.1,1.5,0.2,3,0.3,4.5c0.3,4.7-0.2,9.4-1,14c-0.7,3.2-1.6,6.3-2.9,9.3c-0.8,1.5-1.6,2.8-2.6,4.2
	c-0.5,0.5-1.1,1-1.6,1.5c-0.5,0.3-0.9,0.5-1.4,0.7c-0.4,0.1-0.7,0.2-1.1,0.2c-0.5,0-1,0-1.5-0.1c-0.4-0.1-0.8-0.3-1.2-0.4
	c-0.9-0.5-1.9-1.1-2.7-1.7c-0.5-0.5-0.9-1-1.4-1.5c-1-1.7-1.9-3.5-2.6-5.4c-3-8.8-4.4-18.1-5.8-27.3c-1-6.7-1.4-13.4-2-20.2
	c-0.2-3.1-0.5-6.3-0.7-9.4c-0.1-2-0.5-3.7-1.9-5.3c-1.3-1.4-3.1-2.3-5-2.4c-1.9-0.1-3.8,0.6-5.2,1.9c-1.3,1.2-2.5,3.2-2.4,5
	c0.3,3.8,0.5,7.7,0.9,11.5c0.4,4.2,0.7,8.4,1.1,12.5c0.2,1.9,0.2,3.8,0.5,5.7c0.3,2.2,0.6,4.3,0.9,6.4c0.6,3.9,1.2,7.8,2,11.7
	c0.4,2.2,0.9,4.3,1.4,6.4c1.3,5.4,2.9,10.9,5.7,15.7c2.4,4.2,6,7.3,10.3,9.5c2.9,1.4,5.8,2.2,9.1,2.4c3.1,0.2,6.1-0.8,9-2
	c1.3-0.5,2.6-1.5,3.7-2.3c1-0.8,2-1.6,2.9-2.5c1.9-2,3.5-4.2,4.8-6.7c2.9-5.3,4.2-11,5.3-16.9c0.8-4.6,1.3-9.4,1-14
	c-0.2-2.6-0.2-5.4-0.6-8c-0.5-3.8-1-7.5-1.9-11.2c-1.2-4.9-2.8-9.7-4.8-14.4c-2-4.8-4.7-9.3-8.5-12.9c-2.1-2-4.6-3.9-7.3-4.8
	c-1.7-0.6-3.5-0.9-5.4-1c-0.2,0-0.5,0-0.7,0C590.2,976.4,588.5,976.7,586.8,977.1L586.8,977.1L586.8,977.1z M589.9,990.7
	c0.1,0,0.2,0,0.3,0.1C590.1,990.8,590,990.8,589.9,990.7L589.9,990.7L589.9,990.7z M577.8,999.6c0,0.2,0,0.4,0,0.6
	C577.8,1000,577.8,999.8,577.8,999.6L577.8,999.6L577.8,999.6z M563.6,1003C563.6,1002.9,563.6,1002.9,563.6,1003
	c0-0.4-0.1-0.7-0.1-1C563.5,1002.3,563.5,1002.6,563.6,1003L563.6,1003L563.6,1003z M563.5,1002c0-0.3-0.1-0.6-0.1-0.9
	C563.4,1001.3,563.5,1001.7,563.5,1002L563.5,1002L563.5,1002z"/>
<path style="fill:#161616;" d="M611.1,1011.5c-10.3,1.2-20.7,2.5-31,3.8c-1.6,0.2-3.2,1.5-4,2.8c-0.9,1.5-1.3,3.3-0.9,5
	c0.4,1.6,1.4,3.1,2.8,4c1.6,1,3.2,1.1,5,0.9c10.3-1.3,20.7-2.5,31-3.8c1.6-0.2,3.2-1.5,4-2.8c0.9-1.5,1.3-3.3,0.9-5
	c-0.4-1.6-1.4-3.1-2.8-4c-1.1-0.7-2.3-1-3.5-1C612.1,1011.4,611.6,1011.5,611.1,1011.5L611.1,1011.5L611.1,1011.5z"/>
<path style="fill:#161616;" d="M245.5,1500.6c-0.2,4.1,3.1,8,7.3,8.1c19.3,0.3,38.5,0.6,57.8,0.5c18.7-0.1,37.5-0.2,56.2-0.3
	c33.1-0.2,66.3,0.7,99.4,1.2c33.7,0.5,67.5,1,101.2,1.4c11.3,0.2,22.5,0.3,33.8,0.1c5.3-0.1,10.7-0.2,16-0.1c5.7,0,11.4,0,17.2-0.7
	c3.3-0.4,5.8-4,6-7.1c0.1-2-0.6-4-2-5.5c-1.2-1.3-3.4-2.6-5.3-2.5c-0.9,0.1-1.9,0.2-2.8,0.2c-4.7,0.3-9.4,0.3-14.1,0.2
	c-2.2,0-4.5,0-6.7,0c-7.8,0.1-15.5,0.3-23.2,0.3c-16.9,0-33.9-0.4-50.9-0.7c-34.2-0.6-68.4-0.9-102.6-1.5
	c-15.7-0.3-31.4-0.7-47.1-0.7c-16.4,0-32.8,0.1-49.2,0.2c-12.4,0.1-24.8,0.3-37.1,0.1c-15.3-0.2-30.5-0.3-45.8-0.6c0,0-0.1,0-0.1,0
	C249.3,1493.3,245.7,1496.4,245.5,1500.6L245.5,1500.6L245.5,1500.6z"/>
<path style="fill:#161616;" d="M1363.8,1481.6c-17.4,0.3-34.9,0.8-52.3,1c-0.9,0-1.7,0-2.6,0c-4.2,0.1-7.9,3-8.1,7.3
	c-0.2,4,3.1,8.1,7.3,8.1c17.9-0.3,35.7-0.7,53.6-1c8.3-0.1,16.5-0.2,24.8,0c8.2,0.2,16.4,0.9,24.6-0.1c0.7-0.1,1.5-0.2,2.2-0.3
	c3.2-0.4,5.6-3.8,5.7-6.8c0.2-4-3-7.5-7-7.7c-2.5-0.1-5-0.1-7.5,0c-1.7,0-3.4,0-5.1,0c-3.8-0.1-7.6-0.3-11.4-0.4
	c-3.8-0.1-7.6-0.2-11.4-0.2C1372.3,1481.4,1368.1,1481.5,1363.8,1481.6L1363.8,1481.6L1363.8,1481.6z"/>
<path style="fill:#161616;" d="M1727.2,1473.1c-6.7,0.1-13.3,0.1-20,0.1c-4,0-7.5,2.9-7.7,7c-0.2,3.9,3,7.6,7,7.7
	c7.1,0.1,14.3,0,21.4-0.1c8.6-0.1,17.2-0.2,25.8,0c15.7,0.2,31.5,0.9,47.2,1.7c2.8,0.1,5.6,0.2,8.4,0.3c4.8,0.1,11,0.2,13.9-4.4
	c1.8-2.8,1.2-7.3-1.9-9.1c-1-0.6-1.9-1-3.1-1.2c-1-0.2-1.9-0.3-2.8-0.5c-0.9-0.1-1.9-0.1-2.8-0.2c-1.7,0-3.5,0-5.2-0.1
	c-3.9-0.1-7.7-0.3-11.6-0.4c-7.6-0.3-15.2-0.6-22.9-0.8c-7.1-0.2-14.2-0.3-21.2-0.3C1743.5,1472.9,1735.3,1473,1727.2,1473.1
	L1727.2,1473.1L1727.2,1473.1z"/>
<path style="fill:#161616;" d="M250.7,197.1c-4.2,0-7.6,3.5-7.6,7.6c0,210.9,0,421.8,0,632.7c0,209.3,0,418.6,0,627.9
	c0,108,0,216,0,324c0,4.2,3.5,7.7,7.7,7.7c209.6,0,419.2,0,628.8,0c207.9,0,415.9,0,623.8,0c110.7,0,221.3,0,332,0
	c4.2,0,7.7-3.5,7.7-7.7c0-104.6,0-209.3,0-313.9c0-84.8,0-169.6-0.2-254.4c0-19.5,0-38.9,0-58.4c0-209,0.1-417.9,0.1-626.9
	c0-110.3,0-220.7,0-331.1c0-4.2-3.5-7.6-7.6-7.6c-209.7,0-419.4,0-629,0c-210,0-420,0-630,0C467.7,197.1,359.2,197.1,250.7,197.1
	L250.7,197.1L250.7,197.1z M882.8,212.4c208.8,0,417.6,0,626.3,0c106.2,0,212.3,0,318.5,0c0,206.7,0,413.4,0,620.2
	c0,134,0,268.1,0,402.1c-0.1,97-0.2,194-0.2,291.1c0,85.3,0,170.7,0,256c-206.6,0-413.3,0-619.9,0c-208.8,0-417.6,0-626.4,0
	c-107.6,0-215.3,0-322.9,0c0-207.1,0-414.2,0-621.4c0-209.9,0-419.8,0-629.7c0-106.1,0-212.2,0-318.2
	C466.5,212.4,674.7,212.4,882.8,212.4L882.8,212.4L882.8,212.4z"/>
</svg>
