<?xml version="1.0" encoding="utf-8"?>
<!-- Generator: Adobe Illustrator 22.1.0, SVG Export Plug-In . SVG Version: 6.00 Build 0)  -->
<svg version="1.1" id="Layer_1" xmlns="http://www.w3.org/2000/svg" xmlns:xlink="http://www.w3.org/1999/xlink" x="0px" y="0px"
	 viewBox="0 0 2000 2000" style="enable-background:new 0 0 2000 2000;" xml:space="preserve">
<g>
	<path style="fill:#161616;" d="M677.2,793.9c-0.7,0.3-1.3,0.7-1.9,1.2c-1.1,1-1.5,2.2-2.1,3.5c-0.4,0.9-0.4,2.4-0.5,3.4
		c-0.1,1.1-0.3,2.2-0.4,3.3c-0.2,1.4-0.4,2.8-0.6,4.1c-0.7,3.5-1.6,6.9-3,10.2c-1.4,2.7-3,5.2-4.9,7.5c-1.8,1.9-3.7,3.7-5.7,5.3
		c-5.2,3.5-10.7,6.1-16.5,8.4c-11.7,4.2-24,6.3-36.2,8.7c-7.5,1.5-15,2.9-22.5,4.5c-3.4,0.8-6.9,1.4-10.3,2.3
		c-4.3,1.1-8.5,2.3-12.8,3.4c-3.7,1-7.3,2.3-10.9,3.4c-4.8,1.5-9.4,3.5-14,5.6c-5.1,2.3-10.1,5-14.9,7.9c-5.1,3-9.8,6.3-14.6,9.7
		c-3.4,2.4-6.7,4.8-9.9,7.4c-6,4.8-11.5,10-16.7,15.7c-3.5,3.9-6.9,7.8-10.1,12c-3.2,4-6.1,8.3-8.7,12.8c-2.9,5-5.2,10.3-7.3,15.6
		c-2.2,5.5-3.8,11.1-5.3,16.7c-0.5,1.7-0.7,3.6-1.1,5.3c-0.4,2-0.8,4.1-1.1,6.2c-0.6,4.2-1.1,8.4-1.5,12.6c-0.4,4.5-0.7,9-1,13.4
		c-0.2,2.2-0.3,4.4-0.4,6.6c0,0.4,0,0.8,0,1.2c-1.7-0.9-3.5-1.6-5.2-2.4c-1.7-0.8-3.6-1.4-5.4-1.5c-1-0.1-2,0-3,0.2
		c-1.3,0.3-2.5,0.8-3.7,1.2c-1.9,0.7-3.5,2.2-5,3.5c-1.6,1.4-2.9,3-4.2,4.6c-1.4,1.7-2.2,3.8-3,5.8c-0.8,1.9-1.5,3.8-2,5.8
		c-2.4,8.5-2.5,18,0.8,26.2c1.6,3.9,3.8,7.6,6.7,10.6c3.2,3.3,7.3,5.7,11.6,7.3c2.2,0.8,4.6,1.1,7,1.5c2,0.3,4.2,0.3,6.3,0.3
		c2.2,0,4.4-0.2,6.5-0.5c1.4-0.2,2.9-0.4,4.2-0.8c0.1,0,0.1,0,0.2-0.1c1.1,2.5,2,5.1,2.9,7.6c1.3,3.3,2.6,6.6,4,9.8
		c3,6.7,6.6,13.2,10.8,19.3c2.6,3.7,5.2,7.3,8,10.8c2.4,2.9,5.1,5.6,7.7,8.4c2.6,2.7,5.4,5.2,8.1,7.7c2.9,2.7,6,5.3,9.2,7.7
		c12.5,9.5,26.4,17.6,41.4,22.3c3.8,1.2,7.6,2.3,11.5,3.1c4.2,0.9,8.5,1.6,12.9,2.1c7.3,1,14.8,1.6,22.2,1.5c8.4-0.2,16.7-1,25-2
		c7.3-0.8,14.5-1.8,21.7-3.1c7.5-1.3,14.9-2.8,22.3-4.5c7.5-1.7,14.8-4,22-6.5c7.6-2.6,15.1-5.9,22.4-9.3
		c6.7-3.1,13.2-6.7,19.5-10.7c6.9-4.4,13.3-9.3,19.4-14.7c2.8-2.5,5.3-5.4,7.9-8.2c2.8-3,5.3-6.2,7.8-9.5
		c9.6-12.5,17.4-26.6,23-41.3c5.4-14.3,8-29.5,9.3-44.7c0.5-6.4,0.4-12.9,0.1-19.3c-0.3-7-1.2-14.1-2.6-21c-1.3-6.8-3.3-13.5-6-20
		c-1.4-3.4-3.6-6.5-5.8-9.5c-1.4-1.9-3-3.6-4.5-5.4c2.2-3.6,5.2-6.7,7.8-10c2.3-2.9,4.4-5.9,6.2-9.2c2.3-4.3,3.9-9,5-13.8
		c0.6-2.6,1-5.4,1.2-8c0.2-2.4,0.3-4.8-0.2-7.2c-0.5-2.7-2-5.7-4.6-7c-1.6-0.8-2.6-1.2-4.4-1.3c-0.9-0.1-1.8,0-2.7,0
		c-2.2,0.1-4.4,0.4-6.5,0.4c-3,0.1-5.9-0.2-8.8-0.6c-2.6-0.5-5.2-1.1-7.7-1.8c-3-0.8-5.9-2-8.7-3.3c-6.5-3.3-12.8-7.2-18.5-11.7
		c-4.1-3.6-7.6-7.8-10.9-12.2c-7-10-13.6-20.4-19.6-31.1c-2.8-4.9-5.5-9.9-8-14.9c-1.2-2.5-2.5-5-3.7-7.5c-1.4-2.7-2.5-5.7-4.1-8.3
		c-1.3-2.2-3.4-3.4-5.7-3.4C679.3,793.2,678.2,793.4,677.2,793.9L677.2,793.9L677.2,793.9z M574.4,870.9c3.2-0.9,6.4-1.6,9.7-2.3
		c3.4-0.8,6.8-1.6,10.3-2.3c8.4-1.7,16.9-3.4,25.3-5.2c7.5-1.6,14.9-3.3,22.2-5.8c10.1-3.5,20.3-8.2,28.2-15.5
		c3.4-3.1,6.2-6.9,8.5-10.9c1.5-2.5,2.7-5.2,3.6-8c0.6,1.3,1.1,2.6,1.7,3.8c1.6,3.6,3.5,7,5.3,10.4c1.6,2.9,3.2,5.8,4.8,8.7
		c5.7,9.5,11.5,19,18.3,27.8c6.7,8.7,15.6,15.4,25.1,20.9c4.7,2.7,9.8,5.1,14.9,6.9c2.4,0.9,4.9,1.4,7.4,2c3.3,0.8,6.7,1.3,10,1.7
		c2.6,0.3,5.2,0.3,7.7,0.1c0.4,0,0.9-0.1,1.3-0.1c-0.1,0.9-0.2,1.9-0.4,2.8c-0.7,3.5-1.8,6.9-3.2,10.2c-2.2,4.3-5.2,8.1-8.2,11.9
		c-2.3,2.9-4.8,5.6-6.7,8.9c-0.9,1.6-1.5,3.2-1.9,5c-0.3,1.1-0.4,2.2-0.3,3.3c0,1.5,0.4,3.4,1.2,4.7c1,1.7,2.2,3.1,3.5,4.6
		c1.6,1.9,3.2,3.8,4.7,5.8c0.8,1.3,1.6,2.6,2.3,3.9c0.6,1.2,1.1,2.4,1.6,3.6c1.6,4.8,3,9.6,3.9,14.5c0.9,4.7,1.5,9.4,2,14.2
		c0.5,6.4,0.6,12.7,0.3,19.1c-0.4,6.4-1.1,12.8-2.1,19.1c-1,5.3-2.2,10.6-3.8,15.7c-1.7,5.7-3.7,11.2-6,16.6
		c-2.8,5.7-5.8,11.2-9.1,16.6c-3.3,5.5-7.2,10.7-11.1,15.8c-3.3,3.8-6.6,7.5-10.2,11c-3.6,3.6-7.7,6.7-11.8,9.8
		c-6.7,4.5-13.5,8.6-20.8,12.3c-7.3,3.7-14.9,6.9-22.6,9.9c-6,2.1-12,4-18.2,5.6c-6.6,1.7-13.3,3.1-20,4.4
		c-12.2,2.3-24.6,3.9-37,5.2c-3.3,0.3-6.7,0.5-10,0.6c-3.8,0.1-7.6,0-11.3-0.2c-6.7-0.3-13.4-1.3-20.1-2.4c-4.5-0.9-8.9-2-13.3-3.5
		c-2.4-0.8-4.9-1.6-7.3-2.6c-1.8-0.7-3.6-1.5-5.3-2.3c-5-2.7-10-5.4-14.8-8.5c-4.7-3.1-9.3-6.4-13.7-10c-4.1-3.7-8.1-7.4-12-11.3
		c-3.9-4-7.6-8.2-10.9-12.7c-2.2-3.2-4.4-6.4-6.3-9.8c-2.3-4.1-4.4-8.2-6.3-12.5c-1.8-4-3.3-8.1-4.8-12.1c-0.9-2.3-1.8-4.7-2.9-6.9
		c-0.7-1.4-1.7-2.6-2.7-3.8c-1.4-1.7-3.9-2.6-6-2.8c-1.9-0.2-3.6,0.3-5.4,1c-2,0.7-3.9,1.1-6,1.4c-3,0.2-6.1,0.3-9.1-0.1
		c-1.4-0.3-2.7-0.7-4.1-1.3c-1.2-0.6-2.2-1.3-3.3-2.1c-0.8-0.7-1.5-1.5-2.1-2.3c-0.9-1.5-1.7-2.9-2.4-4.5c-0.5-1.7-0.9-3.4-1.1-5.1
		c-0.1-2.7,0-5.3,0.4-8c0.6-2.8,1.4-5.5,2.6-8.1c0.4-0.8,0.9-1.6,1.5-2.3c0.7-0.8,1.5-1.5,2.3-2.2c0,0,0.1,0,0.1-0.1
		c1.2,0.4,2.3,0.9,3.5,1.4c2.7,1.3,5.4,2.7,8.1,4.2c1.1,0.6,2.1,1.2,3.1,1.9c2,1.2,3.9,2.5,5.8,3.8c3.3,2.3,8.2,1,10.3-2.3
		c2.3-3.6,1-7.9-2.3-10.3c-0.9-0.6-1.7-1.2-2.6-1.8c0.2-0.6,0.3-1.2,0.3-1.8c0-3.4,0.4-6.7,0.6-10.1c0.2-3.5,0.4-7,0.7-10.5
		c0.3-3.7,0.6-7.4,0.9-11.1c0.3-2.9,0.7-5.8,1.1-8.7c0.6-3.1,1.2-6.2,2.1-9.3c0.6-2.3,1.2-4.7,2-7c1.6-5,3.6-9.8,5.7-14.6
		c3.3-6.6,7.4-12.7,11.9-18.5c4.4-5.3,8.9-10.5,13.8-15.4c4.6-4.6,9.8-8.5,14.8-12.6c3.2-2.2,6.3-4.4,9.5-6.7
		c4.6-3.2,9.6-6,14.6-8.7c5.1-2.7,10.3-5.1,15.7-7.2C558.4,875.3,566.4,873.1,574.4,870.9L574.4,870.9L574.4,870.9z M657.6,832.8
		c-0.2,0.1-0.3,0.2-0.5,0.3C657.3,833,657.5,832.9,657.6,832.8L657.6,832.8L657.6,832.8z M510,901.2c-0.2,0.1-0.4,0.3-0.6,0.4
		C509.6,901.4,509.8,901.3,510,901.2L510,901.2L510,901.2z M771.9,969c0.1,0.2,0.1,0.4,0.2,0.5C772,969.3,772,969.2,771.9,969
		L771.9,969L771.9,969z M458.8,1071.7c-0.3,0.1-0.7,0.3-1,0.4c0,0,0,0,0,0C458.1,1072,458.5,1071.8,458.8,1071.7L458.8,1071.7
		L458.8,1071.7z M457.5,1072.2c-0.2,0.1-0.4,0.1-0.5,0.2c0,0,0.1,0,0.1-0.1C457.2,1072.3,457.3,1072.3,457.5,1072.2
		C457.4,1072.2,457.5,1072.2,457.5,1072.2L457.5,1072.2L457.5,1072.2z M604.5,1157.7c-0.3,0-0.5,0.1-0.8,0.1
		C604,1157.8,604.3,1157.8,604.5,1157.7L604.5,1157.7L604.5,1157.7z"/>
	<path style="fill:#161616;" d="M583.8,719c-11.2,0.2-22.4,1.9-33.2,5.1c-5.1,1.5-10,3.3-14.9,5.4c-2.6,1.1-5.3,2.3-7.9,3.6
		c-2.4,1.1-4.9,2.3-7.3,3.5c-4,2.1-8,4.2-12,6.3c-3.3,1.8-6.5,3.9-9.6,5.9c-3.3,2-6.3,4.4-9.4,6.7c-3,2.2-6,4.5-8.9,6.8
		c-3.1,2.4-6.1,4.9-9.1,7.5c-2.6,2.3-5.3,4.5-7.9,6.9c-2.9,2.7-5.9,5.3-8.7,8.1c-3.2,3.2-6.5,6.4-9.7,9.6
		c-5.4,5.3-10.5,10.8-15.7,16.2c-10.3,11-20.3,22.4-28.5,35.1c-4.2,6.5-8.3,13.1-12,19.9c-3.7,6.7-7.4,13.3-10.2,20.4
		c-3,7.7-6.1,15.5-8.1,23.6c-1.9,7.6-3.3,15.2-4.7,22.9c-2.8,15.6-4.1,31.3-4.3,47.1c-0.1,10.6,0.3,21.4,1.8,31.9
		c0.8,5.5,1.9,11,3.2,16.5c1.1,4.5,2.3,9,3.8,13.4c1.4,3.9,2.7,7.8,4,11.6c0.6,1.6,1.3,3.2,2,4.8c0.8,2,1.7,4,2.5,6
		c1.9,4.5,4.2,8.9,6.6,13.1c2.7,4.7,5.7,9.2,8.9,13.5c3.2,4.2,6.8,8.2,10.7,11.9c4.3,4,9.1,7.5,14.1,10.6c5.4,3.4,11.3,5.9,17.1,8.4
		c1.5,0.6,3,1.2,4.5,1.7c2.1,0.8,4.2,1.6,6.3,2.3c3.5,1.1,7,2.2,10.6,2.8c3.9,0.7,7.8,1.3,11.7,1.7c3.9,0.4,7.9,0.9,11.9,0.9
		c1.3,0,2.6-0.2,3.9-0.3c3.2-0.3,6-2.3,6.7-5.6c0.8-3.7-1.5-8-5.4-8.7c-3.6-0.6-7.2-0.8-10.9-1c-4.2-0.4-8.4-0.9-12.6-1.7
		c-4.8-0.9-9.3-2.2-14-3.6c-9.1-3.5-18.1-7.3-26.2-12.8c-5.1-3.8-9.7-8-13.8-12.8c-5.9-7.3-10.7-15.3-14.8-23.7
		c-2.3-4.9-4.4-9.9-6.2-15c-1.1-3-2.1-6-3.1-9c-1.2-3.4-2.1-7-3-10.5c-1-3.9-1.9-7.8-2.6-11.8c-1.1-6.9-1.9-13.8-2.1-20.8
		c-0.1-3.5-0.3-7-0.3-10.4c0-3.7,0-7.4,0.2-11c0.2-3.8,0.4-7.6,0.6-11.4c0.2-2.5,0.5-4.9,0.7-7.4c0.2-2.6,0.7-5.1,1.1-7.7
		c0.8-5.8,1.8-11.5,2.9-17.2c0.9-5.1,2-10.2,3.3-15.2c1.2-5,2.8-9.8,4.6-14.6c0.8-2.1,1.7-4.2,2.5-6.3c0.5-1.2,1-2.3,1.5-3.4
		c0.5-1.2,1-2.4,1.6-3.5c2.5-4.8,5.1-9.5,7.7-14.3c4.6-8.4,9.9-16.5,15.4-24.4c4.5-5.9,9-11.7,14-17.2c5-5.5,10-10.9,15.1-16.2
		c5.9-6,11.9-12,17.9-17.9c5.2-5.2,10.9-10,16.4-14.8c3.5-2.9,7.1-5.8,10.7-8.7c4-3.1,8-6,12.1-9c2-1.5,4.2-2.7,6.3-4
		c1.6-1,3.1-2.1,4.8-3c6.3-3.4,12.6-6.7,19-9.8c10-4.6,20.3-8.4,31.1-10.4c10.4-1.7,21-2.2,31.5-1.4c14.3,1.5,28.5,4.7,42,9.6
		c11.8,4.5,22.9,10.2,33.3,17.4c3.4,2.5,6.6,5.1,9.4,8.2c1.7,2.2,3.3,4.5,4.9,6.8c1.8,2.5,3.4,5.1,4.8,7.9c2.8,6.2,5.2,12.4,6.6,19
		c0.6,3.8,0.9,7.6,0.8,11.4c-0.1,1.3-0.1,2.6-0.2,3.9c-0.6,4.6-1.4,9.2-2.2,13.8c-0.6,3.4,1.2,6.8,4.7,7.6c3.2,0.7,7-1.3,7.6-4.7
		c1.5-8.7,3.4-17.4,3.2-26.3c-0.2-8.9-2.8-17.5-6.1-25.7c-1.3-3.2-2.6-6.4-4.3-9.5c-1.4-2.4-3-4.7-4.5-7c-2.1-3.1-4.3-6-6.8-8.8
		c-1.6-1.8-3.5-3.3-5.4-4.8c-2.4-1.9-4.9-3.7-7.5-5.4c-8.9-6.1-18.6-11.2-28.6-15.3c-10.4-4.2-21.1-7.5-32-9.8
		c-10.3-2.1-20.7-3.4-31.2-3.4C585.7,719,584.8,719,583.8,719L583.8,719L583.8,719z M536,745.6c-0.2,0.1-0.3,0.1-0.5,0.2
		C535.7,745.8,535.8,745.7,536,745.6L536,745.6L536,745.6z M535.5,745.9c-0.4,0.2-0.8,0.4-1.2,0.6
		C534.6,746.3,535,746.1,535.5,745.9L535.5,745.9L535.5,745.9z"/>
	<path style="fill:#161616;" d="M386.7,833.1c-1.5,0.9-2.9,1.9-4.4,3c-2,1.5-4,3.1-5.9,4.8c-3.9,3.2-7.5,6.6-10.7,10.4
		c-2.1,2.5-4.1,5.1-5.9,7.8c-2.1,3-3.7,6.2-5,9.7c-0.6,1.7-0.9,3.2-1.1,5c-0.1,1.7,0.2,3.2,0.7,4.8c1.2,3.5,3.4,6.3,5.8,9
		c1.9,2.1,3.9,4,6,5.8c1.2,1,2.5,1.9,3.9,2.8c1.6,1.1,3.7,1.6,5.6,2.2c3.3,1,6.9-1.6,7.7-4.8c0.8-3.6-1.5-6.7-4.8-7.7
		c-0.3-0.1-0.6-0.2-0.8-0.3c-0.7-0.3-1.4-0.6-2.1-1c-2.5-1.9-4.7-4.2-6.8-6.6c-0.6-0.8-1.1-1.6-1.6-2.5c-0.2-0.4-0.3-0.8-0.5-1.2
		c0.1-0.3,0.2-0.7,0.3-1c1-2.5,2.3-4.8,3.8-7.1c1.7-2.4,3.5-4.6,5.4-6.8c2-2.3,4.3-4.4,6.6-6.4c3.2-2.6,6.5-5.4,10.1-7.5
		c0.5,0.3,1,0.6,1.5,0.9c2.6,2,4.9,4.3,7.2,6.7c0.1,0.1,0.2,0.3,0.3,0.4c1.7,2.6,4.9,3.8,7.9,2.8c3.7-1.2,5.5-5.1,4.5-8.7
		c-1-3.6-3.6-6.4-6.4-8.8c-0.9-0.8-1.8-1.5-2.8-2.2c-2.5-1.9-5.3-4-8.4-4.8c-1.2-0.3-2.4-0.5-3.6-0.5
		C390.9,831.4,388.7,832,386.7,833.1L386.7,833.1L386.7,833.1z M393.3,845.2c0.1,0,0.3,0,0.4,0C393.6,845.3,393.4,845.2,393.3,845.2
		L393.3,845.2L393.3,845.2z M392.6,845.3C392.6,845.3,392.7,845.3,392.6,845.3c-0.3,0.1-0.6,0.1-0.9,0.2
		C392.1,845.3,392.4,845.3,392.6,845.3L392.6,845.3L392.6,845.3z M371.5,865.2c-0.1,0.1-0.2,0.3-0.3,0.4
		C371.3,865.4,371.4,865.3,371.5,865.2L371.5,865.2L371.5,865.2z M366.8,873.2c0,0.3-0.1,0.5-0.1,0.8c0,0,0,0,0,0.1
		C366.7,873.7,366.7,873.5,366.8,873.2L366.8,873.2L366.8,873.2z M366.7,874C366.7,874,366.7,874.1,366.7,874
		C366.7,874.1,366.7,874.1,366.7,874C366.7,874.1,366.7,874.1,366.7,874C366.7,874,366.7,874,366.7,874L366.7,874L366.7,874z
		 M366.7,874.8c0,0.1,0,0.3,0.1,0.4C366.8,875.1,366.8,875,366.7,874.8L366.7,874.8L366.7,874.8z M376.6,885.2
		c0.1,0.1,0.3,0.1,0.4,0.2C376.9,885.3,376.8,885.2,376.6,885.2L376.6,885.2L376.6,885.2z"/>
	<path style="fill:#161616;" d="M361.1,819.4c-5.9,0.7-11.7,2.5-17.4,4.3c-5.5,1.7-10.9,4.2-15.4,7.7c-3.6,2.8-7.1,5.8-10.2,9.2
		c-1.8,2-3.6,3.9-5.4,5.9c-3.4,3.7-6.4,7.8-9.2,11.9c-3.4,4.9-6.5,9.9-9.2,15.2c-3.6,7-6.2,14.3-8.8,21.7c-1.4,3.9-2.4,7.9-3.5,11.9
		c-1,3.7-1.8,7.5-2.6,11.2c-0.9,3.8-1.6,7.7-2.2,11.6c-1.5,9.1-2.4,18.2-3.1,27.4c-0.7,8.5-0.7,17-0.6,25.6c0,3.8,0.4,7.5,0.7,11.3
		c0.3,3.6,0.5,7.3,1,10.9c0.7,4.7,1.4,9.4,2.1,14.1c0.3,2.1,0.8,4.1,1.3,6.1c0.7,3.1,1.4,6.1,2.1,9.2c2,9,4.8,17.8,7.2,26.7
		c0.9,3.3,1.9,6.7,2.8,10c0.6,2,1.2,3.9,1.7,5.9c1.2,5.2,2.4,10.4,3.6,15.6c0.7,4.3,1.4,8.5,2.1,12.8c1.6,9.6,2.4,19.4,1.7,29.1
		c-0.6,6.3-1.7,12.5-3.6,18.5c-1.2,2.8-2.6,5.4-4.3,8c-1.5,2-3.2,4-5,5.7c-1.7,1.3-3.7,2.5-4.7,4.4c-1.6,3-1.5,6.5,0.3,9.4
		c2.2,3.4,6.5,4.7,10.1,6.1c4.3,1.6,8.6,3.2,12.9,4.6c7.9,2.6,15.9,5.2,24.1,7.1c8.6,2,17.3,4.1,26.1,4.7c4.2,0.3,8.5,0.5,12.7,0.6
		c10.9,0.3,21.6-3.8,31-9c3.8-2.1,7.2-4.6,10.7-7.2c1.6-1.1,3.1-2.4,4.6-3.6c1.7-1.3,3.5-2.7,5-4.2c2.8-2.6,5.6-5.3,7.9-8.3
		c2.2-2.7,4.4-5.5,6-8.6c1-1.9,1.9-3.9,2.8-5.9c1.7-3.9,3.1-7.9,4.4-11.9c1.1-3.2,1.7-6.4,2.2-9.7c0.5-3.6,1.2-7.2,2-10.8
		c0.9-4,1.8-7.9,1.7-12c-0.1-4.2-3.8-7.5-7.9-7.3c-4.4,0.2-7.2,3.8-7.3,7.9c0,0.2,0,0.4,0,0.6c-0.4,2.5-0.9,4.9-1.5,7.3
		c-0.7,3-1.3,6.1-1.7,9.2c-0.4,2.8-0.8,5.6-1.5,8.3c-0.7,2.4-1.5,4.8-2.4,7.2c-1.7,4.3-3.4,8.6-5.9,12.5c-3,4-6.4,7.6-10.1,11.1
		c-6.5,5.4-13.2,10.5-20.7,14.3c-4,1.8-8.2,3.3-12.6,4.3c-6.4,0.8-12.7,0.4-19.1,0c-2.2-0.3-4.3-0.6-6.5-0.8
		c-2.4-0.3-4.8-0.9-7.2-1.4c-4.4-0.8-8.7-2-13.1-3.1c-9.4-2.5-18.6-5.5-27.9-8.7c0.8-0.9,1.5-1.9,2.2-2.8c1.8-2.5,3.5-5,4.9-7.7
		c1.6-3.1,2.7-6.5,3.6-9.8c1.5-5.3,2.2-10.8,2.7-16.2c0.6-6.2,0.6-12.4,0.3-18.6c-0.4-6.8-1.6-13.6-2.7-20.3
		c-0.7-4.1-1.2-8.2-2.2-12.3c-1.1-4.6-2.1-9.1-3.2-13.7c-0.3-1.5-0.8-3-1.2-4.4c-0.8-3-1.7-6.1-2.5-9.1c-2.3-8.1-4.5-16.3-6.8-24.4
		c-0.7-2.4-1.1-4.9-1.7-7.3c-0.7-3.3-1.5-6.5-2.2-9.8c-0.4-2.5-0.7-4.9-1.1-7.4c-0.4-2.6-1-5.3-1.2-8c-0.2-3-0.5-6.1-0.7-9.1
		c-0.2-2.6-0.6-5.3-0.6-7.9c-0.1-6.1-0.2-12.1,0-18.2c0.2-5.5,0.6-11,1-16.5c0.6-4.7,1-9.4,1.8-14c0.8-4.9,1.6-9.8,2.7-14.7
		c1.2-5.4,2.5-10.7,4-15.9c0.6-2.1,1.2-4.3,1.9-6.3c0.8-2.3,1.7-4.7,2.5-7c1.9-4.8,4-9.4,6.4-14c2.2-4.2,4.8-8.2,7.5-12.1
		c5.5-7.6,11.7-14.7,18.8-20.8c2.2-1.8,4.4-3.4,6.9-4.7c2.9-1.3,5.8-2.3,8.8-3.2c3.3-1,6.5-2,9.9-2.6c3.7-0.5,7.5-0.8,11.3-0.6
		c1.6,0.2,3.1,0.6,4.7,1c1.7,0.7,3.4,1.6,5,2.6c0.7,0.5,1.4,1.1,2.1,1.6c1.6,1.3,3.4,2.1,5.5,2c2-0.1,4-1,5.3-2.5
		c2.7-2.9,2.8-8.3-0.5-10.9c-2.2-1.7-4.5-3.5-6.9-4.9c-2.4-1.4-5.1-2.3-7.7-3.2c-2.8-0.9-5.8-1.1-8.7-1.3c-0.7,0-1.5-0.1-2.2-0.1
		C366.3,818.9,363.7,819.1,361.1,819.4L361.1,819.4L361.1,819.4z M336.3,844.7c-0.2,0.2-0.4,0.3-0.6,0.5
		C335.9,845,336.1,844.9,336.3,844.7L336.3,844.7L336.3,844.7z M301.2,1174c0.4,0.1,0.8,0.3,1.2,0.4
		C302,1174.3,301.6,1174.1,301.2,1174C301.2,1174,301.2,1174,301.2,1174L301.2,1174L301.2,1174z"/>
	<path style="fill:#161616;" d="M680.8,904.4c-2.1,0.1-4.2,1.2-5.7,2.7c-2.7,2.8-4.2,6.5-4.5,10.4c-0.3,3.2,0.5,6.5,1.4,9.6
		c0.9,3.1,2.5,6.1,4.9,8.4c1.5,1.4,3.4,2.1,5.4,2.7c1,0.1,1.9,0.2,2.9,0.2c1.6,0.1,2.9-0.8,4.2-1.4c0.7-0.5,1.3-1.1,1.9-1.7
		c0.6-0.7,1-1.4,1.4-2.2c0.8-1.5,1.2-3.4,1.4-5.1c0.4-3.7,0.1-7.4-0.6-11.1c-0.3-1.3-0.6-2.5-1.1-3.7c-0.4-0.8-0.8-1.6-1.2-2.4
		c-0.5-0.9-1.3-1.7-2-2.5c-0.9-1.1-2.5-1.9-3.9-2.3c-1.3-0.9-2.8-1.4-4.3-1.4C681,904.4,680.9,904.4,680.8,904.4L680.8,904.4
		L680.8,904.4z"/>
	<path style="fill:#161616;" d="M707.7,1036.1c-3.1,0.7-6,1.6-8.9,2.9c-3.2,1.4-6.4,2.7-9.3,4.8c-2.1,1.5-4.2,3.4-5.7,5.4
		c-2.2,2.9-3.4,6.3-4.4,9.8c-0.7,2.4-1.2,4.9-1.6,7.4c-0.3,2.6-0.7,5.2-0.8,7.9c-0.2,5,0.9,10.7,4.9,14.1c1.4,1.2,2.9,1.7,4.7,2.3
		c1.4,0.5,2.9,0.4,4.3,0.5c2.5,0.2,5-0.5,7.5-1c2-0.4,3.9-0.8,5.9-1.2c3.2-0.5,6.4-1,9.6-1.1c1.7-0.1,3.5-0.1,5.2-0.2
		c1.9,0,3.8-0.3,5.6-0.8c3.2-1,5.6-3.4,7.5-6.1c2.7-4,4-8.8,4.8-13.5c0.5-2.9,0.6-6,0.5-9c0-1.9-0.2-3.8-0.5-5.7
		c-0.5-3-1.4-5.6-3-8.1c-1.2-1.9-3.5-2.9-5.6-2.5c0,0,0,0,0,0c-0.5-1.5-1.5-2.5-2.7-3.3c-2.5-1.6-5.3-2.6-8.2-3
		c-1.2-0.2-2.4-0.2-3.6-0.2C711.8,1035.4,709.8,1035.7,707.7,1036.1L707.7,1036.1L707.7,1036.1z M715.7,1046.8
		c0.7,0.1,1.3,0.2,2,0.4c0.9,0.4,1.9,0.9,2.7,1.4c1.1,0.7,2.3,0.8,3.5,0.6c0,0,0,0,0,0.1c0.5,1.5,0.8,3,1.2,4.5
		c0.4,2.8,0.4,5.7,0.2,8.5c-0.3,2.7-0.9,5.2-1.8,7.8c-0.5,1.1-1,2.1-1.6,3.1c-0.3,0.4-0.6,0.7-0.9,1c-0.1,0-0.1,0-0.2,0.1
		c-2.3,0.2-4.6,0-6.9-0.1c-2.4,0-4.8,0.1-7.2,0.3c-2.3,0.2-4.6,0.5-6.8,0.9c-2.8,0.5-5.6,1.1-8.5,1.2c-0.1-0.2-0.1-0.5-0.2-0.7
		c-0.3-2.5-0.2-4.9,0-7.3c0.4-3.5,1-6.9,2.1-10.3c0.3-0.7,0.6-1.3,1-1.9c0.9-1.1,1.8-2,2.8-3c1.8-1.4,3.8-2.5,5.8-3.5
		c2.8-1.3,5.6-2.3,8.5-2.9C712.8,1046.8,714.2,1046.8,715.7,1046.8L715.7,1046.8L715.7,1046.8z M721.7,1073.8
		c-0.1,0.1-0.2,0.1-0.2,0.2C721.5,1074,721.6,1073.9,721.7,1073.8L721.7,1073.8L721.7,1073.8z M720.8,1074.5
		c-0.2,0.1-0.5,0.3-0.7,0.3C720.3,1074.7,720.5,1074.6,720.8,1074.5L720.8,1074.5L720.8,1074.5z"/>
	<path style="fill:#161616;" d="M670,1154.4c-3.2,0.1-5.6,2.4-6.5,5.4c-0.6,2.2-0.9,4.4-0.9,6.7c0,1.5,0.1,3,0.1,4.5
		c0.1,3.4,0.2,6.7,0.2,10.1c0,7.2-0.3,14.4-0.8,21.5c-0.5,7.6-1.1,15.2-1.4,22.8c-0.4,7.2-0.4,14.3-0.8,21.5
		c-0.6,5.1-1.6,10-3.2,14.8c-0.3,0.7-0.6,1.4-0.9,2c-2.1,0.2-4.3,0.1-6.4,0c-3.4-0.4-6.8-0.8-10.2-1.6c-4.3-0.9-8.5-2.1-12.7-3.5
		c0.3,0.1,0.7,0.3,1,0.4c-1.8-0.7-3.7-1.3-5.5-2.1c-2.6-1.2-5.1-2.3-7.7-3.6c-4.5-2.2-8.8-4.9-13.1-7.6c-4.2-2.6-8.2-5.3-12.4-7.9
		c-4-2.6-8.1-5-12-7.6c0.2-0.4,0.5-0.7,0.7-1.1c1.2-2,2.1-4.1,3-6.2c1.9-4.4,3.5-9,5.1-13.5c0.7-2,1.2-4,1.9-5.9
		c1-3.1,1.9-6.1,2.7-9.2c2.2-8.3,2.6-17,3.3-25.5c0.1-1.6-1-3.5-2.1-4.6c-1.3-1.2-3-1.8-4.8-1.7c-1.8,0.1-3.4,0.8-4.6,2.1
		c-1.3,1.4-1.6,2.9-1.7,4.8c-0.3,3.6-0.6,7.3-0.9,10.9c0-0.6,0.1-1.2,0.2-1.8c-0.4,3.9-1,7.7-1.9,11.5c-0.6,2.3-1.2,4.7-2,6.9
		c-1,3-2,6-3,9c-2.2,5.7-4.4,11.4-7.6,16.6c-0.3,0.4-0.6,0.8-1,1.2c-0.9,1.1-2.1,1.9-2.8,3.2c-0.7,1.4-1.4,2.9-1.2,4.5
		c0.2,1.6,0.4,3.1,1.3,4.5c1.5,2.4,3.6,4.1,5.8,5.7c3.6,2.6,7.4,5,11.1,7.3c6.3,4,12.4,8.3,18.8,12.1c6.6,4,13.2,7.8,20.4,10.5
		c4.2,1.6,8.3,3.1,12.6,4.2c3.5,1,7.1,1.7,10.7,2.3c4.2,0.6,8.4,1.1,12.6,1.2c0.8,0,1.6,0,2.5-0.1c0.7,0,1.4-0.1,2.1-0.2
		c1.9-0.2,3.3-0.6,5-1.5c2.3-1.1,4.2-3,5.6-5.2c1.5-2.4,2.3-5.1,3.2-7.7c2.7-8,3.4-16.3,3.6-24.7c0.2-7.6,0.4-15.1,0.9-22.6
		c0.5-7.6,1.1-15.2,1.5-22.8c0.3-5.7,0.3-11.4,0.2-17.1c0-2.7-0.1-5.5-0.2-8.2c0-1.2-0.1-2.5-0.1-3.7c0-2.1-0.5-4.2-1.1-6.2
		c-0.9-2.8-3.6-4.8-6.6-4.8C670.2,1154.4,670.1,1154.4,670,1154.4L670,1154.4L670,1154.4z M655.4,1264.3c-0.2,0.1-0.3,0.2-0.5,0.2
		C655.1,1264.4,655.3,1264.4,655.4,1264.3L655.4,1264.3L655.4,1264.3z M655.5,1264.4c-0.2,0.2-0.4,0.4-0.6,0.5
		C655.1,1264.7,655.3,1264.6,655.5,1264.4L655.5,1264.4L655.5,1264.4z"/>
	<path style="fill:#161616;" d="M561.8,1225.4c-3.6,3.8-7.2,7.6-10.7,11.5c-2.4,2.6-5,5.2-7.3,7.9c-5.6,6.6-11.1,13.1-16.7,19.7
		c-0.8,1-1.6,2.1-2.4,3.1c-1.8,2.4-3.6,4.8-5.4,7.2c-2.3,3-4.7,6-6.8,9.2c-2.7,4-5.5,8.1-8.2,12.1c-0.6,0.9-1.1,1.8-1.6,2.6
		c-1.5,2.5-3,5.1-4.4,7.6c-1.6,2.8-3.2,5.6-4.7,8.5c-2,4-4.1,8-6.1,12c-0.7,1.3-1.2,2.6-1.8,4c-1.2,2.7-2.5,5.5-3.7,8.2
		c-1.2,2.7-2.4,5.5-3.5,8.2c-3.1,7.6-6.1,15.1-9,22.7c-2.9,7.5-5.7,15-8.5,22.5c-11.7,30.8-23.4,61.6-34.3,92.7
		c-7,20-14.1,39.9-21.4,59.8c-11.4,30.2-22.8,60.5-33,91.1c-2.5,7.4-4.8,14.9-6.8,22.5c-1.1,4.1-2.1,8.1-3.1,12.2
		c-1.4,5.7-2.3,11.8-2.2,17.6c0.1,4.8,1.6,9.4,4.2,13.5c1.4,2.2,3.2,4.1,4.9,5.9c2.1,2.3,4.6,4.2,7.1,6.1c4.5,3.3,9.3,6.3,14.1,9
		c6.9,3.9,13.9,7.7,21.2,10.7c8.3,3.5,16.7,6.6,25.1,9.6c7.6,2.7,15.3,4.8,23,7c7.3,2.1,14.6,4.1,21.8,6.3c7.5,2.3,14.8,5,22.1,7.6
		c0.6,0.2,1.3,0.5,1.9,0.7c1.9,0.7,4.3,0,5.9-1c1.7-1.1,2.9-2.8,3.4-4.7c0.5-2,0.1-4.2-1-5.9c-1.2-1.9-2.8-2.6-4.8-3.4
		c-6.4-2.3-12.7-4.6-19.2-6.7c-6.5-2.2-13.1-4.1-19.8-5.9c-6.6-1.8-13.1-3.6-19.6-5.6c-6.2-1.8-12.3-4-18.3-6.2
		c-3.4-1.3-6.9-2.7-10.3-4.1c-4-1.7-7.9-3.5-11.8-5.3c-3.6-1.7-7.2-3.7-10.7-5.7c-4.5-2.6-9-5.2-13.2-8.2c-2.7-2-5.2-4.2-7.5-6.7
		c-0.8-1-1.5-2-2.1-3.1c-0.3-0.9-0.6-1.7-0.8-2.6c-0.2-2-0.2-3.9-0.1-5.9c0.9-8.1,3.2-16,5.3-23.9c1.9-7.2,4.2-14.4,6.6-21.6
		c5.3-15.8,10.8-31.5,16.5-47.2c0.9-2.5,1.8-5,2.8-7.4c-0.2,0.6-0.5,1.2-0.7,1.9c2.4-6.3,4.7-12.6,7.1-18.9
		c-0.2,0.6-0.5,1.2-0.7,1.9c5.9-15.6,11.7-31.3,17.3-47c5.4-15.2,10.7-30.5,16.1-45.7c4.6-12.8,9.2-25.6,14-38.4
		c-0.2,0.6-0.5,1.2-0.7,1.8c5.6-14.9,11.2-29.9,16.9-44.8c3.1-8.1,6.1-16.2,9.2-24.3c1.4-3.7,2.9-7.3,4.3-10.9
		c1.3-3.2,2.5-6.4,3.9-9.5c1.4-3.2,2.8-6.4,4.2-9.6c0.9-2.2,1.8-4.4,2.9-6.5c2.6-5.1,5.2-10.3,7.8-15.4c1.2-2.3,2.6-4.6,4-6.9
		c1.5-2.7,3.1-5.3,4.6-8c1.2-2,2.6-3.9,3.9-5.9c1.5-2.3,3.1-4.6,4.6-6.9c3.7-5,7.5-10,11.2-15c3.1-4.2,6.7-8.1,10-12.1
		c3.3-3.9,6.5-7.9,10-11.7c5.2-5.7,10.4-11.4,15.7-16.9c2.6-2.8,2.4-7.4-0.4-10c-1.4-1.2-3-1.8-4.7-1.8
		C565.2,1223.1,563.3,1223.9,561.8,1225.4L561.8,1225.4L561.8,1225.4z M375.6,1684.5c0,0.2,0,0.5-0.1,0.7
		C375.6,1685,375.6,1684.8,375.6,1684.5L375.6,1684.5L375.6,1684.5z"/>
	<path style="fill:#161616;" d="M546.2,1370.1c-4.3,14.6-8.4,29.2-12.5,43.9c-3.7,13.3-7.7,26.6-11.3,40
		c-3.7,13.6-7.3,27.3-10.9,40.9c-1.6,6.1-3.2,12.3-4.4,18.5c-0.3,1.7-0.7,3.4-1,5.1c-0.4,2.1-0.6,4.1-0.6,6.2c0,1.2,0.3,2.8,0.6,4
		c0.4,1.7,1.2,3.2,1.9,4.7c1,2.1,2.8,3.9,4.4,5.4c1.7,1.6,3.8,2.9,5.7,4.2c1.9,1.2,4,2.2,6.1,3.2c2.5,1.2,5,2.3,7.5,3.3
		c7.4,3,15,5.7,22.6,8.4c6.4,2.3,12.9,4.5,19.4,6.6c1.4,0.5,2.8,0.9,4.3,1.3c2,0.6,4.1,0.9,6.2,0.9c2.8,0,5.6-1.3,7.9-2.7
		c2-1.2,3.7-3.1,5.2-4.9c1.6-1.9,2.9-4.1,4-6.2c2.4-4.3,4.5-8.8,6.2-13.4c2.2-5.6,4-11.4,5.8-17.2c1-3.3,2.1-6.7,3-10
		c2.6-9.5,5-19.1,7.6-28.6c1.3-4.8,2.6-9.7,4.1-14.5c1.4-4.8,3-9.6,4.6-14.3c2.1-5.2,4.3-10.4,6.6-15.6c0.8-1.9,1.1-3.7,0.5-5.6
		c-0.6-1.8-1.9-3.3-3.5-4.2c-1.7-0.9-3.8-1.1-5.6-0.5c-2,0.6-3.1,1.9-4.2,3.5c-2.1,3.1-3.6,6.3-5.1,9.7c-1.4,3.2-2.7,6.5-3.8,9.9
		c-2.1,6.3-4.2,12.6-5.9,19c-2,7.4-4,14.8-5.9,22.2c-1.5,5.7-3,11.4-4.7,17.1c-2.2,7.4-4.4,14.8-7,22.1c-1.1,2.8-2.3,5.6-3.6,8.3
		c-1.3,2.7-2.7,5.4-4.3,7.9c-0.6,0.8-1.3,1.6-2.1,2.3c-0.2,0.1-0.4,0.3-0.7,0.4c-0.1,0-0.2,0-0.3,0c-1.7-0.4-3.4-0.9-5-1.4
		c-1.9-0.6-3.7-1.2-5.6-1.8c-3.4-1.1-6.8-2.3-10.2-3.4c-6.9-2.4-13.7-4.8-20.5-7.3c-6.1-2.4-12.2-4.7-17.7-8.3
		c-0.9-0.7-1.8-1.4-2.6-2.2c-0.3-0.5-0.7-0.9-1-1.5c-0.1-0.4-0.3-0.9-0.4-1.3c-0.1-0.8-0.1-1.5-0.1-2.3c1.7-12.8,4.5-25.4,7.2-38
		c3.1-14,6.3-28,9.8-42c2.5-10.1,5.1-20.2,7.7-30.3c3.4-13.2,7-26.4,10.8-39.5c0.7-2.5-1.1-5.2-3.6-5.8c-0.4-0.1-0.7-0.1-1.1-0.1
		C548.7,1366.4,546.8,1368,546.2,1370.1L546.2,1370.1L546.2,1370.1z"/>
	<path style="fill:#161616;" d="M514.1,1535.6c-2.8,3-5.4,6.2-8.1,9.3c-0.7,0.8-1.3,1.7-1.9,2.5c-1.5,2-3.1,4-4.6,6
		c-4.1,5.4-7.9,11.1-11.6,16.8c-0.7,1.1-1.3,2.2-1.9,3.3c-0.8,1.5-1.7,3-2.4,4.5c-1.5,3.3-3,6.7-4.3,10.1c-1.3,3.2-2.5,6.4-3.5,9.7
		c-0.5,1.7-1.1,3.4-1.6,5.2c-0.5,1.5-0.9,3.1-1.2,4.7c-0.3,1.5-0.5,3-0.8,4.5c-0.4,2.4-0.6,4.8-0.7,7.2c-0.1,2.1-0.1,4.2,0.3,6.3
		c0.3,1.9,0.7,3.6,1.5,5.3c0.5,1.1,1,2.1,1.7,3.1c0.6,1,1.5,1.8,2.2,2.7c0.5,0.6,1.1,1,1.7,1.5c1.1,0.8,2.1,1.5,3.4,2.1
		c2.2,1,4.5,1.3,6.9,1.2c3.5-0.2,6.8-1.7,9.7-3.7c0.1,0.9,0.2,1.7,0.4,2.6c0.7,3.1,2.2,5.8,4.5,8.1c1.9,1.9,4.3,2.8,6.7,3.7
		c0.6,0.2,1.2,0.3,1.9,0.3c1,0.1,2,0.2,2.9,0.2c1.6,0,3.3-0.4,4.9-0.7c1.6-0.4,3.2-1.3,4.6-2c0.4-0.2,0.9-0.5,1.3-0.8
		c0.1,0.3,0.2,0.6,0.3,0.8c0.4,0.8,0.8,1.6,1.2,2.4c0.7,1.3,1.9,2.4,2.8,3.5c1.1,1.2,2.7,2.1,4.2,2.7c2.1,0.9,4,1.1,6.2,1.2
		c1.6,0,3.4-0.5,5-0.9c1.5-0.4,2.8-1.2,4.2-1.9c1.1-0.5,2.1-1.3,3-2c1.5-1.1,2.8-2.4,4.1-3.7c1.6-1.7,2.9-3.6,4.2-5.6
		c0.6-1,1.3-1.9,1.8-2.9c2-3.6,3.7-7.4,4.8-11.4c0.2,0.1,0.3,0.2,0.5,0.3c0.7,0.6,1.4,1.2,2.1,1.9c1.2,1.5,2.2,3.2,3.3,4.7
		c0.9,1.3,1.8,2.5,2.8,3.7c1.7,2,3.6,3.6,5.9,4.7c4.3,2.2,9.7,2.3,14.2,0.8c2.2-0.7,4.2-2,6-3.5c2.1-1.8,3.9-3.7,5.4-6
		c2.7-4.1,3.9-8.9,3.6-13.7c-0.3-4.9-2.6-9.5-5.1-13.6c-3.2-5.4-7.6-9.8-11.7-14.6c-2.6-3.1-4.9-6.4-6.7-10
		c-1.2-2.8-2.3-5.7-2.9-8.7c-0.2-2.1-0.2-4.1-0.1-6.2c0.1-0.5,0.1-0.9,0.2-1.4c0.3-1.7,0.4-3.4,0.8-5c0.7-2.8-0.7-5.7-3.2-7.1
		c-1.5-0.8-3.3-1-4.9-0.4c-1.7,0.5-2.7,1.6-3.7,3.1c-1.9,2.9-2.4,6.4-2.7,9.8c-0.2,1.7-0.3,3.3-0.3,5c0,2.2,0.3,4.3,0.7,6.5
		c0.6,3.1,1.6,6.1,2.8,9c2.5,6,6.3,11.3,10.6,16.2c1.8,2,3.6,4.1,5.4,6.1c2.3,2.9,4.2,5.9,5.9,9.1c0.4,0.9,0.7,1.8,1,2.8
		c0.1,0.7,0.1,1.4,0.1,2.1c-0.1,0.7-0.3,1.4-0.5,2c-0.3,0.7-0.7,1.4-1.1,2c-0.7,0.9-1.5,1.7-2.3,2.5c-0.5,0.4-1,0.7-1.6,1
		c-0.3,0.1-0.6,0.2-1,0.3c-0.5,0-1,0.1-1.5,0.1c-0.5-0.1-1-0.2-1.5-0.3c-0.3-0.1-0.6-0.3-0.8-0.4c-0.7-0.6-1.4-1.2-2-1.9
		c-2.2-2.8-4.2-5.7-6.7-8.2c-2.6-2.5-5.9-4.4-9.5-5c-1.9-0.3-3.5-0.1-5.4,0.3c-1.7,0.3-3.3,1.5-4.6,2.7c-1.6,1.4-2.8,3.2-3.7,5.2
		c-0.5,1-0.9,2-1.4,3c-1,2-2.2,4-3.5,5.9c-1.6,2.2-3.3,4.4-5.3,6.3c-1,0.8-2.1,1.5-3.2,2.1c-0.6,0.2-1.2,0.4-1.8,0.6c0,0,0,0-0.1,0
		c0,0,0,0-0.1-0.1c-0.1-0.1-0.1-0.2-0.2-0.3c-0.2-2.1-0.1-4.2,0-6.3c0.2-1.6,0.4-3.2,0.6-4.9c0.6-3.2,1.3-6.4,1.6-9.7
		c-0.1-1.2-0.4-2.4-1.1-3.4c-1-1.5-2.5-2.6-4.2-3c-1.2-0.3-2.5-0.2-3.6,0.2c-1.9,0.6-2.9,1.8-4,3.3c-0.6,0.8-0.9,1.9-1.4,2.7
		c-0.4,0.7-0.8,1.4-1.2,2.2c-1,1.8-2.1,3.6-3.3,5.3c-1.4,1.9-2.9,3.6-4.6,5.2c-0.7,0.5-1.4,1-2.1,1.4c-0.4,0.1-0.7,0.2-1.1,0.3
		c-0.4,0-0.8,0-1.2,0.1c-0.1,0-0.2,0-0.2-0.1c-0.2-0.1-0.3-0.2-0.5-0.3c-0.2-0.5-0.3-1-0.5-1.5c-0.2-2.4-0.1-4.8,0-7.3
		c0.2-1.6,0.4-3.3,0.7-4.9c0.5-2.6,1.5-5.5,1.4-8.2c-0.1-2.4-1.5-4.6-3.6-5.8c-2.1-1.1-4.9-1.1-6.9,0.3c-1,0.7-1.8,1.4-2.5,2.4
		c-0.3,0.4-0.6,0.9-0.9,1.3c-0.7,1-1.5,1.9-2.2,2.9c-2.1,2.7-4.3,5.2-6.7,7.6c-1,0.8-2,1.5-3.1,2.1c-0.4,0.1-0.7,0.3-1.1,0.4
		c-0.1,0-0.2,0-0.2,0c-0.2-0.1-0.4-0.2-0.5-0.3c-0.2-0.2-0.4-0.4-0.6-0.6c-0.3-0.4-0.6-0.8-0.8-1.3c-0.3-0.7-0.5-1.4-0.7-2.2
		c-0.3-2.8-0.3-5.5-0.1-8.2c0.2-1.8,0.4-3.7,0.8-5.5c0.5-2.6,1.1-5.2,1.7-7.8c1-4.3,2.4-8.5,3.8-12.7c1.7-4.4,3.4-8.8,5.8-13
		c1.1-2.1,2.3-4.2,3.5-6.2c1.6-2.4,3.1-4.9,4.7-7.3c2.4-3.3,4.8-6.6,7.3-9.9c1-1.4,2.2-2.7,3.4-4c1.6-1.9,3.3-3.9,5-5.7
		c1.8-1.9,1.7-5-0.3-6.8c-0.9-0.8-2.1-1.3-3.3-1.3C516.3,1534.1,515,1534.6,514.1,1535.6L514.1,1535.6L514.1,1535.6z M567.2,1631
		C567.2,1631,567.2,1631,567.2,1631c0,0-0.1,0.1-0.1,0.1C567.1,1631,567.2,1631,567.2,1631L567.2,1631L567.2,1631z M514.4,1638.3
		c0.1,0.1,0.1,0.1,0.2,0.2C514.5,1638.4,514.4,1638.3,514.4,1638.3L514.4,1638.3L514.4,1638.3z M540.9,1644.9c0.2,0,0.3,0,0.5,0
		C541.2,1644.9,541.1,1644.9,540.9,1644.9L540.9,1644.9L540.9,1644.9z M540.9,1645.1c0.2,0.1,0.4,0.2,0.7,0.2
		C541.4,1645.3,541.2,1645.2,540.9,1645.1L540.9,1645.1L540.9,1645.1z"/>
	<path style="fill:#161616;" d="M533.6,1651.9c-2.1,1.4-3,4.5-1.4,6.6c4.1,5.8,8.8,11.3,13.7,16.5c2.4,2.6,4.8,5.1,7.3,7.6
		c2.1,2.1,4.1,4.1,6.1,6.3c0.7,0.9,1.4,1.9,2,2.9c0.2,0.6,0.4,1.2,0.6,1.8c0.1,1.1,0.1,2.3,0.1,3.4c-0.5,3.8-1.6,7.4-2.8,11
		c-4,10.2-9.9,19.3-16.1,28.2c-2.9,4.1-5.9,8.2-8.7,12.3c-1.3,1.9-2.5,3.8-3.8,5.7c-0.4,0.6-0.7,1.2-1.1,1.8
		c-2.9-0.4-5.8-0.9-8.7-1.5c-1.6-0.3-3.1-0.6-4.7-0.8c-2.4-0.4-4.8-0.5-7.3-0.5c-3.1,0-5.8,2.5-6.5,5.4c-0.3,1.2-0.2,2.5,0.2,3.7
		c0.6,1.9,1.8,3,3.4,4c3.3,2.2,7.7,2.5,11.5,3.2c4.4,0.8,8.7,1.7,13.1,2c2.5,0.2,5.2,0.2,7.4-1.3c1.6-1,2.7-2.5,3.5-4.2
		c0.6-1.3,1.3-2.5,2-3.7c1.5-2.6,3.2-5.2,4.9-7.8c7.6-11.4,16-22.4,21.5-35.1c2-4.6,3.6-9.4,4.7-14.3c1.1-5.1,1.4-10.4-0.2-15.4
		c-1.9-6-7.5-9.9-12.1-13.7c-2.7-2.2-5.3-4.5-7.8-7c-2.7-2.6-5.3-5.3-7.8-8c-2.1-2.6-4.2-5.1-6.2-7.8c-1-1.4-2.5-2.2-4.1-2.2
		C535.3,1651.2,534.4,1651.4,533.6,1651.9L533.6,1651.9L533.6,1651.9z M558.8,1709c-0.1,0.2-0.1,0.4-0.2,0.5
		C558.6,1709.3,558.7,1709.2,558.8,1709L558.8,1709L558.8,1709z"/>
	<path style="fill:#161616;" d="M625,1617.8c-6.6,2.3-12.4,6.5-17.4,11.2c-2.5,2.3-4.4,5.1-6.1,7.9c-1.6,2.7-2.8,5.8-3.6,8.8
		c-0.4,1.6-0.6,3.3-0.6,4.9c-0.1,1.3,0,2.6,0.1,4c0.4,3.6,1.8,6.8,3.6,9.9c1.9,3.3,4.7,6.1,7.4,8.8c1.4,1.4,3.1,2.6,4.7,3.7
		c0,0.3,0,0.7,0,1c-0.5,3.4-1.2,6.8-1.5,10.3c-0.3,3.2-0.7,6.5-0.7,9.7c-0.1,5.6,0.9,11.3,2.5,16.6c1.4,4.7,3.4,9.2,6.1,13.3
		c1.5,2.3,3.4,4.3,5.2,6.4c1.9,2,3.8,3.7,6.1,5.3c3.8,2.7,7.9,4.6,12.2,6.3c5,2,10.2,3.6,15.6,4.5c4.9,0.9,10,1.3,15,1.6
		c3.6,0.2,7.1,0.4,10.7,0.4c1.8,0,3.7,0,5.5-0.1c5.5,0,11.1-1.1,16.4-2.7c5.4-1.6,10.5-4.1,15.5-6.5c5.7-2.8,11-6.9,15.5-11.3
		c2.6-2.5,4.7-5.6,6.5-8.8c1.2-2.3,2-4.8,2.9-7.2c1.3-3.7,1.8-7.7,2.6-11.5c0,0,0,0,0.1,0c4.5-2,9-3.9,13.1-6.6
		c6.6-4.3,12-10.6,15.1-17.8c3.2-7.4,4.5-15.7,3.1-23.7c-0.4-2.1-0.8-4.2-1.5-6.2c-0.7-2-1.7-3.9-2.6-5.8c-1.8-3.5-4.4-6.5-7.1-9.3
		c-2.7-2.7-6.1-4.9-9.6-6.4c-4-1.7-8.1-2.5-12.4-2.4c-4,0.1-7.9,1.4-11.4,3.3c-2.3,1.2-4.6,2.7-6.6,4.3c-4.5,3.7-8.9,7.5-13.4,11.3
		c-0.7,0.5-1.3,1-2,1.5c-0.5,0-1,0-1.5,0c-7.1-0.9-14-3.2-20.8-5.4c-7-2.2-13.9-4.8-21.3-4.7c0-1.8-0.7-3.6-2.1-4.9
		c-2.3-2-4.8-3.9-7.2-5.8c-2.2-1.7-4.4-3.3-6.8-4.7c-2.9-1.8-6.2-3-9.4-4.1c-2.6-0.9-5.4-1.3-8.1-1.3
		C632.5,1615.7,628.7,1616.5,625,1617.8L625,1617.8L625,1617.8z M637.7,1629.3c1.8,0.3,3.5,0.7,5.2,1.3c2.7,1.1,5.2,2.5,7.6,4.1
		c2.9,2.1,5.6,4.4,8.3,6.7c1.5,1.3,3.5,1.9,5.3,1.7c0.3,2.3,2.1,4.2,4.4,4.8c0.8,0.2,1.6,0.5,2.5,0.8c-0.5-0.2-1-0.4-1.5-0.6
		c3.9,1.5,7.9,2.6,11.8,4c3.3,1.3,6.7,2.6,10,3.9c4.2,1.6,8.5,3.2,12.9,4.2c3.6,0.8,7.4,1.8,11.2,1.4c2.7-0.3,5.3-1.2,7.5-2.8
		c1.2-0.9,2.3-1.9,3.5-2.9c2.9-2.5,5.8-5,8.7-7.5c2.6-2.1,5.2-4.1,8.2-5.8c1-0.4,2.1-0.8,3.2-1.1c1-0.1,2-0.1,3-0.1
		c1,0.2,2,0.4,3,0.7c1.4,0.6,2.7,1.3,3.9,2.1c1.4,1.1,2.6,2.3,3.8,3.6c1.2,1.6,2.3,3.2,3.2,5c0.7,1.8,1.3,3.6,1.8,5.4
		c0.3,2.2,0.4,4.4,0.3,6.6c-0.3,2.6-0.9,5.1-1.8,7.6c-0.8,2-1.8,3.9-3,5.7c-1.3,1.7-2.7,3.2-4.2,4.6c-2.5,2-5.3,3.6-8.2,5
		c-3.1,1.4-6.2,2.5-9.1,4.3c-2.6,1.6-4.2,4.2-4.9,7.1c-0.2,0.9-0.4,1.9-0.5,2.8c-0.7,3.8-1.5,7.5-2.7,11.2c-0.7,1.6-1.5,3.2-2.4,4.7
		c-1.6,2-3.3,3.9-5.3,5.6c-2.8,2.2-5.7,4.2-8.8,5.9c-1,0.6-2.1,1.1-3.2,1.6c-1.4,0.6-2.8,1.2-4.2,1.8c-3.6,1.6-7.4,2.7-11.3,3.5
		c-8.3,1.2-16.8,0.7-25.1,0.3c-1.9-0.2-3.8-0.4-5.7-0.6c-5.5-0.7-10.8-2-16-3.8c-3.7-1.5-7.3-3.2-10.6-5.3c-2-1.6-3.8-3.4-5.4-5.3
		c-1.5-2-2.9-4-4.1-6.2c-1.5-3.5-2.6-7.2-3.4-10.9c-0.6-3.7-0.8-7.5-0.4-11.2c0.1-1.1,0.2-2.2,0.3-3.2c0.3-2.1,0.7-4.2,1-6.3
		c0.8-4.9,1.5-10-1-14.6c-1.4-2.5-3.9-3.8-6-5.6c-1.8-1.5-3.4-3.1-5-4.8c-0.9-1.2-1.7-2.4-2.4-3.7c-0.3-0.7-0.5-1.4-0.7-2.2
		c-0.1-0.9-0.1-1.9-0.1-2.8c0.2-1.2,0.5-2.3,0.8-3.4c0.7-1.7,1.5-3.3,2.5-4.9c1.5-1.9,3.1-3.6,4.9-5.2c2.4-1.9,4.9-3.5,7.5-5
		c2.1-0.9,4.2-1.6,6.5-2.1C634.9,1629.3,636.3,1629.3,637.7,1629.3L637.7,1629.3L637.7,1629.3z M613.7,1657.8
		c0.1,0.1,0.2,0.3,0.3,0.4C613.9,1658,613.8,1657.9,613.7,1657.8L613.7,1657.8L613.7,1657.8z M629.5,1716.3c0.1,0.2,0.1,0.3,0.2,0.5
		C629.6,1716.6,629.5,1716.4,629.5,1716.3L629.5,1716.3L629.5,1716.3z"/>
	<path style="fill:#161616;" d="M656.5,1674.9c0.2,3.9,3.5,6.7,7.3,6.7c3.8,0,6.8-3.6,6.7-7.3c-0.2-3.9-3.5-6.7-7.3-6.7
		C659.4,1667.6,656.4,1671.2,656.5,1674.9L656.5,1674.9L656.5,1674.9z"/>
	<path style="fill:#161616;" d="M691.9,1686c0.2,4.3,3.8,7.4,8,7.4c4.2,0,7.6-4,7.4-8c-0.2-4.3-3.8-7.4-8-7.4
		C695,1678,691.7,1682,691.9,1686L691.9,1686L691.9,1686z"/>
	<path style="fill:#161616;" d="M667.2,1695.3c-1.3,1.5-2,3.1-2.3,5c-0.1,1-0.2,2-0.2,3c0,1.3,0.4,2.6,0.6,3.9
		c0.6,3.2,2,6.9,5.2,8.2c1.1,0.5,2.3,0.8,3.5,0.8c1-0.1,2-0.3,2.9-0.5c0.9-0.2,2-0.8,2.8-1.2c0.7-0.3,1.3-0.7,2-1.1
		c2.8-1.8,5.6-4,7.1-7c0.6-1.1,0.7-2.3,0.5-3.5c0.2-0.3,0.3-0.7,0.4-1c0.6-2.6-1.1-5.7-3.9-6.2c-3.2-0.6-6.5-1.3-9.7-1.8
		c-1.2-0.2-2.4-0.4-3.7-0.5c-0.2,0-0.3,0-0.5,0C670.3,1693.4,668.3,1694,667.2,1695.3L667.2,1695.3L667.2,1695.3z"/>
	<path style="fill:#161616;" d="M690.2,1745.5c-1.2,4.5-2.6,9-4.1,13.4c0.1-0.3,0.2-0.5,0.3-0.8c-0.4,1.1-0.8,2.3-1.4,3.4
		c-0.3,0.6-0.6,1.2-0.8,1.8c-0.3,0.7-0.6,1.5-0.9,2.3c-0.1,0.7-0.1,1.4-0.2,2.1c0.1,0.6,0.2,1.3,0.3,1.9c0.3,0.9,0.8,1.7,1.5,2.3
		c1,0.9,2.4,1.5,3.9,1.4c1,0,1.9-0.3,2.7-0.8c1.2-0.8,1.9-1.9,2.3-3.3c0.1-0.2,0.1-0.3,0.1-0.5c0.3-0.8,0.5-1.6,0.7-2.5
		c0.2-0.9,0.4-1.9,0.6-2.8c0.3-1.6,0.8-3.2,1.2-4.8c0.9-3.7,2-7.3,3-11c0.7-2.5-1.1-5.1-3.6-5.7c-0.4-0.1-0.7-0.1-1-0.1
		C692.7,1741.8,690.8,1743.3,690.2,1745.5L690.2,1745.5L690.2,1745.5z"/>
	<path style="fill:#161616;" d="M814.7,1115.5c-1.7,0.3-3.6,1.3-5.1,2.1c-4.9,2.6-9,6.5-13.2,10.1c-2.8,2.4-5.6,4.8-8.4,7.2
		c-0.5,0.4-1,0.8-1.4,1.2c-5.3,4.4-10.5,8.9-16,13c-6,4.4-12,8.8-18.3,12.7c-13.1,8.3-26.5,15.9-40,23.5c-8.8,4.9-17.5,10-26,15.5
		c-3.9,2.5-7.9,5-12,7.2c-2,1-4,2-5.9,3c-0.9,0.5-1.7,0.9-2.6,1.5c-0.7,0.5-1.5,1.2-2.1,1.8c-1.5,1.3-2.1,3.1-2.8,4.8
		c-0.8,2.1,0.4,4.8,1.9,6.3c2,1.9,5.6,2.5,7.9,0.7c0,0,0.1-0.1,0.1-0.1c0.5-0.2,0.9-0.3,1.3-0.5c1.1-0.5,2.3-1.1,3.4-1.6
		c1.5-0.8,3-1.5,4.5-2.3c3-1.6,6-3.3,8.9-5.1c6.1-3.9,12.1-8.1,18.3-11.9c13.1-8,26.4-15.3,39.5-23.3c11.8-7.3,23.4-14.9,34.3-23.6
		c5.6-4.4,11-8.9,16.4-13.4c2.5-2.1,4.9-4.2,7.5-6.1c3.5-2.8,7-5.7,11-7.8c0.6-0.2,1.3-0.5,1.9-0.6c1.4,2.1,2.7,4.4,4,6.6
		c1.6,2.7,3.3,5.3,4.9,8c3,4.8,6.1,9.6,9.3,14.3c3.2,4.7,6.4,9.4,9.8,13.9c1.8,2.4,3.6,4.8,5.4,7.2c3.4,4.4,6.8,8.7,9.4,13.6
		c0.6,1.4,1,2.7,1.4,4.2c0.1,0.9,0.2,1.9,0.1,2.8c-0.4,2.1-0.9,4.1-1.6,6.1c-1.2,3.1-2.7,6.2-4.3,9.1c-1.4,2.6-3.1,5-4.8,7.4
		c-1.5,2.2-3.1,4.4-4.6,6.6c-4.6,6.4-9.3,12.7-14,19c-4.7,6.4-9.7,12.6-14.7,18.7c-4.6,5.7-9.4,11.2-14.2,16.7
		c-4.9,5.6-9.8,11.3-15,16.6c-3,3.1-6.1,6.3-9.1,9.4c-2.7,2.7-5.5,5.3-8.3,7.9c-5.2,5-10.7,9.5-16.1,14.2c-4.1,3.5-8.3,6.9-11.8,11
		c-3.2,3.7-5.4,8.1-6.1,13c-0.4,2.7-0.4,5.5-0.2,8.2c0.5,7.5,1.6,14.9,2.9,22.3c0.6,3.6,1.3,7.2,1.9,10.7c-0.1-0.7-0.2-1.4-0.4-2
		c5.6,31.6,13.5,62.8,22.1,93.7c8.3,30.1,18.1,59.7,28.5,89.1c3.8,10.7,7.5,21.3,11.1,32.1c1.8,5.5,3.3,11.1,4.8,16.7
		c1.3,4.6,2.1,9.4,3,14.1c0.5,3.7,1,7.4,1.5,11.1c0.5,3.4,0.6,6.9,1,10.4c0.3,3.6,0.7,7.3,1.2,10.9c0.3,2.3,0.6,4.6,1.1,6.8
		c0.6,2.6,1.2,5.2,1.8,7.9c0.1,0.7,0.2,1.5,0.2,2.2c0,0,0,0.1,0,0.1c0,0,0,0.1,0,0.1c-2.3,2.9-5.3,5.3-8.1,7.7
		c-4.9,4-9.9,7.9-14.9,11.8c-5.3,4.1-10.9,7.6-16.5,11.2c-2.7,1.7-5.7,3.2-8.5,4.8c-2.6,1.5-5.3,2.9-8,4.3c-5.7,3-11.5,5.8-17.3,8.7
		c-8.1,3.6-16.1,7.3-24.3,10.6c-9.8,4-19.5,8-29.3,12c-1.8,0.7-3.2,1.7-4.2,3.5c-0.9,1.7-1.1,3.7-0.5,5.6c1.1,3.5,5.4,6.1,9,4.6
		c14.9-6,29.8-11.8,44.5-18.2c4-1.8,8.1-3.5,12.1-5.4c3.9-1.9,7.8-3.8,11.8-5.7c7.1-3.4,14-7.3,20.8-11.1c4.5-2.5,8.8-5.3,12.9-8.2
		c5-3.5,9.8-7.2,14.6-10.9c4.7-3.7,9.3-7.5,13.8-11.5c1-0.9,2-1.9,2.9-2.9c1.3-1.4,2.4-3,3.2-4.8c1-2.4,1.3-4.6,1.4-7.2
		c0.1-1.6-0.4-3.5-0.7-5.1c-0.3-1.4-0.6-2.9-1-4.3c-0.3-1.4-0.6-2.8-0.9-4.2c-0.5-3.4-1-6.8-1.3-10.2c-0.4-4.1-0.8-8.2-1.2-12.3
		c-0.4-3.9-1-7.8-1.5-11.6c-0.6-4.3-1.5-8.5-2.4-12.7c-0.3-1.4-0.5-2.9-0.9-4.4c-0.5-1.9-1-3.8-1.5-5.7c-0.9-3.4-1.8-6.8-2.9-10.2
		c-2.7-8-5.3-16-8.2-24c-5.1-14.4-10.3-28.8-15-43.3c-4.9-15.2-9.7-30.4-14.2-45.7c-4.4-14.9-8.4-29.9-12.3-44.9
		c-3.9-15.1-7.2-30.5-10.4-45.8c-0.8-4-1.6-8.1-2.3-12.1c0.1,0.4,0.1,0.7,0.2,1.1c-0.1-0.4-0.2-0.9-0.2-1.3c0.1,0.7,0.2,1.4,0.4,2
		c-0.6-3.3-1.2-6.6-1.8-9.9c-0.8-4.4-1.3-8.8-1.9-13.2c-0.5-4.1-1-8.4-0.8-12.5c0.1-0.8,0.3-1.5,0.5-2.3c0.4-0.8,0.7-1.5,1.2-2.2
		c3.5-4.5,8-8,12.3-11.7c2.5-2.2,5.1-4.3,7.6-6.5c2.9-2.6,5.8-5.1,8.6-7.7c2.8-2.7,5.8-5.3,8.5-8.1c3.1-3.2,6.1-6.3,9.2-9.5
		c2.9-3,5.6-6.1,8.4-9.2c4.9-5.3,9.6-10.8,14.3-16.3c9.9-11.8,19.4-23.9,28.4-36.3c5.5-7.5,11-15.1,16.2-22.8
		c2.8-4.3,5-8.9,6.8-13.7c2.1-5.4,3.5-10.9,2.6-16.8c-0.4-2.8-1.2-5.4-2.4-8c-1.2-2.6-2.5-5-4-7.4c-1.8-2.7-3.8-5.2-5.8-7.8
		c-9.3-12.1-17.9-24.8-26.1-37.7c-2.1-3.3-4.2-6.6-6.3-9.9c-1.7-2.6-3.4-5.5-6-7.3c-1.3-0.9-2.6-1.9-4.3-2.2
		c-1.3-0.3-2.6-0.4-3.9-0.4c-0.1,0-0.2,0-0.3,0C817.2,1114.9,815.9,1115.3,814.7,1115.5L814.7,1115.5L814.7,1115.5z M817.5,1129.2
		c0.1,0,0.2,0,0.3,0C817.7,1129.2,817.6,1129.2,817.5,1129.2L817.5,1129.2L817.5,1129.2z M817.6,1129.5c-0.1,0-0.3,0-0.4,0.1
		C817.4,1129.5,817.5,1129.5,817.6,1129.5L817.6,1129.5L817.6,1129.5z M818.4,1688.9c0,0.1,0,0.2,0,0.3
		C818.4,1689.1,818.4,1689,818.4,1688.9L818.4,1688.9L818.4,1688.9z M818.7,1689.2c-0.1,0.2-0.1,0.3-0.2,0.5
		C818.6,1689.5,818.6,1689.3,818.7,1689.2L818.7,1689.2L818.7,1689.2z M740.6,1387.5c-0.1-0.3-0.1-0.6-0.2-0.9
		c-0.1-0.4-0.1-0.8-0.2-1.2C740.4,1386.1,740.5,1386.8,740.6,1387.5L740.6,1387.5L740.6,1387.5z"/>
	<path style="fill:#161616;" d="M961.3,920.4c-1.7,0.2-3.4,0.3-5,0.5c-1.8,0.2-3.7,0.6-5.5,0.9c-9,1.5-17.7,4.6-25.7,9.1
		c-3.7,2.1-7.1,4.9-9.9,8.1c-2.4,2.8-4.1,5.9-5.6,9.2c-2.9,6.6-5,13.5-7.4,20.3c-2.1,6.2-4.3,12.5-6.5,18.7
		c-2.2,6.3-4.4,12.6-6.4,19c-2.2,6.9-4.3,13.9-6.5,20.8c-1.1,3.4-2.3,6.8-3.5,10.2c0.1-0.3,0.2-0.6,0.3-0.9
		c-1.1,2.9-2.2,5.9-3.3,8.9c0.1-0.2,0.1-0.3,0.2-0.5c-0.2,0.4-0.3,0.8-0.5,1.2c-0.1,0.2-0.1,0.4-0.2,0.6c0.1-0.1,0.1-0.3,0.2-0.4
		c-4.5,11.7-10.3,23-16.1,34.1c-3,5.8-6.3,11.4-9.6,17c-2.9,5-6.2,9.9-9.6,14.6c-4.1,5.5-8.3,11-12.6,16.5c-1.2,1.6-2,3.2-1.9,5.3
		c0.1,2,0.9,3.8,2.4,5.1c1.4,1.3,3.4,2,5.3,1.9c1.8-0.1,4-0.9,5.1-2.4c4.8-6.2,9.7-12.3,14.2-18.7c2.1-3,4.2-5.9,6.2-9
		c1.8-2.9,3.6-5.7,5.4-8.7c7-11.9,13.5-24,19.3-36.6c6-13.1,10.8-26.7,15.3-40.4c2-6,3.7-12,5.7-18c2.2-6.5,4.5-13.1,6.7-19.6
		c1.9-5.5,3.8-10.9,5.5-16.5c1.7-5.2,3.2-10.4,5-15.5c1-2.4,2-4.8,3.4-7.1c1-1.3,2-2.4,3.2-3.5c2.8-2.2,5.8-4,8.9-5.5
		c4.5-2,9.1-3.7,13.9-4.9c1.8-0.5,3.7-0.8,5.5-1.2c4.1-0.6,8.2-1.1,12.3-1c1.3,0.2,2.6,0.4,3.9,0.8c0.5,0.2,0.9,0.4,1.3,0.7
		c0.3,0.3,0.6,0.6,1,0.9c0.2,0.3,0.4,0.5,0.5,0.8c0,0,0,0.1,0,0.1c0,0.5,0.1,1,0.1,1.5c-0.2,1.1-0.4,2.2-0.8,3.2
		c-0.5,1.2-1,2.2-1.7,3.3c-1.1,1.5-2.4,2.7-3.8,4c-3.7,2.9-7.7,5.1-11.9,7.2c-3.3,1.6-6.7,3.1-10,4.7c-2.8,1.4-5.3,3-7.7,5.1
		c-1.8,1.6-3.2,3.9-4.4,6c-1.5,2.6-2.5,5.6-3.4,8.5c-0.7,2.5-0.9,5.1-1.1,7.6c-0.2,2.5-0.1,5,0.3,7.5c0.4,2.6,1.1,4.9,2.3,7.3
		c1.2,2.5,3,4.6,4.8,6.7c2,2.2,4.6,3.8,6.9,5.6c2.1,1.6,4.1,3.2,6,5.1c0.6,0.8,1.1,1.6,1.6,2.5c0.1,0.3,0.2,0.6,0.3,1
		c0,0.3,0,0.7,0,1c-0.1,0.5-0.2,0.9-0.3,1.4c-0.3,0.6-0.6,1.2-0.9,1.8c-0.3,0.3-0.5,0.6-0.8,1c-1,0.7-2,1.3-3.1,1.8
		c-3,1.3-6.2,2.4-9.4,3.1c-1.5,0.3-3,0.7-4.5,1.2c-1.7,0.5-3.3,1.3-4.7,2.4c-2,1.6-3.5,3.5-4.8,5.7c-1.3,2.1-2.4,4.6-3.3,6.9
		c-0.8,2-1.6,4.2-2.1,6.3c-0.8,3.2-1.6,6.4-2.2,9.5c-2.6,12.8-4.3,25.8-6.6,38.7c-0.7,4-1.6,8.1-2.5,12.1c-0.8,3.5-2,7-3.2,10.4
		c-1.4,3.4-2.9,6.7-4.5,10c-1.8,3.5-3.7,6.9-5.7,10.3c-3.7,6.5-7.4,13-11.7,19.2c-2.2,3-4.6,6-7,8.9c-2.6,3.3-5,6.8-7.4,10.2
		c0,0,0,0,0,0c-0.7,0.8-1.2,1.7-1.4,2.7c-0.3,1.5-0.1,3.2,0.8,4.5c0.8,1.3,2.2,2.2,3.6,2.6c1.4,0.3,3.3,0.2,4.5-0.8
		c1.6-1.3,3.3-2.4,4.8-3.8c1.2-1.1,2.2-2.3,3.3-3.5c1.9-2.2,3.9-4.4,5.9-6.7c4.5-5.3,8.5-11,12-17c6.7-11.6,13.5-23.3,17.6-36.2
		c1.8-5.8,3-11.7,4-17.7c1-6.1,1.9-12.3,2.6-18.4c0.8-6.2,1.6-12.3,2.6-18.5c1-6.1,2-12.3,3.9-18.1c0.9-2.3,2-4.6,3.3-6.8
		c0.2-0.3,0.4-0.5,0.7-0.8c0.2-0.2,0.5-0.3,0.7-0.4c2.8-1.1,5.7-1.7,8.5-2.7c2-0.6,3.9-1.5,5.7-2.3c1.9-0.9,3.8-1.9,5.6-3.1
		c2.1-1.4,3.5-3.4,4.8-5.4c1-1.7,1.7-3.7,2.1-5.6c0.5-2.1,0.4-4.6-0.1-6.7c-1.2-4.5-4.1-8.4-7.6-11.3c-3.7-3.1-7.9-5.6-11.1-9.1
		c-0.7-0.9-1.3-1.9-1.9-2.9c-0.4-1-0.7-2.1-1-3.1c-0.3-2.4-0.4-4.8-0.2-7.1c0.3-2.4,0.8-4.6,1.5-6.9c0.7-1.8,1.6-3.5,2.6-5.1
		c0.7-0.8,1.3-1.6,2.1-2.4c5.5-4.2,12.2-6.3,18-9.9c2-1.2,4-2.4,5.9-3.7c1.9-1.3,3.6-2.8,5.3-4.3c1.8-1.6,3.3-3.5,4.7-5.6
		c1.2-1.8,2-3.8,2.7-5.8c0.8-2.2,1.1-4.5,1.1-6.9c0-2.2-0.9-4.2-1.8-6.1c-1.1-2.2-3.2-4-5.2-5.3c-4.1-2.6-9-3.3-13.8-3.4
		c-0.6,0-1.2,0-1.9,0C963.2,920.3,962.3,920.3,961.3,920.4L961.3,920.4L961.3,920.4z M939.1,938.8c-0.2,0.1-0.5,0.2-0.7,0.3
		C938.7,939,938.9,938.9,939.1,938.8L939.1,938.8L939.1,938.8z M880,1035.4c-0.1,0.2-0.2,0.4-0.2,0.6
		C879.9,1035.8,880,1035.6,880,1035.4L880,1035.4L880,1035.4z M905.3,1126.1c-0.1,0.2-0.2,0.5-0.3,0.7
		C905.1,1126.6,905.2,1126.4,905.3,1126.1L905.3,1126.1L905.3,1126.1z M876,1046.1c0-0.1,0-0.1,0.1-0.2c0.1-0.3,0.2-0.5,0.3-0.8
		C876.3,1045.5,876.2,1045.8,876,1046.1L876,1046.1L876,1046.1z"/>
	<path style="fill:#161616;" d="M1064.3,775.6c-3.3,0.2-6.6,0.3-9.9,0.5c-13.4,0.7-26.8,1.4-40.2,2.8c-6.5,0.7-13.1,1.5-19.6,2.3
		c-3.4,0.4-6.7,0.8-10.1,1.1c-1.4,0.1-2.8,0.3-4.2,0.3c-2,0.1-4,0-5.9,0.5c-0.9-0.5-1.9-0.8-2.9-0.8c-3.2,0-6.2,2.8-6.1,6.1
		c0.2,5,0.4,9.9,0.6,14.9c0.1,2.3,0.2,4.5,0.2,6.8c0.1,2.3,0.4,4.7,0.9,7c0.6,2.8,2.6,5.4,4.8,7c3.9,2.7,8.9,2.7,13.5,2.8
		c2.4,0,4.9-0.1,7.3-0.1c3.5-0.1,7-0.3,10.5-0.5c13.5-0.7,26.9-1.4,40.4-2.2c6.5-0.4,13-0.7,19.4-1.3c1.7-0.2,3.3-0.3,5-0.5
		c1.1-0.2,2.3-0.3,3.4-0.5c0.3-0.1,0.7-0.1,1-0.2c1.5-0.3,2.9-0.9,4.3-1.5c1-0.5,2.3-1.5,3.1-2.2c0.9-0.9,1.7-1.8,2.5-2.9
		c1.1-1.6,1.9-3.2,2.7-5c1.3-3,2.3-6.1,3.2-9.2c0.9-3,1.5-6.1,2.1-9.1c0.2-0.9,0.3-1.8,0.4-2.7c0.2-1.7,0.3-2.6,0-4.3
		c-0.2-1-0.5-2.3-1.1-3.1c-0.7-0.9-1.3-1.8-2.2-2.6c-1.1-1-2.2-1.5-3.6-2c-2.3-0.8-4.7-1.1-7.1-1.2c-1.8-0.2-3.7-0.2-5.6-0.2
		C1069,775.5,1066.6,775.5,1064.3,775.6L1064.3,775.6L1064.3,775.6z M984.5,793.7c3.4-0.2,6.8-0.5,10.1-0.8
		c6.6-0.6,13.1-1.3,19.7-1.9c13.7-1.3,27.5-1.8,41.3-2.4c3.1-0.1,6.1-0.2,9.2-0.3c4.1-0.1,8.3-0.2,12.5,0.2c-0.5,1.6-1,3.1-1.5,4.6
		c-1,3.2-2.1,6.5-3.3,9.6c-0.6,1.4-1.3,2.7-2.1,3.9c-0.2,0.2-0.4,0.5-0.7,0.7c0,0-0.1,0-0.1,0.1c-2.5,0.8-5.2,1.1-7.8,1.5
		c-12.3,1.5-24.6,2.4-37,3.2c-6.4,0.5-12.7,0.9-19.1,1.3c-3.3,0.2-6.7,0.5-10,0.6c-5.3,0.2-10.7,0.7-16,0.2
		c-0.2-0.1-0.5-0.1-0.7-0.2c-0.2-0.6-0.3-1.2-0.4-1.8c-0.4-3.9-0.4-7.9-0.6-11.8c-0.1-2.2-0.2-4.4-0.3-6.7c0.7,0.1,1.4,0.1,2.1,0.1
		C981.3,793.9,982.9,793.8,984.5,793.7L984.5,793.7L984.5,793.7z M979.2,814.2C979.2,814.2,979.2,814.2,979.2,814.2
		c0.2,0.1,0.4,0.2,0.6,0.2C979.6,814.4,979.4,814.3,979.2,814.2L979.2,814.2L979.2,814.2z M979.3,814.7c0.1,0.1,0.2,0.3,0.3,0.4
		C979.5,814.9,979.4,814.8,979.3,814.7L979.3,814.7L979.3,814.7z"/>
	<path style="fill:#161616;" d="M1069.7,814.8c-1.7,1-2.6,2.5-3.3,4.4c-0.8,2-0.6,4.1-0.5,6.2c0,1.8,0.1,3.5,0.1,5.3
		c0.1,3.8,0,7.5-0.1,11.3c-0.2,7.8-0.8,15.5-1.5,23.2c-0.7,7.9-1.1,15.7-1.2,23.6c-0.1,8.1,0,16.1-0.3,24.1
		c-0.1,2.8-0.3,5.5-0.6,8.3c-0.4,3.1-0.9,6.1-1.9,9.1c0,0,0,0,0,0c-4.5,0.4-9,0.2-13.5,0.2c-5.2,0-10.4-0.1-15.6-0.2
		c-10.1-0.2-20.1-0.6-30.1-1.8c-0.8-0.1-1.5-0.3-2.2-0.5c-0.1-0.4-0.1-0.8-0.2-1.2c-1.3-11.3-2-22.6-3.1-33.9
		c-1.1-11.4-2.4-22.9-4-34.3c-0.1-0.5-0.1-0.9-0.2-1.4c0-0.6-0.1-1.2-0.3-1.8c0,0,0-0.1,0-0.1c0,0,0,0,0,0c0-0.4-0.1-0.8-0.1-1.1
		c0-0.4-0.1-0.8-0.2-1.3c0-0.2-0.1-0.4-0.1-0.6c-0.1-1.1-0.3-2.2-0.4-3.3c-0.2-1.7-0.4-3.3-0.7-5c0-0.1,0-0.2-0.1-0.3
		c0-0.4-0.1-0.7-0.1-1.1c0-0.1,0-0.2,0-0.4c0-0.4-0.1-0.8-0.1-1.2c0-0.3-0.1-0.5-0.1-0.8c0,0,0,0,0-0.1c0-0.3-0.1-0.7-0.1-1
		c0-0.3,0-0.5-0.1-0.8c0-0.3,0-0.7-0.1-1c0-0.5-0.1-0.9-0.2-1.3c0-0.3-0.1-0.7-0.1-1c0,0.3,0.1,0.7,0.1,1c0,0,0,0,0,0
		c-0.5-3.7-1-7.3-1.5-11c-0.3-1.9-2-3.7-3.5-4.6c-1.8-1-3.9-1.3-5.9-0.8c-1.9,0.5-3.6,1.8-4.6,3.5c-0.3,0.6-0.5,1.2-0.8,1.8
		c-0.4,1.4-0.4,2.7,0,4.1c0.4,3.2,0.9,6.4,1.3,9.7c0,0.8,0.1,1.7,0.3,2.5c0.1,0.4,0.1,0.8,0.2,1.2c0,0.4,0.1,0.7,0.2,1.1
		c0.1,0.7,0.2,1.5,0.3,2.2c0,0.4,0.1,0.7,0.2,1.1c0,0.3,0.1,0.6,0.1,0.9c0-0.3-0.1-0.5-0.1-0.8c0,0,0,0,0,0c0.2,1.6,0.4,3.1,0.6,4.7
		c0.1,0.7,0.2,1.4,0.3,2.1c0,0.7,0.1,1.3,0.3,2c0,0,0,0,0,0c0,0.1,0,0.2,0,0.3c0,0.3,0.1,0.7,0.1,1c0,0.4,0.1,0.7,0.1,1
		c0,0.6,0.1,1.2,0.3,1.8c2.1,15.6,3.7,31.3,5,47c0.7,8.6,1.3,17.4,2.8,25.9c1,5.9,6.5,8.8,11.8,10c2.7,0.6,5.5,0.8,8.3,1.1
		c3.8,0.4,7.6,0.7,11.5,0.9c7.9,0.4,15.9,0.6,23.8,0.7c3.7,0.1,7.4,0.1,11,0.1c3.5,0,7,0.1,10.4-0.3c4-0.4,8.2-1.3,10.8-4.6
		c1-1.3,1.6-2.3,2.3-3.8c0.6-1.5,1.1-2.9,1.6-4.4c0.6-1.9,0.9-3.8,1.1-5.7c0.6-4.7,1.1-9.3,1.4-13.9c0.4-8,0.3-16.1,0.3-24.1
		c0.1-11.9,1.3-23.6,2.1-35.5c0.4-5.8,0.6-11.7,0.6-17.5c0-2.7,0-5.5-0.1-8.2c0-1.2-0.1-2.5-0.1-3.7c0-0.6-0.1-1.3-0.1-1.9
		c-0.2-2-0.6-3-1.4-4.8c-1.1-2.3-3.9-3.6-6.3-3.6C1072,813.8,1070.8,814.1,1069.7,814.8L1069.7,814.8L1069.7,814.8z M988.7,835.7
		c0,0.1,0,0.2,0.1,0.4c0,0,0,0,0,0C988.7,835.9,988.7,835.8,988.7,835.7L988.7,835.7L988.7,835.7z M988.8,836.5
		C988.8,836.5,988.8,836.6,988.8,836.5c0,0.2,0,0.2,0,0.3c0,0,0,0,0,0c0,0,0,0,0-0.1C988.8,836.7,988.8,836.6,988.8,836.5
		L988.8,836.5L988.8,836.5z M973.4,837c0,0.3,0.1,0.7,0.1,1c0,0,0,0,0,0C973.5,837.7,973.5,837.3,973.4,837L973.4,837L973.4,837z
		 M973.5,837.5c0,0.2,0.1,0.4,0.1,0.5c0,0,0,0,0,0C973.6,837.8,973.5,837.7,973.5,837.5L973.5,837.5L973.5,837.5z M973.6,838.3
		c0,0,0,0.1,0,0.1c0,0.2,0,0.4,0.1,0.5c0,0,0,0,0,0C973.7,838.7,973.6,838.5,973.6,838.3L973.6,838.3L973.6,838.3z M991.8,858.9
		c0,0.1,0,0.2,0,0.2C991.8,859,991.8,858.9,991.8,858.9L991.8,858.9L991.8,858.9z M976.5,859.4c0,0.2,0.1,0.4,0.1,0.6
		C976.5,859.8,976.5,859.6,976.5,859.4L976.5,859.4L976.5,859.4z M976.5,860.2C976.6,860.2,976.6,860.2,976.5,860.2
		c0,0.2,0.1,0.5,0.1,0.7C976.6,860.6,976.6,860.4,976.5,860.2C976.6,860.2,976.6,860.2,976.5,860.2c0.1,0.5,0.1,0.9,0.2,1.3
		C976.7,861,976.6,860.6,976.5,860.2L976.5,860.2L976.5,860.2z M1060.8,929.5c-0.1,0.3-0.2,0.5-0.3,0.8c0,0,0,0,0,0
		C1060.6,930,1060.7,929.7,1060.8,929.5L1060.8,929.5L1060.8,929.5z M1060.3,930.6C1060.3,930.6,1060.3,930.6,1060.3,930.6
		C1060.3,930.6,1060.3,930.6,1060.3,930.6C1060.3,930.6,1060.3,930.6,1060.3,930.6L1060.3,930.6L1060.3,930.6z M974.9,848.1
		c0-0.1,0-0.1,0-0.2C974.9,848,974.9,848.1,974.9,848.1L974.9,848.1L974.9,848.1z"/>
	<path style="fill:#161616;" d="M1287.6,929.1c-35.6,0.6-71.2,1-106.8,1.9c-32.4,0.8-64.7,3.1-97,5.4c-9.9,0.7-19.8,1.5-29.7,2.1
		c-13.1,0.8-26.1,1.7-39.3,1.8c-13.1,0.1-26.2-0.6-39.2-1.9c-1.9-0.2-4.1,0.9-5.4,2.3c-1.4,1.4-2.3,3.4-2.3,5.4c0,2,0.8,4,2.3,5.4
		c1.6,1.6,3.3,2,5.4,2.3c12.5,1.2,25.1,1.9,37.6,1.9c12.6,0,25.2-0.8,37.8-1.6c10.2-0.6,20.3-1.4,30.5-2.1
		c17.9-1.3,35.7-2.4,53.6-3.6c7-0.5,14.1-0.7,21.1-1c7.6-0.3,15.2-0.7,22.8-0.9c18.3-0.5,36.7-0.8,55.1-1.1
		c33.6-0.5,67.2-1.1,100.8-1.5c17.1-0.2,34.3-0.2,51.4-0.2c16.5,0,33,0.6,49.5,1.4c15.5,0.7,31.1,1.7,46.6,2.7
		c15.2,0.9,30.4,2.2,45.4,4c-0.5-0.1-0.9-0.1-1.4-0.2c1.7,0.2,3.3,0.4,4.9,0.9c0.1,0.1,0.2,0.1,0.3,0.2c0,0,0,0,0,0
		c0.3,0.4,0.5,0.9,0.8,1.4c1.4,3.8,2.1,7.7,2.7,11.6c1,9.1,0.7,18.3,0,27.4c-0.3,3.8-0.7,7.5-1.1,11.3c-0.4,3.6-0.7,7.2-1.1,10.8
		c-0.1,0.7-0.3,1.4-0.5,2.1c-0.2,0.2-0.4,0.5-0.7,0.7c-0.6,0.3-1.1,0.7-1.7,1c-0.9,0.3-1.8,0.6-2.8,0.9c-0.4-0.2-0.9-0.4-1.5-0.6
		c-2-0.5-4.1-0.3-5.8,0.8c-0.6,0.4-1.2,0.8-1.7,1.4c-5.4,0.5-10.9,0.5-16.3,0.6c-3.9,0.1-7.7,0-11.6-0.1c-9-0.1-17.9-0.3-26.8-0.5
		c-17-0.3-34.1-0.4-51.1-0.5c-32.7-0.2-65.5,0.9-98.2,2.5c-33.7,1.6-67.3,3.7-100.9,5.5c-32.9,1.7-65.7,3.9-98.6,5.5
		c-34.5,1.6-68.9,2.8-103.4,4.6c-12.3,0.6-24.5,1.3-36.8,2c-12.3,0.7-24.7,1.3-37,2.9c0.3,0,0.5-0.1,0.8-0.1
		c-0.6,0.1-1.2,0.2-1.8,0.2c0.1,0,0.3,0,0.4-0.1c-0.1,0-0.3,0-0.4,0.1c-1,0.1-2,0.3-3,0.5c-1,0.2-2.4,1-3.3,1.6
		c-0.5,0.4-1,0.8-1.6,1.2c-0.7,0.8-1.3,1.7-1.9,2.5c-0.2,0.4-0.3,0.7-0.5,1.1c-0.5,1-0.9,2-1.2,3.1c-0.5,1.4-0.5,3-0.6,4.4
		c-0.3,3.1,0.5,6.5,1.1,9.6c0.9,4.9,2.5,9.6,4,14.3c1.2,3.8,2.6,7.5,4.1,11.1c1.6,4.1,3.2,8.2,5.2,12.1c1,2.1,2.1,4.2,3.1,6.2
		c0.8,1.6,1.8,3.2,2.8,4.8c0.9,1.5,1.8,3.2,2.8,4.7c1.6,2.2,3.2,4.5,4.7,6.7c2.6,3.6,5.5,7,8.3,10.5c1.2,1.5,2.7,2.9,4,4.3
		c1.2,1.3,2.3,2.6,3.6,3.9c3,2.9,6,5.9,9.2,8.6c1.8,1.6,3.7,3.1,5.5,4.7c1.8,1.5,3.7,2.9,5.6,4.3c6.9,5.3,14,10.1,21.3,14.8
		c14,9,28.8,16.6,43.8,23.7c7.1,3.4,14.3,6.6,21.5,9.8c7.9,3.4,15.9,6.9,24,9.8c16.4,5.9,32.9,11.4,49.4,16.7
		c8,2.6,16.2,4.7,24.3,6.6c7.9,1.9,15.9,3,23.9,4.1c2.3,0.3,4.7,0.5,7,0.7c2,0.2,3.9,0.4,5.9,0.5c4,0.2,7.9,0.5,11.9,0.5
		c4.2,0,8.5,0,12.7-0.3c4.2-0.3,8.3-0.6,12.4-1.1c8.7-1.1,17.4-2.2,25.9-3.9c8.7-1.7,17.3-3.6,25.9-5.6c8.7-2,17.3-4.7,25.8-7.2
		c7.9-2.4,15.6-5.2,23.3-8c4-1.4,7.9-3,11.9-4.5c1.3-0.5,2.5-1,3.8-1.5c0.1,0,0.3-0.1,0.4-0.1c0.6-0.2,1.2-0.4,1.7-0.7
		c0.1,0,0.1,0,0.2-0.1c0.6-0.2,1.1-0.4,1.6-0.7c0,0,0.1,0,0.1-0.1c0.6-0.2,1.1-0.4,1.7-0.7c0.3-0.1,0.5-0.2,0.8-0.3
		c0.1,0,0.2-0.1,0.3-0.1c0.6-0.2,1.1-0.4,1.6-0.7c0,0,0.1,0,0.1,0c0.1,0,0.1,0,0.2-0.1c0.6-0.2,1.1-0.4,1.6-0.7
		c0.1,0,0.2-0.1,0.2-0.1c0.4-0.1,0.8-0.3,1.1-0.5c0,0,0,0,0,0c0.1,0,0.1-0.1,0.2-0.1c7.2-3.1,14.2-6.6,21.1-10.2
		c8-4.3,15.9-8.7,23.7-13.4c6.6-4,13.2-8.2,19.6-12.6c3.4-2.4,6.8-4.8,10.1-7.3c2-1.6,4.2-3,6.2-4.7c1.8-1.5,3.5-3.1,5.3-4.6
		c3.2-2.7,6.1-5.7,9.1-8.6c1.1-1.1,2.2-2.3,3.2-3.4c1.4-1.6,3-3.1,4.4-4.7c5.8-6.8,11.4-13.7,16.6-21c0.9-1.3,1.9-2.7,2.8-4
		c1.2-1.9,2.6-3.8,3.7-5.8c2.1-3.8,4.2-7.6,6.2-11.5c3.8-7.7,7.1-15.6,10.3-23.5c1.5-3.8,2.8-7.8,4.2-11.6c1.5-4.3,3-8.6,4.5-12.9
		c1.5-4.2,2.9-8.5,4.2-12.8c0.5-1.9,1-3.8,1.5-5.7c0.1-0.6,0.3-1.2,0.4-1.8c1.1-0.3,2.1-0.7,3.1-1.1c1.4-0.6,2.7-1.1,3.9-1.9
		c1.2-0.7,2.2-1.6,3.3-2.5c2.4-1.9,3.7-4.8,4.8-7.6c0.8-2,0.9-4.4,1.1-6.5c0.1-0.9,0.2-1.9,0.3-2.8c0.2-2.2,0.4-4.4,0.6-6.6
		c0.8-8.1,1.7-16.2,1.9-24.4c0.2-5-0.1-10.1-0.6-15c-0.6-5.5-1.5-10.9-3.3-16.1c-0.9-2.7-2.2-5.3-4.1-7.4c-0.9-1-1.9-1.9-3.1-2.7
		c-1.4-0.9-2.9-1.6-4.5-2.2c-1.1-0.4-2.4-0.5-3.5-0.7c-1.4-0.2-2.9-0.4-4.3-0.6c-2-0.3-4-0.5-6.1-0.7c-4-0.5-8.1-0.8-12.2-1.2
		c-8.1-0.8-16.3-1.4-24.4-1.9c-32.3-2.1-64.7-4.1-97.1-4.2c-2.6,0-5.3,0-7.9,0C1349.4,928.3,1318.5,928.6,1287.6,929.1L1287.6,929.1
		L1287.6,929.1z M1532.2,953.2c0.1,0.1,0.1,0.1,0.2,0.2C1532.3,953.4,1532.3,953.3,1532.2,953.2L1532.2,953.2L1532.2,953.2z
		 M1532,1017.9c-0.1,0.1-0.2,0.2-0.3,0.3C1531.9,1018.1,1532,1018,1532,1017.9L1532,1017.9L1532,1017.9z M962.5,1057
		c7.7-0.5,15.4-0.9,23.1-1.4c17.1-0.9,34.3-1.8,51.4-2.6c16.2-0.8,32.4-1.3,48.6-2c17.5-0.7,34.9-1.6,52.4-2.5
		c15.9-0.8,31.8-1.8,47.7-2.7c18.2-1,36.5-2,54.7-3.1c32.1-1.8,64.2-3.7,96.4-5c16.2-0.6,32.4-1.3,48.6-1.4
		c17.1-0.1,34.2-0.2,51.3,0c17.1,0.2,34.3,0.6,51.4,0.8c9.2,0.1,18.4,0.2,27.6-0.3c-0.5,1.6-0.9,3.2-1.4,4.7
		c-1.4,4.2-2.8,8.4-4.3,12.6c-3.1,8.7-6,17.3-9.4,25.8c-1.4,3.3-2.9,6.6-4.4,9.9c-1.5,3.3-3,6.6-4.7,9.7c-2.1,3.7-4.1,7.3-6.4,10.9
		c-2.1,3.3-4.4,6.5-6.7,9.6c-4.9,6.2-9.9,12.3-15.3,18.1c-3,3.2-6.1,6.3-9.2,9.3c-2.8,2.7-5.8,5.1-8.7,7.7c-2.6,2-5.1,3.9-7.8,5.8
		c-3.6,2.5-7.3,5.1-11,7.5c-7,4.7-14.2,9.1-21.4,13.4c-7,4.2-14.3,8-21.6,11.7c-4,2-7.9,3.9-12,5.8c-1,0.5-2.2,0.9-3.2,1.4
		c-0.2,0.1-0.4,0.2-0.5,0.3c-0.2,0.1-0.4,0.2-0.6,0.3c-0.4,0.1-0.8,0.3-1.2,0.5c-0.1,0.1-0.3,0.1-0.4,0.2c-0.6,0.2-1.1,0.4-1.6,0.6
		c-0.5,0.2-1.1,0.4-1.6,0.7c-0.4,0.1-0.8,0.3-1.1,0.5c-0.1,0-0.2,0.1-0.3,0.1c-0.5,0.2-1,0.4-1.5,0.6c0,0-0.1,0-0.1,0c0,0,0,0-0.1,0
		c-0.4,0.1-0.7,0.2-1.1,0.4c-7.6,2.9-15.1,5.7-22.8,8.5c-8.4,3-16.9,5.5-25.4,8.1c-7.8,2.3-15.7,4.2-23.7,6
		c-7.9,1.8-15.8,3.4-23.7,4.8c-2.7,0.5-5.4,0.9-8.1,1.4c-8.6,1.1-17.2,2.2-25.9,2.2c-2.8,0-5.5,0-8.3,0.1c-2.5,0-5.1-0.2-7.6-0.3
		c-4.6-0.2-9.2-0.7-13.7-1.1c0.1,0,0.2,0,0.3,0c-7.3-1-14.5-2-21.7-3.8c-8.2-2-16.3-4-24.4-6.6c-16.6-5.3-33.2-10.8-49.6-16.7
		c-4.7-1.7-9.4-3.6-14.1-5.5c-15.1-6.6-30.1-13.4-44.8-20.9c-7.4-3.8-14.6-7.9-21.8-12.2c-7.2-4.3-14-9-20.9-13.8
		c-2.8-1.9-5.4-4.1-8.1-6.2c-2.6-2.3-5.2-4.5-7.9-6.8c-2.6-2.2-5-4.8-7.5-7.2c-2.5-2.4-4.7-5-7-7.6c-1.9-2.1-3.6-4.4-5.4-6.6
		c-1.8-2.5-3.6-5-5.3-7.6c-1.7-2.5-3.2-5.3-4.7-7.9c-1.5-2.4-2.6-5.1-3.9-7.6c-1-2.1-1.9-4.2-2.8-6.4c-3.8-9.8-7.7-19.8-9.4-30.2
		c-0.1-0.9-0.1-1.7-0.1-2.5C947.3,1057.9,954.9,1057.5,962.5,1057L962.5,1057L962.5,1057z M936.3,1043.9c0.1,0,0.1,0,0.2,0
		c0,0,0,0,0,0C936.4,1043.9,936.4,1043.9,936.3,1043.9L936.3,1043.9L936.3,1043.9z"/>
	<path style="fill:#161616;" d="M1174.8,1245c-1.9,0.5-3.6,1.8-4.6,3.5c-1.1,2-1.1,3.8-0.8,5.9c0.5,3.3,1,6.7,1.5,10
		c1.5,11.5,2.9,23,3.4,34.6c0.4,8.5,0.5,17,0.3,25.6c-0.2,9.1-0.3,18.2-0.7,27.3c-0.6,17.4-1.4,34.7-2.2,52.1
		c-1.4,32.9-4.3,65.8-8.7,98.5c-0.4,3.4-0.9,6.7-1.3,10.1c-1.2,7.7-2.3,15.5-3.7,23.2c-1.6,9.1-3.2,18.2-4.8,27.2
		c-3,16.4-6,32.8-9.2,49.2c-1.6,8.1-3.4,16.1-5.1,24.2c-1.7,7.5-3.4,15-5.6,22.3c-4.5,15.9-9.6,31.7-14.9,47.4
		c-2.6,7.7-5.3,15.3-8.3,22.9c-1.5,3.8-3.1,7.6-4.6,11.4c-1.5,3.9-2.8,7.8-4.4,11.7c-0.4,1.3-0.4,2.7,0,4c0.5,1.9,1.8,3.5,3.5,4.5
		c3.4,2,8.5,1,10.4-2.7c2.1-4.2,3.5-8.7,5.2-13.1c1.4-3.8,3-7.5,4.5-11.2c3-7.3,5.6-14.7,8.1-22.1c5.3-15.6,10.4-31.3,14.9-47.2
		c4.4-15.4,7.8-31.2,10.9-46.9c3.2-16.3,6.2-32.7,9.2-49.1c1.6-8.8,3.2-17.5,4.7-26.3c1.5-8.5,2.8-17.1,4.1-25.7
		c0.7-4.4,1.2-8.7,1.8-13.1c0.5-3.6,1-7.2,1.4-10.8c0.9-8.3,2-16.6,2.7-24.9c0.8-8.7,1.6-17.4,2.3-26.1c0.7-8.9,1.2-17.7,1.7-26.6
		c1-17.4,1.6-34.7,2.3-52.1c0.4-10.7,0.8-21.3,1-32c0.2-10.1,0.2-20.2-0.2-30.3c-0.6-16.8-3.1-33.6-5.5-50.2c-0.3-1.9-2-3.7-3.6-4.6
		c-1.2-0.7-2.5-1.1-3.9-1.1C1176.1,1244.7,1175.5,1244.8,1174.8,1245L1174.8,1245L1174.8,1245z"/>
	<path style="fill:#161616;" d="M1302.5,1237c-1.4,0.8-2.9,2.4-3.1,4.1c-0.9,6-1.6,12.1-2.3,18.2c-0.4,3.3-0.8,6.6-1,9.9
		c-0.2,4.8-0.4,9.6-0.7,14.5c-0.2,4.1-0.2,8.2-0.2,12.3c-0.3,15.3-0.3,30.6-0.3,45.9c0,4-0.1,8,0.1,12c0.2,4.7,0.3,9.4,0.5,14.1
		c0.3,8.2,1,16.4,1.6,24.6c0.6,7.8,1.5,15.6,2.3,23.4c0.8,7.8,1.8,15.5,2.7,23.3c0.9,7.6,2,15.1,3,22.7c1,8,2.2,16,3.5,24
		c2.5,15.9,5.1,31.8,8,47.7c1.6,8.7,3.3,17.3,5.1,25.9c1.4,6.7,2.8,13.5,4.5,20.2c1.2,4.5,2.3,9,3.5,13.5c1.1,4.2,2.4,8.4,3.6,12.6
		c2.1,7.3,4.7,14.4,7.3,21.5c5.7,15.4,12.4,30.6,19.6,45.4c3.2,6.7,6.6,13.3,10.4,19.7c3.9,6.8,7.9,13.6,12.2,20.2
		c7.3,11,15.1,21.6,23.2,32.1c3.4,4.4,7.2,8.8,11.2,12.7c4.5,4.3,9.3,8.2,14.3,12c1.2,0.7,2.4,1,3.8,1c2,0,3.9-0.8,5.3-2.2
		c3-3,2.8-7.6,0-10.6c-2-2.1-4.4-3.9-6.6-5.8c-2.4-2.1-4.8-4.1-7.1-6.4c-4-4-7.6-8.5-11.1-12.9c-4.6-6-9.1-12.1-13.4-18.3
		c-4.7-6.8-9.1-13.7-13.4-20.7c-8.2-13.4-15.2-27.4-21.7-41.6c-1.9-4.2-3.8-8.5-5.6-12.8c-1.5-3.6-3-7.2-4.4-10.7
		c-1.6-3.8-2.9-7.8-4.4-11.7c-1.4-3.8-2.6-7.7-3.8-11.5c-1.2-3.6-2.2-7.3-3.3-11c-4.5-15.3-7.9-30.9-11.1-46.5
		c-6-28.9-10.5-58.1-14.9-87.3c-2-14.7-4.1-29.5-5.6-44.3c-1.7-16-3.4-32-4.1-48c-0.2-4.7-0.4-9.4-0.6-14.1c-0.2-4-0.1-8-0.1-12
		c-0.1-8.1-0.1-16.2-0.1-24.3c0-7.2-0.1-14.4,0-21.6c0-4.1,0-8.2,0.1-12.3c0.2-4.8,0.4-9.6,0.6-14.5c0.1-2.6,0.4-5.2,0.7-7.9
		c0.4-3.8,0.8-7.6,1.3-11.4c0.2-1.7,0.5-3.4,0.7-5.1c0.3-1.9,0.3-3.5-0.7-5.3c-0.9-1.5-2.4-2.7-4.1-3.1c-0.6-0.2-1.2-0.2-1.8-0.2
		C1304.8,1236,1303.6,1236.4,1302.5,1237L1302.5,1237L1302.5,1237z M1414.8,1731c0.2,0.2,0.3,0.4,0.5,0.6
		C1415.1,1731.4,1415,1731.2,1414.8,1731L1414.8,1731L1414.8,1731z"/>
	<path style="fill:#161616;" d="M1103.1,1751.8c-1.2,2.2-2.4,4.3-3.6,6.4c-0.4,0.7-0.9,1.4-1.3,2.1c-0.9,1.3-1.5,2.8-2.4,4.2
		c-0.6,0.7-1.1,1.5-1.3,2.4c-0.4,1.6-0.2,3.3,0.6,4.7c1.3,2.2,4.3,3.7,6.8,2.8c1.3-0.5,2.6-0.9,3.7-1.8c1.5-1.1,2.8-2.3,3.8-3.9
		c0.6-1.1,1.3-2.2,1.9-3.3c1.2-2.2,2.4-4.4,3.6-6.7c1.8-3.3,0.8-7.4-2.4-9.3c-1-0.6-2.2-0.9-3.4-0.9
		C1106.7,1748.4,1104.3,1749.6,1103.1,1751.8L1103.1,1751.8L1103.1,1751.8z"/>
	<path style="fill:#161616;" d="M1026.7,839.1c-4.5,0.7-8.3,3-12,5.4c-0.5,0.4-1,0.8-1.4,1.3c-0.9,0.4-1.8,1-2.5,1.8
		c-1.2,1.2-2.3,2.5-3.3,3.8c-1.4,1.8-2.5,3.9-3.6,5.9c-2,3.8-3.2,7.9-4,12.1c-0.8,4-0.8,8.1-0.3,12.1c0.6,4.4,2.3,8.3,4.5,12.2
		c1.9,3.4,5.1,6.2,8.3,8.4c1.7,1.2,3.5,2.2,5.4,3c2,0.8,4.2,1.4,6.4,1.8c2.2,0.4,4.6,0.5,6.8,0.6c1.8,0,3.5-0.1,5.2-0.4
		c4.1-0.7,7.8-2.4,11.2-4.8c3.4-2.4,6.1-5.7,8.2-9.2c2.1-3.6,3.4-7.4,4.3-11.5c0.4-1.8,0.6-3.7,0.7-5.6c0.1-2.2,0.2-4.2-0.1-6.4
		c-0.6-4.1-2-8.2-3.9-11.8c-1.9-3.7-4.1-7-7-10c-2.8-2.8-6.2-5.3-9.8-6.9c-2.9-1.3-6.2-2-9.5-2
		C1029,838.8,1027.9,838.9,1026.7,839.1L1026.7,839.1L1026.7,839.1z M1029.9,854.1c0.9,0.1,1.7,0.3,2.6,0.5c1,0.4,1.9,0.8,2.8,1.3
		c1.4,1,2.6,2,3.8,3.2c1.3,1.5,2.4,3.2,3.4,4.9c1,2.1,1.8,4.3,2.5,6.5c0.2,1.3,0.3,2.5,0.3,3.8c-0.2,2.4-0.6,4.7-1.2,7
		c-0.6,1.6-1.3,3.1-2.1,4.6c-0.8,1.1-1.6,2.1-2.6,3.1c-0.8,0.7-1.7,1.3-2.6,1.8c-0.9,0.4-1.9,0.8-2.8,1.1c-1.2,0.2-2.5,0.3-3.8,0.3
		c-2-0.2-4-0.5-5.9-1c-1.1-0.5-2.2-1-3.3-1.6c-1.1-0.8-2.2-1.6-3.2-2.6c-0.7-0.9-1.3-1.8-1.9-2.8c-0.6-1.3-1.1-2.6-1.5-4
		c-0.3-2-0.5-4-0.5-6c0.2-2.6,0.7-5.1,1.4-7.5c0.8-2.2,1.8-4.2,2.9-6.3c1-1.4,2.1-2.7,3.3-4c0.1-0.1,0.1-0.1,0.2-0.2
		c1.8-0.8,3.6-1.5,5.4-2C1028,854.2,1028.9,854.1,1029.9,854.1L1029.9,854.1L1029.9,854.1z"/>
	<path style="fill:#161616;" d="M1176.5,255.5c-1.4,1.6-1.9,3.4-2,5.5c-1.8,91.2-3.6,182.4-5.3,273.6c-1.7,86.2-3.4,172.5-5,258.7
		c0,2,1.1,4,2.5,5.3c1.6,1.4,3.5,1.9,5.6,2c45.9,0.9,91.8,1.8,137.8,2.7c23.5,0.5,47,0.9,70.5,1.3c22.4,0.4,44.9,0.9,67.3,1.3
		c85.6,1.7,171.2,3.3,256.7,5c2,0,4-1.1,5.3-2.5c1.4-1.6,1.9-3.4,1.9-5.5c1.8-91.5,3.6-183,5.4-274.5c1.7-85.9,3.4-171.9,5-257.8
		c0-2-1.1-4-2.5-5.3c-1.6-1.4-3.4-1.9-5.5-2c-91.5-1.8-183.1-3.6-274.6-5.3c-85.9-1.7-171.7-3.3-257.6-5c0,0-0.1,0-0.1,0
		C1179.7,253,1177.7,254.1,1176.5,255.5L1176.5,255.5L1176.5,255.5z M1184.8,517.5c1.6-83,3.2-166,4.8-249
		c89.9,1.7,179.9,3.5,269.8,5.2c82.4,1.6,164.7,3.2,247.1,4.8c-1.7,89.1-3.4,178.2-5.2,267.3c-1.6,83.2-3.2,166.5-4.8,249.7
		c-89.6-1.7-179.3-3.5-268.9-5.2c-15.5-0.3-31.1-0.6-46.6-0.9c-58.9-1.4-117.8-2.4-176.7-3.5c-8.3-0.2-16.6-0.3-24.8-0.5
		C1181.4,696.1,1183.1,606.8,1184.8,517.5L1184.8,517.5L1184.8,517.5z"/>
	<path style="fill:#161616;" d="M1348.6,456c-4.4,1-8.6,2.6-12.5,5c-1.8,1.1-3.4,2.5-5,3.9c-1.6,1.4-3,2.8-4.3,4.4
		c-2.6,3.2-4.6,7-6.3,10.8c-1.5,3.1-2.6,6.4-3.8,9.6c-1.1,3-1.5,6.2-2,9.3c-0.2,1.6-0.2,3.4-0.3,5c-0.1,1.7-0.1,3.3-0.2,5
		c-0.1,3.1,0.1,6.1,0.1,9.2c0,2.5,0.2,4.9,0.4,7.4c0.2,2.2,2,4,4.3,3.9c0.9,0,1.7-0.4,2.3-0.9c0.2,0,0.3,0,0.5,0
		c3.2,0.3,6.4,0.9,9.5,1.4c4,0.6,9.6,1.1,12.6-2.2c1.2-1.3,1.7-3,2.2-4.6c0.3-0.8,0.5-1.6,0.7-2.4c1.7-6.9,1.7-14.1,2.2-21.2
		c0.2-1.7,0.5-3.4,1-5.1c0.1-0.2,0.2-0.4,0.2-0.6c0.1,0,0.1,0,0.2,0.1c0.6,0.3,1.2,0.6,1.8,0.9c0.3,0.3,0.6,0.6,0.9,0.9
		c0.8,1.1,1.6,2.3,2.2,3.6c1.7,3.9,2.7,8,3.6,12.2c0.5,2.9,1.1,5.9,1.7,8.8c0.4,1.8,1.1,3.7,2.3,5.1c0.3,0.4,0.7,0.8,1,1.2
		c0.6,0.5,1.2,0.9,1.8,1.2c1.2,0.6,2.4,0.7,3.7,0.8c1.5,0,3,0,4.5,0.1c3.2,0,6.4,0.1,9.6,0.1c1.3,0,2.5,0,3.8,0
		c1.2,0,2.4-0.1,3.6-0.2c1.2-0.1,2.4-0.4,3.5-0.7c1.4-0.4,3.3-1.4,4.2-2.6c1-1.2,1.7-2.3,2.2-3.9c0.3-1,0.4-2.2,0.4-3.2
		c0-0.6,0-1.3-0.1-1.9c-0.1-1.5-0.3-3-0.5-4.5c-0.5-3.6-1-7.2-1.8-10.7c-0.6-3-1.3-5.9-2.1-8.8c-0.9-3-2-5.8-3.1-8.7
		c-0.8-1.9-1.8-3.7-2.7-5.5c-1.8-3.6-4.2-6.9-6.9-9.9c-5.9-6.6-13.8-11.5-22.5-12.9c-1.5-0.2-2.9-0.3-4.3-0.3
		C1354.7,454.9,1351.7,455.3,1348.6,456L1348.6,456L1348.6,456z M1357.6,466.1c1.8,0.2,3.5,0.6,5.2,1.2c1.8,0.7,3.4,1.7,5.1,2.7
		c2.2,1.6,4.3,3.5,6.2,5.5c2.1,2.6,3.9,5.4,5.4,8.4c1.3,2.9,2.5,5.8,3.4,8.9c0.8,2.8,1.5,5.6,2.1,8.5c0.5,3,1,6.1,1.3,9.2
		c0.1,1.5,0.3,3,0.4,4.5c-2.3,0.2-4.5,0.3-6.8,0.5c-2.4,0.1-4.7,0.4-7.1,0.6c-0.4-1.5-0.6-3.1-0.9-4.6c-0.4-2.1-0.8-4.1-1.3-6.2
		c-0.7-3-1.7-5.9-2.9-8.7c-1.1-2.5-2.4-5-4.1-7.1c-1.9-2.5-4.3-4.4-7.2-5.6c-2.2-0.9-4.4-1.5-6.8-1.4c-3.1,0.1-6,2-7.8,4.4
		c-3,4-3.3,9.5-3.5,14.4c-0.1,2.2-0.1,4.3-0.1,6.4c0,1.7-0.1,3.5-0.3,5.2c-0.3,2.5-0.6,5-1.3,7.4c-0.4,0-0.7,0-1.1,0
		c-4.3-0.5-8.5-1.6-12.8-2.2c-0.1-4.2,0.1-8.4,0.3-12.6c0.2-2.2,0.4-4.4,0.8-6.6c0.4-2.3,1.1-4.4,1.7-6.6c1.9-4.7,3.9-9.4,6.7-13.6
		c1.4-1.9,2.9-3.6,4.7-5.2c1.9-1.6,3.9-2.9,6-4.1c2.4-1.1,4.9-1.8,7.5-2.4C1352.8,466.2,1355.2,466,1357.6,466.1L1357.6,466.1
		L1357.6,466.1z M1336.7,473.3c-0.2,0.2-0.4,0.3-0.6,0.5C1336.4,473.6,1336.5,473.5,1336.7,473.3L1336.7,473.3L1336.7,473.3z
		 M1351.4,492.8c-0.2,0.2-0.3,0.3-0.5,0.5C1351.1,493.1,1351.3,492.9,1351.4,492.8L1351.4,492.8L1351.4,492.8z M1349.7,493.7
		c-0.1,0-0.2,0-0.3,0C1349.5,493.7,1349.6,493.7,1349.7,493.7L1349.7,493.7L1349.7,493.7z M1350.1,493.8c-0.1,0.1-0.3,0.1-0.4,0.2
		C1349.8,493.9,1349.9,493.8,1350.1,493.8L1350.1,493.8L1350.1,493.8z"/>
	<path style="fill:#161616;" d="M1352,425.3c-1.7,0.5-3.2,1.5-4.5,2.7c-1.6,1.4-2.8,2.9-4,4.6c-1.9,2.7-3.1,5.8-4.2,8.9
		c-1.2,3.5-2.1,7.1-2.7,10.7c-0.9,5.8-1,11.7-0.9,17.5c0.1,2.6,0.3,5.1,0.6,7.7c0.4,2.8,1,5.6,1.7,8.3c0.7,2.7,1.7,5.3,2.9,7.8
		c0.8,1.7,1.9,3.1,3.3,4.5c0.6,0.6,1.6,1.3,2.3,1.7c1.1,0.6,2.3,1,3.6,1.3c1.9,0.4,4.1,0.3,5.9-0.2c1.6-0.5,3.1-1.2,4.6-2
		c1.7-1,2.4-3.3,1.8-5.1c-0.8-2.4-3.3-3.4-5.6-2.8c-0.1,0-0.3,0.1-0.4,0.1c-1.2,0.2-2.5,0.3-3.8,0.3c-0.4-0.1-0.7-0.1-1.1-0.2
		c0,0-0.1,0-0.1-0.1c-0.3-0.2-0.6-0.5-0.8-0.7c-0.3-0.4-0.6-0.8-0.8-1.3c-1.6-3.7-2.6-7.5-3.5-11.5c-0.5-3.4-0.9-6.8-0.9-10.2
		c0-2.1,0-4.2,0-6.3c0-1.6,0.2-3.3,0.3-4.9c0.5-4.1,1.3-8.1,2.6-12c0.9-2.3,1.8-4.5,3.1-6.5c0.7-0.8,1.4-1.6,2.1-2.4
		c0.3-0.2,0.5-0.4,0.8-0.5c0.3-0.1,0.5-0.2,0.8-0.3c0.3,0,0.6-0.1,1-0.1c0.1,0,0.2,0,0.3,0.1c0.1,0.1,0.2,0.1,0.3,0.2
		c0.3,0.2,0.5,0.4,0.7,0.7c0.4,0.6,0.7,1.1,1.1,1.7c2.5,5.6,3.3,11.8,5,17.6c0.8,2.5,3.7,3.9,6.1,3.1c2.6-0.8,3.9-3.6,3.1-6.1
		c-0.8-2.7-1.5-5.5-2.2-8.2c-0.6-2.4-1.2-4.7-2-7c-1.2-3.4-3-6.9-5.9-9.2c-1.5-1.2-3.3-1.9-5.1-2.2c-0.5-0.1-1.1-0.1-1.7-0.1
		C1354.8,424.7,1353.4,425,1352,425.3L1352,425.3L1352,425.3z M1357,434.4c0.1,0,0.2,0.1,0.3,0.1
		C1357.2,434.5,1357.1,434.5,1357,434.4L1357,434.4L1357,434.4z M1357.3,434.7c0.1,0,0.1,0.1,0.2,0.1
		C1357.5,434.8,1357.4,434.8,1357.3,434.7L1357.3,434.7L1357.3,434.7z M1350.1,489.4c0.1,0.1,0.1,0.3,0.2,0.4
		C1350.3,489.7,1350.2,489.6,1350.1,489.4L1350.1,489.4L1350.1,489.4z M1356.1,490.9c-0.1,0-0.2,0-0.3,0.1
		C1355.9,491,1356,491,1356.1,490.9L1356.1,490.9L1356.1,490.9z"/>
	<path style="fill:#161616;" d="M1358.9,522c-15.8,0.6-31.7,1.6-47.5,1.9c-3.6,0.1-7.2,0-10.8-0.1c-1.2,0-2.4,0.3-3.6,0.7
		c-1.7,0.6-2.8,1.6-3.9,2.9c-1.6,1.9-2.3,4.3-2.6,6.7c-0.4,3.6-0.4,7.3-0.5,10.9c-0.1,7.7-0.7,15.3-0.9,23
		c-0.4,15.8-0.2,31.6-0.1,47.5c0.1,7.3,0.3,14.7,0.6,22c0.2,3.6,0.3,7.2,0.5,10.8c0.2,2.4,0.7,5.3,2.1,7.4c1.4,2,3.2,3.9,5.3,5.1
		c5.3,2.8,11.3,3.4,17.1,3.8c7.5,0.5,15,0.9,22.5,0.9c7.9-0.1,15.8-0.3,23.7-0.9c15.7-1.2,31.8-1.9,46.8-6.6c3.2-1,6.2-2.6,8.4-5.1
		c1.9-2,2.8-4.8,3.6-7.3c0.5-1.7,0.6-3.5,0.7-5.3c0.4-4.1,0.6-8.2,0.6-12.4c0.1-8,0-16-0.2-24.1c-0.1-6.1-0.3-12.3-0.9-18.4
		c-0.6-6.6-1.5-13.1-2.6-19.6c-1.1-6.3-2-12.7-2.8-19.1c-0.3-2.8-0.7-5.7-1-8.5c-0.2-1.8-0.4-3.6-0.8-5.4c-0.3-1-0.7-1.9-1.2-2.7
		c0.2-0.7,0.2-1.3,0.2-2c-0.1-1.8-0.9-3.4-2.2-4.6c-1.4-1.3-3-1.6-4.8-1.7c-6.1-0.5-12.3-0.6-18.4-0.6
		C1377.3,521.2,1368.1,521.6,1358.9,522L1358.9,522L1358.9,522z M1311.8,538.6c4.1-0.2,8.1-0.4,12.2-0.6c7.6-0.5,15.2-0.9,22.8-1.4
		c8-0.5,16.1-0.9,24.1-1.3c7.2-0.4,14.4-0.7,21.6-0.6c1.9,0,3.8,0.1,5.6,0.1c0,0.5,0,1,0.1,1.5c0.2,1.7,0.4,3.4,0.6,5.1
		c0.4,3.7,0.8,7.3,1.2,11c0.9,7.3,2.4,14.5,3.4,21.8c0.5,4.1,1,8.2,1.4,12.3c0.4,3.9,0.5,7.9,0.6,11.8c0.3,7.6,0.4,15.1,0.4,22.7
		c0,5.2-0.1,10.5-0.3,15.7c-0.2,1.9-0.4,3.8-0.8,5.6c-0.1,0.1-0.1,0.2-0.2,0.3c-3.3,1.4-6.9,2.1-10.4,2.9
		c-12.5,2.1-25.2,3.1-37.9,3.9c-6.9,0.4-13.9,0.8-20.8,0.7c-6.9-0.1-13.7-0.4-20.6-0.8c-2.9-0.3-5.7-0.6-8.5-1.4
		c-0.3-0.1-0.5-0.2-0.8-0.3c-0.4-3.2-0.4-6.5-0.5-9.6c-0.2-3.8-0.3-7.6-0.5-11.4c-0.3-7.9-0.3-15.7-0.4-23.6
		c-0.2-15.4-0.1-30.8,0.5-46.1c0.1-3.2,0.3-6.4,0.4-9.6c0.1-2.8,0.1-5.6,0.2-8.3C1307.5,538.7,1309.7,538.7,1311.8,538.6
		L1311.8,538.6L1311.8,538.6z M1404.3,643.1c-0.2,0.2-0.3,0.3-0.5,0.4C1404,643.3,1404.2,643.2,1404.3,643.1L1404.3,643.1
		L1404.3,643.1z M1305.9,647.9c0.1,0.1,0.3,0.2,0.4,0.3C1306.2,648.1,1306.1,648,1305.9,647.9L1305.9,647.9L1305.9,647.9z
		 M1305.7,647.9c0.1,0.2,0.3,0.3,0.4,0.5C1306,648.3,1305.8,648.1,1305.7,647.9L1305.7,647.9L1305.7,647.9z"/>
	<path style="fill:#161616;" d="M1346,559.1c-3.1,0.5-5.8,1.7-8.6,3c-2.4,1.2-4.6,2.9-6.2,5.1c-1.7,2.4-2.7,5.2-2.8,8.2
		c-0.2,4.8,2.1,9.3,4.5,13.4c1,1.7,2.2,3.2,3.3,4.8c1.2,1.7,2.7,3.2,3.8,4.9c0,0,0,0,0,0c0.1,1.7,0,3.5-0.1,5.2
		c-0.6,6.5-1.7,13-3,19.4c-0.5,2.4,1,4.7,3.4,5.3c0.4,0.1,0.8,0.1,1.2,0.1c0.2,0.3,0.5,0.6,0.7,0.8c0.3,0.2,0.7,0.5,1,0.7
		c0.8,0.4,1.6,0.6,2.5,0.5c-1.3-0.1,1.2,0.1,1.6,0.1c0.4,0,0.7,0,1.1,0c0.8,0,1.6,0,2.4,0.1c1.7,0,3.5,0.1,5.2,0.2
		c3,0.1,6.1,0.1,9.1-0.2c2.8-0.3,5.8-0.5,8.5-1.5c2.2-0.8,4.2-2.4,4.7-4.9c0.5-2.1-0.6-4-1.5-5.9c-1.3-2.7-2.8-5.3-4.1-8
		c-1.5-3.3-2.9-6.6-4.1-10c-1.3-3.7-2.4-7.5-3.3-11.3c-0.1-0.5-0.1-1-0.2-1.5c0,0,0-0.1,0-0.1c1.3-1.8,2.5-3.7,3.4-5.8
		c1-2.4,1.5-4.9,1.4-7.6c0-1.3-0.5-2.7-0.8-4c-0.3-1.2-0.9-2.3-1.6-3.4c-0.7-1.2-1.8-2.2-2.8-3.1c-1-0.9-2.2-1.6-3.3-2.3
		c-1.1-0.7-2.5-1.2-3.8-1.6c-1.3-0.4-2.5-0.6-3.8-0.8c-1-0.1-2.1-0.2-3.2-0.2C1349,558.8,1347.5,558.9,1346,559.1L1346,559.1
		L1346,559.1z M1353,567.2c1.1,0.1,2.1,0.4,3.1,0.7c0.9,0.4,1.8,0.9,2.7,1.5c0.6,0.5,1.2,1,1.8,1.5c0.2,0.3,0.4,0.6,0.6,0.9
		c0.3,0.8,0.6,1.6,0.8,2.4c0.1,0.5,0.1,1,0.1,1.5c-0.1,0.9-0.3,1.7-0.6,2.5c-0.5,1.2-1.1,2.3-1.8,3.4c-0.5,0.7-1.2,1.4-1.6,2.2
		c-1,1.8-1.1,3.6-0.9,5.7c0.3,2.3,0.8,4.5,1.4,6.7c0.8,3.2,1.6,6.4,2.6,9.5c1.1,3.3,2.3,6.4,3.6,9.6c0.8,1.9,1.7,3.8,2.6,5.7
		c-3.5,0.5-7,0.6-10.5,0.5c-3.5-0.1-7-0.6-10.5-0.6c0.4-2.2,0.8-4.5,1.2-6.7c0.6-3.5,1.1-6.9,1.7-10.4c0.3-1.9,0.9-4,0.9-5.9
		c0-3.3-1.9-6-3.9-8.4c-2.5-3.1-4.9-6.2-6.7-9.8c-0.5-1.2-0.9-2.3-1.3-3.5c-0.1-0.5-0.1-1-0.1-1.4c0.1-0.5,0.2-1,0.3-1.4
		c0.2-0.4,0.4-0.7,0.6-1.1c0.3-0.3,0.5-0.6,0.8-0.9c1.1-0.9,2.4-1.6,3.6-2.3c1.3-0.6,2.7-1.2,4.2-1.5
		C1349.4,567.3,1351.2,567.2,1353,567.2L1353,567.2L1353,567.2z M1364.9,588c0,0.1,0,0.3,0,0.4
		C1364.8,588.3,1364.8,588.1,1364.9,588L1364.9,588L1364.9,588z M1339.9,603.3c0,0.1,0,0.2,0,0.3
		C1339.8,603.6,1339.8,603.4,1339.9,603.3L1339.9,603.3L1339.9,603.3z M1339.8,604.1c0,0.2,0,0.3,0,0.5
		C1339.8,604.4,1339.8,604.3,1339.8,604.1L1339.8,604.1L1339.8,604.1z"/>
	<path style="fill:#161616;" d="M1449.2,259.9c-4.2,0.2-7.3,3.9-7.2,8c0.6,18.4,0.5,36.7,0.2,55.1c-0.2,16.1-1,32.2-1.5,48.3
		c-0.6,16.7-1,33.5-1.2,50.2c-0.2,17.3-0.2,34.5-0.2,51.7c0,33-0.3,66.1-1,99.1c-0.4,16.4-0.9,32.9-1.5,49.3
		c-0.6,17.4-1.5,34.9-2,52.3c-0.5,16.5,0.1,33.1,0.6,49.6c0.4,15.8,1.5,31.5,2,47.3c0.1,3.8,0.3,7.6,0.5,11.3
		c0.2,3.6,0.2,7.3,0.7,10.9c0.3,2.1,0.9,3.8,2.5,5.3c1.5,1.3,3.5,2,5.5,1.9c4.2-0.2,7.4-3.9,7.2-8c-0.3-7.2-0.8-14.3-1.1-21.5
		c-0.2-7.7-0.6-15.3-1-23c-0.8-16.4-1.4-32.8-1.6-49.2c-0.3-17.4,0.3-34.7,1.1-52c0.8-16.6,1.3-33.1,1.8-49.7
		c1.1-33.5,1.5-67.1,1.7-100.6c0.2-32.9-0.2-65.9,0.6-98.8c0.4-17.2,1.1-34.4,1.8-51.7c0.6-16,0.8-32,0.7-48
		c0-10.2-0.2-20.4-0.5-30.6c-0.1-4-3.7-7.2-7.6-7.2C1449.4,259.9,1449.3,259.9,1449.2,259.9L1449.2,259.9L1449.2,259.9z"/>
	<path style="fill:#161616;" d="M1483.2,436.2c-1.4,0-2.7,0.1-4.1,0.1c-2.7,0.1-5.5,0.1-8.2,0.3c-6.3,0.3-12.5,0.6-18.7,1.1
		c-12.8,0.9-25.6,1.8-38.4,2.6c-15.5,1.1-31,3-46.6,3.9c-2.3,0.1-4,2.1-3.9,4.4c0.1,2.3,2.1,4,4.4,3.9c6.5-0.3,13-0.7,19.6-0.9
		c6.2-0.2,12.4-0.3,18.7-0.4c13.2-0.2,26.4-0.2,39.6-0.4c7.2-0.1,14.5,0,21.7,0.1c3.5,0,7,0.2,10.5,0.3c1.6,0,3.1,0.1,4.7,0.1
		c2.7,0.1,5.3-0.1,7.5-1.8c1.5-1.1,2.5-2.4,2.9-4.3c0.5-2.4-0.3-5-2.1-6.6c-0.7-0.6-1.6-1.3-2.5-1.6c-0.6-0.2-1.2-0.4-1.8-0.7
		c-0.8-0.1-1.6-0.2-2.3-0.2c-0.1,0-0.2,0-0.3,0C1483.6,436.2,1483.4,436.2,1483.2,436.2L1483.2,436.2L1483.2,436.2z"/>
	<path style="fill:#161616;" d="M1565.7,458.7c-3,0.3-5.9,0.6-8.9,0.9c-6,0.6-12,1.1-18,1.6c-7.7,0.7-15.5,0.9-23.3,1.4
		c-3.9,0.3-7.9,0.5-11.8,1.1c-1.9,0.3-3.7,0.6-5.6,0.9c-0.9,0.1-1.7,0.3-2.6,0.4c-1.4,0.3-2.6,0.5-3.8,1.2c-1.2,0.6-2.2,1.6-3.1,2.5
		c-0.6,0.6-0.9,1.4-0.9,2.3c-0.2,0-0.4,0.1-0.6,0.1c-1.1,0.4-1.8,1.2-2.5,2c-1.4,1.5-1.2,3.9,0.3,5.3c0.5,0.4,1.1,0.7,1.7,0.9
		c0.1,1.6,0.1,3.2,0.1,4.8c-0.3,2.1-0.8,4.3-0.2,6.4c1.4,4.4,6.1,5.7,10.2,6.1c4.9,0.5,9.8,0.3,14.7,0.3c5.8,0,11.6-0.1,17.4-0.2
		c12.1-0.2,24.1-0.4,36.2-0.8c2.9-0.1,5.8-0.2,8.7-0.3c2.3-0.1,5-0.2,7.2-1.1c1.7-0.8,2.4-1.2,3.7-2.4c0.9-0.8,1.5-1.6,2.1-2.6
		c1.2-2,1.9-4.3,2.4-6.5c0.8-3.6,0.9-7.3,0.9-10.9c0-2.1-0.3-4.1-0.7-6.2c-0.2-1-0.8-1.9-1.4-2.6c-1-1.2-1.8-2-3.2-2.8
		c-1-0.6-2.1-1.1-3.3-1.4c-1.4-0.4-2.8-0.5-4.2-0.6c-0.8-0.1-1.6-0.1-2.4-0.1C1571.7,458.1,1568.7,458.4,1565.7,458.7L1565.7,458.7
		L1565.7,458.7z M1498,474c1.4-0.1,2.8-0.2,4.3-0.2c2.8-0.2,5.5-0.3,8.2-0.4c5.9-0.1,11.8-0.3,17.8-0.3c11.8-0.1,23.5-0.9,35.2-1.7
		c4-0.3,8-0.5,12-0.3c0,0,0,0,0.1,0c-0.3,3.3-0.6,6.6-1.5,9.7c-2.4,0.3-4.8,0.5-7.3,0.6c-2.9,0.2-5.8,0.4-8.7,0.5
		c-6.3,0.3-12.6,0.6-18.9,0.9c-11.8,0.5-23.6,1-35.4,1.4c-2.5,0.1-4.9,0.1-7.4,0c-0.1,0-0.2,0-0.3,0c-0.5-1.8-1-3.6-1.4-5.4
		c-0.3-1.5-0.7-3.2-1.5-4.7C1494.9,474,1496.4,474,1498,474L1498,474L1498,474z M1574.5,480.8
		C1574.5,480.8,1574.5,480.8,1574.5,480.8C1574.5,480.8,1574.5,480.8,1574.5,480.8C1574.5,480.8,1574.5,480.8,1574.5,480.8
		C1574.5,480.8,1574.5,480.8,1574.5,480.8L1574.5,480.8L1574.5,480.8z M1573.9,481.3C1573.9,481.3,1573.9,481.3,1573.9,481.3
		c0,0-0.1,0-0.1,0C1573.9,481.4,1573.9,481.4,1573.9,481.3L1573.9,481.3L1573.9,481.3z"/>
	<path style="fill:#161616;" d="M1576.8,486.1C1576.8,486.1,1576.8,486.1,1576.8,486.1c0,0,0,0.1-0.1,0.2c-0.1,0.1-0.1,0.3-0.2,0.4
		c-0.7,1.7-1,3.4-0.7,5.3c0.2,1.3,0.3,2.6,0.4,3.8c0.2,2.8,0.2,5.6,0.2,8.3c-0.1,6.3-0.6,12.5-1,18.8c-0.4,5.9-0.5,11.7-0.7,17.6
		c-0.1,6.2-0.4,12.3-0.7,18.5c-0.5,5.7-0.9,11.6-2.6,17.1c-0.4,1-0.9,1.9-1.4,2.9c-0.3,0.3-0.5,0.6-0.8,0.9c-0.3,0.1-0.7,0.2-1,0.3
		c-3.4,0.5-6.9,0.7-10.4,0.9c-4.2,0.2-8.4,0.4-12.6,0.7c-4.7,0.3-9.5,0.6-14.2,1c-4.4,0.4-8.8,1-13.1,1c-0.6-2.4-1-4.8-1.4-7.1
		c0,0.2,0.1,0.5,0.1,0.7c-2.1-11.3-4-22.7-6.2-34c-2.2-11.4-4.9-22.6-7.2-34c-0.9-5.4-1.9-10.7-2.7-16.1c-0.3-1.9-0.8-3.4-2.2-4.7
		c-1.3-1.2-3.1-1.8-4.9-1.7c-1.8,0.1-3.5,0.9-4.7,2.2c-1.1,1.2-2,3.2-1.7,4.9c1.4,8.8,2.9,17.5,4.5,26.3c1.3,7.1,2.8,14.2,4.2,21.4
		c2.5,14.4,4.5,28.9,7.1,43.3c0.4,2.1,0.8,4.2,1.2,6.2c0.6,2.5,2.6,5.2,5,6.3c1,0.5,2.1,0.9,3.2,1.2c0.8,0.2,1.7,0.3,2.5,0.3
		c1.1,0.1,2.2,0.2,3.3,0.2c2.5,0.1,5-0.2,7.4-0.4c1.8-0.1,3.6-0.3,5.4-0.5c7.6-0.7,15.1-1.1,22.7-1.5c3.6-0.2,7.3-0.4,10.9-0.6
		c1.5-0.1,3.1-0.2,4.6-0.5c1.6-0.3,3.3-0.5,4.8-1c2.8-0.8,5-2.6,7-4.6c0.9-0.9,1.8-2.2,2.4-3.2c0.5-0.8,0.9-1.6,1.4-2.5
		c1.2-2.3,1.9-4.9,2.5-7.3c0.8-3.1,1.1-6.4,1.5-9.6c0.5-4.3,0.8-8.6,1-12.8c0.4-7.4,0.3-14.8,0.4-22.1c0-7.1,0.5-14.1,0.8-21.2
		c0.2-4.3,0.2-8.6,0-12.9c-0.1-2-0.1-4-0.3-6c-0.1-1.3-0.2-2.8-0.6-4.1c-0.8-2.2-2.4-3.9-4.4-5c-0.9-0.5-1.9-0.8-2.9-0.8
		C1580.2,482.4,1577.9,483.9,1576.8,486.1L1576.8,486.1L1576.8,486.1z M1495.8,542c0.1,0.3,0.1,0.6,0.2,0.9
		C1495.9,542.6,1495.8,542.3,1495.8,542L1495.8,542L1495.8,542z M1570,579.2c-0.1,0.1-0.2,0.2-0.4,0.3
		C1569.8,579.4,1569.9,579.3,1570,579.2L1570,579.2L1570,579.2z M1516.8,578.7c-0.1-0.4-0.2-0.8-0.2-1.3
		C1516.6,577.8,1516.7,578.2,1516.8,578.7L1516.8,578.7L1516.8,578.7z"/>
	<path style="fill:#161616;" d="M1533.4,510.2c-1,0.4-2.1,0.8-3,1.4c-1.2,0.8-2.3,1.8-3.2,3c-1.9,2.3-3.4,5-4.8,7.7
		c-2.1,4.2-2.9,8.9-3.5,13.5c-0.5,3.7-0.5,7.4,0.3,11.1c0.4,1.7,0.9,3.3,1.7,4.9c0.7,1.5,1.7,2.7,2.8,4c2,2.3,4.6,4,7.3,5.5
		c3,1.6,6.3,2.3,9.6,2.5c3.5,0.2,6.9-0.7,10-2.4c3.1-1.6,5.7-4.1,7.9-6.7c2.5-3.1,4-6.7,5.3-10.4c1.1-3.2,1.3-6.7,0.9-10
		c-0.9-7.2-4.2-13.8-9.6-18.7c-2.6-2.4-5.7-3.9-9.1-4.8c-1.7-0.5-3.6-0.5-5.4-0.6c-1.2-0.1-2.5,0.2-3.7,0.5
		c-0.7-0.4-1.4-0.6-2.1-0.6C1534.3,509.9,1533.8,510,1533.4,510.2L1533.4,510.2L1533.4,510.2z M1534.3,520.1c1,0.7,2.2,1.1,3.5,1.1
		c0.1,0,0.3,0,0.4,0c0.8,0.1,1.5,0.4,2.3,0.6c0,0,0,0-0.1,0c0.3,0.1,0.7,0.2,1,0.4c1,0.4,2,0.9,3,1.4c1,0.7,1.9,1.6,2.7,2.5
		c0.9,1.2,1.8,2.5,2.5,3.8c0.6,1.4,1,2.8,1.4,4.3c0.2,1.2,0.2,2.4,0.2,3.6c-0.2,1-0.4,2-0.7,3c-0.6,1.6-1.4,3.1-2.3,4.6
		c-0.9,1.1-1.9,2.2-2.9,3.2c-0.7,0.5-1.4,1-2.2,1.4c-0.5,0.2-1,0.4-1.5,0.5c-0.8,0.1-1.6,0.1-2.4,0.1c-0.9-0.1-1.9-0.3-2.8-0.6
		c-1.2-0.5-2.4-1.1-3.5-1.8c-0.7-0.5-1.3-1.1-1.9-1.7c-0.3-0.4-0.6-0.9-0.9-1.4c-0.4-1-0.7-2-1-3.1c-0.4-2.9-0.3-5.8-0.1-8.7
		c0.3-2.2,0.7-4.3,1.4-6.3c0.8-1.9,1.7-3.7,2.8-5.4C1533.6,521,1534,520.5,1534.3,520.1L1534.3,520.1L1534.3,520.1z M1538.9,521.2
		c0.2,0,0.3,0,0.5,0C1539.2,521.3,1539.1,521.2,1538.9,521.2L1538.9,521.2L1538.9,521.2z"/>
	<path style="fill:#161616;" d="M1703.4,593.4c-1.1,0-2.1,0-3.2,0.1c-2.5,0.1-5.1,0.3-7.6,0.4c-5.5,0.3-11,0.5-16.4,0.6
		c-8.4,0.2-16.7,0.2-25.1,0.2c-4,0-8.1,0-12.1,0c-6.9,0-13.8,0.1-20.7,0.2c-6.5,0.1-13,0.1-19.4,0.4c-13.2,0.6-26.3,1.5-39.5,2.2
		c-13.2,0.7-26.5,1.3-39.7,1.8c-13,0.5-26,1.3-39.1,1.7c-5.3,0.2-10.5,0.2-15.8,0.3c-5,0.1-9.9,0.1-14.9,0.8
		c-2.6,0.4-4.7,2.3-4.6,5.1c0.1,2.5,2.5,5,5.1,4.6c6.4-0.9,12.9-0.6,19.4-0.5c6.8,0.1,13.6,0.2,20.4,0.2c13.2,0,26.4-0.2,39.6-0.3
		c13.2-0.1,26.4-0.5,39.6-0.9c13-0.4,25.9-1,38.9-1.1c13.3,0,26.6,0.1,39.9,0.2c12.3,0.2,24.6-0.1,36.8-0.3
		c4.2-0.1,8.3-0.2,12.5-0.3c1.6-0.1,3.3-0.1,4.9-0.2c0.8,0,1.6,0,2.5-0.1c2.5-0.1,4.7-0.9,6.5-2.8c1.3-1.3,1.9-3.3,1.8-5.1
		c-0.1-1.3-0.5-2.5-1.2-3.5c-0.7-1-1.6-1.9-2.7-2.4c-1.6-1.1-3.7-1.1-5.5-1.1C1703.6,593.4,1703.5,593.4,1703.4,593.4L1703.4,593.4
		L1703.4,593.4z"/>
	<path style="fill:#161616;" d="M1692.5,623.6c-3.3,0.1-6.6,0.2-9.9,0.2c-6.8,0.1-13.6,0.3-20.4,0.6c-13.7,0.6-27.4,1.3-41.1,1.8
		c-13.2,0.5-26.4,0.6-39.6,1.3c-13.9,0.7-27.8,1.4-41.7,2c-13.3,0.6-26.7,1-40,1.5c-6.7,0.3-13.5,0.6-20.2,0.8
		c-6.7,0.3-13.4,0.5-20.1,0.1c0,0,0,0,0,0c-2.1-0.2-4.2-0.6-6.2-1c-2.7-0.5-5.3,1.1-5.9,3.8c-0.6,2.6,1.1,5.4,3.8,5.9
		c1.7,0.3,3.5,0.7,5.2,0.9c2,0.2,4.1,0.4,6.1,0.5c3.3,0.2,6.5,0.2,9.8,0.2c6.8,0,13.6-0.3,20.4-0.4c13.4-0.3,26.7-0.4,40.1-0.6
		c27.2-0.4,54.4-1.3,81.6-1.6c14-0.1,28-0.4,42-0.8c13.1-0.4,26.2-0.3,39.4-0.3c2.8,0,5.7,0.1,8.4-0.9c3-1.1,5.1-3.9,4.9-7.2
		c-0.2-3.1-2.5-6-5.6-6.7c-1.8-0.4-3.7-0.5-5.5-0.5C1695.9,623.5,1694.2,623.6,1692.5,623.6L1692.5,623.6L1692.5,623.6z"/>
	<path style="fill:#161616;" d="M1604.5,688.9c-2.7,5.3-5.3,10.6-8.1,15.9c-1.1,2.2-2.3,4.3-3.4,6.5c-1.2,2.2-3,4.5-3.3,7
		c-0.3,2,0.4,4,2.3,5c1.7,0.9,4.2,0.6,5.5-1c0.6-0.8,1.2-1.6,1.6-2.5c0.4-0.9,0.7-1.8,1-2.8c0.4-1,0.7-2,1.1-3
		c2.7-7.5,6.4-14.6,9.9-21.8c0.9-1.8,0.2-4-1.6-5c-0.5-0.3-1.1-0.4-1.7-0.4C1606.5,686.9,1605.1,687.6,1604.5,688.9L1604.5,688.9
		L1604.5,688.9z M1601.4,713.4c-0.1,0.2-0.1,0.3-0.2,0.5C1601.3,713.7,1601.3,713.5,1601.4,713.4L1601.4,713.4L1601.4,713.4z"/>
	<path style="fill:#161616;" d="M1628.5,692.4c-1.5,3-2.9,6-4.6,8.9c-1.4,2.6-3,5-4.6,7.5c0.1-0.2,0.2-0.3,0.3-0.5
		c-0.1,0.2-0.2,0.3-0.3,0.5c-0.1,0.1-0.1,0.2-0.2,0.3c0.1-0.1,0.1-0.2,0.2-0.2c-0.4,0.6-0.9,1.3-1.3,1.9c-1.5,1.9-3,3.8-4.5,5.7
		c-1.7,2.1-1.7,5.2,0.4,7.1c2.1,1.9,5.2,1.6,7.1-0.4c2-2.1,3.5-4.6,5-7.1c1.2-2,2.3-4,3.4-6c2.4-4.5,4.7-9.1,7-13.7
		c1.1-2.2,0.3-4.8-1.9-5.9c-0.6-0.3-1.3-0.5-2-0.5C1630.9,690,1629.3,690.8,1628.5,692.4L1628.5,692.4L1628.5,692.4z M1620.1,707.8
		c-0.2,0.3-0.4,0.6-0.6,0.9c0.1-0.2,0.2-0.3,0.3-0.5C1619.9,708.1,1620,707.9,1620.1,707.8L1620.1,707.8L1620.1,707.8z M1617.9,711
		c-0.1,0.2-0.3,0.4-0.4,0.6C1617.6,711.4,1617.7,711.2,1617.9,711L1617.9,711L1617.9,711z"/>
	<path style="fill:#161616;" d="M1430.7,594.9c-3.9,0.1-7.8,0.2-11.7,0.3c-3.3,0.1-5.9,3.1-5.7,6.3c0.2,3.3,3.1,5.8,6.3,5.7
		c3.8-0.1,7.6-0.2,11.3-0.3c1.6,0,3.2-0.1,4.8-0.2c2.2-0.2,4.3-0.5,6.4-0.9c0.9-0.3,1.7-0.8,2.3-1.5c0.9-1.1,1.5-2.5,1.4-3.9
		c-0.1-2.3-1.9-4.6-4.2-5c-2.4-0.4-4.9-0.5-7.3-0.5C1433.2,594.8,1432,594.9,1430.7,594.9L1430.7,594.9L1430.7,594.9z"/>
	<path style="fill:#161616;" d="M1419.1,633.1c0.1,1.5,0.7,2.9,1.8,3.9c1.2,1,2.5,1.4,4,1.4c6.7,0.1,13.4,0.4,20.1,0.1
		c2.3-0.1,4.4-1.9,4.9-4.1c0.3-1.4,0-2.9-0.8-4c-0.7-1-2-2.2-3.3-2.3c-7.2-0.6-14.4-0.7-21.6-0.8c0,0,0,0-0.1,0
		C1421.3,627.2,1418.9,630.2,1419.1,633.1L1419.1,633.1L1419.1,633.1z"/>
	<path style="fill:#161616;" d="M1173.7,607.3c0.1,1.8,0.9,3.6,2.3,4.8c1.4,1.3,3.1,1.7,5,1.8c16.8,0.5,33.7,1,50.5,1.5
		c15.6,0.5,31.1,1,46.7,0.7c1.9,0,3.7-0.1,5.6-0.1c2.8-0.1,5.4-0.4,8.1-0.9c1.2-0.4,2.2-1.1,3.1-2c1.3-1.4,1.9-3.3,1.8-5.2
		c-0.1-1.3-0.5-2.5-1.2-3.6c-0.9-1.4-2.7-2.9-4.4-3.1c-2.4-0.2-4.7-0.4-7.1-0.3c-1.7,0.1-3.5,0.2-5.2,0.3c-3.8,0.2-7.7,0.3-11.5,0.4
		c-7.8,0.2-15.5,0-23.3-0.1c-15.1-0.2-30.2-0.6-45.3-1.1c-6.2-0.2-12.3-0.3-18.5-0.5c-0.1,0-0.1,0-0.2,0
		C1176.4,600.1,1173.6,603.9,1173.7,607.3L1173.7,607.3L1173.7,607.3z"/>
	<path style="fill:#161616;" d="M1284.3,639.2c-2.6,0.1-5.1,0.2-7.7,0.2c-5.4,0.1-10.8,0.2-16.1,0.3c-10.6,0.1-21.3,0.3-31.9,0.2
		c-7.8,0-15.5-0.3-23.2-0.5c-8.5-0.1-16.9-0.3-25.4,0.1c-2.2,0.1-3.9,2-3.8,4.2c0.1,2.2,2,3.9,4.2,3.8c11.2-0.5,22.5,0.2,33.7,1
		c10.8,0.7,21.6,1.2,32.3,1.4c7.8,0.2,15.6,0.5,23.3,0.6c3.8,0.1,7.5,0.1,11.3,0.1c3.9,0,7.8,0.3,11.7,0.1c3.2-0.2,5.7-2.9,5.5-6.1
		c-0.1-1.5-0.8-3-1.9-4c-1.2-1.1-2.6-1.4-4.2-1.5c-0.6,0-1.2,0-1.9,0C1288.3,639.1,1286.3,639.2,1284.3,639.2L1284.3,639.2
		L1284.3,639.2z"/>
	<path style="fill:#161616;" d="M1610.4,296.5c-4.1,0.3-8.2,1.1-12.2,2c-6.8,1.6-13.4,4.5-19.5,8c-5.9,3.5-11.4,8-16.1,13
		c-5,5.3-9.2,11.6-12.4,18.2c-3.4,7.1-5.7,14.8-6.6,22.6c-0.5,4.2-0.7,8.4-0.5,12.6c0.2,4.4,0.9,8.7,1.9,12.9
		c1.7,7.7,4.9,15.1,9,21.7c2.1,3.4,4.5,6.5,7.1,9.5c2.6,3,5.5,5.8,8.6,8.4c6,5,12.9,9,20.2,11.7c3.8,1.5,7.7,2.6,11.7,3.5
		c4.3,0.9,8.8,1.2,13.2,1.4c8.2,0.3,16.7-1.2,24.5-3.8c3.8-1.2,7.4-3,10.9-4.8c3.4-1.8,6.7-3.9,9.7-6.2c6.5-4.9,11.9-10.8,16.5-17.5
		c9.2-13.5,13.4-30,12.2-46.2c-0.8-10.6-4-21.1-9.5-30.3c-3.6-6.6-8.5-12.5-13.9-17.6c-5.5-5.2-12.1-9.5-19-12.7
		c-7.4-3.4-15.3-5.6-23.4-6.3c-2.5-0.2-5.1-0.4-7.6-0.4C1613.7,296.3,1612.1,296.4,1610.4,296.5L1610.4,296.5L1610.4,296.5z
		 M1620.9,311.4c5,0.5,10,1.6,14.8,3.2c4.8,1.8,9.3,4.2,13.6,7c4,2.9,7.7,6.2,11,9.9c2.7,3.3,5.1,6.8,7.1,10.5
		c0.1,0.2,0.2,0.4,0.3,0.6c2.3,5.1,4.1,10.5,5.2,16c0.8,5.1,1.1,10.3,0.8,15.5c-0.5,5-1.6,9.9-3.2,14.6c-1.8,4.7-4.1,9.2-6.9,13.4
		c-2.9,4-6.2,7.6-9.8,10.9c-3.9,3.2-8.1,6-12.6,8.3c-4.6,2.1-9.4,3.6-14.3,4.7c-5.1,0.8-10.3,1.1-15.5,0.8
		c-5.1-0.5-10.2-1.6-15.1-3.3c-4.6-1.8-8.9-4-13-6.7c-4-2.9-7.7-6.2-11-9.9c-3.2-3.9-6-8.1-8.3-12.6c-2.1-4.7-3.7-9.5-4.8-14.5
		c-0.8-5.1-1.1-10.2-0.8-15.3c0.5-5.1,1.6-10,3.2-14.9c1.8-4.7,4.1-9.1,6.8-13.3c2.9-4,6.2-7.6,9.8-10.9c3.8-3.2,8-5.9,12.4-8.2
		c4.8-2.2,9.7-3.8,14.8-4.9C1610.6,311.3,1615.8,311.1,1620.9,311.4L1620.9,311.4L1620.9,311.4z M1673.7,372.5c0,0.2,0,0.4-0.1,0.7
		C1673.7,372.9,1673.7,372.7,1673.7,372.5L1673.7,372.5L1673.7,372.5z M1559.3,380.6c0,0.2,0.1,0.4,0.1,0.7
		C1559.4,381,1559.3,380.8,1559.3,380.6L1559.3,380.6L1559.3,380.6z"/>
	<path style="fill:#161616;" d="M1646.8,351.7c-1.9,0.3-3.6,0.7-5.2,1.9c-0.7,0.6-1.5,1.2-2.2,1.7c-1.7,1.4-3.3,2.7-5,4.1
		c-4.2,3.5-8.2,7.1-12.2,10.8c-3.1,2.9-6.3,5.8-9.5,8.6c-2,1.8-4,3.6-6,5.5c-0.4-0.7-0.8-1.4-1.2-2.2c-0.8-1.9-1.6-3.9-2.2-5.8
		c-1.4-4-5.7-6.2-9.8-4.9c-3.9,1.3-6.3,5.8-4.9,9.7c1.8,5.1,3.9,9.9,6.9,14.5c0.6,0.9,1.2,1.7,1.8,2.5c1.2,1.5,1.9,2.3,3.6,3.3
		c2.1,1.3,4.5,1.3,6.8,0.8c3.1-0.7,5.5-3,7.8-5c1-0.9,1.9-1.8,2.9-2.7c3.7-3.5,7.7-6.8,11.5-10.3c4.2-3.9,8.5-7.9,12.8-11.7
		c1.6-1.3,3.1-2.6,4.7-3.9c0.9-0.7,1.8-1.5,2.7-2.2c0.8-0.6,1.6-1.2,2.2-2c1.4-1.7,2.2-3.8,2-6c-0.2-1.9-0.9-3.6-2.3-4.9
		c-1.1-1-2.9-1.9-4.5-1.9C1647.2,351.7,1647,351.7,1646.8,351.7L1646.8,351.7L1646.8,351.7z"/>
	<path style="fill:#161616;" d="M198.6,199.8c-4.2,0-7.7,3.5-7.7,7.7c0,210.1,0,420.2,0,630.4c0,210.1,0,420.2,0,630.2
		c0,108,0,216,0,324c0,4.2,3.5,7.7,7.7,7.7c210,0,420.1,0,630.1,0c210.6,0,421.2,0,631.8,0c107.6,0,215.1,0,322.7,0
		c4.2,0,7.7-3.5,7.7-7.7c0-209.7,0-419.4,0-629.1c0-16.5,0-33-0.1-49.5c0-191.6,0-383.2,0-574.9c0-110.4,0-220.8,0-331.2
		c0-4.2-3.5-7.7-7.7-7.7c-210.2,0-420.5,0-630.7,0c-210.4,0-420.9,0-631.4,0C413.6,199.8,306.1,199.8,198.6,199.8L198.6,199.8
		L198.6,199.8z M830.8,215.2c210.2,0,420.4,0,630.6,0c104.7,0,209.4,0,314.1,0c0,207.2,0,414.3,0,621.6c0,100.6,0,201.3,0,301.9
		c-0.3,146.4-0.1,292.7-0.1,439.1c0,68.9,0,137.7,0,206.6c-208.4,0-416.7,0-625.1,0c-210.3,0-420.6,0-630.8,0
		c-104.4,0-208.9,0-313.3,0c0-207.4,0-414.8,0-622.2c0-209.6,0-419.3,0-628.8c0-106,0-212.1,0-318.2
		C414.4,215.2,622.6,215.2,830.8,215.2L830.8,215.2L830.8,215.2z"/>
	<path style="fill:#161616;" d="M418.5,1733.7c-4.7,13.9-9.3,27.9-14.8,41.5c-0.4,1-0.9,2-1.4,3c-2,3.7-0.9,8.4,2.8,10.5
		c3.5,2.1,8.5,0.9,10.5-2.8c1.7-3.2,3-6.6,4.3-10c1.5-4,3-8,4.5-12.1c3.2-8.6,6.1-17.4,9-26.1c1.3-4-1.5-8.4-5.4-9.5
		c-0.7-0.2-1.4-0.3-2-0.3C422.5,1728,419.6,1730.3,418.5,1733.7L418.5,1733.7L418.5,1733.7z M404.1,1774.1c-0.1,0.2-0.1,0.3-0.2,0.5
		C404,1774.5,404,1774.3,404.1,1774.1L404.1,1774.1L404.1,1774.1z"/>
	<path style="fill:#161616;" d="M530.6,1759.2c-1.6,0.5-3.6,1.7-4.3,3.3c-2.8,6.3-5.7,12.6-9,18.8c-1.9,3.5-0.9,8,2.6,10.1
		c3.3,1.9,8.3,1,10.1-2.6c3-6.2,5.9-12.6,8.7-18.9c0.8-1.9,1.3-3.5,0.7-5.6c-0.5-1.8-1.7-3.4-3.3-4.3c-1.1-0.6-2.4-1-3.6-1
		C531.9,1758.9,531.3,1759,530.6,1759.2L530.6,1759.2L530.6,1759.2z"/>
	<path style="fill:#161616;" d="M684.9,1757.4c-1.5,0.9-3.2,2.7-3.4,4.5c-0.5,3.6-1,7.3-1.6,10.9c-0.6,4.1-1.4,8.2-1.7,12.4
		c-0.3,3.1,2.3,6.1,5.2,6.9c3.9,1.1,7.5-1.3,8.8-5c1.1-3.3,1.6-6.9,2.1-10.3c0.5-3.6,1.1-7.3,1.6-10.9c0.3-2.1,0.4-3.9-0.8-5.8
		c-1-1.7-2.6-2.9-4.5-3.4c-0.6-0.2-1.3-0.3-2-0.3C687.3,1756.4,686,1756.7,684.9,1757.4L684.9,1757.4L684.9,1757.4z"/>
	<path style="fill:#161616;" d="M739.7,1753.2c0,9.5,0.2,19.1-0.3,28.6c-0.2,4.2,3.7,7.7,7.7,7.7c4.4,0,7.5-3.5,7.7-7.7
		c0.5-9.5,0.3-19.1,0.3-28.6c0-4.2-3.5-7.7-7.7-7.7C743.2,1745.5,739.7,1749,739.7,1753.2L739.7,1753.2L739.7,1753.2z"/>
	<path style="fill:#161616;" d="M1236.3,831.3c-5.9,0.3-12.1,0.4-17.8,2.4c-2.2,0.8-4,2.3-4.7,4.4c-0.6,0-1.3,0.1-1.9,0.3
		c-3.3,1-5.8,3.5-7.8,6.3c-1.8,2.5-2.8,5.2-3.5,8.1c-0.7,3-1.3,6-1.8,9c-1.4,7.5-2.5,15-3.5,22.6c-0.4,3.1-0.6,6.1-0.8,9.2
		c-0.2,3.1-0.2,6.2-0.2,9.4c0,3,0,6,0.3,9c0.3,4.7,0.7,9.3,1.2,14c0.3,2.1,0.7,3.9,2.3,5.4c1.4,1.4,3.4,2.3,5.4,2.3s4-0.8,5.4-2.3
		c1.3-1.3,2.5-3.5,2.3-5.4c-0.6-5.2-0.9-10.4-1.3-15.6c-0.3-3.8-0.2-7.6-0.2-11.3c-0.1-6.7,0.8-13.4,1.6-20c0.3-1.9,0.6-3.8,0.9-5.7
		c1.5,1.7,3.5,3.1,5.4,4.2c2.3,1.4,5,2.2,7.6,3c2.8,0.8,5.7,1.2,8.6,1.6c2.7,0.3,5.5,0.5,8.2,0.7c3.6,0.3,7.1,0.4,10.7,0.4
		c7.8,0,15.7,0,23.4-1c3.8-0.5,7.6-1.1,10.7-3.5c1.3-1,2.2-1.8,3.2-3.1c0.8-1.1,1.6-2.1,2.3-3.2c0.7-1.1,1.2-2.3,1.9-3.4
		c1-1.9,1.9-4,2.7-6.1c0.7-1.9,1.4-3.7,1.8-5.6c0.7-3.2,0.7-6.3-0.1-9.5c-0.5-1.9-1.6-3.5-2.8-5c-1.3-1.6-3.1-2.8-4.7-4
		c-1.6-1.2-3.6-1.8-5.4-2.5c-1.9-0.8-3.8-1.3-5.8-1.9c-2.3-0.6-4.7-1.1-7.1-1.4c-6.2-0.9-12.5-1.6-18.8-1.8
		c-2.1-0.1-4.1-0.1-6.2-0.1C1244,831,1240.1,831.1,1236.3,831.3L1236.3,831.3L1236.3,831.3z M1231.9,847c3.8-0.3,7.7-0.5,11.5-0.6
		c7.7-0.2,15.3,0.3,22.9,1c1.3,0.2,2.7,0.4,4,0.6c3.8,0.5,7.6,1.6,11.2,3c0.7,0.4,1.4,0.8,2.1,1.2c0.1,0.1,0.1,0.1,0.2,0.2
		c0,0.3,0,0.6,0,1c-0.4,1.7-0.9,3.3-1.5,4.9c-1.2,2.6-2.5,5.2-4.1,7.7c-0.1,0.1-0.1,0.1-0.2,0.2c-0.1,0.1-0.2,0.1-0.4,0.2
		c-0.8,0.2-1.5,0.4-2.3,0.6c-6.1,0.7-12.2,0.8-18.3,0.9c-7.4,0-14.8-0.1-22.1-1c-2.9-0.4-5.7-1.1-8.5-2.1c-0.8-0.4-1.5-0.8-2.2-1.2
		c0,0-0.1-0.1-0.1-0.1c-0.5-1.4-0.8-2.9-1-4.4c-0.2-2-0.3-4-0.4-6.1c0-1.1,0-2.1-0.1-3.2c0-0.8-0.1-1.6-0.2-2.4
		C1225.6,847.2,1228.7,847.2,1231.9,847L1231.9,847L1231.9,847z M1283.3,850.8c0.1,0.2,0.2,0.5,0.3,0.8
		C1283.5,851.3,1283.4,851.1,1283.3,850.8L1283.3,850.8L1283.3,850.8z M1224.8,863.9c0.1,0.1,0.2,0.2,0.3,0.3
		C1225,864.1,1224.9,864,1224.8,863.9L1224.8,863.9L1224.8,863.9z M1224.6,864.1c0.1,0.1,0.1,0.2,0.2,0.3
		C1224.7,864.2,1224.7,864.1,1224.6,864.1L1224.6,864.1L1224.6,864.1z M1279.1,864.7c-0.2,0.3-0.4,0.6-0.7,0.9
		C1278.7,865.3,1278.9,865,1279.1,864.7L1279.1,864.7L1279.1,864.7z"/>
	<path style="fill:#161616;" d="M1278.1,872.9c0.3,9,0.5,17.9,0.7,26.9c0.2,7,0.4,14,0.1,21c-0.2,4.2,3.7,7.7,7.7,7.7
		c4.4,0,7.5-3.5,7.7-7.7c0.3-7,0.1-14-0.1-20.9c-0.2-9-0.5-18-0.7-27c-0.1-4.2-3.4-7.7-7.7-7.7
		C1281.7,865.2,1277.9,868.7,1278.1,872.9L1278.1,872.9L1278.1,872.9z"/>
	<path style="fill:#161616;" d="M1376.8,856.2c-7.6,0.8-15.5,2.2-22.2,6c-2.9,1.6-5.2,4.6-5.9,7.9c-0.3,1.1-0.3,2.3,0,3.4
		c0.2,1.3,0.8,2.4,1.3,3.6c0.5,0.7,1,1.4,1.6,2.1c0.8,0.8,1.5,1.6,2.3,2.3c3.8,3.6,8.3,6.6,13.1,8.7c-0.3,1.1-0.3,2.3,0,3.4
		c0.7,2.6,3.3,4.8,6.1,4.7c1.1,0,2.1,0,3.2,0.1c0.9,0.1,1.8,0.1,2.7,0.1c1.7,0,3.3-0.1,5-0.1c3.7-0.1,7.3-0.2,11-0.3
		c8.8-0.3,17.7-0.7,26.5-2c4.6-0.7,9.2-1.7,13.5-3.4c4.9-1.9,9.7-4.5,12.7-9c1.3-2,2.5-4.4,2.5-6.9c0-2.5-0.6-4.6-1.7-6.8
		c-1-2-2.9-3.5-4.6-4.8c-2-1.5-4.1-2.4-6.4-3.3c-4.2-1.7-8.8-2.7-13.2-3.6c-3.3-0.7-6.7-1.1-10.1-1.6c-3.5-0.5-7-0.7-10.4-1
		c-2.5-0.2-5-0.2-7.6-0.3c-1.2,0-2.3,0-3.5,0C1387.3,855.3,1382,855.6,1376.8,856.2L1376.8,856.2L1376.8,856.2z M1387.4,868.8
		c2.5-0.1,5-0.2,7.6-0.1c2.7,0.1,5.4,0,8,0.3c3,0.3,5.9,0.6,8.9,0.9c7.4,1.1,14.7,2.2,21.7,4.9c0.7,0.4,1.4,0.8,2.1,1.2
		c0.1,0.1,0.2,0.1,0.2,0.2c-0.4,0.4-0.7,0.7-1.1,1.1c-1.2,0.8-2.3,1.4-3.6,2c-4.5,1.7-9.3,2.8-14.1,3.5c-7.7,0.9-15.5,1.2-23.3,1.4
		c-3.2,0.1-6.4,0.1-9.6,0.2c-0.3-0.2-0.7-0.3-1.1-0.5c-2.8-1-5.7-2.1-8.5-3.2c-2.9-1.3-5.6-2.8-8.1-4.7c-1.3-1-2.4-2.1-3.6-3.3
		c4.1-1.5,8.3-2.4,12.6-3C1379.5,869.1,1383.4,868.9,1387.4,868.8L1387.4,868.8L1387.4,868.8z M1361,873.6c-0.1,0.2-0.2,0.4-0.3,0.6
		C1360.8,874,1360.9,873.8,1361,873.6L1361,873.6L1361,873.6z M1436.1,876.4C1436.1,876.4,1436.1,876.4,1436.1,876.4
		c0,0.1-0.1,0.2-0.1,0.3C1436.1,876.5,1436.1,876.5,1436.1,876.4L1436.1,876.4L1436.1,876.4z M1436.6,877.3c0,0.1,0,0.3,0,0.4
		C1436.6,877.5,1436.6,877.4,1436.6,877.3L1436.6,877.3L1436.6,877.3z M1436.8,877.3c0,0.1,0.1,0.1,0.1,0.2
		C1436.9,877.4,1436.8,877.4,1436.8,877.3L1436.8,877.3L1436.8,877.3z M1418.5,882.6c-0.2,0-0.3,0-0.5,0.1
		C1418.2,882.6,1418.3,882.6,1418.5,882.6L1418.5,882.6L1418.5,882.6z"/>
	<path style="fill:#161616;" d="M1382.7,894.3c-1.6,0.9-3.2,2.7-3.6,4.6c-1,5.9-2.1,11.7-3.1,17.6c-0.5,2.6-0.9,5.3-1.4,8
		c-0.2,1.2-0.4,2.4-0.6,3.6c-0.2,1.5-0.4,2.9-0.4,4.3c-0.1,1.7,0.6,3.1,1.2,4.6c0.7,1.6,2.6,2.8,4.2,3.3c1.3,0.3,2.5,0.3,3.8,0
		c1.2-0.3,2.2-0.9,3.1-1.8c1-0.8,1.6-2.1,1.9-3.4c0.9-2.4,1.3-5,1.8-7.6c0.4-2.5,0.9-5,1.3-7.5c1-5.7,2-11.3,3-17
		c0.4-2.1,0.3-4-0.8-5.9c-1-1.7-2.7-3-4.6-3.5c-0.7-0.2-1.4-0.3-2-0.3C1385.3,893.2,1383.9,893.6,1382.7,894.3L1382.7,894.3
		L1382.7,894.3z"/>
	<path style="fill:#161616;" d="M1417,888.4c-4.2,1.2-6.3,5.4-5.4,9.5c1.3,6.1,2.7,12.1,4.2,18.2c0.7,2.8,1.3,5.5,2,8.2
		c0.6,2.6,1.4,5.3,2,7.9c0,0.2,0,0.5,0,0.7c0,3.3,2.3,6.3,5.5,7.2c1.9,0.5,4,0.3,5.8-0.8c1.5-0.9,3.1-2.6,3.4-4.5
		c0.3-1.7,0.5-3.2,0.3-4.9c-0.2-1.6-0.5-3.2-0.9-4.7c-0.3-1.2-0.6-2.4-0.9-3.6c-0.7-2.8-1.3-5.5-2-8.3c-1.6-6.5-3.1-13.1-4.5-19.6
		c-0.8-3.4-4.2-5.6-7.5-5.6C1418.2,888.2,1417.6,888.2,1417,888.4L1417,888.4L1417,888.4z"/>
	<path style="fill:#161616;" d="M1126.2,854.3c-4.3,0.2-8.5,1-12.7,1.9c-3.4,0.8-6.8,1.8-10.1,2.9c-1.7,0.6-3.4,1.2-5.1,1.8
		c-2,0.8-3.9,1.6-5.6,2.9c-2.3,1.7-4,3.9-5.5,6.4c-1.1,1.8-1.2,4-0.4,5.9c-2.3,1.1-3.9,3.5-3.9,6.1c0,3.8,3,6.5,6.7,6.7
		c9.1,0.4,18.2,0.8,27.3,0.8c8,0,16,0.2,23.9-1.1c1.9-0.3,3.8-0.6,5.6-1c2-0.5,4-1,6.1-1.6c2-0.6,4.1-1.4,6-2.3
		c1.7-0.8,3.2-1.8,4.6-3c2.3-2,3-5.2,3.2-8.1c0.1-1.1-0.3-2.7-0.7-3.8c-0.4-1.2-1-2.3-1.7-3.4c-1.4-2.2-3.4-3.8-5.5-5.3
		c-1.9-1.4-4.4-2.2-6.6-3.1c-2.8-1.1-5.8-1.6-8.8-2c-4-0.6-7.9-0.8-11.9-0.8C1129.4,854.2,1127.8,854.2,1126.2,854.3L1126.2,854.3
		L1126.2,854.3z M1139.9,869.5c2.9,0.5,5.7,1.1,8.5,2.2c0.2,0.1,0.5,0.2,0.7,0.4c-1.5,0.6-3.1,1.1-4.6,1.5c-2.5,0.7-4.9,1.2-7.4,1.7
		c-1.5,0.2-3,0.4-4.6,0.5c-1.7,0.2-3.4,0.2-5,0.3c-3.8,0.2-7.6,0.2-11.4,0.2c-5.1,0-10.2-0.1-15.3-0.3c7.4-2.8,14.8-5.3,22.7-6.6
		C1128.9,868.8,1134.4,868.9,1139.9,869.5L1139.9,869.5L1139.9,869.5z M1122.7,869.5c-0.2,0-0.4,0.1-0.6,0.1
		C1122.3,869.5,1122.5,869.5,1122.7,869.5L1122.7,869.5L1122.7,869.5z M1152.1,870.6C1152.1,870.6,1152.1,870.6,1152.1,870.6
		C1152.1,870.6,1152.1,870.6,1152.1,870.6C1152.1,870.6,1152.1,870.6,1152.1,870.6L1152.1,870.6L1152.1,870.6z M1152,870.8
		C1152,870.8,1152,870.8,1152,870.8L1152,870.8C1152,870.8,1152,870.8,1152,870.8L1152,870.8L1152,870.8z M1151.5,874.1
		c0,0.2,0,0.3,0.1,0.5C1151.5,874.4,1151.5,874.3,1151.5,874.1L1151.5,874.1L1151.5,874.1z"/>
	<path style="fill:#161616;" d="M1101.4,884.7c-1.5,1.5-1.9,3.1-2.1,5c-0.9,7.6-1.8,15.2-2.8,22.8c-0.4,3.3-0.8,6.5-1.3,9.7
		c-0.4,3-0.9,6-0.9,9c0,3.1,2.1,5.8,5,6.6c1.8,0.5,3.7,0.2,5.3-0.7c1.7-1,2.5-2.4,3.2-4.1c1.2-3.3,1.4-7,1.8-10.4
		c0.4-3.2,0.8-6.3,1.1-9.5c0.9-7.8,1.9-15.6,2.8-23.5c0.2-1.8-0.9-3.8-2.1-5c-1.3-1.3-3.2-2.1-5-2.1
		C1104.6,882.6,1102.7,883.4,1101.4,884.7L1101.4,884.7L1101.4,884.7z"/>
	<path style="fill:#161616;" d="M1140.7,877.3c-1.9,0.5-3.6,1.8-4.6,3.5c-1.1,1.9-1.1,3.8-0.8,5.9c1.4,9.3,2.8,18.7,4.5,28
		c0.7,3.9,1.4,7.9,2.1,11.8c0.7,3.8,1.5,7.5,2.2,11.3c0,0.1,0,0.2,0,0.3c0.2,2,0.7,3.8,2.2,5.3c1.4,1.4,3.3,2.2,5.3,2.2
		c2,0,3.9-0.8,5.3-2.2c1.5-1.5,2-3.2,2.2-5.3c0.2-2.7-0.3-5.5-0.8-8.2c-0.3-1.9-0.7-3.7-1-5.6c-0.8-4.2-1.5-8.5-2.3-12.7
		c-1.7-9.7-3.2-19.4-4.7-29.2c-0.3-1.9-2-3.7-3.5-4.6c-1.2-0.7-2.5-1-3.9-1C1142.1,877,1141.4,877.1,1140.7,877.3L1140.7,877.3
		L1140.7,877.3z"/>
	<path style="fill:#161616;" d="M1372.5,901.6c-0.2,5.4-0.6,10.7-1.3,16c-0.3,1.6-0.5,3.3-0.9,4.9c-0.5,1.9-1,3.6-1.7,5.4
		c-0.5,1.4-0.1,3.3,0.6,4.6c0.8,1.3,2.1,2.3,3.6,2.8c3,0.8,6.7-1,7.3-4.2c0.5-2.5,0.7-5,0.8-7.5c0.2-2.3,0.3-4.6,0.5-6.9
		c0.3-5,0.6-10.1,0.8-15.1c0.1-2.7-2.3-4.9-4.9-4.9C1374.6,896.7,1372.6,898.9,1372.5,901.6L1372.5,901.6L1372.5,901.6z"/>
	<path style="fill:#161616;" d="M1099.3,1765.7c-1.8,0.5-3.8,1.8-4.6,3.5c-0.8,1.8-1.7,3.6-2.5,5.4c-1.5,3.4-3.5,7.1-3,11
		c0,1.3,0.3,2.5,1,3.6c0.9,1.6,2.5,2.8,4.3,3.3c1.9,0.5,3.9,0.3,5.6-0.7c1.4-0.8,3.1-2.6,3.3-4.3c0.1-0.5,0.2-0.9,0.3-1.3
		c1.4-3.1,2.9-6.2,4.4-9.2c0.9-1.9,1.4-3.8,0.8-5.9c-0.5-1.9-1.8-3.6-3.5-4.6c-1.2-0.7-2.5-1.1-3.9-1.1
		C1100.6,1765.4,1099.9,1765.5,1099.3,1765.7L1099.3,1765.7L1099.3,1765.7z"/>
	<path style="fill:#161616;" d="M1434.9,1762.5c-1.5,1.5-2.1,3.4-2.3,5.4c-0.2,3.3-0.5,6.5-0.7,9.8c-0.2,3.1-0.5,6.1,0.2,9.2
		c0.7,3.2,4,5.4,7.1,5.4c2,0,3.9-0.8,5.2-2.2c1.5-1.5,2-3.2,2.2-5.3c0.6-5.7,0.9-11.3,1.3-17c0.3-4.2-3.7-7.7-7.7-7.7
		C1438.3,1760.3,1436.3,1761.1,1434.9,1762.5L1434.9,1762.5L1434.9,1762.5z"/>
	<path style="fill:#161616;" d="M846,299.8c-14.5,1.1-28.9,3.6-42.9,7.6c-13.1,3.7-25.8,8.8-38,14.9c-1.1,0.6-2.2,1.1-3.3,1.7
		c-9.3,4.9-18.3,10.5-26.8,16.7c-10.4,7.6-20.1,16-29,25.3c-8.9,9.3-17,19.4-24.1,30c-7.1,10.5-13.1,21.7-18.2,33.3
		c-5.5,12.6-9.8,25.6-12.8,39c-3.1,13.7-4.8,27.8-5.2,41.9c-0.4,14.4,0.8,28.8,3.1,43c2.3,13.5,5.9,26.8,10.8,39.6
		c4.8,12.6,10.8,24.8,17.8,36.4c7,11.4,15.1,22.2,24.1,32.1c9,10,19,19,29.6,27.2c20.9,16.2,45,28.2,70.4,35.7
		c13.4,3.9,27.2,6.4,41.2,7.7c13.1,1.2,26.4,1.2,39.5,0c12-1.1,23.9-3.2,35.5-6.2c11.4-3,22.5-7,33.2-11.8c20.8-9.2,40-22,56.9-37.2
		c37-33.4,61.9-79.8,68.9-129.1c2.1-14.7,2.8-29.5,2-44.4c-0.8-14.3-3.1-28.6-6.7-42.4c-3.6-13.9-8.8-27.4-15.1-40.3
		c-6.1-12.5-13.5-24.4-21.9-35.4c-8.8-11.5-18.6-22.1-29.4-31.7c-11.1-9.8-23.2-18.4-36-25.8c-12.2-7-25.2-12.7-38.6-17.2
		c-13.7-4.7-27.9-7.6-42.3-9.5c-8.7-1.1-17.4-1.6-26.1-1.6C857,299.2,851.5,299.4,846,299.8L846,299.8L846,299.8z M835.2,715.8
		c-17.6-2.5-34.8-7.2-51.1-14c-15.8-6.8-30.8-15.5-44.6-25.9c-13.7-10.7-26.1-23-36.8-36.6c-10.6-14-19.5-29.1-26.4-45.1
		c-6.8-16.3-11.5-33.6-14-51.2c-2.3-18-2.3-36.2,0-54c2.5-17.6,7.2-34.8,14-51.2c6.9-16,15.7-31.1,26.3-45
		c10.6-13.5,22.8-25.7,36.3-36.3c10.9-8.3,22.6-15.6,34.8-21.6c3.4-1.7,6.8-3.3,10-4.6c16.4-6.8,33.7-11.5,51.4-14
		c8.9-1.1,18-1.7,27.1-1.7c8.9,0,17.8,0.6,26.6,1.7c17.5,2.5,34.7,7.1,51,13.8c16,6.8,31.2,15.6,45.2,26.3l0.5,0.4
		c13.6,10.7,25.8,23,36.4,36.5c10.3,13.6,19,28.4,25.7,43.9c7,16.6,11.8,34.1,14.3,52.1c2.2,17.9,2.2,35.9,0,53.6
		c-2.5,17.6-7.1,34.8-13.8,51.1c-6.8,15.9-15.6,31-26.1,44.9c-10.9,13.9-23.4,26.4-37.2,37.2c-13.6,10.3-28.4,19-44,25.7
		c-16.5,6.9-34,11.7-51.9,14.2c-8.9,1.1-17.9,1.7-26.9,1.7C853.3,717.5,844.2,717,835.2,715.8L835.2,715.8L835.2,715.8z"/>
	<path style="fill:#161616;" d="M928.6,362.7L864.8,442c0,0-0.1,0.1-0.1,0.1l0,0c-3.4,4.2-6.8,8.4-10.2,12.7
		c0.2,0.1,0.4,0.3,0.6,0.4c0.6,0.4,1.2,0.8,1.7,1.3c0.9,0.7,1.9,1.4,2.8,2.1c1.1,0.8,2.1,1.6,3.2,2.4c1.1,0.8,2.3,1.6,3.3,2.5
		c1.2-1.8,2.7-3.4,4-5c1-1.3,2.1-2.5,3.2-3.7c0.4-0.5,0.8-0.9,1.2-1.4c20.1-25.1,40.2-50.2,60.3-75.2c18.3,14.7,36.7,29.3,55,44
		c-17.3,21.6-34.5,43.2-51.8,64.8c-0.2,1.2-0.8,2.3-1.6,3.3c-2.8,3.1-5.6,6.2-8.3,9.2c-0.8,0.9-1.5,1.9-2.3,2.9
		c-1.5,2.1-2.8,4.2-3.9,6.5c-0.3,0.7-0.5,1.4-0.7,2.1c0,0.5,0,0.9,0,1.4c2.2,1.1,4.1,2.7,6,4.2c1,0.8,2.1,1.6,3.1,2.4
		c2.9-3.6,5.8-7.1,8.6-10.7l-0.1,0l0.8-1l0.8-1l21.5-26.7c14.3-17.8,28.7-35.6,43-53.4l1.1-1.4c0.6-1.1,0.9-2.3,1-3.6
		c0-1.6-0.6-3.9-2.1-5l-29.4-23.6l-14.7-11.8l-22-17.7l-1.4-1.1c-1.1-0.6-2.4-1-3.7-1C932.1,360.6,929.8,361.2,928.6,362.7
		L928.6,362.7L928.6,362.7z"/>
	<path style="fill:#161616;" d="M801.6,520.5C801.6,520.5,801.7,520.5,801.6,520.5l-2.5,3.3l-5,6.2c-21.9,27.2-43.7,54.4-65.8,81.9
		l-0.9,1.2c-0.7,1.1-1,2.4-1,3.8c0,1.7,0.7,4.1,2.2,5.3l33.4,26.8l32.8,26.3l1.5,1.2c1.2,0.7,2.4,1,3.8,1c1.7,0,4.1-0.7,5.3-2.2
		l12.1-15.1c18.4-22.9,36.8-45.8,55.2-68.7l3.6-4.3c3.2-4,6.4-8,9.7-12c-0.4-0.3-0.8-0.6-1.2-0.9c0.1,0.1,0.3,0.2,0.4,0.3
		c-0.3-0.2-0.6-0.5-0.9-0.7c0,0,0,0,0,0c-0.3-0.3-0.7-0.5-1-0.8c-0.1,0-0.1-0.1-0.2-0.2c0.1,0,0.1,0.1,0.2,0.2
		c-0.9-0.7-1.8-1.4-2.7-2.1c0.1,0.1,0.2,0.1,0.2,0.2c0,0-0.1,0-0.1-0.1c0,0,0,0,0,0c0,0,0,0,0,0c0,0,0,0,0,0c-2-1.4-3.9-2.8-5.8-4.3
		c-0.7,1-1.4,2-2.2,2.9c-1.4,1.8-2.9,3.6-4.3,5.4c-1.3,1.6-2.6,3.1-3.9,4.7c-0.6,0.8-1.3,1.5-2,2.3c-0.3,0.4-0.7,0.8-1,1.2
		c-0.8,1-1.8,1.8-2.9,2.5c-0.2,0.2-0.4,0.3-0.7,0.4c-19.6,24.5-39.2,48.9-58.9,73.4c-18.2-14.6-36.3-29.2-54.5-43.7
		c21.5-26.8,43-53.6,64.4-80.4c1-2.1,2.6-4,3.9-5.9c1-1.4,2-2.7,3-4c1.6-2.2,3.3-4.3,5-6.4c-0.5-0.5-1-0.9-1.5-1.4
		c-1.4-1.2-2.8-2.5-4.1-3.7c-1.3-1.2-2.7-2.4-3.9-3.8c-0.2-0.3-0.4-0.5-0.6-0.8C807.6,513.1,804.6,516.8,801.6,520.5L801.6,520.5
		L801.6,520.5z"/>
	<path style="fill:#161616;" d="M880.4,570.8c-0.2-0.2-0.5-0.4-0.7-0.6C879.9,570.4,880.2,570.6,880.4,570.8L880.4,570.8
		L880.4,570.8z"/>
	<path style="fill:#161616;" d="M880.5,570.9C880.5,570.9,880.5,570.9,880.5,570.9C880.5,570.9,880.5,570.9,880.5,570.9L880.5,570.9
		L880.5,570.9L880.5,570.9z"/>
	<path style="fill:#161616;" d="M880.5,570.9C880.5,570.9,880.5,570.9,880.5,570.9C880.5,570.9,880.5,570.9,880.5,570.9L880.5,570.9
		L880.5,570.9z"/>
	<path style="fill:#161616;" d="M880.5,570.9C880.5,570.9,880.5,570.9,880.5,570.9C880.5,570.9,880.5,570.9,880.5,570.9
		C880.5,570.9,880.5,570.9,880.5,570.9L880.5,570.9L880.5,570.9z"/>
	<path style="fill:#161616;" d="M880.7,571.1C880.7,571.1,880.7,571.1,880.7,571.1c-0.1,0-0.1-0.1-0.2-0.2
		C880.6,571,880.6,571,880.7,571.1L880.7,571.1L880.7,571.1z"/>
	<path style="fill:#161616;" d="M772.7,369.6l-28.4,31.9l-28.4,31.9c-1.5,1.7-2.2,3.4-2.2,5.4c0,2.1,0.9,4.2,2.2,5.4
		c28.1,25,56.3,50.1,84.4,75.3c1.5,1.3,2.9,2.6,4.4,3.9c2.5,2.3,5.1,4.5,7.6,6.8c0.1-0.2,0.3-0.3,0.4-0.5c1-1.4,2-2.7,3-4
		c1.6-2.2,3.3-4.3,5-6.4c-0.5-0.5-1-0.9-1.5-1.4c-1.4-1.2-2.8-2.5-4.1-3.7c-1.3-1.2-2.7-2.4-3.9-3.8c-0.7-0.8-1.3-1.7-1.5-2.8
		c-0.3-0.3-0.6-0.7-1-1c-0.2-0.2-0.4-0.5-0.6-0.7c-25.3-22.5-50.7-45.1-76-67.6c15.5-17.4,31.1-34.9,46.6-52.3
		c28.5,25.3,56.9,50.7,85.4,76.1c0.7,0.5,1.4,1,2,1.6c1.2-1.8,2.7-3.4,4-5c1-1.3,2.1-2.5,3.2-3.7c0.8-0.9,1.7-1.9,2.5-2.8
		c-3.7-3.3-7.4-6.6-11-9.8c0,0,0,0-0.1,0l0,0l-37.6-33.5l-29.7-26.4l-14-12.5c-1.7-1.5-3.4-2.2-5.4-2.2
		C776,367.4,773.9,368.2,772.7,369.6L772.7,369.6L772.7,369.6z"/>
	<path style="fill:#161616;" d="M927.9,499.5c-0.5,0.6-0.9,1.1-1.4,1.7c-1.7,2.3-3.3,4.7-4.6,7.4c-0.3,0.7-0.5,1.4-0.7,2.1
		c0,0.5,0,0.9,0,1.4c2.2,1.1,4.1,2.7,6,4.2c1.1,0.9,2.3,1.7,3.4,2.7c1.3,1.1,2.5,2.2,3.8,3.3c1.7,1.5,3.4,3.1,3.7,5.4
		c10.9,9.7,21.8,19.4,32.7,29c12.2,10.9,24.4,21.7,36.5,32.5c-15.6,17.5-31.2,35-46.8,52.5c-24.2-21.6-48.5-43.1-72.7-64.6
		c-0.9-0.8-1.8-1.7-2.7-2.5c-0.2-0.2-0.5-0.3-0.7-0.5c0.2,0.1,0.3,0.3,0.5,0.4c-0.4-0.3-0.8-0.6-1.1-0.9c0.1,0.1,0.1,0.1,0.2,0.2
		c-0.3-0.3-0.7-0.5-1-0.8c-0.1-0.1-0.2-0.1-0.2-0.2c0.1,0,0.1,0.1,0.2,0.1c-0.9-0.7-1.8-1.4-2.7-2.1c0.1,0.1,0.3,0.2,0.4,0.3
		c-0.1-0.1-0.2-0.2-0.3-0.2c0,0,0,0,0,0c0,0-0.1-0.1-0.2-0.1c-1.9-1.4-3.8-2.8-5.6-4.2c-0.7,1-1.4,2-2.2,2.9
		c-1.4,1.8-2.9,3.6-4.3,5.4c-0.8,0.9-1.5,1.9-2.3,2.8c3.5,3.1,7,6.1,10.5,9.1l0.1-0.1l0.5,0.4l1,0.8l35.8,32c10.1,9,20.2,18,30.3,27
		l12,10.7c1.6,1.5,3.3,2.2,5.3,2.2c2,0,4.1-0.9,5.3-2.2l28.4-31.9l28.3-31.8c1.5-1.6,2.2-3.4,2.2-5.3c0-2-0.9-4.1-2.2-5.3l-23-20.5
		l-48.8-43.5l-12.6-11.4l0,0c-3.4-3.1-6.9-6.1-10.3-9.2C928.3,499,928.1,499.3,927.9,499.5L927.9,499.5L927.9,499.5z"/>
	<path style="fill:#161616;" d="M880.5,570.9C880.5,570.9,880.5,570.9,880.5,570.9C880.5,570.9,880.5,570.9,880.5,570.9L880.5,570.9
		L880.5,570.9L880.5,570.9z"/>
	<path style="fill:#161616;" d="M880.8,571.1c0.1,0.1,0.2,0.1,0.3,0.2c-0.2-0.2-0.4-0.3-0.5-0.4C880.6,571,880.7,571.1,880.8,571.1
		L880.8,571.1L880.8,571.1z"/>
	<path style="fill:#161616;" d="M992,422.2c-0.6,0.2-1.2,0.3-1.8,0.7c-0.6,0.4-1.1,0.8-1.6,1.3c-0.6,0.7-1.3,1.5-1.9,2.3
		c-1.5,1.9-3.1,3.7-4.7,5.5c-3.3,3.7-6.9,7.1-10.2,10.8c-3.6,4-7,8.1-10.4,12.3c-3.6,4.3-7,8.7-10.5,13.2c-3.1,4-6.2,8.1-9.4,12.1
		c-6.9,8.6-14.6,16.5-21.8,24.9c-0.8,0.9-1.3,1.8-1.3,3c0,1.1,0.4,2.3,1.2,3.1c1.5,1.6,4.6,1.9,6.1,0.1c3.7-4.4,7.6-8.6,11.5-12.8
		c3.3-3.6,6.7-7.2,9.8-10.9c6.6-7.9,13.1-15.9,19.8-23.8c5.4-6.3,10.7-12.6,16.6-18.5c2.8-2.8,5.6-5.5,8.2-8.4
		c1.2-1.3,2.4-2.7,3.6-4.1c0.6-0.8,1.3-1.6,1.8-2.4c0.9-1.8,1.3-4.1,0.1-5.9c-0.4-0.8-1-1.4-1.7-1.8c-0.7-0.4-1.6-0.7-2.5-0.7
		C992.7,422,992.3,422.1,992,422.2L992,422.2L992,422.2z"/>
	<path style="fill:#161616;" d="M920.6,506.9c-1.4,1.3-1.5,3.7-0.1,5.1c3.5,3.4,7.1,6.7,10.8,10c1.4,1.2,2.8,2.4,4.2,3.6
		c0.9,0.7,1.7,1.4,2.6,2.2c0.9,0.8,1.8,1.6,2.8,2.2c0.6,0.4,1.3,0.6,2,0.5c3.6,3.2,7.4,6.2,11.4,8.9c0.9,0.6,2.1,0.3,2.8-0.3
		c0.9-0.9,1-2.4,0-3.3c-3.3-3.2-6.9-6.1-10.4-9.1c0-0.9-0.4-2.1-1.1-2.7c-0.3-0.2-0.5-0.4-0.8-0.6c0,0,0,0,0,0
		c-1.6-1.2-3.1-2.3-4.7-3.5c-2.3-1.8-4.5-3.7-6.7-5.6c-1-0.9-2-1.9-3-2.8c-1.6-1.5-3.1-3-4.7-4.5c-0.7-0.7-1.7-1.1-2.6-1.1
		C922.2,505.9,921.3,506.2,920.6,506.9L920.6,506.9L920.6,506.9z"/>
	<path style="fill:#404040;" d="M862.4,314.5c-9.1,0-18.2,0.6-27.1,1.7c-17.7,2.5-35.1,7.2-51.4,14c-3.2,1.4-6.6,2.9-10,4.6
		c-12.2,6-23.9,13.3-34.8,21.6c-13.5,10.6-25.7,22.8-36.3,36.3c-10.6,13.9-19.5,29-26.3,45c-6.8,16.4-11.5,33.6-14,51.2
		c-2.3,17.9-2.3,36,0,54c2.5,17.6,7.2,34.9,14,51.2c6.9,16,15.7,31.2,26.4,45.1c10.7,13.6,23.1,26,36.8,36.6
		c13.8,10.5,28.7,19.2,44.5,25.9c16.4,6.8,33.6,11.5,51.1,14c9,1.1,18.1,1.7,27.1,1.7c8.9,0,18-0.6,26.9-1.7
		c17.9-2.5,35.3-7.3,51.9-14.2c15.6-6.8,30.4-15.4,44-25.7c13.8-10.7,26.3-23.3,37.2-37.2c10.5-13.9,19.3-29,26.1-44.9
		c6.7-16.3,11.4-33.5,13.8-51.1c2.2-17.7,2.2-35.7,0-53.6c-2.5-18-7.3-35.5-14.3-52.1c-6.8-15.6-15.4-30.3-25.7-43.9
		c-10.6-13.5-22.8-25.8-36.4-36.5l-0.5-0.4c-14-10.6-29.2-19.5-45.2-26.3c-16.3-6.7-33.5-11.4-51-13.8
		C880.2,315,871.3,314.5,862.4,314.5L862.4,314.5L862.4,314.5z M864.8,442C864.8,442,864.8,442,864.8,442l63.8-79.4
		c1.2-1.4,3.5-2.1,5.1-2.1c1.3,0,2.5,0.3,3.7,1l1.5,1.1l22,17.7l14.7,11.8l29.4,23.6c1.4,1.1,2.1,3.4,2.1,5c0,1.3-0.3,2.5-1,3.6
		l-1.1,1.4c-14.4,17.8-28.7,35.6-43,53.4L940.4,506l-0.8,1l-0.8,1l12.6,11.4l48.8,43.5l23,20.5c1.3,1.2,2.2,3.2,2.2,5.3
		c0,1.9-0.7,3.7-2.2,5.3l-28.3,31.8l-28.4,31.9c-1.2,1.3-3.3,2.2-5.3,2.2c-1.9,0-3.7-0.7-5.3-2.2l-12-10.7c-10.1-9-20.2-18-30.3-27
		l-35.8-32l-1-0.8l-0.5-0.4l-3.9,4.7c-18.4,22.9-36.8,45.8-55.2,68.7l-12.1,15.1c-1.2,1.5-3.6,2.2-5.3,2.2c-1.4,0-2.6-0.3-3.8-1
		l-1.5-1.2l-32.8-26.3l-33.4-26.8c-1.5-1.2-2.2-3.6-2.2-5.3c0-1.4,0.3-2.6,1-3.8l0.9-1.2c22.1-27.5,44-54.7,65.8-81.9l5-6.2l2.6-3.2
		c-28.6-25.6-57.2-51-85.8-76.5c-1.3-1.2-2.2-3.3-2.2-5.4c0-2,0.7-3.7,2.2-5.4l28.4-31.9l28.4-31.9c1.2-1.3,3.3-2.2,5.4-2.2
		c2,0,3.7,0.7,5.4,2.2l14,12.5l29.7,26.4L864.8,442L864.8,442L864.8,442L864.8,442z"/>
</g>
</svg>
