<?xml version="1.0" encoding="utf-8"?>
<!-- Generator: Adobe Illustrator 22.1.0, SVG Export Plug-In . SVG Version: 6.00 Build 0)  -->
<svg version="1.1" id="Layer_1" xmlns="http://www.w3.org/2000/svg" xmlns:xlink="http://www.w3.org/1999/xlink" x="0px" y="0px"
	 viewBox="0 0 2000 2000" style="enable-background:new 0 0 2000 2000;" xml:space="preserve">
<g>
	<path style="fill:#161616;" d="M800.6,362.5c-45.7,12.8-90.1,30.3-132.4,52c-30.4,15.5-59.7,33.4-87.6,53.2
		c-28.8,20.4-56,43-81.5,67.4c-6.4,6.1-12.8,12.4-18.9,18.8c-0.4,0.4-0.8,0.8-1.2,1.3c0,0.1-0.1,0.1-0.1,0.2
		c-21.1,21.8-40.7,45-58.8,69.3c-22,29.4-41.7,60.5-58.9,93c-15.5,29.1-28.8,59.2-40.1,90.2c-2.6,7-5,14.1-7.4,21.2
		c-26.7,80.8-38.2,166.4-35.1,251.4c1.5,40.3,6.6,80.5,14.8,120c0,0.2,0.1,0.4,0.1,0.6c0,0.1,0.1,0.3,0.1,0.4
		c0.4,1.9,0.8,3.7,1.2,5.5c0,0,0,0,0,0.1c0,0,0,0.1,0,0.1c0.1,0.4,0.2,0.7,0.2,1.1c2.4,11.1,5.1,22,8.1,32.9
		c0.1,0.3,0.1,0.5,0.2,0.8c0.1,0.2,0.1,0.4,0.2,0.6c8.9,32.5,20.2,64.3,33.7,95.2c7.9,18.2,16.6,36,26,53.5c0.1,0.2,0.2,0.4,0.3,0.6
		c0.1,0.2,0.2,0.4,0.3,0.6c4.1,7.7,8.4,15.3,12.8,22.8c3.1,5.3,6.3,10.5,9.5,15.7c0.1,0.2,0.2,0.3,0.3,0.5
		c17.1,27.5,36.2,53.7,56.8,78.6c6,7.3,12.2,14.5,18.6,21.5c27.9,31.2,58.7,59.8,91.7,85.6c0.2,0.2,0.5,0.4,0.7,0.6
		c0.1,0.1,0.2,0.2,0.3,0.2c12.9,10.1,26.1,19.7,39.7,28.8c16.7,11.3,33.9,21.9,51.5,31.7c40.8,22.9,83.8,41.6,128.3,55.9
		c14,4.5,28,8.6,42.3,12.3c18.2,4.7,36.5,8.6,55,11.8c0.4,0.1,0.9,0.1,1.3,0.2c22.3,3.9,44.8,6.6,67.3,8.3
		c27.1,2.1,54.3,2.6,81.5,1.6c39-1.4,77.9-6.2,116.1-13.8c56-11.2,110.5-29.4,162.1-53.8c1.6-0.7,3.1-1.5,4.7-2.2
		c19.3-9.2,38.1-19.3,56.5-30.3c2.8-1.7,5.7-3.4,8.5-5.1c18.4-11.3,36.3-23.4,53.5-36.4c25.7-19.2,50.2-40.2,73.1-62.6
		c28.4-27.7,54.2-57.9,77.7-89.8c49.2-67,86.2-142.8,109.4-222.6c12.4-42.6,20.5-86.4,24.8-130.5c2.4-24.4,3.5-48.8,3.3-73.3
		c-0.1-16.3-0.8-32.6-2-48.9c-0.4-5-0.8-10.1-1.3-15.1c-4.2-44.3-12.6-88.2-24.9-131c-11.4-39.6-26.5-78.1-44.5-115.2
		c-36.7-75.4-87.3-144-147.6-202.2c-28.8-27.7-60-52.9-93-75.5c-14.3-9.8-29-19.1-44.1-27.8c-22.2-12.9-45.1-24.6-68.5-35
		c-35.4-15.8-72-28.5-109.5-38.4c-22-5.8-44.3-10.4-66.8-14c-0.2,0-0.4-0.1-0.6-0.1c-0.1,0-0.2,0-0.3-0.1
		c-7.2-1.1-14.5-2.2-21.8-3.1c0,0,0,0,0,0c-0.4-0.1-0.9-0.1-1.3-0.2c-0.4-0.1-0.8-0.1-1.2-0.2c-0.1,0-0.1,0-0.2,0
		c-11.8-1.5-23.7-2.6-35.6-3.6c-17.8-1.4-35.6-2-53.4-2C929.1,335.8,863.6,344.9,800.6,362.5L800.6,362.5L800.6,362.5z
		 M1089.8,357.6c30.1,4.2,59.9,10.3,89.3,18.2c29.7,8,58.8,18.2,87.2,30c-0.4-0.2-0.8-0.3-1.2-0.5c28.3,12,55.7,25.7,82.2,41.1
		c26,15.1,50.9,32,74.7,50.2c22.9,17.7,44.7,36.8,65.3,57.1c22.7,22.3,43.7,46.3,63.2,71.4c18.3,23.9,35.1,48.9,50.2,74.8
		c15.3,26.2,28.8,53.4,40.6,81.3c11.3,27.1,20.9,54.8,28.8,83c8.7,31,15.1,62.6,19.4,94.5c-0.1-0.7-0.2-1.4-0.3-2
		c4.2,31.7,6.4,63.7,6.4,95.7c0.1,32.1-2.2,64.1-6.4,95.9c-4.2,30.1-10.3,59.9-18.3,89.3c-8,29.6-18.1,58.5-29.9,86.8
		c-11.8,27.7-25.3,54.6-40.4,80.6c-15.5,26.7-32.9,52.2-51.7,76.7c0.2-0.3,0.4-0.6,0.7-0.9c-0.3,0.3-0.5,0.6-0.8,1
		c-0.2,0.2-0.3,0.4-0.5,0.6c0.1-0.2,0.3-0.4,0.4-0.6c-18.3,23.4-37.9,45.6-58.9,66.6c-21.4,21.4-44.2,41.4-68.1,59.9
		c-3.2,2.5-6.5,4.9-9.8,7.3c-20.4,15-41.5,29.1-63.4,41.9c-27,15.9-55.2,29.9-84,42.1c0.6-0.3,1.2-0.5,1.9-0.8
		c-27.7,11.6-56.1,21.4-85,29.5c-30.9,8.6-62.3,14.9-94.1,19.2c-13.3,1.7-26.5,3.1-39.9,4c-0.1,0-0.3,0-0.4,0
		c-0.7,0.1-1.4,0.1-2.2,0.2c-0.8,0.1-1.6,0.1-2.4,0.2c0,0-0.1,0-0.1,0c-41.5,2.8-83.2,1.9-124.7-2.5c-0.5-0.1-1.1-0.1-1.6-0.2
		c-0.1,0-0.3,0-0.4,0c-5.2-0.6-10.5-1.2-15.7-1.9c-31.5-4.4-62.6-10.7-93.3-19.2c-29.1-8-57.5-18-85.3-29.7
		c-27.6-11.8-54.4-25.3-80.3-40.4c-26.2-15.3-51.3-32.3-75.3-50.8c-22.8-17.8-44.5-36.8-65-57.1c-22-21.7-42.4-45-61.4-69.3
		c-18.6-24.2-35.7-49.6-51.2-76c-14.8-25.3-27.9-51.6-39.4-78.5c0,0.1,0.1,0.2,0.1,0.3c-0.1-0.2-0.1-0.3-0.2-0.5
		c-0.2-0.4-0.4-0.9-0.6-1.3c0.1,0.2,0.2,0.5,0.3,0.7c-11.8-28.2-21.9-57.1-30.1-86.6c-8.2-29.7-14.4-60-18.6-90.5c0,0,0,0,0,0.1
		c-8.4-62.8-8.5-126.5-0.3-189.3c3.9-28.4,9.5-56.6,16.7-84.4c0.1-0.2,0.1-0.4,0.2-0.6c0.1-0.3,0.2-0.7,0.3-1
		c1-3.9,2.1-7.8,3.2-11.6c0.2-0.8,0.4-1.5,0.7-2.3c0.1-0.4,0.2-0.8,0.3-1.2c0.1-0.3,0.1-0.5,0.2-0.8c7.4-25.7,16.4-51,26.7-75.7
		c12-28.4,25.8-56,41.4-82.7c15.4-26.3,32.5-51.5,51.1-75.6c18.1-23.2,37.6-45.3,58.3-66.1c21.5-21.6,44.4-41.6,68.4-60.3
		c23.5-18,48.1-34.6,73.7-49.7c26.5-15.6,54.1-29.4,82.4-41.4c-0.6,0.3-1.2,0.5-1.9,0.8c28.7-12.1,58.1-22.3,88.1-30.5
		c30.2-8.3,61-14.5,92.1-18.7C964,349.2,1027.3,349.3,1089.8,357.6L1089.8,357.6L1089.8,357.6z M1088.8,357.5c0.3,0,0.7,0.1,1,0.1
		C1089.5,357.5,1089.1,357.5,1088.8,357.5L1088.8,357.5L1088.8,357.5z M565.7,497.7c-0.1,0.1-0.1,0.1-0.2,0.2c0,0,0,0,0.1,0
		C565.6,497.8,565.7,497.8,565.7,497.7L565.7,497.7L565.7,497.7z M348.4,779.9c-0.2,0.5-0.4,0.9-0.6,1.4
		C348,780.9,348.2,780.4,348.4,779.9L348.4,779.9L348.4,779.9z M1689.5,1147.6c0,0.2-0.1,0.4-0.1,0.6
		C1689.4,1148,1689.4,1147.8,1689.5,1147.6L1689.5,1147.6L1689.5,1147.6z M566.6,1607.7c0.2,0.1,0.3,0.2,0.5,0.4c0,0,0,0,0,0
		C566.9,1608,566.8,1607.8,566.6,1607.7L566.6,1607.7L566.6,1607.7z M1549,1481.7C1549,1481.7,1549,1481.7,1549,1481.7
		c0.1-0.1,0.1-0.1,0.1-0.1C1549,1481.6,1549,1481.7,1549,1481.7L1549,1481.7L1549,1481.7z M348.9,1326.1c0,0.1,0,0.1,0.1,0.2
		c-0.1-0.3-0.2-0.5-0.3-0.8C348.7,1325.6,348.8,1325.8,348.9,1326.1L348.9,1326.1L348.9,1326.1z M1267,406.1
		c-0.2-0.1-0.4-0.2-0.6-0.3C1266.6,405.9,1266.8,406,1267,406.1L1267,406.1L1267,406.1z"/>
	<path style="fill:#161616;" d="M506.2,867.6c-1.3,0-2.5,0-3.8,0c-1.9,0-3.8,0-5.7,0.3c-2,0.3-4,1-5.9,1.9c-3.6,1.6-5.4,6-3.9,9.7
		c-1.4,1.2-2.7,3.2-2.8,5.1c-0.1,10.3-0.2,20.7-0.5,31c-0.1,4.2-0.2,8.4-0.3,12.6c0,2.3-0.1,4.6-0.2,6.9c0,2.3,0,4.7,0.3,7.1
		c0.2,1.4,0.7,2.6,1.1,4c0.5,0.8,1,1.7,1.5,2.5c0.7,0.8,1.4,1.4,2.2,2c1,0.8,2.6,1.4,3.9,1.9c1.4,0.5,2.9,0.9,4.4,1.2
		c2.7,0.6,5.3,0.8,8,1.1c2.2,0.3,4.4,0.4,6.6,0.6c3.6,0.3,7.3,0.6,10.9,0.7c4.8,0.2,9.7,0.4,14.5,0.6c2.5,0.1,5,0.1,7.6,0.1
		c1.2,0,2.4,0,3.6,0c16.3,0.2,32.6,0.2,48.9,0.3c17.2,0.1,34.5,0.3,51.7,0.6c16.3,0.2,32.7,0.5,49,0.3c8.8-0.1,17.6-0.3,26.4-0.6
		c3.8-0.1,7.7-0.3,11.5-0.5c2.2-0.1,4.5-0.3,6.7-0.4c2.3-0.2,4.7-0.6,6.7-1.8c3.1-1.7,5-4.6,6.1-7.9c1.7-4.9,1.7-10.4,1.7-15.5
		c0-2.6,0.1-5.2,0.1-7.8c0-3.6,0.1-7.3,0.1-10.9c0.1-4.4,0.1-8.8,0.2-13.2c0-1.7,0.1-3.5,0.1-5.2c0-4.4,0.5-9.1-1.4-13.2
		c-1.4-3-4.1-4.7-6.9-6.1c-1.2-0.6-3-0.9-4.2-1.2c-1.2-0.3-2.3-0.5-3.5-0.8c-5-1.1-10.2-1.6-15.2-1.8c-4.9-0.2-9.8-0.4-14.7-0.6
		c-7.8-0.3-15.6-0.5-23.4-0.7c-33.4-0.9-66.8-1.1-100.2-0.9c-7,0-14.1,0-21.1,0c-6.6,0-13.2-0.1-19.7-0.5c-6.7-0.5-13.4-1.1-20-1.2
		c-0.7,0-1.3,0-2,0C518.5,867.1,512.3,867.4,506.2,867.6L506.2,867.6L506.2,867.6z M543.5,883.5c8.3,0.6,16.6,0.6,24.9,0.7
		c17,0.1,34-0.1,51-0.1c33,0,65.9,0.8,98.9,2.1c2,0.1,4,0.2,5.9,0.2c5.9,0.3,11.7,1.1,17.5,2.3c0,0.1,0,0.2,0,0.3
		c0,7.4-0.2,14.8-0.3,22.1c0,3.7-0.1,7.4-0.1,11.1c0,2.3-0.1,4.6-0.1,7c0,3.9-0.1,8-0.8,11.9c-2.9,0.4-5.8,0.4-8.7,0.6
		c-3,0.2-5.9,0.3-8.9,0.4c-5.6,0.2-11.3,0.4-16.9,0.5c0.7,0,1.4,0,2.1,0c-32.4,0.4-64.8-0.5-97.3-0.7c-16.5-0.1-32.9-0.1-49.3-0.2
		c-8.5-0.1-17.1,0-25.6-0.3c-5.4-0.2-10.7-0.4-16.1-0.6c-4-0.2-8-0.6-12-1c-2.9-0.2-5.7-0.5-8.5-1.1c-0.2,0-0.3-0.1-0.5-0.1
		c0-0.2,0-0.4-0.1-0.7c0-7,0.3-14.1,0.4-21.1c0.1-10.1,0.3-20.2,0.4-30.3c0-1.1-0.1-2.2-0.3-3.2c0.6-0.1,1.1-0.1,1.7-0.1
		c-0.5,0-0.9,0-1.4,0c4-0.1,7.9-0.1,11.9-0.2c3.2-0.1,6.3-0.3,9.5-0.4C528.5,882.4,536,883,543.5,883.5L543.5,883.5L543.5,883.5z"/>
	<path style="fill:#161616;" d="M492.3,953.5c-1.8,17-3.7,34.1-5.2,51.1c-1.5,17.9-3.1,35.7-4.7,53.6c-2.7,31.1-6.1,62.1-9,93.1
		c-1.6,17.3-3.1,34.5-4.4,51.8c-1.1,16-2,32.1-2.9,48.1c-0.5,8.4-1,16.8-1.4,25.2c-0.4,8.4-1,17-0.4,25.4c0.2,3.5,1.7,7.1,4.1,9.7
		c1.6,1.7,3.3,3.2,5.2,4.6c3.5,2.6,7.3,4.6,11.2,6.5c3.4,1.6,7,2.9,10.5,4.2c4.3,1.5,8.7,2.7,13.1,3.8c15.5,3.7,31.3,5.8,47.1,7.7
		c8.3,1,16.6,2,25,2.9c8,0.9,16,1.5,24,2.3c16.4,1.6,32.8,3.4,49.3,4.6c7.9,0.6,15.8,1.1,23.7,1.2c8.4,0.1,16.8,0.2,25.1-0.8
		c2.8-0.3,5.4-0.9,8.1-1.9c3-1.1,4.7-4.7,4.2-7.8c-0.3-1.9-1.3-3.6-2.8-4.7c-1.7-1.3-3.4-1.4-5.5-1.4c-3.3,0.1-6.6,0.6-9.9,0.9
		c-2.8,0.2-5.7,0.3-8.5,0.4c-16.5,0-32.9-1.1-49.3-2.6c-15.6-1.4-31.3-3.1-46.9-4.6c-14.6-1.4-29.2-3.2-43.8-5
		c-13.6-1.7-27-4-40.3-7.1c-7-2.2-13.8-4.7-20.5-7.9c-2.5-1.5-4.8-3.1-7-5c-0.2-0.2-0.4-0.4-0.5-0.6c-0.2-1.2-0.3-2.5-0.4-3.7
		c0-7.5,0.4-15,0.8-22.5c0.4-7.9,0.9-15.9,1.3-23.8c1-17.6,2-35.2,3.3-52.8c2.3-32.8,5.8-65.6,9.1-98.4c3.1-31.7,5.7-63.4,8.6-95.1
		c1.5-16.6,3.3-33.2,5-49.8c0.5-4.2-2.6-8-6.8-8.5c-0.3,0-0.6,0-0.9,0C496.1,946.7,492.7,949.6,492.3,953.5L492.3,953.5L492.3,953.5
		z"/>
	<path style="fill:#161616;" d="M736.2,948.2c-1,9.6-2.1,19.3-2.7,29c-0.3,4.2-0.7,8.5-0.8,12.8c-0.1,5.2-0.3,10.4-0.4,15.5
		c-0.5,16.6-0.2,33.2-0.1,49.8c0.1,16.1-0.3,32.2-0.9,48.2c-0.6,16.5-1.4,33.1-2.8,49.6c-1.4,16.2-3.1,32.5-4.9,48.7
		c-1.9,16.3-3.8,32.5-5.2,48.8c-0.6,7.2-1.2,14.5-1.7,21.7c-0.4,7-0.6,14.1-1,21.1c-0.3,6.7-0.8,13.5-1.4,20.2
		c-0.3,3.1-0.6,6.3-0.9,9.4c-0.2,2.4-0.4,4.8-0.8,7.2c-0.1,0.2-0.1,0.4-0.2,0.6c-0.1,0-0.2,0.1-0.3,0.1c-3.8,1.7-5.6,6.3-3.9,10.2
		c1.7,3.9,6.3,5.6,10.1,3.9c3.8-1.6,6.8-4.4,8.3-8.3c0.7-1.9,1.2-4,1.4-6c0.4-3.1,0.7-6.3,1-9.4c0.7-7.3,1.3-14.6,1.7-21.9
		c0.4-7.8,0.6-15.6,1.1-23.5c0.5-7.9,1.1-15.7,1.8-23.6c1.4-16.3,3.4-32.5,5.2-48.8c1.8-16.2,3.5-32.4,4.9-48.7
		c1.4-16.5,2.1-33.1,2.7-49.6c0.6-16.1,0.9-32.1,0.8-48.2c-0.1-16.6-0.4-33.2,0.1-49.8c0.1-5.2,0.3-10.4,0.4-15.5
		c0.1-4.3,0.5-8.5,0.8-12.8c0.6-9.7,1.7-19.4,2.7-29c0.4-4.1-2.5-7.9-6.7-8.4c-0.3,0-0.6,0-0.8,0C740,941.4,736.6,944.3,736.2,948.2
		L736.2,948.2L736.2,948.2z M712.2,1331.2c-0.1,0.2-0.3,0.3-0.4,0.5C711.9,1331.5,712,1331.4,712.2,1331.2L712.2,1331.2
		L712.2,1331.2z"/>
	<path style="fill:#161616;" d="M602.8,1047.7c-7.4,0.2-14.9,1.7-21.7,4.5c-0.3,0-0.5,0-0.8,0c-2.4,0.2-4.7,1-6.9,1.9
		c-4.7,1.9-8.5,5.8-11.7,9.6c-6.7,7.8-11.5,16.8-16.1,25.9c-2.2,4.3-3.9,8.8-5.2,13.5c-1.4,5.3-2.3,10.7-2.7,16.2
		c-0.4,5.4-0.2,10.8,0.3,16.1c0.5,5.5,2,10.8,3.8,16c1.6,4.9,3.8,9.6,6.3,14.1c1.6,2.9,3.2,5.7,5.1,8.4c1.4,2,3.1,3.8,4.7,5.6
		c0.6,0.7,1.4,1.3,2,2c0.8,0.8,1.7,1.7,2.5,2.5c1.4,1.2,2.9,2.5,4.4,3.7c2.9,2.2,5.8,4.4,8.9,6.3c6.8,4.3,13.7,8.1,21.4,10.6
		c3.7,1.2,7.5,2.4,11.4,3.2c3.6,0.8,7.3,1.7,10.9,2.1c3.8,0.4,7.6,0.8,11.5,0.8c3.9,0,7.8,0,11.7-0.9c2.6-0.5,5.1-1.4,7.6-2.3
		c2.7-0.9,5.3-2.1,7.8-3.4c6.2-3.3,12-7.7,17.2-12.4c2-1.8,3.8-3.7,5.4-5.9c1.5-2.1,2.7-4.4,3.9-6.6c2.5-4.7,4.4-9.8,5.7-14.9
		c1.1-4.4,1.9-8.8,2.1-13.3c0.2-4.6,0-9.3-0.4-14c-0.4-4.3-1-8.6-1.8-12.8c-0.9-4.9-2.3-9.8-3.7-14.5c-1.2-4.1-2.8-8.1-4.2-12.1
		c-2.1-5.9-4.8-11.5-7.9-16.9c-2.3-3.8-4.7-7.5-7.7-10.7c-3.2-3.4-6.8-6.4-10.7-8.9c-7.6-4.9-16-8-24.8-10.2c-4.3-1.1-8.6-2-13-2.6
		c-3.6-0.5-7.2-0.7-10.8-0.7C605.7,1047.7,604.3,1047.7,602.8,1047.7L602.8,1047.7L602.8,1047.7z M605.2,1062.9
		c7.2,0,14.4,1,21.4,2.7c6.2,1.7,12.2,3.7,17.9,6.7c3.4,2,6.6,4.3,9.5,7c2.5,2.6,4.6,5.5,6.5,8.5c3.1,5.3,5.6,10.9,7.7,16.6
		c1.6,4.4,3.1,8.7,4.5,13.1c2.6,9.2,4,18.9,4.4,28.5c0,4.7-0.4,9.4-1.5,14c-1.4,5-3.3,9.8-5.7,14.4c-1,1.7-2.1,3.3-3.3,4.7
		c-4.2,4-8.8,7.6-13.7,10.7c-3.6,2-7.3,3.6-11.2,4.8c-2.9,0.7-5.7,1.1-8.6,1.2c-1.7,0-3.3,0-5-0.1c-2.2-0.1-4.4-0.4-6.6-0.6
		c-3.7-0.4-7.3-1.2-11-2c-1.6-0.4-3.2-0.9-4.9-1.3c-1.2-0.3-2.4-0.8-3.6-1.2c-0.9-0.3-1.8-0.5-2.7-0.9c-2.1-0.9-4.3-1.7-6.4-2.8
		c-1.8-0.9-3.5-1.8-5.2-2.7c-3.3-2.1-6.6-4.1-9.7-6.4c-1.8-1.4-3.6-2.7-5.3-4.2c-1.2-1-2.4-2.1-3.5-3.2c-0.9-1-1.7-1.9-2.6-2.9
		c-1.6-1.8-3-3.8-4.2-5.8c-1.3-2.1-2.5-4.3-3.6-6.5c-2.2-4.5-4.1-9.2-5.6-14c-1.4-5.3-2-10.7-2.2-16.1c0-6.5,0.6-12.9,2-19.3
		c2.1-7.7,5.7-14.9,9.5-21.9c3-5.3,6.6-10.4,10.6-14.9c1.2-1.2,2.4-2.2,3.8-3.2c0,0,0,0,0.1,0c2,1.5,4.7,1.8,7.2,0.8
		c1.1-0.4,2.2-0.8,3.3-1.2C593.3,1063.9,599.3,1063.2,605.2,1062.9L605.2,1062.9L605.2,1062.9z M670.6,1173.1
		c-0.1,0.2-0.2,0.3-0.3,0.5C670.4,1173.4,670.5,1173.2,670.6,1173.1L670.6,1173.1L670.6,1173.1z"/>
	<path style="fill:#161616;" d="M895.8,734.2c-1.6,0.7-3.4,2.3-3.9,4c-0.3,1.1-0.7,2.2-0.7,3.4c0,2,0.2,3,0.8,4.9
		c0.2,0.7,0.5,1.4,0.8,2.1c0.6,1.3,1.4,2.9,2.3,4c0.1,0.1,0.1,0.1,0.2,0.2c-0.9,4.4-1.8,8.8-2.6,13.2c-0.6,3-1,6-1.4,9
		c-1.1,8-2.3,16-3.3,24c-2,17.4-3.8,34.8-5.7,52.1c-1.8,16.1-3.6,32.3-5.6,48.4c-0.9,7.8-1.8,15.5-2.9,23.3
		c-1.2,8.3-2.3,16.7-3.6,25c-5.6,34.4-11.4,68.8-17.6,103.1c-5.8,31.9-12.1,63.7-18.1,95.6c-6.2,32.9-12.7,65.8-18,98.8
		c-1.3,8.1-2.4,16.2-3.5,24.2c-0.5,3.6-0.9,7.2-1.3,10.9c-0.7,6.7-1.5,13.8,1.7,19.9c2.5,4.9,7.3,7.9,12.2,10.2c2.2,1,4.6,1.8,7,2.6
		c3.4,1.1,6.8,2,10.3,2.8c5.5,1.4,11.1,2.3,16.7,3.3c4.7,0.8,9.3,1.6,14,2.4c3.4,0.6,6.8,0.9,10.2,1.4c32.4,4.5,64.8,8.5,97.3,12.3
		c18.4,2.1,36.8,4.2,55.2,6.1c7.8,0.8,15.6,1.3,23.4,1.9c6.4,0.5,12.8,1,19.3,1.3c17.3,0.8,34.6,1.7,51.9,2.2
		c9.1,0.3,18.2,0.5,27.2,0.8c9.4,0.3,18.8,0.2,28.1,0.3c14.8,0.2,29.6,0.1,44.4,0c18-0.2,36-0.3,54-0.5c32.2-0.4,64.4-0.2,96.7,0.4
		c16.4,0.3,32.9,0.7,49.3,1.3c16.1,0.5,32.2,1.4,48.4,1.4c8.9,0,17.8-0.1,26.7-0.5c1.8-0.1,3.7-0.2,5.5-0.4c1.7-0.2,3.3-0.3,4.9-0.8
		c3.3-0.9,6.2-2.4,8.8-4.6c4.4-3.7,7-9.2,9-14.4c1-2.6,1.7-5.3,2.4-8c0.9-3.4,1.7-6.9,2.4-10.4c1.2-5.8,2-11.6,2.9-17.4
		c0.5-3.3,1-6.5,1.4-9.8c1-8.2,2.1-16.4,2.9-24.6c0.8-8.3,1.7-16.6,2.2-24.9c0.6-8.4,1.2-16.7,1.6-25.1c0.8-16.2,1.4-32.5,2.2-48.7
		c0.9-18.4,2-36.7,3.2-55.1c1-16.6,2.2-33.3,3.3-49.9c1.1-16.4,2.1-32.8,3.2-49.2c1-15.4,2.1-30.8,2.7-46.2
		c0.6-17.1,1.2-34.1,1.6-51.2c0.3-16.2,0.4-32.5,0.9-48.7c0.3-8.5,0.5-17.1,0.9-25.7c0.2-3.8,0.4-7.6,0.5-11.5
		c0.2-4.3,0.3-8.6-0.3-12.9c-0.4-2.9-1.7-5.7-3.5-8.1c-1.7-2.2-3.9-3.4-6.2-4.7c-1.7-0.9-3.6-1.5-5.4-2c-1.1-0.3-2.2-0.7-3.3-1
		c-2.4-0.7-4.8-1.3-7.3-1.8c-2.2-0.5-4.3-0.7-6.5-1.1c-8-1.1-16-1.8-24-2.5c-16.3-1.3-32.7-2.5-49-3.7c-16.4-1.2-32.8-2.5-49.2-3.7
		c-32.7-2.4-65.4-4.6-98.2-6.8c-33.7-2.3-67.4-4.2-101.1-6.2c-15.7-0.9-31.3-1.9-46.9-2.9c-16.3-1.1-32.7-2-49-3.2
		c-16.7-1.3-33.4-2.7-50-4.1c-17.3-1.5-34.5-2.8-51.8-4c-31.5-2.3-63-5.2-94.5-8.7c-4.1-0.5-8.3-0.7-12.3-1.5
		c-0.2-0.1-0.4-0.1-0.6-0.2c-0.4-0.3-0.8-0.6-1.3-0.9c-0.6-1.1-1.1-2.2-1.5-3.3c0-0.1,0-0.2,0-0.4c-0.2-1.3-0.7-2.4-1.5-3.4
		c-1.2-1.5-3-2.5-5-2.7c-0.3,0-0.5,0-0.8,0C897.8,733.6,896.8,733.8,895.8,734.2L895.8,734.2L895.8,734.2z M829,1265.8
		c1.1-8.2,2.4-16.4,3.7-24.6c2.6-16.4,5.8-32.7,8.8-49c5.9-31.8,12-63.5,18.1-95.2c3.2-16.7,6.4-33.3,9.4-50
		c3.2-17.9,6.3-35.7,9.4-53.6c1.1-6.2,2.1-12.5,3.1-18.7c1.4-8.7,3-17.3,4.2-26c1.3-9.2,2.6-18.4,4-27.6c1.2-8.4,2.1-16.8,3.1-25.3
		c4-32.9,7.3-65.9,11.1-98.9c0.9-7.6,2.1-15.1,3.2-22.7c0.7-4.7,1.5-9.4,2.5-14c3,0.5,6.1,0.7,9.1,1c7.6,0.9,15.3,1.7,23,2.5
		c16.1,1.7,32.2,3.2,48.4,4.5c16.5,1.4,32.9,2.5,49.4,3.7c15.8,1.2,31.7,2.7,47.5,4c32.7,2.7,65.4,4.8,98.1,6.8
		c34,2,68.1,3.8,102.1,6c32.5,2.1,64.9,4.5,97.4,6.7c33,2.3,66,4.9,99,7.3c10.2,0.7,20.3,1.5,30.4,2.3c9.4,0.8,18.9,1.6,28.2,3.6
		c3.4,0.9,6.9,1.9,10.2,3.4c0,0,0.1,0,0.1,0.1c0,0,0,0,0.1,0.1c0.3,1.6,0.5,3.2,0.5,4.8c-0.1,7.5-0.6,15-0.9,22.5
		c-0.3,8.1-0.6,16.2-0.8,24.3c-0.4,17.1-0.6,34.2-0.9,51.3c-0.6,32.3-2.4,64.5-4.5,96.7c-2.2,32.9-4.4,65.8-6.4,98.8
		c-1.1,17.4-2,34.8-2.9,52.2c-0.5,9.1-0.8,18.2-1.2,27.3c-0.3,8-0.8,16-1.2,24c-0.4,8.1-1.1,16.1-1.7,24.2
		c-0.5,7.9-1.5,15.7-2.2,23.6c-0.7,7.5-1.8,15-2.7,22.5c-0.5,4.2-1.2,8.3-1.9,12.4c-1,6.6-2.2,13.2-3.8,19.7
		c-1.2,4.4-2.5,8.7-4.5,12.8c-0.6,1-1.3,2-2.1,3c-0.5,0.4-0.9,0.8-1.4,1.2c-0.4,0.2-0.8,0.4-1.2,0.5c-3.1,0.7-6.4,0.7-9.5,0.9
		c-3,0.1-6.1,0.2-9.1,0.3c-15.7,0.2-31.3-0.2-47-0.8c-16.5-0.6-33-1.1-49.5-1.5c-16.2-0.4-32.4-0.7-48.6-0.8
		c-17.6-0.1-35.2-0.1-52.8,0c-15.8,0.1-31.6,0.3-47.3,0.5c-17.7,0.2-35.5,0.2-53.2,0.2c-14.3,0-28.7-0.2-43-0.6
		c-10.4-0.3-20.9-0.6-31.4-0.9c-7-0.2-14-0.6-21.1-1c-8.6-0.4-17.3-0.8-25.9-1.2c-3.5-0.2-7-0.5-10.5-0.8
		c-5.9-0.5-11.7-0.9-17.6-1.4c-7.5-0.6-14.9-1.4-22.4-2.2c-7-0.7-14.1-1.5-21.1-2.3c-18.3-2.1-36.5-4.3-54.7-6.5
		c-15-1.8-30.1-3.6-45.1-5.7c-5.3-0.7-10.5-1.5-15.8-2.2c-3.8-0.5-7.7-0.9-11.5-1.6c-10.3-1.8-20.7-3.3-30.9-5.8
		c-5-1.3-10-2.8-14.6-5.1c-0.9-0.6-1.7-1.2-2.5-1.8c-0.1-0.1-0.2-0.2-0.3-0.4c-0.1-0.2-0.2-0.5-0.3-0.7c-0.2-0.7-0.3-1.5-0.3-2.2
		C826.5,1282.1,827.9,1273.9,829,1265.8L829,1265.8L829,1265.8z M1551.6,811c0.2,0.2,0.3,0.5,0.5,0.8
		C1551.9,811.5,1551.8,811.3,1551.6,811L1551.6,811L1551.6,811z M1552.8,812.6c0.1,0.1,0.2,0.2,0.3,0.3
		C1553,812.8,1552.9,812.7,1552.8,812.6L1552.8,812.6L1552.8,812.6z M1552.5,812.8c0.1,0.2,0.1,0.5,0.2,0.7
		C1552.7,813.3,1552.6,813,1552.5,812.8L1552.5,812.8L1552.5,812.8z"/>
	<path style="fill:#161616;" d="M964,797c-3.5,0.2-6.5,2-9.4,3.9c-1.1,0.7-2.1,1.7-3,2.6c-1.2,1.1-2.3,2.3-3.4,3.5
		c-0.7,1-1.2,2.1-1.3,3.3c-0.1,1.1,0,2.2,0.4,3.2c-0.8,1-1.6,2.1-2.3,3.2c-3.6,5.8-3.2,13.2,0.7,18.8c1.6,2.4,3.7,4.3,6.1,5.9
		c1.4,0.9,2.9,1.6,4.4,2.3c1.6,0.7,3.3,1.1,4.9,1.4c1.6,0.3,3.4,0.3,5.1,0.2c1.5-0.1,2.8-0.3,4.2-0.7c3.2-0.8,6.1-2,8.5-4.3
		c4.8-4.5,7.4-11.1,7.9-17.5c0.5-6.5-2.5-12.8-5.8-18.2c-1.6-2.5-3.8-5-6.6-6.2c-1.6-0.7-3.3-1.1-5-1.4c-0.7-0.1-1.5-0.2-2.3-0.2
		C966,796.9,965,796.9,964,797L964,797L964,797z M966.8,811.5c0.1,0,0.2,0,0.2,0.1c0,0,0,0,0,0C966.9,811.5,966.9,811.5,966.8,811.5
		L966.8,811.5L966.8,811.5z M967,811.5C967.1,811.5,967.1,811.6,967,811.5C967.1,811.6,967.1,811.5,967,811.5
		C967,811.5,967,811.5,967,811.5L967,811.5L967,811.5z M966.1,811.6c0.6,0,1.2,0.1,1.9,0.2c0.5,0.6,0.9,1.1,1.4,1.8
		c1.1,1.9,2.1,3.8,2.8,5.9c0.2,0.8,0.3,1.5,0.4,2.3c-0.1,1-0.2,2-0.4,3c-0.4,1.2-0.8,2.4-1.3,3.5c-0.4,0.7-0.9,1.4-1.4,2
		c-0.2,0.2-0.4,0.4-0.7,0.6c-0.6,0.3-1.3,0.5-1.9,0.8c-0.9,0.2-1.9,0.4-2.8,0.4c-0.8,0-1.6-0.1-2.3-0.3c-1-0.4-2-0.8-3-1.2
		c-0.7-0.4-1.3-0.9-2-1.4c-0.4-0.5-0.9-1-1.2-1.5c-0.3-0.5-0.5-1.1-0.7-1.6c0-0.2-0.1-0.5-0.1-0.7c0-0.5,0.1-1,0.2-1.5
		c0.1-0.2,0.2-0.5,0.3-0.7c0.9-1.4,2-2.8,3.1-4.1c1.3-1.2,2.6-2.3,4.1-3.2c0,0,0,0-0.1,0c1.1-0.7,1.9-1.5,2.4-2.8
		c0.2-0.4,0.3-0.9,0.3-1.3C965.3,811.7,965.7,811.7,966.1,811.6L966.1,811.6L966.1,811.6z"/>
	<path style="fill:#161616;" d="M1056.7,802.9c-1,0.3-1.9,0.6-2.9,0.9c-1.6,0.5-3.1,1.7-4.5,2.6c-1.4,1-2.5,2.4-3.7,3.6
		c-1,1.1-2,2.2-3,3.3c-2.1,2.3-1.7,6.2,0.1,8.6c0.1,0.1,0.2,0.2,0.3,0.3c-0.1,0.4-0.3,0.8-0.4,1.1c-1.1,3.6-1.4,7.3-0.8,11
		c0.7,3.9,2.8,7.4,4.9,10.7c1.6,2.5,3.9,4.7,6.3,6.4c3,2.1,6.8,3.1,10.4,3.8c3.6,0.7,7.4-0.3,10.8-1.5c1.7-0.6,3.4-1.6,4.9-2.6
		c1.3-0.9,2.4-1.8,3.5-2.8c5.2-5.2,7.4-12.6,6.9-19.9c-0.3-3.8-1.5-7.4-3.1-10.8c-1.6-3.3-4.1-6.7-7-9c-5.4-4.3-12.8-5.9-19.6-5.9
		c-0.2,0-0.5,0-0.7,0C1058.2,802.7,1057.5,802.8,1056.7,802.9L1056.7,802.9L1056.7,802.9z M1061,818.7c0.1-0.3,0.2-0.5,0.3-0.8
		c1.3,0.2,2.5,0.4,3.8,0.6c1.4,0.4,2.7,0.9,4,1.5c0.2,0.1,0.4,0.3,0.5,0.4c0.9,1,1.7,2,2.5,3.1c0.7,1.3,1.3,2.6,1.7,4
		c0.2,0.8,0.3,1.7,0.4,2.5c0,1.2-0.2,2.4-0.4,3.6c-0.3,0.8-0.6,1.5-0.9,2.3c-0.3,0.4-0.5,0.8-0.9,1.2c-0.6,0.5-1.2,1-1.9,1.5
		c-0.8,0.4-1.7,0.8-2.6,1.2c-0.5,0.1-1,0.2-1.4,0.3c-0.6-0.1-1.2-0.1-1.8-0.3c-1-0.3-1.8-0.6-2.7-1.1c-0.2-0.2-0.5-0.4-0.7-0.6
		c-0.9-0.9-1.6-1.9-2.3-3c-0.6-1.1-1.1-2.2-1.6-3.4c-0.1-0.5-0.2-1-0.3-1.6c0-0.6,0.1-1.2,0.2-1.7
		C1057.8,825.2,1059.4,822,1061,818.7L1061,818.7L1061,818.7z"/>
	<path style="fill:#161616;" d="M1161.6,815.2c-3.6,1.6-6.6,4.1-9.5,6.6c-2.4,2.2-3.3,5.5-1.9,8.3c-1.5,1.8-2.6,3.9-3.7,6
		c-0.8,1.7-1.2,3.6-1.6,5.4c-0.4,1.8-0.2,3.7-0.1,5.5c0.1,1.8,0.8,3.5,1.3,5.2c0.6,2,1.9,3.9,3.1,5.6c2,2.9,5.1,4.8,8.2,6.4
		c2.8,1.5,6.1,2.3,9.3,2.7c3.3,0.5,6.9,0,10.1-0.8c3.9-1.1,7.4-2.8,10.6-5.3c3-2.3,5-5.6,6.7-8.9c0.8-1.5,1.2-3.4,1.6-5.1
		c0.3-1.5,0.6-3,0.8-4.5c0.4-3.4,0.2-7.1-0.5-10.4c-0.8-3.9-2.7-7.6-5.4-10.6c-4.6-5-11.5-8.1-18.3-8.1c-0.1,0-0.2,0-0.2,0
		C1168.3,813.1,1164.9,813.8,1161.6,815.2L1161.6,815.2L1161.6,815.2z M1166.9,834.9c2.6-1.2,4.2-3.9,4.1-6.7c1,0,2,0.2,3,0.3
		c1.1,0.4,2.2,0.8,3.2,1.3c0.7,0.5,1.4,1,2,1.5c0.4,0.4,0.7,0.9,1.1,1.3c0.4,0.7,0.7,1.4,0.9,2.2c0.2,1.2,0.4,2.3,0.5,3.5
		c0,2-0.3,4-0.7,6c-0.3,0.8-0.6,1.6-0.9,2.4c-0.5,0.8-1,1.5-1.6,2.2c-0.6,0.6-1.3,1.1-2,1.5c-1,0.5-2.1,1-3.1,1.4
		c-1.2,0.3-2.5,0.5-3.8,0.6c-1.2,0-2.3-0.2-3.4-0.4c-1.2-0.4-2.4-0.8-3.5-1.4c-0.6-0.4-1.2-0.8-1.7-1.3c-0.4-0.4-0.7-0.9-1.1-1.4
		c-0.3-0.6-0.6-1.2-0.8-1.8c-0.1-0.6-0.2-1.2-0.3-1.8c0-0.5,0.1-1.1,0.2-1.6c0.3-0.9,0.7-1.8,1.1-2.7c0.4-0.7,0.9-1.3,1.4-1.9
		c0.7-0.6,1.5-1.2,2.3-1.8C1164.7,835.9,1165.7,835.4,1166.9,834.9L1166.9,834.9L1166.9,834.9z"/>
	<path style="fill:#161616;" d="M1274.8,824.5c-3.9,0.2-7.5,1-11,2.5c-3.4,1.4-6.4,3.8-9.2,6.1c-3,2.4-3.5,6.9-1.1,9.9
		c0,0.1,0.1,0.1,0.1,0.2c-0.7,1.5-1.3,3.1-1.6,4.8c-0.7,3.4-0.7,7.1-0.1,10.4c0.6,3.8,3.1,6.8,5.8,9.4c2.5,2.4,5.5,3.9,8.4,5.5
		c3.4,1.8,7.3,2.8,11.1,2.6c7.4-0.3,14.1-4.3,19.5-9.1c2.7-2.4,5.1-5.1,6.8-8.3c1.6-2.9,2.3-6.4,2.5-9.6c0.2-3.6-0.7-7.1-2.4-10.2
		c-2-3.5-4.8-6.2-8.1-8.5c-5.6-4-12.2-5.8-19-5.8C1276,824.5,1275.4,824.5,1274.8,824.5L1274.8,824.5L1274.8,824.5z M1275.4,839.7
		c2,0,4,0.2,5.9,0.6c1.4,0.4,2.7,1,4,1.6c1.3,0.8,2.6,1.8,3.8,2.8c0.4,0.4,0.7,0.8,1,1.2c0.2,0.4,0.4,0.8,0.6,1.2
		c0,0.3,0.1,0.5,0.1,0.8c-0.1,0.9-0.2,1.7-0.4,2.6c-0.2,0.5-0.3,0.9-0.5,1.3c-0.7,1-1.4,1.9-2.2,2.8c-1.6,1.5-3.4,3-5.2,4.2
		c-1.3,0.7-2.5,1.3-3.9,1.8c-0.8,0.2-1.7,0.3-2.5,0.4c-0.3,0-0.5-0.1-0.8-0.1c-1.8-0.6-3.4-1.3-5-2.2c-1.1-0.6-2-1.3-3-2.1
		c-0.3-0.4-0.6-0.7-0.9-1.1c-0.1-0.7-0.2-1.3-0.2-2c0-1,0.1-2.1,0.2-3.1c0.2-0.5,0.3-0.9,0.5-1.3c0.4-0.6,0.8-1.2,1.3-1.8
		c0.9-0.8,1.8-1.4,2.8-2.1c0,0,0,0,0,0c1.7-1,3-2,3.8-3.9c0.2-0.5,0.4-1.1,0.4-1.6C1275.3,839.7,1275.4,839.7,1275.4,839.7
		L1275.4,839.7L1275.4,839.7z M1265.9,854.3c0.1,0.2,0.1,0.4,0.2,0.7C1266,854.8,1265.9,854.6,1265.9,854.3L1265.9,854.3
		L1265.9,854.3z"/>
	<path style="fill:#161616;" d="M1384.2,825.9c-0.7,0.4-1.3,0.8-2,1.2c-3.5-0.7-7.4,1.1-8.7,4.6c-1.1,3-2.2,5.9-3.2,8.9
		c-1,2.9-1.7,5.8-1.9,8.8c-0.2,3.8,0.4,7.3,1.7,10.8c0.5,1.2,1.4,2.6,2.1,3.7c1,1.5,2.3,2.9,3.7,4c2.8,2.4,6,4.1,9.6,4.9
		c3.4,0.8,7,0.7,10.5,0.1c3.7-0.6,7-2.3,10.1-4.3c2.5-1.6,4.6-4,6.3-6.3c2.4-3,3.9-6.7,4.8-10.5c0.7-3.3,0.8-6.7,0.2-10
		c-0.6-3.9-2.5-7.4-4.9-10.5c-1.8-2.4-4.4-4.4-7.1-5.8c-3.1-1.6-6.7-2.4-10.2-2.5c-0.2,0-0.3,0-0.5,0
		C1390.9,823.1,1387.4,824,1384.2,825.9L1384.2,825.9L1384.2,825.9z M1393.4,838.2c1,0,2,0.2,3,0.3c0.7,0.2,1.4,0.5,2.1,0.8
		c0.4,0.3,0.8,0.6,1.2,0.9c0.5,0.6,1,1.2,1.5,1.9c0.3,0.6,0.6,1.2,0.8,1.9c0.1,0.7,0.3,1.4,0.4,2.2c-0.1,1-0.2,2-0.3,2.9
		c-0.4,1-0.8,2-1.2,3c-0.6,1-1.3,1.9-2.1,2.8c-0.7,0.7-1.5,1.3-2.3,1.9c-0.8,0.4-1.5,0.7-2.3,1c-1,0.2-2,0.4-3.1,0.5
		c-0.9,0-1.7-0.1-2.6-0.2c-0.4-0.2-0.9-0.4-1.3-0.6c-0.6-0.4-1.1-0.8-1.6-1.2c-0.3-0.4-0.6-0.7-0.9-1.1c-0.2-0.4-0.4-0.9-0.6-1.3
		c-0.2-0.9-0.3-1.8-0.4-2.7c0-1.1,0.1-2.3,0.3-3.4c0.6-1.8,1.2-3.6,1.9-5.4c1.3-1,2.5-1.9,3.9-2.8c0.9-0.4,1.7-0.8,2.6-1.1
		C1392.6,838.3,1393,838.3,1393.4,838.2L1393.4,838.2L1393.4,838.2z"/>
	<path style="fill:#161616;" d="M1480.7,824.1c-3.3,0.4-6.5,1.6-9.4,3.2c-1.7,0.9-3.1,2.1-3.8,3.9c-0.7,1.8-0.7,3.9,0.1,5.7
		c0.8,1.9,2.5,3.3,4.4,4c-2.8,2.8-5.2,5.9-6.7,9.6c-2.4,5.9-0.9,13,3.9,17.2c4.2,3.6,9.8,5.9,15.4,6c5.7,0,11.2-1.7,15.8-5.1
		c1.1-0.8,2-1.9,2.9-2.9c1.1-1.2,2-2.6,2.7-4c0.7-1.3,1.4-2.6,1.9-4c0.6-1.6,0.9-3.4,1.2-5.1c0.5-2.7,0.3-5.8-0.2-8.5
		c-0.6-3.2-2.3-6-4.1-8.6c-1.7-2.4-3.9-4.5-6.1-6.4c-0.9-0.8-1.8-1.5-2.8-2.1c-1.8-1.2-3.7-1.9-5.9-2.4c-1.8-0.4-3.6-0.6-5.4-0.6
		C1483.4,823.9,1482.1,824,1480.7,824.1L1480.7,824.1L1480.7,824.1z M1484.2,838.9c1,0.1,1.9,0.2,2.9,0.3c0.2,0.1,0.3,0.1,0.4,0.2
		c1.2,0.8,2.3,1.8,3.4,2.7c1.1,1.1,2,2.3,2.9,3.6c0.2,0.4,0.4,0.8,0.5,1.2c0.1,0.7,0.2,1.3,0.3,2c0,1.1-0.1,2.2-0.3,3.2
		c-0.3,0.9-0.6,1.7-1,2.5c-0.5,0.8-1.1,1.6-1.8,2.4c-0.4,0.4-0.8,0.7-1.3,1c-0.8,0.4-1.6,0.8-2.4,1.1c-1.1,0.3-2.3,0.5-3.4,0.6
		c-0.8-0.1-1.6-0.2-2.4-0.3c-0.9-0.3-1.8-0.7-2.7-1.1c-0.5-0.3-1.1-0.7-1.6-1.1c0,0,0-0.1-0.1-0.1c0-0.1-0.1-0.2-0.1-0.3
		c0-0.1,0-0.3-0.1-0.4c0-0.2,0-0.5,0.1-0.7c0.2-0.7,0.5-1.3,0.8-2c0.6-1,1.3-1.9,2.1-2.7c0.8-0.8,1.7-1.6,2.6-2.3
		c2.7-2.3,3.3-6.4,1-9.2c-0.1-0.2-0.3-0.3-0.4-0.5C1483.8,838.9,1484,838.9,1484.2,838.9L1484.2,838.9L1484.2,838.9z M1488.4,839.8
		c0.1,0,0.2,0.1,0.3,0.2C1488.6,839.9,1488.5,839.8,1488.4,839.8L1488.4,839.8L1488.4,839.8z M1494.7,847.8c0,0.1,0.1,0.3,0.1,0.4
		C1494.8,848.1,1494.8,847.9,1494.7,847.8L1494.7,847.8L1494.7,847.8z M1477.4,855c0,0.3,0,0.6,0,0.9
		C1477.4,855.6,1477.4,855.3,1477.4,855L1477.4,855L1477.4,855z M1477.1,855.7c0,0.1,0.1,0.2,0.1,0.3
		C1477.2,855.9,1477.2,855.8,1477.1,855.7L1477.1,855.7L1477.1,855.7z M1478.1,857.6c0.2,0.2,0.3,0.3,0.5,0.5
		C1478.4,857.9,1478.3,857.8,1478.1,857.6L1478.1,857.6L1478.1,857.6z"/>
	<path style="fill:#161616;" d="M983.2,696.4c-10.5,5.1-17.3,14.6-22.8,24.5c-5.7,10.2-8.5,21.9-9.3,33.5
		c-0.4,5.8-0.3,11.7-0.1,17.6c0.2,5.7,0.9,11.4,1.7,17.1c0.5,4.2,1.5,8.4,3.4,12.2c1.1,2.2,2.6,3.9,4.6,5.5c1.9,1.5,4.1,2.2,6.4,2.7
		c4.1,0.8,8.1-2.8,8.5-6.8c0.5-4-2.1-7.2-5.7-8.3c0,0,0,0,0,0c-0.4-0.8-0.7-1.7-1-2.5c-0.9-3.7-1.2-7.5-1.7-11.3
		c-0.5-4.2-0.9-8.4-1-12.6c-0.1-8.4,0.2-16.8,2.1-25.1c1.6-5.7,3.7-11.2,6.5-16.4c2.3-4,4.9-7.7,8-11.1c1.6-1.5,3.3-2.9,5.1-4.1
		c1.4-0.8,2.7-1.4,4.2-2c0,0,0.1,0,0.1,0c0.4,0.1,0.7,0.3,1.1,0.4c0.4,0.3,0.8,0.6,1.2,0.9c1.2,1.3,2.2,2.7,3.2,4.2
		c0.4,0.9,0.8,1.8,1.1,2.7c1.2,4.9,1.7,9.9,1.8,15c-0.1,8.1-0.5,16.3-2.1,24.3c-0.4,0.8-0.6,1.6-0.8,2.5c-0.1,1.1-0.2,2.2,0,3.3
		c0.5,3.4,3.4,6.1,6.7,6.4c3.3,0.4,6.8-1.6,8-4.8c1.4-3.8,1.9-8.2,2.5-12.2c0.5-4,0.8-8,0.9-12c0.1-2,0.1-4.1,0.1-6.1
		c0-2.3,0-4.8-0.2-7.1c-0.2-2-0.3-4-0.6-5.9c-0.7-4.4-1.6-9.1-3.8-13c-2.7-4.8-6.5-9.7-11.6-12.1c-2.2-1.1-4.7-1.8-7.2-1.9
		c-0.1,0-0.3,0-0.4,0C989.1,693.9,986.1,695,983.2,696.4L983.2,696.4L983.2,696.4z M991.3,709.2c-0.1,0-0.2,0-0.3,0
		C991,709.2,991.2,709.2,991.3,709.2L991.3,709.2L991.3,709.2z M969.3,793.3c0.2,0.3,0.4,0.6,0.6,1
		C969.6,794,969.5,793.6,969.3,793.3L969.3,793.3L969.3,793.3z M970.4,794.6c0.2,0.1,0.4,0.2,0.5,0.3
		C970.8,794.9,970.6,794.7,970.4,794.6L970.4,794.6L970.4,794.6z"/>
	<path style="fill:#161616;" d="M1083,697.9c-2.2,1.1-4.2,2.6-6,4.3c-2.4,2.2-4.5,4.7-6.5,7.2c-3.3,4.3-6,9.1-8.5,13.9
		c-2.6,5-4.7,10.2-6.4,15.5c-3.4,10.7-4.7,22.1-4.9,33.3c-0.1,5.6,0.2,11.2,0.8,16.8c0.3,3.1,0.9,6.2,1.5,9.3
		c1.7,8.9,4.8,17.7,8.4,26c1.5,3.4,5.6,5,9.1,3.5c3.4-1.5,5-5.6,3.5-9.1c-2.2-4.9-4-10-5.5-15.1c-0.7-2.7-1.3-5.4-1.8-8.1
		c-1-5.8-1.7-11.5-1.9-17.4c-0.1-10.1,0.8-20.1,3.1-29.9c2-7.5,5-14.6,8.7-21.5c2.5-4.2,5.3-8.2,8.6-11.9c1.2-1.1,2.4-2.2,3.7-3.1
		c0.3-0.2,0.7-0.3,1-0.4c0.3,0.2,0.5,0.4,0.8,0.6c0.4,0.5,0.8,0.9,1.1,1.4c0.9,1.8,1.7,3.6,2.3,5.6c1.2,4.4,2.1,9.1,2.4,13.6
		c0,3.9-0.3,7.7-0.6,11.6c-0.3,3.6-0.7,7.3-1.5,10.8c-0.1,0.3-0.2,0.5-0.3,0.8c-1.4,3.9,0.3,8.4,4.2,10c3.7,1.5,8.6-0.3,10-4.3
		c2.4-7,2.6-14.7,3-22c0.1-1.9,0.1-3.9,0.1-5.8c0-3.6-0.4-7.1-1.1-10.6c-1.7-8.8-4.1-19.1-12.2-24.2c-2.3-1.5-5-2.5-7.7-2.5
		c-0.1,0-0.1,0-0.2,0C1087.8,696.2,1085.4,696.8,1083,697.9L1083,697.9L1083,697.9z M1089.3,711c-0.2,0-0.3,0-0.5,0
		C1089,711,1089.2,711,1089.3,711L1089.3,711L1089.3,711z M1090.3,711.1c0.2,0,0.4,0.1,0.6,0.2
		C1090.7,711.2,1090.5,711.2,1090.3,711.1L1090.3,711.1L1090.3,711.1z M1090.7,711.5c0.1,0,0.2,0.1,0.3,0.1
		C1090.9,711.6,1090.8,711.5,1090.7,711.5L1090.7,711.5L1090.7,711.5z M1077.4,725.2c-0.2,0.3-0.3,0.6-0.5,0.8
		C1077.1,725.7,1077.2,725.4,1077.4,725.2L1077.4,725.2L1077.4,725.2z"/>
	<path style="fill:#161616;" d="M1184.9,703.3c-3,0.2-5.4,1.6-7.8,3.2c-1.1,0.8-2,2-3,2.9c-0.8,0.9-1.7,1.8-2.5,2.7
		c-3.8,4.2-6.8,9.1-9.7,14c-2.8,4.9-5.4,10-7.3,15.3c-2.1,5.7-3.7,11.6-4.9,17.5c-1.1,5.5-1.4,11.2-1.7,16.8
		c-0.3,6.4,0,12.7,0.8,19.1c0.7,5.4,2.2,10.8,4.4,15.9c2.1,4.9,5.7,9,9.7,12.5c0.8,0.7,1.7,1.3,2.6,1.9c3.4,2.4,8.2,1.9,10.8-1.6
		c2.5-3.3,1.9-8.4-1.6-10.8c-1.1-0.8-2.2-1.6-3.2-2.5c-1.2-1.3-2.3-2.6-3.3-4c-1.1-2.1-2-4.3-2.7-6.6c-1.4-5.6-2.1-11.3-2.3-17.1
		c0-8.6,0.7-17.3,2.6-25.7c1-3.7,2.2-7.4,3.5-11c1.4-3.9,3.3-7.6,5.2-11.1c3.2-5.4,6.7-10.4,10.9-15.1c0.2,0.2,0.4,0.5,0.5,0.7
		c1.7,2.9,3.1,5.9,4.1,9.1c0.7,2.8,1,5.5,1.1,8.4c0.1,4.9,0.1,9.7-0.2,14.6c-0.3,5-1.1,10-1.5,15.1c-0.3,4.2,2.5,8,6.8,8.5
		c4.1,0.5,8.1-2.6,8.5-6.8c0.7-7.3,1.7-14.6,1.8-22c0-2.2,0-4.4,0-6.6c-0.1-4.5-0.1-9-1.1-13.4c-1.2-5.1-3.3-9.8-6-14.3
		c-0.7-1.2-1.4-2.4-2.3-3.5c-0.8-1.1-1.9-2-2.9-2.9c-2.3-2.1-5.4-3.4-8.5-3.4C1185.4,703.2,1185.2,703.2,1184.9,703.3L1184.9,703.3
		L1184.9,703.3z M1188.1,718c-0.1,0-0.3,0.1-0.4,0.1C1187.8,718.1,1188,718,1188.1,718L1188.1,718L1188.1,718z M1175.3,733.6
		c-0.1,0.3-0.3,0.5-0.5,0.8C1175,734.1,1175.2,733.9,1175.3,733.6L1175.3,733.6L1175.3,733.6z"/>
	<path style="fill:#161616;" d="M1297.9,719.8c-0.3,0.1-0.5,0.1-0.8,0.2c-0.9,0.2-1.7,0.5-2.6,0.8c-2.1,0.8-4.1,2.2-6,3.4
		c-1.2,0.8-2.3,1.9-3.3,2.9c-1.1,1.1-2.2,2.2-3.3,3.4c-1.4,1.7-2.9,3.3-4.3,5c-3.1,3.9-5.7,8.4-7.9,12.9c-4,8.3-6.9,17.3-7.1,26.5
		c-0.1,4.4-0.1,8.7,0,13.1c0.1,5.2,0.6,10.4,1.5,15.6c1.2,6.5,2.9,13.1,5.5,19.1c2.2,5,5.2,9.7,8.1,14.3c0.8,1.2,2.5,2,3.9,2.2
		c1.5,0.2,3.1-0.3,4.3-1.2c1.2-1,2-2.4,2.2-3.9c0.2-1.7-0.4-2.9-1.2-4.3c-0.9-1.4-1.8-2.9-2.7-4.4c0,0,0,0,0,0
		c-2.1-3.9-3.9-7.9-5.2-12.1c-2.1-7.6-3.3-15.4-3.7-23.3c0-7.4-0.1-14.9,1.5-22.1c1.6-5.8,4-11.3,6.8-16.6c2.6-4.3,5.7-8.1,9.1-11.8
		c1.5-1.5,3.1-2.9,4.8-4.1c0.5-0.3,1.1-0.6,1.7-0.8c0.2,0.3,0.4,0.5,0.6,0.8c0.6,1.1,1,2.2,1.5,3.4c1,4.1,1.3,8.2,1.7,12.4
		c0.2,2.2,0.3,4.4,0.5,6.7c0,3.1-0.1,6.2-0.6,9.2c-0.2,0.6-0.4,1.1-0.7,1.7c-0.7,1-1.4,2-2.1,3.1c-2.4,3.3-1.8,8.1,1.5,10.6
		c3.4,2.5,8,1.7,10.6-1.5c1.4-1.7,2.4-3.3,3.5-5.2c1.3-2.4,2-5,2.3-7.7c0.6-4,0.4-8.1,0.2-12.1c-0.1-3.8-0.6-7.6-1-11.3
		c-0.4-4.4-1.4-8.8-2.9-13c-0.9-2.3-2.3-4.5-3.9-6.4c-2.1-2.6-5.2-4.6-8.4-5.2c-0.7-0.1-1.5-0.2-2.2-0.2
		C1299.2,719.7,1298.5,719.8,1297.9,719.8L1297.9,719.8L1297.9,719.8z M1298.9,734.1C1298.9,734.1,1298.9,734.1,1298.9,734.1
		c-0.2,0-0.4,0-0.7,0C1298.4,734.1,1298.7,734.1,1298.9,734.1L1298.9,734.1L1298.9,734.1z M1299.9,734.3c0.2,0,0.3,0.1,0.5,0.1
		C1300.2,734.3,1300.1,734.3,1299.9,734.3C1299.9,734.3,1299.9,734.3,1299.9,734.3L1299.9,734.3L1299.9,734.3z"/>
	<path style="fill:#161616;" d="M1403.6,727.7c-2.8,0.2-5.6,1.2-7.9,2.9c-4,2.8-7.3,6.5-10.3,10.4c-3.3,4.3-6.1,9-8.5,13.9
		c-2.3,4.7-3.7,9.6-4.9,14.7c-1.3,5.3-1.9,10.7-2.2,16.1c-0.6,11,1,22,5.5,32.1c2.1,4.7,4.9,9.1,7.8,13.3c3,4.3,6.5,8.4,10.9,11.4
		c1.1,0.8,2.2,1.4,3.4,2.1c1.5,0.9,2.9,1.4,4.7,1.2c1.6-0.3,3.1-1.1,4-2.4c1.9-2.5,1.7-7-1.3-8.7c-2-1.3-4.1-2.5-5.9-4
		c-2.8-3-5.2-6.3-7.3-9.7c-2.6-4.4-4.7-9-6.4-13.8c-1.3-4.8-1.9-9.7-2.1-14.6c0-6.9,0.7-13.8,2.3-20.5c1.3-4.9,3.2-9.6,5.6-14.1
		c2.5-4.2,5.5-8.2,8.8-11.8c1.3-1.3,2.7-2.4,4.2-3.5c0,0,0,0,0,0c0.1,0,0.2,0,0.3,0c0.1,0.1,0.3,0.1,0.4,0.2c0.4,0.3,0.9,0.6,1.3,1
		c0.5,0.6,0.9,1.1,1.4,1.7c0.9,1.7,1.6,3.5,2.2,5.3c1.3,4.9,1.7,10,2.1,15c0.1,4.5,0,9.1-0.7,13.6c-0.5,0.9-0.9,1.9-1,3
		c-0.2,1.2-0.2,2.4-0.1,3.6c0.3,2.6,2.3,4.9,4.7,5.9c1.3,0.5,2.6,0.7,4,0.5c1.7-0.3,4-1.4,4.9-3c0.5-0.9,1.1-1.8,1.4-2.8
		c0.3-0.9,0.5-2,0.7-2.9c0.2-0.8,0.3-1.6,0.4-2.3c0.3-1.8,0.4-3.7,0.5-5.5c0.1-1.9,0.1-3.7,0.1-5.6c0-2.2,0-4.4-0.2-6.6
		c-0.6-7.9-1.6-15.8-5-23.1c-2.2-4.7-5.6-8.5-10.2-10.9c-2.2-1.1-4.5-1.7-6.9-1.7C1404.3,727.7,1403.9,727.7,1403.6,727.7
		L1403.6,727.7L1403.6,727.7z M1403.6,742.5c-0.2,0.1-0.3,0.2-0.5,0.3C1403.3,742.7,1403.5,742.6,1403.6,742.5L1403.6,742.5
		L1403.6,742.5z M1383.2,792.6c0,0.3,0,0.5,0,0.8C1383.2,793.2,1383.2,792.9,1383.2,792.6L1383.2,792.6L1383.2,792.6z"/>
	<path style="fill:#161616;" d="M1495.2,748c-4,2-7,5.4-9.8,8.8c-3,3.7-5.3,8.1-7.6,12.3c-2.1,4-3.8,8.2-5.3,12.4
		c-3.1,8.7-4.7,17.9-4.7,27.2c0,4.6,0.5,9,1.7,13.5c0.6,2.2,1.4,4.4,2.3,6.5c0.9,2.1,2.2,4,3.5,5.9c2.5,3.6,6,6.7,9.5,9.2
		c1.8,1.4,3.9,2.5,6.1,3.2c2.6,1,5.4,0.6,8.1,0.6c0,0-0.1,0-0.1,0c0.6,0,1.3,0,1.9,0c1.8,0,3.7-1.5,4.8-2.9c1.2-1.6,1.7-3.6,1.4-5.6
		c-0.3-1.9-1.3-3.6-2.9-4.8c-1.6-1.2-3.1-1.4-4.9-1.4c0.1,0,0.2,0,0.4,0c-1.3,0-2.7,0-4,0.1c0,0-0.1,0-0.1,0
		c-0.2-0.1-0.4-0.2-0.6-0.3c-1.8-1.1-3.4-2.5-5-3.9c-1.4-1.5-2.6-3-3.7-4.6c-0.9-1.8-1.7-3.6-2.4-5.5c-0.8-3-1.2-6-1.3-9.1
		c0-5.8,0.8-11.4,2.1-17.1c1.9-6.8,4.6-13.3,7.9-19.5c2-3.5,4.3-6.7,7-9.7c0.7,1.4,1.3,2.9,1.8,4.4c1.2,4.9,1.6,9.9,1.7,14.9
		c0,2.5-0.1,4.9-0.5,7.3c-0.2,0.5-0.3,1-0.5,1.4c-0.5,0.7-1,1.4-1.6,2c-2.2,2.4-1.8,6.6,0.1,9c1.2,1.5,3,2.5,5,2.7
		c2.1,0.2,3.7-0.5,5.4-1.6c5.2-3.4,6.8-9.7,7.2-15.6c0.3-4.5,0-9.2-0.3-13.7c-0.3-4.4-1.4-8.5-2.6-12.7c-1.2-4.1-3.5-8.5-7-11.3
		c-1.8-1.4-3.9-2.7-6.3-3c-0.7-0.1-1.5-0.2-2.2-0.2C1498.2,747.1,1496.5,747.4,1495.2,748L1495.2,748L1495.2,748z M1497.6,761.2
		c0.2,0.1,0.3,0.2,0.5,0.3C1497.9,761.4,1497.7,761.3,1497.6,761.2L1497.6,761.2L1497.6,761.2z M1501.4,762.1c-0.1,0-0.2,0-0.4,0
		c0,0,0,0,0,0C1501.1,762.1,1501.3,762.1,1501.4,762.1L1501.4,762.1L1501.4,762.1z M1503.2,783.9c0,0.2,0,0.4,0,0.7
		C1503.2,784.3,1503.2,784.1,1503.2,783.9L1503.2,783.9L1503.2,783.9z M1498.2,833c-0.2,0-0.3,0-0.5,0
		C1497.9,833.1,1498.1,833.1,1498.2,833L1498.2,833L1498.2,833z M1496.6,833.1c-0.2,0-0.4,0-0.5,0
		C1496.3,833.1,1496.5,833.1,1496.6,833.1L1496.6,833.1L1496.6,833.1z"/>
	<path style="fill:#161616;" d="M918.4,913.4c-0.5,4.2,2.6,8.1,6.8,8.5c9.3,1,18.6,1.7,27.9,2.1c8.7,0.4,17.4,0.6,26.1,0.9
		c16.5,0.5,33.1,1.1,49.6,1.7c33.9,1.2,67.9,1.6,101.8,1.7c16.7,0.1,33.3,0.3,50,0.5c16.6,0.2,33.3,0.3,49.9,0.5
		c33.5,0.3,66.9,0.6,100.4,1.4c33.4,0.8,66.7,1.9,100,3.6c11.5,0.6,23.1,1.2,34.7,1.7c6,0.3,12,0.5,18,0.6
		c5.1,0.1,10.2-0.2,15.3-0.4c0.8,4.5,0.9,9.1,1.1,13.6c0.1,16.8-0.3,33.6-0.5,50.4c-0.2,16.4-0.2,32.8-0.3,49.2
		c-0.1,9.2-0.2,18.3-0.4,27.5c-0.2,8.3-0.7,16.7-1,25c-0.2,4-0.5,8-0.8,12c-0.2,3.5-0.4,7-0.7,10.4c-0.8,9-1.6,18.1-2.6,27.1
		c-3.6,33.1-9.6,66-13.6,99.1c-0.6,5.1-1.2,10.3-1.8,15.4c-0.6,5-1,10.1-1.9,15c-0.2,0.5-0.4,1-0.6,1.4c-0.2,0.2-0.4,0.5-0.5,0.7
		c-0.5,0.4-1,0.8-1.6,1.2c-1.7,0.9-3.5,1.6-5.3,2.3c-7.9,2-16.2,2.5-24.2,3.3c-5.2,0.5-10.4,0.6-15.6,0.9c-9.8,0.5-19.6,0.7-29.4,1
		c-15.7,0.3-31.5,0.6-47.2,0.5c-18.3-0.1-36.7-0.3-55-0.6c-16.2-0.3-32.4-0.9-48.6-1.6c-16.6-0.6-33.1-1.2-49.6-2.1
		c-33.8-1.8-67.6-4.3-101.4-5.9c-34-1.6-68-2.7-101.9-4.5c-17-0.9-34-1.9-51-3.2c-16.8-1.2-33.5-2.6-50.1-5.1
		c-7.4-1.1-14.9-2.7-22.4-3c-2.1-0.1-4,0.3-5.7,1.6c-1.6,1.3-2.6,3.1-2.8,5.1c-0.5,3.9,2.6,8.4,6.8,8.5c3.8,0.1,7.5,0.7,11.2,1.3
		c3.9,0.6,7.9,1.2,11.8,1.8c8,1.2,16,2.1,24.1,2.9c16.3,1.6,32.8,2.8,49.1,3.8c18,1.1,36.1,2,54.1,2.8c15.8,0.7,31.6,1.1,47.3,1.9
		c35.2,1.7,70.4,3.7,105.5,5.9c32.1,1.9,64.2,3.3,96.3,4.2c8.6,0.3,17.2,0.6,25.8,0.8c9.3,0.1,18.6,0.3,28,0.5
		c17.4,0.3,34.8,0.1,52.1,0c8.4,0,16.9-0.2,25.3-0.4c8.2-0.2,16.4-0.3,24.6-0.8c8.6-0.4,17.1-0.8,25.6-1.6
		c7.6-0.7,15.2-1.4,22.5-3.6c2.6-0.8,5-1.8,7.3-3.1c2.8-1.6,5-3.5,7-6c3.1-3.8,3.7-8.9,4.4-13.5c1.2-8.1,1.9-16.4,2.9-24.5
		c1-8.5,2.2-17,3.3-25.4c2.1-16,5-31.9,7.1-47.8c1.1-8.4,2.2-16.8,3.1-25.2c1-9.2,1.9-18.5,2.7-27.7c0.7-7.9,1.1-15.9,1.6-23.8
		c0.3-4.5,0.4-9,0.6-13.4c0.2-3.5,0.4-7,0.4-10.5c0.7-34.7,0.6-69.5,1.2-104.3c0.1-4.6,0.1-9.3,0.2-13.9c0-4.7,0.1-9.4-0.1-14.1
		c-0.1-2.5-0.2-5-0.3-7.5c-0.2-3.4-0.7-6.9-1.8-10.1c-0.9-2.9-2.5-5.6-5-7.3c-2.2-1.5-4.7-1.8-7.2-1.8c-1.6,0-3.2,0.1-4.8,0.1
		c-2,0.1-4.1,0.2-6.1,0.2c-7.7,0.1-15.4-0.3-23-0.6c-8.2-0.3-16.4-0.8-24.6-1.2c-16.9-0.8-33.9-1.6-50.8-2.3
		c-33.1-1.3-66.2-2-99.3-2.5c-34.2-0.5-68.4-0.7-102.5-1c-16.3-0.2-32.5-0.4-48.8-0.5c-17.8-0.1-35.6-0.2-53.4-0.3
		c-33.2-0.3-66.3-1.8-99.5-2.9c-9.5-0.3-19-0.5-28.4-0.9c-5-0.2-9.9-0.4-14.9-0.8c-5.9-0.4-11.9-1-17.8-1.6c-0.3,0-0.5,0-0.8,0
		C922.3,906.5,918.9,909.4,918.4,913.4L918.4,913.4L918.4,913.4z M1498.1,934c0.1,0.1,0.2,0.2,0.3,0.3c0,0,0,0,0,0
		C1498.3,934.3,1498.2,934.2,1498.1,934L1498.1,934L1498.1,934z M1499.1,936.2C1499.1,936.2,1499.1,936.2,1499.1,936.2
		C1499.1,936.2,1499.1,936.2,1499.1,936.2C1499.1,936.2,1499.1,936.2,1499.1,936.2L1499.1,936.2L1499.1,936.2z"/>
	<path style="fill:#161616;" d="M920,919.8c-1.4,16.4-1.9,32.9-3.4,49.3c-1.6,16.6-3.4,33.2-6.4,49.6c-3.1,17.4-6.4,34.8-9.6,52.3
		c-2.9,15.6-6,31.2-9.5,46.7c-3.7,16.5-7.9,32.8-11.8,49.2c-4,16.4-7.9,32.8-11.7,49.2c-2,8.6-3.9,17.3-5.4,26.1
		c-0.7,4-1.4,8.1-2,12.2c-0.3,2.1-0.6,4.2-0.8,6.2c-0.2,1.7-0.4,3.3-0.3,5.1c0.1,1.1,0.4,2.2,0.9,3.3c0.5,1.2,1.3,2.2,2.4,3
		c0.7,0.4,1.4,0.8,2.2,1.2c3,1.5,7,0,8.9-2.5c1.2-1.6,1.7-3.7,1.4-5.7c-0.1-0.5-0.2-0.9-0.4-1.4c0.3-3.1,0.8-6.1,1.3-9.2
		c0.6-4,1.3-7.9,2-11.9c1.4-7.8,3.1-15.6,4.9-23.3c3.8-16.4,7.7-32.8,11.7-49.1c4-16.4,8.1-32.8,11.9-49.3
		c3.6-15.7,6.7-31.5,9.7-47.4c3.3-17.4,6.5-34.9,9.7-52.3c2.9-16.2,4.8-32.5,6.4-48.8c1.6-16.9,2.1-33.8,3.6-50.7
		c0.4-4.2-2.5-8-6.8-8.5c-0.3,0-0.6,0-0.8,0C923.9,913,920.3,915.9,920,919.8L920,919.8L920,919.8z"/>
	<path style="fill:#161616;" d="M919.2,993.5c-0.5,4,2.6,8.2,6.8,8.5c10.8,0.7,21.5,1.1,32.3,1.5c6.3,0.2,12.6,0.5,19,0.5
		c17.7,0.2,35.5,0.3,53.2,0.5c31.2,0.3,62.5,1,93.8,1.3c31.8,0.4,63.6,0.2,95.3,1c31.7,0.8,63.4,2.6,95,4.7
		c15.7,1,31.4,2.2,47.1,3.1c15.7,0.9,31.4,1.5,47,2.2c7.5,0.4,15,0.8,22.5,1.2c7.6,0.4,15.1,0.8,22.6,1.4c7.1,0.6,14.3,1.3,21.4,1.9
		c7.1,0.6,14.3,0.5,21.4-0.8c2.4-0.5,4.8-1.2,7.1-2.1c2.8-1.1,4.4-4.4,4-7.3c-0.3-1.7-1.2-3.4-2.7-4.4c-1.6-1.2-3.3-1.4-5.1-1.3
		c-4.7,0.3-9.4,0.9-14,1.1c-6.3,0-12.5-0.8-18.8-1.3c-7.3-0.7-14.6-1.3-21.9-1.7c-15.3-0.9-30.6-1.7-45.9-2.4
		c-15.2-0.7-30.4-1.3-45.6-2.3c-16.3-1.1-32.7-2.2-49-3.3c-30.6-2-61.1-3.6-91.8-4.1c-16.3-0.3-32.6-0.5-49-0.6
		c-16-0.1-32-0.1-48-0.4c-33.4-0.5-66.7-1.1-100.1-1.3c-14.1-0.1-28.3-0.2-42.4-0.4c-5.9-0.1-11.9-0.4-17.8-0.6
		c-9.3-0.4-18.7-0.7-28-1.3c-0.2,0-0.4,0-0.6,0C923.2,986.7,919.6,989.4,919.2,993.5L919.2,993.5L919.2,993.5z"/>
	<path style="fill:#161616;" d="M905.1,1091.8c-0.4,3.9,2.5,7.9,6.5,8.2c18.2,1.4,36.5,2.4,54.7,2.9c18.5,0.5,37.1,0.9,55.6,1.3
		c16.1,0.3,32.2,0.9,48.3,1.4c15.3,0.6,30.5,1.3,45.8,1.7c16.6,0.4,33.2,0.8,49.7,1.3c17.9,0.6,35.8,1.3,53.7,2.2
		c16,0.8,31.9,1.7,47.9,2.6c16,0.9,32,1.7,47.9,2.8c33.2,2.5,66.2,6.8,99.3,9.5c13.2,1.1,26.4,2.1,39.6,3.1c6.8,0.5,13.7,1,20.5,1.5
		c3,0.2,6,0.4,9,0.5c1.4,0,2.8,0.1,4.2,0.1c2.3,0,4.8,0.1,7-0.5c2-0.6,3.6-1.2,4.9-3c1.2-1.6,1.7-3.7,1.4-5.8
		c-0.6-4-4.6-7.1-8.7-6.3c-0.8,0.2-1.6,0.2-2.4,0.3c-7.6,0-15.1-0.6-22.7-1.1c-7.8-0.5-15.5-1.2-23.3-1.8c-16.7-1.3-33.4-2.6-50-4.2
		c-16.2-1.5-32.3-3.4-48.4-5.1c-15.9-1.6-31.7-2.7-47.6-3.6c-32.8-1.8-65.7-3.9-98.5-5.2c-34.2-1.4-68.3-2-102.5-3.1
		c-15.3-0.5-30.6-1.2-45.9-1.6c-18.5-0.5-37-0.8-55.5-1.2c-13.1-0.2-26.2-0.6-39.3-1c-5.3-0.1-10.7-0.5-16-0.8
		c-9.1-0.5-18.1-1-27.2-1.7c-0.2,0-0.4,0-0.6,0C908.9,1085.2,905.5,1087.9,905.1,1091.8L905.1,1091.8L905.1,1091.8z M1489.2,1115.6
		c-0.2,0-0.4,0-0.6,0C1488.7,1115.6,1489,1115.6,1489.2,1115.6L1489.2,1115.6L1489.2,1115.6z"/>
	<path style="fill:#161616;" d="M878.8,1183.1c-0.5,4,2.5,7.3,6.3,7.9c4.9,0.8,9.9,1.4,14.9,2c1.2,0.2,2.5,0.2,3.7,0.2
		c3,0.2,5.9,0.3,8.9,0.5c7.2,0.4,14.4,0.5,21.6,0.7c17,0.3,34,0.6,51.1,0.8c33,0.5,66,1.3,99,2.6c16.3,0.7,32.6,1.9,48.8,3.1
		c15.1,1.1,30.2,2.8,45.4,4.1c32.3,2.9,64.6,5.6,97,7.9c16.5,1.2,32.9,2.3,49.4,3.4c15.5,1.1,30.9,2.5,46.3,3.9
		c16,1.5,32.1,2.6,48.1,3.9c15.9,1.3,31.7,3.2,47.7,3.7c4.2,0.1,8.3,0.1,12.4,0.2c2.7,0,5.4-0.1,8.2-0.2c2.7-0.2,5.2-0.9,7.8-1.8
		c3-1.1,4.6-4.6,4.1-7.6c-0.3-1.8-1.3-3.5-2.8-4.6c-1.6-1.2-3.4-1.5-5.3-1.3c-0.8,0.1-1.6,0.1-2.4,0.1c-7.2,0.1-14.3,0.1-21.5-0.1
		c-7.8-0.2-15.5-0.9-23.3-1.6c-16.2-1.5-32.4-2.8-48.6-3.9c-16.3-1.2-32.5-2.9-48.8-4.3c-15.1-1.3-30.2-2.2-45.3-3.3
		c-32.9-2.2-65.9-4.6-98.8-7.4c-31.3-2.6-62.6-6.2-94-7.9c-16.4-0.9-32.7-1.7-49.1-2.1c-16.5-0.5-33.1-0.9-49.6-1.1
		c-17.1-0.2-34.3-0.4-51.4-0.6c-15.5-0.2-31-0.2-46.5-1c-3.6-0.2-7.4-0.2-11-0.6c-4.9-0.6-9.8-1.1-14.6-1.9c-0.3-0.1-0.7-0.1-1-0.1
		C882.2,1176.7,879.1,1179.7,878.8,1183.1L878.8,1183.1L878.8,1183.1z"/>
	<path style="fill:#161616;" d="M1000.6,926.5c-3.9,34.2-7.8,68.5-13,102.6c-2.7,17.5-5.2,35-7.8,52.5c-2.3,15.9-5.4,31.7-8.2,47.5
		c-3,17.1-5.5,34.3-8.1,51.4c-2.4,16.2-5,32.3-7.3,48.5c-1.1,7.5-2.2,15.1-3.5,22.6c-1.4,7.8-2.7,15.7-4.2,23.6
		c-0.8,4.1,2.8,8.1,6.8,8.5c2,0.2,4.1-0.4,5.7-1.6c1.7-1.4,2.4-3.1,2.8-5.1c0.8-4,1.4-8,2.1-12c0.7-4.1,1.5-8.1,2.2-12.2
		c1.4-7.9,2.5-15.8,3.6-23.8c2.3-16.3,4.9-32.5,7.3-48.7c2.5-16.9,5-33.8,8-50.7c1.4-8.3,3-16.6,4.5-25c1.4-7.8,2.6-15.6,3.7-23.4
		c2.5-17.4,5.1-34.8,7.8-52.2c2.4-15.6,4.5-31.2,6.5-46.9c2.2-17.9,4.2-35.9,6.3-53.8c0.5-4.2-2.6-8.1-6.8-8.5c-0.3,0-0.6,0-0.9,0
		C1004.4,919.7,1001,922.6,1000.6,926.5L1000.6,926.5L1000.6,926.5z"/>
	<path style="fill:#161616;" d="M1088.4,928.1c-1.2,8.1-2.6,16.3-3.7,24.4c-1.1,7.9-2,15.9-3,23.8c-1.9,15.8-3.7,31.5-5.5,47.3
		c-1.8,15.9-3.7,31.8-5.8,47.7c-2,16-4.4,32-6.4,48c-0.9,7.1-1.7,14.1-2.7,21.2c-1.2,8.9-2.5,17.7-3.9,26.5
		c-2.4,15-5.1,29.9-7.5,44.9c-2.2,13.1-4.4,26.1-6.9,39.1c-1.3,6.9-2.6,13.7-4,20.6c-1,5.3-1.9,10.6-2.9,15.9
		c-0.4,0.8-0.7,1.7-0.8,2.7c-0.1,1.1-0.1,2.2,0,3.3c0.2,0.7,0.4,1.4,0.6,2.1c1.2,3.2,5,5,8.2,4.5c1.3-0.2,2.5-0.7,3.6-1.6
		c1.7-1.3,2.4-3.1,2.8-5.1c0.8-3.9,1.4-7.8,2.1-11.7c0.7-3.6,1.4-7.2,2-10.8c1.6-8.1,3.1-16.2,4.7-24.3c3-15.6,5.3-31.3,7.8-47
		c2.4-14.8,5.2-29.6,7.1-44.4c2.1-15.7,3.8-31.4,5.9-47c2.2-17,4.5-34,6.5-51c1.8-14.6,3.2-29.3,4.9-43.9
		c1.6-14.2,3.1-28.4,4.8-42.6c1.6-13.7,3.4-27.3,5.5-40.9c0.6-3.7-2.4-7.2-6.1-7.6c-0.3,0-0.5,0-0.8,0
		C1091.8,922,1089,924.7,1088.4,928.1L1088.4,928.1L1088.4,928.1z"/>
	<path style="fill:#161616;" d="M1174.4,928c-0.5,1.2-0.8,2.5-1.2,3.7c-0.3,0.9-0.2,1.9,0.2,2.6c-0.1,0.6-0.2,1.2-0.3,1.8
		c-0.3,2-0.6,3.9-0.9,5.9c-0.5,2.9-0.7,5.8-1.1,8.7c-0.8,6.1-1.2,12.3-1.8,18.5c-1.1,11.8-2,23.6-3.1,35.4c-1,11.7-2.3,23.3-3.6,35
		c-1.3,11.7-2.9,23.3-4.7,35c-0.8,5.6-1.9,11.2-2.9,16.7c-1,5.9-2.2,11.7-3.3,17.6c-2.1,11-3.8,22.2-5.7,33.2
		c-2.1,12-4.3,23.9-6.6,35.8c-2.2,11.2-4.4,22.3-6.1,33.5c-1.9,12.1-3.7,24.1-5.7,36.2c-0.9,5.3-1.8,10.5-2.6,15.8
		c-0.8,5.4-1.6,10.8-2.6,16.2c-0.3,1.7-0.7,3.5-1,5.2c-0.4,0.8-0.7,1.7-0.7,2.5c0,0.9-0.1,1.8,0.1,2.7c0.5,2,1.3,3.6,2.9,4.9
		c2,1.5,5.3,2.1,7.6,0.9c1.3-0.7,2.4-1.3,3.3-2.6c0.9-1.2,1.4-2.7,1.7-4.2c0.1-0.7,0.2-1.3,0.3-2c0.2-1.3,0.5-2.7,0.7-4
		c0.4-2.6,0.8-5.2,1.2-7.8c0.8-5.4,1.4-10.8,2.3-16.2c1.8-11.9,3.7-23.7,5.4-35.6c0.7-5.1,1.4-10.2,2.2-15.3
		c1.1-6.4,2.1-12.9,3.3-19.3c1.9-10.7,4-21.5,5.7-32.2c1.9-12,3.7-24.1,5.6-36.1c1.9-11.8,3.9-23.5,5.7-35.3
		c3.5-23.8,5.4-47.7,6.9-71.7c0.7-11.6,1.3-23.2,1.9-34.8c0.3-6,0.6-12,0.9-18c0.3-5.7,0.7-11.4,1.2-17.1c0.1-1.7,0.3-3.4,0.5-5.1
		c0.3-3.2,0.7-6.4,0.5-9.6c-0.1-1.4-1.4-2.5-2.7-2.6c-0.1,0-0.2,0-0.3,0C1176.1,926,1174.8,926.8,1174.4,928L1174.4,928L1174.4,928z
		"/>
	<path style="fill:#161616;" d="M1253.3,927.4c-1,22.4-2.2,44.8-3.4,67.2c-0.4,7.8-1.1,15.5-1.6,23.3c-0.6,8.2-1.3,16.3-2.1,24.4
		c-1.5,15.9-3.3,31.7-5.3,47.5c-2.3,17.7-4.9,35.4-7.6,53.1c-2.4,16.2-4.7,32.4-6.9,48.7c-2.2,16.1-4.6,32.2-6.7,48.3
		c-2.2,16.2-4.1,32.5-5.9,48.7c-0.5,4.2,2.6,8,6.7,8.5c4.3,0.5,7.8-2.6,8.5-6.7c0.6-4,1-8,1.5-12.1c0.5-3.8,1-7.7,1.4-11.5
		c1-8.1,1.9-16.3,3-24.4c2.2-16.3,4.6-32.6,6.8-48.8c4.6-33.9,9.9-67.7,14.4-101.6c2.1-15.7,3.8-31.4,5.3-47.1
		c0.8-8.1,1.5-16.3,2.1-24.4c0.6-7.9,1.2-15.8,1.7-23.8c1.2-22.5,2.5-45,3.4-67.5c0.2-4.2-2.4-8-6.7-8.5c-0.3,0-0.5,0-0.8,0
		C1257.3,920.7,1253.5,923.6,1253.3,927.4L1253.3,927.4L1253.3,927.4z"/>
	<path style="fill:#161616;" d="M1343.1,927.1c-1.3,1-2.5,2.8-2.5,4.5c-0.3,18.3-0.6,36.7-1.1,55c-0.4,16.1-0.9,32.1-2,48.1
		c-0.3,4.1-0.6,8.2-0.9,12.3c-0.3,4.3-0.9,8.6-1.3,12.9c-0.8,8.2-2,16.3-3,24.5c-1.9,14.7-4.3,29.3-6.2,44c-4,31.8-7.9,63.7-11,95.7
		c-1.2,12.1-2.4,24.2-3.7,36.3c-0.6,5.6-1.3,11.1-1.9,16.7c-0.3,2.7-0.6,5.4-0.9,8.2c-0.2,1.3-0.3,2.7-0.5,4c-0.1,1-0.2,2.1-0.3,3.1
		c-0.3,1.1-0.4,2.2-0.3,3.4c0,0.2,0,0.4,0.1,0.6c0.6,3.3,3.2,6,6.7,6.4c3.5,0.4,6.5-1.6,7.9-4.7c1-2.2,0.9-5.1,1.2-7.5
		c0.2-1.9,0.4-3.7,0.6-5.5c0.4-3.7,0.8-7.4,1.2-11.2c0.9-7.8,1.7-15.5,2.5-23.3c1.6-15.3,2.8-30.6,4.5-45.9
		c3.5-32.3,7.1-64.7,11.4-96.9c2-14.7,4.2-29.4,5.6-44.3c0.5-4.9,0.9-9.7,1.4-14.6c0.3-3.5,0.5-7,0.7-10.5
		c0.5-8.2,0.9-16.3,1.2-24.5c1-26.9,1.2-53.8,1.6-80.7c0-1.9-0.2-3.4-1.4-5c-1.1-1.4-2.7-2.3-4.5-2.5c-0.3,0-0.5,0-0.8,0
		C1345.7,925.7,1344.2,926.2,1343.1,927.1L1343.1,927.1L1343.1,927.1z"/>
	<path style="fill:#161616;" d="M1418,924.1c-0.9,5.4-1.8,10.8-2.5,16.3c-0.7,5.4-1.4,10.9-2.1,16.3c-0.3,2.6-0.8,5.3-1,7.9
		c-0.3,4.1-0.6,8.3-0.9,12.4c-1,15.2-1.9,30.3-2.7,45.5c-0.9,16.6-2,33.1-3.3,49.6c-1.2,15.3-2.7,30.5-4.3,45.7
		c-3.2,30-6.1,60-8.4,90.1c-1.1,14.2-2.3,28.4-3.9,42.7c-0.8,6.9-1.6,13.8-2.3,20.7c-0.4,3.1-0.7,6.2-1.1,9.3
		c-0.4,3.6-1.1,7.1-1.7,10.7c-0.7,4.1,2.8,8,6.7,8.5c2,0.2,4-0.4,5.6-1.6c1.7-1.4,2.4-3.1,2.8-5.1c1.6-7.1,2.2-14.4,3.1-21.7
		c0.8-7.3,1.6-14.6,2.4-21.8c0.8-8,1.6-16,2.3-23.9c0.6-7.5,1.1-15,1.6-22.5c2.2-31.2,5.3-62.3,8.3-93.4c2.9-29.9,4.5-59.9,5.8-90
		c0.4-8,0.7-16,1.1-24c0.3-7.5,0.9-14.9,1.4-22.4c0.2-2.5,0.2-5.1,0.5-7.6c0.4-3.3,0.9-6.7,1.3-10c0.6-4.9,1.3-9.9,1.9-14.8
		c0.7-5.1,1.5-10.2,2.3-15.2c0.6-3.5-2.3-6.7-5.7-7.1c-0.2,0-0.5,0-0.7,0C1421.1,918.4,1418.5,920.9,1418,924.1L1418,924.1
		L1418,924.1z"/>
	<path style="fill:#161616;" d="M947.3,1026.2c-2.2,1-3,3.4-2.2,5.6c2.2,6.1,4.3,12.3,6.5,18.4c1.9,5.4,3.8,10.8,5.5,16.2
		c0.3,0.8,0.9,1.4,1.5,1.9c1,0.8,2.4,1.1,3.7,0.9c1.2-0.2,2.4-0.9,3.1-1.9c0.7-0.9,1.2-2.5,0.9-3.6c-1.6-5.8-4.3-11.1-6.5-16.7
		c-2.5-6.2-4.7-12.4-6.9-18.6c-0.6-1.6-2.3-2.5-3.9-2.5C948.4,1025.8,947.8,1025.9,947.3,1026.2L947.3,1026.2L947.3,1026.2z"/>
	<path style="fill:#161616;" d="M968.9,1024c-1.3,1.5-2.6,3-3.8,4.6c-1.1,1.5-2.2,3-3.3,4.5c-2,2.7-3.9,5.5-5.9,8.2
		c-2.4,3.2-4.8,6.4-7.3,9.6c-2.5,3.2-4.9,6.4-7,9.8c-0.5,0.8-0.8,1.6-0.6,2.6c0.1,0.9,0.6,1.7,1.4,2.2c1.4,1.1,3.9,0.9,4.9-0.7
		c2.1-3.3,4.4-6.5,6.7-9.6c2.4-3.3,4.8-6.6,7.1-9.8c2-2.8,4-5.6,5.9-8.5c1.1-1.5,2.1-3,3.2-4.5c0.5-0.7,1-1.3,1.6-2
		c0.8-0.9,1.5-1.9,2.3-2.8c1.1-1.3,0.7-3.4-0.6-4.4c-0.6-0.4-1.2-0.6-1.8-0.6C970.6,1022.7,969.6,1023.2,968.9,1024L968.9,1024
		L968.9,1024z"/>
	<path style="fill:#161616;" d="M1012.6,1027.2c-2.8,1.2-3.9,4.5-2.8,7.2c1.6,3.9,3.2,7.8,5,11.7c1.5,3.3,3.3,6.5,5.2,9.6
		c0-0.1-0.1-0.1-0.1-0.2c-0.1-0.2-0.2-0.3-0.3-0.5c0.1,0.2,0.2,0.3,0.3,0.5c0,0,0,0,0,0c0,0,0,0.1,0.1,0.1c0.5,0.8,1,1.7,1.5,2.5
		c0.1,0.1,0.1,0.2,0.2,0.3c0.1,0.1,0.2,0.3,0.3,0.4c1.3,2.2,2.6,4.3,3.8,6.5c1.4,2.5,2.6,5,4,7.5c1.2,2.3,3.5,3.8,6.2,3.4
		c1.5-0.2,2.8-1.1,3.7-2.3c0.9-1.1,1.4-2.9,1.1-4.4c-0.4-1.6-0.9-3.1-1.4-4.6c-0.4-1-1-1.9-1.5-2.8c-1.2-2.1-2.6-4.2-4-6.2
		c-2.2-3.3-4.4-6.5-6.4-9.8c-1.3-2.5-2.6-4.9-3.8-7.5c-1.4-2.9-2.5-5.9-3.7-8.9c-0.8-2.1-2.9-3.3-5.1-3.3
		C1014,1026.7,1013.3,1026.9,1012.6,1027.2L1012.6,1027.2L1012.6,1027.2z M1019.9,1055.6c0.1,0.2,0.3,0.4,0.4,0.7
		C1020.1,1056.1,1020,1055.8,1019.9,1055.6L1019.9,1055.6L1019.9,1055.6z M1021,1057.5c0.1,0.2,0.2,0.3,0.3,0.5c0,0,0-0.1,0-0.1
		C1021.2,1057.8,1021.1,1057.7,1021,1057.5L1021,1057.5L1021,1057.5z M1021.8,1058.8C1021.8,1058.8,1021.8,1058.8,1021.8,1058.8
		C1021.8,1058.8,1021.8,1058.8,1021.8,1058.8C1021.8,1058.8,1021.8,1058.8,1021.8,1058.8L1021.8,1058.8L1021.8,1058.8z
		 M1019.8,1055.5c-0.1-0.2-0.2-0.3-0.3-0.5C1019.6,1055.2,1019.7,1055.4,1019.8,1055.5L1019.8,1055.5L1019.8,1055.5z M1019.5,1055
		c-0.1-0.2-0.2-0.3-0.3-0.5C1019.3,1054.7,1019.4,1054.9,1019.5,1055L1019.5,1055L1019.5,1055z"/>
	<path style="fill:#161616;" d="M1042.5,1026.9c-3.6,3.4-7.1,6.8-10.6,10.3c-3.3,3.4-6.4,6.8-9.6,10.3c-2.8,3-5.6,6-8.1,9.3
		c-3.1,4.1-6,8.3-8.8,12.6c-1.2,1.9-1.1,4.4,0.9,5.9c1.8,1.3,4.6,1.1,5.9-0.8c1.2-1.8,2.5-3.6,3.7-5.4c1-1.4,2-2.9,3.1-4.4
		c1.1-1.4,2.1-3,3.3-4.3c1.1-1.3,2.2-2.5,3.2-3.8c4.6-5.2,9.1-10.5,13.9-15.6c2.7-2.7,5.4-5.3,8.1-7.8c0.8-0.8,1.4-1.6,1.5-2.7
		c0.1-1-0.2-2.1-0.8-2.9c-0.7-0.9-2-1.5-3.3-1.5C1044,1026,1043.1,1026.2,1042.5,1026.9L1042.5,1026.9L1042.5,1026.9z"/>
	<path style="fill:#161616;" d="M1115.8,1027.9c-2.8,0.5-4.9,3.2-4.4,6.1c0.8,4.6,1.5,9.3,2.3,13.9c0.4,2.7,0.9,5.4,1.6,8
		c0.9,3.5,1.9,7,3.1,10.5c1,3,1.9,6,3,8.9c1.1,3,4.9,4.2,7.7,3c1.4-0.6,2.5-1.8,3.1-3.2c0.6-1.6,0.4-3-0.1-4.6
		c-0.7-2.4-1.7-4.7-2.7-7c-1-2.3-1.9-4.5-2.7-6.8c0,0.1,0,0.1,0.1,0.2c-0.9-3-1.7-6.1-2.2-9.2c-0.9-5.1-1.8-10.3-2.6-15.4
		c-0.4-2.6-2.7-4.5-5.3-4.5C1116.4,1027.8,1116.1,1027.8,1115.8,1027.9L1115.8,1027.9L1115.8,1027.9z"/>
	<path style="fill:#161616;" d="M1139.8,1027.9c-6.5,5.8-13.1,11.6-19.3,17.8c-3.1,3.1-6.1,6.3-9.1,9.5c-3,3.3-5.9,6.7-8.8,10.1
		c-1.4,1.7-0.8,4.4,0.8,5.6c1.8,1.4,4.2,0.8,5.6-0.8c3-3.6,6-7.1,9.1-10.6c2.6-3,5.3-5.9,8-8.8c2.7-2.7,5.4-5.3,8.2-7.9
		c3.3-3.1,6.7-6.1,10-9.1c1.5-1.3,1.9-3.5,0.6-5.2c-0.7-0.9-1.8-1.4-3-1.4C1141.2,1027.1,1140.4,1027.4,1139.8,1027.9L1139.8,1027.9
		L1139.8,1027.9z M1126.8,1050.1c-0.1,0.1-0.1,0.1-0.2,0.2C1126.6,1050.2,1126.7,1050.2,1126.8,1050.1L1126.8,1050.1L1126.8,1050.1z
		"/>
	<path style="fill:#161616;" d="M1198.5,1025.7c-1.2,0.2-2.2,0.8-3,1.8c-0.8,1-0.9,2.2-0.9,3.4c0.3,3.9,0.5,7.9,1.1,11.8
		c0.3,1.9,0.6,3.8,1,5.8c0.4,2.1,1.1,4.1,1.7,6.1c2.2,7.1,5.3,13.8,7.5,20.8c0.4,0.8,0.9,1.5,1.7,2.1c1.1,0.8,2.6,1.2,4,1
		c2.7-0.4,5.1-3.2,4.4-6.1c-0.6-2.5-1.4-5-2.3-7.5c-0.7-1.7-1.6-3.4-2.4-5.1c-1.8-3.6-3.3-7.2-4.7-11c-0.3-1.1-0.6-2.2-0.9-3.3
		c-0.4-1.7-0.6-3.5-0.9-5.2c-0.6-3.6-0.8-7.2-1-10.8c-0.2-2.3-2.5-3.9-4.6-3.9C1198.9,1025.6,1198.7,1025.7,1198.5,1025.7
		L1198.5,1025.7L1198.5,1025.7z"/>
	<path style="fill:#161616;" d="M1221.1,1031.4c-3.5,2.8-6.6,5.9-9.6,9.2c-2.7,3-5.2,6.2-7.7,9.4c-2.5,3.2-4.8,6.4-7.2,9.7
		c-1.2,1.6-2.3,3.3-3.3,5c-1.3,2.2-2.5,4.5-3.7,6.8c-0.4,0.7-0.3,1.8,0,2.5c0.3,0.8,1,1.4,1.8,1.7c0.8,0.3,1.7,0.3,2.5,0
		c0.8-0.4,1.3-1,1.7-1.7c0.8-1.6,1.7-3.3,2.6-4.9c0.6-1.1,1.2-2.1,1.9-3.1c0.9-1.4,1.9-2.8,2.8-4.2c1.7-2.5,3.4-5.1,5.2-7.6
		c1.9-2.7,3.8-5.3,5.8-7.8c1.8-2.3,3.8-4.3,5.8-6.4c1.6-1.4,3.1-2.9,4.8-4.2c1.1-0.9,1.3-2.6,0.4-3.8c-0.5-0.7-1.3-1-2.1-1
		C1222.2,1030.8,1221.6,1031,1221.1,1031.4L1221.1,1031.4L1221.1,1031.4z"/>
	<path style="fill:#161616;" d="M1290.5,1030.9c-3,0.5-5.4,3.5-4.8,6.5c1.4,7,2.8,14.1,4.5,21.1c1.4,5.8,2.7,11.6,4.2,17.4
		c0.4,1.6,1,3,2.4,4c1.3,1,3.1,1.4,4.7,1.2c3.3-0.5,5.8-3.8,5.2-7.1c-1.1-5.5-3-10.9-4.7-16.3c-2-7.3-3.5-14.7-5.1-22.1
		c-0.6-2.8-2.8-4.8-5.6-4.8C1291.1,1030.8,1290.8,1030.8,1290.5,1030.9L1290.5,1030.9L1290.5,1030.9z"/>
	<path style="fill:#161616;" d="M1310.7,1031.3c-2.9,4.1-5.9,8.2-8.8,12.2c-2.3,3.1-4.5,6.3-7,9.3c-2.5,3-5.2,5.8-7.8,8.6
		c-1.3,1.4-2.6,2.8-3.9,4.3c-1.5,1.9-2.9,3.8-4.3,5.8c-2,3-1.6,7.1,1.3,9.3c2.9,2.2,7.1,1.5,9.3-1.4c2.6-3.4,5.5-6.7,8.4-9.9
		c2.7-2.8,5.2-5.7,7.7-8.7c2.4-3,4.6-6.2,6.9-9.3c3-4.1,5.9-8.2,8.8-12.3c2.1-3,1.6-7.1-1.4-9.3c-1.2-0.9-2.6-1.3-4-1.3
		C1314,1028.6,1311.9,1029.5,1310.7,1031.3L1310.7,1031.3L1310.7,1031.3z"/>
	<path style="fill:#161616;" d="M1371.3,1035.3c-1.9,0.3-3.6,1.3-4.7,2.8c-1.1,1.4-1.9,3.7-1.4,5.5c2.2,7.9,4.5,15.9,6.7,23.8
		c1.8,6.7,3.9,13.4,5.1,20.2c0.6,3.7,4.1,6.3,7.8,5.7c1.8-0.3,3.4-1.2,4.4-2.7c1.2-1.6,1.4-3.3,1.3-5.2c-0.5-6.8-2.5-13.5-4.2-20.1
		c-2-8-4.5-16-6.7-24c-0.5-1.9-1.2-3.5-2.8-4.7c-1.3-0.9-2.8-1.5-4.4-1.5C1372,1035.2,1371.7,1035.2,1371.3,1035.3L1371.3,1035.3
		L1371.3,1035.3z"/>
	<path style="fill:#161616;" d="M1390.1,1036.8c-1.3,0.2-2.8,1-3.5,2.1c-3.6,5.8-7.2,11.7-10.8,17.5c-2.3,3.8-4.7,7.5-6.9,11.4
		c0.2-0.4,0.5-0.8,0.7-1.2c-1.2,2.1-2.3,4.2-3.5,6.3c0.2-0.4,0.4-0.8,0.7-1.2c-1.3,2.3-2.5,4.8-3.5,7.2c-0.9,2-0.1,4.4,1.6,5.7
		c1,0.8,2.4,1.1,3.7,0.9c1.1-0.2,2.5-0.9,3.1-1.9c3.5-6.2,7.4-12.2,11.2-18.2c4.2-6.7,8.3-13.4,12.5-20.1c0.8-1.3,1.2-2.5,1-4.1
		c-0.2-1.4-1-2.6-2.1-3.5c-0.9-0.7-2.1-1.1-3.2-1.1C1390.6,1036.8,1390.3,1036.8,1390.1,1036.8L1390.1,1036.8L1390.1,1036.8z"/>
	<path style="fill:#161616;" d="M1455.8,1037.8c-3.4,0.5-6.1,4-5.4,7.5c1.6,7.5,3.1,14.9,4.7,22.3c1.4,6.7,3,13.4,4.4,20.1
		c0.7,3.4,3.8,5.9,7.4,5.4c1.6-0.3,3.2-1.2,4.2-2.5c1.1-1.5,1.4-3.1,1.2-4.9c-0.3-3.2-0.9-6.3-1.6-9.4c-0.8-3.4-1.5-6.8-2.3-10.1
		c-1.8-7.6-3.4-15.3-5-22.9c-0.7-3.1-3.2-5.5-6.4-5.5C1456.5,1037.7,1456.2,1037.7,1455.8,1037.8L1455.8,1037.8L1455.8,1037.8z"/>
	<path style="fill:#161616;" d="M1480.4,1037.1c-3.1,3.2-6.2,6.4-9.1,9.8c-2.6,3.2-5.1,6.5-7.5,9.8c-2.2,3.1-4.5,6.2-6.7,9.3
		c-3.9,5.3-7.9,10.5-12.1,15.6c-1.5,1.8-0.9,4.7,0.9,6.1c1.8,1.4,4.7,1.1,6.1-0.9c3.6-5.3,6.9-10.8,10.4-16.1
		c2.2-3.2,4.3-6.4,6.5-9.6c1.8-2.7,3.8-5.4,5.8-8c2.7-3.5,5.7-6.8,8.8-10c-0.2,0.2-0.4,0.4-0.6,0.6c0.5-0.5,1-1,1.5-1.5
		c0.6-0.6,1.1-1.2,1.2-2.1c0.1-0.8-0.2-1.7-0.7-2.3c-0.5-0.7-1.3-1.1-2.1-1.2c-0.1,0-0.2,0-0.3,0
		C1481.7,1036.4,1480.9,1036.6,1480.4,1037.1L1480.4,1037.1L1480.4,1037.1z"/>
	<path style="fill:#161616;" d="M1680.1,1193.7c-1,0.1-2,0.2-3,0.3c-2.2,0.3-4.4,0.7-6.7,1c-4.4,0.6-8.8,1.3-13.2,1.6
		c-9,0.8-18.1,0.9-27.1,1c-27.7,0.2-55.3-1.7-82.8-3.9c-4.2-0.3-8.1,2.4-8.6,6.7c-0.5,4,2.5,8.2,6.7,8.6c16.5,1.3,33,2.6,49.5,3.3
		c16.1,0.7,32.2,0.7,48.3,0.3c7.2-0.2,14.3-0.4,21.5-1.3c3.4-0.4,6.8-0.9,10.3-1.5c1.7-0.3,3.4-0.5,5.1-0.8c0.7-0.1,1.5-0.2,2.2-0.2
		c1.9-0.2,3.7-1.1,5.2-2.3c1.4-1.1,2.4-2.8,2.6-4.7c0.3-2.2-0.7-5.2-2.7-6.4c-0.9-0.5-1.7-1.1-2.6-1.4c-1.1-0.4-2.2-0.6-3.3-0.6
		C1681.1,1193.6,1680.6,1193.6,1680.1,1193.7L1680.1,1193.7L1680.1,1193.7z M1629.2,1197.6c-0.2,0-0.4,0-0.6,0
		C1628.8,1197.6,1629,1197.6,1629.2,1197.6L1629.2,1197.6L1629.2,1197.6z"/>
	<path style="fill:#161616;" d="M833.1,1160.1c-2.4,0-4.6,0.3-7,0.7c-2.4,0.5-4.7,1.1-7.1,1.6c-2.1,0.5-4.2,1-6.3,1.1
		c-1.6,0.1-3.1,0.2-4.7,0.2c-14.7,0.1-29.4,0.2-44,0.4c0,0-0.1,0-0.1,0c0,0,0,0,0,0c0,0,0,0-0.1,0c-0.5,0-1.1,0-1.6,0
		c-6.5,0.1-13.1,0.2-19.6,0.3c0.7,0,1.4,0,2.1,0c-3.9,0-7.9,0.1-11.8,0.2c-1.9,0-3.9,1.6-5,3c-1.2,1.6-1.8,3.8-1.5,5.8
		c0.3,2,1.4,3.8,3,5c0.6,0.3,1.1,0.7,1.7,1c1.3,0.5,2.7,0.7,4.1,0.5c2.6,0,5.1-0.1,7.7-0.1c0,0-0.1,0-0.1,0c0.2,0,0.3,0,0.5,0
		c0.5,0,1.1,0,1.6,0c-0.1,0-0.2,0-0.3,0c5.9-0.1,11.8-0.2,17.8-0.3c-0.1,0-0.2,0-0.2,0c0.6,0,1.3,0,1.9,0c0,0,0,0,0,0c0,0,0,0,0,0
		c0,0,0,0,0,0c3.6-0.1,7.2-0.1,10.8-0.2c-0.1,0-0.1,0-0.2,0c0.1,0,0.2,0,0.3,0c0.6,0,1.1,0,1.7,0c-0.3,0-0.6,0-0.9,0
		c9.8-0.1,19.5-0.1,29.2-0.2c3,0,5.9,0,8.9-0.2c2.2-0.1,4.3-0.5,6.5-1c2.5-0.6,5.1-1.2,7.6-1.7c3-0.6,6-1.5,8.9-2.5
		c3-1,4.6-4.6,4.2-7.5c-0.3-1.8-1.2-3.5-2.7-4.6c-1.5-1.2-3.1-1.4-4.9-1.4C833.4,1160.1,833.3,1160.1,833.1,1160.1L833.1,1160.1
		L833.1,1160.1z M764,1164.1c-0.1,0-0.3,0-0.4,0C763.7,1164.1,763.8,1164.1,764,1164.1C763.9,1164.1,764,1164.1,764,1164.1
		L764,1164.1L764,1164.1z M763.9,1164.1c-0.5,0-1,0-1.4,0C762.9,1164.1,763.4,1164.1,763.9,1164.1L763.9,1164.1L763.9,1164.1z
		 M763.3,1164.1c-0.4,0-0.9,0-1.3,0c0.1,0,0.3,0,0.4,0C762.7,1164.1,763,1164.1,763.3,1164.1L763.3,1164.1L763.3,1164.1z
		 M743.3,1179.7c-0.1,0-0.3,0-0.4,0c0.6,0,1.1,0,1.7,0C744.2,1179.7,743.7,1179.7,743.3,1179.7L743.3,1179.7L743.3,1179.7z
		 M764,1179.4C764,1179.4,764,1179.4,764,1179.4c0.1,0,0.1,0,0.2,0C764.2,1179.4,764.1,1179.4,764,1179.4L764,1179.4L764,1179.4z
		 M775,1179.2c-0.1,0-0.1,0-0.2,0c0.3,0,0.7,0,1,0C775.6,1179.2,775.3,1179.2,775,1179.2L775,1179.2L775,1179.2z"/>
	<path style="fill:#161616;" d="M297.9,1165.5c-1.6,1.2-2.6,3.1-2.9,5.1c-0.2,2,0.3,4.1,1.6,5.7c1.2,1.5,3.2,2.8,5.1,2.9
		c17.7,0.5,35.3,1,53,1.9c17,0.8,34,1.7,51,2.7c12.3,0.7,24.5,1.5,36.8,2.3c6,0.4,12,0.8,18,1.1c2.8,0.2,5.7,0.3,8.5,0.4
		c3.4,0.2,7,0.6,10.4-0.3c1.2-0.2,2.3-0.7,3.3-1.4c1.5-1.2,2.4-2.9,2.6-4.7c0.2-1.3,0-2.5-0.5-3.7c-0.7-1.5-2.2-3.3-3.8-3.7
		c-2.3-0.6-4.5-1.1-6.9-1.3c-1.8-0.1-3.7-0.2-5.5-0.3c-3.9-0.2-7.9-0.4-11.8-0.6c-8-0.4-16-1-24.1-1.5c-16.1-1-32.2-1.9-48.2-2.8
		c-26.9-1.5-53.8-2.6-80.8-3.3c-0.2,0-0.3,0-0.5,0C301.2,1163.9,299.5,1164.3,297.9,1165.5L297.9,1165.5L297.9,1165.5z"/>
</g>
</svg>
