<?xml version="1.0" encoding="utf-8"?>
<!-- Generator: Adobe Illustrator 22.1.0, SVG Export Plug-In . SVG Version: 6.00 Build 0)  -->
<svg version="1.1" id="Layer_1" xmlns="http://www.w3.org/2000/svg" xmlns:xlink="http://www.w3.org/1999/xlink" x="0px" y="0px"
	 viewBox="0 0 2000 2000" style="enable-background:new 0 0 2000 2000;" xml:space="preserve">
<g>
	<path style="fill:#161616;" d="M1591.6,162.1c-0.8,0.7-1.3,1.7-1.4,2.7c-0.1,1.1,0.2,2.1,0.9,2.9c0.6,0.8,1.7,1.4,2.7,1.4
		c1.1,0,2-0.2,2.9-0.9c0.8-0.7,1.3-1.7,1.4-2.7c0.1-1.1-0.2-2.1-0.9-2.9c-0.6-0.8-1.7-1.4-2.7-1.4
		C1593.4,161.2,1592.5,161.3,1591.6,162.1L1591.6,162.1L1591.6,162.1z"/>
	<path style="fill:#161616;" d="M1598.1,153.4c-0.8,0.7-1.3,1.7-1.4,2.7c-0.1,1,0.2,2.1,0.9,2.9c0.6,0.8,1.7,1.4,2.7,1.4
		c1.1,0,2-0.2,2.9-0.9c0.8-0.7,1.3-1.7,1.4-2.7c0.1-1.1-0.2-2.1-0.9-2.9c-0.6-0.8-1.7-1.4-2.7-1.4
		C1599.9,152.5,1599,152.7,1598.1,153.4L1598.1,153.4L1598.1,153.4z"/>
	<path style="fill:#161616;" d="M1000.6,33.4c-40,0-81,2.6-122,7.6C764.8,55,654.3,89.8,550.2,144.5c-47.9,25.1-95,55.5-140.1,90.1
		C366.7,268,325.2,306.1,286.8,348c-37.6,41-72.1,86.1-102.7,133.9c-29.9,46.8-56.3,97.8-78.5,151.5c-45,109-69.2,226-71.8,347.7
		c-1.3,59.3,3.2,120.1,13.3,180.7c4.7,28.2,11.1,57.7,19.1,87.7c7.1,26.6,15.7,53.9,26.5,83.4c39.2,107.4,97.7,207.1,174.2,296.4
		c71.8,84,157.6,154.8,254.9,210.6c48.3,27.7,100.2,51.5,154.3,70.9c53,19,109.8,33.5,169,43.3c50.7,8.3,102.7,12.6,154.7,12.6
		c68,0,136.3-7.2,203-21.3c52.1-11,105.1-27.3,157.4-48.2c47.7-19.1,95.1-42.8,140.9-70.6c43.5-26.4,85.9-57,126.1-91.2
		c38.7-32.9,76.1-70.5,111.2-111.8c35.4-41.7,68-87.6,96.6-136.5c28.3-48.3,52.8-100.3,72.7-154.6c2.4-6.6,4.7-13.1,6.9-19.7
		c0.8-2.3,1.6-4.7,2.4-7c17.7-52.6,30.9-108.8,39.5-167c8.8-60.3,11.8-122.9,8.9-186c-2.8-59.9-11.5-120.5-25.8-180.2
		c-13.5-56.3-32.9-112.8-57.7-168.2c-23.5-52.6-52.8-104.3-87-153.9c-32.5-47-69.8-91.7-110.8-133c-39.5-39.7-83.6-76.8-131.1-110.1
		c-45.5-32-95.5-60.7-148.7-85.4c-51.5-23.9-106.6-43.5-163.7-58.2c-57-14.7-117-24.2-178.3-28.3
		C1041.9,34.1,1021.2,33.4,1000.6,33.4L1000.6,33.4L1000.6,33.4z M677.9,105.4L677.9,105.4l0.6-0.2c-1.6,0.6-3.2,1.2-4.9,1.7
		c1.3-0.5,2.6-1,3.9-1.4l0,0l0,0C677.8,105.4,677.9,105.4,677.9,105.4L677.9,105.4L677.9,105.4z M925.4,180.7
		c22.1-1.7,44.6-2.6,66.8-2.6c0,0,0,0,0,0c14.6,0,29.4,0.4,44.1,1.1c35.7,1.8,72.5,6.1,109.4,12.9c35.7,6.8,71.3,16,105.8,27.3
		c33.7,11,67.7,24.8,101.2,41l-1.8-1c31.7,15.5,62.7,33,92.2,52.2c29.2,19,58.1,40.7,86.1,64.6c0,0,0,0,0,0l0.5,0.4l-0.5-0.5
		c0,0,0,0,0,0c0,0,0,0,0,0c0,0,0,0,0,0.1l-0.9-0.9c26.9,23.3,52.6,48.3,76.4,74.6c23.2,25.6,45.6,53.8,66.4,83.7
		c20.1,29.3,38.6,60,54.9,91.3c15.9,30.6,30.3,63.5,42.8,97.7l0.2,0.4l0.2,0.4c0,0,0,0,0,0c0,0,0,0.1,0,0.1l0-0.1l0,0
		c0,0,0-0.2,0-0.2c0,0,0-0.1,0-0.2l0.2,0.8c11.8,33.2,21.8,67.7,29.4,102.3c7.6,34.4,13,70.6,16.2,107.7l0,0.5c0,0,0,0,0,0
		c0,0,0,0,0,0l0-0.1l0,0c0,0,0-0.2,0-0.2c0,0,0,0,0-0.1c0,0.5,0,1,0.1,1.5l0-0.5c2.8,36.5,3.3,73.7,1.4,110.5
		c-1.8,35.9-6.2,72.8-13,109.6c-6.8,35.9-16.1,71.7-27.4,106.3c-11,33.4-24.7,67.3-40.8,100.7c-15.7,32.1-33.6,63.4-53.1,93.2
		c-18.9,28.8-40.5,57.4-64.2,85c-22.9,26.4-47.5,51.5-73.3,74.8c-7.2,6.5-14.6,12.9-22,19.1c-18.3,15.3-37.8,30.2-58.2,44.4
		c-29.2,20.2-60.1,38.8-91.6,55.2c-31.7,16.5-65.2,31.2-99.5,43.7c-33.1,11.9-67.3,21.8-101.6,29.5c-35,7.8-71.9,13.4-109.5,16.6
		l-0.7,0.1c-22.4,1.8-45.1,2.7-67.6,2.7c-13.7,0-27.7-0.3-41.5-1c-36.6-1.8-74.4-6.2-112.1-13.1c-36.1-6.9-72.1-16.2-106.9-27.7
		c-33.7-11.1-67.9-25-101.6-41.4l0.8,0.4c-30.9-15.3-61.3-32.5-90.2-51.4c-29-18.9-57.8-40.5-85.6-64.3
		c-26.4-22.8-51.6-47.4-75-73.1c-23.2-25.5-45.4-53.5-66.1-83.2c-20-29-38.4-59.6-54.7-90.8c-16.6-31.8-31.5-65.9-44.3-101.3
		l0.4,1.3c-12-33.8-22-68.7-29.7-103.7c-7.5-34.1-12.8-70-16-106.9l0-0.5c0,0,0-0.3-0.1-0.3l0,0l0,0c0,0-0.1-0.3-0.1-0.3l0,0
		c-2.7-36.4-3.2-73.5-1.4-110.4c1.8-36.1,6.3-73.4,13.2-110.7c7.1-36.9,16.7-73.6,28.6-109c10.6-31.7,23.8-64.1,39.2-96.1
		c15.5-31.8,33.3-63,52.8-92.7c18.8-28.8,40.4-57.4,64-85l-0.7,0.7l-0.7,0.8c22.9-26.5,47.7-51.9,73.7-75.5
		c25.4-23.1,53.4-45.4,83.3-66.3l0.5-0.4l-0.5,0.3c0,0,0.3-0.2,0.3-0.2c0,0,0,0,0,0c0,0,0,0,0,0c0,0,0.4-0.2,0.4-0.2l0.3-0.2
		c28.7-19.8,58.6-37.8,89.1-53.7c31.2-16.3,64.7-31,99.6-43.8c33.3-11.9,67.6-21.9,102-29.5c34.9-7.8,71.8-13.4,109.8-16.6l-0.5,0
		l0.6,0v0l0.4,0L925.4,180.7L925.4,180.7L925.4,180.7L925.4,180.7z M218,1540.1l-0.1-0.1l-0.1-0.3c0.5,0.7,0.9,1.4,1.4,2.1
		c-0.3-0.4-0.6-0.8-0.9-1.3c0,0,0,0,0,0l0,0c-0.1-0.1-0.1-0.1-0.2-0.2L218,1540.1L218,1540.1C218,1540.1,218,1540.1,218,1540.1
		L218,1540.1L218,1540.1L218,1540.1z M822.8,1934l-0.2,0l-0.3-0.1c1.3,0.3,2.7,0.5,4,0.8c-1-0.2-2-0.4-3-0.6c0,0,0,0,0,0v0
		c-0.1,0-0.2,0-0.3-0.1l0,0l0,0C822.9,1934,822.8,1934,822.8,1934L822.8,1934L822.8,1934L822.8,1934z"/>
	<path style="fill:#161616;" d="M1499.9,845.4c-15.1,1.1-30,3.8-44.6,7.9c-13.6,3.9-26.8,9.1-39.4,15.4c-1.1,0.6-2.3,1.2-3.4,1.8
		c-9.7,5.1-19,10.9-27.9,17.4c-10.8,7.9-20.9,16.6-30.1,26.3c-9.3,9.6-17.6,20.1-25,31.2c-7.3,10.9-13.6,22.5-18.9,34.6
		c-5.7,13.1-10.2,26.6-13.3,40.5c-3.2,14.3-5,28.9-5.4,43.5c-0.5,14.9,0.8,29.9,3.3,44.7c2.3,14.1,6.2,27.9,11.3,41.2
		c5,13.1,11.2,25.8,18.5,37.8c7.3,11.9,15.7,23,25,33.4c9.3,10.4,19.7,19.7,30.8,28.2c21.7,16.8,46.8,29.3,73.1,37
		c13.9,4.1,28.3,6.7,42.8,8c13.6,1.3,27.4,1.3,41.1,0c12.4-1.2,24.8-3.3,36.9-6.5c11.8-3.1,23.3-7.3,34.5-12.3
		c21.6-9.6,41.5-22.8,59.1-38.6c38.5-34.6,64.3-82.8,71.6-134.1c2.2-15.3,2.9-30.7,2-46.1c-0.9-14.9-3.2-29.7-7-44.1
		c-3.8-14.4-9.1-28.4-15.7-41.8c-6.3-13-14-25.3-22.8-36.8c-9.1-11.9-19.3-23-30.6-32.9c-11.5-10.1-24.1-19.1-37.4-26.7
		c-12.7-7.3-26.2-13.2-40.1-17.9c-14.3-4.8-29-7.9-43.9-9.8c-9-1.2-18.1-1.7-27.2-1.7C1511.4,844.7,1505.7,844.9,1499.9,845.4
		L1499.9,845.4L1499.9,845.4z M1488.8,1277.6c-18.3-2.6-36.2-7.5-53.2-14.5c-16.4-7-32-16-46.3-26.9c-14.2-11.1-27.1-23.9-38.2-38
		c-11.1-14.5-20.3-30.3-27.4-46.9c-7-16.9-11.9-34.8-14.6-53.2c-2.4-18.7-2.4-37.6,0-56.1c2.6-18.4,7.5-36.3,14.6-53.3
		c7.1-16.6,16.3-32.3,27.4-46.8c11-14,23.6-26.6,37.7-37.7c11.3-8.6,23.5-16.2,36.2-22.4c3.8-1.9,7.3-3.5,10.4-4.8
		c17.1-7.1,35.1-12,53.5-14.6c9.4-1.2,18.8-1.8,28.1-1.8c9.2,0,18.5,0.6,27.6,1.7c18.2,2.5,36,7.4,53,14.4c16.6,7,32.4,16.2,47,27.3
		l0.5,0.4c14.1,11.1,26.8,23.9,37.8,37.9c10.7,14.1,19.7,29.5,26.7,45.7c7.2,17.2,12.2,35.4,14.9,54.1c2.3,18.5,2.3,37.2,0,55.7
		c-2.6,18.3-7.4,36.2-14.4,53.1c-7,16.5-16.2,32.2-27.1,46.7c-11.3,14.5-24.3,27.5-38.6,38.6c-14.1,10.7-29.5,19.7-45.7,26.7
		c-17.2,7.2-35.3,12.2-53.9,14.8c-9.3,1.2-18.7,1.8-27.9,1.8C1507.5,1279.3,1498.1,1278.7,1488.8,1277.6L1488.8,1277.6
		L1488.8,1277.6z"/>
	<path style="fill:#161616;" d="M1377.3,1170.2l-0.4,0.6c-0.5,0.9-0.8,1.9-1,3c0,0.3,0,0.6,0,0.9c0,1.7,0.7,4.2,2.2,5.4l0.9,0.7
		l-0.9-0.8l3,2.5l1,0.9l0.8,0.6l-0.2-0.5c-1.9-4.1-3.4-8.1-4.4-12.1c-0.2-0.6-0.3-1.2-0.5-1.8L1377.3,1170.2L1377.3,1170.2
		L1377.3,1170.2z"/>
	<path style="fill:#161616;" d="M1442.3,1231.6l4.5,3.6l1.5,1.2c1.2,0.7,2.5,1,3.9,1c1.8,0,4.2-0.7,5.4-2.2l1.9-2.3l0.6-0.7
		c-6.5-0.7-12.5-1.8-18-3.1c-1.4-0.3-2.7-0.7-4.1-1L1442.3,1231.6L1442.3,1231.6L1442.3,1231.6z"/>
	<path style="fill:#161616;" d="M1682.2,1149.4c-0.6,1.9-1.1,3.5-1.9,5.2l3.6-4c1.5-1.6,2.2-3.4,2.2-5.4c0-0.2,0-0.3,0-0.5
		c0,0.1,0,0.1,0,0.2c0-1.3-0.5-2.7-1.2-4.1c-0.1-0.1-0.1-0.2-0.2-0.3C1684,1143.4,1683.2,1146.4,1682.2,1149.4L1682.2,1149.4
		L1682.2,1149.4z"/>
	<path style="fill:#161616;" d="M1634.5,1200c-3.1,2.4-6.6,4.7-10.9,7.3c-3.9,2.3-7.9,4.4-12.1,6c-0.3,0.1-0.6,0.3-0.9,0.4l3.6,3.2
		c1.6,1.5,3.4,2.2,5.4,2.2c2.1,0,4.2-0.9,5.4-2.2l9.5-10.6l7.9-8.8C1639.6,1198.4,1637,1199.3,1634.5,1200L1634.5,1200L1634.5,1200z
		"/>
	<path style="fill:#404040;" d="M1488.8,862.2c-18.4,2.6-36.4,7.5-53.5,14.6c-3.1,1.3-6.6,2.9-10.4,4.8
		c-12.7,6.3-24.9,13.8-36.2,22.4c-14,11-26.7,23.7-37.7,37.7c-11,14.5-20.2,30.2-27.4,46.8c-7.1,17-11.9,34.9-14.6,53.2
		c-2.4,18.6-2.4,37.5,0,56.1c2.7,18.4,7.6,36.3,14.6,53.2c7.1,16.6,16.3,32.4,27.4,46.9c11.1,14.1,23.9,26.9,38.2,38.1
		c14.4,10.9,30,20,46.3,26.9c17,7.1,34.9,11.9,53.2,14.5c9.3,1.2,18.8,1.8,28.1,1.8c9.2,0,18.6-0.6,27.9-1.8
		c18.6-2.6,36.7-7.6,53.9-14.8c16.2-7,31.6-16,45.7-26.7c14.4-11.2,27.4-24.2,38.6-38.6c11-14.5,20.1-30.2,27.1-46.7
		c7-16.9,11.8-34.8,14.4-53.1c2.3-18.5,2.3-37.2,0-55.7c-2.7-18.7-7.7-36.9-14.9-54.1c-7-16.2-16-31.5-26.7-45.7
		c-10.9-14-23.7-26.8-37.8-37.9l-0.5-0.4c-14.6-11.1-30.4-20.3-47-27.3c-17-7-34.9-11.8-53-14.4c-9.1-1.1-18.4-1.7-27.6-1.7
		C1507.7,860.5,1498.2,861.1,1488.8,862.2L1488.8,862.2L1488.8,862.2z M1483.8,1068.9c0-5.5,0.1-11,0-16.6c0-11.8-0.4-23.7-0.7-36.9
		l-0.3-9.5c-0.3-12.1-0.8-24.1-1.2-36.3l0-4l-0.1-3.9v-0.9c-0.1-3.7-0.1-7.5,0.3-11.3c1.1-1.1,1.7-2.5,1.7-4l1.5-0.2l2.4-0.2
		l2.4-0.3c4.4-0.4,9.1-0.7,14.9-1c3.4-0.1,6.8-0.2,10.3-0.2c10,0,17.7,0.7,25,2.1c0,0,0.4,0.1,0.4,0.2c0.5,2.9,0.6,5.9,0.7,8.8h0
		l0,0.4c0.4,11.9,0.6,24.1,0.7,35.8l0,2.5l0.1,4.8c0.2,15.3,0.3,30.4,0.1,45.8l0,2.4c-0.1,4.5-0.1,8.9-0.3,13.4l-0.1,2
		c-0.3,8.1-0.7,16.5-2.4,24.6c-0.4,1.7-0.9,3-1.4,4.2c-1.2,0.2-2.4,0.2-3.7,0.3l-1.4,0.1c-0.9,0-1.9,0.1-3,0.1
		c-5.1,0.1-10.2,0.1-15.3,0.2l-7.7,0.1c-7,0-14.1,0.5-20.9,1l-0.6,0l-1.5,0C1483.6,1084.8,1483.7,1076.6,1483.8,1068.9
		L1483.8,1068.9L1483.8,1068.9z M1682.2,1149.4c1-3,1.8-6,2.5-8.9c0.9,1.5,1.4,3,1.4,4.4c0-0.1,0-0.1,0-0.2c0,0.2,0,0.3,0,0.5
		c0,2-0.7,3.7-2.2,5.4l-3.6,4C1681.1,1152.9,1681.6,1151.3,1682.2,1149.4L1682.2,1149.4L1682.2,1149.4z M1508.8,1208.6
		c-1.4-0.4-2.7-0.8-4-1.3c-1.4-0.5-2.8-1.2-4.1-1.8c-2.8-1.7-5.6-3.6-8.3-5.9c-1.5-1.5-2.7-3.1-3.8-4.7c-1.3-2.5-2.3-5.2-3.1-7.8
		c-0.6-2.1-0.9-4.2-1.2-6.6c0-1.9,0.2-3.8,0.6-5.8c1.3-4.8,3.5-9.3,5.4-13c2-3.5,4.3-6.8,6.8-9.8c1.1-1,2.3-2,3.6-3
		c1.9-1,3.7-1.9,5.6-2.6c1.2-0.3,2.3-0.6,3.5-0.8s2.4-0.7,3.5-1.5c0,0,0.4-0.1,0.4-0.1c1-0.2,1.9-0.4,2.8-0.5l0.5,0.1
		c5.3,1.5,9.6,3.2,13.4,5.1c1.8,1.1,3.5,2.3,5.1,3.7c2.1,2.2,4.1,4.7,5.9,7.4c1.7,2.9,3.1,5.8,4.3,9.1c0.8,2.7,1.3,5.3,1.5,8
		c0,1.9-0.2,3.7-0.6,5.6c-0.8,2.8-1.9,5.6-3.4,8.6c-1.5,2.5-3.4,5-5.7,7.6c-2.9,2.9-5.6,5.2-8.4,7.1c-1.8,1-3.6,1.8-6.1,2.6
		c-2.1,0.6-3.8,0.9-5.4,1.1C1514.8,1209.6,1512,1209.3,1508.8,1208.6L1508.8,1208.6L1508.8,1208.6z M1378.1,1180
		c-1.5-1.2-2.2-3.6-2.2-5.4c0-0.3,0-0.6,0-0.9c0.2-1.1,0.5-2.1,1-3l0.4-0.6l0.5-0.6c1,4.5,2.7,9.2,4.8,13.9l0.3,0.5l-1.8-1.6
		L1378.1,1180l0.9,0.7L1378.1,1180L1378.1,1180L1378.1,1180z M1614.2,1216.8l-3.6-3.2c4.5-1.7,8.8-3.9,13-6.4
		c4.3-2.6,7.8-4.9,10.9-7.3c2.5-0.7,5.1-1.5,8-2.6l-17.5,19.5c-1.2,1.3-3.3,2.2-5.4,2.2C1617.6,1219.1,1615.8,1218.3,1614.2,1216.8
		L1614.2,1216.8L1614.2,1216.8z M1448.3,1236.4l-1.5-1.2l-4.5-3.6l-4.5-3.6c6.6,2,14,3.4,22.2,4.3l-2.5,3c-1.2,1.5-3.6,2.2-5.4,2.2
		C1450.8,1237.4,1449.5,1237.1,1448.3,1236.4L1448.3,1236.4L1448.3,1236.4z"/>
	<path style="fill:#404040;" d="M1651.6,1176c-4.4,0.5-7.3,4.1-9.7,7.4c-0.4,0.5-0.7,0.9-1.1,1.4c-2,1.5-4,2.9-6.1,4.4
		c-3.8,2.7-7.6,5.5-11.6,8c-7.4,4.5-15,8.6-22.9,12.1c-1.8,0.8-3.5,1.5-5.3,2.2c-1.1-0.2-2.3-0.3-3.4-0.5c-1.8-0.3-3.6-0.5-5.4-0.7
		c-2.8-0.3-5.6-0.4-8.4-0.5c-4.1-0.2-7.9,2.6-8.3,6.8c-0.1,1.3,0.1,2.4,0.5,3.5c-12.8,3.7-25.7,6.6-38.9,8.3
		c-0.6-3.6-2.6-6.9-4.9-9.7c-2.8-3.4-6.6-5.5-10.5-7.5c-1.8-1-3.7-1.8-5.6-2.5c-0.4-0.1-0.8-0.1-1.1-0.2c-1.4-0.4-2.7-0.8-4-1.3
		c-0.3-0.1-0.7-0.3-1-0.4c-0.1,0-0.1,0-0.2,0c-4.4-1.1-8.8-2-13.2-2.5c-3.9-0.5-7.8-0.7-11.7-0.8c-5.3-1.3-10.6-2.6-16-3.9
		c-1.9-0.5-3.8-1-5.8-1.4c-2.8-0.7-5.6-1.6-8.5-1.9c-0.9-0.1-1.8-0.2-2.7-0.1c-0.8,0.1-1.8,0.2-2.5,0.6c-0.7,0.4-1.4,0.8-2.1,1.3
		c-0.7,0.5-1.2,1.3-1.8,1.9c-1.1,1.3-1.9,3-2.5,4.6c-0.8,2.1-1,4.4-1.2,6.6c-0.1,1-0.1,2,0,3c-0.6,0.7-1,1.9-1.3,2.8
		c-0.3,1.3-0.5,2.1-0.5,3.3c0,1.2,0.1,2.3,0.3,3.5c0.2,1.1,0.6,2.2,1,3.2c0.4,1,1.1,1.9,1.7,2.8c0.4,0.6,1,1.2,1.5,1.7
		c1.6,1.6,3.4,3,5.3,4.1c3.3,2,6.9,3.7,10.6,5.1c0.5,0.2,1,0.4,1.6,0.6c3,1.5,6.1,2.9,9.2,4.1c4,1.5,7.9,3.1,12,4
		c2.1,0.5,4,0.5,6.2,0.4c2.6-0.1,4.9-1.6,6.6-3.5c0.1-0.1,0.2-0.2,0.3-0.3c1.7,0,3.5,0,5.2-0.1c2.4-0.1,4.7-0.2,7.1-0.3
		c4.6,0.1,9.3,0.1,13.9-0.1c9.1-0.4,18.2-1.6,27.2-3.1c8.8-1.5,17.6-3.5,26.2-6c8.9-2.5,17.8-5.3,26.5-8.6c0.6,0.1,1.2,0.2,1.9,0.3
		c1.3,0.2,2.5,0.4,3.8,0.6c1.9,0.3,4,0.5,5.9,0.2c1.8-0.3,3.6-0.9,5.4-1.4c5.8-1.8,11-5.3,16-8.8c5.5-3.9,10.3-8.6,14.8-13.6
		c2.3-2.5,4.4-5,6.6-7.6c0.4-0.4,0.7-0.9,1.1-1.3c2.8-2.3,5.1-5,7.6-7.7c0.8-1.2,1.3-2.5,1.5-3.9c0.1-1.4-0.1-2.8-0.7-4.1
		c-0.6-1.3-1.4-2.3-2.6-3.1c-1.5-1.1-3.1-1.5-4.8-1.5C1652.5,1176,1652,1176,1651.6,1176L1651.6,1176L1651.6,1176z M1447.2,1203
		c-0.1,0.1-0.3,0.2-0.5,0.3C1446.9,1203.2,1447.1,1203.1,1447.2,1203L1447.2,1203L1447.2,1203z M1444.3,1207.7c0.3-1,0.6-1.9,1-2.8
		c0.3-0.5,0.6-0.9,1-1.3c0,0,0.1-0.1,0.2-0.1c0.1,0,0.2,0,0.3,0c1.7,0,3.3,0.2,5,0.6c0.1,0,0.2,0,0.3,0.1c0.2,0,0.3,0.1,0.5,0.1
		c-0.2,0-0.3-0.1-0.5-0.1c1.2,0.3,2.5,0.6,3.7,0.9c-0.3,0-0.6,0.1-0.9,0.1c-1.1,0.1-2.2,0.6-3.2,1c-1.3,0.5-2.7,1.8-3.5,2.9
		c-0.2,0.2-0.4,0.5-0.6,0.7c-0.9,0-1.9,0-2.7,0.1c-0.2,0-0.5,0.1-0.7,0.1C1444.1,1209.1,1444.2,1208.4,1444.3,1207.7L1444.3,1207.7
		L1444.3,1207.7z M1462.7,1206.5c0.1,0,0.3,0.1,0.4,0.1c0,0,0.1,0,0.1,0C1463,1206.6,1462.8,1206.6,1462.7,1206.5L1462.7,1206.5
		L1462.7,1206.5z M1486.9,1228.3c-1.1-1.1-2.3-2.2-3.5-3.3c-2.7-2.5-6.2-4.3-9.5-6c3.6,0,7.1,0.1,10.7,0.3c4.6,0.3,9.1,1,13.6,2
		c1.9,0.5,3.8,1,5.7,1.7c2.1,0.7,4.2,1.7,6.2,2.7c1.3,0.8,2.6,1.6,3.8,2.6c0.3,0.3,0.5,0.6,0.8,0.9c-1.5,0.4-3,0.7-4.5,0.9
		c-0.3,0-0.6,0-1,0C1501.7,1230.1,1494.2,1229.6,1486.9,1228.3L1486.9,1228.3L1486.9,1228.3z M1509.1,1225.2
		c0.1,0.1,0.3,0.2,0.4,0.3C1509.4,1225.4,1509.3,1225.3,1509.1,1225.2L1509.1,1225.2L1509.1,1225.2z"/>
	<path style="fill:#161616;" d="M1513.8,928c-8,0.1-16,0.4-24,1c-3.7,0.3-7.4,0.7-11,1.1c-1.5,0.2-3,0.3-4.5,0.5
		c-1.5,0.2-2.8,0.5-4.2,1c-3.1,1.1-5.6,4.3-5.5,7.7c-0.1,1,0,1.9,0.3,2.8c0.4,1.3,0.8,2.5,1.3,3.7c0.8,1.8,2.3,3.2,4,3.9
		c-0.2,2.2-0.3,4.4-0.3,6.6c-0.1,2.2-0.1,4.4-0.1,6.6c-0.1,3.5-0.1,6.9,0,10.3c0.1,8.4,0.2,16.7,0.3,25.1c0.2,14.5,0.2,29,0.2,43.6
		c0,11.9-0.3,23.7-0.6,35.6c-0.2,6-0.3,11.9-0.5,17.9c0,1.6-0.3,3.3,0,4.9c0.1,0.9,0.3,1.7,0.7,2.5c0.5,1,1.9,2.9,2.9,3.5
		c0.8,0.4,1.6,0.9,2.3,1.3c1.3,0.5,2.7,0.7,4.1,0.7c2.2,0,4.3-0.1,6.5-0.3c3.3-0.2,6.5-0.4,9.8-0.6c6.7-0.2,13.3-0.3,20-0.3
		c8.4,0,16.7-0.1,25-0.6c2.9-0.2,5.6-1.4,7.8-3.2c2.1-1.7,3.5-4.3,4.6-6.7c1-2.3,1.6-4.9,2.1-7.3c0.6-2.8,1.1-5.6,1.4-8.4
		c0.8-5.8,0.9-11.6,1.2-17.4c0.3-7.7,0.4-15.4,0.5-23c0.2-14.3-0.1-28.7-0.2-43c-0.2-14.4-0.4-28.9-0.9-43.3c0,0,0,0,0,0
		c0-0.3,0-0.5,0-0.8c0,0,0-0.1,0-0.1c0,0,0,0.1,0,0.1c0-0.1,0-0.2,0-0.2c0,0,0,0,0,0c0,0,0,0,0,0c0-0.1,0-0.1,0-0.2c0,0,0-0.1,0-0.1
		c0,0,0,0,0,0c0,0,0,0,0,0c0-0.1,0-0.2,0-0.3c0,0,0,0,0,0c0,0,0,0,0,0c0,0,0-0.1,0-0.1c0,0,0,0,0,0.1c0-0.3,0-0.5,0-0.8
		c0,0.2,0,0.3,0,0.5c0,0.1,0,0.2,0,0.3c0,0.1,0,0.3,0,0.5c-0.1-2.2-0.2-4.4-0.3-6.6c-0.3-3.6-0.9-7.7-3.3-10.5
		c-1.8-2.1-3.8-3.5-6.4-4.6c-0.8-0.4-1.8-0.5-2.7-0.7c-1.1-0.3-2.3-0.6-3.4-0.8c-1.9-0.3-3.8-0.6-5.7-0.9c-3.8-0.5-7.6-0.6-11.3-0.8
		c-2.6-0.1-5.3-0.2-7.9-0.2C1515,928,1514.4,928,1513.8,928L1513.8,928L1513.8,928z M1483.8,1068.9c0-5.5,0.1-11,0-16.6
		c0-11.8-0.4-23.7-0.7-36.9l-0.3-9.5c-0.3-12.1-0.8-24.1-1.2-36.3l0-4l-0.1-3.9v-0.9c-0.1-3.7-0.1-7.5,0.3-11.3
		c1.1-1.1,1.7-2.5,1.7-4l1.5-0.2l2.4-0.2l2.4-0.3c4.4-0.4,9.1-0.7,14.9-1c3.4-0.1,6.8-0.2,10.3-0.2c10,0,17.7,0.7,25,2.1
		c0,0,0.4,0.1,0.4,0.2c0.5,2.9,0.6,5.9,0.7,8.8h0l0,0.4c0.4,11.9,0.6,24.1,0.7,35.8l0,2.5l0.1,4.8c0.2,15.3,0.3,30.4,0.1,45.8l0,2.4
		c-0.1,4.5-0.1,8.9-0.3,13.4l-0.1,2c-0.3,8.1-0.7,16.5-2.4,24.6c-0.4,1.7-0.9,3-1.4,4.2c-1.2,0.2-2.4,0.2-3.7,0.3l-1.4,0.1
		c-0.9,0-1.9,0.1-3,0.1c-5.1,0.1-10.2,0.1-15.3,0.2l-7.7,0.1c-7,0-14.1,0.5-20.9,1l-0.6,0l-1.4,0c0,0,0,0,0,0v0l-0.1,0
		C1483.6,1084.8,1483.7,1076.6,1483.8,1068.9L1483.8,1068.9L1483.8,1068.9z"/>
	<path style="fill:#161616;" d="M829.9,939.8c-0.7,0.6-1.1,1.4-1.2,2.2c-0.1,0.9,0.2,1.7,0.7,2.4c0.5,0.6,1.4,1.2,2.2,1.2
		c0.9,0,1.7-0.1,2.4-0.7c0.7-0.6,1.1-1.4,1.2-2.2c0.1-0.9-0.2-1.7-0.7-2.4c-0.5-0.6-1.4-1.2-2.2-1.2
		C831.4,939.1,830.6,939.2,829.9,939.8L829.9,939.8L829.9,939.8z"/>
	<path style="fill:#161616;" d="M835.3,932.6c-0.7,0.6-1.1,1.4-1.2,2.2c-0.1,0.9,0.2,1.7,0.7,2.4c0.5,0.6,1.4,1.2,2.2,1.2
		c0.9,0,1.7-0.1,2.4-0.7c0.7-0.6,1.1-1.4,1.2-2.2c0.1-0.9-0.2-1.7-0.7-2.4c-0.5-0.6-1.4-1.2-2.2-1.2
		C836.8,931.9,836,932,835.3,932.6L835.3,932.6L835.3,932.6z"/>
	<path style="fill:#161616;" d="M1515,1128.2c-1.3,0.1-2.6,0.5-3.8,0.9c-0.8,0.2-1.5,0.5-2.2,0.8c-0.6,0-1.2,0-1.8,0.1
		c-5.6,1-10.8,3-15.5,6.1c-5.2,3.4-9.1,8.3-12.5,13.4c-1.7,2.5-3,5.2-4.4,7.8c-1.1,2.2-2.2,4.5-3.1,6.8c-2.4,5.8-3.5,12.1-3,18.4
		c0.2,2.5,0.6,4.9,1.2,7.3c0.4,1.5,1,3.1,1.4,4.6c1,3.2,2.3,6.3,4.1,9.1c3.8,6,9.4,11,15.5,14.5c3.8,2.2,7.6,4,11.9,5.2
		c4.3,1.2,8.6,2,13,2.1c6.2,0.1,12.3-1.5,18-4c4-1.8,7.6-4.6,10.9-7.5c4.4-3.8,8.5-8.4,11.5-13.4c4.6-7.7,7.5-16.7,6.8-25.7
		c-0.7-9.7-4.6-18.8-10.2-26.7c-2.3-3.3-5.1-6.2-8.1-8.9c-3.5-3.2-8-5.4-12.2-7.3c-2.8-1.3-5.8-2.2-8.8-3c-1.7-0.5-3.5-0.9-5.2-1.1
		C1517.3,1128.1,1516.1,1128.2,1515,1128.2L1515,1128.2L1515,1128.2z M1508.8,1208.6c-1.4-0.4-2.7-0.8-4-1.3
		c-1.4-0.5-2.8-1.2-4.1-1.8c-2.8-1.7-5.6-3.6-8.3-5.9c-1.5-1.5-2.7-3.1-3.8-4.7c-1.3-2.5-2.3-5.2-3.1-7.8c-0.6-2.1-0.9-4.2-1.2-6.6
		c0-1.9,0.2-3.8,0.6-5.8c1.3-4.8,3.5-9.3,5.4-13c2-3.5,4.3-6.8,6.8-9.8c1.1-1,2.3-2,3.6-3c1.9-1,3.7-1.9,5.6-2.6
		c1.2-0.3,2.3-0.6,3.5-0.8s2.4-0.7,3.5-1.5c0,0,0.4-0.1,0.4-0.1c1-0.2,1.9-0.4,2.8-0.5l0.5,0.1c5.3,1.5,9.6,3.2,13.4,5.1
		c1.8,1.1,3.5,2.3,5.1,3.7c2.1,2.2,4.1,4.7,5.9,7.4c1.7,2.9,3.1,5.8,4.3,9.1c0.8,2.7,1.3,5.3,1.5,8c0,1.9-0.2,3.7-0.6,5.6
		c-0.8,2.8-1.9,5.6-3.4,8.6c-1.5,2.5-3.4,5-5.7,7.6c-2.9,2.9-5.6,5.2-8.4,7.1c-1.8,1-3.6,1.8-6.1,2.6c-2.1,0.6-3.8,0.9-5.4,1.1
		C1514.8,1209.6,1512,1209.3,1508.8,1208.6L1508.8,1208.6L1508.8,1208.6z M1517.7,1143.9c0.2,0,0.3,0.1,0.5,0.1
		C1518,1144,1517.9,1143.9,1517.7,1143.9L1517.7,1143.9L1517.7,1143.9z M1487.7,1193.5c0.1,0.2,0.2,0.3,0.3,0.5
		C1487.9,1193.8,1487.8,1193.6,1487.7,1193.5L1487.7,1193.5L1487.7,1193.5z"/>
	<path style="fill:#F8F8F5;" d="M1516.5,1143.7C1516.5,1143.7,1516.5,1143.7,1516.5,1143.7c-0.9,0.1-1.8,0.3-2.8,0.5
		c0,0-0.4,0.1-0.4,0.1c-1.1,0.8-2.2,1.3-3.5,1.6c-1.2,0.2-2.3,0.5-3.5,0.8c-1.9,0.7-3.7,1.5-5.6,2.6c-1.4,1-2.5,1.9-3.6,3
		c-2.6,3-4.9,6.3-6.9,9.8c-1.9,3.7-4.1,8.2-5.4,13c-0.4,2-0.5,3.9-0.6,5.7c0.2,2.3,0.6,4.5,1.2,6.5c0.8,2.5,1.7,5.2,3.1,7.8
		c1.1,1.6,2.4,3.2,3.8,4.7c2.7,2.3,5.5,4.3,8.3,5.9c1.3,0.7,2.7,1.3,4.1,1.8c1.3,0.5,2.7,0.9,4.1,1.3c3.2,0.7,6,1,8.7,1
		c1.6-0.2,3.3-0.5,5.4-1.1c2.5-0.8,4.4-1.6,6.1-2.6c2.8-1.9,5.6-4.3,8.4-7.2c2.3-2.6,4.2-5.1,5.7-7.6c1.5-3,2.6-5.8,3.4-8.7
		c0.4-1.9,0.5-3.7,0.6-5.6c-0.3-2.7-0.8-5.3-1.5-8c-1.1-3.3-2.5-6.3-4.3-9.1c-1.8-2.7-3.7-5.1-5.9-7.4c-1.6-1.4-3.3-2.6-5.1-3.7
		c-3.8-1.9-8.1-3.5-13.4-5.1L1516.5,1143.7C1516.5,1143.7,1516.5,1143.7,1516.5,1143.7L1516.5,1143.7L1516.5,1143.7z"/>
	<path style="fill:#F8F8F5;" d="M1514.9,943.8c-3.4,0-6.9,0.1-10.3,0.2c-5.7,0.3-10.5,0.6-14.9,1l-2.4,0.2l-2.4,0.2l-1.5,0.2
		c0,1.5-0.6,2.9-1.7,4c-0.5,3.8-0.4,7.6-0.3,11.3v0.9l0.1,3.9l0,4c0.5,12.2,0.9,24.3,1.2,36.3l0.3,9.5c0.4,13.2,0.7,25.1,0.7,36.9
		c0,5.5,0,11,0,16.6c-0.1,7.7-0.1,15.9,0,23.9l1.5,0l0.6,0c6.8-0.5,13.9-1,20.9-1l7.7-0.1c5.1,0,10.2-0.1,15.3-0.2
		c1.1,0,2.1-0.1,3-0.1l1.4-0.1c1.2-0.1,2.5-0.1,3.7-0.3c0.5-1.2,1-2.6,1.4-4.2c1.7-8.1,2-16.5,2.4-24.6l0.1-2
		c0.2-4.5,0.2-8.9,0.3-13.4l0-2.4c0.2-15.4,0.1-30.4-0.1-45.8l-0.1-4.8l0-2.5c-0.2-11.7-0.3-23.9-0.7-35.8l0-0.4l0,0
		c-0.1-2.9-0.2-6-0.7-8.8c0,0-0.4-0.2-0.4-0.2C1532.6,944.5,1524.9,943.8,1514.9,943.8L1514.9,943.8L1514.9,943.8z"/>
	<path style="fill:#161616;" d="M1380.7,1116.1c-0.1,2.1,1.5,4.3,3.7,4.3c2.2,0,4.1-1.4,4.3-3.7c0.1-2.1-1.5-4.3-3.7-4.3
		C1382.8,1112.4,1380.9,1113.8,1380.7,1116.1L1380.7,1116.1L1380.7,1116.1z"/>
	<path style="fill:#161616;" d="M444,634.7c-1.4,1.3-2.8,3.5-2.7,5.5c1.4,27.3,2.8,54.6,4.3,81.9c1.1,22,1.9,44.1,2.9,66.1
		c0.9,20.7,1.4,41.5,2.1,62.2c0.7,20.9,1.5,41.7,2.3,62.6c0.3,8.6,0.8,17.3,1.3,26c0.7,12.2,1.1,24.5,2,36.7c0-0.5-0.1-0.9-0.1-1.4
		c1.4,21.2,2.9,42.3,4.3,63.5c0-0.7-0.1-1.4-0.1-2.1c0.7,11,1.8,22,2.8,33c0.7,8.7,1.3,17.4,2.3,26.2c1.4,13.1,2.8,26.3,4.1,39.4
		c1.1,10.2,2.4,20.4,3.7,30.6c4.8,39.7,11.2,79.2,18.4,118.5c2.3,12.3,4.5,24.6,6.8,37c2,10.8,4.2,21.5,6.3,32.3
		c1.9,9.8,4.1,19.6,6.2,29.4c2.2,10.2,4.7,20.2,7.1,30.4c2.5,10.4,5.3,20.7,8.1,31.1c2.6,9.8,5.8,19.4,8.8,29
		c1.5,4.9,3.3,9.8,5,14.7c1.5,4.4,3,8.9,4.6,13.2c2.1,5.5,4.2,10.9,6.3,16.4c2.5,6.6,5.7,13.1,8.9,19.4c3.4,6.7,7.2,13.2,11.3,19.6
		c4.3,6.6,8.9,12.9,14.3,18.6c5.5,5.9,12,11,19,15.1c6.5,3.8,13.5,7,20.7,9.3c6.9,2.2,14.1,3.4,21.3,2.8c0.2,0.2,0.5,0.4,0.7,0.6
		c1.6,1.1,3.1,1.3,4.9,1.3c-0.1,0-0.3,0-0.4,0c3.8-0.2,7.6,0.2,11.4,0.3c4.8,0.1,9.6,0.1,14.5,0.1c9.7,0,19.5-0.2,29.2-0.6
		c10.7-0.4,21.3-1.1,31.9-1.8c10.6-0.7,21.2-1.2,31.8-1.8c20.8-1.3,41.6-3.5,62.3-5.6c21.1-2.2,42.1-4.5,63.2-6.6
		c41.6-4.2,83.2-8.4,124.8-12.7c40.4-4.2,80.7-10.3,120.9-16.6c41.6-6.6,83.2-13,124.7-20.3c11.1-1.9,22.2-3.8,33.3-6.1
		c7.9-1.6,15.8-3.3,23.6-5.5c6.7-1.9,13.3-4.3,19.4-7.4c6.4-3.2,12.2-7.8,15.7-14.1c2.3-4.1,3.3-8.6,4.2-13.2
		c0.7-3.1,1.3-6.3,1.8-9.4c0.8-4.7,1.4-9.5,1.7-14.3c0.2-3.8,0.4-7.5,0.4-11.3c0-3.6-0.3-7.2-0.6-10.8c-0.4-3.7-1.1-7.4-2.4-10.8
		c-1.2-3.2-2.8-6.3-5.5-8.4c-1.3-1-2.7-1.7-4.2-2.4c-0.4-0.1-0.7-0.2-1.1-0.3c-1.1-0.3-2.1-0.5-3.2-0.6c-1.4-0.2-2.9,0.1-4.3,0.2
		c-1.9,0.1-3.8,0.3-5.6,0.4c-19.5,1.7-38.9,4.3-58.3,6.9c-21.6,2.9-43.1,5.9-64.6,8.9c-42.1,6-84,13.1-125.9,20.3
		c-42,7.1-84,14.4-125.9,21.9c-18.6,3.3-37.2,6.7-55.9,9.9c-21.8,3.7-43.7,7.3-65.6,10.8c-21.3,3.4-42.7,6.7-64,9.9
		c-19.3,3-38.5,6.1-57.9,8.7c-10.9,1.5-21.8,3.1-32.8,4.5c-4.8,0.6-9.7,1.5-13.8,4.2c-1.5,1-2.7,2-4,3.2c-1.5,1.4-2.5,2.9-3.3,4.7
		c-0.8,1.6-1.4,3.3-1.6,5.1c-0.1,1-0.1,2.1-0.2,3.1c-0.5,5.4-1.1,10.8-2.1,16.1c-0.9,4-2.1,7.8-3.7,11.6c-1.2,2.1-2.5,4.1-4,6
		c-1.3,1.4-2.7,2.6-4.2,3.7c-1.3,0.8-2.6,1.5-3.9,2c-1,0.2-1.9,0.4-2.9,0.5c-3.1,0.1-6.1-0.2-9.2-0.8c-6.2-1.4-12-3.6-17.7-6.4
		c-2.9-1.5-5.7-3.1-8.4-4.8c-2.8-1.8-5.3-3.8-7.8-5.9c-5.9-5.5-11-11.7-15.6-18.4c-4.3-6.6-8.2-13.4-11.8-20.3
		c-3.3-6.4-6.5-13.1-9-19.8c-2.4-6.2-4.8-12.5-7.1-18.7c-2.9-8.5-5.9-16.9-8.5-25.4c-2-6.6-4-13.2-6-19.8c-1.3-4.1-2.3-8.3-3.4-12.4
		c-1.3-4.7-2.6-9.3-3.8-14c-1.5-6-2.9-12-4.4-18c-2.5-10.1-4.7-20.2-6.9-30.3c-9.1-42.1-16.6-84.6-24.1-127.1
		c-1.8-10.3-3.3-20.6-4.9-30.9c-1.6-9.8-2.9-19.7-4.3-29.6c-2.7-19.1-5.1-38.3-7.1-57.5c-1.5-14.1-3.1-28.2-4.3-42.4
		c-0.8-10-1.7-19.9-2.5-29.9c-0.5-6.2-1.1-12.5-1.6-18.7c0,0.7,0.1,1.4,0.1,2.1c-1.4-20.7-2.8-41.5-4.2-62.2
		c-1-19.3-2.3-38.7-3-58.1c-0.8-20.6-1.6-41.2-2.3-61.8c-0.7-21-1.2-42.1-2.1-63.1c-1-22.5-1.8-45-2.9-67.4
		c-1.4-27.6-2.9-55.2-4.3-82.8c-0.1-2.2-0.4-4-2-5.8c-1.4-1.6-3.4-2.6-5.5-2.7c-0.2,0-0.3,0-0.5,0
		C447.4,632.7,445.5,633.5,444,634.7L444,634.7L444,634.7z M471.8,972.5c0,0.6,0.1,1.2,0.1,1.8c0-0.2,0-0.5-0.1-0.7
		C471.9,973.2,471.9,972.8,471.8,972.5L471.8,972.5L471.8,972.5z M1347,1438.8c0.1,0,0.2,0,0.4,0.1
		C1347.3,1438.9,1347.2,1438.9,1347,1438.8L1347,1438.8L1347,1438.8z M1347.6,1439.2c0.3,0.5,0.5,1.1,0.7,1.6
		c0.9,3.4,1.4,6.9,1.7,10.5c0.2,4,0.2,7.9,0,11.8c-0.2,2.4-0.2,4.8-0.5,7.1c-0.3,2.6-0.6,5.3-1,7.9c-0.3,2.3-0.7,4.5-1.1,6.7
		c-0.8,3.9-1.6,7.8-3.1,11.5c-0.5,0.9-1.1,1.8-1.8,2.6c-1.3,1.3-2.7,2.4-4.1,3.5c-4.2,2.5-8.6,4.4-13.1,6.1
		c-8.4,2.8-16.9,4.8-25.6,6.5c-4.7,1-9.4,2-14.1,2.9c-10.2,1.8-20.4,3.6-30.6,5.3c-20.6,3.5-41.2,6.9-61.8,10.2
		c-20.8,3.3-41.6,6.7-62.4,9.9c-20.9,3.2-41.8,6.6-62.8,9.3c-10.8,1.4-21.7,2.8-32.5,4.1c-11.2,1.3-22.4,2.5-33.5,3.7
		c-20.2,2.1-40.3,4.1-60.5,6.2c-21.8,2.2-43.7,4.4-65.5,6.6c-19.6,2-39.1,4.2-58.7,6.2c-15.4,1.5-30.7,2.9-46.1,4.1
		c-9.5,0.6-19.1,1-28.7,1.6c-10.3,0.6-20.7,1.4-31,1.8c-10.3,0.4-20.6,0.7-30.9,0.8c-3.8,0-7.7,0-11.5,0c4.9-6.3,7.6-13.8,9.3-21.5
		c0.8-3.8,1.6-7.8,2-11.7c0.4-3.3,0.6-6.6,0.9-9.9c0,0,0-0.1,0-0.1c0.1-0.1,0.2-0.2,0.2-0.3c0.3-0.3,0.6-0.6,0.9-0.8
		c0.6-0.3,1.1-0.6,1.7-0.8c5-1.4,10.4-1.7,15.5-2.4c7.1-1,14.1-2,21.2-2.9c10.5-1.5,20.9-3.1,31.4-4.6c19.6-2.9,39.2-6,58.8-9
		c40.6-6.3,81.2-12.7,121.6-19.9c41.6-7.4,83.1-14.9,124.7-22c43.4-7.4,86.7-14.7,130.1-21.6c19.5-3.1,39-5.8,58.5-8.5
		c20.7-2.9,41.5-5.7,62.2-8.3c12.1-1.5,24.2-3,36.3-3.9C1345.7,1439.2,1346.6,1439.1,1347.6,1439.2L1347.6,1439.2L1347.6,1439.2z
		 M1348.3,1439.2c0.4,0.1,0.7,0.3,1,0.5C1349,1439.5,1348.7,1439.4,1348.3,1439.2L1348.3,1439.2L1348.3,1439.2z M558.1,1491.7
		c0.1,0.2,0.1,0.4,0.2,0.6C558.2,1492.2,558.2,1491.9,558.1,1491.7L558.1,1491.7L558.1,1491.7z M682.2,1542.8
		c-0.2,0.3-0.4,0.7-0.5,1c0,0,0,0,0,0C681.8,1543.4,682,1543.1,682.2,1542.8L682.2,1542.8L682.2,1542.8z M681.6,1543.8
		C681.6,1543.8,681.6,1543.8,681.6,1543.8C681.6,1543.8,681.6,1543.8,681.6,1543.8C681.6,1543.8,681.6,1543.8,681.6,1543.8
		L681.6,1543.8L681.6,1543.8z"/>
	<path style="fill:#161616;" d="M1176.2,550.9c-5,0.1-10.1,0-15.1,0.2c-5.6,0.2-11.2,0.4-16.8,0.6c-8.3,0.3-16.6,0.7-25,1
		c-38,1.5-76,3.2-114,4.5c-39.3,1.4-78.5,3.1-117.8,4.8c-14.6,0.6-29.1,1.3-43.7,2c-15.2,0.7-30.5,1.8-45.7,2.8
		c0.7,0,1.4-0.1,2.1-0.1c-19.8,1.3-39.6,3-59.4,4.5c-18.2,1.4-36.5,2.9-54.7,4.3c-25.1,1.9-50.2,3.8-75.4,5.5
		c-0.7,0-1.5,0.1-2.2,0.1c-0.6,0-1.1,0.1-1.7,0.1c-0.6,0-1.2,0-1.8,0.1c0.4,0,0.8-0.1,1.2-0.1c-0.1,0-0.1,0-0.2,0
		c-0.3,0-0.7,0-1,0.1c0,0,0,0,0,0c-0.4,0-0.8,0.1-1.2,0.1c-0.4,0-0.8,0-1.1,0.1c0.2,0,0.3,0,0.5,0c-1.8,0.1-3.5,0.2-5.3,0.4
		c-0.6,0-1.2,0-1.8,0.1c-0.3,0-0.7,0-1,0.1c0.1,0,0.3,0,0.4,0c-0.1,0-0.2,0-0.3,0c-0.6,0-1.2,0.1-1.9,0.1c-0.8,0-1.5,0.1-2.3,0.2
		c-0.9,0.1-1.9,0.1-2.8,0.2c-0.2,0-0.3,0-0.5,0c-0.1,0-0.2,0-0.3,0c-0.3,0-0.5,0-0.8,0.1c0.2,0,0.4,0,0.6,0
		c-22.7,1.4-45.4,2.4-68,3.9c-0.6,0-1.3,0.1-1.9,0.1c-0.6,0-1.1,0-1.7,0.1c-0.6,0-1.1,0-1.7,0.2c-0.6,0-1.1,0.1-1.7,0.1
		c-2.2,0.2-4.3,0.3-6.5,0.6c-8.1,1-16,3.5-23.9,5.6c-8.1,2.3-16.5,4.3-24,8.2c-3.9,2-7.2,5.2-9.3,9c-2,3.5-3.4,7.2-4.3,11.1
		c-1.1,4.5-1.8,9.1-2.4,13.8c-0.4,3.4,2,6.7,5.1,7.7c3.8,1.3,8.6-0.7,9.7-4.7c1-3.5,1.8-7.1,2.5-10.7c0.2-1.2,0.5-2.3,0.8-3.4
		c0.4-1.7,1.2-3.3,1.9-4.9c0.4-0.7,0.8-1.4,1.3-2.1c0.4-0.4,0.9-0.8,1.3-1.1c2.4-1.4,5-2.4,7.6-3.3c5.5-1.8,11.1-3.2,16.6-4.8
		c6.1-1.7,12.4-3.6,18.7-4.4c2.6-0.3,5.1-0.6,7.6-0.8c1.1,0.1,2.3,0,3.4-0.2c0.5,0,1-0.1,1.4-0.1c22.6-1.4,45.2-2.4,67.8-3.9
		c0.7-0.1,1.5-0.1,2.2-0.1c0.6,0,1.3-0.1,1.9-0.1c0.6,0,1.2,0,1.9-0.1c0.6,0,1.2-0.1,1.8-0.1c0.1,0,0.2,0,0.3,0c0,0,0.1,0,0.1,0
		c0.1,0,0.1,0,0.2,0c0,0-0.1,0-0.1,0c1,0,1.9-0.1,2.9-0.2c0.3,0,0.6,0,1-0.1c1.4-0.1,2.7-0.2,4.1-0.3c0.7-0.1,1.4-0.1,2.2-0.1
		c0,0,0,0,0.1,0c-0.5,0-0.9,0.1-1.4,0.1c1.1-0.1,2.1-0.1,3.1-0.2c1.5-0.1,2.9-0.2,4.4-0.3c-0.7,0-1.4,0.1-2.1,0.1
		c37.4-2.5,74.8-5.4,112.2-8.3c26.4-2,52.8-4.2,79.2-6.1c-0.7,0-1.4,0.1-2.1,0.1c10.4-0.7,20.8-1.4,31.2-2.1
		c-0.7,0.1-1.4,0.1-2.1,0.2c9.6-0.6,19.3-0.9,29-1.4c9.7-0.5,19.4-0.9,29.1-1.3c18.1-0.9,36.2-1.7,54.3-2.4
		c39.8-1.5,79.6-3,119.5-4.6c19.2-0.8,38.3-1.5,57.5-2.3c8.3-0.3,16.5-0.7,24.8-1c5.8-0.2,11.5-0.4,17.3-0.7
		c4.9-0.2,9.8-0.1,14.6-0.2c7.8-0.1,15.7,0.2,23.4,1.5c0.8,0.2,1.5,0.4,2.3,0.7c0.9,4.5,1.2,9.3,1.6,13.9c0.5,5.5,0.9,11.1,1.3,16.6
		c2,37.2,2.4,74.5,2.8,111.8c0.2,18.8,0.3,37.7,0.3,56.5c0.1,21.2,0.3,42.4,0.5,63.6c0.2,17.7,0.8,35.5,1.4,53.2
		c0.3,8.8,0.5,17.7,1,26.5c0.6,11.5,1.1,23,1.7,34.5c0,0.4,0,0.8,0.1,1.2c0,0.4,0.1,0.8,0.1,1.3c0-0.4-0.1-0.8-0.1-1.2
		c0,0.5,0.1,0.9,0.1,1.4c1.3,19.1,2.5,38.2,4.1,57.3c0.7,8.4,1.3,16.8,2.2,25.2c1.2,11.2,2.4,22.3,3.5,33.5c0.4,3.5,1,7.1,1.5,10.6
		c0.9,6.8,1.9,13.5,2.8,20.2c1.2,8.4,2.8,16.7,4.3,25.1c1,5.5,2,11,3,16.4c0.5,2.9,1.3,5.8,2,8.7c2.1,9.3,4,18.6,6.4,27.7
		c2.8,10.7,5.5,21.4,8.3,32.2c2.5,9.8,5.4,19.6,8,29.3c5,18.2,10.2,36.4,15.3,54.5c5.2,18.4,10.4,36.9,15.5,55.3
		c5,17.9,9.4,35.9,14.5,53.8c3,10.6,6.4,21.2,10.6,31.5c1.6,4,7.1,5.4,10.7,3.6c1.9-0.9,3.3-2.6,4-4.5c0.8-2.2,0.4-4.2-0.4-6.2
		c-1.4-3.5-2.7-7.1-4-10.6c-2.7-8.5-5.4-16.9-7.7-25.6c-2.4-9.2-4.9-18.5-7.3-27.7c-5.2-19.4-10.6-38.7-16.1-58
		c-5.1-18.1-10.2-36.2-15.3-54.3c-4.8-17.2-9.7-34.5-14.1-51.8c-2.4-9.2-5-18.4-7.1-27.7c-2.4-10.7-4.9-21.4-7.3-32.1
		c-0.8-3.4-1.3-6.8-1.9-10.2c-1.2-6.6-2.5-13.2-3.7-19.8c-1.5-8.4-2.6-16.9-3.8-25.4c-0.9-6.8-2-13.5-2.7-20.3
		c-1.1-10.4-2.2-20.9-3.3-31.3c-0.6-6.1-1.1-12.3-1.6-18.5c-0.7-8.4-1.5-16.8-2.1-25.3c-0.8-12.2-1.6-24.5-2.4-36.7
		c-0.9-19.1-1.9-38.1-2.5-57.2c-0.6-18.7-1.3-37.4-1.5-56.1c-0.3-20.7-0.5-41.3-0.5-62c-0.1-18.6-0.1-37.2-0.3-55.8
		c-0.4-38.1-0.7-76.2-2.8-114.2c-0.5-9.4-1.2-18.8-2.2-28.1c-0.2-2.1-0.5-4.2-0.8-6.3c-0.1-0.9-0.3-1.9-0.5-2.8
		c-0.2-1.1-0.6-2.4-1-3.3c-0.4-1-1-1.9-1.6-2.7c-0.8-0.8-1.6-1.6-2.5-2.3c-2.6-1.6-5.3-2.6-8.3-3.2c-3.2-0.7-6.4-1.2-9.6-1.5
		c-4.6-0.5-9.3-0.7-14-0.7C1177.6,550.9,1176.9,550.9,1176.2,550.9L1176.2,550.9L1176.2,550.9z M595.1,582.1c-0.5,0-1,0.1-1.4,0.1
		C594.1,582.1,594.6,582.1,595.1,582.1L595.1,582.1L595.1,582.1z M606.8,597.2c0,0-0.1,0-0.1,0C606.7,597.2,606.7,597.2,606.8,597.2
		C606.8,597.2,606.8,597.2,606.8,597.2L606.8,597.2L606.8,597.2z M597.7,597.8c-0.3,0-0.7,0-1,0.1
		C597,597.9,597.3,597.8,597.7,597.8L597.7,597.8L597.7,597.8z M1229,984.2c0,0.6,0.1,1.2,0.1,1.8
		C1229.1,985.4,1229.1,984.8,1229,984.2L1229,984.2L1229,984.2z M1210.7,947C1210.7,947,1210.7,946.9,1210.7,947c0-0.2,0-0.4,0-0.6
		C1210.7,946.6,1210.7,946.8,1210.7,947L1210.7,947L1210.7,947z M589.9,598.3c-0.4,0-0.8,0.1-1.2,0.1c-0.3,0-0.6,0-1,0.1
		c0,0-0.1,0-0.1,0c0.2,0,0.5,0,0.7,0c-0.1,0-0.1,0-0.2,0c0.1,0,0.3,0,0.4,0c0.3,0,0.6,0,0.9-0.1c0.3,0,0.6,0,0.9-0.1
		C590.1,598.3,590,598.3,589.9,598.3L589.9,598.3L589.9,598.3z M593.9,598.1c0.4,0,0.9-0.1,1.3-0.1C594.8,598,594.3,598,593.9,598.1
		L593.9,598.1L593.9,598.1z M595.9,597.9c-0.2,0-0.3,0-0.5,0c-0.1,0-0.2,0-0.3,0C595.4,598,595.7,597.9,595.9,597.9
		C595.9,597.9,595.9,597.9,595.9,597.9L595.9,597.9L595.9,597.9z M603.9,597.4c-0.2,0-0.5,0-0.7,0.1c0.7,0,1.4-0.1,2.1-0.1
		C604.8,597.3,604.3,597.4,603.9,597.4L603.9,597.4L603.9,597.4z M587.3,582.6c0.1,0,0.1,0,0.2,0c0.3,0,0.5,0,0.8-0.1
		c0.2,0,0.4,0,0.5,0C588.4,582.5,587.8,582.6,587.3,582.6L587.3,582.6L587.3,582.6z M604.3,581.5c0.2,0,0.5,0,0.7,0
		C604.8,581.4,604.6,581.4,604.3,581.5L604.3,581.5L604.3,581.5z M605,581.4c0.1,0,0.1,0,0.2,0h0C605.2,581.4,605.1,581.4,605,581.4
		L605,581.4L605,581.4z"/>
	<path style="fill:#161616;" d="M857.3,504.5c-1.9,0.1-3.8,0.2-5.7,0.3c-8.1,0.5-16.3,0.9-24.4,1.4c-8,0.4-16,0.8-23.9,1.5
		c-9.5,0.8-19,1.4-28.4,2.9c-3.8,0.6-7.5,1.3-11.2,2.4c-3.8,1.1-7.3,2.5-10.2,5.2c-4.5,4.2-4.3,11.1-4.9,16.8
		c-1.2,11.8-2.2,23.7-2.9,35.6c-0.3,3.7,2.6,7,6.3,7.3c3.7,0.3,7-2.6,7.3-6.3c0.5-7.3,1.1-14.5,1.7-21.8c0.3-3.3,0.6-6.7,0.9-10
		c0.3-3.6,0.6-7.2,1.1-10.7c0.1-0.3,0.2-0.5,0.2-0.8c0,0,0,0,0.1,0c0.6-0.3,1.2-0.6,1.9-0.8c9.2-2.7,18.9-3.6,28.4-4.3
		c4.4-0.3,8.7-0.7,13-1c8.8-0.5,17.6-0.9,26.3-1.3c3.8-0.2,7.6-0.4,11.5-0.6c2.3-0.1,4.7-0.2,7-0.4c3-0.2,6-0.5,9-0.4
		c0.1,0.2,0.1,0.3,0.2,0.5c1,3.7,1.3,7.6,1.6,11.4c0.2,2.3,0.3,4.6,0.5,6.9c0-0.7-0.1-1.3-0.1-2c0.2,3.2,0.4,6.5,0.6,9.7
		c0.1,1.7,0.2,3.4,0.2,5.1c0.1,2.6,0.3,5.1,0.7,7.6c0.4,3.1,3.5,5.5,6.6,5.7c3.2,0.2,6.2-1.8,7.3-4.8c0.6-1.8,1.1-3.6,1-5.5
		c0-0.9-0.1-1.7-0.1-2.6c-0.2-2.4-0.3-4.7-0.5-7.1c-0.3-3.9-0.6-7.7-0.9-11.6c-0.2-2.7-0.4-5.3-0.7-8c-0.2-2.5-0.6-5-1.3-7.4
		c-0.4-1.3-0.9-2.6-1.3-3.8c-0.6-1.6-1.5-2.9-2.5-4.3c-0.7-1.1-2-1.9-3-2.7c-0.3-0.2-0.6-0.3-0.9-0.5c-0.8-0.6-1.7-0.9-2.7-1.1
		c-1.4-0.3-2.8-0.4-4.2-0.4C859.7,504.4,858.5,504.4,857.3,504.5L857.3,504.5L857.3,504.5z M859.5,518.2c0.2,0.1,0.4,0.2,0.6,0.3
		C859.9,518.4,859.7,518.3,859.5,518.2L859.5,518.2L859.5,518.2z M861,519.2C861.1,519.2,861.1,519.2,861,519.2
		c0.1,0.1,0.1,0.1,0.2,0.2C861.2,519.3,861.1,519.2,861,519.2L861,519.2L861,519.2z M807.6,521.8c-0.2,0-0.4,0-0.6,0
		C807.2,521.8,807.4,521.8,807.6,521.8L807.6,521.8L807.6,521.8z M806.4,521.9c-0.3,0-0.5,0-0.8,0
		C805.9,521.9,806.2,521.9,806.4,521.9L806.4,521.9L806.4,521.9z M764.5,527.2c-0.3,0.2-0.6,0.4-0.9,0.6
		C763.9,527.6,764.2,527.4,764.5,527.2L764.5,527.2L764.5,527.2z"/>
	<path style="fill:#161616;" d="M572.9,791.6c-2.5,0.4-5,1.4-7.3,2.5c-2.4,1.2-4.6,2.9-6.7,4.6c-0.8,0.6-1.3,1.4-1.7,2.3
		c-1-2.5-3.3-4.3-6.2-4.5c-3.9-0.3-7.6,2.8-7.8,6.8c-0.2,4.9-0.3,9.8-0.2,14.8c0,4-0.1,8.1,0.2,12.1c0.3,4,0.5,7.9,0.8,11.9
		c0.5,8,1.1,16.1,4.1,23.7c1.9,4.7,5.2,8.9,8.3,12.9c3.6,4.6,7.5,9,12.8,11.5c4.9,2.3,10.8,1.9,15.7-0.2c5.1-2.3,9.1-6.1,12.8-10.2
		c1.7-1.9,3-4.2,4.3-6.4c1.4-2.4,2.6-5,3.8-7.5c2.5-5.5,3.9-11.2,4.9-17.1c1.8-10.7,1.5-21.9-1.5-32.3c-0.8-2.6-1.7-5.2-2.8-7.8
		c-1-2.3-2.5-4.5-4-6.5c-1.5-2.1-3.7-3.8-5.6-5.4c-2.3-1.9-5.1-3.2-7.8-4.2c-2.3-0.9-5-1.2-7.4-1.4c-0.6,0-1.2-0.1-1.8-0.1
		C577.3,791,575,791.2,572.9,791.6L572.9,791.6L572.9,791.6z M582.1,806.1c0.9,0.3,1.8,0.6,2.7,1c1.1,0.7,2.2,1.4,3.2,2.2
		c1,0.9,1.8,1.9,2.6,3c0.9,1.5,1.6,3.1,2.3,4.8c1.4,4.4,2.4,8.8,2.9,13.3c0.3,6.3-0.2,12.5-1.4,18.7c-1.1,4.7-2.8,9.3-4.9,13.7
		c-1.5,2.8-3.1,5.5-5.1,8c-1.3,1.4-2.8,2.6-4.3,3.8c-0.8,0.4-1.5,0.8-2.3,1.2c-0.5,0.1-1,0.2-1.5,0.3c-0.4,0-0.7,0-1.1-0.1
		c0,0-0.1,0-0.1,0c-1.1-0.6-2.1-1.3-3-2.1c-2.9-2.9-5.6-6.3-8-9.6c-1.2-1.9-2.3-3.9-3.2-6.1c-1.7-5.9-2.2-12-2.6-18.1
		c-0.3-4.2-0.6-8.3-0.9-12.5c0,0.7,0.1,1.3,0.1,2c-0.1-7.5-0.2-15,0-22.6c1.7,2.6,5.4,3.8,8.3,2.3c1.6-0.9,3.3-1.7,5-2.4
		c1.8-0.5,3.6-0.9,5.4-1.1C578.3,805.7,580.2,805.8,582.1,806.1L582.1,806.1L582.1,806.1z M574.1,875.4c0.1,0,0.2,0.1,0.3,0.1
		C574.3,875.5,574.2,875.5,574.1,875.4L574.1,875.4L574.1,875.4z M543.1,830.5c0-0.1,0-0.2,0-0.4c0-0.2,0-0.5,0-0.7
		C543,829.8,543,830.1,543.1,830.5L543.1,830.5L543.1,830.5z M543,829.4c0-0.3,0-0.6-0.1-0.9C543,828.8,543,829.1,543,829.4
		L543,829.4L543,829.4z"/>
	<path style="fill:#161616;" d="M614,830.5c-6.7,0.3-13.5,0.9-20.2,1.4c0.2,0,0.5,0,0.7,0c-4.1,0.3-8.2,0.6-12.3,0.9
		c0,0,0.1,0,0.1,0c-9.1,0.6-18.3,1.4-27.4,2.1c-1.1,0.1-2.3,1-2.9,1.9c-0.7,1-1,2.3-0.7,3.5c0.2,1.2,0.9,2.2,1.9,2.9
		c1.1,0.8,2.2,0.8,3.5,0.7c9-0.7,18-1.3,27-2c8.4-0.5,16.8-1,25.3-1.5c-0.4,0-0.9,0.1-1.3,0.1c2.3-0.2,4.6-0.3,7-0.5
		c0.8-0.2,1.5-0.5,2.2-1.1c1-0.8,1.5-2,1.6-3.3c0.1-1.3-0.3-2.5-1.2-3.5c-0.7-0.8-2-1.6-3.1-1.6C614.1,830.5,614.1,830.5,614,830.5
		L614,830.5L614,830.5z"/>
	<path style="fill:#161616;" d="M997.8,815.7c-6.3,0.9-12.6,1.3-18.9,2c-6.6,0.7-13.1,1.5-19.6,2.5c-13,2-26.3,2.8-39.4,3.8
		c0.7,0,1.4-0.1,2.1-0.1c-3.8,0.3-7.7,0.5-11.5,0.8c-32,2.1-64.1,3.1-96.1,5.3c-10,0.7-20,1.4-30,2c0.5,0,1-0.1,1.5-0.1
		c-9.3,0.6-18.6,1.4-27.9,2.2c-7,0.6-14,1.1-21,1.7c-20.1,1.8-40.3,3.4-60.4,5.2c-5,0.4-10,0.9-15,1.3c-1.9,0.2-3.8,1.7-4.8,3.2
		c-1.2,1.7-1.6,3.8-1.2,5.8c0.4,2,1.6,3.7,3.2,4.8c1.8,1.3,3.7,1.4,5.8,1.2c40.3-3.5,80.7-6.9,121.1-10.1c0.2,0,0.5,0,0.7-0.1
		c0.1,0,0.3,0,0.4,0c-0.1,0-0.3,0-0.4,0c0.1,0,0.1,0,0.2,0c9.1-0.6,18.2-1.2,27.3-1.8c0,0,0,0,0,0c0,0,0.1,0,0.1,0
		c0.4,0,0.9-0.1,1.3-0.1c-0.4,0-0.7,0.1-1.1,0.1c33.3-2.2,66.8-3,100.1-5.3c2.1-0.1,4.2-0.3,6.3-0.4c0.7,0,1.4-0.1,2.1-0.1
		c-0.7,0-1.4,0.1-2.1,0.1c13.7-0.9,27.4-1.9,41-3.8c6.7-0.9,13.4-1.8,20.1-2.5c3.1-0.3,6.2-0.6,9.3-0.9c3.2-0.3,6.5-0.5,9.6-1.2
		c4.2-0.9,7-5,6.1-9.3c-0.8-3.9-4.2-6.2-7.9-6.2C998.7,815.6,998.3,815.6,997.8,815.7L997.8,815.7L997.8,815.7z M786.2,847.1
		C786.2,847.1,786.2,847.1,786.2,847.1C786.1,847.1,786.1,847.1,786.2,847.1C786.1,847.1,786.2,847.1,786.2,847.1L786.2,847.1
		L786.2,847.1z M814.2,845.3c-0.2,0-0.5,0-0.7,0c0.3,0,0.7,0,1-0.1C814.4,845.3,814.3,845.3,814.2,845.3L814.2,845.3L814.2,845.3z
		 M814.3,845.3C814.3,845.3,814.2,845.3,814.3,845.3C814.2,845.3,814.2,845.3,814.3,845.3c0,0,0.1,0,0.2,0
		C814.4,845.3,814.3,845.3,814.3,845.3L814.3,845.3L814.3,845.3z M814.5,845.3c0.6,0,1.2-0.1,1.8-0.1
		C815.7,845.2,815.1,845.2,814.5,845.3L814.5,845.3L814.5,845.3z M920.9,839.6c-0.7,0-1.4,0.1-2.1,0.1
		C919.5,839.6,920.2,839.6,920.9,839.6L920.9,839.6L920.9,839.6z M784,832c0.2,0,0.4,0,0.5,0C784.3,832,784.1,832,784,832L784,832
		L784,832z"/>
	<path style="fill:#161616;" d="M1087.8,774.4c-5,0.1-10.1,0.4-15.1,0.9c-6.1,0.7-12.2,1.8-17.9,4.4c-1.6,0.8-2.8,2.4-3.1,4.1
		c-1.4,0.5-2.6,1.5-3.5,2.8c-1.2,1.8-1.3,3.6-1.1,5.7c0.5,5.6,1,11.3,1.6,16.9c0.6,5.7,1.1,11.5,2,17.1c0.2,1,0.3,2.1,0.5,3.1
		c0.2,1.4,0.6,2.6,1.1,3.9c0.8,2.2,2,4.1,3.5,5.9c1.6,2,4.1,3.5,6.4,4.5c2.7,1.2,5.5,1.7,8.4,2.1c3.7,0.5,7.5,0.6,11.2,0.5
		c2.6-0.1,5.2-0.1,7.8-0.3c7-0.6,13.9-1.3,20.3-4.4c2.3-1.1,4.4-2.8,6.2-4.6c1.8-1.8,3.2-3.8,4.4-6c2.6-4.7,4.2-9.7,5.1-15
		c0.7-3.6,1.4-7.2,1.8-10.8c0.4-3.5,0.9-7,0.9-10.5c0-2.2,0.1-4.4-0.4-6.5c-0.4-1.7-1.2-3.3-2.3-4.7c-1-1.4-2.3-2.4-3.7-3.5
		c-1.3-1-2.9-1.7-4.4-2.4c-1.3-0.6-2.8-1-4.2-1.4c-3.2-0.8-6.5-1.3-9.8-1.6c-3.8-0.3-7.6-0.4-11.4-0.4
		C1090.6,774.4,1089.2,774.4,1087.8,774.4L1087.8,774.4L1087.8,774.4z M1083.6,788c2.3-0.1,4.6,0,6.9,0c2,0,4,0.1,6,0.2
		c3.7,0.2,7.3,0.4,11,1c1.6,0.4,3.2,0.9,4.7,1.5c0.5,0.3,1,0.6,1.5,1c-0.1,2.9-0.5,5.9-0.9,8.8c-0.4,3-0.9,5.9-1.4,8.8
		c-0.9,4.4-1.9,8.8-3.8,13c-0.7,1.3-1.4,2.5-2.3,3.6c-0.5,0.5-1,0.9-1.6,1.4c-1,0.6-2,1-3,1.5c-4.3,1.3-8.9,1.7-13.4,2.1
		c-5.7,0.3-11.5,0.4-17.2-0.3c-0.7-0.2-1.5-0.4-2.2-0.7c-0.2-0.1-0.4-0.3-0.6-0.4c-0.1-0.2-0.3-0.3-0.4-0.5
		c-0.2-0.4-0.4-0.7-0.5-1.1c-0.4-1.8-0.7-3.7-1-5.6c-0.5-2.8-0.8-5.6-1.1-8.5c-0.2-1.8-0.4-3.7-0.5-5.5c-0.6-6.1-1.2-12.2-1.8-18.3
		c3.5-0.6,7.1-0.9,10.6-1.2c-0.1,0-0.2,0-0.3,0c1.7-0.1,3.5-0.3,5.2-0.4C1079.4,788.2,1081.5,788.1,1083.6,788L1083.6,788
		L1083.6,788z M1071.1,788.8c-0.2,0-0.4,0-0.5,0C1070.8,788.8,1071,788.8,1071.1,788.8L1071.1,788.8L1071.1,788.8z M1114.3,792.5
		c0.1,0.2,0.3,0.4,0.4,0.6C1114.5,792.8,1114.4,792.7,1114.3,792.5L1114.3,792.5L1114.3,792.5z"/>
	<path style="fill:#161616;" d="M1151.4,739.9c-5.4,3.9-10.3,8.4-15.2,13c-4.4,4-8.7,8.2-12.8,12.5c-2.4,2.6-4.9,5.2-7.3,7.8
		c-2.7,2.8-5.2,5.9-7.8,8.8c-3.9,4.5-7.8,9-11.7,13.5c-0.4,0.4-0.7,0.8-1.1,1.2c-0.2-2.1-0.4-4.2-0.7-6.3c-0.4-3.8-4.8-6.2-8.3-5.4
		c-1.8,0.4-3.4,1.4-4.4,2.9c-1.1,1.7-1.3,3.4-1.1,5.3c0.3,2.6,0.6,5.2,0.9,7.8c0.5,4.3,0.5,9,3.7,12.3c2.5,2.7,6.7,3.6,10.1,1.9
		c2.3-1.2,4.3-2.9,6.2-4.6c2.6-2.3,4.8-5,7.1-7.7c5.5-6.3,11.1-12.6,16.6-18.9c2.9-3.1,5.9-6.2,8.8-9.3c2.6-2.8,5.4-5.3,8.1-8
		c5.8-5.6,11.9-10.9,17.7-16.5c2.7-2.5,3.1-6.7,0.6-9.6c-1.2-1.3-2.9-2.2-4.7-2.3c-0.2,0-0.3,0-0.5,0
		C1154.2,738.2,1152.8,738.9,1151.4,739.9L1151.4,739.9L1151.4,739.9z"/>
	<path style="fill:#161616;" d="M574.8,952.9c-1.7,0.9-3.3,2.1-4.8,3.3c-1.3,1-2.5,2-3.7,3c-0.2,0.1-0.3,0.3-0.4,0.4
		c-0.5,0.3-1,0.8-1.3,1.3c-2.2,3.5-4.2,7.1-5.8,11c-1.6,4.2-2.8,8.5-3.7,12.8c-0.7,3.2-1.2,6.2-1.1,9.5c0.1,3.8,1.1,7.5,3,10.8
		c1.9,3.2,4.7,5.7,7.6,7.9c2.9,2.2,6.5,3.7,10,4.7c3.6,1,7.3,1.4,11,1.5c2,0.1,4-0.1,6-0.5c2.1-0.4,4.1-1.2,6-2
		c3.4-1.4,6.5-3.6,9.1-6.1c2.8-2.7,5.1-6,6.9-9.4c0.8-1.6,1.5-3.2,2.2-4.8c0.8-2,1.1-4.2,1.5-6.3c0.7-3.9,0.4-8,0-11.9
		c-0.7-7.4-4.1-14.6-9.6-19.5c-1.5-1.3-3-2.5-4.6-3.6c-1.7-1.1-3.5-1.9-5.3-2.7c-3.5-1.6-7.4-2.3-11.2-2.4c-0.2,0-0.4,0-0.6,0
		C581.9,950,578.2,951.2,574.8,952.9L574.8,952.9L574.8,952.9z M584.4,964.7c1.2,0,2.3,0.1,3.5,0.3c1.8,0.5,3.5,1,5.2,1.8
		c1.4,0.8,2.8,1.7,4.1,2.7c1,1,1.9,2,2.7,3.1c0.6,1,1.1,2.1,1.6,3.2c0.7,2.2,1.1,4.5,1.3,6.8c0.1,2.3,0,4.7-0.3,7
		c-0.5,1.9-1.1,3.7-1.9,5.5c-1,1.9-2.2,3.7-3.6,5.4c-0.9,0.9-1.9,1.8-3,2.6c-1.5,0.9-3,1.7-4.7,2.3c-1.1,0.3-2.1,0.5-3.2,0.7
		c-2.8,0.1-5.6,0-8.3-0.5c-1.8-0.4-3.6-1-5.3-1.7c-1.6-0.9-3.2-2-4.7-3.2c-0.7-0.7-1.3-1.4-1.9-2.1c-0.5-0.8-0.9-1.6-1.2-2.5
		c-0.3-1.2-0.5-2.4-0.6-3.6c0-2.8,0.4-5.6,0.9-8.4c1-4.3,2.2-8.5,4-12.5c0.2-0.3,0.4-0.7,0.6-1c0.2,0,0.3,0,0.5,0.1
		c1.7,0.1,2.9-0.4,4.3-1.3c0,0-0.1,0.1-0.1,0.1c0,0,0.1-0.1,0.1-0.1c0.2-0.1,0.3-0.2,0.5-0.3c0.1,0,0.1-0.1,0.2-0.1
		c2.2-1.5,4.4-2.8,6.9-3.8C582.8,965,583.6,964.8,584.4,964.7L584.4,964.7L584.4,964.7z M602.7,981.3c0,0.2,0,0.3,0,0.5
		C602.7,981.6,602.7,981.5,602.7,981.3L602.7,981.3L602.7,981.3z M554.8,986.1c0.1-0.2,0.1-0.5,0.1-0.7
		C554.9,985.6,554.8,985.9,554.8,986.1L554.8,986.1L554.8,986.1z M554.9,985.4c0-0.2,0.1-0.4,0.1-0.5c0,0,0,0,0,0
		C555,985,555,985.2,554.9,985.4L554.9,985.4L554.9,985.4z"/>
	<path style="fill:#161616;" d="M626.7,958.6c-2.7,0.6-5.3,1.9-7.9,3c-2.3,1-4.6,2.1-6.8,3.2c-3.2,1.5-4.5,5.5-2.9,8.6
		c1.6,3.2,5.5,4.4,8.6,2.9c3.7-1.8,7.4-3.5,11.2-5c0.9-0.3,1.8-0.4,2.7-0.6c0.9,0,1.8,0.1,2.8,0.2c1,0.3,1.9,0.6,2.9,1
		c0.8,0.5,1.6,1,2.3,1.5c0.6,0.7,1.2,1.3,1.7,2c0.6,0.9,1,1.9,1.5,2.9c0.3,1,0.5,2,0.7,3.1c0,1.1-0.1,2.1-0.2,3.1
		c-0.3,1.1-0.7,2.1-1.1,3.1c-1,1.6-2.1,3.1-3.3,4.5c-1.2,1.2-2.4,2.3-3.8,3.3c-1.8,1.1-3.7,1.9-5.7,2.7c-2.9,0.9-5.8,1.5-8.7,1.8
		c-1.8,0-3.6-0.1-5.4-0.3c-1.3-0.3-2.5-0.7-3.7-1.2c-1.7-0.8-3.2-1.3-5.2-0.9c-1.8,0.4-3.5,1.5-4.5,3c-2.2,3.2-1.4,7.9,1.9,10.1
		c1.8,1.2,3.7,2.1,5.7,2.9c1.3,0.5,2.9,0.8,4.2,1c1.4,0.2,2.8,0.3,4.2,0.3c5.7,0,11.2-1.5,16.6-3.3c5-1.8,9.6-4.6,13.2-8.4
		c4-4.1,7.3-9.1,8.5-14.8c0.6-2.8,0.8-5.4,0.5-8.2c-0.3-2.8-1.2-5.4-2.3-8c-1.1-2.5-2.8-4.9-4.7-6.9c-2.1-2.3-4.8-3.8-7.6-5.2
		c-2.2-1.1-4.7-1.5-7-1.9c-0.8-0.1-1.7-0.2-2.5-0.2C630.6,957.8,628.5,958.1,626.7,958.6L626.7,958.6L626.7,958.6z"/>
	<path style="fill:#161616;" d="M1027.4,948.9c-2,0.2-4,0.5-6,0.7c-3.9,0.4-7.8,0.9-11.8,1.2c-8.7,0.8-17.3,1.5-26,2.2
		c-17,1.3-34,2.5-51.1,3.7c-0.4,0-0.8,0.1-1.2,0.1c-0.2,0-0.3,0-0.5,0c-0.5,0-0.9,0-1.4,0.1c-0.3,0-0.6,0-0.9,0.1c0,0,0,0,0,0
		c-0.1,0-0.3,0-0.4,0c-0.3,0-0.6,0-0.8,0c-0.3,0-0.5,0-0.8,0.1c-0.4,0-0.9,0-1.3,0.1c-0.2,0-0.3,0-0.5,0c-0.7,0-1.5,0-2.2,0.1
		c-0.5,0-1,0-1.5,0.1c-0.5,0-1.1,0-1.6,0.1c0,0,0,0,0,0c-16.6,1.1-33.3,1.8-50,2.7c-17.8,0.9-35.6,2.1-53.4,3.3
		c-17.5,1.2-35,2.5-52.4,3.8c-16.7,1.2-33.4,2.7-50.2,4c-5.9,0.5-11.8,1-17.7,1.5c-2,0.2-4,1.8-5,3.3c-1.2,1.8-1.6,4-1.2,6.1
		c0.4,2,1.6,3.9,3.4,5c1.9,1.3,3.8,1.4,6.1,1.2c37.6-3.2,75.3-6.2,112.9-8.8c8.2-0.6,16.4-1.1,24.6-1.7c16.9-1,33.7-1.9,50.6-2.8
		c8.5-0.4,16.9-0.9,25.4-1.4c2.4-0.1,4.8-0.3,7.2-0.4c0.7,0,1.4-0.1,2.1-0.1c0.7,0,1.4-0.1,2-0.1c0.3,0,0.5,0,0.8-0.1
		c0.1,0,0.3,0,0.4,0c0.4,0,0.7,0,1.1-0.1c0.3,0,0.7,0,1-0.1c0.6,0,1.2,0,1.8-0.1c0,0,0.1,0,0.1,0c0.3,0,0.5,0,0.8,0
		c0.6,0,1.3,0,1.9-0.1c0.1,0,0.1,0,0.2,0c0.6,0,1.1,0,1.7-0.1c16.9-1.1,33.7-2.4,50.6-3.6c16.1-1.2,32.2-2.4,48.2-4.5
		c1.3-0.2,2.6-0.4,3.8-0.8c0.5-0.1,0.9-0.3,1.3-0.5c0,0,0.1,0,0.1-0.1c0,0,0,0,0,0c1.8-0.9,3.2-2.5,3.9-4.4
		c1.6-4.7-1.8-10.1-6.8-10.3c-0.2,0-0.4,0-0.6,0C1031.9,948.2,1029.6,948.7,1027.4,948.9L1027.4,948.9L1027.4,948.9z M932.1,956.7
		c-0.1,0-0.3,0-0.4,0c-0.1,0-0.1,0-0.2,0C931.7,956.7,931.9,956.7,932.1,956.7L932.1,956.7L932.1,956.7z"/>
	<path style="fill:#161616;" d="M1129.3,914.5c-2,0-3.9,0.2-5.9,0.3c-6.3,0.3-12.6,0.9-18.9,1.6c-7,0.8-14.2,1.2-20.6,4.5
		c-2.5,1.3-3.9,4-3.3,6.8c0.1,0.6,0.4,1.2,0.7,1.8c0,0.1,0,0.3,0,0.4c-0.2,7.8-0.3,15.7-0.2,23.5c0,4.8,0.2,9.6,0.5,14.5
		c0.2,2.3,0.7,4.3,1.5,6.3c0.8,2.2,2.8,4,4.7,5.2c4.6,3,10.4,3.1,15.6,3c8.1-0.2,16.2-0.9,24.2-2c4.7-0.6,9.6-1.2,14.1-2.8
		c1.3-0.5,2.5-0.9,3.7-1.5c1.2-0.6,2.4-1.6,3.5-2.5c2-1.6,3.6-3.8,4.9-5.9c2.9-4.8,3.4-10.7,3.6-16.1c0.2-6.9-0.3-13.8-1-20.6
		c-0.3-2.8-0.8-5.5-2.2-8c-1.2-2.1-3-3.7-4.9-5.1c-2.3-1.6-5.1-2.3-7.7-2.8c-2.9-0.6-5.8-0.7-8.8-0.7
		C1131.7,914.4,1130.5,914.5,1129.3,914.5L1129.3,914.5L1129.3,914.5z M1138.9,929.2c0.8,0.2,1.5,0.5,2.3,0.7c0.1,0,0.1,0.1,0.2,0.1
		c0.4,1.9,0.5,4,0.6,5.9c0-0.6-0.1-1.2-0.1-1.7c0.2,3,0.3,6.1,0.4,9.1c0.2,4.8,0.2,9.7-0.5,14.4c-0.2,0.8-0.4,1.5-0.7,2.3
		c-0.4,0.7-0.8,1.3-1.3,1.9c-0.4,0.4-0.9,0.8-1.4,1.2c-0.5,0.3-1.1,0.5-1.6,0.7c-3.1,0.9-6.4,1.4-9.6,2.1c-2.3,0.5-4.7,0.8-7,1.1
		c-2.5,0.3-5.1,0.7-7.6,0.9c-2.5,0.2-5.1,0.4-7.7,0.6c-2.9,0.1-5.7,0.2-8.6-0.2c-0.5-0.1-1-0.3-1.5-0.5c0-0.1-0.1-0.1-0.1-0.2
		c-0.7-2.8-0.9-5.7-1.2-8.6c-0.4-9.1-0.4-18.2-0.2-27.4c1.3-0.1,2.5-0.3,3.8-0.4c2.7-0.3,5.3-0.6,8-0.9c5.2-0.6,10.4-1,15.7-1.4
		C1126.7,928.6,1132.8,928.3,1138.9,929.2L1138.9,929.2L1138.9,929.2z M1094.9,968c0.2,0.1,0.4,0.2,0.6,0.3
		C1095.2,968.2,1095,968.1,1094.9,968L1094.9,968L1094.9,968z"/>
	<path style="fill:#161616;" d="M1171,883c-6.6,6.3-13.1,12.7-19.4,19.2c-7.5,7.7-14.7,15.7-21.9,23.8c0.4-0.4,0.8-0.9,1.2-1.3
		c-1.6,1.8-3.2,3.5-4.9,5.2c-1.3,1.3-2.5,2.5-3.9,3.7c-0.1,0.1-0.3,0.2-0.4,0.2c-1.3-2.5-2.2-5.2-3.2-7.8c-0.6-1.6-2.3-2.8-3.9-3.4
		c-1.7-0.6-3.6-0.5-5.3,0.3c-1.6,0.8-2.8,2.2-3.4,3.8c-0.6,1.9-0.3,3.5,0.3,5.3c1.3,3.5,2.5,7.2,4.7,10.2c2.6,3.6,7,6.7,11.7,5.7
		c3.9-0.8,7.3-2.9,10.2-5.5c3.1-2.8,5.9-6,8.7-9.2c4.4-5,8.9-9.9,13.4-14.8c4.2-4.4,8.4-8.7,12.7-13c4.5-4.5,9.2-8.9,12.9-14
		c1.7-2.3,1.4-5.8-0.5-7.9c-1.2-1.4-3.1-2.2-5-2.2C1173.6,881.4,1172.1,881.9,1171,883L1171,883L1171,883z M1123.1,935.1
		c0.1,0.1,0.2,0.1,0.3,0.2C1123.3,935.3,1123.2,935.2,1123.1,935.1L1123.1,935.1L1123.1,935.1z"/>
	<path style="fill:#161616;" d="M614.2,1077.2c-3.1,0.3-6.3,0.7-9.4,1.1c-1.9,0.3-3.7,0.5-5.6,0.8c-0.9,0.1-1.7,0.3-2.6,0.5
		c-3.2,0.7-5.9,2.2-8.5,4.3c-1.3,1-1.9,2.7-1.9,4.3c-1.3,0.3-2.4,1.1-3.1,2.1c-0.8,1.2-0.9,2.5-0.8,3.9c0.2,1.8,0.4,3.7,0.5,5.5
		c0,0,0,0,0,0c0,0.6,0.1,1.3,0.1,1.9c0.1,1.3,0.2,2.6,0.3,3.8c0-0.5-0.1-0.9-0.1-1.4c0.4,6.4,0.6,12.8,0.7,19.2
		c0.2,6.4,0,12.9,0.7,19.4c0.2,1.7,0.5,3.3,1.1,4.9c0.8,2.2,2.2,4.4,4.2,5.7c1.1,0.7,2.2,1.2,3.3,1.7c0.9,0.4,2,0.5,3,0.6
		c1.2,0.2,2.6,0.1,3.8,0.1c3.6,0,7.2-0.4,10.8-0.8c3.2-0.3,6.3-0.7,9.5-1c1.5-0.2,3.1-0.3,4.6-0.5c1.7-0.2,3.5-0.4,5-1.2
		c2.5-1.3,4.6-3.1,6-5.6c2.2-3.8,3-8.5,3.5-12.8c0.2-1.8,0.5-3.6,0.7-5.4c0.4-3.1,0.6-6.2,0.8-9.3c0.4-6.6,0.8-13.2,0.7-19.8
		c-0.1-3.5-0.3-7.2-1.1-10.7c-0.8-3.8-2.5-7.5-5.9-9.6c-3-1.8-6.5-2.4-9.8-2.6c-0.7-0.1-1.5-0.1-2.2-0.1
		C619.7,1076.6,616.9,1076.9,614.2,1077.2L614.2,1077.2L614.2,1077.2z M625.6,1089.6c0.5,0.1,0.9,0.3,1.4,0.4c0.3,1.5,0.5,3,0.7,4.6
		c0.2,6.5-0.2,12.9-0.7,19.4c-0.5,7.4-1.1,14.8-2.4,22.1c-0.3,1.2-0.6,2.3-1,3.4c-2,0.3-4.1,0.5-6.1,0.8c-1.8,0.2-3.7,0.5-5.5,0.7
		c-4,0.5-8,1.1-12,1.5c-1,0.1-2,0.1-3,0c0-0.1-0.1-0.1-0.1-0.2c-0.8-3.2-1.2-6.5-1.5-9.8c-0.3-3.1-0.5-6.1-0.8-9.2
		c-0.5-7.7-0.9-15.3-1.4-23c0,0,0,0,0-0.1c0-0.5,0-1-0.1-1.5c-0.1-1.6-0.3-3.2-0.4-4.8c0.7-0.1,1.3-0.3,2-0.6
		c0.6-0.3,1.3-0.6,1.9-0.9c3.8-0.9,7.8-1.4,11.7-2c3.3-0.4,6.6-0.8,9.9-1.1C620.6,1089.3,623.1,1089.2,625.6,1089.6L625.6,1089.6
		L625.6,1089.6z M627.1,1090.2c0.1,0.3,0.3,0.7,0.4,1.1C627.3,1090.9,627.2,1090.5,627.1,1090.2L627.1,1090.2L627.1,1090.2z
		 M582.7,1098.5c0,0.4,0,0.7,0.1,1.1C582.8,1099.2,582.8,1098.8,582.7,1098.5L582.7,1098.5L582.7,1098.5z M624.9,1134.7
		c-0.1,0.2-0.1,0.5-0.2,0.7C624.8,1135.2,624.8,1135,624.9,1134.7L624.9,1134.7L624.9,1134.7z M624,1138.7c0,0.1-0.1,0.1-0.1,0.2
		C624,1138.9,624,1138.8,624,1138.7L624,1138.7L624,1138.7z M624.3,1138.9c-0.1,0.1-0.1,0.1-0.2,0.2
		C624.1,1139,624.2,1139,624.3,1138.9L624.3,1138.9L624.3,1138.9z M623.4,1139.7c-0.3,0.1-0.5,0.2-0.8,0.3
		C622.8,1139.9,623.1,1139.8,623.4,1139.7L623.4,1139.7L623.4,1139.7z M596.3,1141.1c0.1,0.2,0.1,0.4,0.2,0.6
		C596.5,1141.6,596.4,1141.3,596.3,1141.1L596.3,1141.1L596.3,1141.1z M596.3,1141.8c0.1,0.2,0.2,0.3,0.3,0.5
		C596.5,1142.1,596.4,1141.9,596.3,1141.8L596.3,1141.8L596.3,1141.8z M595.6,1141.9c0.3,0.1,0.5,0.3,0.8,0.4
		C596.1,1142.2,595.8,1142.1,595.6,1141.9L595.6,1141.9L595.6,1141.9z"/>
	<path style="fill:#161616;" d="M628.7,1105.5c-13.3,1.8-26.5,4.5-39.7,6.9c-3.2,0.6-5.3,3.9-4.7,7.1c0.7,3.3,3.9,5.3,7.1,4.7
		c13.2-2.4,26.5-4.7,39.7-7c3.2-0.5,5.3-3.9,4.6-7c-0.6-3-3.2-4.7-6-4.7C629.4,1105.4,629.1,1105.5,628.7,1105.5L628.7,1105.5
		L628.7,1105.5z"/>
	<path style="fill:#161616;" d="M1013.6,1072.6c-16.2,1.4-32.4,3.5-48.7,5.2c-15.4,1.6-30.9,3.4-46.3,5.3
		c-14.9,1.9-29.7,3.8-44.6,5.5c-15.7,1.8-31.3,3.5-47,5.2c-31.6,3.5-63.2,7.5-94.7,12.3c-11.8,1.8-23.6,3.6-35.3,5.5
		c-3.6,0.6-5.9,4.5-5.2,7.9c0.8,3.7,4.3,5.8,7.9,5.2c17.9-2.9,35.9-5.8,53.9-8.1c16.3-2.1,32.6-4.4,48.9-6.1
		c16.4-1.7,32.9-3.3,49.4-4.9c15.6-1.5,31.3-3.3,46.9-5c15.3-1.7,30.5-3.6,45.7-5.3c15.1-1.7,30.1-3,45.2-4.7c8.9-1,17.9-2,26.9-3
		c1.9-0.2,3.8-1.7,4.8-3.2c1.2-1.7,1.6-3.8,1.2-5.9c-0.4-2-1.6-3.7-3.2-4.8c-1.4-0.9-2.8-1.2-4.4-1.2
		C1014.6,1072.6,1014.1,1072.6,1013.6,1072.6L1013.6,1072.6L1013.6,1072.6z"/>
	<path style="fill:#161616;" d="M1089.9,1032.8c-3.3,2.9-3.5,7.9-0.8,11.3c6.8,8.2,13.7,16.3,20.7,24.3c2.7,3.1,5.5,6.2,8.4,9.2
		c1.5,1.6,3,3.1,4.6,4.7c1.9,1.9,4,3.7,6.3,4.9c1.4,0.7,3,1.5,4.6,1.5c0.9,0,1.9,0,2.8-0.1c1-0.3,2-0.7,3-1.2
		c2.9-1.5,4.5-4.7,3.9-7.9c-0.7-3.3-3.4-5.4-6.5-5.7c-5.7-5.5-11.1-11.4-16.3-17.4c-6.5-7.5-12.9-15.1-19.3-22.8
		c-1.5-1.8-3.7-2.7-6-2.7C1093.3,1030.8,1091.3,1031.5,1089.9,1032.8L1089.9,1032.8L1089.9,1032.8z"/>
	<path style="fill:#161616;" d="M1141.3,1027.8c-1.3,0.4-2.5,0.8-3.8,1.2c-1.7,0.6-3.1,1.5-4.6,2.5c-2.7,1.9-5,4.2-7.2,6.7
		c-3.1,3.4-6,7.1-8.9,10.6c-3.9,4.8-7.8,9.5-11.8,14.3c-5.7,6.9-11.5,13.6-17.4,20.3c-3.9,4.3-8,8.6-11.4,13.2
		c-1.9,2.6-1.5,6.4,0.5,8.8c1.3,1.4,3,2.3,5,2.5c1.7,0.1,4-0.4,5.2-1.8c8.1-8.7,15.7-18,23.4-27.1c3.4-4,6.7-8.1,10.1-12.2
		c5.1-6.2,10.1-12.6,15.3-18.7c1.8-2,3.7-3.8,5.8-5.4c0.6-0.3,1.2-0.6,1.8-0.9c0.3-0.1,0.6-0.2,0.9-0.3c1.8-0.5,3.3-1.3,4.4-2.9
		c1.1-1.5,1.5-3.5,1.1-5.3c-0.6-3-3.6-5.7-6.7-5.7C1142.3,1027.5,1141.8,1027.6,1141.3,1027.8L1141.3,1027.8L1141.3,1027.8z"/>
	<path style="fill:#161616;" d="M590.8,1228.9c-1.8,0.2-3.5,1.1-5.2,1.8c-1.5,0.6-2.6,1.9-3.3,3.3c-1.8-0.7-3.9-0.5-5.3,0.9
		c-2.1,2.2-4.1,4.5-5.4,7.3c-1.6,3.5-2.4,7.1-3.1,10.9c-0.6,3.4-0.6,6.9-0.4,10.4c0.1,2.1,0.3,4.1,0.7,6.2c0.4,2.1,1.1,4,1.9,6
		c1.2,3.2,3.4,6.1,5.9,8.5c2.9,2.8,6.3,4.8,10.1,6.2c3.2,1.2,6.7,1.7,10.1,1.5c2.2-0.1,4.3-0.4,6.4-0.9c2.1-0.5,4.2-1.3,6.1-2.2
		c3.6-1.6,6.3-4.4,8.9-7.3c1.4-1.6,2.4-3.6,3.3-5.5c0.8-1.6,1.4-3.2,1.8-4.8c1-3.3,1.3-6.8,1.3-10.3c0-2.1-0.2-4.3-0.5-6.4
		c-0.3-2.1-1.2-4.3-1.9-6.3c-0.5-1.3-1.3-2.5-2-3.6c-1.1-1.7-2.3-3.3-3.7-4.7c-2.6-2.7-5.7-4.9-9.1-6.6c-3.1-1.6-6.4-3.1-9.8-4.1
		c-1.3-0.4-2.5-0.5-3.8-0.5C592.8,1228.7,591.8,1228.8,590.8,1228.9L590.8,1228.9L590.8,1228.9z M584,1243c0.1-0.1,0.2-0.2,0.3-0.3
		c0.2,0.1,0.3,0.3,0.5,0.4c1.4,1,3.8,1.7,5.5,1.1c0.8-0.3,1.6-0.5,2.4-0.7c2,0.7,4,1.6,5.9,2.6c2.1,1.1,4.2,2.4,6.1,3.9
		c1,1,1.9,2,2.7,3.1c0.6,1,1,2,1.5,3c0.4,1.5,0.6,3,0.8,4.6c0.1,2,0,3.9-0.3,5.9c-0.4,1.6-0.9,3-1.5,4.5c-0.6,1-1.2,2-1.9,2.9
		c-0.7,0.7-1.5,1.4-2.3,2.1c-1.1,0.6-2.1,1.1-3.2,1.6c-1.7,0.5-3.4,0.9-5.2,1.1c-1.2,0-2.4-0.1-3.6-0.3c-1.3-0.4-2.6-0.8-3.9-1.4
		c-1.1-0.6-2.2-1.4-3.2-2.2c-0.9-0.9-1.6-1.7-2.3-2.7c-0.7-1.2-1.3-2.5-1.8-3.8c-0.6-2.2-1-4.5-1.2-6.7c-0.1-3.2,0.1-6.3,0.6-9.4
		c0.5-1.9,1-3.8,1.8-5.7c0.7-1.1,1.5-2.1,2.3-3.1C583.8,1243.2,583.9,1243.1,584,1243L584,1243L584,1243z M579.4,1252.6
		c0,0.2-0.1,0.4-0.1,0.6C579.3,1252.9,579.4,1252.7,579.4,1252.6L579.4,1252.6L579.4,1252.6z M579.7,1267.2c0.1,0.2,0.1,0.3,0.2,0.5
		C579.8,1267.5,579.8,1267.4,579.7,1267.2L579.7,1267.2L579.7,1267.2z M601.5,1277.1c-0.2,0.1-0.3,0.1-0.5,0.2
		C601.2,1277.3,601.3,1277.2,601.5,1277.1L601.5,1277.1L601.5,1277.1z"/>
	<path style="fill:#161616;" d="M639.1,1213.2c-1.8,0.7-3.5,2-5.1,3c-1.9,1.2-3.7,2.5-5.4,3.9c-3.7,2.8-7.1,5.8-10.2,9.2
		c-3,3.2-5.7,6.5-8.5,9.8c-1.1,1.3-1.4,3.5-1,5.2c0.4,1.7,1.4,3.3,2.9,4.3c1.5,1,3.4,1.4,5.2,1c1.9-0.4,3.1-1.4,4.3-2.9
		c1.3-1.6,2.7-3.2,4.1-4.8c2.2-2.5,4.5-4.9,7.1-7.1c2.4-2.2,5.1-4.1,7.8-6c1.7-1.1,3.4-2.1,5.3-2.9c0.4,0,0.9,0,1.3,0.1
		c0.7,0.2,1.5,0.5,2.2,0.7c1,0.6,2,1.3,2.9,2.1c1.3,1.3,2.5,2.6,3.5,4.1c0.8,1.3,1.4,2.7,2,4.1c0.6,1.8,0.9,3.7,1.2,5.6
		c0.1,2.2,0,4.4-0.4,6.6c-0.4,1.7-1,3.2-1.6,4.8c-0.8,1.4-1.6,2.6-2.6,3.9c-0.9,0.9-1.8,1.6-2.7,2.4c-1.7,1-3.4,1.8-5.2,2.5
		c-4.5,1.4-9.2,2-13.9,2.5c-3.4,0.1-6.7-0.1-10.1-0.7c-1.4-0.1-2.7,0.2-3.9,0.8c-1.8,0.9-3.2,2.5-3.8,4.3c-1.3,3.8,0.7,8.6,4.7,9.8
		c3.3,0.9,6.8,1.8,10.3,1.6c3.5-0.1,6.9-0.4,10.3-0.9c6.4-1,12.7-2.4,18.4-5.7c7.4-4.3,12.5-11.7,14.6-19.9
		c2.1-8.6,1.1-17.7-2.6-25.7c-1.7-3.5-4.2-6.8-7-9.4c-3.4-3.1-7.1-5.7-11.6-6.9c-1.7-0.5-3.5-0.7-5.3-0.8c-0.1,0-0.2,0-0.3,0
		C643.3,1211.7,641.2,1212.3,639.1,1213.2L639.1,1213.2L639.1,1213.2z M625.8,1241.2c-0.2,0.2-0.4,0.4-0.6,0.7
		C625.4,1241.7,625.6,1241.5,625.8,1241.2L625.8,1241.2L625.8,1241.2z M625.1,1242c-0.2,0.2-0.3,0.4-0.5,0.6
		C624.8,1242.4,624.9,1242.2,625.1,1242L625.1,1242L625.1,1242z M645.1,1263.1c-0.2,0.1-0.4,0.1-0.6,0.2
		C644.8,1263.2,644.9,1263.1,645.1,1263.1L645.1,1263.1L645.1,1263.1z"/>
	<path style="fill:#161616;" d="M624.4,1275.9c-0.3,4.2,3,7.8,7.1,8.1c1.3,0.1,2.7,0.3,4,0.5c3.3,0.7,6.6,1.6,9.7,3
		c1,0.6,2,1.2,2.9,2c0.7,0.7,1.4,1.5,2,2.3c0.5,0.9,0.9,1.8,1.3,2.7c0.3,1,0.5,2,0.6,3c0,1-0.1,2-0.2,3.1c-0.3,1-0.7,2-1.1,3
		c-0.9,1.5-2,3-3.1,4.4c-1.4,1.5-2.9,2.9-4.6,4.1c-0.9,0.5-1.9,1-2.8,1.4c-1.1,0.3-2.1,0.5-3.2,0.6c-1.7,0-3.4,0-5.1-0.2
		c-1.3-0.4-2.6-0.8-3.8-1.3c-1.2-0.7-2.2-1.4-3.3-2.2c-0.7-0.8-1.4-1.6-2.1-2.4c-0.6-1-1.1-2.1-1.5-3.1c-0.5-1.7-0.9-3.4-1.1-5.2
		c0-1.1,0-2.1,0.1-3.2c0.8-3,1.9-5.9,3.2-8.8c1.5-3.6-0.9-7.9-4.4-9.1c-3.9-1.3-7.6,0.8-9.1,4.4c-1,2.4-2,4.8-2.8,7.3
		c-1.2,3.8-1.5,7.6-1.2,11.5c0.6,6.7,3.1,12.8,7.5,17.9c2.1,2.4,4.8,4.3,7.5,5.8c1.6,0.9,3.3,1.6,5,2.3c1.8,0.6,3.8,0.9,5.7,1.3
		c3.3,0.5,6.8,0.2,10.1-0.2c2-0.3,3.8-1.1,5.7-1.8c1.8-0.7,3.6-1.8,5.2-3c2.4-1.7,4.5-3.7,6.5-5.9c1.3-1.4,2.5-2.8,3.6-4.4
		c1.2-1.6,2-3.5,2.9-5.2c1.5-3,2.1-6.7,2.2-10.1c0.1-4-0.9-7.6-2.3-11.3c-1-2.7-2.9-5.3-4.8-7.5c-1.2-1.4-2.8-2.6-4.2-3.8
		c-1.5-1.2-3.2-2.1-5-2.9c-5.9-2.8-12.5-4.2-19-4.3c-0.1,0-0.1,0-0.2,0C628.2,1268.8,624.6,1271.7,624.4,1275.9L624.4,1275.9
		L624.4,1275.9z"/>
	<path style="fill:#161616;" d="M1064.2,1227.8c-3.2,0.7-6.6,1-9.9,1.4c-4.1,0.5-8.2,1-12.3,1.4c-8.2,0.9-16.4,1.6-24.6,2.4
		c-16.6,1.5-33.2,3-49.8,4.7c-36.7,4-73.4,8.8-110.1,13.2c-7.3,0.9-14.6,1.4-21.8,2.1c-9.1,0.8-18.2,1.8-27.3,2.6
		c-11,0.6-22,1.3-33,1.9c-6.7,0.4-13.3,0.8-20,1.1c-8.7,0.5-17.4,0.8-26.1,1.1c-2.2,0.1-4.1,0.5-5.8,2c-1.6,1.4-2.6,3.4-2.7,5.5
		s0.6,4.2,2,5.8c1.3,1.5,3.5,2.8,5.5,2.7c12.1-0.5,24.3-1,36.4-1.7c12.1-0.7,24.2-1.4,36.4-2.1c17.6-1,35.2-3,52.8-4.6
		c7.3-0.7,14.6-1.6,21.9-2.5c7.8-0.9,15.6-1.8,23.4-2.8c17.9-2.3,35.7-4.7,53.6-6.6c17.5-1.9,35.1-3.8,52.6-5.3
		c16.8-1.5,33.6-2.9,50.4-4.9c2.8-0.3,5.5-0.7,8.3-1.1c1.3-0.2,2.5-0.4,3.8-0.6c4-0.8,7.7-3.6,7.8-8c0.1-3.5-1.9-6.8-5.3-8
		c-0.9-0.3-1.7-0.4-2.6-0.4C1066.5,1226.9,1065.3,1227.2,1064.2,1227.8L1064.2,1227.8L1064.2,1227.8z"/>
	<path style="fill:#161616;" d="M1154,1174.9c-6.9,0.9-13.6,2.1-20.4,3.6c-3.4,0.8-6.8,1.5-10.2,2.4c-5.2,1.3-10.9,2.8-14.6,6.9
		c-1.3,1.4-2.2,2.8-2.4,4.8c-0.1,1.3,0.2,2.6,0.8,3.7c-1.4,0.6-2.5,1.6-3.4,2.8c-1.3,1.9-1.5,3.9-1.2,6.1
		c1.2,10.1,2.4,20.3,3.8,30.4c0.6,4.5,1.2,9,1.9,13.5c0.3,1.9,0.6,3.7,0.9,5.6c0.3,1.6,0.6,3.1,1.1,4.6c0.4,1.5,1.1,3.5,2.3,4.6
		c1.4,1.4,2.9,2.8,4.8,3.4c6.3,2,13.4,1.2,19.9,1c3.9-0.1,7.8-0.5,11.7-0.8c8.6-0.6,17.2-1.3,25.9-2.1c3.6-0.3,7.2-0.8,10.8-1.1
		c1.8-0.2,3.7-0.4,5.5-0.7c2-0.3,3.7-0.8,5.6-1.5c1.2-0.4,2.3-1.4,3.1-2.3c1.4-1.5,2.5-3.1,3.2-5c2-5.2,1.9-10.8,1.6-16.2
		c-0.2-3.1-0.4-6.2-0.6-9.2c-0.3-3.6-0.5-7.3-0.8-10.9c-0.2-2.9-0.4-5.9-0.6-8.8c-0.3-5.2-0.5-10.6-1.5-15.7
		c-0.4-2.1-1.3-4.3-2.3-6.2c-1.4-2.6-3.6-4.9-5.9-6.7c-3.6-2.8-7.9-4.3-12.4-5.5c-4.4-1.1-8.9-1.5-13.5-1.5
		C1162.8,1173.9,1158.3,1174.3,1154,1174.9L1154,1174.9L1154,1174.9z M1175.2,1190.4c2.3,0.5,4.5,1.2,6.7,2.2
		c0.5,0.3,1.1,0.7,1.6,1.1c0.5,0.5,1,1,1.4,1.6c0.1,0.2,0.2,0.5,0.4,0.7c1.1,3.8,1.2,7.8,1.5,11.7c-0.1-0.7-0.1-1.4-0.2-2.1
		c0.6,10.4,1.4,20.8,2.1,31.2c0.2,3.7,0.4,7.3-0.1,11c-3.2,0.6-6.4,0.8-9.6,1.2c-3.2,0.4-6.4,0.7-9.6,1c-7,0.6-14,1.2-20.9,1.7
		c-3.3,0.2-6.6,0.4-9.8,0.6c-2.1,0.1-4.2,0.1-6.3,0.2c-2.4,0.1-4.9,0.1-7.3,0c-0.7-3.3-1.1-6.6-1.5-9.9c-0.6-4-1.1-7.9-1.7-11.9
		c-1.3-9.5-2.4-19-3.5-28.6c-0.1-1.1-0.6-2.1-1.3-3.1c0.1-0.1,0.3-0.2,0.4-0.3c0.4-0.2,0.8-0.4,1.3-0.6c3.5-1,7.2-1.7,10.8-2.5
		c3.1-0.7,6.1-1.4,9.2-2c7.5-1.5,14.9-2.9,22.5-3.5C1165.9,1189.7,1170.6,1189.7,1175.2,1190.4L1175.2,1190.4L1175.2,1190.4z
		 M1190.4,1247.2c-0.1,0.1-0.2,0.1-0.3,0.2C1190.2,1247.3,1190.3,1247.3,1190.4,1247.2L1190.4,1247.2L1190.4,1247.2z M1188.9,1247.6
		C1188.9,1247.6,1188.9,1247.7,1188.9,1247.6C1188.9,1247.7,1188.9,1247.7,1188.9,1247.6C1188.9,1247.7,1188.9,1247.6,1188.9,1247.6
		L1188.9,1247.6L1188.9,1247.6z M1188.7,1248C1188.7,1248,1188.7,1248,1188.7,1248C1188.7,1248,1188.7,1248,1188.7,1248
		C1188.7,1248,1188.7,1248,1188.7,1248C1188.7,1248,1188.7,1248,1188.7,1248L1188.7,1248L1188.7,1248z"/>
	<path style="fill:#161616;" d="M1211.7,1151.5c-2.1,0.4-3.5,1.6-4.8,3.2c-8.7,10.1-17.5,20.1-26.2,30.2c-4.2,4.8-8.3,9.7-12.5,14.6
		c-4.8,5.6-9.3,11.3-13.9,16.9c-0.6-1.4-1.2-2.8-1.8-4.1c-1.9-4.4-3.8-8.8-5.6-13.3c-1.6-3.9-6.7-5.2-10.3-3.5
		c-3.9,2-5.1,6.5-3.5,10.3c2.3,5.4,4.6,10.9,6.9,16.3c0.5,1.1,1,2.3,1.5,3.4c1.4,3,2.8,6.6,5.6,8.6c3,2.2,6.7,2.3,10,0.8
		c3.3-1.5,5.3-4.2,7.6-6.8c-0.4,0.5-0.9,1-1.3,1.5c3.8-4.3,7.3-8.8,10.9-13.1c2.3-2.8,4.5-5.5,6.8-8.3c4.1-4.9,8.3-9.7,12.5-14.6
		c4.4-5,8.8-10.1,13.2-15.1c4.4-5,8.8-9.9,12.8-15.2c2.5-3.4,1.3-8.5-2.1-10.8c-1.3-0.9-2.8-1.3-4.4-1.3
		C1212.7,1151.4,1212.2,1151.4,1211.7,1151.5L1211.7,1151.5L1211.7,1151.5z"/>
	<path style="fill:#161616;" d="M449.5,613.3c-1.8,0.9-2.8,2.3-3.6,4.1c-1.3,2.7-1.9,5.7-2.6,8.6c-0.8,3.4-1.5,6.9-2.1,10.4
		c-1.4,7.6-2.5,15.2-3.4,22.9c-0.9,7.5-1.8,15.1-2.6,22.6c-1.2,10.4-2.4,20.9-3.6,31.3c-2.3,20-4.1,40.1-5.6,60.2
		c-1.5,19.1-3,38.2-4,57.3c-0.7,12-1.3,23.9-2,35.9c-0.2,3.6-0.2,7.2-0.3,10.8c-0.2,7.3-0.4,14.5-0.5,21.8c-0.2,9-0.1,18,0,27
		c0.1,9,0.1,18,0.4,27.1c0.3,7.2,0.6,14.4,0.8,21.6c0.1,3.4,0.2,6.8,0.4,10.3c0.8,12,1.5,24.1,2.3,36.1c0.7,10.1,1.6,20.2,2.4,30.3
		c0.7,8.9,1.5,17.8,2.3,26.7c2,21,4.1,42,6.2,63c4,40.3,8.3,80.5,12.1,120.8c4,41.2,7.2,82.5,10.5,123.8c1.6,19.1,3.3,38.2,5.6,57.2
		c1.2,10,2.3,20.1,4,30.1c0.9,5.2,1.8,10.5,2.8,15.7c1,5.2,2.2,10.4,3.4,15.6c1.7,7.3,3.5,14.5,5.9,21.6c0.8,2.4,1.6,4.8,2.6,7.1
		c1.9,4.7,5.6,8.8,9.8,11.5c2.2,1.4,4.7,2.4,7,3.3c2.5,1,5.2,1.7,7.9,2.3c4.6,1.1,9.5,2,14.3,2.4c4.4,0.3,8.7,0.5,13.1,0.6
		c3.7,0.1,7.5-0.2,11.2-0.4c8.3-0.5,16.6-1.4,24.7-3.5c4.1-1.1,7.1-4.9,6.1-9.3c-0.9-4.2-5.1-7-9.3-6.1c-3.9,0.8-7.8,1.5-11.7,2.1
		c-3.2,0.5-6.5,0.8-9.7,1c-10.9,0.6-21.8,0.4-32.5-1.6c-4-0.9-7.9-2.1-11.6-3.7c-0.7-0.4-1.4-0.9-2.1-1.4c-0.5-0.6-1.1-1.2-1.5-1.8
		c-1-1.7-1.7-3.6-2.4-5.4c-2.8-8.6-5-17.5-7-26.4c-2.2-9.4-4-18.9-5.4-28.5c-2.8-19.7-5.2-39.5-7.1-59.3
		c-3.9-41.9-6.9-83.9-10.7-125.9c-3.5-38.6-7.5-77.2-11.5-115.7c-4.3-41.8-8.7-83.5-12.2-125.3c-0.5-6.2-1-12.5-1.6-18.7
		c-0.7-10.7-1.4-21.5-2.1-32.2c-0.6-9.2-0.9-18.4-1.3-27.5c-0.2-5.4-0.5-10.9-0.7-16.3c-0.1-3.4-0.1-6.9-0.1-10.3
		c-0.1-7.2-0.1-14.5-0.2-21.7c0-2.9-0.1-5.9,0-8.8c0.3-12.3,0.6-24.6,0.8-36.9c0.1-2.7,0.2-5.5,0.4-8.2c0.4-7.1,0.8-14.3,1.1-21.4
		c1-18.7,2.2-37.3,3.6-56c1.5-20.3,3-40.5,5.2-60.7c1.1-10.3,2.2-20.6,3.4-30.9c2.1-18.9,3.9-37.9,7.3-56.6c0.1-0.6,0.2-1.1,0.3-1.7
		c-0.1,0.3-0.1,0.7-0.2,1c0.9-4.3,1.7-8.8,3.6-12.8c0.8-1.7,0.5-4-0.3-5.6c-0.8-1.7-2.3-3-4.1-3.6c-0.8-0.3-1.6-0.4-2.4-0.4
		C451.7,612.5,450.6,612.8,449.5,613.3L449.5,613.3L449.5,613.3z"/>
</g>
</svg>
