<?xml version="1.0" encoding="utf-8"?>
<!-- Generator: Adobe Illustrator 22.1.0, SVG Export Plug-In . SVG Version: 6.00 Build 0)  -->
<svg version="1.1" id="Layer_1" xmlns="http://www.w3.org/2000/svg" xmlns:xlink="http://www.w3.org/1999/xlink" x="0px" y="0px"
	 viewBox="0 0 2000 2000" style="enable-background:new 0 0 2000 2000;" xml:space="preserve">
<g>
	<path style="fill:#161616;" d="M644,442.7c-2.5,0.1-5,0.2-7.5,0.4c-2.7,0.2-5.2,0.8-7.6,1.9c-2.3,1.1-4.2,2.8-6,4.5
		c-0.6,0.6-1.1,1.2-1.5,1.9c-3.1,0.9-5.6,3.7-5.8,7c-0.8,17.9-1.6,35.8-2.4,53.7c-0.3,7.3-0.7,14.6-1,22c-0.2,4.7-0.4,9.4-0.7,14
		c-0.1,2.1-0.1,4.2-0.1,6.3c0,3.4,1,7,3.9,9c4.3,3,9.7,2.6,14.6,2.3c8-0.4,16-0.8,24.1-1.2c8.7-0.4,17.3-0.4,26-0.5
		c8.3-0.1,16.5,0.2,24.8,0.4c7.6,0.2,15.2,0.5,22.9,0.8c16,0.6,32,1.8,48,2.6c4.5,0.2,9.1,0.4,13.7,0.6c2.4,0.1,4.8,0.1,7.2-0.1
		c1.1-0.1,2.1-0.2,3.1-0.3c1.4-0.2,2.7-0.8,3.9-1.3c1.1-0.5,2.7-1.5,3.5-2.2c1.1-0.9,2.1-1.9,3-3c1.9-2.5,3.3-5.4,4.5-8.3
		c1-2.4,1.5-5,2.2-7.5c0.8-3,1.4-6.1,2-9.1c0.6-3.1,1.2-6.3,1.7-9.4c0.7-4.3,1.4-8.6,2-12.9c1-7.8,1.9-15.6,2.7-23.5
		c0.4-4.2,0.8-8.4,1-12.6c0.1-2.6,0.2-5.4-0.1-8c-0.3-2.8-1.3-5.7-3.1-7.9c-1.8-2.2-4-3.9-6.4-5.4c-4.4-2.8-9.5-4-14.6-5.1
		c-3.6-0.8-7.2-1.5-10.9-2c-4.2-0.6-8.3-1.3-12.5-1.7c-4.3-0.4-8.6-1-12.9-1.3c-4.6-0.3-9.3-0.6-13.9-0.9c-7.8-0.5-15.6-0.7-23.4-1
		c-8.1-0.3-16.3-0.6-24.4-0.9c-8.3-0.3-16.6-0.6-24.8-0.9c-7.8-0.3-15.6-0.8-23.3-0.9c-1.1,0-2.2,0-3.3,0
		C649.5,442.6,646.7,442.6,644,442.7L644,442.7L644,442.7z M648.7,458.5c3.9,0,7.8,0.1,11.8,0.3c7.8,0.3,15.5,0.6,23.3,0.9
		c16.7,0.6,33.5,1.2,50.2,1.8c10.1,0.4,20.2,1,30.4,1.7c2.3,0.2,4.6,0.5,6.9,0.7c2.3,0.2,4.7,0.4,7,0.7c6.6,0.9,13.2,1.7,19.8,3
		c3.1,0.7,6.2,1.5,9.1,2.8c1,0.6,2,1.3,3,2.1c0,0,0,0,0,0.1c0,9.7-1.2,19.4-2.3,29.1c-1.3,11.8-2.9,23.6-5.3,35.3
		c-1,4.6-2.1,9.2-4.1,13.5c-0.4,0.7-0.8,1.3-1.3,1.9c0,0,0,0,0,0c-0.2,0.1-0.5,0.2-0.7,0.4c-0.7,0.1-1.3,0.2-2,0.3
		c-4.7,0.1-9.6-0.3-14.3-0.5c-4.5-0.2-9.1-0.5-13.6-0.8c-7.2-0.4-14.5-0.9-21.7-1.2c-17.4-0.9-34.7-1.5-52-1.9
		c-4.5-0.1-9-0.2-13.5-0.1c-2,0-4,0-5.9,0c-3.6,0-7.3,0-10.9,0.1c-11.6,0.5-23.2,1-34.9,1.7c-0.1,0-0.3,0-0.4,0
		c0.2-6,0.6-12.1,0.9-18.1c0.3-6.5,0.6-13,0.9-19.6c0.8-17.3,1.6-34.5,2.4-51.8c0.9-0.6,1.8-1.1,2.8-1.5c0.2-0.1,0.5-0.1,0.7-0.1
		c0.6,0,1.2,0,1.8-0.1c-0.1,0-0.3,0-0.4,0C640.4,458.8,644.6,458.5,648.7,458.5L648.7,458.5L648.7,458.5z M636,458.9
		c-0.2,0-0.3,0-0.5,0C635.7,458.9,635.8,458.9,636,458.9L636,458.9L636,458.9z M631.7,460.5c-0.1,0-0.2,0.1-0.2,0.2c0,0,0,0,0,0
		C631.5,460.6,631.6,460.5,631.7,460.5L631.7,460.5L631.7,460.5z M809.8,471.2c0,0.1,0.1,0.3,0.1,0.4
		C809.8,471.4,809.8,471.3,809.8,471.2L809.8,471.2L809.8,471.2z M809.2,471.5c0.1,0.1,0.3,0.2,0.4,0.3
		C809.5,471.8,809.4,471.6,809.2,471.5L809.2,471.5L809.2,471.5z M810.2,473c0,0.2,0,0.4,0,0.6C810.2,473.4,810.2,473.2,810.2,473
		L810.2,473L810.2,473z M802.3,537.8c0,0.2-0.1,0.4-0.1,0.6C802.2,538.2,802.3,538,802.3,537.8L802.3,537.8L802.3,537.8z
		 M627.4,550.1C627.4,550.1,627.3,550.1,627.4,550.1C627.3,550.1,627.3,550.1,627.4,550.1C627.3,550.1,627.4,550.1,627.4,550.1
		L627.4,550.1L627.4,550.1z M798.2,551.1c-0.2,0.2-0.3,0.4-0.5,0.6C797.9,551.4,798,551.3,798.2,551.1L798.2,551.1L798.2,551.1z
		 M628.7,565.9c-0.2,0-0.5,0-0.7,0C628.2,566,628.5,566,628.7,565.9L628.7,565.9L628.7,565.9z"/>
	<path style="fill:#161616;" d="M622.8,557.3c-0.5,11.7-1,23.5-1.3,35.2c-0.2,9.5-0.2,18.9-0.5,28.4c-0.8,19.9-1.8,39.8-3.1,59.7
		c-0.6,9.3-1.3,18.6-2,27.9c-0.3,4.6-0.7,9.2-1,13.8c-0.3,4.5-0.4,9.1-1.2,13.6c0,0.1-0.1,0.2-0.1,0.4c-0.1,0.1-0.1,0.2-0.2,0.3
		c-0.1,0.1-0.2,0.2-0.3,0.2c-1.8,1-3.6,1.8-5.6,2.5c-4.3,1.4-8.6,2.7-12.8,4.2c-4.8,1.6-9.4,3.4-14.1,5.2
		c-10.2,4-19.2,10.1-27.8,16.7c-3.9,3-7.7,6-11.5,9.2c-14.9,12.7-26.6,28.9-36.3,45.9c-5,8.7-9.6,17.6-13.6,26.8
		c-3.7,8.7-6.9,17.6-9.9,26.5c-6.4,18.8-12.4,37.8-17.5,57.1c-5.3,20.2-9.4,40.8-13,61.4c-3.4,19.4-5.8,38.9-8.2,58.4
		c-1.3,10.3-2.4,20.5-3.5,30.8c-1,8.8-2,17.7-2.9,26.6c-2.1,20.8-4,41.6-5.7,62.5c-1.6,19.3-2.9,38.6-3.6,57.9
		c-0.8,20.5-1.3,41-2,61.6c-1.3,38.8-4.6,77.6-7.5,116.4c-0.7,9.4-1.5,18.8-2.1,28.2c-0.3,4.4-0.6,8.9-0.9,13.3
		c-0.2,2.6-0.3,5.3-0.5,7.9c-0.1,2.1-0.3,4.2-0.2,6.3c0.1,1.7,0.2,3.3,0.5,5c0.3,1.8,1.2,3.7,2,5.4c1.6,4,6.9,5.5,10.6,3.7
		c1.9-0.9,3.3-2.5,4-4.5c0.8-2.1,0.5-4.1-0.3-6.2c-0.2-0.4-0.3-0.9-0.5-1.3c-0.2-0.7-0.3-1.4-0.4-2c0-3,0.3-6.1,0.5-9.1
		c0.2-2.5,0.3-5.1,0.5-7.6c0.3-4.7,0.6-9.4,1-14.1c0.7-9.9,1.5-19.7,2.3-29.6c1.5-19,2.9-38,4.2-57c1.3-20.2,2.4-40.4,3.1-60.6
		c0.7-19.7,1.2-39.3,2-59c0.8-20.4,2.4-40.8,4.1-61.1c1.6-19.5,3.4-39,5.4-58.5c2-19.3,4.2-38.7,6.6-58c2.6-20.6,5.4-41.1,9-61.6
		c1.4-8.2,3.1-16.3,4.8-24.4c1.1-4.9,2.2-9.8,3.3-14.8c1.1-4.7,2.4-9.4,3.6-14.1c2.5-9.7,5.6-19.2,8.5-28.7c2.8-9.3,5.9-18.4,9-27.6
		c2.9-8.6,6-17.1,9.7-25.4c2-4.3,4-8.6,6.2-12.8c7.9-14.7,16.8-28.6,27.6-41.3c4-4.2,8.3-8.1,12.8-11.9c2.2-1.9,4.5-3.6,6.8-5.4
		c3.9-3,7.7-5.9,11.8-8.7c9-5.6,18.7-9.3,28.6-12.7c5.5-1.8,11.1-3.4,16.5-5.6c2.7-1.1,5.3-2.8,7.3-4.9c1.4-1.4,2.3-2.8,3.2-4.5
		c0.7-1.5,1.1-2.9,1.4-4.5c0.6-3.1,0.8-6.2,1-9.4c0.7-9.7,1.4-19.4,2.1-29.2c1.4-19.7,2.6-39.4,3.6-59.1c0.6-12.4,1-24.9,1.2-37.3
		c0.2-15,0.7-30.1,1.4-45.1c0.2-4.3-2.9-8.3-7.4-8.6c-0.2,0-0.4,0-0.6,0C626.8,549.9,623,553.1,622.8,557.3L622.8,557.3L622.8,557.3
		z M614.4,735.5c-0.1,0.1-0.2,0.2-0.3,0.3C614.2,735.7,614.3,735.6,614.4,735.5L614.4,735.5L614.4,735.5z M613.2,737.1
		c-0.1,0.2-0.2,0.4-0.3,0.5C613.1,737.5,613.1,737.3,613.2,737.1L613.2,737.1L613.2,737.1z"/>
	<path style="fill:#161616;" d="M802.7,554.2c-1.4,1.2-1.8,2.6-2.2,4.3c-1.7,8.1-3.1,16.2-4.3,24.4c-1.1,7.7-1.5,15.3-1.9,23.1
		c-0.4,7.7-0.1,15.5,0.1,23.2c0.2,8.1,0.4,16.1,0.6,24.2c0.4,14.7,0.5,29.5-0.1,44.3c-0.7,15.7-1.9,31.3-3.3,47
		c-0.3,3.4-0.7,6.8-1.1,10.1c-0.2,1.6-0.4,3.3-0.6,4.9c-0.2,1.2-0.3,2.4-0.5,3.5c-0.4,2.9,0.3,5.8,1.5,8.5c1.1,2.5,3.2,4.4,5.2,6.1
		c2,1.7,4.6,2.8,7,3.8c4.3,1.9,8.9,3.3,13.4,4.6c3.5,1,7,2.1,10.6,3.1c3.6,1,7.2,2,10.8,3.2c3.6,1.2,7.3,2.2,10.8,3.5
		c2,0.8,3.9,1.5,5.9,2.2c1.5,0.6,3.2,1.1,4.7,1.8c3.5,1.6,7.1,3.3,10.6,4.9c2.8,1.5,5.5,2.9,8.3,4.4c3,1.6,5.9,3.5,8.8,5.2
		c1.2,0.7,2.4,1.6,3.5,2.4c1.7,1.2,3.4,2.3,5.1,3.5c1.3,0.9,2.4,1.9,3.6,2.8c1.5,1.2,3.1,2.4,4.6,3.6c2,1.8,4,3.6,6,5.4
		c2.5,2.3,4.8,4.9,7.1,7.4c2.8,3.2,5.4,6.6,7.8,10.1c6.1,9.5,11,19.7,14.7,30.3c3.1,9.6,5.3,19.4,6.9,29.4c0.8,5.2,1.5,10.3,2,15.5
		c0.5,4.2,0.7,8.4,1,12.6c0.6,12.6,1,25.3,1.1,37.9c0,2.2,0.4,4.1,1.9,5.8c1.4,1.6,3.4,2.6,5.5,2.8c2.1,0.2,4.2-0.5,5.8-1.9
		c1.5-1.3,2.8-3.4,2.8-5.5c-0.2-17.1-0.8-34.3-2-51.3c-0.6-7.7-1.8-15.4-3-23c-0.6-3.8-1.5-7.5-2.3-11.2c-0.8-3.8-2-7.5-3-11.2
		c-1.2-4.6-2.9-9.1-4.7-13.5c-2-5.1-4.5-10.1-7.1-15c-5-9.4-11.3-18.2-18.5-25.9c-3.5-3.7-7.3-7-11.1-10.4c-1.6-1.5-3.4-2.8-5.1-4.2
		c-1.6-1.2-3.1-2.6-4.7-3.7c-6.1-4.2-12.2-8.4-18.8-11.9c-3.9-2-7.7-4.2-11.7-6.1c-3.6-1.7-7.1-3.5-10.8-4.9
		c-3.9-1.5-7.7-3-11.6-4.2c-4-1.3-8-2.6-12-3.8c-4-1.2-8-2.3-12-3.5c-6.9-2-14-3.8-20.5-6.8c-0.8-0.5-1.5-0.9-2.2-1.5c0,0,0,0,0,0
		c0.2-3.7,0.7-7.4,1-11c0.3-4,0.7-8,1-12c0.6-7.5,1-15,1.4-22.5c0.9-15,1.3-30,0.9-45c-0.4-16.1-1.2-32.2-1.8-48.2
		c-0.3-7.2-0.4-14.5-0.2-21.7c0.3-7.8,0.9-15.4,1.9-23.2c1-7.2,2.3-14.4,3.8-21.5c0.3-1.5-0.5-3.5-1.5-4.6c-1.1-1.3-2.6-2.1-4.3-2.2
		c-0.2,0-0.3,0-0.5,0C805.3,552.7,803.8,553.2,802.7,554.2L802.7,554.2L802.7,554.2z M804.8,763.3c0,0.1,0,0.3,0,0.4
		C804.8,763.6,804.8,763.5,804.8,763.3L804.8,763.3L804.8,763.3z M805.4,765.4c0.1,0.1,0.1,0.2,0.2,0.2
		C805.5,765.5,805.4,765.5,805.4,765.4L805.4,765.4L805.4,765.4z"/>
	<path style="fill:#161616;" d="M991.5,1018.3c-1.8,1.5-2.3,3.3-2.8,5.5c-4.6,22.8-9,45.6-13.3,68.5c-0.4,2-0.6,3.9-0.9,5.9
		c-0.8,5.6-1.6,11.2-2.5,16.7c-1.3,9.2-2.7,18.4-4,27.5c-2.3,16-4.2,32.1-6.4,48.1c-2.4,17.8-4.9,35.5-7,53.3
		c-4,33.9-7.3,67.8-13.3,101.4c-3.1,17.1-6.4,34.1-9.6,51.2c-3.2,17.3-6.3,34.6-9.2,51.9c-2.2,13.3-4.6,26.6-7.3,39.8
		c-1.9,8.4-3.9,16.8-6.3,25.1c-1.1,3.8-2.3,7.5-3.7,11.2c-1.8,4.9-3.7,9.8-6,14.5c-3.1,5.8-6.8,11.1-11.1,16.1
		c-4.7,5-9.9,9.4-15.6,13.3c-9,5.7-18.8,10.3-28.8,13.8c-4.8,1.7-9.7,3.3-14.5,5c-7.6,2.2-15.1,4.4-22.8,6.2
		c-5.1,1.2-10.2,2.4-15.3,3.6c-3.9,0.9-7.9,1.6-11.8,2.4c-9,1.8-18,3.4-27,4.9c-7.3,1.2-14.6,2.4-21.9,3.3c-4.7,0.6-9.4,1.2-14,1.7
		c-4,0.5-7.9,0.7-11.9,1.1c-7.2,0.7-14.4,1.1-21.7,1.6c-4.2,0.2-8.3,0.4-12.5,0.7c-4.4,0.2-8.8,0.2-13.2,0.3
		c-8.5,0.2-17.1-0.2-25.6-0.4c-1.7,0-3.4-0.2-5.1-0.3c-2.1-0.1-4.3-0.1-6.4-0.3c-4.2-0.5-8.5-0.8-12.7-1.4
		c-8.2-1.3-16.4-2.5-24.5-4.2c-3.4-0.7-6.8-1.4-10.1-2.1c0.7,0.1,1.4,0.3,2.1,0.4c-14.1-3.2-28.1-6.5-41.7-11.4
		c-6.7-2.4-13.4-5-19.9-7.9c-3.1-1.3-6.2-2.8-9.3-4.1c-3.3-1.5-6.7-2.9-10.1-4.5c-3.1-1.4-7.1,0.2-9,2.9c-2.3,3.3-1.6,8.5,2,10.7
		c4,2.6,8.5,4.5,12.9,6.5c3.5,1.6,7.1,3.2,10.6,4.7c7.8,3.3,15.6,6.2,23.6,8.9c8.2,2.7,16.5,4.8,24.9,6.8c8.1,2,16.4,3.8,24.6,5.4
		c8.3,1.5,16.7,3.2,25.1,4.1c4.3,0.5,8.6,1,12.9,1.3c4.4,0.2,8.9,0.5,13.3,0.6c17.4,0.4,34.8,0.2,52.1-1c17-1.2,34-2.5,50.9-5
		c9.4-1.4,18.7-2.9,28.1-4.5c8.8-1.5,17.6-3.3,26.4-5.1c3.3-0.7,6.6-1.5,9.9-2.3c4.3-1,8.6-1.8,12.8-3c4.8-1.4,9.6-2.7,14.4-4.1
		c3.8-1.1,7.6-2.4,11.3-3.7c5.3-1.8,10.6-3.6,15.8-5.6c11.2-4.4,21.7-10,31.3-17.3c14.4-10.9,25.1-26.3,31.3-43.3
		c2.9-7.9,5.5-15.8,7.5-23.9c2.3-9.4,4.4-18.8,6.3-28.2c3.3-16.4,5.8-33,8.7-49.5c2.9-16.9,6.1-33.8,9.3-50.6
		c3.4-17.2,6.4-34.5,9.3-51.8c5.4-33,8.1-66.4,12.4-99.6c2.1-16.2,4.3-32.5,6.5-48.7c2.3-17.5,4.6-35.1,7.2-52.6
		c2-13.8,3.8-27.7,6.4-41.5c4-20.8,7.9-41.7,12.2-62.4c0.4-2-0.7-4.4-1.9-5.8c-1.4-1.6-3.4-2.6-5.5-2.8c-0.2,0-0.4,0-0.6,0
		C994.8,1016.3,993,1017,991.5,1018.3L991.5,1018.3L991.5,1018.3z M887.9,1555.3c-0.1,0.2-0.3,0.3-0.4,0.5
		C887.6,1555.7,887.7,1555.5,887.9,1555.3L887.9,1555.3L887.9,1555.3z"/>
	<path style="fill:#161616;" d="M585.8,987.5c-9.7,0.3-19.4,0.5-29.1,0.8c-6.9,0.2-13.8,0.3-20.7,0.7c-10.6,0.7-21.2,1.4-31.8,2
		c-11.6,0.8-23.1,1.6-34.7,2.6c-1.9,0.2-3.8,1.7-4.8,3.2c-1.2,1.7-1.6,3.8-1.2,5.8c0.4,2,1.5,3.7,3.2,4.8c1.8,1.3,3.7,1.4,5.8,1.2
		c7.7-0.6,15.4-1.4,23-1.9c5.6-0.4,11.2-0.7,16.8-1.1c9.4-0.6,18.7-1.2,28.1-1.8c9.1-0.2,18.3-0.5,27.4-0.7
		c6.9-0.2,13.8-0.4,20.6-0.4c10.3,0,20.6,0,30.9,0c8.8,0,17.7,0.4,26.5,0.6c16.5,0.4,32.9,1.2,49.4,2c17.3,0.8,34.7,1.8,52,2.8
		c33.6,1.9,67.3,3.9,100.9,6.1c15,1,30,2.1,45.1,3.2c8.2,0.6,16.4,1.3,24.7,1.9c8,0.6,16.1,1.1,24.1,1.1c2.1,0,3.9-0.4,5.5-1.8
		c1.5-1.3,2.5-3.2,2.6-5.2c0.3-4.2-2.9-7.7-7-8.1c-9-0.9-17.9-1.5-26.9-2.1c-8.1-0.6-16.1-1.2-24.2-1.8c-17.3-1.3-34.6-2.5-51.9-3.6
		c-34.4-2.1-68.8-4.1-103.3-6c-33.7-1.9-67.5-3.5-101.2-4.1c-7.5-0.2-14.9-0.3-22.4-0.3c-6.1,0-12.2,0-18.3,0c-2,0-4.1,0-6.1,0
		C587.8,987.5,586.8,987.5,585.8,987.5L585.8,987.5L585.8,987.5z"/>
	<path style="fill:#161616;" d="M564.5,1348.4c-7.8,0.1-15.6,0.3-23.5,0.7c-9,0.5-18,0.7-26.9,1.7c-8.7,1-17.3,1.8-26,3.1
		c-12.1,1.8-24.2,3.6-36.3,5.7c-4,0.7-6.7,4.8-5.9,8.8c0.8,4.1,4.8,6.7,8.8,5.9c13-2.3,26.1-4.2,39.2-6.2c3.6-0.5,7.2-0.9,10.8-1.3
		c5.5-0.6,10.9-1.2,16.4-1.8c8.5-0.4,16.9-0.9,25.4-1.3c2.9-0.1,5.8-0.1,8.6-0.1c6.1-0.1,12.2-0.2,18.3-0.3c7.6-0.1,15.2,0,22.9,0.1
		c7.7,0.1,15.4,0.2,23.1,0.4c8.6,0.3,17.1,0.4,25.7,0.9c9.8,0.5,19.7,1.1,29.5,1.6c17.4,1,34.8,2.3,52.1,3.6
		c33.4,2.4,66.7,5.5,100,8.6c15.1,1.4,30.1,3.2,45.1,4.9c7.8,0.9,15.6,1.9,23.3,2.8c8,1,15.9,2.1,23.9,2.9c4.3,0.4,8.2-3,8.5-7.3
		c0.4-4.5-3-7.9-7.3-8.5c-16.7-2.3-33.5-4.1-50.3-6.1c-17-2-33.9-3.7-50.9-5.3c-33.5-3.1-67.1-5.9-100.7-8.3
		c-16.1-1.1-32.3-2.3-48.4-3.1c-8.7-0.5-17.3-1.1-26-1.3c-10-0.3-19.9-0.6-29.9-1c-8.9-0.3-17.8-0.2-26.7-0.3c-1.1,0-2.2,0-3.4,0
		C577.5,1348.1,571,1348.3,564.5,1348.4L564.5,1348.4L564.5,1348.4z M519.8,1365.1c-0.2,0-0.3,0-0.5,0
		C519.4,1365.2,519.6,1365.2,519.8,1365.1L519.8,1365.1L519.8,1365.1z"/>
	<path style="fill:#161616;" d="M432.5,1371.5c-0.3,3.9,2.8,7.9,6.9,8.1c4.9,0.1,9.8,0.3,14.7,0.2c4.7-0.1,9.4-0.4,13.9-1.4
		c3-0.7,5.2-3.1,5.5-6.1c0.1-1.8-0.4-3.6-1.6-4.9c-1-1.2-2.9-2.4-4.6-2.3c-4,0.2-8,0-12,0c-4.9-0.1-9.8-0.2-14.7-0.3
		c-0.1,0-0.2,0-0.3,0C436.3,1364.6,432.8,1367.3,432.5,1371.5L432.5,1371.5L432.5,1371.5z"/>
	<path style="fill:#161616;" d="M1283.1,1077.4c-0.1,0-0.1,0-0.2,0c-7.6,0.4-15.3,0.4-22.9,0.6c-8.3,0.2-16.6,0.4-25,0.7
		c-18.4,0.6-36.8,1.3-55.2,2c-17.2,0.6-34.5,1-51.7,1.2c-6.6,0.1-13.1,0.2-19.7,0.1c-11.7-0.2-23.4-0.5-35.2-0.7
		c-8.6-0.2-17.2-0.5-25.8-0.9c-4.4-0.2-8.3,2.9-8.6,7.4c-0.3,4.2,3,8.4,7.4,8.6c12,0.5,23.9,0.8,35.9,1.1
		c10.1,0.2,20.3,0.4,30.5,0.6c2.5,0,4.9-0.1,7.4-0.1c6.2-0.1,12.3-0.2,18.5-0.2c7.6-0.1,15.1-0.3,22.6-0.5
		c35.1-1.1,70.3-2.7,105.4-3.5c3.8-0.1,7.5-0.1,11.2-0.3c2.4-0.1,4.8-0.2,7.1-0.3c2.9-0.2,5.7-0.4,8-2.5c2.1-1.9,3.2-4.7,2.6-7.5
		c-0.5-2.5-2.5-5.2-5.1-5.9c-1-0.3-2.1-0.5-3.2-0.7c-0.3,0-0.6-0.1-0.8-0.1C1285.2,1076.6,1284.1,1076.9,1283.1,1077.4
		L1283.1,1077.4L1283.1,1077.4z"/>
	<path style="fill:#161616;" d="M1285.5,1076.5c-3.1,1.5-4.8,5-4.1,8.3c0.4,1.9,1.5,3.7,3.1,4.8c0.7,0.5,1.6,0.9,2.5,1.1
		c0.2,5.6,0.3,11.1,0.4,16.7c0,6.8-0.4,13.7-0.6,20.5c-0.3,6.6-0.4,13.3-0.8,19.9c-0.3,6.4-1.4,12.6-2.5,18.9
		c-1.4,5.9-2.9,11.8-4.8,17.6c-1.5,4.5-3.3,8.9-5.4,13.2c-0.9,1.9-1.9,3.8-2.8,5.6c-3.2,5.5-6.5,10.9-10.2,16.1
		c-2.2,3-4.4,6.1-6.6,9.1c-1,1.4-2.2,2.7-3.3,4c-1,1.3-2.1,2.5-3.1,3.8c-1.7,1.9-3.5,3.8-5.2,5.6c-2,2.2-4.4,4.2-6.6,6.2
		c-2.2,2-4.6,3.8-6.9,5.7c-1.2,1-2.6,1.8-3.8,2.8c-1.2,0.8-2.3,1.7-3.5,2.5c-6.2,3.9-12.7,7.2-19.6,9.6c-5.2,1.6-10.5,2.9-15.9,3.5
		c-2.4,0.2-4.8,0.5-7.2,0.7c-3.2,0.1-6.4,0.3-9.6,0.2c-2.5-0.1-5-0.1-7.5-0.2c-2-0.1-4-0.4-6-0.5c-4.1-0.4-8.2-0.9-12.3-1.5
		c-3.1-0.4-6.2-1.1-9.4-1.7c-3.7-1-7.4-1.9-11-3.1c-2.3-0.8-4.6-1.5-6.9-2.3c-4.6-1.5-9.1-3.7-13.5-5.9c-8.1-4.3-15.6-9.5-22.5-15.6
		c-4.2-3.9-8.1-8.1-11.5-12.9c-0.4-0.6-0.7-1.1-1.1-1.7c-3.9-6.5-7.4-13.2-10.6-20c-3.1-6.5-5.7-13.2-8.1-20
		c-2.4-7.9-4.5-15.9-6.2-24c-0.8-3.6-1.5-7.3-2-10.9c-0.5-3.7-0.8-7.4-1.1-11.2c-0.1-7.8,0.4-15.5,1.1-23.3
		c0.7-8.3,2.2-16.4,3.8-24.6c0.3-1.6-0.6-3.7-1.6-4.9c-1.1-1.3-2.8-2.2-4.5-2.3c-1.8-0.1-3.5,0.4-4.9,1.6c-1.5,1.3-2,2.7-2.3,4.6
		c-1.6,8-3.2,15.9-4.1,24c-0.9,8.1-1.6,16.1-1.6,24.2c0,4.2,0.4,8.5,0.8,12.6c0.5,4,1.1,7.9,1.8,11.8c1.3,7.6,3.2,15.2,5.3,22.6
		c2.4,8.2,5.4,16.1,8.8,23.9c3,6.7,6.2,13.4,9.9,19.7c1.1,1.8,2.2,3.6,3.4,5.4c2.7,4.2,5.8,8.1,9.3,11.7
		c7.6,7.8,16.3,14.6,25.7,20.1c7.4,4.3,15.3,7.9,23.4,10.6c2.1,0.7,4.2,1.4,6.3,2.1c2,0.7,4.1,1.1,6.1,1.7c4.4,1.2,8.8,2,13.2,2.9
		c1.5,0.3,3.1,0.5,4.7,0.7c1.9,0.3,3.9,0.7,5.8,0.8c3.8,0.4,7.6,0.9,11.4,1c4.3,0.1,8.5,0.3,12.8,0.1c4.7-0.2,9.4-0.5,14.2-1
		c10-0.9,19.8-4,28.9-8.1c7.1-3.2,13.5-7.7,19.8-12.2c3.1-2.2,6-4.7,9-7.2c1.4-1.2,2.8-2.6,4.1-3.9c1.2-1.1,2.4-2.2,3.5-3.5
		c3.1-3.4,6.3-6.8,9.2-10.3c1.4-1.7,2.7-3.4,4.1-5c1.2-1.5,2.3-3.2,3.5-4.8c2.4-3.4,4.7-6.8,7-10.2c4.9-7.4,9.2-15.3,12.8-23.5
		c5.2-11.8,8.2-24.5,10.3-37.1c1.1-6.5,1.5-13,1.7-19.6c0.3-7.3,0.5-14.6,0.8-21.9c0.3-6.7,0.4-13.5,0.2-20.2
		c-0.1-3.5-0.2-7.1-0.3-10.6c-0.1-3-0.1-6.4-1.4-9.2c-1.4-2.9-4.3-5.3-7.6-5.6c-0.4,0-0.8-0.1-1.2-0.1
		C1290.1,1074.6,1287.8,1075.3,1285.5,1076.5L1285.5,1076.5L1285.5,1076.5z"/>
	<path style="fill:#161616;" d="M1246.1,1125.4c-4.6,0-9.3,0-13.9,0c-7,0-14.1,0.3-21.1,0.6c-16.5,0.7-33,1.5-49.4,2.1
		c-31,1.3-61.9,2.7-92.9,4.7c-4.5,0.3-9.1,0.6-13.6,0.9c-2.2,0.1-4.3,0.3-6.5,0.5c-0.8,0.1-1.8,0.1-2.6,0.3c-1,0.3-2.3,0.6-3.2,1
		c-1.3,0.6-2.5,1.4-3.7,2.3c-1.8,1.3-2.5,3.9-2.1,6c0.5,2.6,2.9,5.1,5.7,5.1c0.9,0,1.8,0,2.7,0.1c1.2,0.1,2.4,0.1,3.6,0
		c1.1-0.1,2.3-0.2,3.4-0.3c2.6-0.3,5.2-0.5,7.8-0.7c4.8-0.4,9.6-0.8,14.4-1.1c9.8-0.7,19.6-1.3,29.4-1.8c0,0,0,0,0,0
		c30.7-1.8,61.5-2.9,92.3-3.9c13.8-0.5,27.6-0.8,41.4-0.7c6.7,0.1,13.4,0.4,20.1,0.7c2.9,0.1,5.9,0.5,8.8,0.7
		c3.9,0.4,7.7,0.8,11.5,1.3c-7.1,1.6-14.4,2.6-21.6,3.6c-10.8,1.5-21.7,2.5-32.5,3.3c0.1,0,0.2,0,0.3,0c-31.1,1.6-62.3,1.5-93.4,1.2
		c-29.4-0.3-58.7-0.9-88.1-1.7c-3.9-0.1-7.4,2.6-7.7,6.6c-0.3,3.8,2.7,7.6,6.6,7.7c34,0.9,68,1.7,102,2.2
		c15.9,0.2,31.7,0.2,47.6,0.1c15.5-0.1,31-0.5,46.5-1.8c8.1-0.7,16.1-1.6,24.1-2.6c7.2-1,14.5-2,21.6-3.6c4-0.9,8.1-2.1,11.8-3.9
		c1.5-0.8,2.9-1.8,4.3-2.9c2.1-1.7,3.5-4,4.6-6.4c0.7-1.6,0.4-3.3,0.3-4.9c-0.1-1.2-1.2-3.4-2-4.3c-2.2-2.4-4.9-3.9-7.9-5
		c-2.5-1-5.2-1.5-7.8-2c-2.4-0.5-4.9-0.9-7.4-1.2c-3.2-0.4-6.3-0.7-9.5-1c-3.8-0.3-7.6-0.6-11.3-0.8c-4.1-0.1-8.2-0.4-12.2-0.4
		C1246.3,1125.4,1246.2,1125.4,1246.1,1125.4L1246.1,1125.4L1246.1,1125.4z M1226.2,1150c-0.4,0-0.8,0-1.2,0.1
		C1225.4,1150,1225.8,1150,1226.2,1150L1226.2,1150L1226.2,1150z"/>
	<path style="fill:#161616;" d="M1137.9,1287.2c-0.4,4.8-0.7,9.6-1,14.4c-0.3,4.1-0.2,8.3-0.3,12.4c-0.2,8.3-0.2,16.5-0.3,24.8
		c-0.2,15.3-1,30.5-2,45.8c-1.1,16.3-2.3,32.5-3.6,48.7c-1.3,15.6-2.6,31.1-3.4,46.7c-0.6,11.6-1.1,23.2-1.8,34.7
		c-0.3,5.8-0.7,11.6-1,17.5c-0.2,2.8-0.4,5.6-0.6,8.4c-0.1,1-0.1,2-0.2,3c-1.3,0.9-2.4,2.2-2.9,3.8c-0.1,0.3-0.2,0.6-0.3,0.9
		c-6,1.7-12.1,2.4-18.3,3.2c-3.8,0.5-7.6,1-11.3,1.5c-7.4,1-14.9,2-22.3,3.4c-4,0.8-8.2,1.4-12.2,2.3c-4.1,0.9-8.3,1.7-12.3,2.8
		c-3.7,1-7.5,1.9-11.2,3c-4.5,1.4-9,2.8-13.4,4.3c-7.3,2.4-14.5,5.2-21.2,8.9c-3.7,2.1-7.2,4.3-10.7,6.7c-1.4,1-2.8,2-4.2,3
		c-1.9,1.5-3.7,3.3-4.6,5.5c-0.5,1.3-0.8,2.5-0.8,3.9c0.1,2.3,0.6,4.9,2.2,6.6c0.8,0.8,1.7,1.6,2.6,2.3c1.2,0.9,2.8,1.5,4.2,2
		c1.6,0.6,3.3,1,4.9,1.4c2.6,0.6,5.2,1.2,7.9,1.7c3.9,0.7,7.8,0.9,11.7,1.2c7.9,0.5,15.8,0.2,23.7,0c15.2-0.4,30.3-1.6,45.5-2.3
		c15.9-0.7,31.8-1.1,47.7-2c16.4-0.9,32.8-2,49.2-3.4c15.8-1.4,31.6-2.8,47.3-4.6c9.6-1.1,19.1-2.5,28.5-4.1
		c4.2-0.7,8.4-1.4,12.7-2.1c2.1-0.4,4.2-0.7,6.3-1.1c3.2-0.6,6.6-1,9.5-2.5c3.1-1.6,5.2-5.2,4.4-8.7c-0.4-1.7-1-3.8-2.2-5
		c-1.4-1.4-2.8-2.5-4.5-3.5c-2.7-1.6-5.6-2.7-8.6-3.7c-2.9-0.9-5.9-1.7-8.9-2.4c-6.1-1.4-12.2-2.7-18.3-4c-14.6-3.2-29-7-43.6-10.2
		c-15.2-3.3-30.5-6.2-46-7.7c-3.8-0.4-7.7-0.7-11.5-1c-1-0.1-2.1-0.2-3.2-0.2c0-0.5,0.1-1.1,0.1-1.6c0.2-3.8,0.4-7.6,0.6-11.3
		c0.4-8.2,0.8-16.5,1.2-24.7c0.7-15.8,1.3-31.5,2.4-47.3c1-15.3,2.2-30.6,3.2-45.9c1.1-17,2-33.9,2.7-50.9
		c0.5-11.4,0.4-22.8,0.4-34.2c0-6.2,0-12.4,0.1-18.6c0.1-6.9,0.5-13.7,1.1-20.6c0.3-3.6-2.5-6.8-6.1-7.1c-0.2,0-0.3,0-0.5,0
		C1141.1,1281.1,1138.2,1283.8,1137.9,1287.2L1137.9,1287.2L1137.9,1287.2z M1049.4,1576.6c8.1-1.8,16.2-3.7,24.4-5
		c8.4-1.3,16.8-2.5,25.2-3.7c3.8-0.5,7.6-1,11.5-1.5c3.1-0.4,6.2-0.9,9.3-1.6c2.7-0.6,5.5-1.3,8-2.3c2.3-0.9,4.4-2,6.3-3.5
		c0.8,0.1,1.7,0.1,2.5,0.2c2.8,0.2,5.6,0.5,8.4,0.7c5.4,0.5,10.8,1,16.2,1.7c11.3,1.4,22.4,3.6,33.5,5.9c8.7,1.9,17.4,4.1,26.1,6.2
		c9.6,2.3,19.2,4.4,28.9,6.4c-6.4,1-12.8,2-19.2,2.9c-15.6,2.1-31.4,3.5-47.1,4.9c-15.5,1.4-31.1,2.6-46.6,3.5
		c-15.1,0.8-30.3,1.3-45.5,2c-16.1,0.7-32.1,1.7-48.2,2.4c-14.1,0.6-28.4,1.3-42.4-1c3.8-2.3,7.6-4.5,11.7-6.3
		c5.1-2.2,10.3-4.1,15.5-5.9C1035,1580.4,1042.1,1578.2,1049.4,1576.6L1049.4,1576.6L1049.4,1576.6z M1244.4,1562.7
		c0.2,0,0.4,0.1,0.5,0.1C1244.7,1562.8,1244.6,1562.8,1244.4,1562.7L1244.4,1562.7L1244.4,1562.7z"/>
	<path style="fill:#161616;" d="M934.4,1366.8c-4.3,1.8-8.7,3.6-13,5.3c-3.5,1.4-4.8,6.1-3.2,9.3c0.8,1.6,2.2,2.9,3.9,3.5
		c1.9,0.7,3.5,0.3,5.4-0.3c4.5-1.5,8.8-3.3,13.1-5.1c3.5-1.5,4.9-6.1,3.3-9.4c-1.3-2.6-3.7-3.9-6.3-3.9
		C936.5,1366.2,935.4,1366.4,934.4,1366.8L934.4,1366.8L934.4,1366.8z"/>
	<path style="fill:#161616;" d="M950.8,1290.9c-14.2,12.8-28.5,25.6-42.9,38.2c-11.6,10.1-23.4,20-34.9,30.2c-0.7,0.6-1.3,1.2-2,1.8
		c-3,2.7-3.4,7.2-0.8,10.3c2.6,3.1,7.2,3.3,10.3,0.8c6.3-5.1,12.3-10.6,18.4-16c6-5.3,11.9-10.6,17.9-15.9
		c13.4-11.9,26.7-23.8,40-35.9c1-0.9,2.1-1.9,3.1-2.8c2.8-2.6,3.3-6.9,0.8-9.9c-1.4-1.6-3.4-2.4-5.4-2.4
		C953.6,1289.2,952,1289.8,950.8,1290.9L950.8,1290.9L950.8,1290.9z"/>
	<path style="fill:#161616;" d="M957,1239.6c-7.6,5.4-15.1,11.2-22.5,16.9c-5.8,4.4-11.4,9.2-17.1,13.8c-5.3,4.3-10.4,9-15.6,13.5
		c-4.9,4.2-9.6,8.7-14.3,13.1c-5.7,5.3-11.4,10.5-17.2,15.7c-4.7,4.3-9.5,8.6-14.4,12.6c-10.4,8.6-20.8,17.3-32,24.8
		c-0.5,0.3-0.9,0.6-1.4,0.9c-1.7,1.1-3.1,2.2-3.8,4.2c-0.7,1.9-0.6,4,0.3,5.8c0.9,1.8,2.4,3.1,4.2,3.8c1.3,0.5,2.6,0.6,4,0.3
		c1.3-0.3,2.5-0.8,3.5-1.7c5.8-3.9,11.2-8.4,16.6-12.9c5.9-5,11.8-10.1,17.7-15.1c5.4-4.6,10.6-9.6,15.7-14.5
		c5.4-5.2,10.9-10.5,16.3-15.7c4.4-4.3,8.8-8.6,13.4-12.7c5.2-4.7,10.3-9.5,15.7-13.9c5.4-4.5,10.7-9.1,16.3-13.4
		c7.4-5.6,14.7-11.3,22.2-16.7c2.6-1.8,2.5-5.9,0.6-8.1c-1-1.2-2.4-1.9-3.9-2c-0.1,0-0.3,0-0.4,0
		C959.3,1238.2,958.2,1238.8,957,1239.6L957,1239.6L957,1239.6z M823.2,1350.3c-0.2,0.1-0.4,0.3-0.6,0.4
		C822.8,1350.6,823,1350.4,823.2,1350.3L823.2,1350.3L823.2,1350.3z"/>
	<path style="fill:#161616;" d="M721.5,559.9c0,3.1,0.5,6.2,0.7,9.4c0.2,7.3-0.2,14.5-0.5,21.8c-0.3,7.8-0.3,15.6-0.2,23.5
		c0.2,16.9-0.4,33.9-0.8,50.8c-0.3,17.1,0,34.2-0.3,51.3c-0.1,8.6-0.6,17.3-0.9,25.9c-0.2,4.6-0.3,9.3,0.1,14
		c0.1,2.1,0.3,4.2,0.7,6.3c0.9,4.8,4.1,8.6,8.3,10.8c2.9,1.6,5.7,3.1,8.2,5.1c0.9,0.9,1.7,1.9,2.5,2.9c1.1,1.9,2,3.9,2.8,5.9
		c0.6,2.1,1,4.3,1.2,6.5c0,1.5,0.1,3,0.1,4.4c0,3.8-0.4,7.4-1.1,11.1c-0.2,1.1-0.5,2.1-0.7,3.2c-0.7,3.4-2,6.6-3.5,9.8
		c-2.3,4.2-5.3,8.2-8.4,11.8c-1.6,1.6-3.2,3.2-5,4.5c-3.3,2-6.6,3.6-10.2,5c-2.5,0.7-5,1.5-7.6,2c-3,0.6-5.9,1-8.9,1.4
		c-3.8,0.1-7.6,0.1-11.4-0.6c-4.4-1.1-8.8-2.5-13-4.4c-3-1.8-5.8-4-8.5-6.3c-1.7-1.6-3.2-3.3-4.7-5.2c-0.2-0.2-0.4-0.5-0.5-0.8
		c-2.1-3.7-3.9-7.4-5.4-11.4c-1.1-3.8-1.9-7.5-2.2-11.4c0-1.9,0-3.9,0.2-5.8c0.3-1.9,0.6-3.8,0.9-5.8c0.8-3,1.8-5.8,3.1-8.6
		c1.7-3,3.5-6,5.7-8.6c1.5-1.5,3.1-2.9,4.8-4.1c3.2-2,6.4-3.8,9.9-5.1c2.6-0.8,5.3-1.2,8-1.6c5.1-0.7,11-2.4,12.9-7.8
		c1.1-3.1,1.1-6.2,1.1-9.4c0-2,0-3.9,0-5.9c0-8.4,0.2-16.8,0.4-25.2c0.5-17.4,0.5-34.9,0.3-52.3c-0.1-10.8-0.4-21.5-0.6-32.3
		c-0.3-14-0.9-28.2,1.3-42.1c1.2-7.4,2.3-14.8,3.5-22.1c0.7-4.3-3.3-8.3-7.4-8.6c-2.1-0.2-4.2,0.5-5.8,1.9c-1.7,1.5-2.4,3.3-2.8,5.5
		c-1,6.3-2,12.6-3,18.8c-0.4,2.3-0.7,4.6-1,7c-0.8,6.6-1,13.1-1,19.7c0,13.6,0.4,27.2,0.7,40.7c0.3,17,0.5,34,0.2,51.1
		c-0.1,8.1-0.4,16.2-0.6,24.4c-0.1,3.9-0.1,7.9-0.1,11.8c0,1.9,0,3.8,0,5.7c0,1.1,0,2.3,0,3.4c-1.3,0.2-2.6,0.4-3.9,0.6
		c-5.2,0.9-10.1,2.6-14.8,5.1c-2.5,1.3-5.1,3-7.4,4.6c-5,3.5-8.8,8.1-12,13.3c-2.6,4.3-4.9,8.9-6.2,13.8c-0.8,3-1.4,6.2-1.8,9.3
		c-0.6,4.5-0.7,9.2-0.1,13.8c1.1,8.3,4,16.5,8.2,23.8c1.6,2.7,3.3,5.3,5.3,7.6c2.8,3.4,6.4,6.1,9.8,8.9c5.1,4,11.3,6.7,17.6,8.4
		c5.8,1.6,11.7,2.8,17.7,2.5c2.7-0.1,5.4-0.3,8.1-0.6c2.2-0.3,4.4-0.7,6.6-1.1c1.7-0.3,3.4-0.8,5.1-1.3c4.1-1.2,8.1-2.5,12-4.4
		c3.1-1.6,6.2-3.4,9-5.5c2.3-1.7,4.3-4,6.1-6.1c1.2-1.4,2.4-2.8,3.5-4.2c4.5-5.9,8.2-12.3,10.3-19.4c0.7-2.4,1.2-4.8,1.7-7.3
		c0.7-3.1,1.2-6.3,1.5-9.5c0.1-1.7,0.1-3.3,0.1-5c0-2.9-0.2-5.7-0.3-8.6c-0.2-3.1-1.1-6.2-2.2-9.1c-0.4-1-0.7-2.1-1.2-3.1
		c-2.1-4.6-5-8.6-8.8-11.9c-1.7-1.5-3.4-2.7-5.4-3.8c-1.8-1-3.8-1.9-5.5-3.1c-0.3-1.4-0.4-2.9-0.5-4.3c-0.1-8.6,0.2-17.1,0.6-25.7
		c0.3-8.3,0.5-16.5,0.4-24.8c0-17.1,0-34.2,0.5-51.3c0.2-8.6,0.5-17.1,0.5-25.7c0-8-0.2-16.1-0.2-24.1c0-8,0.7-15.9,0.9-23.9
		c0.2-6.9-0.3-13.8-0.9-20.7c-0.3-3.5-3.9-6.2-7.2-6.4c-0.2,0-0.4,0-0.5,0C725.6,552.6,721.5,555.8,721.5,559.9L721.5,559.9
		L721.5,559.9z M736.1,759.8c0.2,0.2,0.3,0.3,0.5,0.5C736.4,760.1,736.2,759.9,736.1,759.8L736.1,759.8L736.1,759.8z"/>
	<path style="fill:#161616;" d="M1161.7,1278.7c-1.7,17.6-3.1,35.3-4.3,53c-1,15.1-1.7,30.2-2.3,45.3c-0.7,15.9-1.3,31.8-1.8,47.7
		c-0.5,15.8-0.6,31.6-1,47.4c-0.3,12.1-0.9,24.3-2.1,36.4c-0.6,5.9-1.3,11.8-1.9,17.7c-0.3,2.8-0.6,5.7-0.7,8.5
		c-0.1,1.5-0.2,3-0.2,4.5c-0.1,1.6,0,3.2-0.1,4.8c-0.8,3,0.3,6.3,3,8.2c2.7,1.9,6.7,1.8,9.2-0.5c1.2-1.1,2.2-2.2,2.8-3.7
		c0.5-1.4,0.8-2.8,1-4.3c0.1-0.7,0.1-1.5,0.1-2.2c0-1.9,0.1-3.7,0.2-5.6c0.2-3.5,0.5-7.1,0.8-10.6c0.7-7.5,1.4-14.9,1.9-22.4
		c1.1-15.4,1.2-30.8,1.1-46.2c0-30.2,0.2-60.4,1.3-90.6c0.2-6.6,0.3-13.2,0.7-19.8c0.5-8.1,0.9-16.1,1.4-24.2
		c0.8-14.2,2.1-28.3,3.4-42.5c0.3-3.4-2.4-6.5-5.8-6.7c-0.2,0-0.3,0-0.5,0C1164.7,1272.9,1162,1275.4,1161.7,1278.7L1161.7,1278.7
		L1161.7,1278.7z"/>
	<path style="fill:#161616;" d="M1461.5,1012.2c-13.8,0.4-27.7,1-41.5,1.9c-6.8,0.4-13.6,0.8-20.4,1.9c-3.2,0.5-6.3,1.1-9.5,1.6
		c-3.7,0.6-7.7,0.9-11,2.7c-2.7,1.4-4.4,4.2-4.1,7.3c-1.8,1.1-3,3-3,5.2c0,18,0.4,36,0.6,53.9c0,3.8,0.1,7.6,0.2,11.4
		c0,0.8,0,1.5,0.1,2.2c0,1.6-0.1,3.3,0.4,4.8c0.5,1.6,0.8,2.6,1.9,3.9c1,1.1,2.3,2,3.6,2.5c1.8,0.7,3.8,1,5.7,1.4
		c4.1,0.8,8.4,1,12.5,1.3c4.2,0.3,8.3,0.5,12.5,0.7c16.4,0.7,32.8,0.9,49.3,1c15.8,0.1,31.7,0.2,47.5-0.2
		c16.4-0.4,32.9-0.8,49.3-1.5c16.1-0.7,32.2-1.6,48.2-2.3c16.5-0.7,33-1.5,49.5-1.7c8-0.1,16-0.2,24-0.1c3.4,0,6.7,0.1,10.1,0.2
		c5.1,0,10.5,0,14.8-3c4.3-3,6.5-8.2,7.7-13.1c1.4-5.8,2.3-11.8,2.9-17.8c0.5-4.8,0.9-9.7,1.1-14.6c0.3-7.8,0.4-15.6,0.8-23.5
		c0.1-2.5,0.4-5,0.1-7.5c-0.1-1.3-0.6-2.5-1.1-3.7c-0.6-1.6-2-2.6-3.3-3.6c-0.9-0.7-2.4-1.2-3.5-1.6c-1.8-0.6-3.7-0.9-5.5-1.2
		c-6.4-1-12.9-0.9-19.4-1.1c-7.6-0.3-15.3-0.5-22.9-0.8c-17.1-0.7-34.3-1.5-51.4-2.5c-15.3-0.8-30.6-2-46-2.8
		c-16.6-0.8-33.2-1.8-49.8-1.9c-2.2,0-4.4,0-6.6,0C1490.8,1011.6,1476.1,1011.8,1461.5,1012.2L1461.5,1012.2L1461.5,1012.2z
		 M1518.1,1027.7c32.8,0.7,65.5,3.3,98.3,5c13.5,0.7,27,1.3,40.5,1.9c6.2,0.3,12.4,0.5,18.7,0.7c3.5,0.1,6.9,0.2,10.4,0.4
		c4.3,0.1,8.7,0.2,13,0.7c-0.1,2.2-0.3,4.4-0.4,6.6c-0.2,3.7-0.3,7.4-0.3,11.1c-0.3,11.5-1.1,23-3.3,34.3c-0.4,1.7-0.9,3.3-1.5,4.8
		c-0.2,0.3-0.3,0.5-0.5,0.8c-0.6,0.1-1.2,0.2-1.8,0.2c-3.9,0.1-7.9,0-11.8-0.1c-2.7-0.1-5.4-0.1-8.1-0.1c-8,0-15.9,0.1-23.9,0.3
		c-15.8,0.4-31.7,1.1-47.5,1.9c-32.8,1.6-65.6,3.3-98.5,3.7c-33.2,0.4-66.4,0.3-99.5-1.2c-3.2-0.1-6.3-0.5-9.5-0.7
		c-1.5-0.1-3-0.3-4.5-0.5c0-0.3,0-0.6-0.1-0.8c-0.1-1.5-0.2-2.9-0.3-4.4c-1-19.3-1.5-38.6-1.5-57.9c2.3-0.2,4.7-0.7,6.9-1
		c3.3-0.6,6.7-1.2,10-1.7c6.4-1,12.9-1.4,19.4-1.8C1454,1028.1,1486.1,1027,1518.1,1027.7L1518.1,1027.7L1518.1,1027.7z
		 M1692,1094.9c-0.1,0-0.1,0.1-0.2,0.1C1691.9,1095,1692,1095,1692,1094.9L1692,1094.9L1692,1094.9z"/>
	<path style="fill:#161616;" d="M1379.2,1097.4c-1.3,1.1-2.4,3-2.4,4.7c0.5,16.8,1.3,33.5,1.5,50.3c0.2,16.2,0.2,32.4,0.1,48.5
		c-0.2,32.7-0.5,65.3-1.1,98c-0.3,16.7-0.8,33.3-0.7,50c0.1,16.9,0.8,33.9,2,50.8c1.1,15.6,3.3,31.1,7.2,46.3
		c1.1,4.2,2.3,8.3,3.9,12.4c1.2,3.1,2.5,6.2,4,9.1c2.3,4.3,5.1,8.5,8.2,12.2c5.6,6.7,11.8,12.7,18.5,18.3c5.7,4.8,12.5,8.3,19.4,11
		c8.3,3.2,17.1,5.1,25.9,6.2c8.6,1.1,17.1,1.9,25.7,2.5c7.5,0.5,15,0.9,22.5,1c7.8,0.2,15.7,0.4,23.6,0.2c16.5-0.5,33-1.2,49.5-2.6
		c8.1-0.7,16.1-1.6,24-2.8c7.4-1.1,14.9-3,22-5.3c8.6-2.8,17.6-5.6,25-10.9c3.1-2.2,5.4-5.5,7.3-8.7c1.9-3.2,3.6-6.7,4.7-10.2
		c1.4-4.4,2.6-8.8,3.5-13.3c1.6-8,2.7-16.1,3.5-24.2c0.8-8,1.5-16.1,2.3-24.1c1.6-15.9,3.3-31.8,4.5-47.8
		c1.3-16.8,2.5-33.7,3.7-50.5c1-15.5,2.4-31,3.3-46.5c1-16.3,1.7-32.5,1.9-48.9c0.2-16.2-0.2-32.4-0.2-48.6c0-15.4,1-30.7,0.7-46.1
		c-0.1-3.5-0.3-6.9-0.6-10.3c-0.3-3.1-0.4-6.4-1.3-9.4c-0.3-1.3-0.8-2.5-1.7-3.6c-1.3-1.6-3.3-2.5-5.3-2.7c-4-0.3-8.4,2.9-8.4,7.2
		c0,4.8,0.8,9.6,1.2,14.4c0.7,15-0.2,30-0.5,45c-0.3,15.9,0.2,31.8,0.1,47.6c0,15.9-0.6,31.9-1.6,47.8c-1,16.5-2.3,33-3.5,49.5
		c-1.1,15.5-2.1,31-3.3,46.5c-1.3,16.8-2.9,33.5-4.6,50.3c-0.9,8.7-1.6,17.4-2.5,26.2c-0.5,5-1.1,9.9-1.7,14.9
		c-0.5,3.8-1.2,7.6-2,11.3c-1.3,5.2-2.7,10.4-5,15.2c-1,1.8-2.1,3.6-3.4,5.2c-0.6,0.6-1.2,1.1-1.8,1.6c-4.9,2.9-10.4,4.8-15.7,6.7
		c-5.1,1.6-10.1,3.1-15.3,4.2c-5.5,1.3-11,2.1-16.6,2.8c-10.6,1.3-21.2,2.1-31.9,2.8c-15.4,0.8-30.9,1.6-46.3,1.2
		c-8.6-0.2-17.1-0.5-25.6-1c-7.5-0.4-15.1-0.8-22.6-1.8c-5.4-0.7-10.8-1.4-16.1-2.4c-6.4-1.5-12.6-3.6-18.4-6.5
		c-4.5-2.5-8.5-5.6-12.5-8.9c-5.9-5.5-11.6-11.3-16.2-17.9c-1.9-3-3.6-6.1-4.9-9.4c-0.6-1.5-1.2-3.1-1.8-4.6
		c-1.3-4.3-2.6-8.6-3.6-13c-1.1-5.1-2.2-10.2-3-15.3c-1.8-10.6-2.6-21.4-3.4-32.1c-0.2-3.1-0.4-6.2-0.5-9.3c0,0.1,0,0.3,0,0.4
		c-0.9-16.6-1-33.3-0.9-50c0.1-15.9,0.3-31.8,0.6-47.7c0.3-16.6,0.2-33.3,0.3-50c0-16.4,0-32.8-0.2-49.1
		c-0.1-12.6-0.3-25.1-0.8-37.7c-0.5-14.5-1.2-29-1.7-43.5c-0.1-1.9-0.3-3.5-1.6-5c-1.2-1.4-2.9-2.2-4.7-2.4c-0.2,0-0.3,0-0.5,0
		C1382,1095.8,1380.4,1096.3,1379.2,1097.4L1379.2,1097.4L1379.2,1097.4z M1393.6,1389.7c0,0.1,0,0.2,0,0.3c0,0,0,0,0,0.1
		C1393.6,1389.9,1393.6,1389.8,1393.6,1389.7L1393.6,1389.7L1393.6,1389.7z"/>
	<path style="fill:#161616;" d="M1563.8,1192c-0.4-0.1-0.9-0.1-1.4-0.2c-2.9-0.3-5.8-0.2-8.7,0c-4.8,0.3-9.5,1.1-14.2,2.2
		c-2.3,0.6-4.6,1.1-6.9,1.7c-1.8,0.4-3.5,1.1-5.3,1.6c-2,0.6-4,1.2-6,1.9c-2.5,1-4.9,1.9-7.4,2.9c-9,3.5-17.4,8.6-25.1,14.6
		c-9.1,7-16.6,16-22.6,25.7c-4.1,6.6-7.1,13.8-10.1,21c-3,7.3-5.4,15.1-7,22.9c-0.5,2.2-0.9,4.5-1.4,6.7c-0.4,2.1-0.6,4.4-0.9,6.6
		c-1.3,9.5-1,19.4,0.5,28.8c0.9,5.2,2.4,10.3,4.2,15.2c1.9,5.4,4.6,10.5,7.8,15.3c6.3,9.3,15,16.9,24.5,22.6
		c8.6,5.2,18.1,9,27.9,11.4c4.8,1.2,9.6,2.2,14.5,3.1c3.9,0.7,7.9,1.2,11.9,1.5c5.4,0.5,10.8,0.4,16.2-0.1c5.3-0.4,10.8-1.4,15.9-3
		c2.2-0.7,4.3-1.4,6.5-2.1c2.4-0.8,4.6-1.7,7-2.6c3.4-1.4,6.9-2.8,10.2-4.5c3.8-2,7.5-3.9,11.1-6.1c8.2-4.8,15.6-10.6,22.1-17.6
		c6.8-7.2,12.3-15.7,16.1-24.9c1.7-4.1,3.3-8.2,4.8-12.4c1.2-3.3,2.2-6.8,3-10.2c0.5-2.1,0.9-4.2,1.4-6.3c1.4-6.1,2.1-12.3,2.1-18.6
		c0-10.4-1.6-20.8-5.2-30.6c-0.7-1.8-1.3-3.7-2-5.5c-1.3-3.5-2.9-6.9-4.7-10.2c-4.7-8.7-10.7-17-17.7-23.9
		c-5.6-5.5-11.4-10.6-17.5-15.5c-1.3-1-2.5-2-3.8-3c-3.6-2.8-7.4-5-11.4-7.1c-4.3-2.2-9.1-3.4-13.9-4c-0.8-0.1-1.6-0.1-2.3-0.1
		C1571.7,1189.2,1567.7,1190.5,1563.8,1192L1563.8,1192L1563.8,1192z M1557.7,1204.9c-0.3,0-0.6,0-0.9,0.1
		C1557.1,1204.9,1557.4,1204.9,1557.7,1204.9L1557.7,1204.9L1557.7,1204.9z M1574.1,1204.9c1.4,0,2.8,0.2,4.2,0.4
		c2.9,0.7,5.6,1.7,8.3,3c5.4,3,10.2,7,15,10.8c2.7,2.2,5.3,4.5,7.9,6.9c2.7,2.6,5.3,5.2,7.8,8c2.7,3,5.1,6.2,7.3,9.5
		c3.2,5,5.9,10.2,8.2,15.8c0.7,1.8,1.3,3.7,2,5.5c0.9,2.9,1.7,5.8,2.3,8.7c0.8,3.7,1.2,7.5,1.4,11.3c0.2,6.5-0.3,12.8-1.5,19.3
		c-0.5,2.1-0.9,4.2-1.4,6.2c-0.3,1.3-0.7,2.5-1.1,3.7c-0.4,1.3-0.7,2.5-1.1,3.8c-2.3,6.3-4.6,12.5-7.5,18.5c-2.6,4.7-5.5,9-9,13.1
		c-4.7,5.1-10,9.6-15.8,13.6c-4.6,2.9-9.4,5.5-14.3,8c-4.6,2.4-9.6,4.2-14.4,6.1c-1.7,0.6-3.5,1.1-5.2,1.7
		c-5.7,1.8-11.7,2.7-17.7,3.2c-9,0.3-17.8-1.1-26.6-2.7c-2.4-0.6-4.8-1.2-7.2-1.7c-6.8-1.7-13.5-4.3-19.8-7.5
		c-5.3-2.9-10.2-6.2-14.7-10.1c-3.5-3.3-6.6-6.8-9.3-10.7c-2.6-4.3-4.7-8.7-6.4-13.4c-1.9-6.1-3.1-12.4-3.6-18.8
		c-0.2-4.4-0.1-8.8,0.3-13.3c0.2-2.4,0.6-4.8,0.9-7.1c0.4-2.9,1-5.7,1.5-8.6c0.7-2.5,1.3-5,2-7.5c0.7-2.5,1.6-5,2.5-7.5
		c0.7-2.2,1.6-4.3,2.4-6.4c1.6-3.9,3.2-7.8,5-11.6c3.6-6.7,8-13,13-18.8c5-5.3,10.5-9.8,16.5-13.9c4.1-2.6,8.3-5,12.8-6.9
		c2.3-1,4.6-1.9,7-2.9c2.9-1.2,6-2.2,9-3.2c7-1.9,14-3.8,21.3-4.4c2,0,3.9,0,5.9,0.2c1.6,1.1,3.5,1.6,5.5,1.1c0.1,0,0.2-0.1,0.4-0.1
		c0,0,0.1,0,0.1,0c1.3,0.2,2.8-0.2,4-1C1572.7,1205.1,1573.4,1205,1574.1,1204.9L1574.1,1204.9L1574.1,1204.9z M1609.5,1226.1
		c0.5,0.4,0.9,0.8,1.4,1.3C1610.5,1227,1610,1226.6,1609.5,1226.1L1609.5,1226.1L1609.5,1226.1z"/>
	<path style="fill:#161616;" d="M1372.7,1537.3c-2.1,0.1-4.2,0.7-6.2,1.5c-0.3-0.1-0.7-0.1-1-0.2c-1.9-0.1-3.5,0.5-5,1.6
		c-8.1,6-16.1,12.3-21.8,20.7c-2.9,4.3-4.8,9.3-5.8,14.3c-1,4.9-0.7,9.9,1.1,14.6c3.7,9.3,12.4,15.6,21.4,19.1
		c4.8,1.9,10.1,3,15.2,3.6c5.7,0.6,11.6,0.1,17.1-1.4c5.4-1.4,10.1-3.9,14.7-6.9c4.4-2.9,8.1-6.4,10.9-10.9
		c2.9-4.5,4.4-9.6,5.5-14.7c1.1-5.3,0.2-10.8-1.5-15.9c-1.4-4.2-3.7-8.1-6.6-11.5c-1.9-2.2-4.3-4-6.6-5.8c-2.3-1.8-5.1-3.1-7.8-4.4
		c-2.2-1-4.6-1.7-7-2.3c-2.9-0.8-5.8-1.3-8.8-1.6c-0.9-0.1-1.8-0.1-2.7-0.1C1376.3,1537.1,1374.5,1537.2,1372.7,1537.3
		L1372.7,1537.3L1372.7,1537.3z M1369.2,1552.5c0.8-0.1,1.5-0.3,2.3-0.3c3.8,0.1,7.6,0.5,11.3,1.2c3.1,0.8,6.1,1.7,9.1,3.1
		c2.1,1.2,4,2.5,5.8,4.1c1,1,1.9,1.9,2.7,3c1,1.6,1.8,3.3,2.4,5.1c0.4,1.3,0.6,2.7,0.8,4c0,1.6-0.2,3.1-0.4,4.7
		c-0.6,2.3-1.4,4.4-2.4,6.5c-0.7,1.2-1.5,2.4-2.4,3.6c-1.6,1.6-3.3,3-5.2,4.3c-2.5,1.6-5.2,2.9-8,3.9c-2.7,0.8-5.5,1.3-8.3,1.5
		c-3.4,0-6.7-0.3-10-0.9c-3.3-0.8-6.6-1.8-9.7-3.3c-2-1.2-3.9-2.5-5.7-4c-1-1-1.9-2-2.7-3.1c-0.5-0.9-0.9-1.7-1.3-2.7
		c-0.2-0.9-0.4-1.7-0.5-2.6c0-1.4,0.2-2.8,0.4-4.2c0.6-2.1,1.3-4.2,2.2-6.2c1.4-2.4,3-4.6,4.8-6.7c3.8-4,8.1-7.6,12.5-10.9
		c0.3,0,0.6,0.1,0.9,0.1C1368.3,1552.6,1368.7,1552.6,1369.2,1552.5L1369.2,1552.5L1369.2,1552.5z"/>
	<path style="fill:#161616;" d="M1352.7,1557c-0.7,1.8,0.3,3.8,2.1,4.5c5.8,2.2,11.7,4.4,17.3,7.1c3.8,2,7.3,4.2,10.5,7
		c1.9,1.8,3.6,3.8,5.1,6c1,1.6,1.9,3.3,2.5,5c0.4,1.4,0.7,2.8,0.8,4.3c0,0.3,0,0.6,0,0.9c-0.2,2.7,1.9,5.1,4.5,5.3
		c1.3,0.1,2.6-0.3,3.6-1.2c1-0.9,1.5-2,1.7-3.4c0.7-4.9-2.4-9.5-5-13.3c-3-4.2-6.5-7.8-10.5-10.9c-4-3.1-8.6-5.5-13.2-7.6
		c-4.9-2.2-9.9-4-14.9-5.9c-0.4-0.1-0.8-0.2-1.2-0.2C1354.6,1554.6,1353.2,1555.6,1352.7,1557L1352.7,1557L1352.7,1557z
		 M1387.4,1581.2c0,0.1,0.1,0.1,0.1,0.2C1387.5,1581.3,1387.5,1581.2,1387.4,1581.2L1387.4,1581.2L1387.4,1581.2z"/>
	<path style="fill:#161616;" d="M1316,1613.1C1316,1613.1,1316,1613.1,1316,1613.1c-2.5,0.4-5,0.8-7.5,1.2
		c-8.3,1.4-16.4,3.9-23.9,7.6c-5.9,2.9-11.3,6.7-16.3,10.9c-2.1,1.7-4,3.6-5.8,5.6c-3,3.3-5.7,6.7-7.7,10.6
		c-0.9,1.8-1.8,3.5-2.3,5.5c-0.6,2.3-0.8,4.7-0.5,7.1c0.3,2.2,1,4.3,2.1,6.2c1.4,2.6,3.5,4.5,5.7,6.3c1.6,1.3,3.6,2.3,5.5,3.2
		c1.7,0.8,3.5,1.4,5.4,1.8c4.8,1.2,9.6,1.7,14.5,1.6c4.2-0.1,8.4-0.6,12.6-1.4c4.5-0.9,8.9-2.4,13.3-4c4.6-1.7,8.9-4.1,13.2-6.4
		c3-1.6,6-3.5,8.8-5.5c2-1.4,3.9-2.7,5.8-4.2c3.5-2.8,6.7-6.3,9.1-10c2.5-4,4-8.4,4.1-13.1c0-2.6-0.4-5.2-1.4-7.6
		c-0.8-2.1-2.1-3.9-3.4-5.7c-1.4-1.9-3.1-3.6-4.9-5.1c-1.7-1.5-3.5-2.6-5.5-3.7c-0.1,0-0.1-0.1-0.2-0.1c-0.6-0.9-1.6-1.6-2.8-1.6
		c-0.2,0-0.4,0-0.6,0c-1.1-0.5-2.3-0.9-3.4-1.2c-2.7-0.7-5.4-1.1-8.1-1.4c-0.2,0-0.4,0-0.5,0C1318.8,1609.4,1316.7,1611,1316,1613.1
		L1316,1613.1L1316,1613.1z M1320.1,1620.4c2.8,0.8,5.4,1.8,8,3c2.1,1.2,4.1,2.4,5.9,4c1.2,1.2,2.3,2.5,3.3,3.9
		c0.4,0.7,0.8,1.4,1.1,2.2c0.1,0.5,0.2,1,0.3,1.6c0,0.9-0.1,1.7-0.2,2.6c-0.2,0.7-0.5,1.4-0.8,2.1c-0.8,1.4-1.8,2.8-2.9,4.1
		c-2.2,2.3-4.7,4.3-7.3,6.2c-1.1,0.7-2.3,1.5-3.4,2.2c-1.8,1.2-3.8,2.2-5.6,3.3c-1.7,1-3.6,1.8-5.4,2.8c-3.3,1.7-6.8,3.1-10.3,4.4
		c-5.4,1.7-10.9,2.9-16.6,3.3c-3.7,0.1-7.4-0.1-11-0.7c-2-0.5-3.9-1.1-5.8-2c-0.8-0.5-1.6-1-2.4-1.7c-0.3-0.3-0.6-0.7-0.9-1
		c-0.2-0.3-0.4-0.7-0.5-1c-0.1-0.4-0.2-0.8-0.2-1.2c0-0.5,0.1-1,0.2-1.5c0.5-1.6,1.1-3.1,1.9-4.6c2-3.6,4.4-7,7.1-10.1
		c1.1-1.2,2.2-2.3,3.4-3.5c2.6-2.6,5.7-4.9,8.7-7c4.7-3,9.7-5.4,14.9-7.3C1307.7,1622.4,1313.9,1621.1,1320.1,1620.4L1320.1,1620.4
		L1320.1,1620.4z M1286.6,1631.7c-0.2,0.1-0.4,0.3-0.6,0.4C1286.2,1631.9,1286.4,1631.8,1286.6,1631.7L1286.6,1631.7L1286.6,1631.7z
		"/>
	<path style="fill:#161616;" d="M1291.3,1625.6c-0.7,1.8,0.3,3.7,2.1,4.5c1.3,0.5,2.5,1.1,3.8,1.7c1.5,0.8,2.8,1.8,4.1,3
		c1.7,1.7,3.2,3.4,4.6,5.4c1.2,1.9,2.4,3.9,3.2,6.1c0.5,1.7,0.8,3.5,1,5.3c0.1,1.8,0,3.5-0.4,5.3c-0.3,1.3-0.7,2.6-1.2,3.9
		c-0.7,1.8,0.1,4.1,1.7,5.2c2,1.4,4.9,0.9,6.2-1.1c0.5-0.8,0.9-1.5,1.3-2.4c0.5-1.1,0.7-2.4,0.8-3.6c0.2-2.1,0-4.3-0.3-6.4
		c-0.5-4.3-1.8-8.6-4-12.4c-2.2-3.8-4.9-7.3-8.1-10.3c-1.5-1.4-3.2-2.7-5-3.7c-1.7-0.9-3.5-1.8-5.3-2.5c-0.4-0.2-0.8-0.2-1.2-0.2
		C1293.2,1623.3,1291.8,1624.2,1291.3,1625.6L1291.3,1625.6L1291.3,1625.6z"/>
	<path style="fill:#161616;" d="M1313.1,1472.3c-2.4,0.3-4.9,1.1-7.1,1.9c-2.4,0.9-4.6,1.9-6.7,3.4c-2.6,1.8-5,4-7.3,6.2
		c-2.3-0.5-4.9,0.4-6.3,2.4c-2.6,3.6-4.6,7.5-6,11.8c-1.6,5.2-2.1,10.6-2,16c0.1,4.8,0.9,9.8,2.8,14.2c0.5,1.2,1.4,2.3,2.1,3.3
		c0.6,0.9,1.4,1.8,2.2,2.6c2,2.3,4.6,4.1,7.1,5.8c4.4,2.8,9.4,4.6,14.5,5.6c5.3,1.1,10.7,1,16.1,0.3c4.9-0.6,9.8-2.3,14.3-4.2
		c4.7-1.9,9.2-4.8,12.8-8.3c1.8-1.7,3.5-3.7,5-5.7c1.6-2,2.7-4.3,3.8-6.6c1.2-2.5,1.7-5.3,2.2-7.9c0.6-3,0.4-6,0.1-9
		c-0.5-5.3-2.6-10.3-5.5-14.6c-2.9-4.3-6.8-8-11.3-10.8c-4.3-2.8-9.3-4.6-14.3-5.7c-2.6-0.6-5.2-1-7.8-1.2c-0.7,0-1.4-0.1-2.2-0.1
		C1317.5,1471.8,1315.2,1472.1,1313.1,1472.3L1313.1,1472.3L1313.1,1472.3z M1325,1488.1c3,0.7,5.9,1.7,8.7,3c1.8,1,3.5,2.2,5.1,3.5
		c1.4,1.4,2.7,2.8,3.8,4.4c0.7,1.1,1.2,2.3,1.7,3.5c0.4,1.6,0.8,3.3,1,4.9c0,1.7-0.1,3.3-0.4,4.9c-0.4,1.3-0.8,2.6-1.4,3.9
		c-1.1,1.8-2.3,3.5-3.6,5.1c-1.5,1.5-3.1,2.9-4.8,4.1c-2.9,1.8-5.9,3.1-9.1,4.3c-3.6,1.1-7.1,1.8-10.9,2.2c-2.7,0-5.2-0.2-7.9-0.7
		c-2.6-0.7-5-1.5-7.5-2.6c-1.9-1-3.6-2.2-5.2-3.6c-0.8-0.8-1.5-1.6-2.2-2.4c-0.4-0.6-0.7-1.3-0.9-2c-0.7-2.5-1.2-5-1.4-7.6
		c-0.1-3.1,0.1-6.3,0.7-9.3c0.6-2.2,1.2-4.4,2.2-6.4c0.1-0.2,0.2-0.3,0.3-0.5c1.6,0.1,3.2-0.4,4.5-1.4c1.9-1.4,3.8-2.7,5.7-4
		c1.6-1,3.1-1.8,4.8-2.5c2.6-0.7,5.2-1.2,7.9-1.5C1319.1,1487.3,1322,1487.6,1325,1488.1L1325,1488.1L1325,1488.1z"/>
	<path style="fill:#161616;" d="M1294.7,1490c-1,2.7,0.5,5.7,3.1,6.7c4,1.5,7.9,3.2,11.8,5.1c3.7,2,7.2,4.3,10.3,7
		c1.1,1,2,2.1,2.9,3.3c0.6,1,1,2.1,1.5,3.1c0.5,1.7,0.8,3.4,1,5.1c0.1,1.6,0.1,3.3,0.3,4.9c0,0.1,0,0.1,0,0.2
		c-0.2,2.8,1.5,5.5,4.2,6.5c2.5,0.9,6,0.1,7.4-2.4c0.6-1.1,1.2-2.1,1.6-3.3c0.5-1.8,0.5-3.4,0.3-5.2c-0.1-1.4-0.7-2.9-1.1-4.2
		c-1-2.9-2.2-5.7-3.8-8.4c-3.3-5.6-8.7-9.4-14.1-12.9c-5.8-3.6-12.2-6.3-18.6-8.7c-0.6-0.2-1.1-0.3-1.7-0.3
		C1297.5,1486.6,1295.4,1488,1294.7,1490L1294.7,1490L1294.7,1490z M1325.5,1524.2c0,0.2,0,0.4,0,0.6
		C1325.6,1524.6,1325.5,1524.4,1325.5,1524.2L1325.5,1524.2L1325.5,1524.2z"/>
	<path style="fill:#161616;" d="M929.8,1412.5c-0.3,4.4,3,8.2,7.4,8.6c12.5,1.2,25,2.2,37.6,3.3c8.5,0.7,16.9,1.2,25.4,1.7
		c16.2,1,32.5,1.6,48.7,2c7.3,0.1,14.7,0.3,22,0.4c7.2,0.1,14.5,0.3,21.7,0.3c6.8,0,13.5-0.2,20.3-0.3c3.7-0.1,7.3-0.2,10.9-0.3
		c1.7-0.1,3.3-0.1,5-0.2c2.4-0.1,4.7-0.1,6.9-0.9c1.3-0.3,2.5-0.8,3.5-1.7c1.5-1.3,2.5-3.2,2.6-5.2c0.3-4.2-2.9-7.9-7-8.2
		c-1.9-0.1-3.7,0-5.6,0.1c-7.5,0.4-14.9,0.5-22.4,0.6c-8.2,0.2-16.4,0.2-24.7,0.1c-16.4-0.3-32.8-0.5-49.2-1
		c-15-0.5-30-1.4-44.9-2.3c-16.6-1.1-33.2-2.6-49.8-4.2c-0.2,0-0.5,0-0.7,0C933.6,1405.1,930.1,1408.4,929.8,1412.5L929.8,1412.5
		L929.8,1412.5z M1130.5,1411.9c-0.3,0-0.5,0-0.8,0C1129.9,1411.9,1130.2,1411.9,1130.5,1411.9L1130.5,1411.9L1130.5,1411.9z"/>
	<path style="fill:#161616;" d="M1385.9,1406c-1.5,0-2.9,0.1-4.3,0.2c0.3,0,0.5,0,0.8,0c-15.7,0.8-31.4,1.3-47.1,1.6
		c-16.6,0.4-33.3,0.5-49.9,1c-33.8,1-67.6,2.7-101.4,3.8c-4,0.1-8.1,0.3-12.1,0.4c-2,0.1-3.7,0.4-5.3,1.7c-1.5,1.3-2.4,3.1-2.5,5
		c-0.1,1.9,0.5,3.8,1.7,5.3c1.1,1.3,3.2,2.6,5,2.5c36-1.2,71.9-2.5,107.9-3.6c32.4-0.9,64.8-0.2,97.1-1.7c1.8-0.1,3.6-0.1,5.4-0.2
		c3.1-0.1,6.5-0.1,9.3-1.7c3-1.6,4.8-4.9,4.2-8.3c-0.4-1.9-1.5-3.7-3.1-4.8c-1.4-1-2.9-1.3-4.4-1.3
		C1386.6,1406,1386.2,1406,1385.9,1406L1385.9,1406L1385.9,1406z M1381,1406.3c-0.3,0-0.6,0-0.8,0
		C1380.4,1406.3,1380.7,1406.3,1381,1406.3L1381,1406.3L1381,1406.3z"/>
	<path style="fill:#161616;" d="M415.3,1359c-2.6,0.4-5.3,0.8-7.9,0.9c-7.2,0.3-14.4,0.5-21.5,0.9c-7.4,0.4-14.7,0.8-22.1,1.2
		c-15.8,0.8-31.7,1.4-47.6,1.7c-22.3,0.5-44.6,0.3-66.9,0.2c-1.8,0-3.3,0.4-4.7,1.5c-1.3,1.1-2.1,2.7-2.2,4.4
		c-0.3,3.3,2.4,6.9,5.9,6.9c32.3,0.1,64.5,0.6,96.8,0.2c12.1-0.1,24.1-0.6,36.1-0.9c5.9-0.2,11.7-0.3,17.6-0.4
		c6.4-0.1,13.1,0.3,19.4-1.3c4.1-1,7-4.8,6.2-9.1c-0.7-3.8-4.1-6.3-7.8-6.3C416.2,1358.8,415.7,1358.9,415.3,1359L415.3,1359
		L415.3,1359z"/>
	<path style="fill:#161616;" d="M1734.7,1352.7c-5.7,0-11.5,0.4-17.2,0.8c-11.8,0.7-23.6,1.5-35.4,2.3c-1.9,0.1-4,1.8-5,3.3
		c-1.2,1.8-1.7,4-1.3,6.1c0.4,2,1.6,3.9,3.3,5c1.9,1.3,3.8,1.4,6.1,1.3c12.4-0.8,24.8-1.7,37.3-2.4c4.5-0.2,9-0.5,13.5-0.4
		c2.5,0,4.9,0.1,7.4,0.2c4.3,0.2,8.9,0.7,12.4-2.4c2-1.8,3-4.5,2.5-7.1c-0.6-3-3.5-6.1-6.8-6c-1.7,0-3.4-0.3-5.1-0.4
		c-1.3-0.1-2.5-0.1-3.8-0.2c-2.3-0.1-4.6-0.1-6.9-0.1C1735.3,1352.7,1735,1352.7,1734.7,1352.7L1734.7,1352.7L1734.7,1352.7z"/>
	<path style="fill:#161616;" d="M1000.6,33.3c-39.9,0-80.9,2.6-122,7.6c-113.9,14-224.4,48.9-328.5,103.6
		c-47.9,25.1-95,55.5-140.2,90.1C366.6,268,325.2,306.1,286.7,348c-37.6,41-72.2,86.1-102.7,133.9c-29.9,46.9-56.3,97.8-78.5,151.5
		c-45.1,109-69.2,226-71.9,347.7c-1.3,59.3,3.2,120.1,13.3,180.7c4.7,28.2,11.1,57.7,19.1,87.7c7.1,26.6,15.7,53.9,26.5,83.4
		c39.1,107.3,97.7,207.1,174.2,296.4c71.8,84,157.6,154.8,254.9,210.6c48.3,27.7,100.2,51.5,154.3,70.9c53,19,109.9,33.6,169,43.3
		c50.7,8.3,102.8,12.6,154.7,12.6c68,0,136.3-7.2,203.1-21.3c52.1-11.1,105.1-27.3,157.4-48.2c47.7-19.1,95.1-42.8,140.9-70.6
		c43.5-26.4,85.9-57,126.1-91.2c38.7-32.9,76.1-70.5,111.2-111.8c35.5-41.7,68-87.6,96.6-136.5c28.3-48.3,52.8-100.3,72.7-154.6
		c2.4-6.6,4.7-13.1,6.9-19.7c0.8-2.3,1.6-4.7,2.4-7c17.6-52.5,30.9-108.7,39.5-167c8.8-60.4,11.8-123,8.9-186
		c-2.8-59.9-11.5-120.6-25.8-180.3c-13.5-56.3-32.9-112.9-57.7-168.2c-23.5-52.6-52.8-104.3-87-153.9c-32.5-47-69.8-91.7-110.8-133
		c-39.5-39.7-83.6-76.8-131.1-110.1c-45.5-32-95.5-60.7-148.7-85.4c-51.5-23.9-106.6-43.5-163.7-58.2
		c-56.9-14.7-116.9-24.2-178.3-28.3C1041.9,34,1021.1,33.3,1000.6,33.3L1000.6,33.3L1000.6,33.3z M925.3,180.7c0,0,0.1,0,0.1,0
		c22-1.7,44.5-2.6,66.8-2.6c14.7,0,29.5,0.4,44.1,1.1c35.7,1.8,72.5,6.1,109.4,12.9c35.6,6.8,71.2,16,105.7,27.3
		c33.6,11,67.7,24.8,101.2,41l-1.7-1c31.8,15.6,62.8,33.2,92.2,52.3c29.2,19,58.1,40.7,86.1,64.6l0.5,0.4l-0.3-0.5
		c2.2,2,4.4,3.9,6.6,5.8l-28.8,26.5l-44.1,40.7l-44.1,40.7l-57.8,53.3l-118.6,109.4C1122.2,763.6,1002,874.4,881.9,985.2
		c-90.3,83.3-180.7,166.7-271,250l-92.3,85.1l-93.8,86.5l-93.8,86.5c-5-6.8-10.2-14-15.4-21.4c-20-29-38.4-59.6-54.7-90.8
		c-16.5-31.7-31.4-65.8-44.3-101.3l0.3,1.3c-12-34.1-22-69-29.6-103.7c-7.5-34.1-12.8-70-16-106.9l0-0.5l-0.1-0.5
		c-2.8-36.8-3.2-73.9-1.4-110.5c1.8-36.1,6.3-73.3,13.2-110.7c7.1-36.9,16.7-73.6,28.6-109c10.6-31.8,23.8-64.1,39.2-96.1
		c15.5-31.8,33.3-63,52.8-92.7c18.9-28.8,40.4-57.4,64-85l-0.8,0.6l-0.7,0.8c23.1-26.6,47.9-52,73.7-75.5
		c25.3-23,53.3-45.3,83.3-66.3l0.5-0.3l0.5-0.4c28.6-19.7,58.6-37.7,89.1-53.7c31.2-16.3,64.7-31,99.6-43.8
		c33.3-11.9,67.6-21.9,102-29.5c34.9-7.8,71.9-13.4,109.8-16.6l-0.5-0.1l0.6,0.1l0.4,0c0,0,0,0,0,0
		C925.2,180.7,925.2,180.7,925.3,180.7C925.2,180.7,925.3,180.7,925.3,180.7C925.3,180.7,925.3,180.7,925.3,180.7L925.3,180.7
		L925.3,180.7z M632.1,1743.7c-31-15.3-61.2-32.5-89.8-51.2c-29.1-19-57.9-40.6-85.6-64.3l-1.3-1.1l-1.3-1.1
		c74.4-68.7,148.8-137.4,223.3-206.1L788,1317.7l144.9-133.7l222.8-205.6l93.7-86.5c90.8-83.8,181.5-167.5,272.2-251.4l12.7-11.8
		c26.1-24.1,52.2-48.3,78.3-72.5c12.6-11.7,25.2-23.4,37.8-35.2l7.1-6.6c4.5,6.2,9.2,12.7,13.7,19.2c20.1,29.3,38.6,60,54.9,91.3
		c15.9,30.6,30.3,63.5,42.8,97.7l0.2,0.4c0,0,0.1,0.2,0.1,0.2c0,0,0,0,0,0c0,0,0,0,0,0c0,0,0.1,0.1,0.1,0.1c0,0,0,0,0,0l0.1,0.5
		c11.8,33.3,21.7,67.7,29.4,102.3c7.6,34.5,13,70.7,16.2,107.6l0,0.5c0,0.5,0.1,0.9,0.1,1.3l0.1-0.5c2.7,36.8,3.2,74,1.3,110.5
		c-1.8,35.9-6.2,72.8-13,109.6c-6.8,35.9-16.1,71.6-27.4,106.2c-11,33.4-24.7,67.3-40.8,100.7c-15.6,32-33.5,63.3-53.1,93.2
		c-18.9,28.8-40.5,57.4-64.2,85c-22.8,26.3-47.5,51.5-73.3,74.8c-7.3,6.6-14.7,13-22,19.1c-18.3,15.3-37.9,30.2-58.2,44.4
		c-29.2,20.2-60,38.8-91.6,55.2c-31.8,16.5-65.3,31.2-99.5,43.7c-33,11.9-67.2,21.8-101.6,29.5c-35,7.8-71.8,13.4-109.5,16.6
		l-0.7,0.1c-22.4,1.8-45.1,2.7-67.6,2.7c-13.5,0-27.4-0.3-41.5-1c-36.6-1.7-74.3-6.2-112.1-13.1c-36-6.9-72-16.2-106.9-27.7
		c-33.8-11.1-68-25.1-101.6-41.4L632.1,1743.7L632.1,1743.7L632.1,1743.7z"/>
</g>
</svg>
