<?xml version="1.0" encoding="utf-8"?>
<!-- Generator: Adobe Illustrator 22.1.0, SVG Export Plug-In . SVG Version: 6.00 Build 0)  -->
<svg version="1.1" id="Layer_1" xmlns="http://www.w3.org/2000/svg" xmlns:xlink="http://www.w3.org/1999/xlink" x="0px" y="0px"
	 viewBox="0 0 2000 2000" style="enable-background:new 0 0 2000 2000;" xml:space="preserve">
<g>
	<path style="fill:#161616;" d="M901.8,594.7c-34.3,1.6-68.5,3.8-102.7,5.5c-33.5,1.7-67.1,3.1-100.6,4.3
		c-16.2,0.6-32.4,1.1-48.6,1.5c0.4,0,0.8,0,1.2,0c-3.2,0.1-6.5,0.2-9.7,0.3c0.3,0,0.6,0,0.9,0c-0.1,0-0.1,0-0.2,0
		c-2,0.1-4,0.1-6,0.2c-0.2,0-0.4,0-0.6,0c-0.1,0-0.1,0-0.2,0c0.1,0,0.2,0,0.3,0c-0.4,0-0.7,0-1.1,0c0.1,0,0.2,0,0.3,0
		c-0.1,0-0.1,0-0.2,0c0.1,0,0.1,0,0.2,0c0,0,0,0-0.1,0c-0.1,0-0.1,0-0.2,0c0,0-0.1,0-0.1,0c-0.3,0-0.6,0-0.8,0c-0.9,0-1.7,0-2.6,0.1
		c0.3,0,0.6,0,0.8,0c-0.6,0-1.3,0-1.9,0.1c0.1,0,0.2,0,0.3,0c-0.1,0-0.2,0-0.3,0c-0.2,0-0.4,0-0.6,0c-0.1,0-0.2,0-0.4,0
		c0.1,0,0.3,0,0.4,0c-2.2,0.1-4.5,0.1-6.7,0.2c0.4,0,0.7,0,1.1,0c-16.3,0.4-32.5,1.5-48.8,2.4c-16.3,0.9-32.6,1.8-48.9,2.4
		c-9.9,0.3-19.8,0.7-29.7,1.6c-4.6,0.5-9.2,1.1-13.7,2.2c-3.8,0.8-7.3,1.9-10.3,4.5c-2.8,2.4-4.9,6-5.9,9.5c-0.4,1-0.6,1.9-0.5,2.9
		c-2.4,0.6-4.5,2.3-5.3,4.7c-1.6,4.9-3.4,9.9-4.5,15c-0.9,4-1.6,8-2.3,12.1c-1.4,8.2-2.3,16.6-2.8,24.9c-0.5,8.3-0.6,16.6-0.8,24.9
		c-0.2,7.9-0.4,15.8-0.3,23.8c0.1,4.7,0.1,9.5,0.4,14.2c0.1,2.3,0.3,4.6,0.7,6.9c0.5,2.4,1.4,5.2,3,7c2.4,2.8,5.1,4.9,8.4,6.6
		c5.3,2.8,11.3,3.9,17.1,5.1c3.9,0.8,7.8,1.3,11.7,1.8c8.6,1.1,17.3,2.1,25.9,3c8.5,0.8,17,1.3,25.5,1.8
		c33.5,1.8,67.2,1.5,100.7,1.2c23.3-0.2,46.5-0.3,69.8-0.9c-0.7,0-1.4,0-2.1,0c4.3-0.1,8.7-0.2,13-0.3c-0.7,0-1.4,0-2.1,0
		c3.7-0.1,7.4-0.2,11.1-0.3c0,0,0,0-0.1,0c17.6-0.4,35.3-1.4,52.9-2.3c16.3-0.8,32.7-1.5,49-2.5c33.6-2.3,67.2-5.3,100.6-10.1
		c8-1.1,16-2.4,24-3.5c8-1.1,16.1-1.9,24.2-3c1.7-0.2,3.3-0.5,5-0.7c1.8-0.3,3.5-0.8,5.2-1.4c1-0.3,2.4-1.4,3.2-2.1
		c1.4-1.2,2.7-2.7,3.6-4.3c2.1-3.4,3.2-7.2,4.4-11c1.1-3.7,2-7.5,2.3-11.3c0.8-8.3,0.7-16.8,0.6-25.2c-0.1-8.2-0.3-16.5-0.4-24.7
		c-0.1-4.5-0.2-9-0.5-13.6c-0.2-4-0.6-8-1-12c-0.8-8-1.7-16-2.2-24c-0.5-7.5-0.7-15.1-3.1-22.4c-1.3-3.8-4-7.4-7.5-9.5
		c-2.5-1.5-5-2.7-7.8-3.5c-2.4-0.6-4.8-1.3-7.2-1.6c-8.1-1.1-16.4-1.5-24.6-1.5c-1,0-2,0-3,0C934.3,593.3,918.1,593.9,901.8,594.7
		L901.8,594.7L901.8,594.7z M635.2,606.3c-0.1,0-0.3,0-0.4,0c0,0,0,0,0,0C635,606.3,635.1,606.3,635.2,606.3L635.2,606.3
		L635.2,606.3z M635,606.3C635,606.3,635,606.3,635,606.3C635,606.3,635,606.3,635,606.3C635,606.3,635,606.3,635,606.3L635,606.3
		L635,606.3z M955,609.3c8.5,0.2,17,0.5,25.3,2.3c1.3,0.4,2.4,0.9,3.6,1.4c0.4,0.3,0.8,0.6,1.2,0.9c0.1,0.1,0.2,0.2,0.3,0.4
		c0.2,0.3,0.3,0.7,0.4,1c1.1,4.4,1.5,8.9,1.8,13.5c0.4,5.6,0.7,11.2,1.3,16.8c0.5,5.8,1.2,11.6,1.8,17.4c0.5,5.7,0.8,11.4,1,17.1
		c0.2,8.1,0.3,16.2,0.4,24.3c0,4.4,0,8.9,0,13.3c-0.1,5.7-0.2,11.5-1.4,17c-1,3.6-2,7.1-3.6,10.5c-0.1,0.1-0.1,0.2-0.2,0.3
		c0,0,0,0,0,0c-3.4,0.7-6.9,1-10.3,1.5c-4,0.5-8,1-12,1.5c-7.8,0.9-15.5,2.1-23.2,3.2c-16.8,2.4-33.7,4.6-50.6,6.4
		c-16.6,1.8-33.1,3.1-49.8,4.3c-16.8,1.2-33.6,1.9-50.4,2.7c-19.1,1-38.3,1.9-57.4,2.6c-3.6,0.1-7.1,0.2-10.7,0.3
		c-4,0.1-8,0.2-12,0.3c0.7,0,1.4,0,2.1-0.1c-16.8,0.4-33.7,0.5-50.5,0.7c-16.7,0.2-33.5,0.4-50.2,0.4c-16.7,0-33.4-0.2-50.1-0.7
		c-16.9-0.6-33.9-1.3-50.7-3.2c-11.2-1.3-22.5-2.5-33.6-4.7c-2.7-0.7-5.4-1.5-7.9-2.7c-0.9-0.6-1.7-1.2-2.5-1.8c0,0,0,0,0-0.1
		c0-0.1-0.1-0.1-0.1-0.2c-0.9-4.4-0.9-9-1-13.5c-0.2-15,0.3-29.9,0.7-44.9c0.4-14.4,2.2-28.7,5.2-42.7c1.1-4,2.4-8,3.7-11.9
		c0.4-1.1,0.5-2.3,0.5-3.5c1.5-0.5,2.8-1.4,3.7-2.7c1.1-1.6,2-3.4,3.3-5c0.3-0.1,0.5-0.2,0.8-0.3c6.8-1.8,13.9-2.5,20.9-3
		c8.1-0.7,16.3-0.9,24.5-1.1c16.2-0.6,32.3-1.5,48.5-2.4c15.8-0.9,31.6-1.8,47.4-2.3c0,0-0.1,0-0.1,0c1.8,0,3.6-0.1,5.5-0.1
		c-0.4,0-0.8,0-1.2,0c0.3,0,0.6,0,0.9,0c-0.4,0-0.9,0-1.3,0c1.3,0,2.7-0.1,4-0.1c-0.3,0-0.7,0-1,0c0.7,0,1.4,0,2.1-0.1
		c-0.3,0-0.7,0-1,0c0.8,0,1.6,0,2.4-0.1c-0.2,0-0.5,0-0.7,0c0.2,0,0.4,0,0.7,0c0.2,0,0.4,0,0.5,0c0.2,0,0.5,0,0.7,0
		c-0.3,0-0.6,0-0.9,0c2.4-0.1,4.8-0.1,7.2-0.2c-0.1,0-0.3,0-0.4,0c0.1,0,0.1,0,0.2,0c2.9-0.1,5.8-0.1,8.8-0.2c-0.7,0-1.4,0-2.1,0
		c34.6-0.9,69.1-2.2,103.6-3.6c33.7-1.4,67.3-3.1,100.9-5.1c24.9-1.5,49.8-2.8,74.7-3.6C937.3,609.3,946.1,609.1,955,609.3
		L955,609.3L955,609.3z M987.7,744.1c0,0.1-0.1,0.2-0.2,0.3C987.6,744.3,987.7,744.2,987.7,744.1L987.7,744.1L987.7,744.1z
		 M723.7,767.9c-0.3,0-0.6,0-0.9,0c0.1,0,0.1,0,0.2,0C723.2,767.9,723.4,767.9,723.7,767.9L723.7,767.9L723.7,767.9z M630.1,622.3
		c0.3,0,0.6,0,0.9,0C630.7,622.3,630.4,622.3,630.1,622.3L630.1,622.3L630.1,622.3z M635.8,622.2c-0.2,0-0.3,0-0.5,0
		c0.5,0,0.9,0,1.4,0C636.4,622.2,636.1,622.2,635.8,622.2L635.8,622.2L635.8,622.2z M642.6,622c-0.1,0-0.1,0-0.2,0c0,0,0,0,0,0
		c0,0-0.1,0-0.1,0c-0.2,0-0.5,0-0.7,0c0.1,0,0.2,0,0.3,0c-0.2,0-0.4,0-0.7,0c0.3,0,0.7,0,1,0c0.5,0,1,0,1.6,0
		C643.4,622,643,622,642.6,622L642.6,622L642.6,622z M623.6,606.6c0.4,0,0.7,0,1.1,0C624.3,606.6,624,606.6,623.6,606.6L623.6,606.6
		L623.6,606.6z M628.1,606.5c0.4,0,0.8,0,1.2,0c0.2,0,0.4,0,0.6,0C629.3,606.5,628.7,606.5,628.1,606.5L628.1,606.5L628.1,606.5z
		 M631.8,606.4c0.4,0,0.9,0,1.3,0C632.7,606.4,632.3,606.4,631.8,606.4L631.8,606.4L631.8,606.4z M633.1,606.4c0.2,0,0.3,0,0.5,0
		c0.3,0,0.6,0,0.9,0c0,0,0,0,0,0C634,606.3,633.6,606.4,633.1,606.4L633.1,606.4L633.1,606.4z M635.5,606.3c0.2,0,0.3,0,0.5,0
		c0,0,0.1,0,0.1,0C636,606.3,635.7,606.3,635.5,606.3L635.5,606.3L635.5,606.3z"/>
	<path style="fill:#161616;" d="M525.6,666.3c-4.5,1.2-8.4,3.6-12,6.6c-1.8,1.5-3.2,3.2-4.5,5c-1.5-0.3-3.1,0-4.6,0.6
		c-1.7,0.8-3.6,2.5-4.2,4.3c-1.1,3.9-2,7.7-2.8,11.7c-0.4,2.1-0.5,4.3-0.5,6.4c0,2.4,0.2,4.6,0.8,6.9c1.2,4.1,3,7.8,5.8,11.1
		c3,3.5,6.9,5.9,11,7.9c4.2,2.1,8.9,3.2,13.5,3.5c10,0.8,20.4-2.5,27.7-9.5c6.9-6.7,11.5-15.9,11.3-25.7c-0.1-5.4-1.4-10.6-4.5-15.1
		c-2.6-3.8-6.1-6.8-10-9.1c-5.8-3.5-12.7-5.7-19.5-5.7C530.7,665.3,528.1,665.6,525.6,666.3L525.6,666.3L525.6,666.3z M532.6,681.2
		c1.9,0.1,3.8,0.3,5.7,0.7c1.9,0.6,3.8,1.3,5.6,2.2c1.5,0.9,2.9,1.9,4.2,3c0.6,0.7,1.2,1.4,1.8,2.1c0.4,0.7,0.7,1.5,1,2.3
		c0.3,1.1,0.4,2.1,0.5,3.3c0,1.5-0.2,3-0.5,4.5c-0.5,1.6-1.1,3.1-1.8,4.6c-1.1,1.7-2.3,3.4-3.7,4.9c-1.1,1.1-2.3,2-3.6,2.9
		c-1.3,0.7-2.7,1.3-4.1,1.7c-2,0.5-4,0.8-6.1,1c-2-0.1-4-0.3-6-0.6c-2.1-0.6-4-1.5-6-2.4c-1.1-0.7-2.2-1.5-3.2-2.3
		c-0.6-0.7-1.2-1.3-1.7-2.1c-0.5-1-1-1.9-1.4-3c-0.2-0.9-0.3-1.8-0.4-2.7c0.1-2,0.3-3.9,0.6-5.8c1.5-0.4,2.8-1.3,3.7-2.7
		c1.4-2.3,2.9-4.5,4.6-6.6c1.3-1.2,2.7-2.1,4.1-3.1c1.1-0.6,2.1-1.1,3.2-1.5C530.4,681.5,531.5,681.4,532.6,681.2L532.6,681.2
		L532.6,681.2z"/>
	<path style="fill:#161616;" d="M925.3,654.2c-1.2,0.1-2.3,0.4-3.5,0.7c-2,0.6-3.5,1.2-4.8,2.9c-0.8,1.1-1.3,2.3-1.4,3.6
		c-1-0.2-2-0.3-3-0.1c-2.1,0.3-3.7,1.5-5.1,3.1c-2.3,2.7-4.5,5.3-6.3,8.3c-1.8,3-3.3,6.1-4.2,9.5c-1,3.6-1,7.3-0.1,11
		c1,4.2,3.1,7.8,6.1,10.8c5.2,5.2,11.9,8.3,18.8,10.2c1.9,0.5,3.9,1,5.8,1.3c2,0.3,4.1,0.1,6.1,0c4-0.1,8.1-1.3,11.6-3.1
		c6.9-3.7,12.1-10.1,14.2-17.7c1.1-4.1,1.3-8.1,0.6-12.3c-0.7-4.2-2.5-8.2-4.8-11.7c-3.9-6-9.9-10.2-16.3-13.1c-1.5-0.7-3-1.4-4.6-2
		c-1.9-0.7-3.9-1.2-5.9-1.5c-0.4,0-0.8,0-1.2,0C926.7,654.2,926,654.2,925.3,654.2L925.3,654.2L925.3,654.2z M924.2,669.8
		c0.5-0.1,0.9-0.2,1.4-0.2c0.1,0,0.3,0,0.4,0c3.1,1,6.1,2.5,9,4c1.7,1.1,3.4,2.2,4.9,3.5c0.9,1,1.8,2,2.5,3.2
		c0.6,1.2,1.2,2.4,1.6,3.7c0.3,1.2,0.5,2.4,0.6,3.6c-0.1,0.9-0.2,1.7-0.3,2.6c-0.4,1.1-0.8,2.2-1.3,3.3c-0.6,0.9-1.2,1.7-1.8,2.5
		c-0.9,0.8-1.9,1.6-2.9,2.3c-0.7,0.4-1.4,0.7-2.2,1c-1.6,0.4-3.1,0.6-4.7,0.7c-1.6-0.1-3.1-0.3-4.7-0.6c-2.9-0.8-5.7-1.9-8.4-3.2
		c-1.4-0.8-2.7-1.8-3.9-2.8c-0.5-0.6-1-1.2-1.5-1.8c-0.3-0.5-0.5-1-0.7-1.6c-0.1-0.6-0.2-1.2-0.3-1.8c0-0.4,0.1-0.9,0.1-1.3
		c0.6-1.8,1.3-3.6,2.2-5.3c1.7-2.7,3.7-5.2,5.8-7.6c1-1.2,1.5-2.6,1.6-4.1c0.4,0.1,0.9,0.1,1.3,0.1
		C923.5,669.8,923.9,669.8,924.2,669.8L924.2,669.8L924.2,669.8z"/>
	<path style="fill:#161616;" d="M884.2,419.4c-3,0-6,0-8.9,0c-4.7,0-9.3,0-14,0.1c-2.5,0.1-5,0.1-7.4,0.2c0.7,0,1.4,0,2.1,0
		c-17.6,0.4-35.3,1.2-52.9,1.8c-16.9,0.5-33.9,1.1-50.8,1.9c-36.4,1.8-72.8,4.2-109.1,7.1c-16.8,1.3-33.6,2.8-50.3,4.9
		c-3.9,0.5-7.8,1-11.7,1.7c-4.9,0.8-9.8,1.6-14.5,3.3c-1,0.4-2.6,1.3-3.3,1.9c-0.9,0.7-1.7,1.6-2.4,2.4c-0.9,1.1-1.5,2.5-2.1,3.7
		c-0.9,1.7-1.7,3.4-2.4,5.1c-1.6,3.7-3.1,7.4-4.7,11.1c-13.2,32-25.9,64.3-37.1,97.1c-2.8,8.2-5.6,16.5-8.6,24.7
		c-3.5,9.3-7.2,18.4-11.3,27.5c-1.8,4,0.6,8.8,4.5,10.3c4.2,1.7,8.6-0.5,10.3-4.5c3.7-8.1,7.2-16.3,10.3-24.6
		c3.1-8.2,6-16.5,8.8-24.8c5.5-16.2,11.3-32.3,17.5-48.3c4.5-11.7,9.1-23.4,13.9-35.1c2.4-5.8,4.7-11.6,7.1-17.5
		c2-4.9,3.9-9.8,6.3-14.5c0.1,0,0.2-0.1,0.3-0.1c3.8-1,7.7-1.6,11.5-2.2c3.7-0.6,7.5-1.1,11.2-1.6c9-1.1,18.1-2,27.1-2.9
		c17.5-1.6,35.1-2.9,52.6-4.2c33.9-2.6,67.8-4.5,101.8-5.7c25.8-0.9,51.6-1.8,77.3-2.6c-0.1,0-0.2,0-0.3,0c-0.3,0-0.5,0-0.8,0
		c0.2,0,0.3,0,0.5,0c0,0,0,0,0,0c0,0,0,0,0,0c0.2,0,0.4,0,0.6,0c-0.1,0-0.1,0-0.2,0c0.1,0,0.3,0,0.4,0c0.1,0,0.1,0,0.2,0
		c0.2,0,0.3,0,0.5,0c1.7,0,3.5-0.1,5.2-0.1c4.1-0.1,8.2-0.1,12.4,0c2.9,0,5.9,0,8.8,0c2.2,0,4.1-0.3,5.9-1.7
		c1.6-1.3,2.7-3.3,2.9-5.4c0.2-2.1-0.4-4.2-1.7-5.9C888.4,420.9,886.2,419.4,884.2,419.4C884.2,419.4,884.2,419.4,884.2,419.4
		L884.2,419.4L884.2,419.4z M854.7,435.6C854.7,435.6,854.7,435.6,854.7,435.6c0.1,0,0.2,0,0.3,0c0,0,0,0,0.1,0
		C854.9,435.6,854.8,435.6,854.7,435.6L854.7,435.6L854.7,435.6z M856.1,435.5c-0.2,0-0.4,0-0.6,0c0,0-0.1,0-0.1,0c0.5,0,1,0,1.5,0
		C856.5,435.5,856.3,435.5,856.1,435.5L856.1,435.5L856.1,435.5z M859.7,419.6c0.2,0,0.5,0,0.7,0
		C860.1,419.6,859.9,419.6,859.7,419.6L859.7,419.6L859.7,419.6z M860.4,419.6c0.3,0,0.6,0,0.9,0c0.2,0,0.3,0,0.5,0
		C861.3,419.5,860.8,419.6,860.4,419.6L860.4,419.6L860.4,419.6z"/>
	<path style="fill:#161616;" d="M882.6,420.6c-2,0.3-3.8,1.4-5,3c-1.2,1.6-1.7,3.8-1.4,5.8c0.3,1.8,1.4,4,3,4.9c1.7,1,3.3,1.9,5,2.9
		c3.2,1.9,6.2,4,9.1,6.4c2.5,2,4.8,4.3,7.2,6.4c1.3,1.3,2.5,2.6,3.8,3.9c1.5,1.5,2.8,3.1,4.1,4.7c2.8,3.3,5.4,6.9,7.8,10.5
		c2.8,4.9,5,10.1,7.3,15.3c1.5,3.4,2.8,6.8,4.1,10.3c2.5,6.5,4.6,13.1,6.6,19.7c0,0,0-0.1,0-0.1c3.8,12.8,7.6,25.6,11.3,38.4
		c1.9,6.4,3.8,12.8,5.7,19.2c1,3.2,1.9,6.4,2.8,9.7c0.5,1.5,0.9,3.1,1.3,4.6c0.4,1.3,0.7,2.5,1.2,3.7c0.5,1.4,1.4,2.7,2.2,3.9
		c1.4,2.1,4.5,3,6.9,2.7c3-0.5,6-3.2,6.1-6.5c0.1-2,0.1-3.9-0.5-5.8c-0.4-1.3-0.8-2.6-1.1-3.9c-0.8-2.8-1.6-5.5-2.4-8.2
		c-1.7-5.9-3.5-11.7-5.2-17.6c-3.7-12.5-7.4-24.9-11.1-37.4c0.2,0.7,0.4,1.3,0.6,2c-2.5-8.6-5.1-17.1-8.1-25.5
		c-2.7-7.7-5.9-15.2-9.2-22.6c-2.9-6.6-6.8-12.6-11.2-18.3c-2.5-3.2-5-6.3-7.8-9.1c-3.5-3.6-7.2-6.9-10.9-10.3
		c-2.6-2.4-5.4-4.6-8.4-6.5c-2.5-1.7-5.3-3.1-7.9-4.7c-1.6-0.9-3-1.5-4.6-1.5C883.3,420.5,882.9,420.5,882.6,420.6L882.6,420.6
		L882.6,420.6z M915.4,468c0.1,0.2,0.2,0.4,0.3,0.6C915.7,468.3,915.6,468.1,915.4,468L915.4,468L915.4,468z M933.6,512.5
		c0.1,0.3,0.2,0.7,0.3,1C933.8,513.2,933.7,512.8,933.6,512.5L933.6,512.5L933.6,512.5z"/>
	<path style="fill:#161616;" d="M825.2,385.1c-8,0-15.9,0.1-23.9,0.3c-8.6,0.2-17.3,0.3-25.9,0.8c-8.8,0.5-17.6,1.1-26.3,1.8
		c-8.6,0.6-17.1,1.7-25.7,2.6c-15.6,1.7-31.2,3.4-46.8,5c-16.5,1.7-33,3.1-49.5,4.6c-16,1.5-31.9,3-47.8,5
		c-8.4,1.1-16.8,2.1-25.2,3.5c-4,0.7-7.9,1.6-11.9,2.5c-2.1,0.5-4.1,1.1-6.1,1.7c-1.1,0.4-2.2,0.7-3.3,1.1c-1.4,0.5-2.6,1.3-3.8,2
		c-1.3,0.9-2.3,2-3.4,3.1c-1.1,1.2-2,2.8-2.8,4.3c-1.1,1.9-2.1,3.9-3.1,5.9c-1.6,3.2-2.9,6.4-4.3,9.7c-2.7,6.7-5.1,13.5-7.4,20.4
		c-4.9,15.2-9.4,30.6-13.3,46.1c-4.2,16.6-8,33.2-11.6,50c-3.3,15.5-6.4,31-9.2,46.6c-1.4,7.9-2.7,15.8-3.5,23.8
		c-0.4,3.8,2.4,7.4,6.3,7.8c3.8,0.4,7.4-2.4,7.8-6.3c1.8-16.2,5.2-32.1,8.6-48c3.4-16.3,7-32.6,10.9-48.8c0,0,0-0.1,0-0.1
		c0.1-0.2,0.1-0.5,0.2-0.7c0,0.2-0.1,0.4-0.1,0.5c0-0.1,0-0.1,0-0.2c0-0.1,0.1-0.3,0.1-0.4c0.7-3,1.5-6,2.2-9c0,0,0,0.1,0,0.1
		c-0.1,0.4-0.2,0.8-0.3,1.2c0,0.1,0,0.2-0.1,0.3c0-0.1,0-0.2,0.1-0.2c0,0.2-0.1,0.3-0.1,0.5c0.1-0.3,0.2-0.7,0.3-1
		c3.9-15.2,8.1-30.3,12.8-45.3c2.3-7.4,4.8-14.9,7.5-22.2c2.5-6.7,5.1-13.3,8.3-19.7c0.4-0.8,0.8-1.5,1.2-2.2c0.6-1,1.2-2,1.9-2.9
		c1.2-0.6,2.5-1,3.7-1.5c15.6-4.1,31.7-5.8,47.6-7.7c15.9-2,31.8-3.4,47.8-4.8c16-1.4,32-2.9,48-4.6c17-1.8,34-3.7,51-5.5
		c18.6-2,37.3-3.2,56-3.9c16.2-0.3,32.4-0.4,48.7-0.5c15.9,0,31.9-0.3,47.9,0.3c5.3,0.2,10.7,0.5,16,0.8c2.2,0.2,4.5,0.3,6.7,0.5
		c2.8,0.2,5.5,0.7,8.3,0.5c1.1,0,2.2-0.2,3.2-0.7c1.2-0.5,2.1-1.3,2.9-2.3c1.9-2.6,2-6.5-0.2-9c-1.8-2-3.9-3.3-6.6-3.8
		c-0.9-0.1-1.8-0.2-2.7-0.3c-1.7-0.2-3.5-0.3-5.2-0.5c-3.9-0.3-7.7-0.6-11.6-0.8c-8.3-0.5-16.6-0.6-25-0.7c-4.7-0.1-9.3-0.1-14-0.1
		C848.7,384.9,836.9,385,825.2,385.1L825.2,385.1L825.2,385.1z M538.9,428.6c-0.2,0.1-0.4,0.3-0.6,0.4
		C538.4,428.9,538.6,428.8,538.9,428.6L538.9,428.6L538.9,428.6z M504,530.5c-0.1,0.5-0.2,1-0.4,1.6
		C503.7,531.5,503.8,531,504,530.5L504,530.5L504,530.5z M504.1,529.8C504.1,529.8,504.1,529.9,504.1,529.8c0,0,0-0.2,0.1-0.3
		C504.2,529.6,504.2,529.7,504.1,529.8L504.1,529.8L504.1,529.8z"/>
	<path style="fill:#161616;" d="M915.6,388.6c-2.8,2.3-3.1,6.3-1,9.1c4,5.4,7.9,10.8,11.5,16.5c4.2,7,8.1,14.2,11.7,21.6
		c2,4,4,8.1,5.8,12.2c1.1,2.5,2.1,5,3.2,7.4c0.9,2.1,1.6,4.3,2.4,6.4c1.5,4,2.7,8,4,12c1,3.4,1.9,6.8,2.8,10.2c1,4.2,2,8.4,2.9,12.6
		c1.7,7.7,3.4,15.3,5,23c1.5,7.3,2.9,14.6,4,21.9c1.2,7.6,2.1,15.3,3.2,22.9c0.8,5.2,1.5,10.3,2.3,15.5c0.7,5,1.6,10,1.7,15
		c0,0.3,0,0.5,0,0.8c0.2,1.4,0.8,2.6,1.7,3.7c1.3,1.6,3.3,2.7,5.4,2.9c2.1,0.2,4.2-0.4,5.9-1.7c1.1-0.9,1.9-2,2.4-3.3
		c0.5-1.4,0.7-2.8,0.5-4.2c-0.2-7.2-1.6-14.4-2.7-21.4c-1.2-7.4-2.2-14.8-3.3-22.3c-2.3-15.6-5.6-31-9.2-46.4
		c-3.6-15.5-7.4-31.1-13.3-45.9c-2.9-7.1-5.9-14.2-9.4-21.1c-2.1-4.1-4.2-8.3-6.4-12.4c-5.1-9.8-11.1-19.3-17.5-28.3
		c-1.5-2-2.9-4-4.5-6c-1.2-1.6-3.1-2.4-5-2.4C918.2,387.2,916.8,387.7,915.6,388.6L915.6,388.6L915.6,388.6z"/>
	<path style="fill:#161616;" d="M470.5,523.1c-5.7,0.3-11.1,2.7-15.6,6.1c-4.1,3.1-6.9,7.8-9.1,12.4c-1.8,3.6-2.8,7.6-3.9,11.4
		c-2.4,8.8-4.7,17.6-6.7,26.5c-3.6,15.4-7.1,31-9.8,46.6c-0.8,4.4-1.3,8.9-1.9,13.4c-0.3,2-0.5,4-0.7,6c-0.2,2-0.2,4,0,6
		c0.3,1,0.6,2,0.9,3.1c0.5,1,1,1.9,1.6,2.8c1,1.2,2.2,2.3,3.4,3.3c5.1,4.3,11.6,5.8,17.9,7.2c4.7,1,9.4,2.1,14.2,1.2
		c3.2-0.6,5.7-3.1,6.1-6.4c0.1-1.3-0.1-2.6-0.6-3.8c-0.7-1.5-2.3-3.4-4-3.8c-1.8-0.5-3.5-1.1-5.4-1.5c-1.4-0.3-2.8-0.5-4.1-0.7
		c-2.1-0.4-4.2-0.8-6.3-1.3c-2.2-0.6-4.3-1.3-6.4-2.2c-0.6-0.4-1.2-0.8-1.8-1.3c0.2-2.9,0.6-5.8,1-8.7c0.5-3.7,1-7.4,1.5-11.1
		c1-6.9,2.4-13.7,3.8-20.6c3-14.5,6.1-28.9,9.6-43.3c1.6-6.4,3.1-13,6.1-18.9c0.9-1.5,1.9-2.9,3-4.3c0.7-0.7,1.5-1.2,2.2-1.8
		c1-0.5,2-1,3.1-1.4c1.7-0.4,3.3-0.6,5-0.7c4.1,0,8.2,0.3,12.3,0.6c3.9,0.3,7.6-2.4,8-6.4c0.4-3.8-2.5-7.8-6.4-8
		c-4.1-0.3-8.3-0.5-12.4-0.5C473.4,523,471.9,523.1,470.5,523.1L470.5,523.1L470.5,523.1z M438.2,649.2c0.1,0.3,0.2,0.6,0.3,0.9
		C438.4,649.7,438.3,649.5,438.2,649.2L438.2,649.2L438.2,649.2z"/>
	<path style="fill:#161616;" d="M969.4,495.6c-0.5,4.1,2.5,7.2,6.3,7.9c4.8,0.8,9.5,1.9,14.3,3c2.2,0.6,4.4,1.3,6.6,1.9
		c3.3,1,6.6,1.8,9.7,3.3c1.3,0.8,2.4,1.7,3.6,2.6c1.1,1.2,2.1,2.4,3,3.7c0.8,1.5,1.4,3,2,4.6c1.3,4.8,2.2,9.7,2.8,14.7
		c0.6,4.8,1.2,9.5,1.5,14.3c0.7,9.1,1.4,18.1,1.6,27.2c0.1,4.2,0.1,8.4,0.1,12.6c0,3.5,0,7.2-0.4,10.7c-1.9,1-3.8,1.7-5.8,2.4
		c-5.4,1.5-10.9,2.8-16.4,4c-2.1,0.5-3.8,1.4-5.1,3.1c-1.3,1.7-1.8,3.9-1.5,6c0.7,4.1,4.9,7.6,9.1,6.6c3.6-0.8,7.3-1.8,10.9-2.7
		c4.2-1,8.3-2.1,12.4-3.6c2.6-1,5.2-2.6,7.5-4.2c3.5-2.6,4.5-6.8,4.7-10.8c0.2-3.7,0.3-7.4,0.3-11.1c0-16.1-0.8-32.3-2.8-48.4
		c-0.6-4.7-1.1-9.5-2-14.2c-0.6-3-1.3-6-2.1-8.9c-1-3.6-2.3-6.9-4.3-10.1c-1.8-2.8-4-5.1-6.4-7.4c-4.1-3.8-9.5-5.8-14.7-7.3
		c-3-0.8-6-1.7-9-2.5c-2.4-0.7-4.9-1.2-7.4-1.7c-3.6-0.8-7.1-1.5-10.7-2.2c-0.3-0.1-0.7-0.1-1-0.1
		C972.8,489.1,969.7,492.2,969.4,495.6L969.4,495.6L969.4,495.6z"/>
	<path style="fill:#161616;" d="M831.6,536.4c-5.4,0.2-10.8,1.2-16.1,2.5c-6,1.4-11.9,3.5-17.5,6.1c-10.8,5.2-19.6,13.9-26.4,23.6
		c-3.6,5.2-6.5,10.9-9.5,16.4c-2.5,4.6-4.1,9.6-5.6,14.5c-0.6,2-0.8,3.9,0.1,5.8c0.8,1.8,2.3,3.2,4.1,3.9c1.9,0.8,4,0.7,5.8-0.1
		c1.6-0.7,3.4-2.3,3.9-4.1c1.5-5.2,3.3-10.3,6-15.1c1-1.9,2.1-3.8,3.1-5.8c3.1-5.2,6.5-10.2,10.6-14.7c3.2-3.1,6.5-5.9,10.2-8.4
		c4.5-2.6,9.2-4.5,14.1-6.1c6.5-1.8,13.2-3,20-3.3c9-0.1,18.2,0.4,27,2.3c5.1,1.4,9.9,3.5,14.6,6c4.9,2.9,9.6,6.5,13.8,10.4
		c4.3,4.5,8,9.6,11.3,14.9c1,1.8,2,3.5,2.8,5.4c0.4,0.9,0.8,1.7,1.2,2.6c0.8,1.6,1.7,3.1,2.8,4.6c1.9,2.6,5.8,3.4,8.7,2.1
		c1.2-0.5,2.1-1.3,2.9-2.3c1.3-1.7,1.4-3.5,1.3-5.5c-0.1-4.5-2.5-8.7-4.7-12.5c-2.3-4-4.8-7.8-7.5-11.4c-2.1-2.8-4.2-5.5-6.7-8
		c-2.6-2.6-5.4-4.9-8.2-7.2c-3.4-2.7-7-5-10.8-7.1c-4.9-2.7-10.1-5-15.5-6.5c-9.2-2.5-18.7-3.3-28.2-3.3
		C836.8,536.3,834.2,536.3,831.6,536.4L831.6,536.4L831.6,536.4z"/>
	<path style="fill:#161616;" d="M840,563.3c-1.9,0.2-3.8,0.5-5.7,0.9c-2.4,0.5-4.8,1.3-7.1,2.3c-2.4,1-4.8,2.6-7,4
		c-4.7,2.9-8.9,6.4-12.9,10.2c-2.1,2-4.1,4.2-5.9,6.5c-1.6,2.1-3,4.5-4.3,6.8c-1.1,1.9-1.8,3.7-1.5,6c0.3,2,1.5,3.9,3.1,5.2
		c1.7,1.3,3.9,1.8,6,1.5c1.9-0.3,4.2-1.4,5.2-3.1c2.1-3.6,4.3-6.9,7-10c3.8-3.7,8-7.2,12.5-10.1c2.1-1.2,4.1-2.3,6.4-3.2
		c4.5-1.1,9.1-1.4,13.7-1.6c3.9,0,7.9,0.1,11.7,0.9c2.8,0.8,5.6,1.9,8.2,3.2c2.1,1.3,4,2.7,5.9,4.3c2.1,2.2,3.9,4.7,5.6,7.3
		c2.2,3.6,4.3,7.4,5.9,11.3c1.3,3,4.7,4.8,7.9,4.2c1.9-0.3,3.6-1.3,4.7-2.9c1.3-1.7,1.5-3.5,1.3-5.5c-0.1-2.8-0.7-5.5-2.1-8.1
		c-0.8-1.5-1.6-3-2.5-4.5c-2.1-3.7-4.3-7.3-7.1-10.5c-5.3-6.2-12.6-10.7-20.3-13.3c-5.6-1.9-11.5-2.5-17.5-2.5
		C847.6,562.6,843.8,562.9,840,563.3L840,563.3L840,563.3z"/>
	<path style="fill:#161616;" d="M473.7,763.7c-1.4,1.1-2.8,3.3-2.8,5.2c0,2.8,0.1,5.6,0.1,8.4c0-0.7,0-1.4,0-2
		c0.2,9,0.3,18,1.1,26.9c0.3,4,0.8,8,1.4,12c0.6,3.8,1.3,7.4,2.8,11c2.1,5.3,6.1,9.6,10.8,12.8c7.7,5.3,17,7.6,26.1,9.2
		c3.9,0.7,7.9,0.8,11.8,1c8.7,0.4,17.4-0.4,25.9-2.2c7.8-1.6,15.7-4.1,22.4-8.6c1.3-0.8,2.5-1.7,3.8-2.5c3-2.2,5.6-5,8.1-7.8
		c2.3-2.6,4-5.7,5.8-8.6c3-5.2,5.2-10.8,7.1-16.6c1.8-5.6,3.5-11.1,4.5-16.9c0.5-3.2-1.7-6.5-4.6-7.6c-1.8-0.7-3.9-0.7-5.7,0.1
		c-1.9,0.8-2.9,2.2-3.8,4c-1.3,2.5-2.3,5-3.1,7.7c-0.7,2.3-1.3,4.5-2.1,6.8c-1.5,4.8-3.4,9.4-5.7,14c-1.8,3.1-3.8,6-6.2,8.8
		c-2.2,2.1-4.6,3.9-7.1,5.6c-1.8,1-3.6,1.9-5.4,2.8c-1.6,0.7-3.3,1.3-5,1.8c-6.8,1.7-13.6,2.9-20.6,3.4c-8,0.1-16-0.3-23.8-2
		c-4-1.1-7.8-2.4-11.5-4.3c-1.5-0.9-3-1.9-4.4-3.1c-0.6-0.7-1.2-1.4-1.8-2.2c-0.7-1.2-1.2-2.4-1.7-3.7c-0.7-2.7-1.1-5.4-1.5-8.2
		c-0.3-2.2-0.6-4.4-0.9-6.6c-0.5-5-1-10-1.1-15c0,0.7,0,1.4,0,2.1c-0.1-4.3-0.2-8.6-0.3-12.8c0-2-0.1-3.9-0.1-5.9
		c0-2.1-0.3-3.9-1.6-5.6c-1.3-1.6-3.1-2.6-5.1-2.8c-0.3,0-0.6,0-0.8,0C476.8,762.1,475,762.6,473.7,763.7L473.7,763.7L473.7,763.7z
		 M507.9,830c0.2,0,0.4,0.1,0.7,0.2C508.3,830.1,508.1,830.1,507.9,830L507.9,830L507.9,830z"/>
	<path style="fill:#161616;" d="M983.4,747.2c-1.4,1.1-2.8,3.2-2.8,5.1c0,3.4-0.1,6.7-0.1,10.1c0,3.4,0,6.7-0.1,10.1
		c-0.1,3.5-0.4,7-0.8,10.5c-0.3,2.6-0.9,5.2-1.5,7.8c-1,3.6-2.3,6.9-3.9,10.2c-1.4,2.4-3.1,4.6-5,6.6c-1.3,1.3-2.6,2.5-4.1,3.6
		c-2,1-4.1,1.8-6.3,2.4c-6.9,1.7-13.9,2.9-20.9,3.9c-3.5,0.5-7.1,0.8-10.6,1.2c-3.1,0.3-6.2,0.6-9.4,0.7c0.3,0,0.7,0,1,0
		c-0.4,0-0.7,0-1.1,0c-0.3,0-0.7,0-1,0c0.3,0,0.6,0,0.8,0c-1.8,0-3.7,0.1-5.5,0.1c-2.7,0-5.3-0.1-8-0.2c-7.2-0.2-14.3-1.1-21.3-2.7
		c-4.3-1.1-8.5-2.5-12.5-4.5c-1.9-1.2-3.6-2.5-5.3-3.9c-1.1-1.1-2.1-2.3-3-3.7c-1-1.8-1.8-3.6-2.4-5.5c-2.4-9.1-2.6-18.6-3.1-27.9
		c-0.1-1.8-1.5-3.7-2.9-4.7c-1.6-1.2-3.6-1.7-5.5-1.3c-1.9,0.3-3.6,1.4-4.7,2.9c-1.3,1.7-1.5,3.5-1.3,5.5c0.5,8.4,0.6,16.8,2.1,25.1
		c0.7,3.8,1.7,7.6,3.3,11.1c2.4,5.1,6.1,9.3,10.5,12.8c4,3.3,8.9,5.5,13.7,7.1c6,2.1,12.3,3.4,18.5,4.3c6.7,1,13.5,1,20.2,1.2
		c5.1,0.1,10.2-0.3,15.2-0.6c7.8-0.5,15.7-1.4,23.5-2.8c3-0.5,6.1-1.1,9.1-1.8c1.9-0.4,3.7-1,5.5-1.5c2.5-0.8,5-1.5,7.4-2.7
		c3.9-1.9,6.9-4.8,9.9-7.8c3-3.2,5.5-6.6,7.6-10.5c1.7-3.2,3-6.4,4-9.8c0.8-2.5,1.3-5.1,1.9-7.6c1.4-6,1.6-12.2,1.8-18.3
		c0.2-6.6-0.1-13.3-0.7-19.9c-0.3-3.3-3.5-6-6.7-6.3c-0.3,0-0.5,0-0.8,0C986.5,745.5,984.8,746.1,983.4,747.2L983.4,747.2
		L983.4,747.2z M913.5,819.4c-1.1,0-2.3,0-3.4,0.1c0.7,0,1.4,0,2.1-0.1c0,0,0,0-0.1,0C912.6,819.4,913.1,819.4,913.5,819.4
		L913.5,819.4L913.5,819.4z M917.6,819.3c0.1,0,0.1,0,0.2,0c0,0,0.1,0,0.1,0C917.8,819.3,917.7,819.3,917.6,819.3L917.6,819.3
		L917.6,819.3z"/>
	<path style="fill:#161616;" d="M1223,1246.5c-1.2,0-2.4,0.1-3.6,0.1c-2.1,0-4.2,0.1-6.3,0.2c-17.4,0.8-34.7,1.6-52.1,2.1
		c-13.4,0.4-26.8,1-40.3,1.4c-4.6,0.1-9.2,0.2-13.8,0.3c-0.1,0-0.1,0-0.2,0c-0.6-0.1-1.3-0.1-2,0c-0.2,0-0.5,0-0.7,0
		c-0.7-0.1-1.4-0.1-2.1,0.1c-0.4,0-0.7,0-1.1,0c0.4,0,0.7,0,1.1,0c0,0,0,0,0,0c-6.3,0.2-12.7,0.3-19,0.6c-2.9,0.1-5.7,0.4-8.5,0.8
		c-2.4,0.4-5,0.8-7.3,1.7c-3.5-0.7-7.3,1.2-8.6,4.6c-3.8,9.8-7.6,19.7-11.5,29.5c-2.8,7.2-6,14.2-9.2,21.2
		c-7,15.2-14.2,30.3-21.4,45.4c-3.6,7.6-7.2,15.1-10.7,22.8c-0.8,1.8-1.5,3.7-1.5,5.6c0,0.7,0,1.4,0.1,2.1c0.2,1,0.5,1.9,1,2.7
		c0.6,1.2,1.9,3.1,3.1,3.8c1.2,0.7,2.3,1.4,3.6,1.9c1,0.4,2.2,0.6,3.3,0.9c2.3,0.6,4.6,1.1,6.9,1.4c4.3,0.7,8.6,1.1,12.9,1.4
		c8,0.7,16.1,1,24.1,1.5c8.1,0.5,16.3,1,24.4,1.3c8.9,0.3,17.8,0.5,26.7,0.6c8.7,0.1,17.4-0.2,26.1-0.5c8.8-0.3,17.5-0.7,26.2-1.3
		c7.9-0.6,15.8-1.3,23.5-3c1.2-0.3,2.3-0.5,3.5-0.8c2.8-0.8,5.2-1.9,7.4-3.7c2-1.6,3.6-3.7,5-5.8c1.9-2.6,3.3-5.5,4.7-8.4
		c1.5-3.3,2.7-6.8,3.8-10.2c0.7-2.2,1.5-4.4,2.1-6.6c2.2-8.1,4.2-16.1,6.2-24.2c4.1-16.1,8.3-32.2,13.3-48.1c1.3-4.1,2.6-8.2,4-12.2
		c1.3-3.5,2.8-7,4.1-10.5c0.8-2.2,1.5-4.4,1.8-6.7c0.5-2.9-0.5-5.7-2.4-7.8c-2.5-2.7-6-3.6-9.5-4.1c-1-0.2-2.1-0.2-3.2-0.2
		C1225.6,1246.4,1224.3,1246.4,1223,1246.5L1223,1246.5L1223,1246.5z M1107.2,1250.7c-0.1,0-0.2,0-0.2,0c0,0,0,0,0,0
		C1107.1,1250.7,1107.2,1250.7,1107.2,1250.7L1107.2,1250.7L1107.2,1250.7z M1104.7,1250.7
		C1104.7,1250.7,1104.7,1250.7,1104.7,1250.7c-0.2,0-0.4,0-0.6,0c0,0,0,0,0,0c0,0,0,0,0,0
		C1104.3,1250.7,1104.5,1250.7,1104.7,1250.7L1104.7,1250.7L1104.7,1250.7z M1224.2,1262.3
		C1224.2,1262.3,1224.2,1262.3,1224.2,1262.3c-0.2,0-0.3,0-0.5,0C1223.9,1262.3,1224,1262.3,1224.2,1262.3L1224.2,1262.3
		L1224.2,1262.3z M1224.2,1262.3c-0.6,1.4-1.2,2.8-1.7,4.2c-1.4,3.5-2.7,7.1-3.8,10.7c-2.4,7.8-4.8,15.6-7,23.5
		c-2.2,7.9-4.3,15.8-6.3,23.8c-2.1,8.4-4.1,16.9-6.4,25.3c-2.2,8.1-4.5,16.4-8.4,23.9c-1,1.7-2.1,3.3-3.4,4.9
		c-0.3,0.2-0.5,0.5-0.8,0.7c-0.1,0.1-0.3,0.1-0.4,0.2c-4,1-8,1.6-12.1,2.2c-4.8,0.6-9.7,1.1-14.5,1.4c-9.5,0.7-19.1,1-28.7,1.4
		c-8.2,0.1-16.4,0.3-24.6,0.2c-8.3-0.1-16.6-0.4-24.9-0.7c-8.1-0.3-16.1-0.9-24.2-1.3c-8.2-0.5-16.5-0.8-24.7-1.6
		c-3.5-0.4-6.9-0.8-10.3-1.4c1-2.2,2.1-4.3,3.1-6.4c1.7-3.6,3.4-7.2,5-10.8c3.7-7.8,7.4-15.6,11.1-23.5c7-14.8,13.9-29.7,19.9-44.9
		c3.3-8.2,6.4-16.5,9.6-24.8c0.5-0.1,1-0.2,1.5-0.3c1.3-0.3,2.6-0.6,3.9-0.8c2.9-0.5,5.8-0.8,8.7-0.9c6-0.3,12.1-0.5,18.1-0.6
		c0.1,0,0.1,0,0.2,0c0.6,0.1,1.3,0.1,2,0c0.2,0,0.5,0,0.8,0c0.7,0.1,1.4,0.1,2.1-0.1c0.4,0,0.7,0,1.1,0c-0.4,0-0.7,0-1.1,0
		c0,0,0,0,0,0c0.3,0,0.6,0,0.9,0c17-0.4,34-1,50.9-1.6c16.9-0.6,33.8-1.2,50.6-2c4.4-0.2,8.8-0.4,13.2-0.5
		C1223.8,1262.3,1224,1262.3,1224.2,1262.3L1224.2,1262.3L1224.2,1262.3z M1105.8,1266.6C1105.8,1266.6,1105.8,1266.6,1105.8,1266.6
		C1105.8,1266.6,1105.8,1266.6,1105.8,1266.6c-0.2,0-0.4,0-0.6,0C1105.4,1266.6,1105.6,1266.6,1105.8,1266.6L1105.8,1266.6
		L1105.8,1266.6z M1102.9,1266.6C1102.9,1266.6,1102.9,1266.6,1102.9,1266.6c-0.1,0-0.1,0-0.2,0
		C1102.7,1266.6,1102.8,1266.6,1102.9,1266.6L1102.9,1266.6L1102.9,1266.6z"/>
	<path style="fill:#161616;" d="M1217.4,1194.2c-9.3,0.2-18.7,0.5-28,0.7c0,0,0,0,0,0c0.4,0,0.8,0,1.2,0c-0.5,0-1,0-1.5,0
		c-0.2,0-0.4,0-0.6,0c0,0,0,0-0.1,0c0.2,0,0.3,0,0.5,0c-0.2,0-0.4,0-0.6,0c0.1,0,0.1,0,0.2,0c-0.1,0-0.2,0-0.3,0c-0.2,0-0.4,0-0.7,0
		c0.1,0,0.2,0,0.2,0c-0.1,0-0.2,0-0.3,0c0,0,0,0-0.1,0c-0.1,0-0.1,0-0.2,0c0,0,0,0,0,0c-0.1,0-0.1,0-0.2,0c0,0,0,0,0.1,0
		c-0.3,0-0.5,0-0.8,0c-0.2,0-0.4,0-0.6,0c0.5,0,1,0,1.5,0c0,0,0,0,0.1,0c-0.7-0.1-1.4-0.1-2,0c-0.4,0-0.8,0-1.2,0
		c-0.1,0-0.2,0-0.3,0c-0.7-0.1-1.3,0-1.9,0.1c-0.3,0-0.6,0-0.8,0c0.2,0,0.5,0,0.7,0c-0.9,0-1.8,0-2.7,0.1c0,0,0,0,0,0
		c0.1,0,0.2,0,0.4,0c-0.1,0-0.3,0-0.4,0c-0.2,0-0.3,0-0.5,0c-0.6,0-1.1,0-1.7,0c-0.3,0-0.6,0-0.9,0c0.3,0,0.6,0,0.8,0c0,0,0,0,0,0
		c-0.2,0-0.5,0-0.7,0c0,0,0,0,0.1,0c-0.4,0-0.9,0-1.3,0c-0.3,0-0.6,0-0.9,0c0.1,0,0.2,0,0.4,0c-0.7,0-1.3,0-2,0.1c0.1,0,0.2,0,0.3,0
		c-0.2,0-0.3,0-0.5,0c-0.2,0-0.5,0-0.7,0c0.1,0,0.1,0,0.2,0c-33.5,0.8-67.1,1.5-100.6,3.8c-16.8,1.1-33.6,2.5-50.2,5.6
		c-1.6,0.3-3.2,0.7-4.8,1.1c-2.1,0.5-4.1,1.2-6,2.3c-2.8,1.6-4.9,3.7-6.9,6.2c-1.9,2.4-3.2,5.3-4.5,8c-1.1,2.3-2,4.8-2.9,7.2
		c-0.9,2.4-1.7,4.9-2.6,7.3c-2.8,8-5.5,16.1-8.3,24.1c-5.3,15.1-11.7,29.8-18.3,44.4c-7.1,15.8-14.2,31.5-21.2,47.4
		c-13.3,29.9-26.8,59.8-38.8,90.3c-1.5,3.8-3,7.7-4.4,11.6c-0.3,0.8-0.5,1.6-0.8,2.4c0,0,0,0.1,0,0.1c-0.4,0.1-0.9,0.2-1.3,0.3
		c-6.1,1.4-12,3.5-17.8,6c-10.6,4.5-20.2,11-28.6,18.8c-8.4,7.8-15.8,16.9-22,26.6c-6.3,9.7-11.2,20.1-14.6,31.1
		c-1.7,5.5-3,11.2-3.9,16.9c-1,6.2-1.6,12.3-1.3,18.6c0.2,5.7,1.4,11.1,3.1,16.6c1.9,6.1,5,11.7,8.4,17c2.8,4.4,6.3,8.4,10,12.2
		c4.4,4.5,9.2,8.6,14.4,12.2c9.7,6.7,20.4,12.1,31.4,16.5c5.3,2.1,10.7,3.8,16.1,5.5c3.4,1.1,7,2.1,10.5,3c8.5,2.1,17,4.1,25.6,5.8
		c16.4,3.1,32.9,5.5,49.4,7.7c16.8,2.2,33.7,4.1,50.6,4.9c16.7,0.8,33.5,0.5,50.2,0.2c17.1-0.4,34.1-1.7,51.1-3.5
		c16.1-1.7,32.2-3.8,48.2-6.3c16.3-2.5,32.6-5,48.9-7.8c16.6-2.7,33.1-5.7,49.4-9.6c8.8-2.1,17.7-4.3,26.5-6.7
		c8.3-2.3,16.4-5.1,24.5-8c13.6-5,25.8-13.2,36.7-22.6c3.6-3,6.9-6.2,10.3-9.4c3.2-3,6.1-6.3,9.1-9.4c3.9-4.1,7.1-8.8,10.1-13.6
		c3.3-5.2,6.3-10.6,8.7-16.2c2.4-5.5,3.9-11.4,5.1-17.2c1.3-5.7,1.8-11.5,1.6-17.4c-0.1-2.6-0.3-5.3-0.7-7.9c-0.4-3-1.4-5.9-2.2-8.8
		c-1.7-5.7-4.8-10.8-8.2-15.7c-4.1-5.8-9.1-10.7-14.1-15.6c-3.4-3.3-7.1-6.2-10.8-9.1c-3-2.3-6.1-4.6-9.2-6.8
		c-7-4.8-14-9.3-21.4-13.5c-4.7-2.6-9.5-5.1-14.5-7.2c-5-2-10-3.8-15.1-5.3c-5-1.5-10.1-2.7-15.1-3.6c-1.8-0.3-3.5-0.6-5.3-0.8
		c-2.4-13.3-4.9-26.7-7.3-40c-2.9-15.9-4.8-32.1-6-48.2c-0.5-8-1-16.1-1.4-24.1c-0.5-9.1-1.1-18.1-1.8-27.2
		c-1.2-16.5-3.4-33-5.8-49.4c-1.8-12.2-4-24.4-6.8-36.4c-0.2-0.9-0.5-1.8-0.7-2.8c-0.7-2.8-1.9-5.4-4.2-7.2c-3.4-2.7-7.8-3.5-12-4.2
		c-3.6-0.6-7.3-0.8-11-0.9c-4.8-0.1-9.5-0.2-14.3-0.2C1221.4,1194.1,1219.4,1194.1,1217.4,1194.2L1217.4,1194.2L1217.4,1194.2z
		 M1189.3,1194.9C1189.3,1194.9,1189.2,1194.9,1189.3,1194.9C1189.2,1194.9,1189.2,1194.9,1189.3,1194.9
		C1189.3,1194.9,1189.3,1194.9,1189.3,1194.9L1189.3,1194.9L1189.3,1194.9z M1185.1,1195C1185.1,1195,1185.1,1195,1185.1,1195
		c-0.4,0-0.7,0-1,0c0,0-0.1,0-0.1,0C1184.3,1195,1184.7,1195,1185.1,1195L1185.1,1195L1185.1,1195z M1218,1210c-0.7,0-1.4,0-2.1,0.1
		c5,0,9.9-0.1,14.9,0c6.3,0.2,12.7,0.3,18.9,1.5c0.1,0,0.1,0,0.2,0.1c1.7,6.8,3.1,13.8,4.3,20.7c1.6,8.7,2.9,17.4,4.2,26.1
		c2.5,16.6,4,33.4,5.3,50.2c0.6,7.8,1,15.6,1.5,23.5c0.5,8,0.8,16.1,1.7,24.1c0.5,4.4,0.8,8.9,1.4,13.2c0.6,4.6,1.3,9.1,1.9,13.7
		c0.6,4.3,1.5,8.5,2.2,12.8c0.7,4.1,1.5,8.2,2.3,12.3c2,10.5,4,21,6,31.5c-0.6,1.4-0.9,3-0.6,4.5c0.3,1.7,1.1,3.2,2.2,4.2
		c0,0.2,0.1,0.5,0.1,0.7c-4.3-0.2-8.6-0.4-12.9-0.5c-14.1-0.5-28.1-0.5-42.2-0.5c-2.9,0-5.8,0-8.7,0c-14,0-27.9,0.2-41.8,0.4
		c-18.7,0.3-37.5,0.5-56.2,0.3c-17.1-0.2-34.2-0.6-51.3-0.7c-9.3,0-18.6,0-27.9,0.1c-3.9,0-7.8,0.2-11.7,0.3
		c-4.4,0.1-8.8,0.1-13.2,0.4c-8.1,0.5-16.2,1-24.3,1.7c-7.9,0.7-15.7,1.4-23.6,2.2c-8.9,0.8-17.9,1.7-26.8,2.5
		c-7.7,0.7-15.4,1.6-23.2,1.9c-0.2,0-0.3,0-0.5,0c0.4-1.1,0.8-2.1,1.2-3.1c1.4-3.7,2.9-7.4,4.4-11.1c3-7.6,6.1-15.1,9.3-22.7
		c6.5-15.1,13.1-30.2,19.8-45.3c7-15.7,14-31.4,21-47.1c3.2-7.1,6.5-14.2,9.6-21.4c3.7-8.5,7.3-17,10.8-25.5
		c3.3-8.1,6.2-16.4,9.1-24.7c1.3-3.7,2.5-7.5,3.8-11.2c2.3-6.6,4.4-13.3,7.6-19.5c0.6-1,1.2-1.9,2-2.7c0.3-0.3,0.6-0.5,1-0.8
		c0.5-0.2,0.9-0.4,1.4-0.6c7.2-1.7,14.7-2.8,22.1-3.7c8.4-1,16.9-1.8,25.3-2.4c16.3-1.1,32.6-2,48.9-2.6c12-0.4,23.9-0.7,35.9-1.1
		c7.1-0.1,14.2-0.3,21.3-0.5c-0.5,0-1.1,0-1.6,0c1.3,0,2.5-0.1,3.8-0.1c-0.7,0-1.4,0-2.1,0c1.1,0,2.1,0,3.2-0.1c-0.7,0-1.4,0-2.1,0
		c0.8,0,1.5,0,2.3-0.1c0.5,0,1,0,1.5,0c0.1,0,0.3,0,0.4,0c0.6,0.1,1.2,0,1.8-0.1c0.2,0,0.4,0,0.6,0c0.3,0,0.6,0,0.9,0
		c-0.2,0-0.3,0-0.5,0c0.7,0,1.3,0,2-0.1c0,0,0.1,0,0.1,0c0,0,0,0,0,0c0,0,0,0,0,0c0.1,0,0.1,0,0.2,0c0.7,0.1,1.3,0,2-0.1
		c0.1,0,0.2,0,0.4,0c0.3,0,0.6,0,0.9,0c0.7,0,1.4,0,2.2-0.1c0,0,0.1,0,0.1,0c0,0,0,0-0.1,0c0.1,0,0.3,0,0.4,0c-0.1,0-0.1,0-0.2,0
		c-0.1,0-0.2,0-0.2,0c-0.3,0-0.5,0-0.8,0c0.2,0,0.5,0,0.7,0c0,0,0,0,0,0c0.2,0,0.4,0,0.6,0c0,0-0.1,0-0.1,0c0.2,0,0.4,0,0.6,0
		c0,0-0.1,0-0.1,0c0.2,0,0.5,0,0.7,0c-0.3,0-0.7,0-1,0c5.6-0.1,11.2-0.3,16.8-0.5c-0.7,0-1.4,0-2.1,0
		C1208.3,1210.3,1213.1,1210.1,1218,1210L1218,1210L1218,1210z M1189.6,1210.8C1189.6,1210.8,1189.6,1210.8,1189.6,1210.8
		c-0.1,0-0.2,0-0.2,0C1189.5,1210.8,1189.6,1210.8,1189.6,1210.8L1189.6,1210.8L1189.6,1210.8z M1188.5,1464.1
		c17.1-0.2,34.1-0.2,51.2-0.1c15.2,0.1,30.4,0.3,45.5,1.3c7.6,0.5,15.3,1,22.9,1.9c8.3,1,16.6,2,24.8,3.9c5.9,1.6,11.7,3.5,17.1,6.3
		c3.5,2.1,6.7,4.6,9.7,7.4c1.7,1.8,3.2,3.7,4.5,5.7c2,3.4,3.5,6.9,4.8,10.6c1.1,4.2,1.8,8.4,2,12.7c0,3.1-0.2,6.2-0.8,9.2
		c-0.8,2.6-1.8,5.1-3,7.6c-2.4,3.9-5.2,7.5-8.3,10.9c-4.1,4-8.5,7.4-13.3,10.5c-5.2,3.1-10.6,5.7-16.1,8.1c-3.2,1.4-6.4,2.7-9.7,3.9
		c-2.6,1-5.2,2-7.9,2.8c0.5-0.1,0.9-0.3,1.4-0.4c-0.5,0.1-0.9,0.3-1.4,0.4c-0.2,0.1-0.4,0.1-0.6,0.2c0.2-0.1,0.3-0.1,0.5-0.2
		c-6.4,1.9-12.9,3.8-19.3,5.8c-4.2,1-8.3,2-12.5,3c-3.7,0.9-7.4,1.9-11.2,2.7c-7.8,1.6-15.6,3.4-23.5,4.7c-8.6,1.4-17.1,3-25.7,4.3
		c-9.3,1.3-18.7,2.7-28,4c-8.6,1.3-17.3,2.2-26,3.3c-8.5,1.1-16.9,2-25.4,3c-8.4,1-16.9,1.6-25.4,2.5c-8.4,0.8-17,1.1-25.4,1.6
		c-0.6,0-1.3,0.1-1.9,0.1c-8,0.2-16,0.4-24,0.5c-3.9,0.1-7.8-0.2-11.7-0.2c-4.8-0.1-9.6-0.2-14.4-0.3c-3.8-0.1-7.6-0.4-11.4-0.6
		c-3.8-0.2-7.7-0.3-11.5-0.6c-8.1-0.7-16.2-1.1-24.2-2.1c-5.1-0.6-10.2-1.2-15.4-1.8c-2.5-0.3-5-0.5-7.5-1
		c-5.1-0.8-10.2-1.7-15.3-2.5c-5.7-0.9-11.3-2.1-17-3.5c-14.2-3.6-27.9-8.7-40.8-15.6c-8.4-4.8-16.5-10.2-23.7-16.7
		c-3.2-3.2-5.9-6.6-8.4-10.4c-1.8-3.1-3.3-6.3-4.4-9.7c-0.6-2.4-1.1-4.9-1.3-7.4c0.1-2.7,0.4-5.3,0.9-8c1.4-4.9,3.4-9.5,5.9-14
		c2.4-4.2,5.2-8.2,8.5-11.8c3.5-3.5,7.3-6.8,11.2-9.8c2-1.6,4.1-3,6.2-4.4c5.4-3.1,11-5.9,16.9-7.9c1.2-0.3,2.5-0.6,3.7-0.9
		c0.6-0.1,1.2-0.2,1.8-0.3c0.7,0.1,1.4,0.2,2.1,0.3c3.5,0.4,7.2,0,10.7-0.2c2.2-0.1,4.3-0.2,6.5-0.4c4.1-0.4,8.2-0.7,12.3-1.1
		c16.9-1.6,33.8-3.3,50.7-4.8c8-0.7,16.1-1.2,24.1-1.7c6.4-0.4,12.8-0.4,19.3-0.6c16.4-0.2,32.7-0.2,49.1,0.1
		c17.7,0.3,35.4,0.5,53.2,0.5C1155.7,1464.8,1172.1,1464.3,1188.5,1464.1L1188.5,1464.1L1188.5,1464.1z M1327.6,1578.1
		c11.5-4.3,22.5-9.6,32.6-16.6c4.8-3.4,9-7.5,12.9-11.8c4.2-4.6,7.6-10,10.2-15.6c2.3-4.9,3.3-10.4,3.5-15.7c0.2-4.7-0.1-9.4-0.8-14
		c1.3,1.7,2.5,3.4,3.7,5.2c1.7,3,3.1,6.2,4.2,9.5c1,3.8,1.5,7.6,1.7,11.4c-0.1,5.3-0.9,10.6-2,15.8c-1.8,6.8-4.3,13.1-7.6,19.3
		c-3.7,6.5-7.9,12.9-13,18.4c-1.8,1.8-3.5,3.7-5.3,5.5c-2,1.9-4,3.8-6.1,5.7c-1.9,1.8-3.8,3.4-5.8,5c-4.9,4.2-10.1,8.2-15.6,11.6
		c-5.4,3.2-11,5.9-16.8,8.2c-2.5,1-5.2,1.9-7.8,2.8c-3.7,1.4-7.5,2.5-11.3,3.6c-3.9,1.1-7.9,2.1-11.8,3.2c-4.4,1.2-9,2.2-13.5,3.3
		c-7.9,1.9-15.8,3.7-23.7,5.3c-16.3,3.3-32.8,5.8-49.2,8.4c-16.3,2.5-32.5,5.2-48.8,7.4c-16.6,2.3-33.2,4.1-49.8,5.4
		c-8.8,0.7-17.5,1.1-26.3,1.4c0.7,0,1.4,0,2.2,0c-16.4,0.4-32.9,0.7-49.4-0.1c-16.8-0.8-33.6-2.6-50.4-4.8
		c-22.2-2.9-44.4-6.2-66.3-11.2c0.7,0.2,1.4,0.3,2.1,0.5c-2.9-0.7-5.8-1.4-8.7-2.2c-3.2-0.9-6.5-1.7-9.6-2.7
		c-3.6-1.2-7.3-2.4-10.9-3.6c-8.1-2.7-16-6.4-23.5-10.5c-7.1-4.1-13.9-8.7-19.9-14.2c-4.5-4.5-8.5-9.3-12-14.6
		c-2.2-3.9-4.1-8-5.5-12.3c-1-3.9-1.6-7.8-1.9-11.8c0-7.9,1.3-15.7,3.1-23.3c2.4-9.2,5.9-17.9,10.4-26.2c-0.3,2.6-0.4,5.2-0.2,7.8
		c0.3,5.9,2,11.7,4.4,17.1c2.2,5,5.4,9.7,8.8,14c3.7,4.7,8.3,8.7,13,12.4c9.1,7.2,19.3,13.1,29.7,18c17.3,8.2,36.1,13.1,55,16.2
		c5.1,0.8,10.3,1.7,15.4,2.5c3.4,0.6,6.9,0.8,10.3,1.2c4.7,0.5,9.5,1.1,14.2,1.6c4.1,0.5,8.2,0.7,12.3,1c8.9,0.7,17.9,1.2,26.8,1.6
		c8.6,0.4,17.1,0.5,25.7,0.7c8.4,0.2,16.8-0.1,25.2-0.3c3.3-0.1,6.6-0.1,9.9-0.3c5.6-0.3,11.2-0.7,16.8-1c8.3-0.5,16.6-1.3,24.9-2.1
		c16.5-1.6,33-3.6,49.5-5.8c16-2.1,32-4.2,48-6.9c6.3-1,12.5-2.1,18.8-3.1c5.6-0.9,11.2-2.3,16.8-3.4c4.3-0.9,8.5-1.8,12.7-2.9
		c5.8-1.4,11.7-2.6,17.4-4.3c-0.4,0.1-0.8,0.2-1.2,0.4C1305.9,1585.1,1316.9,1582.1,1327.6,1578.1L1327.6,1578.1L1327.6,1578.1z
		 M1344.9,1552.4c-0.2,0.1-0.4,0.3-0.6,0.4C1344.5,1552.7,1344.7,1552.5,1344.9,1552.4L1344.9,1552.4L1344.9,1552.4z M869.3,1556.2
		c0.1,0.1,0.3,0.2,0.4,0.4C869.5,1556.4,869.4,1556.3,869.3,1556.2L869.3,1556.2L869.3,1556.2z M892.9,1573.4
		c0.2,0.1,0.4,0.2,0.7,0.4C893.3,1573.6,893.1,1573.5,892.9,1573.4L892.9,1573.4L892.9,1573.4z M867.1,1626.6
		c0.2,0.1,0.4,0.2,0.6,0.4C867.5,1626.9,867.3,1626.8,867.1,1626.6L867.1,1626.6L867.1,1626.6z M1311.7,1566.8
		C1311.7,1566.8,1311.8,1566.8,1311.7,1566.8C1311.8,1566.8,1311.8,1566.8,1311.7,1566.8C1311.8,1566.8,1311.8,1566.8,1311.7,1566.8
		L1311.7,1566.8L1311.7,1566.8z M1181,1211c0.5,0,1.1,0,1.6,0c0,0,0,0,0,0C1182.1,1211,1181.5,1211,1181,1211L1181,1211L1181,1211z
		 M1188.2,1210.8c0.1,0,0.2,0,0.3,0c0,0,0.1,0,0.1,0C1188.5,1210.8,1188.3,1210.8,1188.2,1210.8L1188.2,1210.8L1188.2,1210.8z
		 M1188.4,1210.8c0.3,0,0.5,0,0.8,0C1188.9,1210.8,1188.6,1210.8,1188.4,1210.8L1188.4,1210.8L1188.4,1210.8z M1171.5,1195.4
		C1171.4,1195.4,1171.4,1195.4,1171.5,1195.4c0.1,0,0.3,0,0.5,0c0,0,0.1,0,0.1,0C1171.9,1195.4,1171.7,1195.4,1171.5,1195.4
		L1171.5,1195.4L1171.5,1195.4z M1170.3,1195.4c0.4,0,0.8,0,1.2,0c0.1,0,0.3,0,0.4,0C1171.3,1195.4,1170.8,1195.4,1170.3,1195.4
		L1170.3,1195.4L1170.3,1195.4z M1174.2,1195.3c-0.6,0-1.1,0-1.7,0c0.2,0,0.3,0,0.5,0c-0.4,0-0.8,0-1.2,0c0.5,0,0.9,0,1.4,0
		c0.3,0,0.6,0,0.9,0c0,0,0,0,0,0c0,0,0.1,0,0.1,0c0.1,0,0.3,0,0.4,0c0,0,0.1,0,0.1,0c0,0,0,0,0.1,0c0,0,0,0,0,0c0.4,0,0.7,0,1.1,0
		C1175.2,1195.3,1174.7,1195.3,1174.2,1195.3L1174.2,1195.3L1174.2,1195.3z M1179.2,1195.2c0.5,0,1,0,1.6,0
		C1180.2,1195.1,1179.7,1195.2,1179.2,1195.2L1179.2,1195.2L1179.2,1195.2z M1187.6,1195c0,0-0.1,0-0.1,0
		C1187.5,1195,1187.5,1195,1187.6,1195c-0.2,0-0.3,0-0.5,0c0,0,0,0,0,0c0,0,0,0-0.1,0c0,0,0,0-0.1,0c0,0,0.1,0,0.1,0c0,0,0,0,0,0
		c0.1,0,0.1,0,0.2,0c0,0,0,0,0,0c0,0,0,0,0,0c0,0,0.1,0,0.1,0c0,0,0,0,0,0c0.2,0,0.4,0,0.6,0c0,0,0.1,0,0.1,0c0.1,0,0.2,0,0.2,0
		c0,0-0.1,0-0.1,0c0,0,0.1,0,0.1,0c0.1,0,0.2,0,0.3,0C1188.4,1194.9,1188,1194.9,1187.6,1195L1187.6,1195L1187.6,1195z
		 M1215.3,1194.2c0.7,0,1.4,0,2,0c0,0,0.1,0,0.1,0C1216.8,1194.2,1216.1,1194.2,1215.3,1194.2L1215.3,1194.2L1215.3,1194.2z"/>
	<path style="fill:#161616;" d="M1555.3,1034.3c-2.2,0.8-3.8,3-5.3,4.7c-2.5,2.9-4.8,6-7,9c-10,13.7-18.9,28.3-26.8,43.3
		c-8.4,15.9-16.6,31.8-25.1,47.7c-2.8,5.2-5.7,10.4-8.5,15.5c-8.7,15.4-17.4,30.7-26.4,45.9c-9,15.1-18.3,30-27.6,44.9
		c-9,14.4-17.9,28.8-26.9,43.1c-8.6,13.8-17.3,27.7-25.4,41.9c-9.1,16-18,32.2-26.8,48.4c-8.1,14.8-16.1,29.6-23.9,44.6
		c-4.4,8.3-8.7,16.7-13,25.1c-0.9,1.8-0.7,4.3,0.1,6.1c0.8,1.8,2.4,3.3,4.3,4.1c2,0.8,4.2,0.7,6.1-0.1c2-0.9,3.1-2.4,4.1-4.3
		c9-17.4,18-34.7,27.4-51.9c8.1-14.9,16.3-29.8,24.5-44.7c1.1-2,2.2-3.9,3.3-5.9c3.9-6.9,7.8-13.8,11.8-20.6
		c4.7-7.9,9.5-15.8,14.4-23.6c9.3-15,18.7-30,28.1-45c17.7-28.5,35.5-56.9,52-86.2c8.2-14.6,16.4-29.2,24.2-44.1
		c7.6-14.5,15.1-29,23-43.4c4.3-7.3,8.7-14.6,13.4-21.6c2.3-3.4,4.7-6.8,7.2-10.2c0.2-0.2,0.3-0.4,0.5-0.6
		c1.5,7.9,2.4,15.9,3.4,23.8c1,8.9,2,17.7,3,26.6c1.9,17.3,4.2,34.6,6.2,51.9c1.1,9.7,1.9,19.4,2.5,29.2c0.6,9.7,0.9,19.5,1.6,29.3
		c-0.4,0.3-0.8,0.7-1.3,1c-4.2,2.4-8.5,4.6-12.6,7.2c-4.4,2.7-8.4,5.9-12,9.6c-6.9,7.1-12.1,15.9-15.8,25c-1.5,3.9-3.1,7.8-4.3,11.8
		c-2.7,9-4.8,18.1-6.5,27.3c-1.5,7.8-2.4,15.8-2.8,23.7c-0.4,8.9-0.3,17.9,0.8,26.7c1,8.1,2,16.4,4.3,24.2c0.5,1.5,0.9,3.1,1.4,4.7
		c0.4,1.3,0.8,2.5,1.3,3.7c0.6,1.4,1.5,2.6,2.3,3.9c0.8,1.2,2.1,2.4,3.2,3.4c1,0.9,2.1,1.7,3.3,2.5c2.5,1.7,5.4,2.9,8.3,3.8
		c5.1,1.6,10.3,2.2,15.7,1.8c4.3-0.3,8.6-1.8,12.6-3.4c3.7-1.4,7.3-3,11-4.4c1.8-0.7,3.5-1.3,5.3-2c1.6-0.6,3-1.2,4.5-2.2
		c1.7-1.1,3-2.6,4.1-4.2c0.5,2.6,2.4,4.9,4.9,5.9c3,1.2,6.1,0.8,9.2,0.6c1.9-0.1,3.9-0.2,5.8-0.2c7.5-0.1,15-0.1,22.5-0.4
		c4.2-0.2,8.3-0.6,12.5-1.4c1.9-0.3,3.8-0.8,5.7-1.4c2.4-0.6,4.6-1.4,6.7-2.6c2.4-1.3,4.1-2.8,6-4.8c2.9-3,4.9-6.7,6.9-10.4
		c1.8-3.3,3.2-6.7,4.3-10.3c2.5-8.4,3.3-17.1,3.7-25.8c0.4-8.2,0.3-16.6-0.3-24.8c-0.7-8.4-1.8-16.8-4.7-24.7
		c-1.4-3.9-3.1-7.4-5.3-10.9c-1.4-2.2-2.8-4.3-4.5-6.3c-1.4-1.8-3.1-3.3-4.8-4.9c-2.9-2.8-6-5.4-9.3-7.7
		c-7.6-5.2-15.7-9.3-23.9-13.3c-6.6-3.2-13.2-6.3-20-9.2c-5.4-2.3-11.1-4-16.8-5.3c-0.8-0.1-1.7-0.2-2.5-0.1c-0.7,0-1.4,0-2.2,0.1
		c-0.8,0.2-1.6,0.5-2.4,0.7c0.7-1.4,1.1-2.9,1.4-4.4c0.3-2,0.1-4,0-6c-0.1-2-0.2-4-0.3-6.1c-0.5-8.8-1-17.6-1.5-26.4
		c-1-16.4-3.1-32.6-5.1-48.9c-2.2-17.6-4.1-35.1-6.1-52.7c-1.1-9.7-2.3-19.5-4.3-29.1c-0.6-3-1.4-5.9-2.5-8.7
		c-1-2.6-2.7-4.7-4.8-6.4c-1.1-0.9-3.3-1.7-4.7-1.8c-0.3,0-0.5,0-0.8,0C1557.8,1033.5,1556.6,1033.9,1555.3,1034.3L1555.3,1034.3
		L1555.3,1034.3z M1536.7,1087c-0.1,0.3-0.3,0.5-0.4,0.8C1536.4,1087.5,1536.6,1087.3,1536.7,1087L1536.7,1087L1536.7,1087z
		 M1573.5,1215.8c0,0.2,0,0.5,0,0.7C1573.6,1216.2,1573.5,1216,1573.5,1215.8L1573.5,1215.8L1573.5,1215.8z M1573.9,1215.9
		c0,0.2-0.1,0.5-0.2,0.7C1573.8,1216.3,1573.9,1216.1,1573.9,1215.9L1573.9,1215.9L1573.9,1215.9z M1573.3,1217.6
		c-0.1,0.2-0.2,0.3-0.3,0.5C1573.1,1218,1573.2,1217.8,1573.3,1217.6L1573.3,1217.6L1573.3,1217.6z M1573,1217.7
		c-0.1,0.1-0.2,0.2-0.3,0.3C1572.8,1217.9,1572.9,1217.8,1573,1217.7L1573,1217.7L1573,1217.7z M1574.7,1234.9
		c1.1-0.6,2.2-1.2,3.3-1.8c1.6-0.9,3.2-1.8,4.6-2.9c-0.1,0.5-0.2,1-0.4,1.6c-0.4,1.5,0.3,3.2,0.7,4.7c0.2,0.9,0.4,1.8,0.6,2.7
		c1.8,7.5,3.4,15,4.3,22.7c0.9,7.5,1.2,15.2,1.6,22.7c0.1,3,0.2,6.1,0.2,9.1c0-0.5,0-1,0-1.5c0.1,3.2-0.1,6.4-0.2,9.6
		c-0.1,3-0.4,6-0.6,8.9c-0.4,6.2-1.1,12.4-1.7,18.6c-0.5,5.7-0.9,11.5-1.3,17.3c-0.2,2.8-0.3,5.6-0.5,8.3c-0.3,4.9-0.6,9.8-1.5,14.7
		c-0.3,0.9-0.6,1.8-0.9,2.7c-3.4,1.4-6.9,2.6-10.3,3.9c-3.6,1.4-7.1,3-10.8,4.3c-1.9,0.5-3.9,0.9-5.9,1.1c-2-0.1-4-0.3-5.9-0.7
		c-2-0.6-3.9-1.3-5.8-2.1c-0.8-0.5-1.6-1.1-2.4-1.8c-0.4-0.4-0.7-0.8-1-1.3c-0.5-1.1-0.9-2.2-1.3-3.3c-3.4-12.2-4.8-24.9-5.6-37.5
		c0-3.7,0.1-7.4,0.2-11.1c0.2-3.8,0.5-7.6,1-11.3c1.1-8.1,2.5-16.2,4.2-24.2c2.8-10.6,6-21.1,11.2-30.8c2.3-4,5-7.7,8-11.2
		c3.6-3.5,7.5-6.4,11.7-9C1571.8,1236.5,1573.3,1235.7,1574.7,1234.9L1574.7,1234.9L1574.7,1234.9z M1603.4,1256.5
		c-0.6-5-1.6-10-2.7-14.9c5.5,2,10.8,4.4,16.1,6.8c6.8,3.2,13.5,6.4,20.1,9.8c3.5,2,6.8,4.1,10.1,6.3c2.9,2,5.5,4.3,8,6.6
		c2.3,2.3,4.2,4.8,6,7.5c2,3.5,3.4,7,4.6,10.8c1.1,4.7,1.9,9.3,2.4,14.1c0.4,4.2,0.7,8.5,0.8,12.7c0.1,11-0.2,22.2-2.6,33
		c-0.5,1.8-1,3.5-1.7,5.3c-0.7,1.9-1.6,3.7-2.6,5.5c-1.2,2.2-2.6,4.3-4.2,6.2c-0.5,0.4-1,0.8-1.5,1.2c-0.9,0.5-1.9,0.9-2.9,1.2
		c-7,1.8-14,2.3-21.1,2.6c-4.3,0.1-8.6,0.1-12.9,0.2c-3.4,0.1-6.7,0.2-10.1,0.3c-0.7-0.6-1.4-1-2.2-1.4c-1.9-0.8-4.1-0.7-6,0.1
		c-0.4,0.2-0.8,0.4-1.2,0.7c0,0,0-0.1,0-0.1c0.5-2.4,0.7-4.8,1-7.3c0.2-1.9,0.3-3.7,0.4-5.6c0.2-3.3,0.4-6.6,0.6-9.9
		c0.5-7.2,1-14.3,1.7-21.5c0.7-7.3,1.3-14.6,1.8-21.9c0.5-7.6,0.2-15.2,0-22.7c0,0.7,0,1.4,0,2.1
		C1605.2,1275.1,1604.5,1265.7,1603.4,1256.5L1603.4,1256.5L1603.4,1256.5z M1655.9,1272c0.2,0.2,0.3,0.3,0.5,0.5
		C1656.2,1272.4,1656,1272.2,1655.9,1272L1655.9,1272L1655.9,1272z M1589.5,1282.6c0,0.2,0,0.4,0,0.6
		C1589.5,1283,1589.5,1282.8,1589.5,1282.6L1589.5,1282.6L1589.5,1282.6z M1665.9,1290.7c0.1,0.2,0.1,0.4,0.2,0.6
		C1666,1291.1,1665.9,1290.9,1665.9,1290.7L1665.9,1290.7L1665.9,1290.7z M1632.1,1371.4c-0.6,0-1.3,0-1.9,0.1
		C1630.9,1371.4,1631.5,1371.4,1632.1,1371.4L1632.1,1371.4L1632.1,1371.4z M1582.8,1372.8c-0.3,0.3-0.6,0.7-0.9,1
		C1582.2,1373.5,1582.5,1373.1,1582.8,1372.8L1582.8,1372.8L1582.8,1372.8z"/>
	<path style="fill:#161616;" d="M1594.1,1008c-2.1,0.2-4.3,1-6.2,1.7c-2.4,0.8-4.7,2.1-6.9,3.3c-3.8,2.2-7.4,4.8-10.9,7.5
		c-2.7,2.1-5.4,4.2-8,6.3c-1.2,1-2.4,1.9-3.6,2.9c-1,0.8-1.9,1.6-2.6,2.7c-1.5,2.3-2.3,5.6-0.8,8.2c0.5,1.2,1.3,2.1,2.3,2.9
		c1,0.8,2.2,1.2,3.5,1.4c0.3,0,0.7,0,1.1,0c3.3-0.1,5.9-2.2,8.5-4.2c1.8-1.5,3.7-2.9,5.5-4.4c3.8-3,7.7-6,11.7-8.7
		c2.3-1.3,4.7-2.5,7.2-3.4c0.5-0.1,1.1-0.2,1.6-0.3c0.8,1,1.6,2.1,2.3,3.3c5.5,9.5,9.4,19.9,12.7,30.4c2,7.4,3.7,14.8,5.2,22.2
		c1.5,7.6,2,15.3,2.3,23.1c0.4,7.4,0.5,14.9,0.8,22.3c0.3,8.4,0.7,16.8,1.3,25.2c0.7,10.3,1.8,20.7,2.6,31
		c0.8,10.1,1.2,20.2,1.5,30.3c0,4.4,0,8.8-0.1,13.3c-0.1,2.7-0.2,5.5,0.1,8.3c0.2,2.5,0.6,5,1,7.6c0.6,3.7,4.2,6.3,8,5.7
		c3.7-0.6,6.3-4.2,5.7-8c-0.4-2.3-0.7-4.7-0.9-7c0.1-6.8,0.5-13.6,0.4-20.4c0,0.6,0,1.3,0,1.9c-0.2-7-0.2-14-0.5-21
		c-0.4-7.5-0.8-15-1.2-22.4c-0.4-6.6-0.9-13.2-1.4-19.8c-0.4-6-0.6-12.1-0.8-18.2c-0.1-5.7-0.3-11.4-0.4-17.1c0,0.7,0,1.4,0,2.1
		c-0.1-5.3-0.3-10.6-0.4-15.8c0,0.7,0,1.4,0,2.1c-0.1-4.5-0.3-9-0.6-13.4c-0.3-3.7-0.8-7.4-1.4-11.1c-0.5-3.6-1.4-7.2-2.2-10.8
		c-0.8-3.7-1.7-7.4-2.7-11.1c-2.1-7.6-4.5-15.3-7.7-22.5c-1.4-3.4-2.9-6.7-4.7-10c-2.1-3.9-4.3-8-7.3-11.3c-1.6-1.7-3.3-2.9-5.4-3.8
		c-1.7-0.8-3.5-1-5.3-1C1596.1,1007.9,1595.1,1007.9,1594.1,1008L1594.1,1008L1594.1,1008z M1595.3,1023c0.1,0,0.2,0.1,0.3,0.2
		C1595.5,1023.1,1595.4,1023.1,1595.3,1023L1595.3,1023L1595.3,1023z M1596.6,1023.9c0.1,0.1,0.2,0.2,0.3,0.3
		C1596.7,1024,1596.6,1023.9,1596.6,1023.9C1596.6,1023.9,1596.6,1023.9,1596.6,1023.9L1596.6,1023.9L1596.6,1023.9z M1635,1130.2
		c0,0.5,0,0.9,0,1.4C1635,1131.2,1635,1130.7,1635,1130.2L1635,1130.2L1635,1130.2z M1635.1,1131.8c0,0.2,0,0.4,0,0.5
		C1635.1,1132.1,1635.1,1132,1635.1,1131.8L1635.1,1131.8L1635.1,1131.8z"/>
	<path style="fill:#161616;" d="M1549.8,983.8c-3.2,0.7-5.9,2.4-8.3,4.6c-3.2,3-5.3,6.7-6.5,10.9c-0.9,3.3-1.6,6.6-1.8,10
		c-0.2,2.9-0.2,6,0.3,8.9c1.1,5.9,2.8,11.7,5,17.3c1.6,4,6.6,5.6,10.3,3.9c3.9-1.8,5.6-6.4,3.9-10.3c-1.1-2.6-2-5.3-2.9-8
		c-0.8-2.9-1.4-5.7-1.6-8.7c0-2.4,0.3-4.8,0.8-7.2c0.4-1.2,0.7-2.5,1.3-3.6c0.3-0.4,0.6-0.8,1-1.2c0.4-0.4,0.9-0.8,1.3-1.2
		c0.3,0,0.5-0.1,0.8-0.1c4.7,0.1,9.5,1.2,14.1,2.3c2.6,0.7,5.3,1.5,7.8,2.5c2.5,1,5,2.2,7.4,3.5c2.1,1.2,4.1,2.4,6.1,3.8
		c2.3,1.6,4.4,3.5,6.6,5.3c3.3,2.8,8.7,1.7,11.2-1.7c1.3-1.7,1.8-3.9,1.5-6c-0.3-2.2-1.5-3.8-3.1-5.2c-2.2-1.9-4.4-3.8-6.8-5.5
		c-2.9-2-5.9-3.7-9-5.4c-2.6-1.4-5.2-2.7-7.9-3.8c-3.1-1.2-6.3-2.1-9.5-2.9c-4.9-1.2-9.8-2.1-14.8-2.6c-0.8-0.1-1.7-0.1-2.6-0.1
		C1552.8,983.3,1551.3,983.5,1549.8,983.8L1549.8,983.8L1549.8,983.8z M1552.3,999.3c-0.3,0.2-0.5,0.3-0.8,0.5
		C1551.7,999.7,1552,999.5,1552.3,999.3L1552.3,999.3L1552.3,999.3z M1583.6,1007.9c0.2,0.1,0.3,0.2,0.5,0.3
		C1583.9,1008.1,1583.8,1008,1583.6,1007.9L1583.6,1007.9L1583.6,1007.9z M1571.7,986.1c0.4,0.1,0.8,0.2,1.2,0.3
		c-0.7-0.2-1.4-0.3-2.1-0.5C1571.1,985.9,1571.4,986,1571.7,986.1L1571.7,986.1L1571.7,986.1z"/>
	<path style="fill:#161616;" d="M1544.3,988.2c-1.8,0.6-3.4,1.2-5,2.2c-2.1,1.3-3.8,2.8-5.5,4.6c-1.8,2-3.5,4.1-5.1,6.3
		c-2.3,3-4.3,6.2-6.3,9.4c-4.4,6.9-8.7,13.8-13,20.6c-4.3,6.8-8.8,13.6-13.1,20.3c-3.8,5.9-7.6,11.8-11.6,17.5
		c-5,7.2-10,14.5-15.1,21.6c-4.8,6.7-9.6,13.4-14.4,20c-9.2,12.7-18,25.7-26.7,38.7c-8.7,13.1-17.4,26.2-25.4,39.7
		c-8.7,14.5-17.1,29.1-25.7,43.7c-8.1,13.8-16.5,27.5-24.9,41.1c-7.9,13-15.7,26.1-23.3,39.3c-7.2,12.4-14.4,24.8-21.4,37.4
		c0.1-0.3,0.3-0.5,0.4-0.8c-0.8,1.4-1.6,2.8-2.4,4.2c-0.1,0.2-0.2,0.4-0.3,0.5c-4.4,7.8-8.7,15.7-12.9,23.6
		c-2.2,4.2-4.3,8.4-6.3,12.7c-1.7,3.6-3,7.3-4.9,10.8c-1.3,2.1-2.6,4.2-3.4,6.6c-1.1,3.3-0.3,6.9,2.6,9.1c3.3,2.4,8.5,1.9,10.8-1.6
		c2.8-4.1,5.3-8.5,7.2-13.1c1.8-4.4,3.7-8.6,5.8-12.9c4.5-9.1,9.5-18,14.4-26.9c0,0,0,0,0,0c0,0.1-0.1,0.1-0.1,0.2
		c0-0.1,0.1-0.1,0.1-0.2c0,0,0,0,0,0c0.1-0.2,0.2-0.4,0.4-0.7c0.1-0.2,0.3-0.4,0.4-0.7c0-0.1,0.1-0.1,0.1-0.2
		c0.6-1.1,1.2-2.2,1.8-3.3c15.9-28.1,32.1-56,48.8-83.6c8.4-13.8,16.8-27.7,24.9-41.7c4-6.9,8-13.8,12-20.7
		c3.8-6.6,7.7-13,11.6-19.5c4.1-7,8.6-13.8,13-20.5c4.6-7.1,9.2-14.1,13.8-21.1c8.6-13,17.6-25.8,26.6-38.5
		c9-12.6,18.1-25.1,26.5-38.1c9.1-14.1,18.1-28.2,27-42.5c2.8-4.4,5.5-8.9,8.1-13.4c3.2-5.3,6.4-10.8,10.6-15.5
		c0.5-0.5,1-0.9,1.6-1.3c1.1-0.6,2.3-1,3.5-1.4c1.6-0.5,2.9-2.2,3.5-3.6c0.7-1.7,0.6-3.5-0.1-5.2c-0.7-1.6-2-2.8-3.6-3.5
		c-0.8-0.3-1.5-0.4-2.3-0.4C1546.2,987.7,1545.3,987.9,1544.3,988.2L1544.3,988.2L1544.3,988.2z M1322.6,1356.6
		c-0.1,0.2-0.2,0.3-0.3,0.5C1322.4,1356.9,1322.5,1356.7,1322.6,1356.6L1322.6,1356.6L1322.6,1356.6z M1282.1,1400.8
		c-0.1,0.1-0.1,0.2-0.2,0.3C1282,1401,1282.1,1400.9,1282.1,1400.8L1282.1,1400.8L1282.1,1400.8z M1318.8,1363.5
		c-0.1,0.2-0.2,0.4-0.3,0.6c0.2-0.3,0.3-0.6,0.5-0.8C1318.9,1363.3,1318.8,1363.4,1318.8,1363.5L1318.8,1363.5L1318.8,1363.5z
		 M1308.2,1350c0.2-0.3,0.4-0.7,0.6-1C1308.5,1349.3,1308.4,1349.6,1308.2,1350L1308.2,1350L1308.2,1350z"/>
	<path style="fill:#161616;" d="M1086.9,1488.9c-32.1,0.4-64.2,2.3-96.2,5c-15.9,1.3-31.9,3.2-47.7,5.2c-8.2,1-16.4,2.2-24.6,3.5
		c-3.6,0.5-7.2,1.3-10.8,1.9c-3.2,0.6-6.4,1.1-9.6,1.8c-3.7,0.8-7.4,1.7-11.1,2.5c-2.4,0.5-4.8,1-7.2,1.7
		c-7.4,2.1-14.9,4.2-22.2,6.6c-1.5,0.5-2.8,2.1-3.4,3.6c-0.6,1.6-0.6,3.5,0.1,5.1c0.7,1.5,2,2.8,3.5,3.4c1.8,0.7,3.3,0.5,5.1-0.1
		c1.3-0.4,2.6-0.9,3.9-1.3c4-1.1,8-2.3,12-3.4c2.9-0.8,5.9-1.5,8.9-2.2c4.6-1,9.2-2,13.8-3c3.9-0.8,7.9-1.3,11.8-2
		c14.9-2.5,29.9-4.3,44.9-5.7c31.8-3.1,63.7-5.7,95.6-6.7c4.3-0.1,8.6-0.3,12.9-0.4c32.3-0.6,64.7-0.5,97,0.2
		c15.1,0.3,30.1,0.5,45.1,0.9c16.4,0.5,32.7,1.1,49.1,2c16,0.8,32.1,1.7,48.1,3c15.2,1.3,30.3,3,45.4,4.7c3.2,0.3,6.4,0.7,9.7,1
		c1.5,0.1,3,0.3,4.5,0.4c3,0.2,6.1,0.4,8.8-1.1c3.1-1.6,5.1-4.7,4.5-8.3c-0.3-2-1.4-3.8-3-5c-1.8-1.3-3.7-1.6-5.8-1.4c0,0,0,0-0.1,0
		c-3.1,0-6.3-0.4-9.4-0.7c-3.5-0.3-7-0.7-10.6-1.1c-7.8-0.8-15.6-1.7-23.4-2.5c-15.8-1.6-31.6-2.8-47.4-3.7
		c-15.6-0.9-31.1-1.7-46.7-2.2c-16.5-0.6-32.9-0.9-49.4-1.2c-15.5-0.3-31-0.4-46.6-0.7c-4.3-0.1-8.7-0.1-13-0.1
		C1111.3,1488.5,1099.1,1488.7,1086.9,1488.9L1086.9,1488.9L1086.9,1488.9z M1369.5,1500.7c-0.2,0-0.4,0-0.6,0
		C1369.1,1500.7,1369.3,1500.7,1369.5,1500.7L1369.5,1500.7L1369.5,1500.7z"/>
	<path style="fill:#161616;" d="M438.6,1593c-0.6,4.3,2.6,8.4,6.9,8.9c11.5,1.5,23,2.5,34.5,3.6c2.5,0.2,4.9,0.6,7.4,0.7
		c4.6,0.2,9.3,0.3,13.9,0.5c6.1,0.2,12.2,0.4,18.4,0.6c2.5,0.1,5,0.3,7.5,0.3c10.1,0,20.2,0,30.3,0c5.4,0,10.7,0,16.1,0
		c-0.7,0-1.4,0-2.1,0c0.8,0,1.6,0,2.3,0c-0.7,0-1.4,0-2.1,0c1.9,0,3.8,0,5.7,0c-0.2,0-0.4,0-0.7,0c9,0,18-0.1,26.9-0.1
		c-0.7,0-1.4,0-2.1,0c1.9,0,3.7,0,5.6,0c-0.1,0-0.2,0-0.3,0c-0.2,0-0.3,0-0.5,0c0.1,0,0.3,0,0.4,0c0,0-0.1,0-0.1,0c0,0,0.1,0,0.1,0
		c0.1,0,0.2,0,0.3,0c-0.1,0-0.1,0-0.2,0c21.3,0,42.5-0.6,63.8-0.8c-0.2,0-0.5,0-0.7,0c5.7,0,11.4-0.1,17.1-0.1
		c16,0,32.1,0.2,48.1,0.5c17.5,0.3,34.9,0.6,52.4-0.1c5.6-0.2,11.2-0.5,16.8-1c5.7-0.5,11.2-1.4,16.7-2.8c2-0.5,3.6-1.1,4.9-2.8
		c1.3-1.6,1.8-3.7,1.5-5.7c-0.3-1.9-1.3-3.7-2.8-4.9c-1.7-1.3-3.6-1.6-5.7-1.5c-4.3,0.2-8.5,0.9-12.7,1.5c-4.3,0.5-8.6,0.8-13,1
		c-8.6,0.5-17.1,0.7-25.7,0.8c-27.5,0-54.9-0.9-82.4-0.8c0.5,0,1,0,1.5,0c-6.1,0-12.1,0.1-18.2,0.1c0.7,0,1.4,0,2.1,0
		c-20.7,0.1-41.5,0.6-62.2,0.7c-0.1,0-0.2,0-0.3,0c-0.4,0-0.8,0-1.2,0c0,0-0.1,0-0.1,0c-0.1,0-0.2,0-0.3,0c0.1,0,0.2,0,0.3,0
		c0,0,0.1,0,0.1,0c0.6,0,1.2,0,1.7,0c-2.2,0-4.4,0-6.6,0c0.1,0,0.3,0,0.4,0c-8.1,0-16.1,0.1-24.2,0.1c0.1,0,0.3,0,0.4,0
		c-2.1,0-4.1,0-6.2,0c0.4,0,0.9,0,1.3,0c-0.1,0-0.3,0-0.4,0c0,0,0,0,0,0c0,0,0,0,0,0c-0.1,0-0.1,0-0.2,0c0,0,0,0,0,0
		c-9,0-17.9,0-26.9,0c-6.9,0-13.8,0.1-20.6-0.1c-11.2-0.4-22.3-0.8-33.5-1.2c-7.6-0.3-15.3-1.2-22.9-1.9c-7.4-0.7-14.7-1.4-22-2.4
		c-0.3,0-0.7-0.1-1-0.1C442.6,1586,439.1,1589,438.6,1593L438.6,1593L438.6,1593z M571.7,1591.7
		C571.7,1591.7,571.7,1591.7,571.7,1591.7c-0.1,0-0.2,0-0.3,0C571.5,1591.7,571.6,1591.7,571.7,1591.7L571.7,1591.7L571.7,1591.7z
		 M685.7,1606.6c-0.1,0-0.1,0-0.2,0C685.6,1606.6,685.6,1606.6,685.7,1606.6L685.7,1606.6L685.7,1606.6z M609.3,1607.4
		c-0.1,0-0.1,0-0.2,0c0,0,0,0,0,0C609.1,1607.4,609.2,1607.4,609.3,1607.4L609.3,1607.4L609.3,1607.4z M607.7,1607.4
		c-0.1,0-0.1,0-0.2,0c-0.1,0-0.2,0-0.4,0c0.1,0,0.2,0,0.3,0C607.5,1607.4,607.6,1607.4,607.7,1607.4L607.7,1607.4L607.7,1607.4z
		 M576.3,1607.6c0.2,0,0.4,0,0.6,0C576.7,1607.6,576.5,1607.6,576.3,1607.6L576.3,1607.6L576.3,1607.6z M668.9,1606.7
		c0.5,0,0.9,0,1.4,0C669.8,1606.7,669.3,1606.7,668.9,1606.7L668.9,1606.7L668.9,1606.7z M602.7,1591.5c0.6,0,1.1,0,1.7,0
		C603.8,1591.5,603.2,1591.5,602.7,1591.5L602.7,1591.5L602.7,1591.5z M687.1,1590.7c0.2,0,0.4,0,0.5,0
		C687.5,1590.7,687.3,1590.7,687.1,1590.7L687.1,1590.7L687.1,1590.7z"/>
	<path style="fill:#161616;" d="M1680.9,1547.6c-17.4,1.9-34.8,3.9-52.3,5.5c-16,1.5-32.1,2.3-48.2,3c-17.5,0.8-35,1.7-52.5,2.4
		c-18.7,0.8-37.4,1.5-56.1,2.1c-27.2,1-54.4,1.6-81.6,2.4c-2,0.1-4.1,1.5-5.2,3c-1.3,1.7-1.9,3.9-1.6,6c0.3,2.1,1.4,4,3,5.2
		c1.8,1.4,3.8,1.7,6,1.6c40.1-1.2,80.2-2.1,120.2-3.8c18.3-0.8,36.6-1.6,54.8-2.4c16.1-0.8,32.1-1.4,48.2-2.6
		c10.8-0.8,21.7-1.7,32.5-2.8c5.8-0.6,11.6-1.2,17.3-1.9c5.9-0.7,11.8-1.3,17.6-2.6c2-0.4,3.7-1.2,5-2.9c1.3-1.6,1.8-3.7,1.6-5.8
		c-0.5-3.9-3.9-6.6-7.8-6.6C1681.5,1547.6,1681.2,1547.6,1680.9,1547.6L1680.9,1547.6L1680.9,1547.6z"/>
	<path style="fill:#161616;" d="M1148.2,765.8c-1.1,0-2.1,0-3.2,0.1c-2.2,0-4.3,0.3-6.4,0.4c-3.5,0.3-6.9,0.6-10.4,0.9
		c-9.3,0.8-18.5,1.6-27.8,2.4c-15.3,1.3-30.6,2.4-45.9,3.4c-19.8,1.3-39.6,2.7-59.4,3.9c-4.4,0.3-7.4,4.9-6.9,9c0.3,2.1,1.4,4,3,5.2
		c1.8,1.4,3.8,1.8,6,1.6c40.1-2.6,80.2-5.2,120.3-8.6c5.1-0.4,10.2-0.9,15.3-1.4c3-0.3,6-0.5,9.1-0.9c3.6-0.4,7.1-0.9,10.7-1.2
		c0.2,0,0.4,0,0.6,0c3.2,0.2,6.2-1.3,7.5-4.4c1.4-3.4-0.1-8.2-3.9-9.4c-1.2-0.4-2.5-0.7-3.7-1c-0.8-0.2-1.7-0.3-2.6-0.3
		C1149.7,765.8,1148.9,765.8,1148.2,765.8L1148.2,765.8L1148.2,765.8z"/>
	<path style="fill:#161616;" d="M473.7,794.8c-16.4,1.9-32.8,3.9-49.2,5.3c-17,1.5-34.1,2.7-51.1,3.8c-35.7,2.2-71.3,3.7-107,5.2
		c-32.9,1.4-65.8,2.5-98.7,3.7c-2,0.1-4.1,1.5-5.2,3c-1.3,1.7-1.9,3.9-1.6,6c0.3,2,1.4,4,3,5.2c1.8,1.4,3.8,1.7,6,1.6
		c41.1-1.5,82.3-2.8,123.4-4.8c35.3-1.7,70.7-3.2,106-5.8c12.9-1,25.8-1.9,38.7-3.2c12.6-1.3,25.3-2.5,37.9-4.3
		c4.3-0.6,7.4-4.6,6.8-9c-0.5-4-4.1-6.9-8-6.9C474.4,794.8,474.1,794.8,473.7,794.8L473.7,794.8L473.7,794.8z"/>
	<path style="fill:#161616;" d="M1000.6,33.3c-39.9,0-80.9,2.6-122,7.6c-113.9,14-224.4,48.9-328.5,103.6
		c-47.9,25.1-95,55.5-140.2,90.1C366.6,268,325.2,306.1,286.7,348c-37.6,41-72.2,86.1-102.7,133.9c-29.9,46.9-56.3,97.8-78.5,151.5
		c-45.1,109-69.2,226-71.9,347.7c-1.3,59.3,3.2,120.1,13.3,180.7c4.7,28.2,11.1,57.7,19.1,87.7c7.1,26.6,15.7,53.9,26.5,83.4
		c39.1,107.3,97.7,207.1,174.2,296.4c71.8,84,157.6,154.8,254.9,210.6c48.3,27.7,100.2,51.5,154.3,70.9c53,19,109.9,33.6,169,43.3
		c50.7,8.3,102.8,12.6,154.7,12.6c68,0,136.3-7.2,203.1-21.3c52.1-11.1,105.1-27.3,157.4-48.2c47.7-19.1,95.1-42.8,140.9-70.6
		c43.5-26.4,85.9-57,126.1-91.2c38.7-32.9,76.1-70.5,111.2-111.8c35.5-41.7,68-87.6,96.6-136.5c28.3-48.3,52.8-100.3,72.7-154.6
		c2.4-6.6,4.7-13.1,6.9-19.7c0.8-2.3,1.6-4.7,2.4-7c17.6-52.5,30.9-108.7,39.5-167c8.8-60.4,11.8-123,8.9-186
		c-2.8-59.9-11.5-120.6-25.8-180.3c-13.5-56.3-32.9-112.9-57.7-168.2c-23.5-52.6-52.8-104.3-87-153.9c-32.5-47-69.8-91.7-110.8-133
		c-39.5-39.7-83.6-76.8-131.1-110.1c-45.5-32-95.5-60.7-148.7-85.4c-51.5-23.9-106.6-43.5-163.7-58.2
		c-56.9-14.7-116.9-24.2-178.3-28.3C1041.9,34,1021.1,33.3,1000.6,33.3L1000.6,33.3L1000.6,33.3z M925.3,180.7c0,0,0.1,0,0.1,0
		c22-1.7,44.5-2.6,66.8-2.6c14.7,0,29.5,0.4,44.1,1.1c35.7,1.8,72.5,6.1,109.4,12.9c35.6,6.8,71.2,16,105.7,27.3
		c33.6,11,67.7,24.8,101.2,41l-1.7-1c31.8,15.6,62.8,33.2,92.2,52.3c29.2,19,58.1,40.7,86.1,64.6l0.5,0.4l-0.3-0.5
		c2.2,2,4.4,3.9,6.6,5.8l-28.8,26.5l-44.1,40.7l-44.1,40.7l-57.8,53.3l-118.6,109.4C1122.2,763.6,1002,874.4,881.9,985.2
		c-90.3,83.3-180.7,166.7-271,250l-92.3,85.1l-93.8,86.5l-93.8,86.5c-5-6.8-10.2-14-15.4-21.4c-20-29-38.4-59.6-54.7-90.8
		c-16.5-31.7-31.4-65.8-44.3-101.3l0.3,1.3c-12-34.1-22-69-29.6-103.7c-7.5-34.1-12.8-70-16-106.9l0-0.5l-0.1-0.5
		c-2.8-36.8-3.2-73.9-1.4-110.5c1.8-36.1,6.3-73.3,13.2-110.7c7.1-36.9,16.7-73.6,28.6-109c10.6-31.8,23.8-64.1,39.2-96.1
		c15.5-31.8,33.3-63,52.8-92.7c18.9-28.8,40.4-57.4,64-85l-0.8,0.6l-0.7,0.8c23.1-26.6,47.9-52,73.7-75.5
		c25.3-23,53.3-45.3,83.3-66.3l0.5-0.3l0.5-0.4c28.6-19.7,58.6-37.7,89.1-53.7c31.2-16.3,64.7-31,99.6-43.8
		c33.3-11.9,67.6-21.9,102-29.5c34.9-7.8,71.9-13.4,109.8-16.6l-0.5-0.1l0.6,0.1l0.4,0c0,0,0,0,0,0
		C925.2,180.7,925.2,180.7,925.3,180.7C925.2,180.7,925.3,180.7,925.3,180.7C925.3,180.7,925.3,180.7,925.3,180.7L925.3,180.7
		L925.3,180.7z M632.1,1743.7c-31-15.3-61.2-32.5-89.8-51.2c-29.1-19-57.9-40.6-85.6-64.3l-1.3-1.1l-1.3-1.1
		c74.4-68.7,148.8-137.4,223.3-206.1L788,1317.7l144.9-133.7l222.8-205.6l93.7-86.5c90.8-83.8,181.5-167.5,272.2-251.4l12.7-11.8
		c26.1-24.1,52.2-48.3,78.3-72.5c12.6-11.7,25.2-23.4,37.8-35.2l7.1-6.6c4.5,6.2,9.2,12.7,13.7,19.2c20.1,29.3,38.6,60,54.9,91.3
		c15.9,30.6,30.3,63.5,42.8,97.7l0.2,0.4c0,0,0.1,0.2,0.1,0.2c0,0,0,0,0,0c0,0,0,0,0,0c0,0,0.1,0.1,0.1,0.1c0,0,0,0,0,0l0.1,0.5
		c11.8,33.3,21.7,67.7,29.4,102.3c7.6,34.5,13,70.7,16.2,107.6l0,0.5c0,0.5,0.1,0.9,0.1,1.3l0.1-0.5c2.7,36.8,3.2,74,1.3,110.5
		c-1.8,35.9-6.2,72.8-13,109.6c-6.8,35.9-16.1,71.6-27.4,106.2c-11,33.4-24.7,67.3-40.8,100.7c-15.6,32-33.5,63.3-53.1,93.2
		c-18.9,28.8-40.5,57.4-64.2,85c-22.8,26.3-47.5,51.5-73.3,74.8c-7.3,6.6-14.7,13-22,19.1c-18.3,15.3-37.9,30.2-58.2,44.4
		c-29.2,20.2-60,38.8-91.6,55.2c-31.8,16.5-65.3,31.2-99.5,43.7c-33,11.9-67.2,21.8-101.6,29.5c-35,7.8-71.8,13.4-109.5,16.6
		l-0.7,0.1c-22.4,1.8-45.1,2.7-67.6,2.7c-13.5,0-27.4-0.3-41.5-1c-36.6-1.7-74.3-6.2-112.1-13.1c-36-6.9-72-16.2-106.9-27.7
		c-33.8-11.1-68-25.1-101.6-41.4L632.1,1743.7L632.1,1743.7L632.1,1743.7z"/>
</g>
</svg>
