<?xml version="1.0" encoding="utf-8"?>
<!-- Generator: Adobe Illustrator 22.1.0, SVG Export Plug-In . SVG Version: 6.00 Build 0)  -->
<svg version="1.1" id="Layer_1" xmlns="http://www.w3.org/2000/svg" xmlns:xlink="http://www.w3.org/1999/xlink" x="0px" y="0px"
	 viewBox="0 0 2000 2000" style="enable-background:new 0 0 2000 2000;" xml:space="preserve">
<g>
	<path style="fill:#161616;" d="M987.6,274.2c-2.4,0.1-4.7,0.2-7.1,0.3c-54.6,2.3-108.9,10.9-161.5,25.6c-8.4,2.3-16.8,4.8-25.2,7.5
		c-17,5.4-33.8,11.5-50.3,18.2c-20,8.1-39.6,17.1-58.8,26.9c-15.6,8-31,16.6-46,25.7c-1.6,1-3.3,2-4.9,3c-24,14.9-47.1,31.3-69.2,49
		c-2.1,1.6-4.1,3.3-6.1,4.9c-24.4,19.9-47.5,41.4-69,64.4c-26.9,28.6-51.5,59.5-73.4,92.1c-3.7,5.5-7.4,11.1-10.9,16.7
		c-43.5,68.5-74.8,144.7-92.7,223.8c-9.6,42.2-15.1,85.4-16.9,128.6c-0.7,17.5-0.8,34.9-0.2,52.4c0,1.2,0.1,2.4,0.1,3.6
		c0.9,25.5,3.2,50.9,6.9,76.2c3.4,23.8,8,47.5,13.8,70.8c12.3,49.5,30.1,97.7,52.7,143.4c3.5,7.2,7.2,14.3,11,21.4
		c26.8,50.1,59.8,96.9,97.7,139.2c1.3,1.4,2.6,2.8,3.8,4.3c14,15.5,28.7,30.3,44,44.4c2.9,2.7,5.8,5.4,8.8,8
		c13.7,12.3,28,24.1,42.7,35.2c29.8,22.8,61.3,43.2,94.2,61.1c35.3,19.2,72.4,35.2,110.4,48.2c79.6,27.2,164.1,39.5,248.1,37.5
		c83.6-2,166.7-18.9,244.5-49.6c37.1-14.6,73-32.4,107.2-53c33.3-20,64.8-43,94.4-68c60.9-51.6,112.7-113.7,153.4-182.3
		c25.8-43.5,46.8-89.8,62.6-137.8c7.8-23.2,14.2-46.9,19.5-70.8c2.8-12.5,5.2-25,7.3-37.6c14.8-89.2,12.3-181-6.6-269.4
		c-18.3-85.7-53.2-167.7-101.3-240.9c-24.3-37-52.2-71.7-82.8-103.7c-12.5-13-25.5-25.5-38.9-37.5c-9.5-8.5-19.3-16.8-29.3-24.8
		c-9-7.2-18.1-14.2-27.3-20.9c-25.3-18.5-51.8-35.2-79.4-50.2c-0.2-0.1-0.4-0.2-0.6-0.3c-0.1-0.1-0.2-0.1-0.3-0.2
		c-16.7-9-33.8-17.4-51.2-25.1c-0.2-0.1-0.5-0.2-0.7-0.3c-0.3-0.1-0.5-0.2-0.8-0.3c-25.7-11.3-52-21-78.8-29.3
		c-54-16.6-110.1-26.4-166.6-29.7c-0.4,0-0.9-0.1-1.3-0.1c-13.6-0.8-27.2-1.2-40.8-1.2C1003.7,273.8,995.6,274,987.6,274.2
		L987.6,274.2L987.6,274.2z M1105.7,295.4c31.1,4.3,61.9,10.6,92.2,18.9c29.8,8.1,58.9,18.4,87.4,30.4c0,0,0,0,0.1,0
		c-0.6-0.2-1.2-0.5-1.7-0.7c27.4,11.7,54.1,25,79.9,40c26.7,15.5,52.3,32.9,76.8,51.7c-0.4-0.3-0.7-0.6-1.1-0.9
		c0.4,0.3,0.8,0.6,1.1,0.9c0.1,0.1,0.3,0.2,0.4,0.3c-0.1-0.1-0.3-0.2-0.4-0.3c23.1,18,45,37.3,65.8,57.9
		c21.5,21.3,41.5,44.1,60.1,68c18.9,24.6,36.2,50.3,51.9,77.1c14.8,25.3,27.8,51.6,39.3,78.5c11.6,27.7,21.5,56.1,29.6,85
		c8.6,30.8,14.9,62.1,19.3,93.8c8.2,62.6,8.2,126.1,0,188.7c-4.3,31-10.6,61.7-18.8,91.9c-8.1,29.6-18.3,58.7-30.2,87
		c-11.8,27.5-25.2,54.3-40.3,80.2c-15.2,26.1-32.2,51.1-50.6,75c-18.3,23.5-37.9,45.8-58.9,66.9c-21.3,21.4-44.2,41.4-68,60
		c-23.7,18.2-48.4,34.8-74.1,50c-26.4,15.5-53.9,29.2-82,41.2c0.1,0,0.1-0.1,0.2-0.1c-28.1,11.8-56.8,21.7-86.2,29.8
		c-30.4,8.4-61.4,14.6-92.6,18.9c-62.2,8.1-125.2,8.1-187.4-0.1c-31.1-4.3-61.8-10.5-92-18.8c-29.7-8.1-58.8-18.3-87.2-30.3
		c-27.6-11.8-54.3-25.3-80.2-40.4c-26.4-15.4-51.8-32.7-76-51.3c-0.1,0-0.1-0.1-0.2-0.1c0.5,0.4,0.9,0.7,1.4,1.1
		c-2-1.6-4-3.2-6.1-4.8c-21-16.7-41-34.5-60.1-53.4c-22-21.8-42.5-45.2-61.4-69.7c-17.8-23.3-34.2-47.6-49.1-72.8
		c-15.5-26.2-29.1-53.5-41.1-81.5c-11.9-28.3-22-57.4-30.2-87c-8.4-30.4-14.6-61.3-18.9-92.5c-8.1-62-8.1-124.9,0-186.9
		c4.3-31.3,10.6-62.3,18.9-92.8c8-29.5,18.2-58.3,30-86.5c11.9-27.9,25.6-55.1,40.9-81.3c15.3-26.1,32.3-51.1,50.8-75.1
		c36.8-47.1,79.2-89.5,126.4-126.2c23.4-18,47.8-34.5,73.2-49.5c26.2-15.5,53.5-29.2,81.5-41.1c28.2-11.9,57.1-21.9,86.6-30.1
		c30.6-8.5,61.8-14.8,93.2-19.1C980.2,287.2,1043.4,287.3,1105.7,295.4L1105.7,295.4L1105.7,295.4z M1566.3,561.7
		c0.3,0.4,0.6,0.8,0.9,1.2C1566.9,562.5,1566.6,562.1,1566.3,561.7L1566.3,561.7L1566.3,561.7z M1657.5,717.4
		c0.1,0.2,0.2,0.5,0.3,0.7C1657.7,717.9,1657.6,717.7,1657.5,717.4L1657.5,717.4L1657.5,717.4z M1567.5,1417.5
		c-0.2,0.2-0.3,0.4-0.5,0.7C1567.2,1417.9,1567.4,1417.7,1567.5,1417.5L1567.5,1417.5L1567.5,1417.5z M738.3,1636.3
		c0.1,0,0.2,0.1,0.3,0.1C738.5,1636.4,738.4,1636.4,738.3,1636.3L738.3,1636.3L738.3,1636.3z M1440.4,435.7
		C1440.3,435.7,1440.3,435.7,1440.4,435.7C1440.3,435.7,1440.3,435.7,1440.4,435.7C1440.3,435.7,1440.3,435.7,1440.4,435.7
		L1440.4,435.7L1440.4,435.7z"/>
	<path style="fill:#161616;" d="M901.4,813.4c-6,0-12,0.4-17.9,1.2c-6.3,0.9-12.4,2.4-18.5,4.1c-5.3,1.6-10.4,3.5-15.5,5.4
		c-9.1,3.3-17.9,7.8-26.3,12.6c-4.9,2.8-9.6,5.9-14.3,9c-2.9,1.8-5.6,3.8-8.4,5.8c-3.2,2.3-6.5,4.5-9.6,7c-6.3,5-12.6,9.9-18.8,15.1
		c-6.4,5.4-12.7,10.7-19.2,16.1c-12.4,10.3-24.9,20.3-37.6,30.1c-14.3,11-28.5,22.1-42.7,33.3c-5.5,4.3-10.9,8.8-16.3,13.1
		c-7.7,6.2-15.4,12.4-23.1,18.6c-4.7,3.8-9.4,7.8-14.1,11.7c-8.7,7.2-17.3,14.4-26,21.6c-11.8,9.9-23.4,20-35,30.1
		c-3.7,3.2-7.4,6.4-11,9.6c-3.2,2.8-4,7.4-1.3,10.8c2.5,3.2,7.7,4.1,10.8,1.3c8.4-7.4,16.9-14.7,25.4-22.1
		c5.6-4.8,11.2-9.8,16.9-14.5c14.2-11.8,28.4-23.7,42.6-35.6c5.1-4.3,10.4-8.4,15.6-12.6c7.8-6.3,15.6-12.6,23.5-18.9
		c11.8-9.6,23.9-18.8,36-28.1c12.7-9.8,25.4-19.5,37.7-29.7c6.5-5.4,13-10.7,19.4-16.2c3.5-3,7-5.9,10.5-8.9
		c3.2-2.7,6.6-5.3,9.9-7.9c2.2-1.8,4.4-3.7,6.7-5.3c3.6-2.6,7.2-5.2,10.8-7.8c5.4-3.9,11-7.4,16.5-10.9c4.8-2.8,9.7-5.4,14.7-7.8
		c4-1.9,8.1-3.8,12.3-5.3c5.1-1.9,10.2-3.8,15.5-5.4c9.4-2.6,19.1-4,28.8-4.3c1.9,0,3.7,0,5.5,0.3c0.7,0.3,1.4,0.5,2.1,0.9
		c0.6,0.4,1.1,0.8,1.7,1.3c0.5,0.6,0.9,1.2,1.4,1.8c0.1,0.1,0.1,0.3,0.2,0.4c0.2,0.8,0.3,1.6,0.3,2.4c-0.1,1.8-0.3,3.6-0.7,5.3
		c-1.1,3.5-2.5,6.8-4.2,10c-4,6.7-9.1,12.5-14.2,18.4c-3.2,3.7-6.4,7.3-9.7,10.9c-5.5,6.1-11.1,11.9-16.8,17.8
		c-4.3,4.2-8.7,8.3-13.1,12.3c-4.5,4.1-9,8.1-13.4,12.2c-5.4,5.1-10.9,10.2-15.9,15.7c-2.6,2.9-5,6-7.3,9.2c-2.5,3.6-5,7.5-6.3,11.7
		c-1.9,6.1-1.7,12.4-1.3,18.7c0.2,3.2,3.3,5.8,6.3,6.1c1.9,0.2,3.9-0.3,5.4-1.5c1.4-1.1,2.7-3,2.7-4.9c0-4.2,0.3-8.4,1.1-12.5
		c0.5-1.7,1.3-3.3,2.1-4.9c3.2-5.3,7.1-10.4,11.4-14.8c1.7-1.7,3.3-3.4,5-5c0,0-0.1,0.1-0.1,0.1c11.9-11.1,24.4-21.7,35.8-33.4
		c5.8-5.9,11.5-11.9,17-18.1c2.8-3.1,5.5-6.2,8.2-9.3c4.4-5.1,8.9-10.1,12.7-15.6c3.1-4.3,5.7-9.1,7.6-14.1
		c2.2-5.8,3.3-11.9,2.7-18.1c-0.3-2.9-1.5-5.7-3.1-8.1c-1.4-2.1-3.2-3.9-5.2-5.6c-1.9-1.6-4.2-2.7-6.5-3.6c-3.1-1.2-6.2-1.4-9.4-1.4
		C901.7,813.4,901.6,813.4,901.4,813.4L901.4,813.4L901.4,813.4z M898.9,828.7c-0.2,0-0.5,0-0.7,0
		C898.4,828.7,898.7,828.7,898.9,828.7L898.9,828.7L898.9,828.7z M909.7,831.8c0,0,0.1,0.1,0.1,0.1c0,0,0,0,0,0
		C909.8,831.9,909.7,831.9,909.7,831.8L909.7,831.8L909.7,831.8z M909.8,832C909.8,832,909.8,832,909.8,832c0.1,0.1,0.1,0.2,0.2,0.3
		C909.9,832.2,909.8,832.1,909.8,832L909.8,832L909.8,832z M843.3,939.2c-0.3,0.3-0.5,0.5-0.8,0.8
		C842.8,939.7,843,939.4,843.3,939.2L843.3,939.2L843.3,939.2z"/>
	<path style="fill:#161616;" d="M1004.4,1014.3c-1.5,3.7,0.3,7.7,3.9,9.3c4.3,1.9,8.6,3.9,12.8,6.2c4.3,2.6,8.1,5.7,11.7,9.1
		c4.8,4.9,9,10.3,12.6,16.2c5.2,8.9,9.3,18.3,12.2,28.2c2.2,8.3,3.6,16.8,3.9,25.5c-0.1,5.2-0.5,10.4-1.7,15.5
		c-1.8,6.1-4.4,12-7.5,17.5c-3.4,5.7-7.2,11.1-11,16.6c-2.5,3.6-5.1,7.1-7.7,10.7c-2.3,3.1-1.7,7.5,1.3,9.8c3.1,2.3,7.5,1.6,9.8-1.4
		c4.7-5.9,9.3-11.9,13.6-18c5.7-8,10.5-16.5,14-25.7c3.6-9.6,4.2-19.9,3.7-30c-0.6-10.4-3-20.5-6.2-30.4
		c-3.2-9.5-7.6-18.4-12.8-26.9c-5-8.2-11.3-15.4-18.5-21.8c-7.2-6.4-16-10.5-24.7-14.4c-0.9-0.4-1.7-0.6-2.6-0.6
		C1008.3,1009.9,1005.5,1011.6,1004.4,1014.3L1004.4,1014.3L1004.4,1014.3z M1061.5,1109.3c0,0.3,0,0.6,0,0.9
		C1061.5,1109.9,1061.5,1109.6,1061.5,1109.3L1061.5,1109.3L1061.5,1109.3z M1060.1,1122.9c-0.1,0.2-0.1,0.4-0.2,0.7
		C1060,1123.4,1060.1,1123.2,1060.1,1122.9L1060.1,1122.9L1060.1,1122.9z M1052.9,1140.7c-0.1,0.2-0.2,0.4-0.3,0.6
		C1052.7,1141.1,1052.8,1140.9,1052.9,1140.7L1052.9,1140.7L1052.9,1140.7z"/>
	<path style="fill:#161616;" d="M1367.1,842.5c-5.8,0.2-11.6,0.1-17.4,0.5c-3.7,0.3-7.5,0.5-11.2,0.8c-2.2,0.2-4.3,0.2-6.5,0.5
		c-3.5,0.4-7,0.8-10.5,1.2c-2.4,0.3-4.9,0.5-7.3,0.9c-3.3,0.5-6.5,1.1-9.8,1.6c-2.7,0.4-5.4,0.8-8.1,1.3c-6.4,1.3-12.9,2.6-19.3,3.8
		c-6,1.2-11.9,2.7-17.9,4c-4.7,1-9.3,2.1-14,3.3c-12.7,3.1-25.4,6.2-38.1,9.3c-21.7,5.4-43.3,11.3-64.7,17.7
		c-19.1,5.8-38.3,11.6-57.4,17.4c-10,2.7-20,5.4-30.1,7.9c-8.1,2-16.2,4-24.3,6c-3.8,0.9-7.6,2-11.4,2.8
		c-13.1,2.9-26.3,5.8-39.4,8.7c-5.4,1.2-10.8,2.1-16.2,3.1c-4.4,0.8-8.8,1.7-13.2,2.6c-6.2,1.3-12.4,2.6-18.6,3.9
		c-3.1,0.6-6.2,1.2-9.3,2c-10.6,2.5-21.1,5-31.7,7.5c-7.3,1.7-14.6,3.7-21.9,5.6c-12.5,3.3-25,6.5-37.5,9.9c-2,0.5-3.7,1.2-5,3
		c-1.2,1.6-1.8,3.8-1.5,5.8c0.3,2,1.4,3.8,3,5c1.5,1.1,3.9,2,5.8,1.5c15.9-4.3,31.9-8.4,47.9-12.5c11.2-2.9,22.5-5.5,33.7-8.2
		c11.6-2.8,23.3-5.1,35-7.6c4.3-0.9,8.5-1.7,12.8-2.6c6.2-1.2,12.4-2.2,18.6-3.6c12.9-2.8,25.8-5.7,38.7-8.5c3.4-0.7,6.7-1.6,10-2.4
		c8.1-2,16.2-4,24.4-6.1c11-2.7,21.9-5.6,32.8-8.5c5.2-1.4,10.4-3.1,15.6-4.7c6.6-2,13.2-4,19.9-6c11.8-3.6,23.6-7.2,35.5-10.7
		c-0.6,0.2-1.3,0.4-1.9,0.5c10.9-3.1,21.8-6.2,32.8-9c12.7-3.3,25.3-6.5,38.1-9.6c10-2.5,20-5,30-7.2c7-1.6,14-3.1,21.1-4.7
		c5.8-1.3,11.7-2.3,17.5-3.5c6.2-1.2,12.5-2.1,18.7-3.1c6.2-1,12.6-1.6,18.9-2.3c6.2-0.7,12.5-0.9,18.7-1.4
		c5.6-0.4,11.2-0.4,16.8-0.5c4.1,0.1,8.2,0.2,12.3,0.3c3.7,0.1,7.5,0.5,11.2,0.7c1.7,0.1,3.4,0.4,5,0.6c1.7,0.2,3.5,0.4,5.2,0.7
		c3.9,0.7,7.9,1.4,11.8,2.3c1.7,0.5,3.3,1.1,4.9,1.9c0.2,0.1,0.4,0.3,0.6,0.4c-0.1,0.3-0.2,0.6-0.4,0.9c-1.4,2.3-3.1,4.3-4.9,6.2
		c-5.6,5.3-11.9,9.8-18.4,13.8c-8.1,4.7-16.4,8.7-24.8,12.8c-5.3,2.6-10.8,4.6-16.2,6.8c-5.4,2.2-11,4-16.5,6c-5,1.8-10,3.4-15.1,5
		c-22,7.1-44.2,13.6-66.1,20.9c-10.1,3.4-20.2,6.8-30.3,10.2c-9.9,3.3-19.8,6.5-29.7,9.8c-9,3.1-17.8,6.6-26.6,10.3
		c-4.5,1.9-8.9,3.9-13.3,6.2c-1,0.5-2,1.1-3,1.7c-1.2,0.7-2.3,1.4-3.4,2.1c-1.3,0.9-2.4,2.2-3.5,3.3c-1,1.1-1.6,2.6-2.3,4
		c-0.6,1.3-0.8,3-1.1,4.4c-0.4,2.6,0,5.4,0.9,7.8c0.9,2.5,3.5,4.2,6.1,4.6c3.1,0.5,6.2-0.6,9.1-1.7c1.9-0.7,3.7-1.4,5.6-2.2
		c3.2-1.2,6.5-2.5,9.7-3.7c7.3-2.6,14.6-5.1,21.9-7.6c7.5-2.5,14.9-5,22.4-7.4c6.4-2,12.8-3.9,19.3-5.8c11.8-3.3,23.5-6.5,35.3-9.8
		c10.1-2.8,20.2-5.6,30.5-8c5.9-1.4,11.7-3,17.6-4.2c5.8-1.2,11.7-2.5,17.6-3.6c6.2-1.1,12.3-2.2,18.5-3.2c5.8-0.9,11.5-2,17.3-2.7
		c2.9-0.3,5.7-0.7,8.6-1c1.9-0.2,3.9-0.6,5.9-0.7c4.7-0.2,9.3-0.5,14-0.7c3.9,0,7.8,0,11.7,0c2,0,4,0.2,6,0.2
		c1.8,0.1,3.6,0.1,5.3,0.3c4.3,0.5,8.5,0.9,12.8,1.6c4.1,0.7,8.1,1.6,12.1,2.6c4.4,1.3,8.9,2.6,13.3,3.9c4.8,1.5,9.5,3.5,14,5.7
		c0.9,0.6,1.8,1.3,2.7,2c0.9,0.9,1.7,1.8,2.4,2.8c0,0.1,0,0.3,0.1,0.4c0,0.2,0,0.4-0.1,0.6c-0.3,0.9-0.6,1.7-1,2.5
		c-0.7,1-1.4,1.9-2.2,2.8c-2.5,2.3-5.2,4.3-8.1,6.1c-9.5,5.5-19.7,9.8-30.2,13c-5.5,1.7-10.9,3.3-16.3,5
		c-21.9,5.9-43.7,11.7-65.6,17.4c-22.8,6-45.6,12.2-68.4,18.4c-22.4,6.1-44.8,12.4-67.2,18.5c-5.5,1.5-11,3-16.6,4.5
		c-3,0.8-6,1.7-9,2.5c-1.2,0.4-2.4,0.7-3.6,1.1c-3,0.9-5.7,2.4-8.1,4.3c-0.4,0.4-0.7,0.7-1.1,1.1c-0.9,0.8-1.6,1.6-2.3,2.6
		c-0.9,1.2-1.6,2.9-2.2,4.3c-1.1,2.9-1.4,6.3-0.9,9.3c0.3,1.9,1.3,3.3,2.6,4.7c1.2,1.3,2.5,2.1,4,2.8c1.6,0.7,3.4,0.8,5.1,0.7
		c2.6-0.1,5-0.8,7.5-1.3c6.8-1.6,13.5-4.1,20.1-6.5c5.1-1.8,10.1-3.7,15.3-5.4c5.9-1.9,11.7-3.8,17.6-5.7c5.7-1.6,11.4-3.2,17.1-4.7
		c5.7-1.6,11.5-2.8,17.3-4.1c10.9-2.6,21.9-4.6,32.8-6.8c22.5-4.6,45.2-9.1,68.1-11.1c8.1-0.7,16.1-1.4,24.1-1.9
		c6.8-0.4,13.7-0.7,20.5-0.9c7.3-0.1,14.6-0.2,21.8,0.2c9.4,0.4,19,0.6,28.2,2.7c2.5,0.7,4.8,1.5,7.1,2.7c1.2,0.8,2.3,1.6,3.3,2.4
		c0.2,0.3,0.4,0.5,0.6,0.8c0.5,0.9,0.9,1.7,1.3,2.7c0.2,1,0.3,2,0.4,3c0,0.3-0.1,0.6-0.1,1c-0.6,1.6-1.3,3.2-2.2,4.7
		c-1.6,2.6-3.5,5-5.6,7.3c-3.4,3.2-7.1,5.8-11.1,8.3c-12.8,7.3-26.6,12.1-40.4,16.9c-6.8,2.4-13.8,4.2-20.7,6.2
		c-10.3,2.8-20.7,5.6-31,8.3c-4.9,1.3-9.9,2.6-14.8,4c-0.4,0.1-0.8,0.2-1.1,0.3c-0.1,0-0.2,0.1-0.3,0.1c-0.5,0.1-1,0.2-1.4,0.4
		c-0.2,0.1-0.3,0.1-0.5,0.2c-0.5,0.1-1.1,0.3-1.6,0.4c-2.8,0.8-5.5,1.6-8.3,2.4c-0.6,0.1-1.1,0.3-1.7,0.5
		c-9.9,2.9-19.8,5.8-29.7,8.7c0.5-0.1,0.9-0.3,1.4-0.4c-10.6,3-21.2,6-31.9,8.8c-10.8,2.9-21.7,5.4-32.6,8.2
		c-10.7,2.7-21.2,5.9-31.6,9.3c-4.8,1.6-9.6,3.2-14.3,4.9c-2.5,0.9-4.9,1.9-7.2,3.3c-1.4,0.8-2.5,1.6-3.7,2.6c-1.1,0.9-2,2-2.9,3.1
		c-0.8,1-1.4,2.3-2,3.4c-0.8,1.5-0.5,3.2-0.5,4.8c0.1,2.5,2.4,5.2,4.7,6c1.8,0.6,3.6,1,5.5,0.7c2.3-0.3,4.5-1.1,6.8-1.7
		c2.9-0.8,5.7-1.9,8.5-2.9c3.7-1.2,7.4-2.5,11.1-3.7c7.7-2.5,15.5-4.8,23.3-7.2c10.9-3.1,21.9-6,32.8-8.9c5.6-1.5,11.3-2.6,16.9-3.9
		c5.9-1.4,12-2.5,17.9-3.7c11.6-2.4,23.3-4.4,35-6.5c11.6-2.1,23.2-4,34.8-5.8c10.3-1.6,20.7-2.8,31-4c9.7-1.1,19.3-1.7,29.1-2
		c3,0,5.9,0,8.9,0c4,0.1,8,1,11.8,1.9c2.1,0.6,4,1.4,5.9,2.3c0.7,0.5,1.4,1,2.1,1.5c0.2,0.3,0.4,0.5,0.6,0.8
		c0.2,0.4,0.4,0.8,0.5,1.3c0.1,0.4,0.1,0.7,0.2,1.1c0,0.5-0.1,1-0.2,1.5c-0.4,1-0.7,1.9-1.2,2.8c-0.9,1.3-1.9,2.6-2.9,3.8
		c-3.7,3.4-7.8,6.4-12.1,9.1c-5.1,3-10.4,6-15.8,8.3c-3.4,1.5-6.8,3-10.2,4.4c-5.4,2.4-11,4.4-16.6,6.5
		c-10.6,4.1-21.2,7.9-31.9,11.9c-11.1,4.1-22.2,8-33.3,11.9c-5.9,2.1-11.8,4.1-17.8,6.1c-5.8,2-11.7,3.7-17.6,5.4
		c-0.8,0.3-1.7,0.5-2.5,0.7c-4.8,1.3-9.6,2.7-14.4,3.9c-6.1,1.5-12.1,2.9-18.2,4.1c-10.9,2.2-21.9,4.1-32.8,6
		c-11.8,2-23.7,3.9-35.5,6.5c-6,1.3-11.8,3.2-17.6,5.3c-5.3,1.9-10.3,4.6-15.1,7.5c-4.5,2.8-8.9,5.8-13.2,8.9c-4,2.9-7.8,6-11.6,9.1
		c-8,6.3-16.4,12.1-25,17.5c-13.5,7.9-27.7,14.7-42,20.9c-7.4,3.2-14.8,6.3-22.3,9.1c-7.4,2.7-14.8,5.2-22.4,7.5
		c-10.4,2.9-20.9,5.3-31.4,7.5c-5.5,1.2-11,2.4-16.5,3.4c-6.3,1.1-12.6,2.4-18.9,3.3c-6.8,1-13.6,2-20.4,3.1
		c-5.6,0.8-11.2,1.4-16.8,2.1c-11.2,1.4-22.4,2.2-33.6,3.1c-12.4,0.9-24.7,1.4-37.1,1.8c-4.9,0-9.9,0.1-14.8,0
		c-6.2-0.2-12.5-0.4-18.7-0.7c-6.2-0.4-12.5-0.9-18.7-1.4c-5-0.4-10.1-0.9-15.1-1.6c-6-0.9-11.9-1.7-17.9-2.8
		c-6.2-1.1-12.3-2.3-18.5-3.5c-11.3-2.3-22.6-5-33.8-7.7c-21.7-5.2-43.2-10.9-64.9-16c-6.6-1.5-13.3-3.2-20-3.5
		c-10.8-0.5-21.2,2-31.6,4.5c-6.1,1.4-12.2,3.4-18.2,5.3c-4.9,1.5-9.8,3.2-14.7,4.9c-22.5,7.8-44.9,15.6-67.5,23.1
		c-11.2,3.7-22.4,7.4-33.6,11.1c-10.6,3.5-21.2,6.9-31.7,10.5c-6.7,2.3-13.4,4.7-20,7.3c-6.3,2.4-12.6,4.7-18.8,7.3
		c-3.9,1.6-5.6,6.3-4,10.1c0.8,1.8,2.3,3.3,4.1,4c2,0.8,3.9,0.6,6-0.1c5-1.7,9.9-3.7,14.8-5.6c5.1-2,10.2-3.9,15.3-5.7
		c10.7-3.9,21.6-7.3,32.5-10.9c21.4-7.1,42.8-14.1,64.1-21.3c21.9-7.5,43.6-15.4,65.7-22.2c11.3-3.1,22.7-6.3,34.5-6.7
		c7.1,0.2,14.1,1.9,21,3.4c5.1,1.2,10.3,2.4,15.4,3.6c10.8,2.7,21.6,5.4,32.4,8.1c22.7,5.7,45.5,11.2,68.6,15.3
		c11,2,22.2,3.6,33.3,4.5c6.1,0.5,12.2,1,18.3,1.4c6.3,0.4,12.7,0.6,19,0.8c5.6,0.2,11.2,0,16.8,0c5.8,0,11.7-0.2,17.5-0.5
		c11.5-0.6,23-1.2,34.4-2.2c5.9-0.5,11.8-0.9,17.6-1.7c6.3-0.8,12.5-1.5,18.8-2.3c6.6-0.8,13.2-2,19.8-3c5.3-0.8,10.7-1.8,16-2.8
		c11-2,22-4.2,32.9-6.8c5.6-1.3,11.3-2.6,16.9-4.1c6.3-1.8,12.6-3.6,18.8-5.6c10.3-3.3,20.4-7.4,30.4-11.7
		c10.6-4.6,21-9.5,31.3-14.7c10.2-5.2,20.1-11,29.5-17.6c4.6-3.2,9-6.5,13.4-10c4-3.1,7.9-6.3,12-9.3c3.8-2.8,7.7-5.4,11.7-7.8
		c3.1-1.7,6.2-3.4,9.4-4.8c3.4-1.3,6.8-2.5,10.2-3.6c10.7-2.8,21.6-4.7,32.5-6.5c11.9-2,23.9-4.1,35.8-6.3
		c23.3-4.3,46.2-11,68.6-18.5c22.1-7.4,44-15.5,65.8-23.7c5.6-2.1,11.2-4.2,16.7-6.3c2.6-1,5.1-2,7.7-2.9c3-1.1,5.9-2.6,8.8-3.8
		c11-4.8,21.9-10.3,31.4-17.6c2.8-2.2,5.4-4.5,7.8-7.1c2.4-2.5,4.1-5.7,5.5-8.8c1.6-3.5,1.6-7.4,1.4-11.2c-0.1-1.6-0.8-3.1-1.3-4.6
		c-0.7-2.1-2.2-4.1-3.6-5.8c-2.2-2.7-5.4-4.5-8.5-6.1c-3-1.5-6.5-2.4-9.8-3.1c-1.5-0.3-3-0.6-4.5-1c-3.4-0.7-6.9-0.9-10.4-0.9
		c-5.9,0-11.9,0-17.8,0.3c-11.3,0.7-22.5,1.8-33.7,3.3c-3.7,0.5-7.4,1-11,1.5c8.4-2.2,16.8-4.5,25.1-7c5.7-1.7,11.4-3.3,17-5.2
		c9.9-3.4,19.7-7,29.3-11.4c13.4-6.2,26.5-14.6,33.7-27.8c0.8-1.4,1.5-2.9,2.2-4.4c0.7-1.6,1-3.4,1.4-5.1c0.5-1.9,0.2-4.1,0.1-6
		c-0.1-1.7-0.7-3.9-1.3-5.4c-1.4-3.4-3.2-6.7-5.9-9.3c-3-2.8-6.5-4.8-10.3-6.5c-1.7-0.7-3.5-1.2-5.3-1.7c-1.7-0.5-3.4-0.9-5-1.2
		c-2.2-0.5-4.4-0.8-6.6-1c-3.1-0.3-6.3-0.6-9.4-0.8c-5.5-0.4-11-0.6-16.5-0.7c-11.6-0.3-23.3-0.1-34.8,0.6
		c-5.8,0.4-11.7,0.6-17.5,1.1c-5.9,0.5-11.8,0.9-17.7,1.6c-3.7,0.5-7.4,0.9-11.1,1.4c-2.4,0.3-4.9,0.5-7.3,0.9
		c-5.7,1-11.4,1.9-17.1,2.9c20.6-5.5,41.4-10.8,62-16.3c11.4-3,22.8-6.1,34.1-9.6c3-0.9,6-1.8,9-2.8c6.8-2.1,13.4-4.9,19.9-7.9
		c3.3-1.6,6.5-3.4,9.7-5.3c3.1-1.8,6-3.7,8.7-6c5.7-4.8,10.5-11.6,10.5-19.3c0-2-0.2-3.6-0.8-5.6c-0.2-0.5-0.3-1-0.5-1.5
		c-0.6-1-1.2-2-1.8-2.9c-0.3-0.4-0.7-0.8-1-1.1c-0.8-1-1.6-1.9-2.5-2.7c-1.3-1.4-2.7-2.5-4.2-3.7c-1.4-1-3.1-1.8-4.7-2.6
		c-0.6-0.3-1.2-0.5-1.8-0.8c-1.5-0.7-3-1.3-4.4-1.9c-5-2-10.2-3.6-15.4-5.1c-6-1.7-12-3.4-18-4.5c-2.6-0.4-5.2-1-7.8-1.3
		c-3-0.3-5.9-0.8-8.9-0.9c-3.3-0.1-6.7-0.3-10-0.4c-2-0.1-4,0-6,0c-1.1,0-2.2,0-3.4,0c-6.5,0-12.9,0.4-19.4,0.7
		c-5.4,0.3-10.8,1.1-16.1,1.8c-2.8,0.3-5.7,0.9-8.5,1.3c-2.8,0.4-5.7,0.8-8.5,1.3c-6.3,1.1-12.6,2.2-18.9,3.3
		c-5.9,1-11.7,2.4-17.6,3.6c-2.2,0.4-4.3,1-6.5,1.6c-3.9,0.9-7.9,1.9-11.9,2.8c-5.4,1.3-10.8,2.8-16.2,4.3c-3.7,1-7.4,2-11,2.9
		c4.8-1.6,9.7-3.1,14.5-4.6c10.7-3.3,21.5-6.5,32.1-9.9c6.3-2,12.5-4.1,18.8-6.1c6.2-2,12.3-4.4,18.5-6.5c5.4-1.9,10.6-4.3,15.9-6.4
		c1.8-0.7,3.5-1.6,5.2-2.4c3.6-1.7,7.2-3.5,10.8-5.2c5.6-2.7,11-5.9,16.3-9.1c7.1-4.3,13.9-9.3,19.7-15.3c5-5.1,9.8-11.5,9.5-19
		c0-0.5,0-1-0.1-1.6c-0.3-1.1-0.6-2.2-1-3.3c-0.3-0.6-0.7-1.1-1-1.7c-0.5-1.1-1.2-1.9-2.2-2.6c-2.6-2.5-6-4.1-9.4-5.4
		c-3.7-1.3-7.7-2-11.5-2.8c-2.5-0.5-5.1-1-7.6-1.3c-2.8-0.3-5.6-0.8-8.4-1c-3.4-0.2-6.9-0.5-10.3-0.7c-2.6-0.2-5.1-0.1-7.7-0.2
		c-2.2,0-4.4-0.1-6.6-0.1C1368.7,842.5,1367.9,842.5,1367.1,842.5L1367.1,842.5L1367.1,842.5z M1413.1,862c0.2,0,0.3,0.1,0.5,0.1
		C1413.4,862.1,1413.2,862.1,1413.1,862L1413.1,862L1413.1,862z M1420.3,863c-0.1,0.4-0.2,0.7-0.3,1.1
		C1420.2,863.7,1420.2,863.3,1420.3,863L1420.3,863L1420.3,863z M1484.6,957.4c0,0.4,0,0.8,0,1.2c0,0,0,0,0,0
		C1484.6,958.2,1484.6,957.8,1484.6,957.4L1484.6,957.4L1484.6,957.4z M1159.3,990.7C1159.3,990.7,1159.3,990.8,1159.3,990.7
		C1159.3,990.8,1159.3,990.8,1159.3,990.7C1159.3,990.8,1159.3,990.8,1159.3,990.7C1159.3,990.8,1159.3,990.8,1159.3,990.7
		L1159.3,990.7L1159.3,990.7z M1159.2,991.2C1159.2,991.2,1159.2,991.2,1159.2,991.2c0,0.2-0.1,0.4-0.1,0.6
		C1159.1,991.6,1159.1,991.4,1159.2,991.2L1159.2,991.2L1159.2,991.2z M1433.1,1033.1c-0.3,0-0.6,0-0.8,0
		C1432.5,1033.1,1432.8,1033.1,1433.1,1033.1L1433.1,1033.1L1433.1,1033.1z M1496.3,1049c-0.1,0.4-0.2,0.8-0.3,1.2
		C1496.1,1049.8,1496.2,1049.4,1496.3,1049L1496.3,1049L1496.3,1049z M1476.7,1069.4c-0.2,0.1-0.3,0.2-0.5,0.3
		C1476.4,1069.5,1476.5,1069.4,1476.7,1069.4L1476.7,1069.4L1476.7,1069.4z M1487.8,1128.6c0.1,0.1,0.1,0.2,0.2,0.3c0,0,0,0,0,0
		C1487.9,1128.8,1487.9,1128.7,1487.8,1128.6L1487.8,1128.6L1487.8,1128.6z M1488,1128.9c0.2,0.3,0.3,0.6,0.5,0.9
		C1488.3,1129.5,1488.2,1129.2,1488,1128.9C1488,1129,1488,1128.9,1488,1128.9L1488,1128.9L1488,1128.9z M1488.3,1131.2
		c0,0.1,0,0.3,0,0.4c0,0,0,0,0,0C1488.3,1131.4,1488.3,1131.3,1488.3,1131.2L1488.3,1131.2L1488.3,1131.2z M1488.4,1131.6
		c0,0.1,0,0.2,0,0.4C1488.4,1131.8,1488.3,1131.7,1488.4,1131.6C1488.3,1131.6,1488.4,1131.6,1488.4,1131.6L1488.4,1131.6
		L1488.4,1131.6z M1488,1133.1c0,0.2-0.1,0.3-0.1,0.5C1487.9,1133.4,1487.9,1133.3,1488,1133.1L1488,1133.1L1488,1133.1z
		 M1473.3,1147c-0.4,0.2-0.8,0.5-1.3,0.7C1472.5,1147.5,1472.9,1147.3,1473.3,1147L1473.3,1147L1473.3,1147z M1259.5,1156.9
		c-0.2,0-0.3,0.1-0.5,0.1C1259.1,1157,1259.3,1157,1259.5,1156.9L1259.5,1156.9L1259.5,1156.9z"/>
	<path style="fill:#161616;" d="M814.1,962.8c-1.7,0.3-3.3,1.2-4.3,2.6c-1.1,1.4-1.5,3.2-1.3,5c0.2,1.6,1.2,3.5,2.6,4.3
		c4.5,2.7,9,5.5,13.9,7.6c2,0.8,4.2,1.3,6.2,1.9c1.7,0.4,3.3,0.8,5,1.1c3.5,0.6,6.8-2.3,7.2-5.7c0.2-1.7-0.3-3.4-1.3-4.8
		c-1.2-1.5-2.6-2-4.3-2.4c-0.3-0.1-0.6-0.1-0.9-0.2c-1.3-0.4-2.5-0.8-3.8-1.2c-3.2-1-6.2-2.4-9.1-4c-1.6-0.9-3.2-1.9-4.8-2.9
		c-1.3-0.8-2.6-1.4-4.1-1.4C814.8,962.7,814.5,962.7,814.1,962.8L814.1,962.8L814.1,962.8z"/>
	<path style="fill:#161616;" d="M551,1054.3c-18.7,1.1-37.4,2.3-56.1,3.6c-16,1.1-31.9,2.4-47.8,3.7c-15.4,1.2-30.7,2.6-46,3.9
		c-8.1,0.7-16.1,1.4-24.1,2.1c-7.5,0.6-14.9,1.1-22.4,1.6c-6.7,0.5-13.4,1.1-20.1,1.9c-3.1,0.3-6.1,0.7-9.2,1.1
		c-1.6,0.2-3.2,0.5-4.8,0.8c-2.5,0.5-5.4,1.7-7,3.8c-0.8,1.1-1.6,2.8-1.8,4.2c-0.2,1.6,0.3,2.9,0.8,4.4c0.5,1.1,1.2,2,2.1,2.7
		c1.5,1.1,3.3,1.6,5.1,1.3c1.3-0.2,2.4-0.7,3.3-1.5c3.1-0.4,6.1-0.7,9.2-1.1c3.9-0.5,7.8-0.9,11.7-1.3c7.4-0.8,14.8-1.2,22.1-1.8
		c15.7-1.1,31.4-2.5,47.1-4c32.2-2.9,64.4-5.4,96.6-7.6c14.5-1,29.1-1.8,43.7-2.7c1.9-0.1,3.9-1.5,5-3c1.2-1.7,1.8-3.8,1.5-5.8
		c-0.3-2-1.4-3.8-3-5c-1.5-1.1-3.1-1.5-4.9-1.5C551.6,1054.3,551.3,1054.3,551,1054.3L551,1054.3L551,1054.3z"/>
	<path style="fill:#161616;" d="M824.1,1041.4c-2.9,0-5.6,0.4-8.4,0.9c-0.8,0-1.6,0.2-2.4,0.5c-0.3,0.1-0.5,0.1-0.8,0.2
		c-2.4,0.5-4.4,2.2-5.1,4.4c-8.5,7.2-17,14.5-23.8,23.2c-4.7,6-9.6,12-13.7,18.4c-2.3,3.7-4.7,7.4-6.8,11.3c-1,1.9-2,3.7-3,5.5
		c-2.5,4.6-4.3,9.6-5.9,14.6c-1.6,4.9-2.5,9.9-2.8,15.1c-0.1,2.5,0,5,0.5,7.4c0.6,3.1,1.9,5.9,3.6,8.6c2.4,3.9,6,7.2,10,9.6
		c2.2,1.3,4.4,2.4,6.9,3.1c2.9,0.8,5.7,1.2,8.7,1.2c1.9,0,3.7-0.1,5.5-0.3c2.3-0.3,4.5-0.9,6.6-1.6c4-1.2,7.8-2.8,11.5-4.8
		c7.3-3.9,14-8.8,20.1-14.3c5.9-5.3,11.5-11.2,16.4-17.4c2.6-3.4,4.9-7,7-10.7c2.2-3.8,4.2-7.8,5.9-11.8c1.5-3.7,2.6-7.5,3.6-11.4
		c1-4,1.8-8,2.1-12.1c0.2-4.1-0.1-8.1-1.1-12.1c-0.9-3.9-2.2-7.7-4.2-11.2c-1.9-3.3-4.4-5.9-7.3-8.5c-3-2.6-6.5-5-10.4-6.1
		c-3.9-1.1-7.9-1.6-11.9-1.6C824.6,1041.4,824.3,1041.4,824.1,1041.4L824.1,1041.4L824.1,1041.4z M820.2,1055.1
		c3.6,0.1,7.2,0.6,10.7,1.4c0.9,0.3,1.7,0.6,2.5,0.9c1.7,1.2,3.4,2.5,4.9,3.9c1,1,1.9,2.1,2.7,3.3c1,1.9,1.8,3.9,2.4,6
		c0.6,2.4,1,4.8,1.2,7.3c-0.1,4-0.8,7.9-1.7,11.8c-0.9,3.4-2,6.7-3.4,9.9c-1.4,3.3-3.1,6.5-4.8,9.7c-4.3,7.2-9.7,13.5-15.5,19.5
		c-5.7,5.6-11.8,10.6-18.6,14.8c-3.9,2.3-8,4.2-12.3,5.6c-2.3,0.6-4.7,1-7.1,1.1c-1.4-0.1-2.7-0.2-4.1-0.5c-1.1-0.4-2.2-0.8-3.3-1.4
		c-1.4-0.9-2.8-2-4.1-3.1c-0.6-0.7-1.2-1.4-1.7-2.2c-0.5-0.9-0.9-1.9-1.3-2.9c-0.2-1.1-0.4-2.3-0.4-3.4c0.1-3.2,0.5-6.4,1.2-9.5
		c1.5-5.5,3.5-11.1,6.3-16.2c1.2-2.3,2.5-4.6,3.7-7c1.6-2.5,3.1-5.1,4.7-7.6c1.5-2.4,3.3-4.7,4.9-7c4.4-6.2,9.1-12.2,14.3-17.7
		C807.3,1065.9,813.8,1060.6,820.2,1055.1L820.2,1055.1L820.2,1055.1z M842.7,1090.4c-0.1,0.2-0.1,0.5-0.2,0.7
		C842.5,1090.8,842.6,1090.6,842.7,1090.4L842.7,1090.4L842.7,1090.4z M834.3,1109.8c-0.1,0.2-0.2,0.3-0.3,0.5
		C834.1,1110.1,834.2,1110,834.3,1109.8L834.3,1109.8L834.3,1109.8z M801.9,1142.7c-0.3,0.2-0.6,0.4-0.9,0.5
		C801.3,1143.1,801.6,1142.9,801.9,1142.7L801.9,1142.7L801.9,1142.7z"/>
	<path style="fill:#161616;" d="M780.7,1080.7c-1.1,2.6,0.3,5.3,2.7,6.4c4.5,2.2,8.9,4.7,13.4,7.1c6.5,4.2,13.3,8.2,19.1,13.5
		c2.2,2.3,4.2,4.9,6,7.6c0.7,1.3,1.3,2.6,1.7,4c0.4,1.6,0.7,3.2,1,4.9c0.3,2.6,2.6,4.8,5.2,5.1c1.6,0.2,3.2-0.3,4.4-1.2
		c1.1-0.9,2.2-2.5,2.2-4c0-2.2,0-4.4-0.5-6.6c-0.6-2.7-1.9-5-3.4-7.3c-1.6-2.3-3.5-4.2-5.4-6.3c-4.9-5.3-10.9-9.3-17-13
		c-3.2-2-6.4-4.1-9.8-5.9c-4.4-2.4-8.8-4.8-13.3-7c-0.6-0.3-1.2-0.4-1.8-0.4C783.4,1077.5,781.5,1078.9,780.7,1080.7L780.7,1080.7
		L780.7,1080.7z"/>
	<path style="fill:#161616;" d="M908.1,1046.7c-2.4,0.2-4.6,0.7-6.9,1.4c0.4-0.1,0.8-0.2,1.2-0.3c-0.3,0.1-0.7,0.2-1,0.3
		c-1.5,0.4-2.7,0.9-3.8,1.9c-1.6-0.4-3.4-0.1-4.8,0.9c-1.4,1.1-2.8,2.3-4,3.7c-1.5,1.7-2.6,3.5-3.7,5.5c-2,3.6-3.5,7.7-4.6,11.7
		c-1.1,4.1-1.8,8.2-1.9,12.4c0,2.1,0.1,4.2,0.4,6.2c0.4,2.3,1.4,4.6,2.6,6.6c2.2,3.9,5.1,7.2,8.7,10.1c3.3,2.6,7.1,4.6,10.9,6.4
		c4,1.9,8.4,3.1,12.7,3.5c4.6,0.4,9.1-0.4,13.3-2.1c4.3-1.8,8.3-4.5,11.5-7.9c3-3.3,5.2-7.4,6.9-11.5c0.8-2,1.4-4.1,1.9-6.2
		c0.6-2.3,1.1-4.7,1.3-7.1c0.4-4.8-0.5-9.5-2-14c-1.6-4.4-4.5-7.9-7.9-11c-1.6-1.5-3.4-2.5-5.3-3.6c-2-1.1-4.1-2.1-6.3-2.9
		c-1.9-0.8-3.9-1.3-5.9-1.9c-2.4-0.7-4.8-1.3-7.2-1.7c-1.4-0.2-2.8-0.4-4.2-0.4C909.4,1046.6,908.7,1046.6,908.1,1046.7
		L908.1,1046.7L908.1,1046.7z M898.3,1060.3c1.4,1.1,3.2,1.6,5.1,1.3c1.4-0.2,2.8-0.4,4.2-0.5c2,0.1,3.9,0.5,5.8,0.9
		c4.6,1.3,9.2,2.8,13.4,5c1,0.7,2,1.4,3,2.2c0.7,0.8,1.4,1.6,2,2.5c0.5,1,1,2.1,1.4,3.2c0.4,1.6,0.6,3.2,0.7,4.8
		c-0.1,2.3-0.4,4.4-0.9,6.6c-0.8,2.7-1.9,5.3-3.2,7.8c-0.7,1.1-1.4,2.2-2.3,3.2c-1.2,1.1-2.4,2.1-3.8,2.9c-1.4,0.7-2.8,1.4-4.2,1.9
		c-1.3,0.3-2.5,0.4-3.8,0.6c-1.8-0.1-3.5-0.3-5.2-0.7c-3.3-1-6.5-2.3-9.5-3.9c-2-1.2-3.9-2.5-5.6-4c-1.2-1.3-2.3-2.6-3.3-4.1
		c-0.4-0.8-0.8-1.6-1.1-2.5c-0.4-1.6-0.6-3.3-0.6-4.9c0.1-3.1,0.4-6.1,1.1-9c1-3.4,2.2-6.7,3.9-9.8c0.6-0.9,1.2-1.7,1.9-2.5
		C897.5,1061,897.9,1060.6,898.3,1060.3L898.3,1060.3L898.3,1060.3z M891.2,1074c-0.1,0.3-0.1,0.6-0.2,0.8
		C891.1,1074.5,891.2,1074.3,891.2,1074L891.2,1074L891.2,1074z M890.2,1081.8c0,0.2,0,0.3,0,0.5
		C890.2,1082.1,890.2,1081.9,890.2,1081.8L890.2,1081.8L890.2,1081.8z"/>
	<path style="fill:#161616;" d="M953.9,1155.4c-1.5,0.1-3,0.2-4.6,0.3c-0.7-0.1-1.4,0-2,0.1c-9.5,0.5-18.9,1.2-28.3,2.2
		c-11.8,1.3-23.3,3.4-34.6,6.9c-10.1,3.1-19.9,7.4-28.9,12.8c-3.4,2-6.8,3.9-10.1,6.1c-3.6,2.4-7.2,4.8-10.6,7.4
		c-3.2,2.5-6.2,5.1-9.3,7.7c-1.6,1.4-3,2.9-4.4,4.4c-1.8,1.8-3.5,3.8-5.2,5.7c-3.1,3.6-5.6,7.7-7.6,11.9c-1.3,2.6-1.8,5.7-2,8.5
		c-0.2,3.5,0.5,6.9,1.9,10.1c1.1,2.6,2.8,5,4.7,7c1.7,1.9,3.7,3.4,5.8,4.8c5.3,3.4,11,5.3,17.1,6.7c5.6,1.3,11.5,1.2,17.2,1.1
		c5.9-0.1,11.8-0.9,17.5-2c20.5-3.8,40.2-12.3,57.5-24c6.7-4.5,13.3-9.1,19.6-14.2c3.6-2.9,7-5.9,10.2-9.2c2.2-2.3,4.3-4.6,6.1-7.2
		c1.7-2.5,3.2-5.2,4.6-7.9c1.7-3.1,2.8-6.3,3.2-9.8c0.5-4.7-1-9.3-3-13.5c-1.5-3.2-3.6-6.1-6-8.7c0-0.3,0-0.6-0.1-0.9
		c-0.3-2-1.4-3.8-3-5c-1.5-1.2-3.2-1.5-5-1.5C954.4,1155.4,954.1,1155.4,953.9,1155.4L953.9,1155.4L953.9,1155.4z M949.7,1171
		c0.2,0.1,0.4,0.3,0.6,0.5c1.3,1.5,2.5,3.1,3.6,4.8c0.8,1.5,1.5,3.1,2.1,4.7c0.1,0.7,0.2,1.3,0.3,2c0,0.6-0.1,1.2-0.2,1.8
		c-0.6,1.6-1.4,3.2-2.2,4.7c-1.1,1.9-2.3,3.8-3.6,5.5c-1.4,1.9-3,3.6-4.7,5.3c-10.5,9.4-22,17.8-34.1,25.1
		c-10.4,6-21.6,10.7-33.2,14.2c-9.2,2.5-18.7,4.1-28.3,4.3c-4.6,0-9.1-0.4-13.7-1.4c-2.9-0.9-5.7-1.9-8.3-3.3
		c-1.3-0.8-2.5-1.7-3.7-2.7c-0.6-0.7-1.1-1.4-1.6-2.1c-0.4-0.8-0.8-1.6-1.1-2.4c0-0.2-0.1-0.4-0.1-0.7c0-0.9,0.1-1.9,0.3-2.8
		c0.4-1.2,0.9-2.3,1.5-3.4c2.4-3.8,5.2-7.2,8.1-10.6c2.1-2.1,4.2-4.1,6.4-6c3-2.6,6.1-5,9.2-7.4c1.1-0.8,2.3-1.6,3.4-2.3
		c1.6-1.1,3.2-2.2,4.8-3.2c2.7-1.6,5.4-3.3,8.2-4.9c9.1-5,18.6-9.1,28.6-12.1C910.9,1173.3,930.4,1172.1,949.7,1171L949.7,1171
		L949.7,1171z M945.3,1200.7c-0.3,0.3-0.7,0.7-1,1C944.6,1201.4,944.9,1201,945.3,1200.7L945.3,1200.7L945.3,1200.7z M821.8,1232.6
		c0,0.2,0.1,0.3,0.1,0.5C821.9,1233,821.9,1232.8,821.8,1232.6L821.8,1232.6L821.8,1232.6z M823.3,1235.3c0.1,0.1,0.2,0.3,0.2,0.4
		C823.4,1235.5,823.3,1235.4,823.3,1235.3L823.3,1235.3L823.3,1235.3z"/>
	<path style="fill:#161616;" d="M887.6,1174.2c-3,2.3-3.4,6.7-1.2,9.7c2.9,3.9,5.9,7.9,8.5,12c2.2,4,4.1,8.1,5.4,12.5
		c0.7,2.9,1.2,5.8,1.4,8.8c-0.1,2.2-0.3,4.3-0.8,6.4c-0.6,2-1.3,4-2.2,6c-1.3,2.9-0.2,6.4,2.3,8.3c2.9,2.2,7.8,1.9,9.9-1.4
		c1.6-2.5,2.9-4.9,3.7-7.8c1.7-5.9,1.7-12.1,0.7-18.1c-1.1-6.7-3.8-13.1-7-19c-3.1-5.8-7.1-11-11-16.2c-1.3-1.7-3.4-2.6-5.4-2.6
		C890.3,1172.7,888.8,1173.2,887.6,1174.2L887.6,1174.2L887.6,1174.2z"/>
	<path style="fill:#161616;" d="M1167.1,380.7c-40.1,69.4-80.1,138.8-120.2,208.2c-30.8,53.3-61.6,106.7-92.4,160
		c-2.9,5,0.8,11.6,6.6,11.6c40.1,0,80.2,0,120.3,0c38.7,0,77.5,0.2,116.2,0c0.6,0,1.2,0,1.9,0c0.6,0,1.2,0,1.8,0
		c61.7,0,123.3,0,185,0c5.8,0,9.5-6.5,6.6-11.5c-39.5-68.4-79-136.8-118.5-205.2c-31.4-54.3-62.7-108.7-94.1-163
		c-1.4-2.5-4-3.7-6.6-3.7S1168.5,378.2,1167.1,380.7L1167.1,380.7L1167.1,380.7z M1086.5,550.9c29.1-50.4,58.1-100.7,87.2-151
		c37.6,65.2,75.3,130.4,112.9,195.5c28.8,49.9,57.6,99.8,86.5,149.7c-57.8,0-115.7,0-173.5,0c-12.8-0.1-25.6-0.1-38.4-0.1
		c-19.5,0-39,0-58.5,0c-39.9,0-79.9,0-119.8,0c-2.8,0-5.5,0-8.3,0C1011.8,680.3,1049.1,615.6,1086.5,550.9L1086.5,550.9
		L1086.5,550.9z"/>
	<path style="fill:#161616;" d="M1171.2,477.1C1171.2,477.1,1171.2,477.1,1171.2,477.1c-1.5,0-3,0-4.5,0.1
		c-3.8,0.1-7.3,1.2-10.8,3.4c-0.9,0.6-1.7,1.3-2.3,2.2c-3.6,0.6-6.4,3.9-6.4,7.6l0,21c0,30.5,0,62.1,0.3,93.1
		c0.1,6.3,0.3,12.5,0.4,18.8l0.1,4.1c0.1,3.6,0.2,7.3,0.5,10.9l0.1,0.7c0.2,2.1,0.3,4.3,0.8,6.3c0.4,2.2,0.9,3.8,1.7,5.2
		c0.6,1.1,1.3,2,2.2,2.8c1.5,1.4,3.3,2.1,5.5,2.8c1.3,0.4,2.8,0.5,4.2,0.5l0.6,0c0,0,0,0,0,0c1.2,0,2.2-0.2,3.2-0.3
		c0.5-0.1,0.9-0.2,1.4-0.2c0.6-0.1,1.3-0.2,1.9-0.3l1.2-0.2c1.9-0.3,3.9-0.7,5.8-1.1c2.6-0.5,4.9-1.5,7.2-2.5c1-0.4,1.9-1.1,2.8-1.8
		l0.4-0.3c1.2-0.9,2.3-1.8,3.4-2.8c1.9-1.8,3.5-4.2,4.9-6.5c1.6-2.6,2.8-5.6,4.1-8.8c2.1-5.4,3.1-11.2,3.8-16.1
		c0.9-6.4,1.6-12.8,2-19.1c0.3-4.9,0.3-9.8,0.3-14.6l0-2.5c0-3.1-0.2-6.2-0.4-9.3l-0.2-2.7c-0.2-3.9-0.6-7.7-1-11.5
		c-0.8-8.2-1.7-16.1-2.6-24.1c-0.9-8-1.8-15.7-2.8-23.4l-0.1-1c-0.5-3.9-1-7.9-1.7-11.8c-0.4-2.3-0.8-4.3-1.3-6.2
		c-0.6-2.4-1.7-4.4-3.2-6.2c-2-2.4-4.7-3.5-7.5-4.6c-1.4-0.5-2.9-0.7-4.3-0.9c-2-0.3-3.8-0.5-5.7-0.6
		C1173.8,477.2,1172.5,477.1,1171.2,477.1L1171.2,477.1L1171.2,477.1z"/>
	<path style="fill:#161616;" d="M1183.6,668.5c-0.9,0-1.7,0-2.6,0.1c-1.7,0.1-3.4,0.4-5.2,0.8c-1.9,0.4-3.6,1.2-5.3,2l-0.5,0.2
		c-1.6,0.7-2.8,2.3-3.3,4.3c-0.3-0.1-0.6-0.1-0.9-0.1c-0.6,0-1.2,0.1-1.8,0.2c-1.5,0.4-3.5,1.6-4.2,3.2l-0.3,0.6
		c-1.5,3.3-3,6.7-4.3,10.2c-1.3,3.5-2,7.1-1.8,10.6c0.2,3.4,1.4,7.2,3.6,11.5c0.8,1.5,2,2.9,3.2,4.3l0.4,0.4
		c1.3,1.5,2.9,2.7,4.5,3.8c2.5,1.9,5.3,3.3,8.8,4.6c2,0.7,4.2,1.1,6.6,1.1c1,0,2-0.1,3-0.2c4.3-0.6,8.1-1.9,11.5-4.1
		c3.2-2,5.5-5,7.5-7.7c1.8-2.5,3.4-5.3,4.9-9c0.6-1.4,1.1-2.7,1.5-4.1c0.4-1.6,0.7-3.2,0.9-4.9l0.1-1c0.2-1.9,0-3.8-0.2-5.5
		c-0.3-2.3-1.2-4.4-2-6.3c-1.2-2.9-3.5-5.4-5.4-7.3c-1.2-1.3-2.7-2.3-4.2-3.3l-0.5-0.3c-1.5-1-3.3-2-5.2-2.6
		C1189.5,668.9,1186.6,668.5,1183.6,668.5L1183.6,668.5L1183.6,668.5z"/>
</g>
</svg>
