<?xml version="1.0" encoding="utf-8"?>
<!-- Generator: Adobe Illustrator 22.1.0, SVG Export Plug-In . SVG Version: 6.00 Build 0)  -->
<svg version="1.1" id="Layer_1" xmlns="http://www.w3.org/2000/svg" xmlns:xlink="http://www.w3.org/1999/xlink" x="0px" y="0px"
	 viewBox="0 0 2000 2000" style="enable-background:new 0 0 2000 2000;" xml:space="preserve">
<g>
	<path style="fill:#161616;" d="M820.2,278.5c-4.5,1.2-9,2.5-13.5,3.8c-3.4,1-6.8,2-10.1,3c-35.4,10.8-69.9,24.6-103.2,40.9
		c-44.4,21.6-86.4,47.9-125.3,78.2c-30.5,23.7-59.1,49.9-85.5,78.2c-27.6,29.6-52.6,61.7-74.9,95.6c-47,71.3-80.6,151.3-99.5,234.5
		c-9.9,43.7-15.4,88.4-17,133.2c-1.6,45.5,1.4,91.2,8.3,136.2c6.2,40.3,16.1,80.1,29.3,118.7c1.8,5.4,3.8,10.8,5.7,16.2
		c15.1,41.3,34.2,81.1,56.6,118.9c21.4,36.2,46.3,70.3,73.7,102.2c53.8,62.6,118.7,115.6,190.5,156.3
		c35.6,20.2,73.2,37.2,111.7,51.1c39.2,14.1,79.7,24.5,120.8,31.4c42.2,7.1,85.1,10.4,127.9,10c42.9-0.4,85.8-4.9,128-12.9
		c80.5-15.3,158.2-45.2,228.7-86.9c34.2-20.2,66.6-43.5,97-69.1c30.5-25.6,58.6-53.9,84.4-84.2c26.8-31.5,50.8-65.5,71.9-101.1
		c21.8-36.8,39.9-75.8,54.8-115.9c31.4-84.7,45.6-175.6,43.3-265.8c-1.1-45-6.7-89.9-16.2-133.9c-9.3-43.2-23-85.6-40.3-126.3
		c-8.6-20.2-18-39.9-28.4-59.2c-10.3-19.2-21.5-37.8-33.5-56c-24.1-36.5-51.7-70.7-82-102.3c-29.8-31-62.5-59.1-97.3-84.4
		c-35.6-25.8-73.6-48.1-113.3-66.9c-30.5-14.4-62-26.6-94.2-36.6c-0.1,0-0.2-0.1-0.3-0.1c-7-2.2-14-4.2-21-6.1
		c-2.4-0.6-4.7-1.3-7.1-1.9c-37.3-9.9-75.4-16.5-113.8-20.2c-0.2,0-0.4,0-0.5-0.1c-0.1,0-0.2,0-0.3,0c-3.2-0.3-6.5-0.6-9.7-0.9
		c-1.5-0.1-2.9-0.2-4.4-0.4c-18-1.4-36.1-2.1-54.2-2.1C944.3,253.7,881.1,262.1,820.2,278.5L820.2,278.5L820.2,278.5z M1007.4,269.1
		c31.5-0.1,63,2.1,94.3,6.2c30.1,4.2,60,10.2,89.4,18.1c30.3,8.2,60,18.5,88.9,30.6c-0.6-0.3-1.2-0.5-1.8-0.8
		c28.6,12.1,56.4,26,83.2,41.7c25.7,15,50.4,31.8,74.1,50c23,17.9,45,37.2,65.7,57.7c22,21.8,42.5,45.1,61.5,69.6
		c18.2,23.7,34.9,48.5,50.1,74.3c15.2,25.8,28.7,52.8,40.5,80.3c12.1,28.7,22.2,58.1,30.5,88c8.3,30,14.4,60.6,18.6,91.5
		c4.1,31.2,6.1,62.5,6.2,93.9c0.1,31.5-2.1,63-6.2,94.2c-4.2,30.2-10.2,60.1-18.2,89.6c-8.1,30-18.3,59.4-30.3,88.1
		c0.3-0.6,0.5-1.2,0.8-1.9c-11.9,28.3-25.6,55.7-41,82.3c-15.5,26.7-32.9,52.3-51.7,76.7c-18.4,23.6-38.3,46.1-59.5,67.3
		c-21.2,21.2-43.9,41-67.6,59.4c-23.8,18.2-48.6,34.9-74.4,50c-26.1,15.3-53.3,28.8-81.2,40.7c0.1,0,0.2-0.1,0.3-0.1
		c-28.1,11.8-57,21.7-86.4,29.9c-30.4,8.4-61.4,14.6-92.6,18.8c-30.9,4-61.9,6-93.1,6.1c-31.8,0.1-63.6-2.2-95.1-6.3
		c0.5,0.1,0.9,0.1,1.4,0.2c-30.6-4.2-60.8-10.3-90.6-18.4c-29.7-8-58.7-18.1-87.1-29.9c-28.1-11.9-55.3-25.6-81.7-40.9
		c-26-15.1-50.8-32-74.7-50.2c-23.3-18-45.4-37.5-66.3-58.2c-21.8-21.5-42-44.6-60.8-68.7c-18-23.4-34.5-47.8-49.6-73.2
		c-16.1-27.3-30.3-55.7-42.6-84.8c-4.4-10.7-8.6-21.4-12.5-32.2c-0.2-0.6-0.4-1.1-0.6-1.7c0-0.1-0.1-0.1-0.1-0.2
		c-5.9-16.6-11.2-33.3-15.9-50.3c-8.2-29.6-14.3-59.7-18.6-90.1c-4.3-31.9-6.4-64-6.5-96.1c-0.1-31.3,2.1-62.7,6.2-93.7
		c4.2-30.5,10.3-60.7,18.3-90.5c8.2-30.3,18.5-60,30.7-88.9c11.8-27.5,25.2-54.3,40.3-80.1c15.2-26.1,32.2-51.1,50.5-75
		c-0.4,0.5-0.8,1-1.2,1.6c18.4-23.8,38.2-46.4,59.4-67.8c21.3-21.4,44-41.4,67.8-60c-0.2,0.1-0.3,0.3-0.5,0.4
		c0.2-0.1,0.4-0.3,0.5-0.4c0.3-0.3,0.7-0.5,1-0.8c-0.3,0.2-0.6,0.5-0.9,0.7c23.5-18.1,48.1-34.8,73.6-49.9
		c26.4-15.6,53.8-29.4,82-41.4c28.2-11.9,57.1-21.9,86.6-30.1c30.6-8.5,61.8-14.8,93.3-19.1C944.8,271.2,976.1,269.2,1007.4,269.1
		L1007.4,269.1L1007.4,269.1z M1102.2,275.4c0.5,0.1,1,0.1,1.5,0.2C1103.2,275.5,1102.7,275.5,1102.2,275.4L1102.2,275.4
		L1102.2,275.4z M735.4,323.9c-0.4,0.2-0.8,0.3-1.2,0.5C734.6,324.2,735,324,735.4,323.9L735.4,323.9L735.4,323.9z M361.4,697.3
		c-0.2,0.5-0.5,1.1-0.7,1.6C361,698.3,361.2,697.8,361.4,697.3L361.4,697.3L361.4,697.3z M312.5,1064.5c0.1,0.6,0.2,1.3,0.3,1.9
		C312.7,1065.8,312.6,1065.1,312.5,1064.5L312.5,1064.5L312.5,1064.5z M1702.2,1065.6c0,0.2-0.1,0.5-0.1,0.7
		C1702.2,1066.1,1702.2,1065.8,1702.2,1065.6L1702.2,1065.6L1702.2,1065.6z M360.7,1241.6c0.1,0.2,0.2,0.4,0.3,0.6
		C360.8,1242,360.8,1241.8,360.7,1241.6L360.7,1241.6L360.7,1241.6z M1436.1,1525.2C1436.1,1525.2,1436.1,1525.2,1436.1,1525.2
		c-0.1,0.1-0.1,0.1-0.2,0.1C1436,1525.3,1436.1,1525.2,1436.1,1525.2L1436.1,1525.2L1436.1,1525.2z M578.2,415.9
		C578.2,415.9,578.2,415.9,578.2,415.9c0,0,0.1-0.1,0.1-0.1C578.3,415.8,578.3,415.9,578.2,415.9L578.2,415.9L578.2,415.9z"/>
	<path style="fill:#161616;" d="M1069.6,772.6c-4,0.6-8,1-12,1.9c-4.5,1-9,2-13.5,3.1c-1.6,0.3-3.1,0.9-4.6,1.4
		c-2.7,0.8-5.3,1.6-8,2.4c-3.9,1.1-7.7,2.8-11.6,4.2c-3.2,1.2-6.3,2.5-9.4,3.9c-3,1.2-5.9,2.5-8.8,3.9c-3.1,1.5-6.2,2.9-9.2,4.6
		c-3.4,1.9-6.8,3.8-10.1,5.8c-5.8,3.4-11.5,7.1-17,10.9c-2.7,1.9-5.3,3.7-8,5.7c-1.2,0.9-2.4,1.8-3.6,2.7c-1.1,0.8-2.2,1.7-3.3,2.6
		c-0.3,0.3-0.7,0.6-1,0.9c-0.1-0.4-0.3-0.8-0.4-1.2c-0.7-1.8-1.5-3.5-2.5-5.2c-1-1.7-2.2-3.2-3.4-4.7c-2.1-2.6-5.1-4.7-8-6.2
		c-3.5-1.9-7.3-2.8-11.3-3.2c-3.6-0.4-7.1-0.1-10.6,0.8c-3.5,1-7,2.8-10,4.7c-6.4,4-11.3,10-15.3,16.3c-1.9,3-3.4,6.3-4.8,9.6
		c-1.4,3.3-2.4,6.7-3,10.3c-1.3,7.9,0.3,15.7,3.9,22.7c1.6,3.1,4,5.9,6.5,8.4c2.6,2.5,5.6,4.7,8.5,6.7c4.1,2.8,8.6,4.5,13.2,6.2
		c0,1.1,0,2.3-0.2,3.4c-1.5,8.9-4.4,17.5-6.3,26.4c-0.8,3.8-1.8,7.6-2.4,11.5c-0.4,2.6-0.8,5.1-1.2,7.7c-0.3,2-0.7,4-0.8,6
		c-0.4,4.7-0.8,9.3-1.2,14c-0.1,1.4-0.1,2.8-0.1,4.2c-0.1,2.9-0.1,5.7-0.2,8.6c-0.2,10.2,1.1,20.5,3,30.5c2.2,11.3,5.7,22.3,9.8,33
		c3.1,8.1,6.7,16.2,11,23.7c1.4,2.4,2.7,4.8,4.1,7.2c0.8,1.4,1.6,3,2.5,4.3c2.7,4,5.3,7.9,8,11.9c2.4,3.5,5.1,6.7,7.6,10.1
		c1.3,1.7,2.6,3.4,3.9,5c0.9,1.2,2.1,2.3,3.1,3.5c2.6,2.9,5.1,5.9,7.9,8.6c1.9,1.9,3.9,3.7,5.8,5.6c1.3,1.2,2.5,2.5,3.8,3.7
		c3.5,3,7.1,6,10.6,9c3.5,3,7.4,5.7,11,8.5c3.2,2.4,6.6,4.5,9.9,6.6c7,4.6,14.3,8.6,22,12c5.3,2.4,10.6,4.5,16.1,6.5
		c5.8,2,11.7,3.6,17.6,4.9c4.2,0.9,8.4,1.6,12.6,2.4c1.9,0.4,3.8,0.5,5.7,0.7c2.8,0.3,5.6,0.6,8.3,1c1.2,0.1,2.3,0.2,3.5,0.2
		c3,0.1,6,0.3,9,0.4c3.9,0.2,7.9,0,11.8,0c8.5-0.2,17-1.2,25.4-2.6c8.2-1.3,16.2-3.2,24.1-5.8c4.4-1.5,8.8-3.2,13.1-4.8
		c2.3-0.8,4.5-1.9,6.7-2.9c1.7-0.8,3.4-1.4,5.1-2.3c3.7-1.8,7.5-3.6,11.1-5.6c1.8-1,3.7-2,5.5-3c2-1.1,3.8-2.5,5.7-3.7
		c3.5-2.2,6.8-4.7,10.1-7.1c3.4-2.5,6.5-5.3,9.7-7.9c1.2-1,2.2-2.1,3.3-3.1c1.9-1.8,3.7-3.5,5.5-5.3c7.6-7.9,14-17.1,19.4-26.6
		c4-7.1,7.1-14.5,10-22.1c1.2-3.1,2.3-6.2,3.4-9.3c1-2.9,1.9-5.9,2.9-8.7c2.5,0,5,0.2,7.5,0.4c2,0.1,4,0.3,6,0.4
		c5.4,0.3,10.8,0.4,16.2,0c5.8-0.5,11.5-1.5,17.1-2.9c4.1-1,8.2-2.5,11.8-4.5c2.6-1.4,4.9-3.5,6.9-5.5c2.4-2.4,4.2-5.2,5.4-8.4
		c1.9-5,2.1-10.6,1.8-15.9c-0.4-6.1-1.6-12.2-3.1-18.1c-1.3-5.4-2.9-10.6-4.4-16c-2.8-9.9-5.4-19.9-7.2-30.1c-0.5-2.9-1-5.8-1.4-8.8
		c-0.9-6.8-1.4-13.7-1.6-20.6c-0.3-7.6,0.2-15.2,1.1-22.7c1.3-8.8,3-17.5,5.1-26.2c0.9-3.8,2-7.5,3.1-11.3c1.9-6.8,4-13.6,6.1-20.4
		c2.4-7.7,5-15.2,7.8-22.7c0,0,0.1-0.1,0.1-0.1c4.5-3.4,8.1-7.6,11.1-12.4c1.5-2.3,2.7-4.8,3.7-7.3c0.5-1.2,0.9-2.5,1.2-3.7
		c0.2-1.1,0.3-2.3,0.5-3.4c0-1.1-0.1-2.1-0.3-3.2c-0.4-1.3-0.8-2.5-1.5-3.6c-0.9-1.4-2-2.2-3.4-3.2c-2.7-1.9-6.7-1-9.3,0.6
		c-2.5,1.6-4.1,4.3-5.7,6.7c-0.6,0.9-1.1,1.9-1.7,2.8c-2.3,3.8-3.9,8.1-5.6,12.2c-0.6,1.5-1.3,3-1.9,4.6c-2.5,1.5-5,2.8-7.7,4
		c-5.9,2.4-12,3.8-18.3,4.8c-9.7,1.1-19.6,1-29.4-0.2c-16.2-2.4-31.6-8.2-46.9-13.8c-6.8-2.5-13.4-5.2-20.2-7.8
		c-7.9-3-15.8-6-23.9-8.7c-3.6-1.2-7.1-2.6-10.7-3.6c-4.8-1.4-9.6-2.8-14.4-4.2c-3.7-1.1-7.4-1.9-11.1-2.8
		c-7.7-1.9-15.5-3.2-23.4-4.2c-9.1-1.1-18.3-1.7-27.5-1.7C1091,770.2,1080.2,771,1069.6,772.6L1069.6,772.6L1069.6,772.6z
		 M1131.2,787.6c6.6,1,13,2.4,19.5,3.9c3.5,0.8,7,1.6,10.4,2.6c4.5,1.3,9,2.6,13.6,4c4.1,1.2,8.1,2.8,12.1,4.1
		c14.8,5,29.2,11.1,43.9,16.5c4.8,1.8,9.6,3.6,14.4,5.2c5.6,1.9,11.2,3.6,16.8,5.1c6.3,1.6,12.7,2.7,19.1,3.5
		c11.8,1.4,23.7,1,35.4-1c3.9-0.7,7.7-1.6,11.5-2.9c-0.9,2.7-1.8,5.3-2.6,8c-1.4,4.6-2.9,9.2-4.3,13.7c-1.3,4.2-2.3,8.4-3.5,12.6
		c-2.1,7.5-3.8,15.1-5.2,22.7c-2.2,12-3.5,24-3.2,36.1c0.3,12.2,1.8,24.4,4.1,36.3c1.2,6.1,2.7,12.1,4.3,18.1
		c3.1,12.1,7.2,24,9.1,36.3c0.4,3.3,0.5,6.6,0.2,10c-0.2,1.2-0.5,2.5-0.9,3.7c-0.2,0.4-0.5,0.9-0.7,1.3c-1,1.1-2.1,2.2-3.3,3.2
		c-1.1,0.8-2.2,1.4-3.4,2c-5.3,2-10.8,3.2-16.4,4c-4.6,0.5-9.1,0.7-13.7,0.6c-2.7-0.1-5.3-0.2-8-0.4c-2.4-0.1-4.8-0.3-7.2-0.5
		c-3.2-0.2-6.4-0.3-9.5,0.7c-1.7,0.5-3.7,1.6-4.9,2.9c-1.4,1.5-2.2,2.9-2.9,4.7c-1.9,5-3.4,10.1-5.2,15.1c-1.5,4.4-3.2,8.7-4.9,12.9
		c-0.9,2.1-1.9,4.2-2.9,6.2c-1.3,2.6-2.7,5.1-4.2,7.7c-2.6,4.6-5.7,9.1-8.9,13.3c-2.7,3.4-5.5,6.8-8.7,9.7c-1.8,1.7-3.6,3.4-5.4,5.1
		c-2.6,2.4-5.3,4.6-8,6.8c-2.7,2-5.3,4-8.1,5.8c-3.7,2.4-7.4,4.8-11.3,6.9c-4,2.2-8.1,4.2-12.3,6.3c-3.1,1.5-6.2,2.8-9.4,4.2
		c-6.9,2.6-13.8,5.2-21,7.2c-7,1.9-14.1,3-21.2,4.2c-1.8,0.2-3.6,0.3-5.4,0.5c-2.1,0.2-4.3,0.6-6.4,0.6c-2.3,0-4.6,0.1-6.9,0.1
		c-2.1,0-4.2,0.2-6.3,0.1c-4.8-0.2-9.5-0.4-14.3-0.6c-1.9-0.1-3.8-0.4-5.6-0.7c-1.8-0.2-3.6-0.4-5.4-0.6c-4-0.8-7.9-1.5-11.9-2.3
		c-9.6-1.8-19-5.1-28-8.8c-7.1-3.1-13.9-6.6-20.5-10.6c-3.1-1.9-6.1-4-9.2-6c-4.3-2.8-8.3-6-12.4-9.1c-1.9-1.6-3.7-3.2-5.6-4.8
		c-1.7-1.5-3.6-2.9-5.2-4.5c-1.9-1.9-3.9-3.7-5.8-5.6c-1.6-1.5-3.3-3-4.8-4.7c-1.8-2-3.6-4-5.3-6c-1.5-1.6-3.1-3.2-4.4-4.9
		c-2.7-3.5-5.4-7-8.2-10.5c-1.8-2.7-3.7-5.5-5.5-8.2c-1.4-2-2.8-4-4-6.1c-2-3.5-4-7-6.1-10.6c-2.9-5.1-5.4-10.4-7.7-15.7
		c-6.2-14.9-10.8-30.4-13-46.4c-0.7-5.8-1.1-11.6-1-17.4c0.1-3.8,0.2-7.6,0.2-11.4c0-2.1,0.3-4.2,0.5-6.3c0.2-3.1,0.5-6.1,0.8-9.2
		c0.6-3.9,1.1-7.9,1.9-11.8c1.2-5.5,2.4-11,3.7-16.6c1.2-5,2.6-10,3.7-15c0.7-3.1,1.2-6.2,1.5-9.4c0.3-3.8-0.4-7.6-2.2-11
		c-1.7-3.1-5.3-4.7-8.4-5.8c-1.3-0.5-2.6-0.9-3.9-1.4c-3.3-1.5-6.4-3.4-9.3-5.6c-1.7-1.5-3.4-3-4.9-4.7c-0.9-1.3-1.7-2.6-2.3-4.1
		c-0.7-1.8-1.2-3.7-1.5-5.6c-0.1-1.7-0.1-3.3,0-5c0.6-2.8,1.4-5.6,2.4-8.3c1.7-3.7,3.7-7.2,6.1-10.6c1.9-2.3,3.9-4.4,6.1-6.3
		c1.8-1.3,3.7-2.4,5.7-3.3c1.2-0.5,2.5-0.8,3.7-1.1c1.3-0.1,2.5,0,3.8,0.1c1.5,0.3,2.9,0.7,4.4,1.1c1.1,0.5,2.1,1.1,3,1.8
		c0.7,0.7,1.4,1.4,2.1,2.1c1,1.4,1.8,2.8,2.5,4.4c1,2.8,1.6,5.6,2.2,8.5c0.8,4,5.6,6.3,9.3,5.3c1.9-0.5,3.5-1.8,4.5-3.5
		c0.1-0.2,0.2-0.4,0.3-0.6c3.2,1.2,7.1,0,8.9-3c2-1.5,4.1-2.9,6.1-4.4c2.5-1.8,5-3.6,7.5-5.3c4.9-3.3,9.9-6.6,15-9.6
		c5.4-3.2,10.8-6.5,16.5-9.2c2.8-1.3,5.5-2.7,8.4-3.9c2.8-1.2,5.7-2.4,8.5-3.6c-0.1,0.1-0.2,0.1-0.4,0.2c2.3-0.9,4.7-1.7,7-2.6
		c2.1-0.8,4.2-1.7,6.4-2.4c2.7-0.8,5.3-1.6,8-2.3c1.9-0.6,3.7-1.2,5.6-1.6c3-0.7,5.9-1.3,8.9-2c1.8-0.4,3.6-0.9,5.4-1.2
		c4.9-0.7,9.7-1.5,14.6-2.2C1095.3,785,1113.4,785.3,1131.2,787.6L1131.2,787.6L1131.2,787.6z M1325.7,899.2
		c-0.1,0.6-0.2,1.3-0.3,1.9C1325.5,900.4,1325.6,899.8,1325.7,899.2L1325.7,899.2L1325.7,899.2z M1269.8,1051.5c-0.1,0-0.1,0-0.2,0
		c0,0,0,0,0,0C1269.7,1051.5,1269.8,1051.5,1269.8,1051.5L1269.8,1051.5L1269.8,1051.5z M1268.6,1051.7c-0.2,0.2-0.4,0.3-0.6,0.4
		C1268.2,1052,1268.4,1051.9,1268.6,1051.7C1268.6,1051.7,1268.6,1051.7,1268.6,1051.7L1268.6,1051.7L1268.6,1051.7z M951.3,1076.2
		c0.4,0.5,0.8,1,1.1,1.4C952,1077.2,951.7,1076.7,951.3,1076.2L951.3,1076.2L951.3,1076.2z"/>
	<path style="fill:#161616;" d="M1161.9,931.9c-3.4,2-4.8,6.7-2.7,10.2c3.1,5,6,10.1,9.7,14.7c3.6,4.5,7.7,8.4,12.4,11.8
		c4.6,3.4,9.6,6.2,14.6,8.7c2.8,1.4,5.8,2.6,8.7,3.7c2.6,1,5.2,1.6,7.9,2.1c2,0.4,3.9,0.3,5.8-0.8c1.7-1,2.9-2.6,3.4-4.5
		c0.5-1.9,0.3-4-0.8-5.8c-0.9-1.6-2.6-3.1-4.5-3.4c-3.7-0.7-7.2-1.7-10.6-3.1c-5.8-2.6-11.5-5.7-16.7-9.4c-3.4-2.7-6.5-5.8-9.3-9.2
		c-2.9-4-5.3-8.2-7.9-12.4c-1.4-2.3-3.9-3.7-6.5-3.7C1164.3,930.9,1163,931.2,1161.9,931.9L1161.9,931.9L1161.9,931.9z"/>
	<path style="fill:#161616;" d="M1118.7,1040.7c-4.7,0.9-9.2,3.1-13.2,5.7c-4.2,2.8-7.9,6.4-10.6,10.7c-0.7,1.1-1.2,2.5-1.7,3.7
		c-0.4,1.1-0.9,2.6-0.8,3.8c0.1,1.3,0.2,2.6,0.5,3.9c0.3,1.3,1,2.5,1.6,3.7c1.2,2.4,3.5,4.3,5.6,5.9c2.1,1.6,4.4,2.6,6.9,3.6
		c2.9,1.2,6.1,1.8,9.1,2.5c1.9,0.4,3.8,0.8,5.7,1.2c3.4,0.7,6.8,1.3,10.2,2c1.7,0.3,3.3,0.6,5,0.8c2.4,0.4,4.9,0.7,7.3,0.5
		c2.9-0.2,5.5-1.2,7.9-2.7c2.2-1.4,4.2-3.3,5.9-5.2c1.5-1.7,3-3.6,4-5.7c0.6-1.1,1.1-2.2,1.6-3.3c3.3-1,5.7-4.9,4.5-8.3
		c-0.6-1.8-1.4-3.5-2.2-5.3c-1.1-2.3-2.7-4.3-4.6-6c-3.5-3.3-7.9-5.7-12.3-7.6c-4.4-1.9-9-3.3-13.8-4.2c-2.8-0.5-5.7-0.8-8.5-0.8
		c-0.1,0-0.2,0-0.3,0C1124.1,1039.8,1121.4,1040.3,1118.7,1040.7L1118.7,1040.7L1118.7,1040.7z M1131.8,1054
		c4.2,0.7,8.4,1.8,12.3,3.4c2.6,1.2,5.1,2.6,7.5,4.3c0.2,0.1,0.3,0.3,0.5,0.4c-1.3,2.7-2.8,5.3-4.5,7.7c-0.9,1-1.8,2-2.8,2.9
		c-0.4,0.3-0.9,0.6-1.3,0.8c-1.1,0-2.2,0-3.3-0.2c-4-0.6-8-1.4-11.9-2.1c-5.7-1.1-11.7-1.9-17.2-4c-0.8-0.4-1.6-0.9-2.4-1.4
		c-0.4-0.4-0.7-0.7-1.1-1.1c0.4-0.7,0.8-1.4,1.3-2.1c1.2-1.4,2.5-2.6,3.9-3.8c1.7-1.2,3.5-2.3,5.4-3.3c2-0.8,4.1-1.3,6.2-1.7
		C1126.9,1053.7,1129.3,1053.7,1131.8,1054L1131.8,1054L1131.8,1054z M1107.5,1065.1c0.1,0.2,0.2,0.4,0.2,0.6
		C1107.7,1065.5,1107.6,1065.3,1107.5,1065.1L1107.5,1065.1L1107.5,1065.1z M1107.8,1065.3c0.1,0.1,0.1,0.2,0.2,0.2c0,0,0,0,0,0
		C1107.9,1065.4,1107.9,1065.3,1107.8,1065.3L1107.8,1065.3L1107.8,1065.3z M1108,1065.5C1108,1065.5,1108,1065.5,1108,1065.5
		c0.1,0.1,0.1,0.2,0.2,0.2C1108.1,1065.6,1108,1065.6,1108,1065.5L1108,1065.5L1108,1065.5z M1107.1,1066c0,0.2-0.1,0.4-0.1,0.6
		C1107.1,1066.4,1107.1,1066.2,1107.1,1066L1107.1,1066L1107.1,1066z M1144.6,1073.2c-0.1,0-0.2,0.1-0.3,0.1
		C1144.4,1073.3,1144.5,1073.2,1144.6,1073.2L1144.6,1073.2L1144.6,1073.2z"/>
	<path style="fill:#161616;" d="M624.8,746.1c-4.9,2.1-9.3,5.2-13.6,8.4c-4.2,3.2-8.4,6.6-12.1,10.3c-3.4,3.4-6.9,6.8-10.3,10.2
		c-2.9,2.9-5.6,6-8.4,9c-2.7,2.8-5.2,5.8-7.8,8.7c-5.3,6-10.3,12.1-15.4,18.2c-10.9,13.2-21.6,26.6-31.9,40.3
		c-4.8,6.3-9.4,12.8-13.7,19.4c-4.4,6.7-8.5,13.5-12.3,20.6c-4.3,8-8.2,16.3-11,25c-2.6,8.3-4,17-4.5,25.6c-0.1,1.4,0.3,2.7,1,3.8
		c-1.8,2.4-3.7,4.8-5.5,7.2c-1.2,1.5-1.2,4.1-0.8,5.9c0.5,1.9,1.8,3.5,3.5,4.5c1.8,1,3.9,1.3,5.9,0.8c2.1-0.6,3.3-1.8,4.5-3.5
		c3.9-5.2,7.8-10.3,11.8-15.5c-0.4,0.5-0.8,1-1.2,1.5c9.1-11.7,18.2-23.5,27.5-35.1c4.8-6,9.7-11.9,14.5-17.9c2.5-3.1,5-6.1,7.5-9.2
		c0.1-0.1,0.2-0.3,0.3-0.4c-0.1,0.9-0.1,1.8-0.2,2.8c-0.1,2.2-0.4,4.4-0.6,6.6c-0.6,6.6-1.2,13.3-1.8,19.9
		c-0.4,4.2-1.1,8.4-1.6,12.7c-0.6,4.9-1.3,9.7-1.9,14.6c-1.2,7.5-2.2,15-3.5,22.4c-1.5,8.5-3.1,16.9-4.8,25.4
		c-3.4,16.7-6.9,33.3-10.4,50c-1.6,7.4-3.1,14.8-4.5,22.2c-1.7,8.5-3.4,17-4.5,25.6c-1,8.2-1.8,16.4-2.2,24.6
		c-0.3,7.9-0.6,15.9,0.3,23.8c0.3,2.2,0.5,4.4,0.9,6.5c0.5,3,1.1,6.4,3.6,8.4c1.3,1,2.3,1.6,3.8,2.1c1.6,0.5,3.3,0.3,4.9-0.3
		c2.6-0.9,4.4-2.8,6.3-4.7c2.3-2.3,4.5-4.7,6.6-7.2c5.5-6.7,10.7-13.5,15.9-20.4c8.9-11.9,17.5-23.9,26.5-35.7
		c0.3-0.4,0.7-0.8,1-1.3c0,0.4-0.1,0.8-0.1,1.3c-1.2,8.1-3.1,16.1-4.9,24c-2,8.3-4,16.6-6,25c-4,16.4-7.7,32.7-11.3,49.2
		c-3.4,15.7-6.5,31.6-9.5,47.4c-3,16.1-5.1,32.5-6,48.8c-0.3,5-1,10.9,1.2,15.6c1.3,2.8,4.4,5.4,7.6,5.1c1.7-0.1,3.2-0.3,4.8-1.1
		c1.3-0.7,2.1-1.3,3.3-2.2c2.1-1.7,3.6-4,5.1-6.1c1.5-2.2,2.9-4.5,4.1-6.8c4.2-7.7,8.4-15.4,12.4-23.2c3.6-7,6.9-14.2,10.3-21.4
		c3.1-6.6,6.2-13.2,9.4-19.8c7.6-15.9,15.2-31.8,22.4-47.9c3.4-7.5,6.7-15,9.9-22.6c1.6-3.8,3.2-7.5,4.7-11.3
		c1.7-4.5,3.4-8.9,5.2-13.4c5.8-15.2,11-30.6,16-46c5.1-15.6,9.3-31.5,13.4-47.4c1.5-5.9,2.9-11.8,4.2-17.7
		c1.1-4.7,2.1-9.5,2.3-14.3c0.2-4.6-1.5-9-4.7-12.3c-1.8-1.8-4.4-2.8-6.7-3.6c-2.1-0.8-4.6-0.9-6.8-1.1c-4-0.3-8.1,0.4-12,1.2
		c-3.9,0.7-7.8,1.7-11.4,3.1c-2.9,1-5.8,2-8.7,3.2c-6.2,2.5-12.5,5.1-18.7,7.7c-0.6,0.2-1.2,0.4-1.8,0.5c-0.2-0.8-0.4-1.7-0.6-2.6
		c-0.2-2.1-0.3-4.1-0.3-6.2c0.1-3,0.5-6,0.8-9c1.1-7.6,2.9-15.1,4.5-22.5c1.2-5.4,2.4-10.9,3.6-16.3c1.8-8.1,3.6-16.2,5.5-24.3
		c3.6-15.9,7.2-31.7,10.7-47.6c3.5-15.8,6.7-31.7,9.8-47.6c3.2-16.3,6.7-32.7,8.6-49.3c0.2-1.8,0.3-3.6,0.4-5.4
		c0.2-4.8,0-9.9-2.2-14.2c-2.6-5.1-7.9-8.1-13.5-8.7c-0.7-0.1-1.3-0.1-2-0.1C634.5,742.1,629.5,744,624.8,746.1L624.8,746.1
		L624.8,746.1z M640.7,756.9c0.2,0.2,0.4,0.5,0.6,0.7c0,0,0,0,0,0C641.1,757.4,640.9,757.1,640.7,756.9L640.7,756.9L640.7,756.9z
		 M640.1,756.9c0.3,0.2,0.6,0.4,0.9,0.7c0,0,0,0,0,0C640.7,757.3,640.4,757.1,640.1,756.9L640.1,756.9L640.1,756.9z M639.7,757.1
		c0.3,0.1,0.6,0.2,0.9,0.4C640.3,757.3,640,757.2,639.7,757.1L639.7,757.1L639.7,757.1z M640.6,757.6c0.1,0,0.3,0.1,0.4,0.1
		c0.1,0.1,0.2,0.1,0.3,0.2c0,0,0.1,0.1,0.1,0.1c0.2,0.6,0.3,1.2,0.4,1.8c0.3,4.7-0.2,9.4-0.7,14.1c-2.5,16.2-5.8,32.4-9,48.5
		c-3,15.1-6.1,30.2-9.4,45.2c-3.7,16.6-7.4,33.2-11.2,49.7c-1.9,8.2-3.7,16.5-5.5,24.7c-0.9,4.3-1.9,8.6-2.8,12.9
		c-1.1,5.5-2.4,10.9-3.3,16.5c-1,6-1.9,12.3-1.8,18.4c0,3,0.5,6.2,1.1,9.2c0.6,3.1,2.2,5.9,4.4,8.1c0.9,1,2.4,1.8,3.6,2.5
		c1.8,0.9,4,1.6,6,1.6c1.8,0,3.5-0.2,5.3-0.5c1.6-0.3,3.1-1.1,4.6-1.7c4.9-2.1,9.9-4.1,14.9-6.1c7.6-3.1,15.5-5.8,23.7-7.1
		c2.1-0.2,4.2-0.3,6.3-0.1c0.6,0.1,1.2,0.3,1.8,0.5c0,1,0,2-0.1,3c-0.7,4.5-1.8,8.9-2.8,13.4c-0.8,3.7-1.7,7.4-2.6,11
		c-2.2,8.4-4.4,16.8-6.7,25.2c-4.3,15.6-9.4,30.9-14.6,46.2c-2.6,7.7-5.3,15.3-8.2,22.9c-1.8,4.7-3.6,9.3-5.4,14
		c-1.5,3.9-3.2,7.7-4.8,11.5c0.3-0.6,0.5-1.2,0.8-1.8c-6.8,15.7-13.8,31.2-21,46.6c-6.7,14.1-13.5,28.2-20.1,42.3
		c-3.7,7.9-7.5,15.9-11.5,23.7c-2,3.8-4,7.6-6,11.4c-0.5,1-1.1,2-1.6,3c0.5-5.4,1.1-10.8,1.8-16.1c2.2-15.4,5.2-30.7,8.3-46
		c3.1-15.6,6.4-31.2,10.1-46.7c3.9-16.3,7.9-32.6,11.7-49c2.3-9.6,4.4-19.3,5.5-29.1c0.6-5.1,0.6-10.5-0.8-15.4
		c-0.3-1.2-0.9-2.4-1.5-3.6c-0.5-1-2.3-3-3.3-3.4c-1.6-0.7-3-1.4-4.8-1.4c-2,0-3.7,0.3-5.5,1.4c-1.8,1.1-3.1,3-4.5,4.5
		c-0.6,0.8-1.3,1.5-2,2.3c-1.3,1.6-2.6,3.2-3.9,4.8c-7.1,9-13.8,18.2-20.6,27.4c-6,8.2-12.1,16.4-18.3,24.5
		c-1.6,1.9-3.1,3.8-4.7,5.7c-0.1,0.1-0.1,0.2-0.2,0.2c-0.3-5.8-0.2-11.6,0.1-17.4c0.3-8,1.1-16,2-24c2.5-15.5,5.6-30.9,8.8-46.3
		c3.5-16.7,7-33.4,10.4-50.1c1.7-8.2,3.2-16.4,4.7-24.7c0.6-3.5,1.1-7,1.6-10.6c0.7-4.5,1.5-8.9,2-13.4c1.2-9.1,2.3-18.1,3.5-27.2
		c0.4-2.8,0.5-5.5,0.8-8.3c0.5-5.5,1-11.1,1.5-16.6c0.2-2.1,0.3-4.1,0.4-6.2c0.2-2.8,0.3-5.5,0.3-8.3c0.1-3.1-0.2-6.2-0.5-9.3
		c0-1.4-0.4-2.7-1-3.9c-0.9-1.5-2.7-3.2-4.6-3.5c-1.3-0.2-2.6-0.4-4-0.4c-1.8,0.1-3.1,0.6-4.7,1.5c-1.9,1.1-3.3,3-4.6,4.7
		c-5.5,6.6-11,13.2-16.5,19.8c-5.4,6.6-10.7,13.2-16,19.8c-4.8,5.9-9.3,11.9-14,17.8c-0.1,0.2-0.2,0.3-0.4,0.5
		c1.1-3.9,2.5-7.8,4.1-11.6c4.8-10.4,10.4-20.4,16.5-30c6.3-9.8,13.3-19.1,20.2-28.4c9.6-12.3,19.3-24.5,29.4-36.4
		c5.4-6.4,10.9-12.8,16.5-19.1c5.7-6.5,11.8-12.5,17.9-18.6c4-3.9,8.1-7.7,12.5-11.2c4.2-3.1,8.6-6,13.4-8.2
		c1.8-0.7,3.7-1.3,5.6-1.7C639.2,757.6,639.9,757.6,640.6,757.6L640.6,757.6L640.6,757.6z M641,757.6C641,757.6,641,757.6,641,757.6
		C641,757.6,641.1,757.6,641,757.6C641,757.6,641,757.6,641,757.6L641,757.6L641,757.6z M641.3,757.6
		C641.3,757.6,641.3,757.6,641.3,757.6c0.1,0.1,0.1,0.1,0.1,0.2c0,0,0,0,0,0C641.3,757.7,641.3,757.7,641.3,757.6L641.3,757.6
		L641.3,757.6z M620.6,766.6c-0.3,0.2-0.6,0.4-0.8,0.7C620,767,620.3,766.8,620.6,766.6L620.6,766.6L620.6,766.6z M548.7,865.6
		c-0.1,0.1-0.2,0.3-0.3,0.4C548.4,865.9,548.6,865.7,548.7,865.6L548.7,865.6L548.7,865.6z M614.3,978.4c-0.1,0.4-0.1,0.8-0.2,1.3
		C614.2,979.2,614.3,978.8,614.3,978.4L614.3,978.4L614.3,978.4z M612.9,995c0.2,0.2,0.5,0.4,0.7,0.6
		C613.4,995.4,613.2,995.3,612.9,995L612.9,995L612.9,995z M614,995.2c0,0.1,0.1,0.2,0.1,0.3C614,995.4,614,995.3,614,995.2
		L614,995.2L614,995.2z M613.1,995.5c0.2,0.1,0.4,0.2,0.6,0.2C613.5,995.7,613.3,995.6,613.1,995.5L613.1,995.5L613.1,995.5z
		 M614.9,996.1c0.1,0,0.2,0,0.3,0C615.1,996.1,615,996.1,614.9,996.1L614.9,996.1L614.9,996.1z M669.9,996.7c0,0.1,0,0.2,0,0.3
		C669.9,996.9,669.9,996.8,669.9,996.7L669.9,996.7L669.9,996.7z M669.9,997.6c0,0.2-0.1,0.4-0.1,0.6
		C669.8,998,669.8,997.8,669.9,997.6L669.9,997.6L669.9,997.6z M586.7,1082c-0.2,0.3-0.5,0.6-0.7,0.9
		C586.3,1082.6,586.5,1082.3,586.7,1082L586.7,1082L586.7,1082z M566.6,1252.4c-0.1,0.7-0.2,1.3-0.3,2
		C566.4,1253.7,566.5,1253.1,566.6,1252.4L566.6,1252.4L566.6,1252.4z"/>
	<path style="fill:#161616;" d="M1316,902.5c0,0.8,0.6,1.4,1.4,1.4s1.4-0.6,1.4-1.4c0-0.8-0.6-1.4-1.4-1.4S1316,901.7,1316,902.5
		L1316,902.5L1316,902.5z"/>
	<path style="fill:#161616;" d="M1123.5,619.7c-4.1,0.2-8.2,0.6-12.4,1c-1.4,0.1-2.9,0.3-4.3,0.5c-2.7,0.3-5.5,0.6-8.2,1
		c-15.8,2.6-31.6,5.6-47.1,9.8c-4.1,1.1-8.2,2.3-12.3,3.6c-3.5,1.1-7,2.5-10.4,3.9c-8,3.3-15.8,6.8-23.5,10.7
		c-6.9,3.5-13.7,7.1-20.2,11.3c-7.4,4.7-14.6,9.5-21.9,14.4c-13.4,9.2-26.3,19.2-38.5,30c-6.1,5.4-12.3,10.9-18.1,16.7
		c-2.9,2.8-5.7,5.7-8.4,8.7c-2.8,3.1-5.4,6.3-8.1,9.5c-2.6,3.1-5.1,6.4-7.5,9.8c-2.2,3.3-4.6,6.4-6.6,9.8c-1.4,2.3-2.9,4.7-4.3,7
		c-0.8,1.3-1.7,2.6-2.5,4c-2.2,4-4.4,8.1-6.6,12.1c-9.6,17.7-15.5,37.8-16.8,57.8c-0.2,2.8-0.4,5.5-0.6,8.2c-0.3,3.7-0.2,7.3-0.1,11
		c0.3,7.3,1.4,14.5,2.5,21.7c1.3,8.2,3,16.3,4.8,24.5c0.9,3.9,2,7.8,3,11.7c0.4,1.5,1,3,1.5,4.6c0.6,1.9,1.2,3.9,1.9,5.8
		c0.9,2.3,1.8,4.7,2.7,7c1.1,2.8,2.5,5.4,3.7,8.1c2,4.3,4.5,8.5,7,12.5c2.6,4.3,5.6,8.3,8.7,12.3c1.4,1.8,2.9,3.6,4.4,5.4
		c1.5,1.8,2.9,3.6,4.6,5.1c2.4,2.2,5.9,2.8,8.8,1.1c3.4-2,4.7-6.6,2.6-10c-0.7-1.1-1.3-2.3-2.1-3.3c-1-1.3-2-2.6-3-3.9
		c-1.4-1.7-2.8-3.5-4.2-5.2c-3-4.1-6-8.2-8.4-12.7c-1.6-2.8-3.1-5.6-4.6-8.5c-1.1-2.1-2.1-4.3-3.1-6.5c-0.8-2-1.6-4.1-2.4-6.1
		c-1.1-2.8-1.9-5.7-2.8-8.5c-0.7-2.2-1.2-4.5-1.9-6.8c-0.6-2.1-1.1-4.3-1.6-6.4c-1.3-5.8-2.5-11.5-3.6-17.3
		c-0.9-4.6-1.6-9.2-2.3-13.8c-0.9-7.3-1.4-14.6-0.8-21.9c0.3-5.1,0.7-10.2,1.3-15.3c1.7-11.3,4.8-22.4,9.1-33
		c2.4-5.4,5.2-10.6,8-15.8c1.6-3,3.2-5.9,4.9-8.8c2.1-3.5,4.1-7.1,6.4-10.4c2.3-3.3,4.5-6.6,6.8-9.8c3.8-4.9,7.7-9.7,11.8-14.4
		c4.3-4.9,9-9.4,13.8-13.8c5-4.6,10-9.4,15.2-13.8c5.1-4.3,10.3-8.6,15.5-12.8c11.8-8.9,24-17.3,36.5-25.2c6.2-3.9,12.4-7.7,18.9-11
		c6.7-3.4,13.5-6.6,20.3-9.7c5.7-2.3,11.3-4.5,17.2-6.4c5.9-1.9,11.9-3.4,17.9-4.8c6.1-1.4,12.3-2.8,18.4-4
		c6.4-1.2,12.7-2.4,19.1-3.4c7.4-0.9,14.8-1.7,22.2-2.1c8.3-0.5,16.6-0.7,24.9-0.7c7.8,0,15.7,0.2,23.5,0.5
		c4.9,0.2,9.8,0.4,14.7,0.6c3.8,0.2,7.6,0.6,11.3,0.8c3.9,0.3,7.9,0.6,11.8,0.9c2.5,0.2,5,0.6,7.4,0.9c7.7,0.9,15.4,1.8,23,2.7
		c12.2,1.9,24.3,4,36.2,7.2c11.6,3.1,23,7.1,34.1,11.8c-0.6-0.3-1.2-0.5-1.9-0.8c11.3,4.9,21.9,11,31.7,18.4
		c7.9,6.3,15.1,13.4,21.4,21.3c8.7,11.5,15.9,24.2,21.6,37.4c1.2,3,2.4,5.9,3.4,9c1.3,3.8,2,7.6,2.6,11.5c0.4,3.4,0.8,6.7,1.2,10.1
		c1,9,0.7,18.1-0.4,27c-1.3,8.7-3.4,17.1-6.1,25.4c-2.7,8.5-6.1,16.8-9.5,25.1c-4.7,11-10.5,21.4-17.7,30.9
		c-5.8,7.4-12.3,14.4-19.7,20.3c-4.4,3.2-9.2,5.7-14.1,8c-0.3,0.1-0.5,0.2-0.8,0.3c-2,0.8-3.5,1.6-4.6,3.5c-1.1,1.8-1.3,3.9-0.8,5.9
		c0.5,1.9,1.8,3.6,3.5,4.6c1.6,0.9,4.1,1.5,5.9,0.8c5.1-2.1,10-4.4,14.7-7.3c5-3,9.5-6.9,13.7-10.9c8.2-7.9,15.4-16.8,21.6-26.3
		c6.4-9.9,11.1-20.8,15.4-31.7c4.4-11.1,8.6-22.4,11.3-34.1c1.3-5.8,2.1-11.7,2.8-17.6c0.7-6,0.8-12.1,0.5-18.1
		c-0.3-5.5-1-11-1.7-16.5c-0.5-4.6-1.3-9.2-2.7-13.6c-1.8-6-4.4-11.7-6.9-17.4c-4.8-10.6-10.6-20.7-17.3-30.2
		c-13.5-19.1-31.9-34.6-52.8-45.1c-10.4-5.3-21.5-9.3-32.6-13c-11.3-3.7-23-6.4-34.7-8.6c-6.8-1.2-13.5-2.3-20.4-3.1
		c-5.7-0.7-11.3-1.3-17-2c-3.6-0.4-7.1-0.8-10.7-1.2c-4.2-0.5-8.5-0.6-12.7-0.9c-3.6-0.3-7.2-0.6-10.8-0.8c-5-0.2-10-0.4-15-0.6
		c-7.9-0.3-15.8-0.4-23.7-0.4c-0.7,0-1.4,0-2,0C1138.7,619,1131.1,619.3,1123.5,619.7L1123.5,619.7L1123.5,619.7z M1363,699.3
		c0.1,0.1,0.2,0.3,0.3,0.4C1363.2,699.6,1363.1,699.4,1363,699.3L1363,699.3L1363,699.3z M1383.4,734.5c0.1,0.3,0.3,0.6,0.4,0.9
		C1383.7,735.1,1383.6,734.8,1383.4,734.5L1383.4,734.5L1383.4,734.5z M1375,844.7c-0.2,0.4-0.3,0.8-0.5,1.2
		C1374.7,845.5,1374.9,845.1,1375,844.7L1375,844.7L1375,844.7z M1357.3,875.4c-0.2,0.2-0.4,0.5-0.6,0.7
		C1357,875.9,1357.1,875.6,1357.3,875.4L1357.3,875.4L1357.3,875.4z"/>
	<path style="fill:#161616;" d="M915.8,1054.7c-4.7,5.1-9.4,10.2-14.1,15.3c-3.5,3.8-7.2,7.3-10.9,10.9c-3.2,3.2-6.7,6.2-10,9.2
		c-3.9,3.4-7.9,6.8-11.9,10.1c-1.5,1.2-2.9,2.4-4,4c-1.6,2.4-2.2,5.1-2.2,7.9c0,1.4,0.4,2.9,0.7,4.3c0.2,1.2,0.8,2.3,1.2,3.4
		c1.2,2.9,2.6,5.7,4.3,8.3c4,6.5,8.7,12.6,13.4,18.6c4.7,5.9,9.5,11.8,14.3,17.7c9.2,11.3,18.2,22.8,27.8,33.7
		c5.1,5.9,10.3,11.7,16,17.1c2.8,2.7,5.7,5.3,8.7,7.7c1.9,1.5,3.8,3,5.9,4.2c2.1,1.3,4.4,2.2,6.7,3c2.7,0.9,5.6,0.8,8.4,0.4
		c2.9-0.4,5.5-1.4,8.1-2.7c2.3-1.1,4.3-2.8,6.2-4.5c1.8-1.5,3.3-3.4,4.8-5.2c3.5-4.4,6.6-8.9,9.3-13.8c1.9-3.4,3.7-7,5.4-10.5
		c3.4-7.1,6.4-14.4,9.3-21.8c1.3-3.2,2.6-6.4,3.9-9.7c0.7-1.6,1.4-3.2,2.1-4.8c0.7-1.6,1.4-3.1,2-4.7c1.8-4.3,0.3-9.4-3.9-11.6
		c-3-1.6-6.5-1.3-9,1.2c-1.7,1.7-2.4,4.2-2.1,6.5c-1.9,4.4-3.8,8.8-5.6,13.2c-1.9,4.7-3.8,9.5-5.7,14.2c-1.8,4.1-3.7,8.2-5.6,12.3
		c-3,6.3-6.5,12.5-10.6,18.2c-1.9,2.4-3.8,4.5-6.1,6.5c-1,0.6-2,1.2-3,1.7c-0.8,0.3-1.7,0.5-2.5,0.7c-0.2,0-0.5,0-0.7,0
		c-0.6-0.2-1.3-0.3-1.9-0.6c-2-1-3.9-2.2-5.7-3.5c-11.8-9.4-21.5-21-31.2-32.5c-9.7-11.5-19.1-23.1-28.7-34.7
		c-3.1-3.7-6.1-7.5-9.1-11.2c0.1,0.2,0.2,0.3,0.4,0.5c-4.7-6.1-9.5-12.4-12.8-19.4c-0.4-1-0.6-2-0.9-3c1.8-1.9,3.8-3.6,5.6-5.4
		c2-1.9,4-3.8,6-5.7c3.6-3.4,7.3-6.8,10.8-10.4c3.5-3.6,7.1-7.1,10.5-10.8c4.8-5.3,9.7-10.6,14.5-16c2.1-2.4,2.3-5.9,0-8.3
		c-1.1-1.1-2.7-1.7-4.2-1.7C918.3,1053,916.8,1053.6,915.8,1054.7L915.8,1054.7L915.8,1054.7z M870.1,1099.2
		c-0.4,0.3-0.7,0.6-1.1,0.8C869.4,1099.8,869.7,1099.5,870.1,1099.2L870.1,1099.2L870.1,1099.2z M876.8,1109.7
		c0,0.3-0.1,0.5-0.1,0.8C876.7,1110.2,876.7,1110,876.8,1109.7L876.8,1109.7L876.8,1109.7z M877.3,1110.2c-0.1,0.2-0.3,0.3-0.4,0.5
		C877.1,1110.6,877.2,1110.4,877.3,1110.2L877.3,1110.2L877.3,1110.2z"/>
	<path style="fill:#161616;" d="M865.1,1101.9c-15.9,9.1-31.7,18.2-47.6,27.2c-6.9,3.9-13.7,7.9-20.5,12c-4.4,2.6-8.7,5.3-13.1,8
		c-2.8,1.7-5.6,3.7-8.4,5.5c-3.4,2.2-6.9,4.4-10.2,6.8c-3.7,2.7-7.5,5.4-11.2,8.1c-6.2,4.5-12.4,9.2-18.4,14
		c-6.5,5.3-13.1,10.6-19.4,16.1c-6.3,5.4-12.4,11.1-18.5,16.7c-5.9,5.5-11.4,11.3-16.9,17c-5.3,5.4-10.4,10.9-15.5,16.4
		c-10.8,11.8-21.1,24.1-30.9,36.6c-10.3,13.2-20.5,26.4-30.4,39.9c-9.4,12.7-18.2,25.9-26.5,39.4c-8,12.9-15.2,26.3-22.4,39.7
		c-7.5,14-15,28-22.1,42.2c-2.3,4.6-4.6,9.2-6.8,13.8c-0.9,1.9-1.8,3.9-2.6,5.8c-0.4,1-0.9,1.9-1.4,2.9c-0.8,1.8-1.2,3-1.5,5
		c-0.2,1.9,0.3,3.8,1.3,5.4c1.4,2.1,3.5,3.5,6.1,3.5c1.3,0,2.5-0.3,3.6-0.9c1.4-0.8,2.9-2.5,3.2-4.1c0.3-0.6,0.7-1.2,1-1.8
		c0.3-0.7,0.7-1.4,1-2.1c0.7-1.6,1.4-3.2,2.2-4.8c1.6-3.4,3.2-6.8,4.9-10.2c3.5-7,7-13.9,10.7-20.8c7.3-13.9,14.6-27.7,22.2-41.4
		c7.8-14.1,16.1-28,24.9-41.5c8.7-13.3,18.3-26.1,27.9-38.8c3.6-4.8,7.3-9.6,11-14.4c-0.4,0.5-0.8,1-1.2,1.6
		c10-12.8,20.3-25.3,30.9-37.6c4.8-5.5,9.8-10.7,14.8-16c5.6-5.8,11.1-11.7,16.8-17.4c7.1-7,14.3-13.9,21.8-20.4
		c7.9-6.9,16-13.5,24.1-20.1c-0.1,0.1-0.1,0.1-0.2,0.2c6-4.6,11.9-9.1,18-13.5c2.7-2,5.4-4,8.3-5.9c4.4-2.9,8.9-5.9,13.3-8.8
		c6.9-4.6,14.1-8.7,21.2-13.1c6.9-4.2,14-8.1,21-12.1c14.5-8.3,28.9-16.5,43.4-24.8c3.6-2.1,4.9-6.9,2.8-10.6
		c-1.4-2.4-4-3.8-6.7-3.8C867.7,1100.8,866.4,1101.2,865.1,1101.9L865.1,1101.9L865.1,1101.9z"/>
	<path style="fill:#161616;" d="M962.6,1229.8c-0.5,8.4-0.5,16.8-0.4,25.2c0.1,9.3,0.3,18.6,0.4,27.9c0.3,15.5,0.6,31,0.8,46.5
		c0.3,17.9,0.4,35.8,0.5,53.7c0,7.6,0.1,15.3-0.1,22.9c-0.2,9.2-0.5,18.3-1,27.4c-0.6,11.3-1.7,22.5-2.9,33.8
		c-2.2,16.2-4.6,32.4-7.1,48.6c-2.5,16.1-4.9,32.3-7.8,48.3c-1.3,7.3-2.7,14.7-4.3,22c-1.6,7.5-3.6,15-5.5,22.4
		c-2.1,7.8-4,15.7-6,23.5c-0.9,3.6-1.9,7.1-2.8,10.7c-1,3.7-1.9,7.4-3.1,11.1c-0.8,1.7-1.1,3.5-0.6,5.4c0.5,1.9,1.8,3.5,3.5,4.5
		c1.7,1,3.9,1.3,5.8,0.8c2.1-0.6,3.3-1.8,4.5-3.5c1.7-2.3,2.3-5.4,3-8.2c0.5-1.9,1.1-3.9,1.6-5.8c1-3.6,2-7.3,2.9-10.9
		c2-8,4.1-16,6.2-23.9c2.1-7.9,4.1-15.9,5.8-23.9c1.8-8.2,3.2-16.5,4.7-24.8c2.9-15.8,5.1-31.8,7.6-47.7c1.3-8.2,2.5-16.5,3.7-24.7
		c1.2-8.4,2.6-16.8,3.5-25.3c0.5-4.3,1-8.6,1.4-12.9c0.4-5,0.8-9.9,1.1-14.9c0.6-7.8,0.8-15.7,1-23.5c0.4-16.4,0.3-32.8,0.2-49.1
		c-0.3-33.4-1.1-66.9-1.5-100.3c-0.2-11.7-0.4-23.5,0.3-35.2c0.2-4.2-3.7-7.7-7.7-7.7C965.9,1222,962.8,1225.6,962.6,1229.8
		L962.6,1229.8L962.6,1229.8z"/>
	<path style="fill:#161616;" d="M775.5,1287.2c-2.7,4.2-5.2,8.5-7.8,12.8c-4.8,8.1-8.1,16.8-11.1,25.7c-1.4,4.1-2.6,8.3-3.9,12.4
		c-1,3.4-2.2,6.7-3.1,10.1c-4,14.9-8,29.8-12,44.7c-7.6,28.7-15.3,57.5-23.8,85.9c-4.4,14.7-8.9,29.3-13.3,44
		c-4.2,13.9-8.6,27.8-12.5,41.9c-1.1,4.1-2.3,8.2-3.4,12.3c-0.5,2.1-1,4.1-1.5,6.2c-0.2,0.9-0.4,1.8-0.6,2.7
		c-0.2,1.2-0.4,2.4-0.5,3.6c-0.2,1.4,0.6,3.2,1.2,4.4c1.2,2.3,3.8,3.6,6.4,3.7c2,0,3.9-0.7,5.5-1.9c1-0.6,1.8-1.4,2.4-2.4
		c0.9-1.6,1.1-3.4,0.7-5.2c-0.1-0.3-0.2-0.6-0.3-0.8c0.3-1.6,0.7-3.2,1.1-4.7c0.8-3.3,1.7-6.5,2.6-9.8c1.8-6.7,3.7-13.4,5.6-20
		c4.3-14.5,8.5-29.1,12.8-43.6c8.6-29.1,16.7-58.2,24.2-87.5c3.7-14.2,7.1-28.4,10.7-42.7c1.9-7.8,4-15.7,6-23.5
		c1.9-7.4,4.2-14.8,6.3-22.1c1.7-6,3.7-11.9,6.1-17.6c3.5-7.8,8-15.3,12.6-22.5c1.8-2.8,0.6-6.8-2.2-8.4c-1-0.6-2-0.8-3-0.8
		C778.8,1284.2,776.7,1285.3,775.5,1287.2L775.5,1287.2L775.5,1287.2z"/>
	<path style="fill:#161616;" d="M861,1344.3c-7.6,32.5-14.9,65.1-23.1,97.4c-3.9,15.4-7.9,30.8-11.8,46.3
		c-3.7,14.8-6.9,29.7-9.9,44.6c-3,14.6-5.7,29.2-8.2,43.8c-2.4,13.6-5,27.1-6.9,40.8c-0.3,1.9-0.5,3.7-0.8,5.5
		c-0.1,0.7-0.2,1.4-0.3,2c0,1.4,0.3,2.7,1,3.9c1,1.7,2.7,3,4.6,3.5c2,0.5,4.1,0.3,5.9-0.8c1.5-0.9,3.3-2.7,3.5-4.6
		c1-7.1,1.9-14.3,3.2-21.4c1.2-7,2.4-14,3.6-21c2.4-14.8,5-29.5,7.7-44.3c5.6-30.6,13.1-60.9,20.4-91.1c7.2-29.8,14-59.7,20.8-89.7
		c0.9-3.9,1.8-7.7,2.7-11.6c0.8-3.4-1-6.9-4.4-7.8c-0.5-0.1-1.1-0.2-1.6-0.2C864.4,1339.6,861.6,1341.5,861,1344.3L861,1344.3
		L861,1344.3z"/>
	<path style="fill:#161616;" d="M972.9,1213.4c-3.7,2.2-4.7,6.8-2.8,10.5c2.7,5.2,5.4,10.3,8.3,15.4c2.7,4.8,5.5,9.5,8.2,14.3
		c3.3,5.8,6.5,11.6,10,17.2c9,14.5,18.1,29,26.8,43.7c17.1,28.6,33.8,57.5,47.6,87.8c0.5,1,0.9,2.1,1.4,3.1
		c3.8,9.2,7.6,18.5,10.6,28c1.6,5,3.2,9.9,4.7,14.9c1.7,5.9,3.5,11.7,4.5,17.7c0.2,2.5,0.2,5,0,7.6c-0.7,4.5-2.1,8.8-3.8,13
		c-2.7,6-5.8,11.7-9.3,17.2c-1.8,2.9-3.6,5.9-5.5,8.7c-4.7,6.9-9.4,13.7-14.2,20.6c-3.9,5.5-7.7,11-11.7,16.5
		c-4.2,5.8-8.5,11.5-12.8,17.2c-2.6,3.1-5.1,6.2-7.7,9.2c-1.2,1.5-2.7,2.9-4,4.3c-1.3,1.4-2.6,3-4,4.3c-5.7,5.5-11.4,10.9-17.5,16
		c-6.1,5.1-12.3,10-18.4,15.2c-6.1,5.2-12.2,10.4-18.2,15.7c-6.4,5.6-12.8,11.1-19.1,16.8c-3,2.7-5.9,5.4-8.8,8.1
		c-1.4,1.3-2.8,2.6-4.2,3.9c-1,1-2.1,2.1-3.1,3.1c-0.2,0.2-0.4,0.3-0.6,0.5c-0.9,0.8-1.7,1.6-2.3,2.6c-1.3,2.1-1.5,5.4,0,7.5
		c0,0,0.1,0.1,0.1,0.2c1.2,1.7,2.5,2.9,4.6,3.5c1.9,0.5,4.3,0.3,5.9-0.8c2-1.4,3.8-3.2,5.6-4.9c1.4-1.4,2.9-2.7,4.3-4
		c2.7-2.5,5.3-5,8-7.5c6-5.4,12-10.6,18-15.9c6.1-5.3,12.3-10.7,18.5-16c5.9-5,11.9-9.8,17.9-14.8c3.4-2.8,6.7-5.6,10-8.5
		c3.1-2.7,6-5.6,9-8.5c5.9-5.7,11.1-11.9,16.3-18.2c2.9-3.4,5.5-7.1,8.2-10.6c2.4-3.1,4.7-6.3,7-9.5c4.4-6.2,8.8-12.4,13.2-18.6
		c4.8-6.9,9.6-13.8,14.4-20.8c2.4-3.6,4.6-7.3,6.9-11c2.2-3.5,4.1-7.3,5.9-11c2.6-5.4,4.8-11,6.1-16.8c0.6-2.8,1-5.8,1.2-8.6
		c0.2-2.8-0.1-5.6-0.5-8.4c-0.4-3.3-1.2-6.5-2-9.7c-0.9-3.5-2-7-3-10.5c-2.3-7.6-4.7-15.3-7.5-22.8c-2.9-7.8-5.8-15.5-9.3-23.1
		c-1.7-3.8-3.3-7.6-5.1-11.3c-2.1-4.3-4.2-8.6-6.3-12.8c-1.8-3.6-3.8-7.2-5.7-10.7c-1.5-2.9-3.1-5.8-4.7-8.7
		c-4.3-7.8-8.7-15.6-13.1-23.4c-3.9-6.9-8-13.7-12.1-20.5c-3.3-5.6-6.6-11.2-10.1-16.7c-5.8-9.4-11.6-18.7-17.4-28.1
		c-3.3-5.3-6.3-10.7-9.4-16c-3.1-5.4-6.2-10.8-9.2-16.1c-3.1-5.5-6.1-11.1-9.1-16.7c-1.3-2.5-4-3.8-6.7-3.8
		C975.4,1212.3,974,1212.7,972.9,1213.4L972.9,1213.4L972.9,1213.4z"/>
	<path style="fill:#161616;" d="M972.2,1435.4c-1.9,0.5-3.6,1.8-4.5,3.5c-1,1.7-1.3,3.9-0.8,5.8c0.5,1.7,1.8,3.8,3.5,4.5
		c4.5,2.1,9,4.2,13.5,6.2c4.3,2,8.7,3.9,12.7,6.4c0.1,0.1,0.3,0.2,0.4,0.4c0,0.4,0,0.8,0,1.2c-1.3,7.6-4.5,14.8-7.2,22
		c-1.6,4.2-3.3,8.3-4.9,12.5c-3.1,7.7-6.2,15.4-9.3,23.1c-4.7,11-9.5,21.9-14.5,32.7c-2.4,5.1-4.8,10.3-7.3,15.3
		c-1.3,2.7-2.7,5.4-4,8c-1.4,2.8-2.9,5.5-4.2,8.4c-0.8,1.9-1.3,3.6-0.7,5.6c0.5,1.8,1.7,3.4,3.4,4.4c1.7,1,3.7,1.3,5.6,0.7
		c2-0.5,3.2-1.8,4.4-3.4c2.3-3.1,4.1-6.5,5.8-10c1.8-3.5,3.5-7.1,5.2-10.6c3.3-6.9,6.6-13.8,9.8-20.8c7.1-15.6,13.6-31.6,19.9-47.5
		c1.7-4.2,3.3-8.4,5-12.6c2.9-7.3,5.9-14.6,7.6-22.3c0.3-1.5,0.6-3.2,0.7-4.7c0.2-2,0-3.9-0.4-5.9c-0.3-1.6-1.1-3.2-2-4.6
		c-1.1-1.7-2.5-2.9-4.1-4.2c-3.3-2.6-7.3-4.2-11.1-6c-5.5-2.6-11-5.1-16.5-7.6c-1.3-0.6-2.6-1-4-1
		C973.4,1435.1,972.8,1435.2,972.2,1435.4L972.2,1435.4L972.2,1435.4z M997.2,1462.5c0.1,0.3,0.3,0.6,0.4,0.9
		C997.4,1463.1,997.3,1462.8,997.2,1462.5L997.2,1462.5L997.2,1462.5z M997.1,1462.9c0,0.2,0.1,0.5,0.1,0.7
		C997.2,1463.3,997.1,1463.1,997.1,1462.9L997.1,1462.9L997.1,1462.9z M996.9,1463.9c0,0.1,0,0.3-0.1,0.4
		C996.8,1464.2,996.9,1464.1,996.9,1463.9L996.9,1463.9L996.9,1463.9z"/>
	<path style="fill:#161616;" d="M690,528.2c-4.3,0.6-7,4.5-6.6,8.6c0.5,5,0.8,9.9,1.4,14.9c0.5,5.2,1.5,10.3,2.5,15.4
		c1,4.9,2.1,9.8,3.2,14.6c1.8,7.4,3.5,14.8,5.4,22.2c2.1,8.3,4.3,16.5,6.6,24.7c0.9,3.1,1.8,6.2,2.8,9.2c0.7,1.9,1.4,3.8,2.1,5.7
		c0.7,2,1.7,4,2.9,5.8c1.2,1.9,2.6,3.5,4.3,5c2.4,2,6,1.9,8.4,0.1c1.4-1.1,2.4-2.7,2.7-4.5c0.3-1.8-0.3-3.2-1.1-4.7
		c-1.8-3.6-2.9-7.5-4.3-11.3c-0.8-2.5-1.6-5-2.4-7.5c-1.4-4.5-2.6-9.1-3.9-13.7c-2.1-8.2-4.2-16.5-6.2-24.7
		c-1.2-4.8-2.3-9.6-3.4-14.4c-1.4-6-2.5-12.2-3.5-18.3c-1.1-6.7-1.5-13.6-2.1-20.4c-0.3-3.9-4-6.7-7.7-6.7
		C690.6,528.1,690.3,528.1,690,528.2L690,528.2L690,528.2z"/>
	<path style="fill:#161616;" d="M775.4,497.6c-1.8,0.2-3.5,1.2-4.6,2.6c-1.3,1.6-1.5,3.3-1.5,5.3c0.1,17.7,0.2,35.5,0.2,53.2
		c0,7.9,0,15.8,0,23.8c0,3.9,0,7.8,0,11.7c0,1.8,0,3.6,0,5.5c0,1.7,0,3.3,0.2,5c0.2,2.9,1.1,5.6,2.3,8.3c0.8,1.7,1.9,3,3.7,3.8
		c1.7,0.7,3.7,0.8,5.5,0c3.5-1.4,5.3-5.6,3.8-9.2c-0.3-0.6-0.5-1.2-0.8-1.9c-0.5-3.1-0.4-6.3-0.4-9.4c0-1.7-0.1-3.3-0.1-5
		c-0.1-4.2-0.1-8.4-0.2-12.6c-0.1-7.7-0.1-15.4-0.2-23c-0.1-17.3-0.2-34.6-0.3-51.9c0-1.7-1.3-3.6-2.6-4.6c-1.2-1-2.8-1.5-4.4-1.5
		C776,497.5,775.7,497.5,775.4,497.6L775.4,497.6L775.4,497.6z"/>
	<path style="fill:#161616;" d="M891.4,475.1c-1.8,1.3-2.5,3-3,5.1c-8,31.8-15.8,63.6-24.3,95.3c-0.9,3-1.8,5.9-2.9,8.8
		c-1.4,3.9,0,8.4,4,10.1c3.7,1.6,8.5-0.1,10.1-4c3.3-8.5,5.3-17.5,7.6-26.3c2-7.5,3.9-15,5.8-22.5c5-19.8,10-39.5,15-59.3
		c0.5-1.9-0.4-4.2-1.5-5.7c-1.2-1.6-3.1-2.7-5.1-3c-0.4-0.1-0.7-0.1-1.1-0.1C894.4,473.5,892.8,474.1,891.4,475.1L891.4,475.1
		L891.4,475.1z"/>
	<path style="fill:#161616;" d="M1198.8,1324.1c-0.6,4.2,2.4,8.1,6.6,8.7c18.9,2.7,37.8,5.3,56.8,7.6c16.4,2,32.8,4.2,49.4,4.6
		c2,0.1,3.7-0.1,5.3-1.4c1.5-1.1,2.5-2.8,2.8-4.7c0.5-3.9-2.2-7.5-6.1-8.1c-8.1-1.1-16.2-1.9-24.2-2.8c-8.3-0.9-16.7-1.9-25-2.9
		c-19-2.3-37.9-4.9-56.8-7.6c-0.4,0-0.7-0.1-1-0.1C1202.8,1317.5,1199.4,1320.3,1198.8,1324.1L1198.8,1324.1L1198.8,1324.1z"/>
	<path style="fill:#161616;" d="M1215.4,1399.9c-1.9,0.8-3.4,2.2-4.2,4.1c-1.6,3.6,0,8.7,4,10.1c17.1,6,34.3,12,51.5,17.8
		c7.4,2.5,14.7,5,22.1,7.5c3.4,1.2,6.9,2.4,10.3,3.6c4.5,1.6,9.1,3.2,13.3,5.5c0.2,0.1,0.3,0.2,0.5,0.3c1.8,1.1,3.3,1.8,5.5,1.5
		c1.9-0.2,3.6-1.2,4.8-2.7c2.3-3,2.1-8.1-1.2-10.3c-3.2-2.2-6.5-4.1-10.1-5.6c-2.1-0.9-4.2-1.7-6.4-2.6c-3.3-1.4-6.8-2.5-10.1-3.7
		c-7-2.5-14.1-4.8-21.1-7.2c-17.6-6-35.2-12.1-52.8-18.2c-1.1-0.4-2.2-0.6-3.2-0.6C1217.3,1399.4,1216.3,1399.6,1215.4,1399.9
		L1215.4,1399.9L1215.4,1399.9z"/>
	<path style="fill:#161616;" d="M1225,1489c-1.9,0.8-3.4,2.2-4.2,4.1c-1.6,3.7,0.1,8.7,4,10.1c19.1,6.9,38.3,13.8,57.5,20.7
		c17,6.1,34,12.3,51.1,18c0.4,0.1,0.8,0.3,1.2,0.4c1.9,0.6,3.7,0.8,5.6,0.1c1.7-0.7,3.2-2.1,3.9-3.9c1.5-3.5-0.1-8.1-3.8-9.6
		c-17.1-6.6-34.4-12.8-51.6-19c-18.8-6.8-37.7-13.6-56.5-20.4c-0.4-0.2-0.9-0.3-1.3-0.5c-1.1-0.4-2.1-0.6-3.2-0.6
		C1226.9,1488.4,1226,1488.6,1225,1489L1225,1489L1225,1489z"/>
</g>
</svg>
